<svg width="42" height="43" viewBox="0 0 42 43" fill="none" xmlns="http://www.w3.org/2000/svg">
<path d="M21 1L24.2746 6.59418L29.5415 2.81555L30.2576 9.25798L36.606 7.94826L34.6399 14.125L40.9722 15.5106L36.6637 20.3537L41.885 24.1951L35.9791 26.867L39.1865 32.5L32.7045 32.5388L33.3435 38.9894L27.4061 36.3883L25.3661 42.5411L21 37.75L16.6339 42.5411L14.5939 36.3883L8.65651 38.9894L9.29547 32.5388L2.81347 32.5L6.02086 26.867L0.11504 24.1951L5.33628 20.3537L1.02781 15.5106L7.3601 14.125L5.39396 7.94826L11.7424 9.25798L12.4585 2.81555L17.7254 6.59418L21 1Z" fill="#FFC85C"/>
<path d="M20.9197 9H18.2197C18.0397 9 17.9197 9.12 17.9197 9.3V10.38C17.9197 10.56 18.0397 10.68 18.2197 10.68H20.6197V29.7C20.6197 29.88 20.7397 30 20.9197 30H22.1197C22.2997 30 22.4197 29.88 22.4197 29.7V10.5C22.4197 9.54 21.8797 9 20.9197 9Z" fill="white"/>
</svg>
