<svg width="42" height="43" viewBox="0 0 42 43" fill="none" xmlns="http://www.w3.org/2000/svg">
<path d="M21 1L24.2746 6.59418L29.5415 2.81555L30.2576 9.25798L36.606 7.94826L34.6399 14.125L40.9722 15.5106L36.6637 20.3537L41.885 24.1951L35.9791 26.867L39.1865 32.5L32.7045 32.5388L33.3435 38.9894L27.4061 36.3883L25.3661 42.5411L21 37.75L16.6339 42.5411L14.5939 36.3883L8.65651 38.9894L9.29547 32.5388L2.81347 32.5L6.02086 26.867L0.11504 24.1951L5.33628 20.3537L1.02781 15.5106L7.3601 14.125L5.39396 7.94826L11.7424 9.25798L12.4585 2.81555L17.7254 6.59418L21 1Z" fill="#FFC85C"/>
<path d="M25.5304 13.44C25.5304 10.8 23.7904 8.7 21.0004 8.7C18.3604 8.7 16.5604 10.8 16.4404 13.8C16.4404 13.98 16.5604 14.1 16.7404 14.1H17.8804C18.0604 14.1 18.1804 13.98 18.1804 13.8C18.2704 11.58 19.3204 10.38 21.0004 10.38C22.7704 10.38 23.7604 11.7 23.7604 13.44C23.7604 18.57 16.4404 21.03 16.4404 28.5V29.1C16.4404 29.67 16.7704 30 17.3404 30H25.2604C25.4404 30 25.5604 29.88 25.5604 29.7V28.62C25.5604 28.44 25.4404 28.32 25.2604 28.32H18.2404C18.2404 21.9 25.5304 19.44 25.5304 13.44Z" fill="white"/>
</svg>
