<svg width="42" height="43" viewBox="0 0 42 43" fill="none" xmlns="http://www.w3.org/2000/svg">
<path d="M21 1L24.2746 6.59418L29.5415 2.81555L30.2576 9.25798L36.606 7.94826L34.6399 14.125L40.9722 15.5106L36.6637 20.3537L41.885 24.1951L35.9791 26.867L39.1865 32.5L32.7045 32.5388L33.3435 38.9894L27.4061 36.3883L25.3661 42.5411L21 37.75L16.6339 42.5411L14.5939 36.3883L8.65651 38.9894L9.29547 32.5388L2.81347 32.5L6.02086 26.867L0.11504 24.1951L5.33628 20.3537L1.02781 15.5106L7.3601 14.125L5.39396 7.94826L11.7424 9.25798L12.4585 2.81555L17.7254 6.59418L21 1Z" fill="#FFC85C"/>
<path d="M20.8532 30.3C23.5532 30.3 25.4132 28.29 25.4132 25.32V21.99C25.4132 19.44 24.0632 17.37 21.3932 17.04L21.4532 16.92L25.0532 10.26C25.1732 10.05 25.2032 9.9 25.2032 9.69V9.45C25.2032 9.18 25.0232 9 24.7532 9L16.8932 8.97C16.7132 8.97 16.5932 9.09 16.5932 9.27V10.38C16.5932 10.56 16.7132 10.68 16.8932 10.68H22.8332L19.1432 17.25C19.0532 17.43 18.9932 17.61 18.9932 17.82V18.12C18.9932 18.3 19.1132 18.42 19.2932 18.42H20.4032C22.3232 18.42 23.6132 19.77 23.6132 21.99V25.32C23.6132 27.36 22.5632 28.62 20.8532 28.62C19.2632 28.62 18.1832 27.54 18.0932 25.14C18.0932 24.96 17.9732 24.84 17.7932 24.84H16.5932C16.4132 24.84 16.2932 24.96 16.2932 25.14C16.4132 28.41 18.2732 30.3 20.8532 30.3Z" fill="white"/>
</svg>
