<svg width="38" height="56" viewBox="0 0 38 56" fill="none" xmlns="http://www.w3.org/2000/svg">
<path d="M36.9258 45.3735C36.4727 45.3735 36.1054 45.7407 36.1054 46.1938V53.9062C36.1054 54.1559 35.9022 54.3592 35.6525 54.3592H31.2429V38.2048C31.2429 37.7518 30.8756 37.3845 30.4225 37.3845C29.9695 37.3845 29.6022 37.7518 29.6022 38.2048V54.3593H20.7226L23.2976 51.5265C23.579 51.2169 23.7116 50.776 23.6525 50.3466C23.6514 50.3383 23.65 50.33 23.6486 50.3217L21.1961 35.8331L21.8568 34.8385C22.2222 35.0979 22.5036 35.3477 23.0313 35.3477C23.5681 35.3477 24.07 35.0472 24.317 34.5527V34.5525L26.9037 29.3682L32.7964 31.6503C33.0096 31.7417 36.1052 33.1358 36.1052 36.8169V42.3655C36.1051 42.8185 36.4724 43.1858 36.9255 43.1858C37.3786 43.1858 37.7459 42.8186 37.7459 42.3655V36.8169C37.7459 31.9668 33.593 30.2038 33.4162 30.1311C33.4111 30.1289 33.4059 30.1268 33.4006 30.1248L23.5932 26.3267V24.0265C25.1509 22.8151 26.231 21.0193 26.5021 18.9704C27.2788 18.9158 27.9995 18.6257 28.588 18.1196C29.3566 17.4587 29.7976 16.4967 29.7976 15.4808C29.7976 14.6378 29.4934 13.8328 28.9513 13.2055V10.1667C28.9512 4.56083 24.3905 0 18.7846 0C13.1787 0 8.61798 4.56083 8.61798 10.1667V13.2851C8.07013 13.906 7.77219 14.6704 7.77219 15.4807C7.77219 16.4969 8.21297 17.4588 8.98176 18.1198C9.56987 18.6257 10.2901 18.9154 11.0666 18.9702C11.3399 21.0574 12.4515 22.9202 14.1419 24.1479V26.3267L4.34503 30.1247C4.33989 30.1267 4.33475 30.1288 4.32961 30.1308C4.15275 30.2036 0 31.9666 0 36.8167V53.906C0 55.0605 0.939203 55.9997 2.09366 55.9997H9.90927C10.3623 55.9997 10.7296 55.6324 10.7296 55.1794C10.7296 54.7263 10.3623 54.359 9.90927 54.359H8.14428V38.2048C8.14428 37.7518 7.777 37.3845 7.32397 37.3845C6.87094 37.3845 6.50366 37.7518 6.50366 38.2048V54.3593H2.09377C1.84406 54.3593 1.64084 54.156 1.64084 53.9063V36.8168C1.64084 33.1233 4.75727 31.7324 4.94867 31.6506L10.8368 29.368L13.4237 34.5525C13.6712 35.0483 14.1738 35.3477 14.7095 35.3477C15.2346 35.3477 15.5133 35.1017 15.884 34.8385L16.5447 35.8331L14.0924 50.3218C14.091 50.33 14.0898 50.3382 14.0886 50.3465C14.0293 50.7757 14.162 51.2168 14.4434 51.5266L17.0184 54.3594H13.7377C13.2847 54.3594 12.9174 54.7267 12.9174 55.1797C12.9174 55.6327 13.2847 56 13.7377 56H35.6526C36.8071 56 37.7463 55.0607 37.7463 53.9063V46.1939C37.7461 45.7407 37.3788 45.3735 36.9258 45.3735ZM25.3671 28.7732L22.9555 33.6065C22.8956 33.5639 21.6175 32.6559 20.0552 31.5465C20.7331 30.7097 19.94 31.6886 23.034 27.8696L25.3671 28.7732ZM20.5183 33.888L19.8929 34.8294H17.8473L17.2219 33.888L18.8701 32.7173L20.5183 33.888ZM15.7824 26.5914V25.0562C16.779 25.4579 17.8441 25.6442 18.8842 25.6442C19.9597 25.6442 21.0144 25.4149 21.9524 25.0048V26.598L18.8701 30.4026L15.7824 26.5914ZM28.1568 15.4808C28.1567 16.0182 27.924 16.5267 27.5182 16.8757C27.2499 17.1065 26.9258 17.254 26.5709 17.3118V13.6502C27.5137 13.8033 28.1568 14.5854 28.1568 15.4808ZM10.9987 17.3118C10.0452 17.157 9.41281 16.3686 9.41281 15.4807C9.41281 14.6037 10.1398 13.89 10.9987 13.6915V17.3118ZM11.0428 12.0199C10.7815 12.0498 10.4821 12.1206 10.2588 12.1965V10.1667C10.2588 5.46547 14.0835 1.64073 18.7847 1.64073C23.486 1.64073 27.3106 5.46547 27.3106 10.1667V12.1402C27.0722 12.0677 26.8249 12.0198 26.571 11.9972C26.571 11.2057 26.5779 11.3584 23.9885 8.57445C23.5122 8.0628 22.7245 7.95561 22.125 8.34728C19.2671 10.2142 15.7807 11.1521 12.564 10.9211C11.8584 10.8683 11.2157 11.333 11.0428 12.0199ZM12.6395 17.9576V12.8398V12.5701C16.1805 12.7775 19.893 11.7255 22.8922 9.80481C24.0798 11.0799 24.7229 11.7487 24.9303 12.0031C24.9303 12.6467 24.9303 17.2209 24.9303 17.9575C24.9303 21.2877 22.2149 24.0033 18.8844 24.0033C15.1444 24.0034 12.6395 21.1022 12.6395 17.9576ZM14.7849 33.6065L12.3733 28.7732L14.7022 27.8712L17.6817 31.5489C16.1665 32.6248 14.9224 33.5088 14.7849 33.6065ZM15.726 50.4987L18.1005 36.4699H19.6395L22.0139 50.4987L18.87 53.9574L15.726 50.4987Z" fill="white"/>
</svg>
