<svg width="42" height="54" viewBox="0 0 42 54" fill="none" xmlns="http://www.w3.org/2000/svg">
<path d="M31.365 47.4949H34.9495V49.2871H31.365V47.4949Z" fill="white"/>
<path d="M25.989 47.4949H29.5735V49.2871H25.989V47.4949Z" fill="white"/>
<path d="M4.48068 53.7679H36.7734C37.3663 53.7702 37.9536 53.6536 38.5006 53.4249C39.0476 53.1961 39.5432 52.86 39.958 52.4363C40.3679 52.0227 40.6909 51.5312 40.9079 50.9909C41.1249 50.4505 41.2316 49.8721 41.2216 49.2899V4.49715C41.2299 3.90841 41.1208 3.32392 40.9008 2.77776C40.6808 2.23161 40.3543 1.73474 39.9402 1.31612C39.5262 0.897508 39.0329 0.565537 38.4892 0.339575C37.9455 0.113613 37.3622 -0.00181596 36.7734 2.15991e-05H13.1345C12.5459 -0.00159386 11.9627 0.113566 11.4189 0.338834C10.8751 0.564103 10.3813 0.895005 9.9662 1.31239L1.31238 9.96621C0.895 10.3813 0.564098 10.8751 0.338829 11.4189C0.113561 11.9627 -0.0015987 12.5459 1.67634e-05 13.1345V49.2873C0.00135715 50.4752 0.473856 51.6141 1.31385 52.4541C2.15385 53.2941 3.29274 53.7666 4.48068 53.7679ZM1.79228 13.1345C1.79132 12.7813 1.86042 12.4314 1.99558 12.1051C2.13073 11.7788 2.32926 11.4826 2.57968 11.2335L10.7536 3.05958V8.06521C10.7528 8.77797 10.4693 9.46131 9.96531 9.96531C9.46131 10.4693 8.77797 10.7528 8.0652 10.7536H5.37681V12.5459H8.0652C9.25314 12.5445 10.392 12.072 11.232 11.232C12.072 10.392 12.5445 9.25314 12.5459 8.06521V1.85737C12.7391 1.81423 12.9365 1.79241 13.1345 1.79229H36.7734C37.1274 1.79068 37.4782 1.86011 37.8049 1.99646C38.1316 2.1328 38.4276 2.3333 38.6755 2.58608C38.9211 2.83462 39.1144 3.12991 39.2439 3.45447C39.3734 3.77903 39.4365 4.12627 39.4294 4.47565C39.4294 4.48057 39.4293 4.48544 39.4293 4.49031V49.2969C39.4293 49.3018 39.4294 49.3068 39.4294 49.3117C39.4358 49.6573 39.3728 50.0007 39.2441 50.3215C39.1154 50.6423 38.9237 50.9341 38.6802 51.1795C38.4318 51.433 38.135 51.6341 37.8075 51.7708C37.48 51.9076 37.1284 51.9772 36.7734 51.9757H4.48068C3.76792 51.9749 3.08458 51.6914 2.58058 51.1874C2.07659 50.6834 1.79309 50 1.79228 49.2873V13.1345Z" fill="white"/>
<path d="M32.2612 6.27258H34.9496V8.06485H32.2612V6.27258Z" fill="white"/>
<path d="M24.1956 6.27258H30.4685V8.06485H24.1956V6.27258Z" fill="white"/>
<path d="M22.6502 27.6227C22.3692 27.5233 22.0823 27.4199 21.7955 27.3125V22.2354C22.555 22.4589 23.0622 22.8213 23.0838 22.8369C23.5765 23.2061 24.2757 23.1081 24.6481 22.6167C25.0217 22.1236 24.9247 21.421 24.4316 21.0473C24.3659 20.9974 23.3243 20.2242 21.7955 19.9315V18.8166C21.7955 18.1979 21.294 17.6964 20.6753 17.6964C20.0566 17.6964 19.555 18.1979 19.555 18.8166V19.9234C19.3653 19.9598 19.1729 20.0059 18.978 20.0645C17.4014 20.5382 16.2229 21.8865 15.9024 23.5832C15.6099 25.1325 16.1063 26.6268 17.1978 27.4829C17.7902 27.9474 18.5303 28.3717 19.555 28.8222V35.3191C18.6728 35.2633 18.0827 35.0626 17.0989 34.419C16.5813 34.0802 15.8868 34.2254 15.5482 34.7432C15.2094 35.261 15.3546 35.9552 15.8724 36.294C17.3069 37.2324 18.2783 37.4982 19.555 37.5611V38.7195C19.555 39.3382 20.0566 39.8397 20.6753 39.8397C21.294 39.8397 21.7955 39.3382 21.7955 38.7195V37.4447C24.1944 36.9193 25.5973 34.9175 25.9121 33.0449C26.3236 30.5968 25.0433 28.4685 22.6502 27.6227ZM18.5805 25.7199C18.1499 25.3821 17.9673 24.7226 18.104 23.9988C18.2297 23.3332 18.6775 22.5306 19.555 22.2336V26.3362C19.1867 26.1398 18.8543 25.9346 18.5805 25.7199ZM23.7026 32.6734C23.5413 33.6328 22.8937 34.6505 21.7954 35.1001V29.6962C21.8319 29.7092 21.8665 29.7219 21.9035 29.735C23.9119 30.4449 23.7884 32.1635 23.7026 32.6734Z" fill="white"/>
</svg>
