<svg width="126" height="126" viewBox="0 0 126 126" fill="none" xmlns="http://www.w3.org/2000/svg">
<path d="M126 63C126 97.7944 97.7944 126 63 126C28.2056 126 0 97.7944 0 63C0 28.2056 28.2056 0 63 0C97.7944 0 126 28.2056 126 63Z" fill="url(#paint0_linear)"/>
<path d="M54.1572 57.7194H61.3258V61.3044H54.1572V57.7194Z" fill="white"/>
<path d="M115.347 52.361L103.172 50.6224C100.953 49.2587 98.6489 48.038 96.2737 46.9667C88.4299 43.4137 79.9165 41.5804 71.3047 41.5899H69.1899C59.027 41.5972 49.0267 44.1474 40.1006 49.0079L33.9566 52.3595C26.7647 52.4405 19.7114 54.3533 13.4631 57.915C10.9238 59.3713 9.35594 62.0732 9.35156 64.9997V75.6417C9.35156 76.6321 10.1537 77.4343 11.1441 77.4343H17.1619C19.1192 83.0182 25.2326 85.9585 30.8165 84.0012C33.8903 82.9241 36.3063 80.5073 37.3834 77.4343H85.2663C87.2237 83.0182 93.337 85.9585 98.9209 84.0012C101.994 82.9241 104.411 80.5073 105.488 77.4343H106.131C106.359 77.4343 106.585 77.3912 106.798 77.3066L112.603 74.9774C115.196 73.9506 116.894 71.4405 116.885 68.6526V54.1353C116.885 53.2441 116.229 52.4879 115.347 52.361ZM34.2972 75.2837C33.5045 79.1626 29.7175 81.6647 25.8386 80.872C21.9589 80.0793 19.4569 76.2922 20.2496 72.4126C21.043 68.5337 24.83 66.0316 28.7089 66.8243C32.0467 67.5062 34.4431 70.4429 34.4423 73.85C34.4423 74.3313 34.3935 74.8119 34.2972 75.2837ZM66.7024 73.85H38.0266C38.0266 67.9109 33.2128 63.0964 27.2738 63.0964C21.3347 63.0964 16.5201 67.9109 16.5201 73.85H12.9359V64.9997C12.938 63.3582 13.8175 61.842 15.2425 61.0267C21.0911 57.6875 27.7084 55.93 34.4423 55.9278H66.7024V73.85ZM66.7024 52.3435H41.4716L41.8173 52.1546C49.4796 47.9906 57.9907 45.63 66.7024 45.2529V52.3435ZM70.2867 45.1742H71.3011C78.5237 45.1662 85.6806 46.5372 92.389 49.2142L89.2598 52.3435H70.2867V45.1742ZM102.402 75.2837C101.609 79.1626 97.8219 81.6647 93.9423 80.872C90.0634 80.0793 87.5613 76.2922 88.354 72.4126C89.1467 68.5337 92.9345 66.0316 96.8134 66.8243C100.151 67.5062 102.548 70.4429 102.547 73.85C102.547 74.3313 102.498 74.8119 102.402 75.2837ZM113.3 57.7196H107.924V61.3046H113.3V68.6526C113.305 69.9732 112.5 71.1619 111.272 71.6469L106.131 73.7114C106.131 73.5466 106.11 73.3832 106.099 73.2184C106.088 73.0536 106.084 72.8604 106.067 72.681C106.049 72.5016 106.013 72.3222 105.985 72.1435C105.955 71.9641 105.934 71.7847 105.898 71.6221C105.863 71.4587 105.81 71.2779 105.764 71.1072C105.717 70.9373 105.681 70.7652 105.627 70.5982C105.574 70.4319 105.509 70.2722 105.449 70.1089C105.387 69.9463 105.332 69.7778 105.269 69.6159C105.206 69.4547 105.122 69.3082 105.047 69.1557C104.972 69.0033 104.898 68.8363 104.814 68.6825C104.729 68.5286 104.635 68.3973 104.554 68.2544C104.473 68.1107 104.375 67.9474 104.273 67.8008C104.17 67.6535 104.075 67.5375 103.977 67.4048C103.878 67.2721 103.767 67.116 103.652 66.9782C103.538 66.8404 103.431 66.7324 103.319 66.6194C103.208 66.5071 103.084 66.3547 102.961 66.2292C102.837 66.1038 102.715 66.0046 102.592 65.8938C102.468 65.7829 102.335 65.6517 102.199 65.535C102.063 65.419 101.925 65.3293 101.789 65.2272C101.653 65.1252 101.516 65.0158 101.373 64.9202C101.23 64.8254 101.069 64.7416 100.915 64.6409C100.76 64.5403 100.635 64.4615 100.49 64.385C100.344 64.3077 100.164 64.2267 99.9988 64.1479C99.834 64.0692 99.7049 63.9992 99.5525 63.935C99.4001 63.8701 99.1937 63.8023 99.015 63.7381C98.8356 63.6732 98.7189 63.6229 98.5665 63.5748C98.3623 63.512 98.153 63.4668 97.9445 63.415C97.8081 63.383 97.6776 63.3399 97.5397 63.3115C97.3195 63.2663 97.0934 63.2415 96.8695 63.2087C96.7368 63.1912 96.6099 63.162 96.4772 63.1496C96.1184 63.1139 95.7603 63.0942 95.384 63.0942C89.4472 63.1 84.6363 67.9109 84.6304 73.8478H70.2874V55.927H90.0014C90.4769 55.927 90.9327 55.7382 91.2681 55.402L95.9157 50.7544C97.8664 51.6828 99.7632 52.7205 101.597 53.8625C101.809 53.9945 102.045 54.0813 102.292 54.117L113.3 55.6886V57.7196Z" fill="white"/>
<defs>
<linearGradient id="paint0_linear" x1="63" y1="0" x2="63" y2="126" gradientUnits="userSpaceOnUse">
<stop stop-color="#009FFD"/>
<stop offset="1" stop-color="#2A2A72"/>
</linearGradient>
</defs>
</svg>
