<svg width="126" height="126" viewBox="0 0 126 126" fill="none" xmlns="http://www.w3.org/2000/svg">
<path d="M126 63C126 97.7944 97.7944 126 63 126C28.2056 126 0 97.7944 0 63C0 28.2056 28.2056 0 63 0C97.7944 0 126 28.2056 126 63Z" fill="url(#paint0_linear)"/>
<path d="M89.0404 75.1884C89.0404 77.7301 86.9804 79.7901 84.4387 79.7901C81.898 79.7901 79.8379 77.7301 79.8379 75.1884C79.8379 72.6477 81.898 70.5876 84.4387 70.5876C86.9804 70.5876 89.0404 72.6477 89.0404 75.1884Z" fill="white"/>
<path d="M84.4397 57.187C74.5075 57.187 66.4268 65.2677 66.4268 75.2009V76.1199C66.4268 81.0831 69.1597 86.7548 74.5517 92.9773C78.346 97.357 82.1066 100.433 82.2642 100.562L84.4397 102.332L86.6151 100.562C86.7728 100.433 90.5324 97.357 94.3276 92.9773C99.7186 86.7548 102.453 81.0831 102.453 76.1199V75.2009C102.452 65.2677 94.3719 57.187 84.4397 57.187ZM95.561 76.1199C95.561 81.7945 88.803 89.2676 84.4435 93.308C80.1686 89.3224 73.3174 81.7531 73.3174 76.1199V75.2009C73.3174 69.0678 78.3065 64.0776 84.4387 64.0776C90.5718 64.0776 95.561 69.0678 95.561 75.2009V76.1199Z" fill="white"/>
<path d="M93.6211 23.6683H32.0006L23.5479 51.9008V52.3497C23.5479 55.0952 24.6303 57.6571 26.5961 59.5653C27.5421 60.4833 28.6408 61.1985 29.8357 61.6898V92.9956C29.8357 98.0703 33.9645 102.198 39.0393 102.198H75.4467C73.9423 100.78 72.0706 98.9057 70.1999 96.7475C70.0019 96.5188 69.8067 96.2909 69.6154 96.0631H39.0393C37.3474 96.0631 35.9717 94.6875 35.9717 92.9956V86.725H63.3641C62.3451 84.637 61.6155 82.5904 61.1733 80.59H35.9717V62.2454C37.9184 61.8301 39.6641 60.863 41.033 59.5134C42.8893 61.3427 45.4358 62.4732 48.2418 62.4732C51.07 62.4732 53.6357 61.3245 55.4958 59.4691C57.38 61.3254 59.9649 62.4732 62.8123 62.4732C63.3718 62.4732 63.9197 62.4271 64.4552 62.3425C66.7306 58.8193 69.9106 55.9325 73.6645 54.0157C73.3943 53.4668 73.2424 52.8496 73.2424 52.1969V48.9756H67.1084V52.0431C67.1084 54.4117 65.181 56.3382 62.8123 56.3382C60.4446 56.3382 58.5172 54.4117 58.5172 52.0431V48.9756H52.3841V52.1969C52.3841 54.48 50.5249 56.3382 48.2418 56.3382C46.0106 56.3382 44.1899 54.5627 44.1082 52.3507V48.9756H37.9568V52.3507C37.8751 54.5627 36.0554 56.3382 33.8242 56.3382C31.6382 56.3382 29.8973 54.7857 29.7012 52.7381L36.5677 29.8033H89.0617L95.9244 52.5881C95.8715 53.1457 95.7072 53.6706 95.4553 54.1426C97.2856 55.1029 98.9756 56.2949 100.486 57.6802C101.492 56.0921 102.078 54.2118 102.078 52.1969V51.7451L93.6211 23.6683Z" fill="white"/>
<defs>
<linearGradient id="paint0_linear" x1="63" y1="0" x2="63" y2="126" gradientUnits="userSpaceOnUse">
<stop stop-color="#009FFD"/>
<stop offset="1" stop-color="#2A2A72"/>
</linearGradient>
</defs>
</svg>
