<svg width="41" height="41" viewBox="0 0 41 41" fill="none" xmlns="http://www.w3.org/2000/svg">
<g clip-path="url(#clip0)">
<path d="M9.1579 34.3417L8.51804 29.8203C8.42694 29.1768 7.83079 28.7276 7.18786 28.8199C6.54424 28.9109 6.09637 29.5065 6.18747 30.1501L6.33074 31.1626C5.10884 29.6547 4.13591 27.9447 3.46192 26.1018C-1.30907 13.0575 10.213 -0.0982362 23.6466 2.76737C24.2822 2.90264 24.9075 2.49762 25.0433 1.86191C25.1789 1.22621 24.7735 0.600943 24.1378 0.465282C8.96849 -2.77114 -4.18896 12.0365 1.25131 26.9104C2.0135 28.9945 3.11323 30.9292 4.4948 32.6362L3.35756 32.4178C2.71903 32.2953 2.10232 32.7132 1.97968 33.3515C1.85704 33.9899 2.27509 34.6067 2.91338 34.7294L7.67009 35.6432C8.52675 35.8849 9.27151 35.1431 9.1579 34.3417Z" fill="white"/>
<path d="M38.8197 13.1517C38.0575 11.0676 36.9578 9.13289 35.5762 7.42586L36.7136 7.6443C37.3515 7.76671 37.9688 7.34889 38.0914 6.7106C38.2141 6.07223 37.796 5.45536 37.1577 5.33272L32.4001 4.41871C31.5543 4.18065 30.7979 4.90635 30.9132 5.72025L31.5531 10.2417C31.6362 10.8294 32.1399 11.2539 32.7169 11.2539C33.4363 11.2539 33.9836 10.6181 33.8836 9.91187L33.7404 8.89931C34.9623 10.4073 35.9352 12.1172 36.6092 13.9601C39.9505 23.0957 35.251 33.2512 26.1333 36.5985C23.014 37.7436 19.6568 37.9842 16.4245 37.2946C15.789 37.159 15.1635 37.5643 15.0279 38.2C14.8922 38.8357 15.2976 39.461 15.9333 39.5967C19.6004 40.3791 23.408 40.1064 26.9444 38.8081C37.3043 35.005 42.6155 23.5297 38.8197 13.1517Z" fill="white"/>
<path d="M32.2359 20.091C32.2359 13.3524 26.7629 7.87012 20.0356 7.87012C13.3083 7.87012 7.83521 13.3524 7.83521 20.091C7.83521 26.8296 13.3083 32.3118 20.0356 32.3118C26.7629 32.3118 32.2359 26.8296 32.2359 20.091ZM10.1891 20.091C10.1891 14.6503 14.6062 10.224 20.0356 10.224C25.4649 10.224 29.8821 14.6503 29.8821 20.091C29.8821 25.5316 25.4649 29.9579 20.0356 29.9579C14.6062 29.9579 10.1891 25.5316 10.1891 20.091Z" fill="white"/>
<path d="M21.2126 26.702V25.7196C23.252 25.7196 24.6711 24.1189 24.6711 22.317C24.6711 20.4407 23.1465 18.9143 21.2726 18.9143H18.7988C18.2227 18.9143 17.7541 18.4438 17.7541 17.8655C17.7541 17.3073 18.1934 16.8167 18.8152 16.8167H21.1837C21.5993 16.8209 22.0106 17.0082 22.3126 17.3311C22.7566 17.8058 23.5013 17.8306 23.9761 17.3865C24.4508 16.9425 24.4756 16.1978 24.0316 15.7231C23.2934 14.9339 22.2666 14.4756 21.2126 14.4634V13.4805C21.2126 12.8305 20.6856 12.3036 20.0356 12.3036C19.3857 12.3036 18.8587 12.8305 18.8587 13.4805V14.463C16.8192 14.463 15.4001 16.0636 15.4001 17.8656C15.4001 19.7418 16.9248 21.2682 18.7987 21.2682H21.2725C21.8486 21.2682 22.3172 21.7387 22.3172 22.317C22.3172 22.8993 21.8473 23.3659 21.2727 23.3659C21.2672 23.3659 21.2615 23.3658 21.256 23.3658H18.6716C18.3784 23.3628 18.0665 23.2565 17.793 23.0664C17.2592 22.6955 16.5258 22.8275 16.1549 23.3612C15.7839 23.895 15.9159 24.6283 16.4497 24.9994C17.2555 25.5594 18.0055 25.7197 18.8586 25.7197V26.7022C18.8586 27.3521 19.3856 27.8791 20.0356 27.8791C20.6856 27.8789 21.2126 27.352 21.2126 26.702Z" fill="white"/>
</g>
<defs>
<clipPath id="clip0">
<rect width="40.0459" height="40.0459" fill="white"/>
</clipPath>
</defs>
</svg>
