<svg width="1871" height="1149" viewBox="0 0 1871 1149" fill="none" xmlns="http://www.w3.org/2000/svg">
<path d="M1871 0H0V1149H1871V0Z" fill="#DDEDEA"/>
<path d="M85.9108 238.969C106.111 201.297 156.265 182.234 196.898 196.758C237.532 211.282 263.537 257.578 254.482 299.108C267.717 290.484 285.828 289.803 298.831 298.427C311.833 307.051 318.799 323.845 315.548 339.05C317.406 328.156 321.353 317.036 329.248 309.093C337.142 301.151 349.681 297.066 360.361 301.151C370.81 305.235 377.544 318.398 372.203 328.383C369.881 317.036 380.794 306.143 392.636 305.916C404.478 305.689 414.926 317.49 413.069 329.064C431.18 331.334 441.164 352.893 436.056 369.913C430.715 386.934 410.515 397.6 392.868 393.742C408.425 410.536 407.496 435.726 394.958 454.789C382.42 473.852 359.433 484.745 336.446 487.242C313.459 489.738 290.239 484.518 268.413 476.802C260.983 497.908 243.105 515.155 223.136 525.822C203.168 536.261 180.413 540.8 157.89 541.707C128.866 542.842 98.4492 538.076 75.4622 520.602C52.9396 503.354 40.6335 475.895 36.454 448.208C32.5068 420.521 35.9896 392.381 40.4013 364.694C42.491 351.077 45.0451 337.461 51.5465 325.433C58.0478 313.405 69.4252 303.193 83.3567 301.151C71.9793 293.888 62.6917 279.137 62.6917 265.975C62.9239 253.039 74.3013 245.777 85.9108 238.969Z" fill="#F8FBFB"/>
<path d="M393.1 715.77C362.683 670.836 355.021 611.605 372.9 560.543C390.778 509.481 433.966 467.497 486.209 450.477C538.452 433.456 598.59 441.626 644.099 472.036C648.975 457.058 661.746 446.619 677.535 445.257C691.466 444.122 705.398 450.477 715.847 459.781C737.905 479.525 744.638 514.02 731.403 540.345C736.512 533.991 744.406 534.672 749.747 540.799C755.319 546.927 753.462 557.82 746.264 562.132C749.282 553.281 757.641 548.969 766.929 551.919C775.984 554.869 781.789 565.536 778.771 574.386C784.111 563.947 785.969 551.238 794.56 543.295C803.151 535.353 815.689 530.36 827.066 533.764C836.122 536.487 842.855 544.203 847.499 552.373C855.858 567.351 857.716 586.868 848.892 601.392C860.038 602.073 865.61 612.285 868.397 622.725C872.112 636.795 868.397 652.681 858.412 663.574C848.66 674.467 833.103 680.368 818.475 678.325C828.924 678.098 837.051 690.126 837.283 700.338C843.088 693.303 850.75 689.218 860.038 689.445C869.093 689.672 878.149 693.984 883.721 701.019C894.866 715.316 908.333 730.748 898.117 745.727C898.814 738.01 904.618 731.429 912.281 729.16C919.943 726.663 928.766 729.387 933.875 735.287C925.284 730.748 921.568 718.494 922.033 708.735C922.497 698.977 928.766 689.899 937.822 686.041C918.086 675.375 907.405 649.731 911.816 627.944C916.228 606.158 936.196 588.23 958.719 585.96C951.057 573.479 955.004 557.366 964.988 546.7C974.972 535.806 989.833 530.587 1004.46 528.544C1009.34 527.863 1014.68 527.637 1019.32 529.452C1023.96 531.495 1027.45 536.26 1026.29 541.253C1012.59 528.998 1005.16 507.893 1003.76 489.511C1002.37 471.128 1007.94 452.519 1019.55 438.222C1029.07 426.421 1042.77 417.343 1057.63 414.393C1072.49 411.443 1089.21 414.393 1101.28 423.698C1104.77 413.032 1112.43 405.316 1123.81 404.408C1127.06 404.181 1130.77 404.635 1133.56 406.45C1136.35 408.493 1137.74 412.351 1136.11 415.074C1134.49 398.28 1137.27 380.579 1150.04 369.232C1162.82 357.885 1181.39 353.119 1198.11 356.296C1201.13 356.977 1204.15 357.885 1206 359.927C1208.09 361.97 1208.56 365.828 1206.24 367.87C1208.33 344.949 1220.4 323.844 1238.05 308.639C1255.69 293.434 1279.38 285.264 1302.83 286.172C1307.94 286.399 1313.28 287.08 1317.92 289.576C1322.33 292.072 1325.81 297.065 1325.35 302.058C1313.74 283.902 1309.56 262.57 1317.92 242.826C1326.28 223.082 1344.85 207.877 1366.22 203.338C1378.52 200.842 1391.76 201.75 1402.44 207.877C1411.26 212.87 1417.99 221.267 1420.78 230.798C1423.33 222.628 1429.6 214.459 1438.19 212.87C1446.79 211.281 1456.07 214.912 1461.41 221.721C1503.44 214.912 1541.75 233.068 1563.58 268.924C1585.4 304.781 1588.89 349.034 1583.78 390.564C1571.94 491.553 1511.57 581.648 1434.94 648.823C1358.32 715.997 1265.44 762.747 1172.34 804.958C1067.85 852.162 952.682 895.507 840.766 870.09C733.261 845.807 650.833 763.201 574.906 684.453C560.046 713.955 528.932 736.422 496.193 742.776C462.99 749.131 411.676 743.23 393.1 715.77Z" fill="#F8FBFB"/>
<path d="M0 371.275L140.476 405.543V471.129L400.066 551.92V642.242H537.059V601.847V446.619L628.543 479.526L630.168 542.615L714.454 572.798L711.667 612.74V701.927L761.589 714.863L762.517 615.69L812.439 598.442L856.555 606.158L843.552 717.813L851.911 795.881L909.262 795.2L902.993 888.472L960.345 884.388L952.45 772.733L986.814 762.293L996.799 509.482L1076.67 474.987L1099.2 482.249L1092.23 550.558C1092.23 550.558 1175.82 548.289 1177.91 541.707C1180 534.899 1187.89 317.036 1187.89 317.036L1236.42 310.001L1291.91 235.564L1356.7 219.679V386.48H1532L1535.48 162.036L1670.39 115.967L1774.18 172.702L1765.82 567.579L1870.77 568.259V1148.55H0V371.275Z" fill="#96C5BF"/>
<path d="M954.075 835.368L954.539 836.049L956.629 852.843L939.447 854.431L938.75 853.977L954.075 835.368Z" fill="#9694B5"/>
<path d="M930.856 823.113C930.856 820.617 928.766 818.574 926.212 818.574C923.658 818.574 921.568 820.617 921.568 823.113C921.568 825.609 923.658 827.652 926.212 827.652C928.766 827.652 930.856 825.609 930.856 823.113Z" fill="#434168"/>
<path d="M937.822 939.76H935.035V907.308L932.017 876.444L924.819 823.34L927.605 822.886L935.035 875.99L937.822 907.308V939.76Z" fill="#434168"/>
<path d="M923.194 832.19L932.946 830.602L930.856 833.779L934.339 857.381L937.125 861.919L924.819 862.827L927.373 857.835L924.819 834.46L923.194 832.19Z" fill="#434168"/>
<path d="M930.392 907.308L942.466 906.173L940.144 909.804L943.627 936.81H945.252V939.76L928.302 940.214V937.491H930.624L932.017 910.485L930.392 907.308Z" fill="#434168"/>
<path d="M908.798 841.269L922.265 842.403L923.194 857.154L910.655 858.743L908.798 841.269Z" fill="#434168"/>
<path d="M920.64 848.757L927.605 848.076L927.838 850.346L920.872 851.026L920.64 848.757Z" fill="#434168"/>
<path d="M931.321 845.808L938.751 844.673L939.215 846.715L931.553 847.396L931.321 845.808Z" fill="#434168"/>
<path d="M937.589 838.091L938.75 853.977L955.7 852.389L954.075 835.368L937.589 838.091Z" fill="#434168"/>
<path d="M910.424 842.856L911.352 857.381L922.265 856.246L921.336 843.31L910.424 842.856Z" fill="#E5BFA8"/>
<path d="M938.983 838.998L939.912 852.615L954.075 851.48L953.146 836.502L938.983 838.998Z" fill="#F4F7C8"/>
<path d="M908.798 841.269L907.869 841.495L909.495 858.743H910.656L908.798 841.269Z" fill="#9694B5"/>
<path d="M925.98 826.517C924.819 826.517 923.891 825.836 923.194 824.929C922.497 824.021 922.497 822.886 922.962 821.751C923.426 820.844 924.355 819.936 925.516 819.709C924.587 820.617 924.123 821.978 924.355 823.113C924.355 824.475 925.052 825.609 925.98 826.517Z" fill="#9694B5"/>
<path d="M928.767 832.19L924.587 832.871L925.516 834.233L928.767 857.381L926.909 861.466L930.856 861.012C930.856 861.012 929.927 860.331 929.695 859.196C929.463 858.062 926.677 834.006 926.677 834.006L928.767 832.19Z" fill="#9694B5"/>
<path d="M932.249 908.443L933.643 910.486L932.249 936.811H935.732L935.268 910.032L935.732 907.989L932.249 908.443Z" fill="#9694B5"/>
<path d="M1871 940.215H0V1149H1871V940.215Z" fill="#686E85"/>
<path d="M219.886 943.165C219.886 980.837 549.598 1011.25 956.398 1011.25C1363.2 1011.25 1692.91 980.837 1692.91 943.165C1692.91 942.257 1692.68 941.123 1692.21 940.215H220.582C220.118 941.123 219.886 942.257 219.886 943.165Z" fill="#9493A5"/>
<path d="M294.651 731.202L295.812 732.564L299.759 766.605L265.627 769.782L264.002 768.647L294.651 731.202Z" fill="#9694B5"/>
<path d="M248.213 706.919C248.213 701.927 244.033 697.842 239.157 697.842C234.281 697.842 230.102 701.927 230.102 706.919C230.102 711.912 234.281 715.997 239.157 715.997C244.033 715.997 248.213 711.912 248.213 706.919Z" fill="#434168"/>
<path d="M262.377 940.669H256.572V875.763L250.767 813.809L236.139 707.374L241.944 706.466L256.572 813.128L262.377 875.537V940.669Z" fill="#434168"/>
<path d="M232.888 725.302L252.624 721.897L248.212 728.479L255.178 775.456L260.751 784.533L235.906 786.349L241.479 776.363L236.138 729.613L232.888 725.302Z" fill="#434168"/>
<path d="M247.516 875.763L271.432 873.267L266.788 880.529L273.986 934.767H277.005V940.668L243.105 941.576V936.129H247.981L250.767 882.344L247.516 875.763Z" fill="#434168"/>
<path d="M204.096 743.229L231.263 745.499L232.888 775.001L207.579 778.405L204.096 743.229Z" fill="#434168"/>
<path d="M227.78 758.208L241.711 757.073L242.176 761.385L228.244 762.974L227.78 758.208Z" fill="#434168"/>
<path d="M249.141 752.08L264.234 749.811L264.93 754.122L249.838 755.711L249.141 752.08Z" fill="#434168"/>
<path d="M261.448 737.103L264.002 768.647L297.902 765.697L294.651 731.202L261.448 737.103Z" fill="#434168"/>
<path d="M207.115 746.407L209.205 775.683L230.799 773.186L229.173 747.542L207.115 746.407Z" fill="#E5BFA8"/>
<path d="M264.234 738.918L266.091 765.924L294.883 763.655L292.793 733.472L264.234 738.918Z" fill="#F4F7C8"/>
<path d="M204.096 743.229L202.007 743.683L205.257 778.405H207.579L204.096 743.229Z" fill="#9694B5"/>
<path d="M238.693 713.5C236.371 713.5 234.281 712.139 233.12 710.323C231.959 708.508 231.727 706.011 232.656 703.969C233.584 701.926 235.442 700.338 237.532 699.884C235.674 701.699 234.978 704.196 234.978 706.692C235.21 709.415 236.603 712.139 238.693 713.5Z" fill="#9694B5"/>
<path d="M243.801 725.302L235.21 726.436L237.299 729.16L243.801 775.683L240.086 783.852L247.98 783.172C247.98 783.172 245.891 781.583 245.426 779.541C244.962 777.498 239.389 728.933 239.389 728.933L243.801 725.302Z" fill="#9694B5"/>
<path d="M251.231 877.806L253.553 881.891L251.231 934.768H257.965L256.804 881.437L257.965 877.125L251.231 877.806Z" fill="#9694B5"/>
<path d="M702.612 803.597C702.612 800.646 704.933 798.377 707.952 798.377C710.97 798.377 713.292 800.646 713.292 803.597C713.292 806.547 710.97 808.816 707.952 808.816C704.933 808.816 702.612 806.547 702.612 803.597Z" fill="#434168"/>
<path d="M694.253 941.123H697.736V902.997L700.986 866.46L709.577 803.824L706.327 803.37L697.736 866.006L694.253 902.77V941.123Z" fill="#434168"/>
<path d="M711.435 814.49L700.058 812.447L702.612 816.305L698.432 843.992L695.182 849.212L709.81 850.346L706.559 844.446L709.577 816.986L711.435 814.49Z" fill="#434168"/>
<path d="M703.076 902.997L688.912 901.408L691.699 905.72L687.519 937.719H685.662V941.123L705.63 941.577V938.399H702.612L701.218 906.628L703.076 902.997Z" fill="#434168"/>
<path d="M728.617 824.929L712.596 826.29L711.435 843.765L726.295 845.58L728.617 824.929Z" fill="#434168"/>
<path d="M714.453 833.779L706.327 833.099L706.094 835.595L714.221 836.503L714.453 833.779Z" fill="#434168"/>
<path d="M726.76 826.744L725.367 843.992L712.828 842.63L713.757 827.425L726.76 826.744Z" fill="#E5BFA8"/>
<path d="M728.617 824.929L729.778 825.156L727.92 845.58H726.295L728.617 824.929Z" fill="#9694B5"/>
<path d="M708.184 807.454C709.578 807.454 710.739 806.773 711.435 805.639C712.132 804.504 712.364 803.142 711.667 802.008C711.203 800.873 710.042 799.965 708.649 799.738C709.578 800.873 710.274 802.235 710.042 803.823C710.274 804.958 709.345 806.546 708.184 807.454Z" fill="#9694B5"/>
<path d="M705.166 814.263L710.274 814.944L709.113 816.532L705.398 843.992L707.488 848.758L702.844 848.304C702.844 848.304 704.005 847.396 704.237 846.034C704.469 844.673 707.72 816.305 707.72 816.305L705.166 814.263Z" fill="#9694B5"/>
<path d="M700.754 904.132L699.361 906.401L700.754 937.719H696.807L697.503 906.174L696.807 903.678L700.754 904.132Z" fill="#9694B5"/>
<path d="M1605.61 748.677L1604.44 749.811L1600.96 780.902L1632.07 783.626L1633.47 782.718L1605.61 748.677Z" fill="#9694B5"/>
<path d="M1647.86 726.436C1647.86 721.898 1651.58 718.267 1656.22 718.267C1660.87 718.267 1664.58 721.898 1664.58 726.436C1664.58 730.975 1660.87 734.606 1656.22 734.606C1651.58 734.606 1647.86 730.975 1647.86 726.436Z" fill="#434168"/>
<path d="M1634.86 939.306H1640.2V880.302L1645.54 823.793L1658.78 726.89L1653.67 726.209L1640.2 823.113L1634.86 880.075V939.306Z" fill="#434168"/>
<path d="M1661.8 743.23L1643.92 740.053L1647.86 745.953L1641.59 788.845L1636.49 797.242L1659.01 798.83L1654.13 789.753L1658.78 747.088L1661.8 743.23Z" fill="#434168"/>
<path d="M1648.56 880.302L1626.73 878.032L1630.91 884.613L1624.41 934.087H1621.63V939.306L1652.51 940.214V935.221H1648.1L1645.54 886.202L1648.56 880.302Z" fill="#434168"/>
<path d="M1688.03 759.57L1663.42 761.613L1661.8 788.392L1684.78 791.569L1688.03 759.57Z" fill="#434168"/>
<path d="M1666.44 773.186L1653.67 772.052L1653.44 775.91L1665.98 777.498L1666.44 773.186Z" fill="#434168"/>
<path d="M1646.94 767.513L1633.24 765.471L1632.77 769.329L1646.47 770.69L1646.94 767.513Z" fill="#434168"/>
<path d="M1635.79 753.896L1633.47 782.718L1602.59 779.994L1605.61 748.677L1635.79 753.896Z" fill="#434168"/>
<path d="M1685.25 762.293L1683.39 789.072L1663.65 786.803L1665.05 763.428L1685.25 762.293Z" fill="#E5BFA8"/>
<path d="M1633.24 755.485L1631.61 780.221L1605.37 778.179L1607.23 750.719L1633.24 755.485Z" fill="#F4F7C8"/>
<path d="M1688.03 759.57L1689.89 759.797L1686.87 791.569H1684.78L1688.03 759.57Z" fill="#9694B5"/>
<path d="M1656.69 732.337C1658.78 732.337 1660.63 731.202 1661.8 729.387C1662.96 727.798 1662.96 725.529 1662.26 723.713C1661.56 721.898 1659.71 720.536 1657.85 720.082C1659.47 721.671 1660.17 724.167 1660.17 726.209C1659.71 728.706 1658.31 731.202 1656.69 732.337Z" fill="#9694B5"/>
<path d="M1651.81 743.003L1659.47 744.138L1657.62 746.634L1651.81 789.072L1655.06 796.561L1647.86 795.88C1647.86 795.88 1649.72 794.519 1650.19 792.476C1650.65 790.434 1655.76 746.407 1655.76 746.407L1651.81 743.003Z" fill="#9694B5"/>
<path d="M1645.08 882.117L1642.99 885.748L1645.08 934.087H1639.04L1639.97 885.295L1639.04 881.437L1645.08 882.117Z" fill="#9694B5"/>
<path d="M1757.92 949.519H839.605L848.428 940.215H1750.96L1757.92 949.519Z" fill="#C0BFD3"/>
<path d="M1457.23 949.519L1463.04 940.215H1750.96L1757.92 949.519H1457.23Z" fill="#434168"/>
<path d="M83.3567 949.519H729.314L720.723 940.215H90.0902L83.3567 949.519Z" fill="#C0BFD3"/>
<path d="M384.045 949.519L378.008 940.215H90.0902L83.3567 949.519H384.045Z" fill="#434168"/>
<path d="M1562.18 940.215V901.181L1591.91 898.685L1585.87 940.215H1562.18Z" fill="#434168"/>
<path d="M1560.33 901.181V895.281L1594.69 888.927L1593.53 899.366L1560.33 901.181Z" fill="#434168"/>
<path d="M1570.78 893.238L1569.38 887.791L1583.78 884.614V890.969L1582.62 891.196L1581.22 887.338L1571.94 888.926L1572.4 893.011L1570.78 893.238Z" fill="#434168"/>
<path d="M1566.13 895.054V900.954L1570.78 900.5L1571.47 894.373L1566.13 895.054Z" fill="#777596"/>
<path d="M1565.44 940.215L1567.29 901.635L1569.38 901.408L1567.99 940.215H1565.44Z" fill="#777596"/>
<path d="M1580.06 899.82L1580.53 893.239L1592.83 890.742L1591.67 899.366L1580.06 899.82Z" fill="#32314E"/>
<path d="M1589.35 900.046L1583.78 940.214H1577.97L1582.15 900.5L1589.35 900.046Z" fill="#32314E"/>
<path d="M661.05 917.975L657.567 939.08H671.73L674.517 918.429L661.05 917.975Z" fill="#C73E52"/>
<path d="M660.353 922.514L657.334 922.287C657.334 922.287 656.638 922.514 656.173 925.01C655.709 927.507 656.406 927.961 656.406 927.961L659.424 928.642L660.353 922.514Z" fill="#6B1049"/>
<path d="M656.638 923.422H655.245L655.013 925.237L656.173 925.691L656.638 923.422Z" fill="#6B1049"/>
<path d="M666.854 917.974L661.746 917.521L658.728 938.626L665.693 939.08L666.854 917.974Z" fill="#6B1049"/>
<path d="M673.356 918.883L670.802 939.08H669.409L671.499 918.429L673.356 918.883Z" fill="#EB9189"/>
<path d="M674.981 915.932C674.981 915.932 674.749 909.805 669.176 908.897C661.978 907.762 660.817 915.478 660.817 915.478L674.981 915.932Z" fill="#C73E52"/>
<path d="M668.015 909.352C668.015 909.352 665.925 909.352 663.836 911.621C661.746 913.89 661.514 916.16 661.514 916.16L668.944 916.387C668.944 916.387 668.015 915.252 667.783 912.983C667.551 911.167 668.015 909.352 668.015 909.352Z" fill="#6B1049"/>
<path d="M670.57 910.032C670.57 910.032 672.659 910.94 673.356 912.302C673.82 913.663 674.285 915.933 674.285 915.933H672.427C672.427 915.933 672.427 913.663 671.731 912.302C671.034 911.167 670.57 910.032 670.57 910.032Z" fill="#EB9189"/>
<path d="M676.374 924.102L671.266 923.648C671.266 923.648 670.337 924.556 669.641 926.145C668.944 927.96 669.873 929.095 669.873 929.095L675.213 930.23C678.232 930.23 678.696 925.691 676.374 924.102Z" fill="#C73E52"/>
<path d="M678.464 926.598L676.142 926.371C675.678 926.825 675.677 927.506 675.677 928.187L678.232 928.867C678.928 928.413 679.16 927.506 678.464 926.598Z" fill="#6B1049"/>
<path d="M676.374 924.102C672.891 925.918 672.891 927.96 675.213 930.457L669.873 929.322C669.176 926.826 669.641 925.01 671.266 923.648L676.374 924.102Z" fill="#6B1049"/>
<path d="M676.374 918.882L659.889 917.974L659.656 915.251L676.607 915.705L676.374 918.882Z" fill="#C73E52"/>
<path d="M668.247 915.932V917.521L661.05 917.294L660.817 915.705L668.247 915.932Z" fill="#6B1049"/>
<path d="M674.517 939.081L655.942 938.173L655.245 940.215H675.213L674.517 939.081Z" fill="#C73E52"/>
<path d="M656.638 938.626L655.941 940.215H666.622V939.08L656.638 938.626Z" fill="#6B1049"/>
<path d="M676.142 915.933L675.91 918.429L672.427 918.202V915.933H676.142Z" fill="#EB9189"/>
<path d="M674.284 939.08L674.517 939.988H671.266L671.034 939.08H674.284Z" fill="#EB9189"/>
<path d="M711.899 986.056C711.899 991.049 683.108 995.134 647.814 995.134C612.521 995.134 583.729 991.049 583.729 986.056C583.729 981.063 612.521 976.979 647.814 976.979C683.108 976.979 711.899 981.063 711.899 986.056Z" fill="#686E85"/>
<path d="M658.96 978.568C684.965 979.249 704.47 982.199 704.47 985.603C704.47 989.461 678.928 992.639 647.583 992.639C616.237 992.639 590.696 989.461 590.696 985.603C590.696 981.745 616.005 978.568 647.35 978.568H647.118C613.915 978.568 586.748 981.972 586.748 985.83C586.748 989.915 613.683 993.092 647.118 993.092C680.322 993.092 707.488 989.688 707.488 985.83C707.488 982.199 686.591 979.249 658.96 978.568Z" fill="#434168"/>
<path d="M1143.54 726.437L1166.07 939.534H1160.96L1141.22 727.344L1122.88 715.771V712.82L1143.54 726.437Z" fill="#434168"/>
<path d="M1155.39 911.167L1166.53 910.032L1164.21 913.436L1167.69 938.4H1169.08V941.123L1153.3 941.577V939.081H1155.62L1156.78 914.344L1155.39 911.167Z" fill="#434168"/>
<path d="M1157.01 912.075L1158.17 914.117L1157.01 938.4H1160.26L1159.8 913.89L1160.26 911.848L1157.01 912.075Z" fill="#9694B5"/>
<path d="M1135.88 726.664L1142.15 724.395L1119.4 703.97C1115.22 699.658 1111.5 701.701 1108.25 707.828L1135.88 726.664Z" fill="#434168"/>
<path d="M1109.88 708.282L1116.38 706.013L1138.2 724.622L1135.65 725.53L1109.88 708.282Z" fill="#32314E"/>
<path d="M1160.26 910.486L1141.92 727.118L1158.64 910.486H1160.26Z" fill="#9694B5"/>
<path d="M1166.76 938.4L1163.28 913.436L1164.67 911.167L1162.12 911.621L1164.67 938.4H1166.76Z" fill="#32314E"/>
<path d="M1162.12 910.486L1143.31 727.118H1142.85L1161.42 910.713L1162.12 910.486Z" fill="#32314E"/>
<path d="M1111.97 708.282L1137.04 725.076L1138.2 724.622L1116.84 706.693L1111.97 708.282Z" fill="#9694B5"/>
<path d="M1541.52 661.758L1570.78 938.853H1564.04L1538.5 662.666L1514.59 647.688V644.057L1541.52 661.758Z" fill="#434168"/>
<path d="M1556.85 902.088L1571.47 900.727L1568.45 905.038L1572.87 937.491H1574.72V941.122L1554.29 941.576V938.399H1557.31L1558.93 905.946L1556.85 902.088Z" fill="#434168"/>
<path d="M1559.17 903.223L1560.56 905.719L1559.17 937.491H1563.35L1562.65 905.492L1563.35 902.996L1559.17 903.223Z" fill="#9694B5"/>
<path d="M1531.77 661.985L1539.9 659.035L1510.17 632.483C1504.83 626.809 1499.96 629.533 1495.55 637.475L1531.77 661.985Z" fill="#434168"/>
<path d="M1497.64 637.929L1506.23 635.206L1534.79 659.262L1531.3 660.397L1497.64 637.929Z" fill="#32314E"/>
<path d="M1563.35 900.954L1539.43 662.666L1561.26 901.18L1563.35 900.954Z" fill="#9694B5"/>
<path d="M1571.71 937.491L1567.29 905.038L1569.15 901.861L1565.9 902.542L1569.15 937.491H1571.71Z" fill="#32314E"/>
<path d="M1565.9 901.181L1541.06 662.666H1540.59L1564.74 901.408L1565.9 901.181Z" fill="#32314E"/>
<path d="M1500.42 637.929L1533.16 659.715L1534.79 659.262L1506.92 635.887L1500.42 637.929Z" fill="#9694B5"/>
<path d="M363.612 661.758L334.356 938.853H341.09L366.631 662.666L390.546 647.688V644.057L363.612 661.758Z" fill="#434168"/>
<path d="M348.287 902.088L333.659 900.727L336.678 905.038L332.266 937.491H330.408V941.122L350.841 941.576V938.399H347.823L346.198 905.946L348.287 902.088Z" fill="#434168"/>
<path d="M345.965 903.223L344.572 905.719L345.965 937.491H341.786L342.482 905.492L341.786 902.996L345.965 903.223Z" fill="#9694B5"/>
<path d="M373.364 661.985L365.237 659.035L394.958 632.483C400.298 626.809 405.174 629.533 409.586 637.475L373.364 661.985Z" fill="#434168"/>
<path d="M407.496 637.929L398.905 635.206L370.346 659.262L373.596 660.397L407.496 637.929Z" fill="#32314E"/>
<path d="M341.786 900.954L365.701 662.666L343.875 901.18L341.786 900.954Z" fill="#9694B5"/>
<path d="M333.427 937.491L337.838 905.038L335.981 901.861L339.232 902.542L335.981 937.491H333.427Z" fill="#32314E"/>
<path d="M339.232 901.181L364.076 662.666H364.54L340.393 901.408L339.232 901.181Z" fill="#32314E"/>
<path d="M404.71 637.929L371.971 659.715L370.346 659.262L398.209 635.887L404.71 637.929Z" fill="#9694B5"/>
<path d="M623.202 765.698L604.859 939.762H609.039L625.06 766.379L640.152 756.848V754.578L623.202 765.698Z" fill="#434168"/>
<path d="M613.45 916.84L604.395 915.933L606.252 918.656L603.466 939.081H602.305V941.35L615.308 941.577V939.535H613.45L612.289 919.337L613.45 916.84Z" fill="#434168"/>
<path d="M612.057 917.521L611.128 919.109L612.057 939.08H609.503L609.967 918.882L609.503 917.294L612.057 917.521Z" fill="#9694B5"/>
<path d="M629.471 765.925L624.363 764.109L642.939 747.543C646.421 743.912 649.44 745.727 651.994 750.72L629.471 765.925Z" fill="#434168"/>
<path d="M650.833 750.72L645.492 748.904L627.381 764.109L629.471 765.017L650.833 750.72Z" fill="#32314E"/>
<path d="M609.503 916.16L624.595 766.379L610.896 916.16H609.503Z" fill="#9694B5"/>
<path d="M604.162 939.08L606.949 918.656L605.788 916.613L607.877 917.067L605.788 939.08H604.162Z" fill="#32314E"/>
<path d="M607.877 916.16L623.434 766.379H623.899L608.574 916.387L607.877 916.16Z" fill="#32314E"/>
<path d="M648.975 750.72L628.542 764.563L627.381 764.109L645.028 749.358L648.975 750.72Z" fill="#9694B5"/>
</svg>
