<svg width="41" height="40" viewBox="0 0 41 40" fill="none" xmlns="http://www.w3.org/2000/svg">
<path d="M3.41667 1.1H15.9167C16.9175 1.1 17.7333 1.91585 17.7333 2.91667V10.4167C17.7333 11.4175 16.9175 12.2333 15.9167 12.2333H3.41667C2.41585 12.2333 1.6 11.4175 1.6 10.4167V2.91667C1.6 1.91585 2.41585 1.1 3.41667 1.1Z" stroke="white" stroke-width="2.2"/>
<path d="M3.41667 17.7667H15.9167C16.9175 17.7667 17.7333 18.5826 17.7333 19.5834V37.0834C17.7333 38.0842 16.9175 38.9001 15.9167 38.9001H3.41667C2.41585 38.9001 1.6 38.0842 1.6 37.0834V19.5834C1.6 18.5826 2.41585 17.7667 3.41667 17.7667Z" stroke="white" stroke-width="2.2"/>
<path d="M25.0832 27.7667H37.5832C38.584 27.7667 39.3998 28.5826 39.3998 29.5834V37.0834C39.3998 38.0842 38.584 38.9001 37.5832 38.9001H25.0832C24.0823 38.9001 23.2665 38.0842 23.2665 37.0834V29.5834C23.2665 28.5826 24.0823 27.7667 25.0832 27.7667Z" stroke="white" stroke-width="2.2"/>
<path d="M25.0832 1.1H37.5832C38.584 1.1 39.3998 1.91585 39.3998 2.91667V20.4167C39.3998 21.4175 38.584 22.2333 37.5832 22.2333H25.0832C24.0824 22.2333 23.2665 21.4175 23.2665 20.4167V2.91667C23.2665 1.91585 24.0824 1.1 25.0832 1.1Z" stroke="white" stroke-width="2.2"/>
</svg>
