<svg width="42" height="42" viewBox="0 0 42 42" fill="none" xmlns="http://www.w3.org/2000/svg">
<path d="M40.9061 30.0613C40.1226 28.91 38.7936 28.6288 37.3499 29.3082L36.5847 29.6451C37.7912 27.0734 37.9409 24.2067 37.3403 21.4988C36.6505 18.3888 34.9843 15.3759 32.3882 12.544C32.1587 12.2935 31.7696 12.2766 31.5191 12.5062C31.2686 12.7358 31.2517 13.1248 31.4814 13.3754C33.9297 16.046 35.4968 18.8688 36.1393 21.7652C36.8159 24.8162 36.4223 27.9626 34.6954 30.4769L27.0385 33.8483L27.0448 32.9835C27.0449 32.9617 27.044 32.9399 27.0417 32.9182C26.865 31.1408 25.5064 29.7247 23.7378 29.4745C23.7326 29.4737 23.7273 29.473 23.722 29.4724L16.9166 28.6889C14.2997 28.3164 13.6258 26.7482 10.0817 25.854C9.83683 23.7761 10.1632 21.5638 11.0579 19.3459C12.4052 16.0058 15.0411 12.7606 18.6953 9.93604C20.0573 10.9017 26.1336 11.0219 27.4933 9.77616C28.1899 10.3052 28.8548 10.8504 29.4741 11.4022C29.5914 11.5067 29.7375 11.558 29.8831 11.558C30.0525 11.558 30.2211 11.4886 30.3426 11.3521C30.5686 11.0985 30.5461 10.7097 30.2925 10.4837C29.6136 9.87887 28.8833 9.28209 28.1174 8.70533C28.2969 7.94424 28.0457 7.05346 27.3829 6.52321C29.3089 3.60192 29.8691 1.68985 29.0953 0.688086C28.5638 -7.42227e-05 27.9027 0.322883 27.6203 0.460859C27.1417 0.694484 26.8808 0.706789 26.4405 0.418695C25.6004 -0.130996 24.7174 -0.148715 23.8502 0.418695C23.4043 0.71048 23.0531 0.71048 22.6074 0.418695C21.7672 -0.130996 20.8846 -0.148715 20.0172 0.418695C19.5718 0.710234 19.3099 0.692187 18.8389 0.45807C18.5568 0.317879 17.8964 -0.0104102 17.3616 0.677832C16.6051 1.65138 17.1112 3.50315 18.9073 6.32511C18.7973 6.38458 18.6924 6.45439 18.5946 6.53412C17.8802 5.77977 16.7099 4.993 15.0174 5.182C13.6136 5.33909 12.5785 4.87521 11.9572 4.45849C11.675 4.26949 11.2929 4.34479 11.1037 4.62682C10.9146 4.909 10.9899 5.29111 11.272 5.48027C12.0641 6.01126 13.3803 6.60238 15.1539 6.4046C16.4615 6.25793 17.3488 6.92615 17.9011 7.60619C17.8935 7.63244 17.8866 7.65886 17.8801 7.68527C17.409 7.69265 16.7049 7.73662 15.9295 7.89789C14.0648 8.28582 12.6806 9.172 11.9265 10.4609C11.755 10.7541 11.8536 11.1309 12.1467 11.3025C12.44 11.474 12.8168 11.3754 12.9883 11.0822C14.11 9.1652 16.848 8.93075 17.9354 8.91607C17.9401 8.9296 17.9456 8.94297 17.9505 8.95643C14.0698 11.95 11.368 15.2884 9.91706 18.8855C8.99995 21.1591 8.6336 23.437 8.81956 25.6017C8.22967 25.5144 7.63298 25.4676 7.03341 25.4635V25.0915C7.03341 24.1072 6.23262 23.3065 5.24833 23.3065H2.42449C1.44019 23.3065 0.639404 24.1073 0.639404 25.0915V39.4177C0.639404 40.4021 1.44019 41.2028 2.42449 41.2028H5.24825C6.23254 41.2028 7.03333 40.402 7.03333 39.4177V39.2425L13.1931 41.5352C14.0209 41.8432 14.8885 41.9995 15.7717 41.9995H24.9499C26.3531 41.9995 27.7213 41.6025 28.9065 40.8515C41.1504 33.0897 40.4068 33.5726 40.4776 33.5099C41.4638 32.6345 41.6481 31.1519 40.9061 30.0613ZM26.339 9.04723C24.0895 9.61522 21.9024 9.61522 19.6524 9.04723C18.687 8.80319 18.9667 7.08136 20.0043 7.34156C22.0172 7.84687 23.9741 7.84687 25.9871 7.34156C27.0066 7.08562 27.3199 8.79934 26.339 9.04723ZM18.277 1.55278C18.2819 1.55516 18.2867 1.55762 18.2913 1.55991C19.1238 1.97368 19.8533 1.99616 20.6908 1.44827C21.7388 0.762242 21.8526 1.8622 23.2287 1.8622C23.8912 1.8622 24.2568 1.623 24.5237 1.44827C24.9697 1.1564 25.321 1.15657 25.7669 1.44827C26.608 1.9987 27.3199 1.97155 28.1766 1.55836C28.3032 2.01461 28.0168 3.37477 26.1927 6.0905C25.2869 6.07508 23.9725 6.96471 20.2514 6.1366C18.4312 3.38577 18.1498 2.0124 18.277 1.55278ZM39.6942 32.5598L28.248 39.8127C27.2601 40.4387 26.1196 40.7697 24.9499 40.7697H15.7718C15.0356 40.7697 14.3124 40.6394 13.6223 40.3826L7.03333 37.9301V31.3057C7.03333 30.9659 6.75795 30.6905 6.41826 30.6905C6.07857 30.6905 5.80319 30.9659 5.80319 31.3057V39.4181C5.80319 39.7241 5.55422 39.9729 5.24833 39.9729H2.42449C2.11851 39.9729 1.86963 39.724 1.86963 39.4181V25.0918C1.86963 24.7858 2.11851 24.537 2.42449 24.537H5.24825C5.55422 24.537 5.80311 24.7859 5.80311 25.0918V28.43C5.80311 28.7698 6.07849 29.0451 6.41818 29.0451C6.75787 29.0451 7.03325 28.7698 7.03325 28.43V26.694C12.1217 26.733 13.2658 29.415 16.752 29.9081C16.7572 29.9089 16.7625 29.9096 16.7677 29.9102L23.5728 30.6936C24.7644 30.8657 25.6814 31.8145 25.8141 33.0091L25.8056 34.1792H19.4593C19.1196 34.1792 18.8441 34.4546 18.8441 34.7944C18.8441 35.1342 19.1195 35.4095 19.4593 35.4095H26.4163C26.4939 35.4095 26.5837 35.3923 26.6618 35.3583C26.6743 35.3527 37.8396 30.4368 37.8526 30.4311C38.6574 30.0734 39.3912 30.0223 39.8888 30.7535C40.2757 31.3218 40.19 32.09 39.6942 32.5598Z" fill="white"/>
<path d="M23.1577 27.9085C23.4974 27.9085 23.7729 27.6332 23.7729 27.2934V26.2737C25.4997 25.9935 26.5073 24.5958 26.7265 23.2918C27.0003 21.6629 26.1471 20.2463 24.5529 19.6829C24.2712 19.5833 24.012 19.488 23.7728 19.3961V15.474C24.5005 15.5947 24.9374 15.9713 24.9692 15.9994C25.2191 16.2266 25.6058 16.2098 25.835 15.9613C26.0654 15.7116 26.0496 15.3224 25.7999 15.0921C25.7565 15.052 25.0032 14.3737 23.7728 14.2319V13.3571C23.7728 13.0173 23.4974 12.7419 23.1576 12.7419C22.8179 12.7419 22.5426 13.0173 22.5426 13.3571V14.2816C22.3942 14.31 22.2423 14.3461 22.0862 14.3931C21.0428 14.7073 20.2628 15.602 20.0506 16.7279C19.8581 17.7496 20.182 18.7322 20.8959 19.2921C21.3058 19.6136 21.8218 19.9079 22.5426 20.2226V25.0872C21.8312 25.057 21.3933 24.9235 20.6294 24.4238C20.3452 24.2379 19.9639 24.3174 19.7779 24.6018C19.592 24.886 19.6716 25.2673 19.9559 25.4533C20.9601 26.1102 21.6313 26.2815 22.5426 26.317V27.2934C22.5426 27.6332 22.8179 27.9085 23.1577 27.9085ZM21.6552 18.3242C21.304 18.0487 21.1524 17.5244 21.2596 16.9558C21.359 16.4285 21.7215 15.7878 22.4411 15.5711C22.4753 15.5608 22.5089 15.5519 22.5426 15.5429V18.8656C22.1742 18.6817 21.8854 18.5047 21.6552 18.3242ZM24.1429 20.8428C25.6736 21.3838 25.5788 22.6981 25.5132 23.088C25.3776 23.8952 24.785 24.7571 23.7728 25.0164V20.7095C23.8925 20.7533 24.0148 20.7975 24.1429 20.8428Z" fill="white"/>
</svg>
