<svg width="24" height="24" viewBox="0 0 24 24" fill="none" xmlns="http://www.w3.org/2000/svg">
<g clip-path="url(#clip0)">
<path d="M23.259 9.20762C23.0766 8.31915 22.7894 7.45581 22.4035 6.63595C21.4685 4.64878 19.9932 2.969 18.1488 1.79124C17.9793 1.6843 17.8098 1.58248 17.6402 1.4835C16.83 1.02342 15.9667 0.665042 15.0699 0.416381C14.7659 0.331626 14.4562 0.259385 14.1432 0.200795C13.8302 0.142206 13.5087 0.0932869 13.1855 0.0608636C12.7759 0.0180768 12.3643 -0.0022414 11.9525 -9.50749e-07C11.5239 0.00196553 11.0957 0.0276012 10.6699 0.0767908C10.3535 0.114713 10.0408 0.16439 9.73193 0.225824C7.51093 0.676855 5.47159 1.77779 3.86948 3.39064C2.26736 5.00349 1.17376 7.0565 0.725734 9.29238C0.663203 9.60296 0.614233 9.91752 0.578823 10.2361C0.525485 10.6973 0.500387 11.1614 0.503673 11.6257C0.503673 12.0108 0.525144 12.3914 0.564132 12.7673C0.596905 13.0933 0.643803 13.4141 0.702567 13.7304C0.761332 14.0466 0.833657 14.3561 0.917848 14.6627C1.16519 15.5652 1.52137 16.4338 1.97843 17.2491C2.07618 17.4232 2.17789 17.5956 2.28355 17.7639C3.45395 19.6206 5.12266 21.1056 7.09657 22.0472C7.91047 22.4357 8.76747 22.7252 9.64943 22.9096C10.9038 23.1712 12.1926 23.222 13.4635 23.0597C14.049 22.9858 14.6278 22.8657 15.1947 22.7008C17.0595 22.1555 18.7571 21.1449 20.1302 19.7626C21.5032 18.3804 22.5072 16.6713 23.0488 14.7941C23.2129 14.2226 23.3325 13.6391 23.4065 13.0489C23.5677 11.7695 23.5173 10.4721 23.2573 9.20933L23.259 9.20762Z" fill="#747D8C"/>
<path d="M20.1613 3.42038L3.89944 19.7907C3.1453 19.0375 2.49874 18.1826 1.9783 17.2503L17.6373 1.48352C18.5633 2.009 19.4126 2.66078 20.1613 3.42038Z" fill="#747D8C"/>
<path d="M20.5699 11.5774C20.5699 13.7651 19.7441 15.871 18.2597 17.4688C16.7754 19.0666 14.7434 20.0369 12.5751 20.1832C12.3858 20.1957 12.1931 20.2031 11.9999 20.2031C9.73927 20.1846 7.57748 19.2676 5.98543 17.6518C4.39338 16.036 3.50006 13.8524 3.50006 11.5765C3.50006 9.30068 4.39338 7.11703 5.98543 5.50124C7.57748 3.88546 9.73927 2.96845 11.9999 2.94997C12.1931 2.94997 12.3858 2.95736 12.5751 2.96931C14.7435 3.11616 16.7756 4.08692 18.2599 5.68509C19.7442 7.28327 20.5699 9.38947 20.5699 11.5774Z" fill="#888888"/>
<path d="M20.1885 11.5774C20.1885 11.7241 20.1851 11.8709 20.176 12.0165C20.0697 14.0284 19.2348 15.9314 17.8293 17.3656C16.4237 18.7999 14.5449 19.6661 12.548 19.8003L12.435 19.8072C12.2909 19.8151 12.1451 19.8197 11.9982 19.8197C9.94851 19.8213 7.97295 19.048 6.46272 17.6529C4.95249 16.2578 4.01773 14.3427 3.84353 12.2867C3.82319 12.0542 3.81302 11.8187 3.81302 11.5802C3.81302 11.3612 3.82093 11.1456 3.83788 10.9312C3.87152 10.4869 3.94125 10.0461 4.04638 9.6132C4.40426 8.14987 5.15318 6.81306 6.21197 5.74768C7.27075 4.6823 8.59901 3.92899 10.0528 3.5694C10.4814 3.46331 10.9179 3.3931 11.358 3.35951C11.5699 3.34244 11.7852 3.33391 12.0016 3.33391C12.1858 3.33391 12.3706 3.3413 12.5502 3.35268C12.6017 3.35609 12.6525 3.35951 12.7039 3.36519C13.897 3.46556 15.0532 3.83036 16.0897 4.43345C17.3375 5.15519 18.3739 6.19596 19.0938 7.45043C19.8138 8.70491 20.1918 10.1286 20.1896 11.5774H20.1885Z" fill="#B4B4B4"/>
<path d="M13.217 16.9272V18.4061H11.4439L10.9647 17.9238L11.4439 16.9289C10.0657 16.7486 8.68758 16.0637 8.36551 14.2622L10.016 13.203L10.4951 13.6854C10.6025 14.442 11.1732 15.1809 12.3745 15.1809C13.2158 15.1809 13.8063 14.8026 13.8063 14.0278C13.8063 12.8748 12.5355 12.7668 11.193 12.4061C9.8866 12.0648 8.52655 11.4693 8.52655 9.48746C8.52655 7.79349 9.56453 6.78496 11.3003 6.5506L10.8217 4.59099H12.5954L13.074 5.07279V6.56824C14.6493 6.78496 15.6517 7.61374 16.0094 9.00111L13.9673 9.55629L13.4882 9.07449L13.7577 8.99998C13.4803 8.54491 12.9706 8.27756 12.1756 8.27756C11.1551 8.27756 10.7257 8.76391 10.7257 9.37654C10.7257 10.277 11.4953 10.4755 12.8553 10.818C14.2679 11.178 16.1128 11.6644 16.1128 13.8987C16.115 15.6655 14.9516 16.6746 13.217 16.9272Z" fill="#51504E"/>
<path d="M12.3785 10.3362C11.4264 10.0967 10.7636 9.92833 10.4523 9.53982C10.3183 9.37316 10.2488 9.1661 10.2488 8.89648C10.2488 8.28442 10.6777 7.79693 11.6982 7.79693C11.8495 7.79629 12.0006 7.80732 12.1502 7.82992C12.9311 7.95165 13.3503 8.40444 13.4882 9.07623L15.528 8.51821C15.2557 7.4636 14.611 6.73095 13.625 6.34528C13.293 6.21889 12.9475 6.13202 12.5955 6.08647V4.58931H10.8212V6.06826C9.08598 6.30205 8.04743 7.31058 8.04743 9.00398C8.04743 10.0063 8.39437 10.6536 8.90799 11.0944C9.40918 11.5228 10.0686 11.7548 10.7161 11.9232C12.0587 12.2833 13.3289 12.3919 13.3289 13.5455C13.3289 14.3191 12.7384 14.698 11.8971 14.698C10.698 14.698 10.1251 13.9585 10.0177 13.2025L7.88809 13.7793C8.21073 15.5802 9.58887 16.2662 10.9664 16.446V17.9249H12.7367V16.446C14.4623 16.1951 15.6229 15.1945 15.6354 13.4505C15.6359 13.4401 15.6359 13.4297 15.6354 13.4192C15.6365 11.1837 13.7928 10.6974 12.3785 10.3362Z" fill="#747D8C"/>
<path d="M13.6255 6.34414L12.1507 7.82878C12.0011 7.80618 11.85 7.79515 11.6987 7.79579C10.6782 7.79579 10.2494 8.28328 10.2494 8.89534C10.2494 9.16496 10.3189 9.37201 10.4528 9.53868L8.90795 11.0921C8.39433 10.6519 8.04739 10.004 8.04739 9.00171C8.04739 7.30831 9.08594 6.29977 10.8212 6.06599V4.68999L10.9218 4.58931H12.5954V6.08646C12.9476 6.13161 13.2933 6.21809 13.6255 6.34414Z" fill="#747D8C"/>
<path d="M15.6354 13.4494C15.6229 15.1951 14.4623 16.194 12.7367 16.4448V17.9238H11.1924L15.6354 13.4494Z" fill="#747D8C"/>
</g>
<defs>
<clipPath id="clip0">
<rect width="23" height="24" fill="white" transform="translate(0.500732)"/>
</clipPath>
</defs>
</svg>
