<svg width="37" height="39" viewBox="0 0 37 39" fill="none" xmlns="http://www.w3.org/2000/svg">
<g clip-path="url(#clip0)">
<path d="M18.4216 1.37548C8.20469 1.41892 -0.0424821 9.87946 0.00114889 20.2673C0.0447799 30.6551 8.36376 39.0444 18.5789 39C28.794 38.9557 37.0439 30.4961 37.0002 20.1073C36.9566 9.71862 28.6376 1.33111 18.4216 1.37548Z" fill="#FFA81D"/>
<path d="M36.6108 14.9623C36.3174 13.5186 35.8554 12.1157 35.2346 10.7834C33.7304 7.55423 31.3572 4.82459 28.39 2.91073C28.1173 2.73695 27.8446 2.5715 27.5719 2.41066C26.2684 1.66303 24.8797 1.08066 23.4369 0.676587C22.9479 0.53886 22.4498 0.421468 21.9462 0.32626C21.4426 0.231052 20.9254 0.151559 20.4055 0.098871C19.7466 0.0293424 19.0845 -0.0036747 18.4221 -3.397e-05C17.7326 0.00316155 17.0438 0.0448196 16.3587 0.124753C15.8497 0.186376 15.3467 0.267102 14.8498 0.366931C11.2769 1.09986 7.99623 2.88887 5.41892 5.50975C2.84161 8.13063 1.08234 11.4668 0.361594 15.1001C0.261 15.6048 0.182222 16.1159 0.12526 16.6336C0.0394537 17.3831 -0.000920784 18.1372 0.00436526 18.8917C0.00436526 19.5175 0.0389064 20.1359 0.101626 20.7469C0.154347 21.2766 0.229792 21.7979 0.324326 22.3118C0.41886 22.8258 0.535209 23.3286 0.670647 23.8268C1.06855 25.2934 1.64153 26.7049 2.3768 28.0298C2.53405 28.3127 2.69767 28.5928 2.86765 28.8664C4.75047 31.8834 7.43492 34.2966 10.6103 35.8267C11.9197 36.458 13.2983 36.9284 14.7171 37.228C16.735 37.6532 18.8083 37.7357 20.8527 37.472C21.7946 37.3518 22.7258 37.1568 23.6378 36.8888C26.6376 36.0027 29.3686 34.3604 31.5775 32.1142C33.7863 29.868 35.4013 27.0908 36.2726 24.0403C36.5366 23.1117 36.7289 22.1635 36.848 21.2045C37.1073 19.1255 37.0262 17.0172 36.608 14.9651L36.6108 14.9623Z" fill="#FFD522"/>
<path d="M31.6279 5.5581L5.46748 32.1598C4.2543 30.936 3.21418 29.5467 2.37695 28.0317L27.5675 2.41071C29.0571 3.2646 30.4235 4.32376 31.6279 5.5581Z" fill="#FFB311"/>
<path d="M28.3904 2.91078L2.86448 28.8683C2.6945 28.591 2.53089 28.3136 2.37363 28.0317C1.63837 26.7068 1.06539 25.2953 0.66748 23.8287L23.4329 0.676636C24.8757 1.08071 26.2643 1.66307 27.5678 2.41071C27.8469 2.57154 28.1214 2.737 28.3904 2.91078Z" fill="#FBEB96"/>
<path d="M36.611 14.9624L14.7137 37.2299C13.2949 36.9303 11.9163 36.4599 10.6069 35.8286L35.2348 10.7788C35.8559 12.1125 36.318 13.5171 36.611 14.9624Z" fill="#FBEB96"/>
<path d="M21.9418 0.326327L0.320845 22.3119C0.229947 21.798 0.150865 21.2766 0.0981445 20.747L20.4011 0.098938C20.9229 0.151934 21.4364 0.22773 21.9418 0.326327Z" fill="#FBEB96"/>
<path d="M32.2848 18.8133C32.2848 22.3682 30.9564 25.7904 28.5685 28.3868C26.1806 30.9832 22.9117 32.56 19.4237 32.7977C19.1192 32.818 18.8092 32.83 18.4983 32.83C14.8617 32.8 11.384 31.3099 8.82291 28.6842C6.26179 26.0586 4.82471 22.5101 4.82471 18.8119C4.82471 15.1136 6.26179 11.5652 8.82291 8.93953C11.384 6.31387 14.8617 4.82373 18.4983 4.7937C18.8092 4.7937 19.1192 4.80572 19.4237 4.82513C22.9121 5.06376 26.181 6.64125 28.5688 9.23828C30.9566 11.8353 32.2849 15.2579 32.2848 18.8133Z" fill="#D86C0B"/>
<path d="M31.6717 18.8132C31.6717 19.0517 31.6663 19.2902 31.6517 19.5268C31.4806 22.7962 30.1376 25.8885 27.8765 28.2192C25.6154 30.5499 22.5929 31.9573 19.3805 32.1756L19.1987 32.1867C18.9669 32.1996 18.7324 32.207 18.4961 32.207C15.1987 32.2096 12.0207 30.953 9.59117 28.686C7.16167 26.419 5.65792 23.3068 5.3777 19.9659C5.34497 19.5881 5.32861 19.2055 5.32861 18.8178C5.32861 18.462 5.34134 18.1116 5.36861 17.7632C5.42272 17.0411 5.5349 16.3248 5.70402 15.6215C6.27974 13.2435 7.48452 11.0712 9.18779 9.33999C10.8911 7.60874 13.0278 6.38461 15.3665 5.80028C16.0559 5.62787 16.7582 5.51379 17.4662 5.4592C17.8071 5.43147 18.1534 5.4176 18.5015 5.4176C18.7979 5.4176 19.0951 5.42962 19.3842 5.44811C19.4669 5.45365 19.5487 5.4592 19.6314 5.46844C21.5506 5.63154 23.4106 6.22434 25.078 7.20436C27.0854 8.37719 28.7526 10.0684 29.9108 12.107C31.0689 14.1455 31.6771 16.4589 31.6736 18.8132H31.6717Z" fill="#FFA70B"/>
<path d="M17.4644 5.45917L5.36768 17.7585C5.42233 17.038 5.53481 16.3233 5.704 15.6214L15.3664 5.80025C16.0553 5.62794 16.757 5.51386 17.4644 5.45917Z" fill="#FFBE16"/>
<path d="M25.0759 7.20437L7.08359 25.5064C6.12068 23.8098 5.53809 21.9179 5.37744 19.9659L19.6293 5.46844C21.5485 5.63154 23.4085 6.22435 25.0759 7.20437Z" fill="#FFBE16"/>
<path d="M31.6716 18.8132C31.6716 19.0516 31.6661 19.2901 31.6516 19.5268L19.1986 32.1903C18.9668 32.2032 18.7323 32.2106 18.4959 32.2106C17.0895 32.2123 15.6919 31.9845 14.3564 31.5359L31.0089 14.6046C31.449 15.9626 31.6727 17.3834 31.6716 18.8132Z" fill="#FFBE16"/>
<path d="M20.4564 27.5067V29.91H17.604L16.8332 29.1261L17.604 27.5094C15.387 27.2164 13.17 26.1035 12.6519 23.1761L15.307 21.455L16.0778 22.2388C16.2505 23.4682 17.1686 24.6689 19.1011 24.6689C20.4545 24.6689 21.4044 24.0542 21.4044 22.7953C21.4044 20.9216 19.3601 20.746 17.2004 20.16C15.0988 19.6054 12.9109 18.6376 12.9109 15.4172C12.9109 12.6645 14.5807 11.0256 17.3731 10.6448L16.6032 7.46039H19.4565L20.2264 8.24331V10.6734C22.7606 11.0256 24.3731 12.3724 24.9485 14.6268L21.6635 15.529L20.8927 14.7461L21.3262 14.625C20.8799 13.8855 20.06 13.4511 18.7811 13.4511C17.1395 13.4511 16.4487 14.2414 16.4487 15.2369C16.4487 16.7001 17.6867 17.0227 19.8746 17.5792C22.1471 18.1643 25.1149 18.9546 25.1149 22.5855C25.1185 25.4565 23.2469 27.0963 20.4564 27.5067Z" fill="#D86C0B"/>
<path d="M19.1075 16.7963C17.5758 16.4072 16.5096 16.1336 16.0087 15.5022C15.7933 15.2314 15.6815 14.8949 15.6815 14.4568C15.6815 13.4622 16.3714 12.67 18.013 12.67C18.2564 12.669 18.4995 12.6869 18.7402 12.7236C19.9964 12.9214 20.6709 13.6572 20.8927 14.7489L24.1741 13.8421C23.736 12.1284 22.6988 10.9378 21.1127 10.3111C20.5786 10.1057 20.0228 9.96455 19.4565 9.89052V7.45764H16.6023V9.86094C13.8108 10.2408 12.1401 11.8797 12.1401 14.6315C12.1401 16.2602 12.6982 17.3121 13.5245 18.0285C14.3308 18.7245 15.3915 19.1016 16.4332 19.3752C18.593 19.9603 20.6364 20.1369 20.6364 22.0115C20.6364 23.2686 19.6865 23.8842 18.333 23.8842C16.4041 23.8842 15.4824 22.6825 15.3097 21.4541L11.8838 22.3914C12.4028 25.3179 14.6198 26.4326 16.8359 26.7247V29.128H19.6837V26.7247C22.4598 26.3171 24.3268 24.6911 24.3468 21.8571C24.3477 21.8402 24.3477 21.8232 24.3468 21.8063C24.3486 18.1736 21.3826 17.3833 19.1075 16.7963Z" fill="#FFD522"/>
<path d="M21.1136 10.3092L18.7411 12.7218C18.5004 12.6851 18.2573 12.6671 18.014 12.6682C16.3723 12.6682 15.6824 13.4603 15.6824 14.4549C15.6824 14.8931 15.7942 15.2295 16.0097 15.5004L13.5245 18.0248C12.6983 17.3093 12.1401 16.2565 12.1401 14.6278C12.1401 11.876 13.8108 10.2371 16.6023 9.85724V7.62125L16.7641 7.45764H19.4565V9.89052C20.023 9.96388 20.5792 10.1044 21.1136 10.3092Z" fill="#FBEB96"/>
<path d="M24.347 21.8552C24.327 24.692 22.46 26.3152 19.6839 26.7228V29.1261H17.1997L24.347 21.8552Z" fill="#FBEB96"/>
</g>
<defs>
<clipPath id="clip0">
<rect width="37" height="39" fill="white"/>
</clipPath>
</defs>
</svg>
