<svg width="157" height="84" viewBox="0 0 157 84" fill="none" xmlns="http://www.w3.org/2000/svg">
<path d="M1.02715 51.0215L4.38711 51.2026L9.32823 40.6056C9.32823 40.6056 2.64125 39.9995 1.90008 41.6169C1.15891 43.2343 0.309042 49.0944 1.02715 51.0215Z" fill="black"/>
<path d="M60.953 71.6029L65.7656 70.2425L76.1815 43.4155C76.1815 43.4155 60.1855 39.4626 57.7676 46.3802C55.3497 53.2977 56.8716 70.3051 60.953 71.6029Z" fill="black"/>
<path d="M16.5126 41.3173H7.74048L7.7866 69.7386H16.5126C19.7507 69.7386 22.3761 63.3711 22.3761 55.5213C22.3761 47.6715 19.7507 41.3173 16.5126 41.3173Z" fill="black"/>
<path d="M13.3766 55.518C13.3766 63.3678 10.7413 69.7353 7.51312 69.7353C4.28492 69.7353 1.64966 63.3678 1.64966 55.518C1.64966 47.6682 4.27504 41.3173 7.51312 41.3173C10.7512 41.3173 13.3766 47.6649 13.3766 55.518Z" fill="#232323"/>
<path d="M3.34949 55.5181C3.34949 62.1227 5.38523 67.4756 7.89532 67.4756C10.4054 67.4756 12.4444 62.1227 12.4444 55.5181C12.4444 48.9134 10.4087 43.5639 7.89532 43.5639C5.38193 43.5639 3.34949 48.9134 3.34949 55.5181Z" fill="url(#paint0_linear)"/>
<path d="M11.9145 55.8475C11.9145 60.4592 10.4914 64.2111 8.73567 64.2111C6.97992 64.2111 5.55359 60.4658 5.55359 55.8475C5.55359 51.2292 6.97992 47.4871 8.73567 47.4871C10.4914 47.4871 11.9145 51.2292 11.9145 55.8475Z" fill="url(#paint1_radial)"/>
<path d="M83.1321 45.336L71.2537 45.3524L71.3327 83.3002H83.1321C88.6069 83.3002 93.044 74.8015 93.044 64.3164C93.044 53.8314 88.6069 45.336 83.1321 45.336Z" fill="black"/>
<path d="M80.7803 64.3164C80.7803 74.8015 76.3432 83.3002 70.8684 83.3002C65.3937 83.3002 60.9532 74.8015 60.9532 64.3164C60.9532 53.8314 65.3937 45.336 70.8684 45.336C76.3432 45.336 80.7803 53.8347 80.7803 64.3164Z" fill="#232323"/>
<path d="M63.829 64.3198C63.829 73.138 67.2713 80.2829 71.5141 80.2829C75.7568 80.2829 79.2057 73.138 79.2057 64.3198C79.2057 55.5015 75.7634 48.3567 71.5141 48.3567C67.2647 48.3567 63.829 55.5015 63.829 64.3198Z" fill="url(#paint2_linear)"/>
<path d="M78.3028 64.7578C78.3028 70.9276 75.8948 75.9247 72.9268 75.9247C69.9589 75.9247 67.5476 70.9276 67.5476 64.7578C67.5476 58.588 69.9556 53.5942 72.9268 53.5942C75.8981 53.5942 78.3028 58.5946 78.3028 64.7578Z" fill="url(#paint3_radial)"/>
<path d="M137.323 39.1332L125.464 39.6867L127.263 77.5949L139.049 77.058C144.517 76.8109 148.569 68.1178 148.095 57.646C147.62 47.1741 142.791 38.8862 137.323 39.1332Z" fill="black"/>
<path d="M135.834 58.2027C136.308 68.6746 132.26 77.3676 126.789 77.6147C121.317 77.8618 116.514 69.5739 116.027 59.1053C115.539 48.6367 119.601 39.9403 125.069 39.6933C130.537 39.4462 135.36 47.7308 135.834 58.2027Z" fill="#232323"/>
<path d="M118.899 58.9734C119.298 67.7817 123.06 74.7652 127.302 74.5708C131.545 74.3765 134.658 67.0834 134.259 58.275C133.861 49.4666 130.096 42.4832 125.853 42.6776C121.61 42.8719 118.491 50.165 118.899 58.9734Z" fill="url(#paint4_linear)"/>
<path d="M133.384 58.7561C133.664 64.9193 131.486 70.0218 128.522 70.1569C125.557 70.2919 122.922 65.4035 122.642 59.2436C122.362 53.0837 124.542 47.9811 127.51 47.8461C130.478 47.711 133.107 52.5961 133.384 58.7561Z" fill="url(#paint5_radial)"/>
<path d="M6.29101 41.6171C3.65575 42.9841 1.64966 48.6829 1.64966 55.5181C1.64966 62.3533 3.62611 68.052 6.29101 69.4158V41.6171Z" fill="#232323"/>
<path d="M6.59086 44.0678C4.71653 45.5403 3.34949 50.1092 3.34949 55.518C3.34949 60.9269 4.71653 65.4958 6.59086 66.9715V44.0678Z" fill="url(#paint6_linear)"/>
<path d="M6.77899 49.2626C6.03452 50.7911 5.55359 53.1727 5.55359 55.8508C5.55359 58.5289 6.03452 60.9072 6.77899 62.4389V49.2626Z" fill="url(#paint7_radial)"/>
<path d="M68.7997 45.7609C64.3198 47.5792 60.9532 55.1918 60.9532 64.3164C60.9532 73.441 64.3198 81.0536 68.7997 82.8753V45.7609Z" fill="#232323"/>
<path d="M69.307 49.0286C66.1381 51.0051 63.829 57.0991 63.829 64.3197C63.829 71.5404 66.1348 77.641 69.307 79.6108V49.0286Z" fill="url(#paint8_linear)"/>
<path d="M69.6231 55.9659C68.3648 58.0082 67.5544 61.187 67.5544 64.7578C67.5544 68.3286 68.3648 71.5106 69.6231 73.5563V55.9659Z" fill="url(#paint9_radial)"/>
<path d="M122.091 22.0632C122.091 22.0632 125.415 21.1113 127.411 21.1113C129.407 21.1113 129.074 23.5851 129.121 26.4806C129.167 29.3761 122.091 22.0632 122.091 22.0632Z" fill="#29A500"/>
<path d="M122.773 22.4884C122.773 22.4884 126.1 21.5397 128.093 21.5397C128.242 21.5392 128.39 21.5569 128.535 21.5924C128.396 21.4296 128.22 21.3014 128.023 21.2179C127.826 21.1344 127.612 21.098 127.398 21.1115C125.402 21.1115 122.078 22.0635 122.078 22.0635C122.078 22.0635 125.682 25.7891 127.731 26.8696C125.669 25.4663 122.773 22.4884 122.773 22.4884Z" fill="#A2FF00"/>
<path d="M9.1274 10.073C9.1274 10.073 8.08977 5.59302 6.30767 4.80244C4.52558 4.01186 15.7156 1.45895 37.5421 1.45895C32.2387 2.56247 13.8412 6.19254 12.1777 6.79865C10.5142 7.40476 10.1387 10.2377 9.84881 10.4221C9.55893 10.6066 9.37446 10.4156 9.1274 10.073Z" fill="#1E1E1E"/>
<path d="M6.68623 4.56516C6.33705 4.45975 6.44576 4.27528 6.99257 4.05128C6.14929 4.34775 5.91212 4.61128 6.30411 4.78916C8.08621 5.59291 9.12384 10.0597 9.12384 10.0597C9.37419 10.3891 9.56196 10.6098 9.85513 10.4187C9.99348 10.3298 10.1549 9.63804 10.4612 8.87382C10.0462 8.047 8.46832 5.1021 6.68623 4.56516Z" fill="#606060"/>
<path d="M145.769 34.4326C145.769 34.4326 149.534 35.7502 153.098 49.4733C149.498 50.6625 139.866 33.5497 145.769 34.4326Z" fill="url(#paint10_linear)"/>
<path d="M151.992 45.5996C148.796 35.4868 145.769 34.4294 145.769 34.4294C143.967 34.1593 143.618 35.5692 144.096 37.6181C147.808 39.2025 150.269 42.1606 151.992 45.5996Z" fill="url(#paint11_linear)"/>
<path d="M144.096 37.6213C145.183 42.289 150.595 50.3002 153.099 49.48C152.73 48.057 152.361 46.7789 151.992 45.6095C150.269 42.1606 147.808 39.2025 144.096 37.6213Z" fill="url(#paint12_linear)"/>
<path d="M146.777 35.388C146.92 35.4504 147.055 35.5301 147.179 35.6252C146.313 34.637 145.769 34.4492 145.769 34.4492C140.897 33.7212 146.599 45.234 150.766 48.6137C146.774 44.4171 142.291 34.7028 146.777 35.388Z" fill="url(#paint13_linear)"/>
<path d="M35.5232 2.50308C35.5232 2.50308 51.9211 -1.12041 73.5599 0.352047C95.1987 1.8245 103.263 6.53503 109.311 10.5637C115.358 14.5923 124.229 23.8685 126.11 24.9456C127.991 26.0228 140.841 28.7997 145.769 34.4326C144.956 34.4128 143.714 34.6006 145.081 38.4678C97.4848 42.6875 73.4249 35.5229 73.4249 35.5229C73.4249 35.5229 65.3642 21.724 62.8542 17.0761C60.3441 12.4281 56.9907 -1.08088 35.5232 2.50308Z" fill="#45D800"/>
<path d="M53.6238 3.71202C53.6238 3.71202 66.9747 1.56428 86.7754 2.9972C97.7084 3.89319 108.73 8.82113 124.947 24.9489C117.15 24.86 69.6626 24.9489 69.6626 24.9489L53.6238 3.71202Z" fill="#0B1100"/>
<path d="M66.9744 15.1358C66.9744 15.1358 67.1029 6.53501 80.938 6.67007C94.7731 6.80513 106.072 13.917 108.76 16.6149C111.448 19.3127 111.724 21.8854 111.724 21.8854C111.724 21.8854 100.034 20.4953 93.5807 20.4953C87.1276 20.4953 82.562 20.2285 81.3531 20.2285C80.1441 20.2285 77.4397 11.9142 75.9738 10.9557C74.7649 10.1618 71.7212 10.2968 70.196 10.6263C68.6709 10.9557 68.2459 14.8591 68.2459 16.134C68.2459 17.4088 66.9085 17.8238 66.9744 15.1358Z" fill="white"/>
<path opacity="0.5" d="M53.6238 3.71202C53.6238 3.71202 66.9747 1.56428 86.7754 2.9972C97.7084 3.89319 108.73 8.82113 124.947 24.9489C117.15 24.86 69.6626 24.9489 69.6626 24.9489L53.6238 3.71202Z" fill="#303030"/>
<path d="M125.606 25.2257H124.947C122.641 25.2026 116.659 25.1861 107.159 25.1861C90.7774 25.1861 69.6723 25.2257 69.6723 25.2257H69.5372L69.4581 25.1203L53.1393 3.5177L53.5972 3.43535C53.6729 3.43535 61.2691 2.22313 73.2595 2.22313C77.7296 2.22313 82.2886 2.38783 86.8113 2.71395C99.3453 3.7417 110.453 10.1256 125.151 24.7447L125.606 25.2257ZM54.1242 3.91299L69.8106 24.6657C71.6256 24.6657 91.5515 24.6262 107.162 24.6262C115.868 24.6262 121.623 24.6262 124.291 24.6591C109.923 10.4682 99.0159 4.25558 86.7389 3.24759C82.2326 2.91818 77.6867 2.75677 73.2332 2.75677C62.9359 2.77654 55.903 3.66264 54.111 3.91299H54.1242Z" fill="black"/>
<path d="M11.868 6.67017C17.6491 4.16667 37.0019 0.487182 44.8088 1.15917C54.8821 2.02881 56.9047 3.9822 62.0105 11.6442C67.1163 19.3063 70.7266 24.949 70.7266 24.949C70.7266 24.949 69.6527 25.2619 70.9506 28.1311C72.2485 31.0002 73.4146 31.9917 75.0287 33.0129C78.8597 35.4308 86.2516 36.0369 93.0374 37.2458C99.8232 38.4547 105.314 38.3888 112.393 38.3888C119.472 38.3888 144.731 37.4006 144.731 37.4006C144.731 37.4006 147.808 43.4156 149.89 45.8368C151.972 48.2579 155.938 52.6226 155.938 52.6226C155.938 52.6226 156.656 64.6295 154.146 69.6464C148.052 70.8125 127.444 73.5993 114.288 74.7983C101.131 75.9973 87.0027 74.3272 85.9947 74.1922C84.9867 74.0571 84.9109 72.3739 84.7199 68.7504C84.3147 61.0916 81.0437 45.2735 71.0099 45.2735C63.2128 45.3657 61.3616 53.1793 60.5282 57.5933C59.7804 61.5462 60.1493 68.4638 60.9564 71.5899C57.5503 71.0661 22.7121 65.4497 19.3061 64.7316C15.9 64.0135 15.4981 62.2446 15.4981 60.8347C15.4981 59.4248 13.3042 42.513 7.2102 41.6138C1.11616 40.7145 0.760395 49.0518 1.02722 51.0216C0.3124 48.1558 -1.58828 35.5032 2.80272 27.0803C7.19373 18.6573 6.95985 8.79485 11.868 6.67017Z" fill="#87DD00"/>
<path d="M75.0681 33.0821C73.4671 32.0708 72.3175 31.0859 71.0328 28.2464C69.7481 25.4069 70.8088 25.0972 70.8088 25.0972C70.8088 25.0972 67.2183 19.4973 62.1619 11.9209C57.1055 4.34456 55.1092 2.34176 45.1348 1.54459C35.1603 0.747424 12.5399 6.9897 12.5399 6.9897C8.39263 8.94638 7.50323 19.0164 4.5188 27.0836L78.9913 34.6929C77.616 34.338 76.2959 33.796 75.0681 33.0821Z" fill="url(#paint14_linear)"/>
<path d="M155.948 52.6358C155.948 52.6358 151.995 48.2678 149.9 45.85C147.805 43.4321 144.741 37.4138 144.741 37.4138C144.741 37.4138 119.479 38.402 112.403 38.402C105.328 38.402 99.8363 38.4679 93.0472 37.259C90.7413 36.8505 88.3894 36.5079 86.1296 36.1456C99.0688 43.3926 99.0029 60.4328 99.306 75.1837C104.304 75.3657 109.308 75.2458 114.291 74.8247C127.467 73.6157 148.068 70.8388 154.149 69.6727C156.666 64.6427 155.948 52.6358 155.948 52.6358Z" fill="#2AC100"/>
<path d="M15.9921 21.9019L26.6978 22.485L33.5034 4.51909C33.5034 4.51909 19.5431 7.11482 16.7036 7.98446C13.0801 9.08797 12.0063 20.0671 9.85852 21.9019H15.9921Z" fill="#0B1100"/>
<path d="M36.7778 4.07115C36.7778 4.07115 31.807 16.4602 30.552 22.6432C39.5119 23.358 65.0015 24.949 65.0015 24.949C65.0015 24.949 57.7545 11.8682 55.0566 8.64004C52.3588 5.41184 48.1589 2.72717 36.7778 4.07115Z" fill="#0B1100"/>
<path d="M105.278 63.5225C105.278 63.5225 107.831 65.5385 123.02 64.7314C138.209 63.9244 152.186 63.1173 155.991 59.3555C155.503 64.4646 155.276 66.8825 148.958 67.9563C142.64 69.0302 124.364 70.7794 117.911 70.7794C111.458 70.7794 106.085 71.1812 105.278 63.5225Z" fill="black"/>
<path d="M153.918 60.7192C153.434 64.234 152.39 66.0556 147.146 66.9483C140.828 68.0255 122.549 69.7714 116.099 69.7714C112.917 69.7714 110.002 69.8669 107.762 69.05C110.094 70.9408 113.783 70.7794 117.911 70.7794C124.364 70.7794 142.643 69.0335 148.958 67.9563C155.272 66.8792 155.503 64.4646 155.99 59.3555C155.38 59.9218 154.68 60.3826 153.918 60.7192Z" fill="url(#paint15_linear)"/>
<path d="M14.6912 19.3128C14.6912 19.3128 23.2953 19.2568 24.7052 19.3128C26.115 19.3688 26.9221 16.279 27.4623 15.406C28.0025 14.5331 30.6872 7.20708 30.6872 7.20708C30.6872 7.20708 17.3791 8.43578 14.6912 19.3128Z" fill="white"/>
<path d="M38.3459 7.20713L34.5841 21.1839H36.4683C36.4683 21.1839 36.353 10.7944 40.9022 10.3134C48.6992 9.46028 51.1138 21.9152 51.1138 21.9152C51.1138 21.9152 53.3109 14.2103 53.6239 12.1944C53.9368 10.1784 46.96 7.07537 38.3459 7.20713Z" fill="white"/>
<path opacity="0.5" d="M15.9921 21.9019L26.7538 22.485L33.5034 4.51909C33.5034 4.51909 19.5431 7.11482 16.7036 7.98446C13.0801 9.08797 12.0063 20.0671 9.85852 21.9019H15.9921Z" fill="#303030"/>
<path d="M26.9683 22.7486L9.12756 22.1722L9.68426 21.6978C10.5045 20.9962 11.2094 18.6969 11.9539 16.2626C13.0805 12.5864 14.3487 8.4194 16.6216 7.71776C19.4479 6.85471 32.8877 4.35451 33.4609 4.2491L33.9287 4.16016L26.9683 22.7486ZM16.0155 21.8131L26.6257 22.1425L33.0887 4.88485C30.6346 5.34603 19.2832 7.48718 16.7797 8.2547C14.7802 8.8641 13.5515 12.8862 12.4645 16.4306C11.7859 18.6475 11.1864 20.6075 10.4485 21.6484L16.0155 21.8131Z" fill="black"/>
<path opacity="0.5" d="M36.7779 4.07115C36.7779 4.07115 31.9389 16.3021 30.6871 22.4851C39.647 23.1999 65.0015 24.949 65.0015 24.949C65.0015 24.949 57.7546 11.8682 55.0567 8.64004C52.3589 5.41184 48.1589 2.72717 36.7779 4.07115Z" fill="#303030"/>
<path d="M65.4855 25.2618L64.9782 25.2156C64.7246 25.1926 39.3173 23.6147 30.4628 22.9098L30.1598 22.8867L30.3443 22.1456C31.5894 16.0087 36.4679 4.09402 36.5305 3.96885L36.5898 3.8239L36.7479 3.80414C38.5839 3.57333 40.4317 3.45014 42.282 3.4352C50.0363 3.4352 53.1953 5.97164 55.264 8.45538C57.9355 11.6638 64.942 24.267 65.2384 24.8039L65.4855 25.2618ZM30.8087 22.3959C39.1987 23.0712 60.9364 24.3065 64.5203 24.6326C63.2257 22.3267 57.2141 11.6473 54.8522 8.82102C52.8757 6.43281 49.8123 3.9919 42.282 3.9919C40.5049 3.9997 38.7298 4.10969 36.9654 4.32131C36.4152 5.662 32.0506 16.6115 30.8087 22.3959Z" fill="black"/>
<path d="M70.4564 25.2126C70.3806 25.0908 62.6823 13.1497 59.9153 9.07166C57.1483 4.99359 54.0387 3.34984 54.009 3.33337L54.8556 3.2609C54.9775 3.32349 57.5535 4.63453 60.3567 8.7686C63.127 12.8434 70.8286 24.791 70.8978 24.9096L70.4564 25.2126Z" fill="black"/>
<path d="M112.779 44.3115C114.755 49.335 113.408 53.8347 109.765 54.3585C106.122 54.8822 101.563 51.2324 99.5828 46.2089C97.6031 41.1854 98.9504 36.6857 102.597 36.162C106.243 35.6382 110.799 39.2848 112.779 44.3115Z" fill="url(#paint16_linear)"/>
<path d="M112.647 44.4071C114.429 48.9332 113.213 52.9718 109.929 53.456C106.645 53.9402 102.541 50.6395 100.758 46.1135C98.9764 41.5874 100.192 37.5489 103.473 37.0646C106.754 36.5804 110.865 39.8811 112.647 44.4071Z" fill="url(#paint17_linear)"/>
<path d="M107.037 38.0628C106.112 37.5719 105.061 37.3677 104.02 37.4764C101.055 37.9014 99.9681 41.5512 101.576 45.626C102.123 47.0123 102.915 48.2888 103.914 49.3944C102.603 45.5502 103.769 40.7969 107.037 38.0628Z" fill="url(#paint18_radial)"/>
<path d="M112.278 44.0876C111.194 41.337 109.155 39.1004 107.037 38.0627C103.769 40.7968 102.603 45.5502 103.914 49.3944C105.683 51.3543 107.913 52.5139 109.844 52.2339C112.789 51.8122 113.879 48.1624 112.278 44.0876Z" fill="url(#paint19_radial)"/>
<path d="M117.048 63.2591L117.031 62.7353C117.008 62.1028 116.518 47.1576 117.048 43.5111C117.545 40.0885 122.233 40.0194 125.033 39.9798H125.662C126.805 39.9535 129.048 39.8547 131.423 39.7492C134.388 39.6208 137.748 39.4725 139.882 39.4198H140.037C140.321 39.4198 140.594 39.4198 140.858 39.4198C142.593 39.4198 144.369 39.6603 145.367 42.5261C146.761 46.535 149.498 59.5994 149.613 60.1528L149.728 60.7095L149.168 60.7951C149.01 60.8182 133.202 63.2031 117.572 63.2854L117.048 63.2591ZM140.858 40.4673C140.601 40.4673 140.337 40.4673 140.064 40.4673H139.902C137.778 40.5168 134.424 40.665 131.463 40.7968C129.084 40.8989 126.851 41.001 125.678 41.0273H125.039C122.582 41.0636 118.471 41.1229 118.122 43.6395C117.661 46.8183 118.016 59.4182 118.099 62.1523C131.819 62.0337 145.542 60.1758 148.45 59.7575C147.904 57.165 145.571 46.3045 144.362 42.8226C143.582 40.6386 142.419 40.4673 140.858 40.4673Z" fill="url(#paint20_linear)"/>
<path d="M4.74627 27.8378C4.74627 27.8378 82.2559 36.1817 84.7166 36.3497C92.3753 39.3902 97.3494 50.4879 97.4845 62.7188C93.9894 62.5838 86.1166 61.9941 86.1166 61.9941C86.1166 61.9941 83.903 43.8569 71.2636 43.6231C61.2397 43.4287 58.1037 51.3378 58.2388 59.3688C51.7857 58.2916 17.4252 53.5448 17.4252 53.5448C17.4252 53.5448 14.6911 41.5379 9.8488 39.8118C4.5618 37.9111 1.38631 40.329 0.780199 44.9736C-0.336494 37.7827 3.26723 29.2708 4.74627 27.8378Z" fill="url(#paint21_linear)"/>
<path d="M18.5222 61.5725L58.8252 69.4454C58.8252 69.4454 57.0299 62.7189 57.837 55.6893C44.8023 53.9435 16.661 50.847 16.661 50.847C16.661 50.847 18.8318 57.6559 18.5222 61.5725Z" fill="url(#paint22_linear)"/>
<path d="M90.5932 43.0531C90.3001 45.7444 71.1977 45.8828 47.925 43.3826C24.6524 40.8823 6.01778 36.633 6.30766 33.9417C6.59754 31.2505 25.7032 31.1055 48.9857 33.6321C72.2683 36.1586 90.8831 40.3652 90.5932 43.0531Z" fill="url(#paint23_radial)"/>
<path d="M146.777 37.5586C146.807 38.5963 140.242 39.6306 132.112 39.8645C123.982 40.0984 117.368 39.4461 117.338 38.4052C117.308 37.3643 123.873 36.3332 132.003 36.0994C140.133 35.8655 146.748 36.5177 146.777 37.5586Z" fill="url(#paint24_radial)"/>
<path d="M149.086 45.1087C149.086 45.1087 152.99 50.2079 154.469 51.4234C155.948 52.6389 155.681 52.8036 155.681 52.8036C155.681 52.8036 155.615 57.9424 155.697 58.5485C155.78 59.1546 153.596 60.3965 151.379 60.7983C151.076 58.8845 149.086 45.1087 149.086 45.1087Z" fill="url(#paint25_linear)"/>
<path d="M126.726 26.0227C126.726 26.0227 134.302 28.2429 137.412 29.6462C140.521 31.0495 144.105 33.8132 144.105 33.8132C144.105 33.8132 143.446 35.4141 143.526 36.119C139.494 36.4254 125.247 37.0052 125.247 37.0052C125.247 37.0052 135.162 33.7407 126.726 26.0227Z" fill="url(#paint26_linear)"/>
<path d="M105.885 41.0768L110.588 42.3549V48.2677L105.885 41.0768Z" fill="white"/>
<path d="M105.885 42.8261L110.206 50.1291L109.94 51.697L105.885 42.8261Z" fill="white"/>
<g style="mix-blend-mode:multiply">
<path d="M67.2085 26.3852C67.1295 26.2337 59.1611 11.2324 55.2938 6.10354C51.2224 0.697962 38.9585 1.96289 36.768 2.2363C36.567 2.26265 36.2738 2.30547 35.9214 2.36477L35.6809 2.26265L35.615 2.41747C30.8287 3.2377 16.0976 6.27154 14.5725 7.02918C13.2186 7.70776 11.789 11.0381 10.2012 17.2112C9.16688 21.2201 6.7029 22.956 6.67655 22.9725L6.62385 23.012L6.59091 23.068C4.3147 27.3504 3.534 33.2797 3.702 34.8444C3.89306 36.6067 5.82668 37.8486 9.77628 38.7479C16.5193 40.8001 19.2369 60.6601 19.2632 60.8577L19.2896 61.0521L19.4806 61.0883C19.81 61.1476 51.6671 67.1428 56.5785 67.7325L56.9508 67.7753L56.8717 67.4096C56.1668 64.0826 55.3828 48.2117 57.4054 40.553C59.3587 33.1545 67.0636 26.7739 67.1426 26.7179L67.3106 26.5795L67.2085 26.3852ZM9.91463 38.2439C6.20221 37.4006 4.39705 36.3069 4.23894 34.8048C4.08082 33.3027 4.86811 27.5118 7.0389 23.3942C7.43419 23.101 9.7104 21.2859 10.7217 17.3627C12.2501 11.4334 13.6238 8.12281 14.8129 7.52659C16.2195 6.81836 30.328 3.9031 35.368 3.0137C33.9746 6.36048 28.3351 20.3373 27.0504 30.236C25.6076 41.3897 27.5808 59.0921 28.457 62.2313C24.0067 61.4078 20.5973 60.7688 19.7705 60.6139C19.4609 58.4003 16.7037 40.306 9.91463 38.2373V38.2439ZM56.8915 40.4245C54.915 47.9054 55.5903 63.1339 56.2821 67.1593C52.4873 66.6487 38.6159 64.109 29.0598 62.3368C28.2791 60.3603 26.1347 41.5478 27.5907 30.2985C28.9083 20.1133 34.8936 5.54026 36.0037 2.89841C36.3562 2.83911 36.6625 2.793 36.8404 2.76994C38.9816 2.50312 50.9852 1.26784 54.8722 6.42966C58.4759 11.2127 65.6965 24.6789 66.6387 26.4478C65.4758 27.4426 58.7197 33.4806 56.8915 40.4245Z" fill="#87DD00"/>
</g>
<path d="M67.963 26.5962C67.963 26.5962 65.7428 26.0263 64.9226 23.9378C64.1024 21.8494 64.0991 20.3901 62.7683 20.0706C61.4374 19.7511 55.2314 19.9454 52.695 20.0706C50.1585 20.1958 50.9227 22.7948 50.9227 24.5077C50.9227 26.2206 52.1251 26.7872 55.294 26.5962C58.4629 26.4051 61.0586 26.2667 62.3894 26.3425C63.7202 26.4183 64.4779 28.4342 64.4779 28.4342C64.4779 28.4342 65.3014 29.3204 67.6468 28.9415C69.9922 28.5627 68.4407 26.7674 67.963 26.5962Z" fill="#29A500"/>
<path d="M52.0559 24.949C52.0559 23.2393 51.295 20.6403 53.8281 20.5151C56.1537 20.3999 61.5758 20.2286 63.4765 20.4493C63.2788 20.2616 63.0341 20.1307 62.7683 20.0704C61.4506 19.741 55.2314 19.9453 52.695 20.0704C50.1585 20.1956 50.9227 22.7946 50.9227 24.5076C50.9227 25.6374 51.4564 26.2699 52.7312 26.5104C52.4979 26.3266 52.3139 26.0877 52.196 25.8151C52.0782 25.5425 52.03 25.2448 52.0559 24.949Z" fill="#A2FF00"/>
<path d="M65.6106 28.8755C65.6106 28.8755 64.8496 26.8497 63.5188 26.7838H63.3739C63.855 27.2478 64.2313 27.8094 64.4774 28.4308C64.8274 28.7264 65.2574 28.911 65.7127 28.9612C65.6764 28.9354 65.6423 28.9068 65.6106 28.8755Z" fill="#218400"/>
<defs>
<linearGradient id="paint0_linear" x1="12.4444" y1="55.5181" x2="3.34949" y2="55.5181" gradientUnits="userSpaceOnUse">
<stop stop-color="#878787"/>
<stop offset="0.2" stop-color="#9F9F9F"/>
<stop offset="0.54" stop-color="#C2C2C2"/>
<stop offset="0.82" stop-color="#D8D8D8"/>
<stop offset="1" stop-color="#E0E0E0"/>
</linearGradient>
<radialGradient id="paint1_radial" cx="0" cy="0" r="1" gradientUnits="userSpaceOnUse" gradientTransform="translate(6.26643 56.1989) scale(3.04801 8.27776)">
<stop stop-color="#E0E0E0"/>
<stop offset="0.03" stop-color="#D8D8D8"/>
<stop offset="0.27" stop-color="#A5A5A5"/>
<stop offset="0.49" stop-color="#7D7D7D"/>
<stop offset="0.7" stop-color="#616161"/>
<stop offset="0.87" stop-color="#4F4F4F"/>
<stop offset="1" stop-color="#494949"/>
</radialGradient>
<linearGradient id="paint2_linear" x1="5638.52" y1="8535.3" x2="6356.3" y2="8535.3" gradientUnits="userSpaceOnUse">
<stop stop-color="#878787"/>
<stop offset="0.2" stop-color="#9F9F9F"/>
<stop offset="0.54" stop-color="#C2C2C2"/>
<stop offset="0.82" stop-color="#D8D8D8"/>
<stop offset="1" stop-color="#E0E0E0"/>
</linearGradient>
<radialGradient id="paint3_radial" cx="0" cy="0" r="1" gradientUnits="userSpaceOnUse" gradientTransform="translate(2906.4 12822.7) scale(168.641 745.805)">
<stop stop-color="#E0E0E0"/>
<stop offset="0.03" stop-color="#D8D8D8"/>
<stop offset="0.27" stop-color="#A5A5A5"/>
<stop offset="0.49" stop-color="#7D7D7D"/>
<stop offset="0.7" stop-color="#616161"/>
<stop offset="0.87" stop-color="#4F4F4F"/>
<stop offset="1" stop-color="#494949"/>
</radialGradient>
<linearGradient id="paint4_linear" x1="-2507.41" y1="8194.52" x2="-3227.72" y2="8230.54" gradientUnits="userSpaceOnUse">
<stop stop-color="#878787"/>
<stop offset="0.2" stop-color="#9F9F9F"/>
<stop offset="0.54" stop-color="#C2C2C2"/>
<stop offset="0.82" stop-color="#D8D8D8"/>
<stop offset="1" stop-color="#E0E0E0"/>
</linearGradient>
<radialGradient id="paint5_radial" cx="0" cy="0" r="1" gradientUnits="userSpaceOnUse" gradientTransform="translate(5369.63 11788.9) rotate(-2.86241) scale(169.405 746.145)">
<stop stop-color="#E0E0E0"/>
<stop offset="0.03" stop-color="#D8D8D8"/>
<stop offset="0.27" stop-color="#A5A5A5"/>
<stop offset="0.49" stop-color="#7D7D7D"/>
<stop offset="0.7" stop-color="#616161"/>
<stop offset="0.87" stop-color="#4F4F4F"/>
<stop offset="1" stop-color="#494949"/>
</radialGradient>
<linearGradient id="paint6_linear" x1="1835.44" y1="5520.58" x2="1924.9" y2="5520.58" gradientUnits="userSpaceOnUse">
<stop stop-color="#878787"/>
<stop offset="0.2" stop-color="#9F9F9F"/>
<stop offset="0.54" stop-color="#C2C2C2"/>
<stop offset="0.82" stop-color="#D8D8D8"/>
<stop offset="1" stop-color="#E0E0E0"/>
</linearGradient>
<radialGradient id="paint7_radial" cx="0" cy="0" r="1" gradientUnits="userSpaceOnUse" gradientTransform="translate(93.194 3362.58) scale(11.9231 128.206)">
<stop stop-color="#E0E0E0"/>
<stop offset="0.03" stop-color="#D8D8D8"/>
<stop offset="0.27" stop-color="#A5A5A5"/>
<stop offset="0.49" stop-color="#7D7D7D"/>
<stop offset="0.7" stop-color="#616161"/>
<stop offset="0.87" stop-color="#4F4F4F"/>
<stop offset="1" stop-color="#494949"/>
</radialGradient>
<linearGradient id="paint8_linear" x1="2049.9" y1="8178.7" x2="2305.56" y2="8178.7" gradientUnits="userSpaceOnUse">
<stop stop-color="#878787"/>
<stop offset="0.2" stop-color="#9F9F9F"/>
<stop offset="0.54" stop-color="#C2C2C2"/>
<stop offset="0.82" stop-color="#D8D8D8"/>
<stop offset="1" stop-color="#E0E0E0"/>
</linearGradient>
<radialGradient id="paint9_radial" cx="0" cy="0" r="1" gradientUnits="userSpaceOnUse" gradientTransform="translate(613.694 10114.2) scale(32.4369 587.49)">
<stop stop-color="#E0E0E0"/>
<stop offset="0.03" stop-color="#D8D8D8"/>
<stop offset="0.27" stop-color="#A5A5A5"/>
<stop offset="0.49" stop-color="#7D7D7D"/>
<stop offset="0.7" stop-color="#616161"/>
<stop offset="0.87" stop-color="#4F4F4F"/>
<stop offset="1" stop-color="#494949"/>
</radialGradient>
<linearGradient id="paint10_linear" x1="145.4" y1="43.9393" x2="153.754" y2="39.2913" gradientUnits="userSpaceOnUse">
<stop stop-color="white"/>
<stop offset="0.14" stop-color="#F3F3F3"/>
<stop offset="0.38" stop-color="#D3D3D3"/>
<stop offset="0.7" stop-color="#A0A0A0"/>
<stop offset="1" stop-color="#6B6B6B"/>
</linearGradient>
<linearGradient id="paint11_linear" x1="4155.72" y1="2248.07" x2="4355.76" y2="2167.71" gradientUnits="userSpaceOnUse">
<stop stop-color="white"/>
<stop offset="0.14" stop-color="#F3F3F3"/>
<stop offset="0.38" stop-color="#D3D3D3"/>
<stop offset="0.7" stop-color="#A0A0A0"/>
<stop offset="1" stop-color="#6B6B6B"/>
</linearGradient>
<linearGradient id="paint12_linear" x1="146.221" y1="44.8683" x2="152.894" y2="41.1559" gradientUnits="userSpaceOnUse">
<stop stop-color="#6B6B6B"/>
<stop offset="0.3" stop-color="#A0A0A0"/>
<stop offset="0.62" stop-color="#D3D3D3"/>
<stop offset="0.86" stop-color="#F3F3F3"/>
<stop offset="1" stop-color="white"/>
</linearGradient>
<linearGradient id="paint13_linear" x1="145.015" y1="43.0698" x2="152.835" y2="38.7183" gradientUnits="userSpaceOnUse">
<stop stop-color="#2B2B2B"/>
<stop offset="0.18" stop-color="#595959"/>
<stop offset="0.47" stop-color="#A0A0A0"/>
<stop offset="0.71" stop-color="#D3D3D3"/>
<stop offset="0.9" stop-color="#F3F3F3"/>
<stop offset="1" stop-color="white"/>
</linearGradient>
<linearGradient id="paint14_linear" x1="51.578" y1="-9.28304" x2="39.4459" y2="40.3357" gradientUnits="userSpaceOnUse">
<stop stop-color="white"/>
<stop offset="0.71" stop-color="white" stop-opacity="0"/>
</linearGradient>
<linearGradient id="paint15_linear" x1="107.762" y1="65.0707" x2="155.99" y2="65.0707" gradientUnits="userSpaceOnUse">
<stop stop-color="#0D0D0D"/>
<stop offset="0.05" stop-color="#101010"/>
<stop offset="0.64" stop-color="#272727"/>
<stop offset="1" stop-color="#303030"/>
</linearGradient>
<linearGradient id="paint16_linear" x1="99.9984" y1="50.012" x2="111.504" y2="38.4268" gradientUnits="userSpaceOnUse">
<stop stop-color="#070707"/>
<stop offset="0.47" stop-color="#E8E8E8"/>
<stop offset="1" stop-color="#070707"/>
</linearGradient>
<linearGradient id="paint17_linear" x1="6479.75" y1="3135.94" x2="7276.14" y2="2427.69" gradientUnits="userSpaceOnUse">
<stop stop-color="#6B6B6B"/>
<stop offset="0.3" stop-color="#A0A0A0"/>
<stop offset="0.62" stop-color="#D3D3D3"/>
<stop offset="0.86" stop-color="#F3F3F3"/>
<stop offset="1" stop-color="white"/>
</linearGradient>
<radialGradient id="paint18_radial" cx="0" cy="0" r="1" gradientUnits="userSpaceOnUse" gradientTransform="translate(3264.75 2403.08) rotate(-16.95) scale(130.535 334.3)">
<stop stop-color="white"/>
<stop offset="0.14" stop-color="#F3F3F3"/>
<stop offset="0.38" stop-color="#D3D3D3"/>
<stop offset="0.7" stop-color="#A0A0A0"/>
<stop offset="1" stop-color="#6B6B6B"/>
</radialGradient>
<radialGradient id="paint19_radial" cx="0" cy="0" r="1" gradientUnits="userSpaceOnUse" gradientTransform="translate(4855.98 2649.98) rotate(-16.95) scale(243.041 477.105)">
<stop stop-color="white"/>
<stop offset="0.14" stop-color="#F3F3F3"/>
<stop offset="0.38" stop-color="#D3D3D3"/>
<stop offset="0.7" stop-color="#A0A0A0"/>
<stop offset="1" stop-color="#6B6B6B"/>
</radialGradient>
<linearGradient id="paint20_linear" x1="116.801" y1="51.3246" x2="149.728" y2="51.3246" gradientUnits="userSpaceOnUse">
<stop stop-color="#070707"/>
<stop offset="0.53" stop-color="#E8E8E8"/>
<stop offset="1" stop-color="#070707"/>
</linearGradient>
<linearGradient id="paint21_linear" x1="46.8611" y1="69.3004" x2="54.0454" y2="10.9063" gradientUnits="userSpaceOnUse">
<stop offset="0.29" stop-color="white" stop-opacity="0"/>
<stop offset="1" stop-color="white"/>
</linearGradient>
<linearGradient id="paint22_linear" x1="6869.61" y1="5876.04" x2="6963.85" y2="4139.12" gradientUnits="userSpaceOnUse">
<stop stop-color="white"/>
<stop offset="0.71" stop-color="white" stop-opacity="0"/>
</linearGradient>
<radialGradient id="paint23_radial" cx="0" cy="0" r="1" gradientUnits="userSpaceOnUse" gradientTransform="translate(47.7647 38.1404) rotate(6.08853) scale(40.265 4.30324)">
<stop stop-color="white"/>
<stop offset="0.16" stop-color="white" stop-opacity="0.76"/>
<stop offset="0.32" stop-color="white" stop-opacity="0.53"/>
<stop offset="0.49" stop-color="white" stop-opacity="0.34"/>
<stop offset="0.64" stop-color="white" stop-opacity="0.19"/>
<stop offset="0.78" stop-color="white" stop-opacity="0.09"/>
<stop offset="0.9" stop-color="white" stop-opacity="0.02"/>
<stop offset="1" stop-color="white" stop-opacity="0"/>
</radialGradient>
<radialGradient id="paint24_radial" cx="0" cy="0" r="1" gradientUnits="userSpaceOnUse" gradientTransform="translate(9539.23 -135.558) rotate(-1.45022) scale(1256.75 18.7613)">
<stop stop-color="white"/>
<stop offset="0.16" stop-color="white" stop-opacity="0.76"/>
<stop offset="0.32" stop-color="white" stop-opacity="0.53"/>
<stop offset="0.49" stop-color="white" stop-opacity="0.34"/>
<stop offset="0.64" stop-color="white" stop-opacity="0.19"/>
<stop offset="0.78" stop-color="white" stop-opacity="0.09"/>
<stop offset="0.9" stop-color="white" stop-opacity="0.02"/>
<stop offset="1" stop-color="white" stop-opacity="0"/>
</radialGradient>
<linearGradient id="paint25_linear" x1="3669.92" y1="3527.59" x2="3482.4" y2="3565.1" gradientUnits="userSpaceOnUse">
<stop stop-color="white"/>
<stop offset="0.71" stop-color="white" stop-opacity="0"/>
</linearGradient>
<linearGradient id="paint26_linear" x1="8241.23" y1="2309.17" x2="8828.48" y2="1074.85" gradientUnits="userSpaceOnUse">
<stop offset="0.29" stop-color="white" stop-opacity="0"/>
<stop offset="1" stop-color="white"/>
</linearGradient>
</defs>
</svg>
