<svg width="29" height="28" viewBox="0 0 29 28" fill="none" xmlns="http://www.w3.org/2000/svg">
<g clip-path="url(#clip0)">
<path d="M27.5054 10.2954L18.4361 9.4543L14.8335 1.08882C14.5812 0.503066 13.7507 0.503066 13.4985 1.08882L9.89596 9.45435L0.826655 10.2954C0.191625 10.3543 -0.0650232 11.1442 0.414093 11.5651L7.25691 17.5764L5.25437 26.4618C5.11415 27.0839 5.78604 27.5721 6.33439 27.2465L14.166 22.5962L21.9976 27.2465C22.546 27.5721 23.2179 27.0839 23.0777 26.4618L21.0751 17.5764L27.9179 11.5651C28.397 11.1442 28.1404 10.3543 27.5054 10.2954Z" fill="#FFDC64"/>
<path d="M14.8335 1.08882C14.5812 0.503066 13.7507 0.503066 13.4985 1.08882L9.89596 9.45435L0.826655 10.2954C0.191625 10.3543 -0.0650231 11.1442 0.414093 11.5651L7.25691 17.5764L5.25436 26.4618C5.11415 27.0839 5.78604 27.5721 6.33439 27.2465L8.08236 26.2085C8.3243 16.2499 12.9514 9.23697 16.6148 5.22516L14.8335 1.08882Z" fill="#FFC850"/>
</g>
<defs>
<clipPath id="clip0">
<rect width="28" height="28" fill="white" transform="translate(0.166016)"/>
</clipPath>
</defs>
</svg>
