<svg width="143" height="134" viewBox="0 0 143 134" fill="none" xmlns="http://www.w3.org/2000/svg">
<g clip-path="url(#clip0)">
<path d="M142.839 128.416C142.839 131.216 110.865 133.48 71.4234 133.48C31.9814 133.48 0 131.216 0 128.416C0 125.615 31.9814 123.351 71.4234 123.351C110.865 123.351 142.839 125.623 142.839 128.416Z" fill="#E6E6E6"/>
<path d="M110.298 6.51141H95.6099V25.2211H110.298V6.51141Z" fill="#F1F1F1"/>
<path d="M112.585 0H93.3071V6.89262H112.585V0Z" fill="#C41219"/>
<path d="M124.946 128.556H17.8928V54.3397L71.4156 17.2471L124.946 54.3397V128.556Z" fill="#F1F1F1"/>
<path d="M17.0682 52.1225L17.7762 56.269H125.063L125.763 52.1225H17.0682Z" fill="#4C4C4C"/>
<path d="M114.646 16.8114H28.1928L13.9719 52.4025H128.867L114.646 16.8114Z" fill="#A90606"/>
<path d="M115.728 75.0564H97.3914V106.836H115.728V75.0564Z" fill="#B47D4F"/>
<path d="M113.145 78.0126H99.8418V103.879H113.145V78.0126Z" fill="#A1DCED"/>
<path d="M114.39 89.6896H97.3914V92.2024H114.39V89.6896Z" fill="#B47D4F"/>
<path d="M45.4477 75.0564H27.1115V106.836H45.4477V75.0564Z" fill="#B47D4F"/>
<path d="M42.8571 78.0126H29.5542V103.879H42.8571V78.0126Z" fill="#A1DCED"/>
<path d="M44.1096 89.6896H27.1115V92.2024H44.1096V89.6896Z" fill="#B47D4F"/>
<path d="M106.447 11.8793H100.068V15.1544H106.447V11.8793Z" fill="#CCCCCC"/>
<path d="M109.636 7.85724H103.257V11.1324H109.636V7.85724Z" fill="#CCCCCC"/>
<path d="M85.8776 118.341H76.9779V122.216H85.8776V118.341Z" fill="#EBD7B4"/>
<path d="M55.1566 64.4219H46.2568V68.2961H55.1566V64.4219Z" fill="#CCCCCC"/>
<path d="M59.6064 59.6686H50.7067V63.5428H59.6064V59.6686Z" fill="#CCCCCC"/>
<path d="M100.908 65.8221H92.0079V69.6963H100.908V65.8221Z" fill="#CCCCCC"/>
<path d="M105.357 61.0689H96.4578V64.9431H105.357V61.0689Z" fill="#CCCCCC"/>
<path d="M100.176 113.588H91.2766V117.462H100.176V113.588Z" fill="#CCCCCC"/>
<path d="M22.3426 114.926H17.2471V118.8H22.3426V114.926Z" fill="#CCCCCC"/>
<path d="M22.3426 119.82H17.2471V123.694H22.3426V119.82Z" fill="#CCCCCC"/>
<path d="M22.3426 124.713H17.2471V128.587H22.3426V124.713Z" fill="#CCCCCC"/>
<path d="M125.421 114.926H120.325V118.8H125.421V114.926Z" fill="#CCCCCC"/>
<path d="M125.421 119.82H120.325V123.694H125.421V119.82Z" fill="#CCCCCC"/>
<path d="M125.421 124.713H120.325V128.587H125.421V124.713Z" fill="#CCCCCC"/>
<path d="M59.6064 69.0351H50.7067V72.9093H59.6064V69.0351Z" fill="#CCCCCC"/>
<path d="M88.1882 75.0642H54.6431V128.564H88.1882V75.0642Z" fill="#D49C6B"/>
<path d="M83.147 79.5841H59.6919V98.6438H83.147V79.5841Z" fill="#B47D4F"/>
<path d="M83.147 107.925H59.6919V124.511H83.147V107.925Z" fill="#B47D4F"/>
<path d="M83.9406 103.35C83.9406 103.757 83.8201 104.154 83.5945 104.491C83.3688 104.829 83.048 105.092 82.6727 105.248C82.2975 105.403 81.8845 105.444 81.4861 105.365C81.0877 105.285 80.7218 105.09 80.4345 104.803C80.1473 104.515 79.9517 104.149 79.8725 103.751C79.7932 103.353 79.8339 102.94 79.9893 102.564C80.1448 102.189 80.408 101.868 80.7458 101.643C81.0835 101.417 81.4806 101.297 81.8868 101.297C82.4309 101.299 82.9521 101.516 83.3368 101.9C83.7215 102.285 83.9385 102.806 83.9406 103.35Z" fill="#B47D4F"/>
<path d="M88.3282 75.0564H88.1882H85.1931H57.646H54.6431H54.5031V78.0593H54.6431V128.556H57.646V78.0593H85.1931V128.556H88.1882V78.0593H88.3282V75.0564Z" fill="#B47D4F"/>
<path d="M71.4156 18.4996L57.2725 30.3944V48.1239H71.4156H85.5664V30.3944L71.4156 18.4996Z" fill="#F1F1F1"/>
<path d="M71.4156 45.0432C76.3609 45.0432 80.3698 41.0343 80.3698 36.089C80.3698 31.1438 76.3609 27.1349 71.4156 27.1349C66.4704 27.1349 62.4614 31.1438 62.4614 36.089C62.4614 41.0343 66.4704 45.0432 71.4156 45.0432Z" fill="#A1DCED"/>
<path d="M71.4234 25.0421C69.237 25.0421 67.0997 25.6905 65.2818 26.9052C63.4639 28.1199 62.047 29.8464 61.2103 31.8664C60.3736 33.8863 60.1546 36.1091 60.5812 38.2534C61.0077 40.3978 62.0606 42.3676 63.6066 43.9136C65.1526 45.4596 67.1224 46.5125 69.2668 46.939C71.4112 47.3656 73.6339 47.1466 75.6538 46.3099C77.6738 45.4732 79.4003 44.0563 80.615 42.2384C81.8297 40.4205 82.4781 38.2832 82.4781 36.0968C82.476 33.1656 81.3106 30.3549 79.2379 28.2822C77.1652 26.2095 74.3547 25.0442 71.4234 25.0421ZM79.2029 34.6965H72.8237V28.294C74.4174 28.5788 75.8855 29.3452 77.0302 30.49C78.175 31.6347 78.9414 33.1028 79.2262 34.6965H79.2029ZM69.9998 28.294V34.6965H63.5895C63.8774 33.099 64.6487 31.6283 65.7993 30.4833C66.9499 29.3383 68.4242 28.5741 70.0231 28.294H69.9998ZM63.5895 37.4971H69.9998V43.8996C68.4094 43.6108 66.9453 42.8428 65.8037 41.6985C64.6622 40.5541 63.8977 39.0882 63.6128 37.4971H63.5895ZM72.8237 43.8996V37.4971H79.2262C78.9414 39.0907 78.175 40.5588 77.0302 41.7036C75.8855 42.8483 74.4174 43.6148 72.8237 43.8996Z" fill="#B47D4F"/>
<path d="M71.4156 13.5129L51.7102 30.4722L57.2725 30.3944L71.4156 18.4996L85.5665 30.3944L91.121 30.4722L71.4156 13.5129Z" fill="#C41219"/>
<path d="M51.5001 118.38C51.9344 117.62 52.1623 116.759 52.1614 115.883C52.1604 114.567 51.6505 113.303 50.7384 112.355C49.8264 111.406 48.5828 110.848 47.2681 110.795C47.2713 110.777 47.2713 110.759 47.2681 110.741C47.2708 110.304 47.1307 109.878 46.8692 109.527C46.6076 109.177 46.2388 108.922 45.8188 108.8C45.3989 108.679 44.9507 108.698 44.5425 108.854C44.1343 109.011 43.7884 109.296 43.5573 109.667C42.9164 109.272 42.1786 109.062 41.4257 109.061C41.1646 109.064 40.9044 109.09 40.6477 109.138C40.4713 108.759 40.1944 108.434 39.8468 108.201C39.4993 107.967 39.0944 107.833 38.6761 107.813C38.2578 107.793 37.842 107.888 37.4737 108.087C37.1055 108.286 36.7988 108.583 36.5869 108.944C35.214 107.944 33.542 107.441 31.8455 107.518C30.1491 107.594 28.529 108.245 27.2515 109.364C26.9696 109.2 26.6551 109.099 26.3301 109.069C26.0052 109.039 25.6776 109.081 25.3706 109.192C25.0636 109.302 24.7845 109.479 24.553 109.709C24.3215 109.939 24.1433 110.217 24.0308 110.523C23.3812 110.283 22.688 110.183 21.9971 110.231C21.3062 110.278 20.6331 110.471 20.0223 110.798C19.4115 111.124 18.8767 111.576 18.4534 112.124C18.03 112.672 17.7276 113.304 17.566 113.977C17.3583 113.937 17.1474 113.916 16.9359 113.915C16.0356 113.915 15.1721 114.272 14.5347 114.908C13.8974 115.544 13.5383 116.407 13.5363 117.307C13.54 117.673 13.6058 118.036 13.7307 118.38H51.5001Z" fill="#6BC62A"/>
<path d="M52.4726 117.797H12.9684V120.986H52.4726V117.797Z" fill="#B47D4F"/>
<path d="M51.3368 120.986H14.1042L16.547 129.513H48.8941L51.3368 120.986Z" fill="#D49C6B"/>
<path d="M127.91 114.413C128.393 112.585 127.49 110.367 125.219 110.111C125.056 109.413 124.657 108.793 124.09 108.355C123.524 107.917 122.823 107.688 122.107 107.707C121.378 107.686 120.663 107.917 120.084 108.36C119.78 107.896 119.362 107.516 118.872 107.257C118.381 106.997 117.832 106.866 117.277 106.875C116.722 106.884 116.178 107.034 115.696 107.31C115.215 107.586 114.811 107.979 114.522 108.454C113.282 107.762 111.869 107.44 110.451 107.527C109.034 107.614 107.671 108.106 106.524 108.944C106.323 108.598 106.035 108.312 105.688 108.112C105.341 107.913 104.948 107.808 104.548 107.808C104.111 107.812 103.684 107.939 103.315 108.174C102.947 108.41 102.652 108.744 102.464 109.138C102.207 109.09 101.947 109.064 101.686 109.061C100.933 109.061 100.194 109.271 99.554 109.667C99.3229 109.296 98.977 109.011 98.5688 108.854C98.1606 108.698 97.7125 108.679 97.2925 108.8C96.8725 108.922 96.5037 109.177 96.2421 109.527C95.9806 109.878 95.8405 110.304 95.8432 110.741V110.795C94.9727 110.832 94.126 111.09 93.384 111.547C92.642 112.004 92.0295 112.643 91.605 113.404C91.1805 114.165 90.9581 115.022 90.9592 115.893C90.9603 116.764 91.1848 117.621 91.6112 118.38H129.404C129.526 118.036 129.589 117.673 129.591 117.307C129.585 116.72 129.427 116.145 129.132 115.638C128.838 115.131 128.417 114.709 127.91 114.413Z" fill="#6BC62A"/>
<path d="M129.871 117.797H90.3665V120.986H129.871V117.797Z" fill="#B47D4F"/>
<path d="M128.727 120.986H91.5022L93.9372 129.513H126.292L128.727 120.986Z" fill="#D49C6B"/>
</g>
<defs>
<clipPath id="clip0">
<rect width="142.839" height="133.48" fill="white"/>
</clipPath>
</defs>
</svg>
