<svg width="259" height="142" viewBox="0 0 259 142" fill="none" xmlns="http://www.w3.org/2000/svg">
<g clip-path="url(#clip0)">
<path d="M12.2114 133.757C14.966 131.735 20.5901 133.097 24.743 134.563C25.3586 133.683 26.1203 132.782 27.028 131.902C18.0859 126.119 5.73166 113.776 12.2844 112.739C17.9711 111.828 25.6507 122.934 29.7618 129.691C34.019 126.81 40.5509 124.694 50.526 125.427C76.4031 127.334 96.6247 110.57 111.525 116.165C123.378 120.608 134.23 123.101 144.706 122.253C144.257 114.573 144.153 99.4855 150.163 97.9244C156.257 96.3318 150.278 113.462 146.96 122.012C147.742 121.907 148.514 121.792 149.297 121.655C151.446 117.391 154.994 111.817 158.897 111.629C162.569 111.451 158.041 116.469 153.585 120.712C166.388 118.009 181.581 128.466 181.831 140.829H21.9465C21.9465 140.829 22.2283 139.027 23.4804 136.648C17.2824 136.512 9.21672 135.957 12.2114 133.757Z" fill="#A8D29F"/>
<path d="M146.928 131.263H189.062V140.818H146.928V131.263Z" fill="#4A75CB"/>
<path d="M159.929 131.263H202.063V140.818H159.929V131.263Z" fill="#699DEE"/>
<path d="M130.354 140.819H98.9778V96.7826H130.354V140.819Z" fill="#D86713"/>
<path d="M140.03 140.819H108.654V96.7826H140.03V140.819Z" fill="#F1A34F"/>
<path d="M108.645 96.7821L98.9724 103.393V96.7821H108.645Z" fill="#C95C12"/>
<path d="M203.419 106.537C203.419 106.537 209.284 110.916 210.431 110.654C211.579 110.392 206.143 105.929 206.143 105.929C208.188 104.944 214.542 105.562 214.542 105.562C214.542 105.562 216.661 112.414 217.704 111.88C218.747 111.335 215.523 105.908 215.523 105.908C217.798 105.772 220.594 107.469 220.594 107.469C224.413 110.497 220.344 115.275 220.344 115.275C220.344 115.275 221.126 117.632 223.547 119.78C223.547 119.78 226.99 122.336 227.23 126.915L226.604 126.967C226.604 126.967 225.613 122.703 223.808 120.691C223.735 120.618 223.641 120.513 223.505 120.388C223.213 120.115 223.005 119.906 222.869 119.759C221.972 118.889 220.73 117.789 220.135 117.684C220.135 117.684 220.166 117.569 220.156 117.381C220.146 117.475 220.135 117.58 220.135 117.684C219.926 120.094 215.273 122.2 212.403 122.64C209.534 123.07 210.421 121.886 211.412 120.136C212.403 118.386 215.523 117.601 216.243 116.783C216.953 115.977 215.481 115.977 213.749 116.762C212.017 117.559 211.788 119.665 209.012 120.995C206.237 122.326 202.073 117.705 202.073 117.705C204.285 117.59 207.437 115.18 207.322 114.447C207.207 113.713 201.969 115.715 201.072 115.819C200.174 115.914 198.14 114.793 197.827 111.178C197.503 107.542 203.419 106.537 203.419 106.537Z" fill="#82B378"/>
<path d="M234.587 109.261C234.587 109.261 228.107 105.614 231.133 100.669C231.133 100.669 233.554 97.6307 236.141 96.8554C236.141 96.8554 234.764 104.231 236.141 104.41C237.529 104.588 237.091 96.0801 237.091 96.0801C237.091 96.0801 243.915 92.7797 246.596 93.0417C246.596 93.0417 242.36 100.24 243.748 100.072C245.136 99.8938 249.883 92.6121 249.883 92.6121C249.883 92.6121 256.885 91.3129 258.001 95.4724C259.128 99.6214 257.312 101.706 256.269 101.968C255.236 102.23 248.579 102.146 248.746 103.006C248.923 103.875 253.41 105.258 255.914 104.483C255.914 104.483 253.149 111.335 249.518 110.989C245.887 110.644 244.77 108.391 242.517 108.213C240.263 108.035 238.625 108.642 239.752 109.25C240.878 109.858 244.677 109.449 246.492 111C248.308 112.55 249.779 113.504 246.409 114.195C243.038 114.887 236.986 114.457 235.776 111.848C234.587 109.261 234.587 109.261 234.587 109.261Z" fill="#A8D29F"/>
<path d="M232.854 115.589C234.67 112.205 234.586 109.25 234.586 109.25C236.652 102.66 254.808 96.7612 254.808 96.7612C231.738 106.128 235.797 111.859 235.797 111.859C235.171 112.226 234.242 113.965 233.595 115.296C233.501 115.526 233.355 115.84 233.136 116.259C233.053 116.448 232.98 116.605 232.927 116.72C231.738 119.707 232.364 124.861 232.364 124.861L231.644 125.06C230.058 119.853 232.854 115.589 232.854 115.589Z" fill="#82B378"/>
<path d="M224.278 104.231C224.278 104.231 232.823 99.4223 228.837 92.9055C228.837 92.9055 225.644 88.9031 222.232 87.8764C222.232 87.8764 224.058 97.5993 222.232 97.8298C220.406 98.0603 220.98 86.8496 220.98 86.8496C220.98 86.8496 211.986 82.5015 208.449 82.8473C208.449 82.8473 214.031 92.3397 212.205 92.1092C210.379 91.8787 204.119 82.271 204.119 82.271C204.119 82.271 194.895 80.5527 193.413 86.0428C191.931 91.5329 194.321 94.278 195.688 94.6237C197.055 94.9695 205.83 94.8542 205.6 95.9963C205.371 97.1383 199.444 98.9718 196.147 97.945C196.147 97.945 199.788 106.976 204.578 106.526C209.367 106.065 210.838 103.089 213.802 102.869C216.765 102.639 218.925 103.446 217.443 104.242C215.961 105.038 210.953 104.504 208.553 106.547C206.164 108.59 204.223 109.847 208.668 110.759C213.113 111.67 221.085 111.105 222.681 107.668C224.278 104.231 224.278 104.231 224.278 104.231Z" fill="#A8D29F"/>
<path d="M197.618 87.7612C197.618 87.7612 221.544 95.5354 224.277 104.232C224.277 104.232 224.163 108.119 226.552 112.582C226.552 112.582 230.246 118.208 228.138 125.05L227.188 124.799C227.188 124.799 228.023 118.009 226.448 114.07C226.385 113.923 226.291 113.714 226.176 113.462C225.895 112.896 225.696 112.488 225.582 112.184C224.726 110.424 223.495 108.14 222.681 107.658C222.681 107.658 228.034 100.114 197.618 87.7612Z" fill="#82B378"/>
<path d="M224.559 139.896C215.315 139.896 207.823 132.373 207.823 123.091H241.296C241.296 132.373 233.804 139.896 224.559 139.896Z" fill="#F1A34F"/>
<path d="M220.438 139.77C221.116 139.854 221.815 139.896 222.514 139.896C231.759 139.896 239.251 132.373 239.251 123.091H235.098C235.098 131.672 228.702 138.744 220.438 139.77Z" fill="#FFB973"/>
<path d="M209.659 138.744H239.459C240.597 138.744 241.525 139.676 241.525 140.818H207.593C207.593 139.676 208.522 138.744 209.659 138.744Z" fill="#F1A34F"/>
<path d="M207.698 123.101H241.588C241.734 123.101 241.849 123.216 241.849 123.363C241.849 123.51 241.734 123.625 241.588 123.625H207.698C207.551 123.625 207.437 123.51 207.437 123.363C207.437 123.216 207.562 123.101 207.698 123.101Z" fill="#D86713"/>
<path d="M80.6499 34.6098C81.1299 34.5364 82.6011 35.888 82.6011 35.888C85.721 36.2547 90.2808 37.0824 91.9294 37.3967C93.0981 37.6168 96.2284 36.5481 99.2856 35.3222C102.927 33.8554 106.464 32.1686 106.464 32.1686C108.478 32.0638 110.774 35.7623 106.684 38.1197C106.057 38.4759 103.71 39.094 101.007 39.6493C97.2718 40.4247 92.8685 41.0952 91.366 40.8542C89.6234 40.5818 84.688 38.7693 81.756 37.3863C81.756 37.3863 81.756 37.3863 81.7455 37.3863C81.7351 37.3863 81.7247 37.3758 81.7142 37.3758C81.5368 37.292 80.8169 36.9672 80.3369 36.9986C79.7839 37.03 78.5631 36.0242 78.5213 35.7518C78.49 35.4689 80.1699 34.6831 80.6499 34.6098Z" fill="#ED975D"/>
<path d="M84.4689 81.2025L86.1906 81.5483C86.1906 81.5483 94.058 72.674 95.2683 68.944C95.9153 66.9533 100.068 66.0837 104.409 64.9626C108.186 63.9778 112.099 62.8043 113.977 60.4993C117.994 55.5435 111.452 49.4667 111.452 49.4667C111.452 49.4667 104.492 53.6262 98.4821 57.9114C94.2875 60.9079 90.5521 63.9778 89.9886 65.738C88.6113 70.0232 85.7211 78.1641 84.4689 81.2025Z" fill="#2B478B"/>
<path d="M86.7645 84.1256H85.7941C85.4707 84.0732 85.2307 83.9789 84.8968 83.937C84.396 83.8741 84.156 84.0732 84.1142 84.1256C84.1038 84.1361 84.1038 84.1361 84.1038 84.1361H79.9927C79.8884 83.9894 79.9927 83.6436 80.0866 83.3922C80.1493 83.2245 80.2953 83.0883 80.4727 83.0359C80.9109 82.9102 81.7665 82.795 82.5491 82.0825C82.9873 81.6844 84.6881 80.6052 84.6881 80.6052H84.6985C84.7403 80.6052 84.9177 80.6576 85.6794 81.3177C86.0759 81.653 86.7541 80.8462 86.7541 80.8462C86.7541 80.8462 86.8793 80.951 86.9732 81.15C87.0462 81.3072 87.1088 81.5167 87.0567 81.7787C86.9941 82.1454 87.1923 82.8369 87.3488 83.3084C87.4427 83.5912 87.5262 83.7903 87.5262 83.7903C87.5262 83.7903 87.5992 84.0208 86.7645 84.1256Z" fill="#233862"/>
<path d="M98.4717 57.9114L104.398 64.9626C108.176 63.9778 112.088 62.8043 113.967 60.4993C117.984 55.5435 111.442 49.4667 111.442 49.4667C111.442 49.4667 104.482 53.6157 98.4717 57.9114Z" fill="#1E3D70"/>
<path d="M103.856 54.2232C103.856 54.2232 104.336 55.732 105.108 58.016C106.089 60.8973 107.56 64.9939 109.146 68.7972C109.49 69.6354 109.856 70.4526 110.21 71.2489C111.535 74.172 112.882 76.6866 114.081 77.9543C116.221 80.2489 121.427 94.9695 121.427 94.9695L122.721 94.6133C122.721 94.6133 124.526 82.0405 118.12 74.8845C118.047 74.8112 117.994 74.7169 117.994 74.6226C117.911 73.5644 117.608 68.8181 116.94 64.009C116.774 62.8251 116.596 61.6516 116.387 60.5096C116.377 60.4363 116.356 60.3629 116.346 60.2896C115.375 55.0509 114.436 52.725 113.236 51.5515L104.378 54.087L103.856 54.2232Z" fill="#2B478B"/>
<path d="M122.867 96.7717H121.897C121.573 96.7193 121.333 96.625 120.999 96.5831C120.498 96.5203 120.259 96.7193 120.217 96.7717C120.206 96.7822 120.206 96.7822 120.206 96.7822H116.095C115.991 96.6355 116.095 96.2898 116.189 96.0383C116.252 95.8707 116.398 95.7345 116.575 95.6821C117.013 95.5564 117.869 95.4411 118.652 94.7286C119.09 94.3305 120.791 93.2513 120.791 93.2513H120.801C120.843 93.2513 121.02 93.3037 121.782 93.9638C122.178 94.2991 122.857 93.4923 122.857 93.4923C122.857 93.4923 122.982 93.5971 123.076 93.7962C123.149 93.9533 123.211 94.1629 123.159 94.4248C123.097 94.7915 123.295 95.483 123.451 95.9545C123.545 96.2374 123.629 96.4364 123.629 96.4364C123.629 96.4364 123.702 96.6669 122.867 96.7717Z" fill="#233862"/>
<path d="M120.968 37.1138C120.968 37.1138 122.45 40.7494 124.161 44.2908C125.601 47.2663 127.197 50.179 128.209 50.7972C129.639 51.6773 133.572 54.1395 136.118 55.9835C136.118 55.9835 138.111 55.973 138.414 56.3502C138.727 56.7378 139.437 58.4561 139.228 58.6237C139.019 58.8019 137.433 58.718 137.058 58.3199C136.724 57.9742 135.972 57.7227 135.795 57.6703C135.785 57.6703 135.774 57.6598 135.764 57.6598H135.753C132.654 56.7064 127.792 54.7052 126.321 53.7308C125.058 52.8927 122.241 49.4142 120.008 46.3234C118.38 44.0812 117.055 42.0381 116.836 41.3571C115.375 36.8623 119.549 35.6784 120.968 37.1138Z" fill="#FFB27D"/>
<path d="M113.226 22.8438C113.403 22.5818 113.58 22.3618 113.758 22.1523C113.539 22.1523 113.299 22.1313 113.1 22.058C112.579 21.8379 112.339 20.1825 112.422 19.6901C112.495 19.1976 113.226 17.7727 114.112 17.6365C114.999 17.4898 115.928 18.4852 115.928 18.4852C115.761 17.7727 114.259 17.3536 114.259 17.3536C117.368 17.9299 117.201 20.0044 117.18 20.2035C120.018 19.1872 121.688 24.562 121.688 24.562L114.332 28.9206C114.332 28.9206 114.311 27.7367 113.612 27.81C112.506 27.9253 111.598 25.2221 113.226 22.8438Z" fill="#2C3A64"/>
<path d="M112.756 34.1173C114.446 34.9136 116.69 33.7611 116.679 33.7506C116.533 33.6039 116.585 33.1744 116.721 32.5981C116.857 32.0009 117.17 31.1942 117.744 30.2198C117.869 30.0102 117.984 29.8111 118.13 29.5911L117.931 29.5178L114.655 28.1976C114.655 28.1976 114.123 29.1511 113.57 30.0312C113.1 30.7541 112.61 31.4142 112.391 31.3932C112.37 31.3827 110.2 32.881 112.756 34.1173Z" fill="#FFB27D"/>
<path d="M114.645 28.533C114.728 29.7064 115.125 31.8228 116.711 32.6086C116.846 32.0114 117.159 31.2047 117.733 30.2303L114.645 28.533Z" fill="#ED975D"/>
<path d="M117.932 31.5714C117.932 31.5714 113.664 29.8846 114.749 27.2234C115.834 24.5726 116.022 22.561 118.798 23.5249C121.573 24.4888 121.677 25.7251 121.531 26.6995C121.375 27.6739 119.069 31.9381 117.932 31.5714Z" fill="#FFB27D"/>
<path d="M116.335 26.6157C114.363 26.3328 113.789 25.5365 113.789 25.5365C113.789 25.5365 115.605 25.0127 116.669 23.2315C116.669 23.2315 118.881 22.4772 120.53 23.7344C120.634 23.8602 120.697 24.0173 120.738 24.1954C121.114 24.0697 121.677 24.1011 122.011 25.1698C122.502 26.7728 120.759 28.533 120.759 28.533C120.331 28.4178 120.811 26.9824 120.884 26.2176C120.937 25.6518 120.634 24.9393 120.467 24.5936C120.258 24.866 118.182 27.4958 115.636 27.6006C115.636 27.6006 116.982 27.1291 118.203 26.2176C117.587 26.5214 116.94 26.6995 116.335 26.6157Z" fill="#2C3A64"/>
<path d="M104.617 39.597C104.649 39.4712 104.69 39.335 104.732 39.1988C104.096 37.9835 103.783 36.8834 103.657 35.9509C103.365 33.9916 103.866 32.7762 103.866 32.7762C103.866 32.7762 106.829 31.1942 108.134 30.9951C108.144 30.9951 108.144 30.9951 108.155 30.9951C108.165 30.9951 108.186 30.9951 108.207 30.9951C109.532 30.817 112.391 31.3932 112.391 31.3932C112.391 31.3932 111.838 32.8705 113.393 33.8554C114.947 34.8403 116.606 33.604 116.606 33.604C116.658 33.6354 116.711 33.6773 116.763 33.7192C116.763 33.7192 120.853 36.4328 121.229 37.051C121.594 37.6692 123.169 40.739 123.169 40.739C123.169 40.739 122.669 43.3164 117.138 43.5364C116.679 44.647 116.335 45.7262 116.22 46.6273C115.782 50.1267 116.293 52.8822 115.782 54.9253C115.271 56.9684 106.036 55.8054 104.367 55.4072C102.698 55.0091 103.073 53.2175 102.948 51.4782C102.781 49.278 104.075 41.5248 104.617 39.597Z" fill="#699DEE"/>
<path d="M103.657 35.9508C103.793 36.8833 104.106 37.9834 104.743 39.2093C104.889 38.5701 105.483 36.2127 106.433 35.1545C106.433 35.1545 104.826 35.3012 103.657 35.9508Z" fill="#4A82D3"/>
<path d="M141.231 58.8753C141.231 58.8753 139.51 56.7798 139.145 56.5388C138.779 56.2873 137.152 55.8578 137.058 55.9416C136.964 56.0254 136.964 56.1511 137.162 56.3292C137.36 56.5074 138.132 56.9579 138.018 57.0103C137.903 57.0627 135.586 55.8997 135.253 56.2873C134.919 56.675 135.44 58.2885 136.338 59.0534C137.235 59.8287 139.896 60.1535 140.063 60.2583C141.492 61.1803 141.231 58.8753 141.231 58.8753Z" fill="#ED975D"/>
<path d="M171.511 54.0451C171.511 54.0451 169.038 56.9892 165.898 55.7529C165.898 55.7529 165.219 54.108 165.209 52.8926C165.209 52.7459 165.209 52.5992 165.209 52.463C165.188 51.101 165.146 50.3361 165.146 50.3361C165.292 50.2733 169.957 48.3559 169.946 48.5131C169.863 52.2011 171.511 54.0451 171.511 54.0451Z" fill="#FFB27D"/>
<path d="M169.477 49.3932C169.028 50.2314 167.484 51.8659 165.199 52.4631C165.178 51.101 165.136 50.3362 165.136 50.3362C165.272 50.3047 169.612 49.1522 169.477 49.3932Z" fill="#ED975D"/>
<path d="M164.166 50.1999C164.166 50.1999 169.414 51.4362 170.134 48.1464C170.854 44.8565 172.012 42.7925 168.694 41.8705C165.376 40.938 164.447 42.0486 163.946 43.0963C163.425 44.1231 162.82 49.7913 164.166 50.1999Z" fill="#FFB27D"/>
<path d="M169.946 49.037C170.019 49.0789 171.146 49.4352 173.285 45.1499C173.619 44.4794 173.849 43.023 173.066 41.7448C172.284 40.4666 169.508 39.4503 167.202 39.0102C164.896 38.5702 164.343 39.8694 163.801 41.179C163.227 42.5516 161.589 43.6831 161.589 43.6831C163.571 44.7937 165.971 43.2012 166.795 43.4631C167.62 43.725 167.922 45.0347 167.985 45.4538C168.047 45.8729 168.141 46.2291 169.185 45.8519C170.228 45.4747 169.654 47.3397 169.487 47.6959C169.487 47.7064 169.352 48.6598 169.946 49.037Z" fill="#A9453D"/>
<path d="M183.459 131.263H186.641C187.309 131.263 188.05 130.582 188.238 129.346C188.425 128.099 189.792 127.428 190.084 126.412C190.377 125.396 188.864 123.96 188.864 123.96L188.613 123.625L188.352 123.279L185.838 123.876C185.838 123.876 185.775 124.484 185.733 125.259C185.702 125.825 185.692 126.464 185.723 127.041C185.796 128.392 185.347 129.859 184.168 130.121C182.979 130.393 183.459 131.263 183.459 131.263Z" fill="#2C3A64"/>
<path d="M161.348 131.295H169.769C169.852 131.274 169.915 131.263 169.946 131.242C170.51 130.949 170.332 128.728 170.27 128.036C170.259 127.91 170.249 127.837 170.249 127.837C170.249 127.837 167.285 125.385 166.878 127.261C166.868 127.324 166.847 127.376 166.837 127.428C166.325 129.178 164.019 129.974 162.694 130.205C161.672 130.383 161.411 130.991 161.348 131.295Z" fill="#2C3A64"/>
<path d="M163.039 82.3968C163.039 82.3968 163.487 88.0336 164.02 94.8019C164.74 104.001 165.606 115.306 165.689 117.443C165.835 121.163 166.43 127.103 166.43 127.103C166.43 127.103 167.838 128.518 170.645 127.921C170.645 127.921 173.15 119.434 173.869 110.445C173.88 110.298 173.89 110.151 173.901 110.004C174.569 100.858 175.602 81.611 175.602 81.611L163.039 82.3968Z" fill="#EE9849"/>
<path d="M163.039 82.3969C163.039 82.3969 163.487 88.0337 164.02 94.802L173.869 110.455C173.88 110.308 173.89 110.162 173.901 110.015C174.569 100.868 175.602 81.6216 175.602 81.6216L163.039 82.3969Z" fill="#E58638"/>
<path d="M165.094 83.0673C165.094 83.0673 173.202 103.477 178.534 113.064C183.866 122.651 185.525 125.333 185.525 125.333C185.525 125.333 188.582 124.096 188.864 123.258C188.864 123.258 186.829 104.745 183.261 100.229C181.247 97.6831 178.878 90.0242 178.763 87.3525C178.649 84.6808 178.043 79.3793 178.043 79.3793L165.094 83.0673Z" fill="#EE9849"/>
<path d="M183.657 79.6622C183.657 79.6622 183.866 82.2082 184.022 82.6064C184.179 82.994 185.201 84.2094 185.316 84.1884C185.431 84.1675 185.504 84.0732 185.441 83.8322C185.379 83.5807 185.024 82.8264 185.139 82.8369C185.253 82.8578 186.422 85.0057 186.892 84.8799C187.361 84.7542 187.82 83.235 187.539 82.1558C187.257 81.0767 185.379 79.3793 185.306 79.2117C184.7 77.7448 183.657 79.6622 183.657 79.6622Z" fill="#ED975D"/>
<path d="M184.523 80.3118C183.626 80.6052 183.48 80.5318 183.48 80.5318C183.48 80.5318 179.108 72.5481 178.669 71.8147C178.231 71.0813 169.393 62.8566 169.393 62.8566L171.658 54.3595C171.658 54.3595 181.706 67.4142 182.781 69.2897C184.575 72.391 185.619 79.5784 185.619 79.5784C185.619 79.5784 185.233 80.0813 184.523 80.3118Z" fill="#1E3D70"/>
<path d="M161.328 66.1989C161.359 67.9486 161.463 69.9078 161.599 71.8985C161.609 72.0138 161.62 72.1395 161.62 72.2547C161.703 73.4911 161.797 74.7274 161.912 75.9323C161.954 76.4142 162.006 76.8962 162.048 77.3677L162.058 77.4305C162.058 77.6086 162.079 77.7972 162.1 77.9753C162.538 82.4911 163.007 86.0638 163.091 86.1162C163.195 86.1895 163.31 86.221 163.435 86.2C164.614 86.0533 168.141 86.3153 171.021 85.6866C173.452 85.1733 175.549 84.1989 177.772 82.8787C178.064 82.7006 178.742 82.2396 178.68 81.8939C178.628 81.5167 178.523 80.9614 178.398 80.2699C177.96 77.8706 177.209 73.732 176.948 68.8915C176.896 67.9905 176.822 67.0999 176.729 66.2198C176.478 63.9358 176.082 61.7774 175.549 59.8496C174.558 56.2769 173.108 53.5423 171.282 52.4736C171.042 52.3374 169.758 53.1546 168.59 53.9195C167.505 54.6214 166.357 54.81 165.251 54.7157L164.27 55.8054C163.08 57.1884 161.818 59.0324 161.474 61.6517C161.453 61.8403 161.421 62.0499 161.411 62.2699C161.328 63.3386 161.307 64.6901 161.328 66.1989Z" fill="#2A4E96"/>
<path d="M161.328 66.1987C161.359 67.9484 161.463 69.9077 161.599 71.8984C161.609 72.0136 161.62 72.1394 161.62 72.2546C168.36 68.0218 169.404 60.2686 169.404 60.2686C166.086 60.4152 163.456 61.1801 161.422 62.2697C161.328 63.3384 161.307 64.69 161.328 66.1987Z" fill="#1E3D70"/>
<path d="M140.208 59.0847C140.553 58.1418 141.095 58.2046 141.095 58.2046C141.095 58.2046 151.123 60.7087 152.02 60.824C152.917 60.9287 162.809 56.9474 162.809 56.9474C162.809 56.9474 166.701 55.1977 168.527 56.7902C170.113 58.1837 170.186 59.9439 169.81 61.4316C169.372 63.1918 167.88 64.5015 166.085 64.732C162.047 65.2454 153.992 66.2198 152.312 65.9788C148.556 65.4549 140.041 60.5201 140.041 60.5201C140.041 60.5201 139.937 59.8286 140.208 59.0847Z" fill="#2A4E96"/>
<path d="M41.3856 77.5353C41.3856 77.5353 39.9978 78.8345 40.2691 79.7565C40.5404 80.6785 41.7925 81.2862 41.9699 82.4178C42.1473 83.5493 42.8151 84.157 43.4307 84.157C44.0464 84.157 46.3419 84.157 46.3419 84.157C46.3419 84.157 46.7906 83.3607 45.7054 83.1302C44.6203 82.8893 44.2133 81.5691 44.2759 80.3433C44.349 79.1174 44.1716 77.4829 44.1716 77.4829L41.8656 76.9381L41.3856 77.5353Z" fill="#2C3A64"/>
<path d="M58.7378 83.9895C58.8839 84.0628 59.3743 84.1047 60.0525 84.1466H66.647C66.6261 83.9476 66.4696 83.2456 65.3949 83.0779C64.174 82.8789 62.0663 82.1664 61.5968 80.6053C61.5759 80.5529 61.5655 80.5005 61.5551 80.4481C61.1794 78.7822 58.4665 80.9615 58.4665 80.9615C58.4665 80.9615 58.4561 81.0244 58.4456 81.1396C58.383 81.7578 58.2265 83.738 58.7378 83.9895Z" fill="#2C3A64"/>
<path d="M65.0713 39.3036C65.0713 39.3036 64.6539 44.4689 64.1739 50.682C63.5166 59.1267 62.7236 69.4887 62.6401 71.4585C62.5045 74.8741 61.9619 80.3223 61.9619 80.3223C61.9619 80.3223 60.668 81.6214 58.0908 81.0766C58.0908 81.0766 55.7953 73.292 55.1379 65.0464C55.1275 64.9101 55.117 64.7739 55.1066 64.6377C54.491 56.2454 53.5415 38.5807 53.5415 38.5807L65.0713 39.3036Z" fill="#35488B"/>
<path d="M65.0713 39.3036C65.0713 39.3036 64.6539 44.4689 64.1739 50.682L55.1379 65.0464C55.1275 64.9102 55.117 64.774 55.1066 64.6378C54.491 56.2454 53.5415 38.5807 53.5415 38.5807L65.0713 39.3036Z" fill="#2C3A64"/>
<path d="M63.1931 39.9113C63.1931 39.9113 55.7534 58.6343 50.8702 67.4352C45.9765 76.2362 44.453 78.6879 44.453 78.6879C44.453 78.6879 41.6462 77.5668 41.3958 76.7915C41.3958 76.7915 43.2635 59.8077 46.5399 55.6692C48.3868 53.3327 50.5676 46.3129 50.6615 43.8508C50.7658 41.3991 51.3188 36.5376 51.3188 36.5376L63.1931 39.9113Z" fill="#35488B"/>
<path d="M86.1279 29.759C86.1279 29.759 88.1417 29.298 88.486 29.3189C88.8303 29.3399 90.0094 29.8428 90.0303 29.9371C90.0512 30.0314 89.9886 30.1152 89.7799 30.1257C89.5712 30.1362 88.9034 30.0523 88.9451 30.1362C88.9869 30.22 90.9381 30.5972 90.9589 30.9953C90.9798 31.3934 89.9155 32.1164 89.0182 32.1687C88.1208 32.2211 86.347 31.1629 86.1905 31.1525C84.8966 31.0372 86.1279 29.759 86.1279 29.759Z" fill="#FFB27D"/>
<path d="M86.9937 30.2723C87.2859 29.3503 87.2128 29.2036 87.2128 29.2036C87.2128 29.2036 79.0324 24.7612 78.2915 24.3107C77.5403 23.8602 69.0885 14.8287 69.0885 14.8287L60.4281 17.2176C60.4281 17.2176 73.8257 27.4644 75.7456 28.5645C78.9176 30.3875 86.2633 31.4248 86.2633 31.4248C86.2633 31.4248 86.7642 31.0057 86.9937 30.2723Z" fill="#E58638"/>
<path d="M66.4698 10.4387C66.4698 10.4387 69.5062 15.8031 72.4695 16.505C72.4695 16.505 72.3443 14.7029 71.6243 13.4771C71.9165 13.1313 72.1774 12.8065 72.4069 12.5132C73.1582 11.5493 73.5129 10.9625 73.5129 10.9625L72.5113 8.24891L71.833 6.40491C71.5096 7.00211 71.1444 7.5155 70.7687 7.94507C68.8071 10.1872 66.4698 10.4387 66.4698 10.4387Z" fill="#FFB27D"/>
<path d="M70.7478 7.945C70.7478 7.945 70.3826 10.6272 72.4069 12.5131C73.1582 11.5492 73.5129 10.9625 73.5129 10.9625L72.5112 8.24884C71.4156 7.91357 70.7478 7.945 70.7478 7.945Z" fill="#ED975D"/>
<path d="M74.3057 11.3606C74.3057 11.3606 69.7667 9.58992 70.9145 6.77152C72.0623 3.95313 72.2397 1.82623 75.1927 2.84253C78.1352 3.85883 78.2604 5.15802 78.1039 6.19527C77.9473 7.22205 75.5161 11.7482 74.3057 11.3606Z" fill="#FFB27D"/>
<path d="M50.8808 37.9521C52.7068 40.5924 66.3862 44.1233 66.2192 42.2897C66.1566 41.5878 66.0731 40.3619 66.2192 38.6855C66.2505 38.2979 66.3027 37.8788 66.3653 37.4387C66.7096 35.0394 67.5339 31.9486 69.3808 28.3759C69.5164 28.1035 69.6625 27.8415 69.8086 27.5691C70.5703 26.1861 71.2172 24.7193 71.7076 23.2944C72.6572 20.5493 73.0328 17.9195 72.5633 16.1908C72.5633 16.1803 72.5633 16.1698 72.5528 16.1698C69.6938 14.8392 68.5878 9.69482 68.5878 9.69482C68.5878 9.69482 58.8317 11.455 53.3746 24.5097C53.3746 24.4993 49.2844 35.6576 50.8808 37.9521Z" fill="#EE9849"/>
<path d="M66.2298 38.6856C66.2611 38.2979 66.3133 37.8788 66.3759 37.4388C66.7202 35.0395 67.5445 31.9487 69.3914 28.3759C69.0783 26.4481 68.6401 24.8555 68.1601 24.1326C66.2194 21.2094 65.0821 20.7484 65.0821 20.7484C65.0821 20.7484 62.1605 33.1012 66.2298 38.6856Z" fill="#E58638"/>
<path d="M81.5993 35.7518C81.5993 35.7518 84.3018 35.8985 84.7192 36.0452C85.1366 36.1919 86.4513 37.2501 86.4409 37.3758C86.4304 37.5015 86.3261 37.5854 86.0652 37.5225C85.8044 37.4701 84.9905 37.1139 85.0113 37.2291C85.0322 37.3444 87.3382 38.5283 87.2339 39.0312C87.1191 39.5341 85.5226 40.0685 84.3748 39.8065C83.2271 39.5446 81.3802 37.5854 81.1923 37.5225C79.5959 36.9148 81.5993 35.7518 81.5993 35.7518Z" fill="#FFB27D"/>
<path d="M82.1106 36.7785C82.6532 35.8985 82.2567 35.5003 82.2567 35.5003C82.2567 35.5003 73.9197 28.952 73.2728 28.2815C72.6154 27.6214 69.5895 17.0812 69.5895 17.0812C69.5895 17.0812 68.5461 12.8169 66.1045 12.3455C63.9863 11.9369 62.5151 12.9846 61.5656 14.2209C60.4282 15.6877 60.3134 17.7203 61.263 19.3234C63.3916 22.9275 67.68 30.0731 68.9321 31.2884C71.7181 34.0021 81.0568 37.8053 81.0568 37.8053C81.0568 37.8053 81.6828 37.4701 82.1106 36.7785Z" fill="#EE9849"/>
<path d="M70.2574 1.53292C70.2261 1.47006 70.1321 1.40719 69.913 1.33385C69.913 1.33385 70.1217 1.26051 70.3721 1.3129C70.4973 0.998576 70.8104 0.474711 71.3843 0.464233C71.3843 0.464233 71.0504 0.548052 70.9251 0.883326C71.7182 0.380415 73.1998 0.233733 76.8727 1.45958C81.7352 3.08356 79.304 5.91244 78.5735 6.14294C77.8431 6.37344 76.4867 4.91709 75.2659 4.71802C74.045 4.51895 73.3877 6.22675 72.9286 6.36296C72.4694 6.49916 72.7303 6.12198 72.2399 5.72384C71.7495 5.33618 71.4782 6.24771 71.4886 6.88683C71.499 7.52594 70.5495 8.13363 70.5495 8.13363C70.5495 8.13363 70.5495 8.13363 69.9965 7.10685C69.4435 6.08007 69.5895 2.3711 70.1217 1.70056C70.1634 1.64817 70.2156 1.58531 70.2574 1.53292Z" fill="#2B478B"/>
<path d="M146.928 131.158V136.669L159.919 131.158H146.928Z" fill="#4271BC"/>
<path d="M35.7304 84.1466H78.6987V140.818H35.7304V84.1466Z" fill="#4A75CB"/>
<path d="M48.9818 84.1466H91.9502V140.818H48.9818V84.1466Z" fill="#699DEE"/>
<path d="M35.7303 84.1466V92.6227L48.9819 84.1466H35.7303Z" fill="#4271BC"/>
</g>
<defs>
<clipPath id="clip0">
<rect width="258.092" height="141.297" fill="white" transform="matrix(-1 0 0 1 258.356 0.464233)"/>
</clipPath>
</defs>
</svg>
