<svg width="27" height="33" viewBox="0 0 27 33" fill="none" xmlns="http://www.w3.org/2000/svg">
<path d="M23.1062 12.1875H22.0059V8.125C22.0059 3.64406 18.058 0 13.2035 0C8.34902 0 4.40117 3.64406 4.40117 8.125V12.1875H3.30088C1.48173 12.1875 0 13.5539 0 15.2344V29.4531C0 31.1336 1.48173 32.5 3.30088 32.5H23.1062C24.9253 32.5 26.407 31.1336 26.407 29.4531V15.2344C26.407 13.5539 24.9253 12.1875 23.1062 12.1875ZM7.33529 8.125C7.33529 5.13771 9.96719 2.70833 13.2035 2.70833C16.4398 2.70833 19.0717 5.13771 19.0717 8.125V12.1875H7.33529V8.125ZM14.6706 22.6444V25.7292C14.6706 26.4767 14.0148 27.0833 13.2035 27.0833C12.3922 27.0833 11.7365 26.4767 11.7365 25.7292V22.6444C10.8636 22.1745 10.2694 21.3105 10.2694 20.3125C10.2694 18.8189 11.5854 17.6042 13.2035 17.6042C14.8217 17.6042 16.1376 18.8189 16.1376 20.3125C16.1376 21.3105 15.5435 22.1745 14.6706 22.6444Z" fill="white"/>
</svg>
