<svg width="198" height="95" viewBox="0 0 198 95" fill="none" xmlns="http://www.w3.org/2000/svg">
<g clip-path="url(#clip0)">
<path d="M130.122 22.0001C130.122 22.0001 134.294 20.8124 136.794 20.8124C139.295 20.8124 138.876 23.9047 138.954 27.5368C139.032 31.1689 130.122 22.0001 130.122 22.0001Z" fill="url(#paint0_linear)"/>
<path d="M130.999 22.527C130.999 22.527 135.166 21.335 137.667 21.335C137.853 21.3345 138.039 21.3577 138.22 21.4041C138.045 21.2002 137.825 21.0398 137.578 20.9355C137.331 20.8313 137.062 20.7862 136.794 20.8038C134.294 20.8038 130.122 21.9914 130.122 21.9914C130.122 21.9914 134.644 26.6644 137.209 28.0378C134.609 26.2584 130.999 22.527 130.999 22.527Z" fill="#7C2C00"/>
<path d="M11.6175 38.9212C11.6175 38.9212 3.22172 34.4685 2.16361 35.8203C1.1055 37.1721 0.00419781 46.3755 0.712484 50.5863C2.28885 49.105 11.6175 38.9212 11.6175 38.9212Z" fill="black"/>
<path d="M76.2097 42.7304C76.2097 42.7304 67.801 38.2777 66.7429 39.6251C65.6848 40.9726 51.7177 41.2749 52.7888 69.425C54.3738 67.9436 76.2097 42.7304 76.2097 42.7304Z" fill="black"/>
<path d="M12.1401 36.8093H5.99878L6.04197 68.0214H12.1401C14.9647 68.0214 17.2623 61.0335 17.2623 52.4089C17.2623 43.7842 14.9647 36.8093 12.1401 36.8093Z" fill="black"/>
<path d="M10.9221 52.4218C10.9221 61.0594 8.62885 68.0343 5.80002 68.0343C2.97119 68.0343 0.673584 61.0465 0.673584 52.4218C0.673584 43.7971 2.97983 36.8093 5.80002 36.8093C8.62021 36.8093 10.9221 43.8014 10.9221 52.4218Z" fill="#232323"/>
<path d="M2.16357 52.4261C2.16357 59.6774 3.93861 65.5553 6.13257 65.5553C8.32653 65.5553 10.1102 59.6774 10.1102 52.4261C10.1102 45.1748 8.33085 39.2753 6.13257 39.2753C3.93429 39.2753 2.16357 45.1705 2.16357 52.4261Z" fill="url(#paint1_linear)"/>
<path d="M9.64385 52.7846C9.64385 57.8592 8.40002 61.9707 6.86684 61.9707C5.33366 61.9707 4.08984 57.8592 4.08984 52.7846C4.08984 47.71 5.33366 43.5941 6.86684 43.5941C8.40002 43.5941 9.64385 47.7143 9.64385 52.7846Z" fill="url(#paint2_radial)"/>
<path d="M82.8997 43.9742L68.0127 43.9957L68.1077 94.8585H82.8997C89.7623 94.8585 95.3249 83.4698 95.3249 69.4163C95.3249 55.3629 89.7623 43.9742 82.8997 43.9742Z" fill="black"/>
<path d="M79.9542 69.4163C79.9542 83.4698 74.3915 94.8585 67.5246 94.8585C60.6577 94.8585 55.0994 83.4698 55.0994 69.4163C55.0994 55.3629 60.662 43.9742 67.5246 43.9742C74.3872 43.9742 79.9542 55.3629 79.9542 69.4163Z" fill="#232323"/>
<path d="M58.6929 69.4164C58.6929 81.237 63.0117 90.8161 68.3282 90.8161C73.6446 90.8161 77.9678 81.237 77.9678 69.4164C77.9678 57.5958 73.6489 48.021 68.3282 48.021C63.0074 48.021 58.6929 57.6001 58.6929 69.4164Z" fill="url(#paint3_linear)"/>
<path d="M76.8533 70.008C76.8533 78.2742 73.8301 84.9771 70.1159 84.9771C66.4018 84.9771 63.3743 78.2742 63.3743 70.008C63.3743 61.7418 66.3974 55.0433 70.1159 55.0433C73.8345 55.0433 76.8533 61.7332 76.8533 70.008Z" fill="url(#paint4_radial)"/>
<path d="M158.747 39.7072L143.886 40.5969L146.939 91.3689L161.71 90.5051C168.555 90.1078 173.452 78.4124 172.632 64.3806C171.811 50.3487 165.601 39.3098 158.747 39.7072Z" fill="black"/>
<path d="M157.283 65.279C158.103 79.3065 153.21 91.0062 146.356 91.4035C139.502 91.8008 133.291 80.736 132.475 66.7258C131.659 52.7155 136.548 40.9986 143.402 40.6012C150.256 40.2039 156.471 51.2514 157.283 65.279Z" fill="#232323"/>
<path d="M136.069 66.5185C136.755 78.3175 141.614 87.6461 146.935 87.3179C152.256 86.9897 156.004 77.1946 155.313 65.3956C154.622 53.5966 149.759 44.2852 144.447 44.5961C139.135 44.9071 135.382 54.7195 136.069 66.5185Z" fill="url(#paint5_linear)"/>
<path d="M154.225 66.0519C154.709 74.3052 152.087 81.1678 148.369 81.3837C144.65 81.5997 141.252 75.0869 140.768 66.8336C140.284 58.5804 142.927 51.7178 146.628 51.5018C150.33 51.2859 153.746 57.803 154.225 66.0519Z" fill="url(#paint6_radial)"/>
<path d="M0.0690675 57.1726C0.0690675 57.1726 -0.0907288 39.2322 0.0690675 33.1945C0.228864 27.1568 3.09224 22.5572 7.37651 21.9224C11.6608 21.2875 14.9949 15.2541 18.3334 11.2851C21.6718 7.3161 24.7079 0.0302525 53.6138 0.00433955C90.3022 -0.0345298 102.118 2.85908 107.016 4.85438C113.844 7.63138 130.078 19.7802 138.543 25.6149C141.044 26.9106 160.137 29.07 169.509 31.2899C178.881 33.5097 190.153 40.0225 190.153 40.0225C190.153 40.0225 192.611 47.8828 193.09 51.6833C193.405 52.7155 197.258 55.1384 197.374 56.434C197.491 57.7297 198.329 71.2001 197.374 72.4137C196.42 73.6273 194.995 74.5731 194.995 75.9853C194.995 77.3976 196.722 78.9221 195.63 81.2284C194.537 83.5346 179.395 86.9422 162.483 88.8468C145.57 90.7514 110.19 93.4982 89.3563 90.2806C86.9723 89.8056 87.9268 86.3505 87.4474 81.3493C86.968 76.3481 85.6637 49.5498 71.5283 42.4065C64.5447 39.5475 57.708 42.7261 56.4469 62.4156C56.2871 68.7643 56.7622 79.4059 56.7622 79.4059L13.574 65.8275C13.574 65.8275 11.6651 55.8251 10.5508 49.7096C9.43658 43.5942 6.71573 36.3947 3.36433 36.5718C0.0129215 36.7489 1.45973 57.8463 1.45973 57.8463L0.0690675 57.1726Z" fill="url(#paint7_linear)"/>
<path d="M101.38 84.9641C101.38 84.9641 123.449 89.2484 168.866 84.3249C187.601 81.6256 194.865 79.0862 194.865 79.0862C194.33 78.3813 193.947 77.5723 193.743 76.7111C193.538 75.8498 193.516 74.9554 193.677 74.085C188.793 75.0395 156.043 79.6995 135.321 79.8031C114.6 79.9068 110.67 80.3386 108.523 80.3905C106.377 80.4423 98.6806 84.5495 101.38 84.9641Z" fill="black"/>
<path d="M193.677 74.085C193.284 74.1627 192.706 74.2621 191.971 74.383C192.145 75.4207 192.565 76.4014 193.198 77.242C193.198 77.242 185.938 79.7858 167.199 82.4851C129.759 86.5405 108.186 84.3422 101.764 83.4439C100.788 84.1867 100.408 84.8129 101.38 84.9641C101.38 84.9641 123.449 89.2484 168.866 84.3249C187.601 81.6256 194.865 79.0862 194.865 79.0862C194.33 78.3813 193.947 77.5723 193.743 76.7111C193.538 75.8498 193.516 74.9554 193.677 74.085Z" fill="url(#paint8_linear)"/>
<path d="M193.557 51.7567C193.081 50.9404 192.693 49.3597 192.356 47.982C191.004 47.7186 188.517 47.2824 184.863 46.8721C186.672 50.5949 188.793 57.0559 191.294 56.8874C193.277 56.6981 195.248 56.3982 197.197 55.9891C196.463 54.633 193.842 52.6636 193.557 51.7567Z" fill="url(#paint9_linear)"/>
<path d="M130.2 45.8831C130.2 45.8831 138.617 53.3633 141.156 58.3645C143.061 61.3876 132.661 60.5239 124.481 60.5887C116.302 60.6534 99.117 57.9974 96.4954 57.5309C93.8739 57.0645 90.7989 47.1312 92.0514 43.8403C93.3038 40.5493 130.2 45.8831 130.2 45.8831Z" fill="url(#paint10_linear)"/>
<path d="M88.0607 72.2409C88.0607 72.2409 95.3638 76.3869 106.8 76.7065C118.236 77.0261 143.773 75.7521 143.773 75.7521C143.773 75.7521 119.476 71.9429 110.108 71.3037C100.741 70.6645 86.6052 63.3657 86.6052 63.3657L88.0607 72.2409Z" fill="url(#paint11_linear)"/>
<path d="M103.362 24.4229C98.1453 24.3624 88.1818 24.6259 79.7212 24.898L126.688 37.1807C129.88 35.4532 151.409 35.885 163.467 35.4186C165.437 35.3452 167.203 35.3193 168.78 35.3365L131.167 25.1787C121.916 24.5913 112.389 24.5309 103.362 24.4229Z" fill="url(#paint12_linear)"/>
<path d="M138.258 25.7142C137.105 25.6235 132.333 25.2521 131.167 25.1787L168.779 35.3366C175.81 35.397 182.483 36.0492 183.265 36.4551C168.779 28.8281 149.332 29.2254 138.258 25.7142Z" fill="url(#paint13_linear)"/>
<path d="M126.468 37.3232C126.536 37.2684 126.61 37.2206 126.688 37.1807L79.7211 24.8979L78.8228 24.9239L116.781 37.6471C120.014 37.7548 123.25 37.6466 126.468 37.3232Z" fill="url(#paint14_linear)"/>
<path d="M97.7262 40.5018C103.634 41.4658 109.604 41.9955 115.589 42.0868C126.23 42.3287 130.834 44.5485 132.104 47.4076C133.374 50.2667 131.469 53.8383 118.608 53.523C105.746 53.2078 100.188 52.8061 96.7761 52.331C93.3642 51.856 91.7706 45.9003 92.0901 42.8037C92.4097 39.7071 94.7376 40.044 97.7262 40.5018Z" fill="url(#paint15_linear)"/>
<path d="M97.726 40.5018C94.7374 40.044 92.4096 39.7071 92.09 42.8037C91.7704 45.9003 93.3597 51.8733 96.7759 52.331C97.8383 52.4779 99.1124 52.6204 100.749 52.7629C99.0908 49.0142 98.4862 44.8249 98.1579 40.5839L97.726 40.5018Z" fill="url(#paint16_linear)"/>
<path d="M121.864 45.7536C115.541 43.4948 108.368 46.3755 107.638 53.1776C110.557 53.3029 114.138 53.4238 118.608 53.5361C123.19 53.6484 126.382 53.264 128.541 52.5989C127.034 49.485 125.203 46.7728 121.864 45.7536Z" fill="url(#paint17_linear)"/>
<path d="M120.158 42.3417C118.776 42.2121 117.26 42.1258 115.589 42.0869C109.749 41.9852 103.924 41.4801 98.1538 40.5753C98.4864 44.8164 99.091 49.0056 100.745 52.7544L101.086 52.7803C103.755 44.7214 112.246 42.5274 120.158 42.3417Z" fill="url(#paint18_linear)"/>
<path d="M132.113 47.4076C131.042 44.9977 127.6 43.0413 120.167 42.3417C112.238 42.5274 103.755 44.7213 101.099 52.7803C102.827 52.9141 104.952 53.0437 107.647 53.1646C108.377 46.3625 115.55 43.4818 121.873 45.7406C125.229 46.7728 127.055 49.485 128.532 52.5859C132.419 51.368 132.925 49.2475 132.113 47.4076Z" fill="url(#paint19_linear)"/>
<path d="M132.113 47.4076C131.655 46.3711 130.752 45.421 129.284 44.6134C129.666 45.0138 129.978 45.4751 130.208 45.9781C131.478 48.8372 129.573 52.4088 116.712 52.0936C103.85 51.7783 98.292 51.3766 94.8758 50.9016C94.679 50.872 94.4852 50.8242 94.2971 50.7591C94.8911 51.5858 95.7831 52.1494 96.7848 52.3311C100.197 52.8062 105.755 53.1949 118.616 53.5231C131.478 53.8513 133.374 50.2667 132.113 47.4076Z" fill="url(#paint20_linear)"/>
<path d="M190.698 51.1391C191.547 50.7644 192.236 50.1022 192.645 49.269C191.95 46.0342 190.741 41.9832 190.305 40.5536C189.484 40.1218 188.188 39.6424 186.888 40.2038C185.536 40.8614 184.464 41.9813 183.865 43.3609C183.865 43.3609 184.979 50.3444 185.774 51.1348C186.569 51.9251 189.428 51.6962 190.698 51.1391Z" fill="url(#paint21_linear)"/>
<path d="M183.938 43.8748C184.211 45.503 185.096 50.4783 185.761 51.1391C186.426 51.7999 188.784 51.7351 190.188 51.3162C189.523 47.8136 187.437 44.2635 183.938 43.8748Z" fill="url(#paint22_linear)"/>
<path d="M184.902 41.7198C184.479 42.213 184.131 42.766 183.869 43.3609C183.869 43.3609 183.9 43.5509 183.956 43.8748C187.437 44.2635 189.523 47.8136 190.205 51.3162C190.373 51.2672 190.537 51.2081 190.697 51.1391C190.866 51.0647 191.029 50.9781 191.185 50.88C191.16 50.2192 191.095 49.5584 191.013 48.8976C190.158 45.6024 188.529 42.7822 184.902 41.7198Z" fill="url(#paint23_linear)"/>
<path d="M191.013 48.8976C190.65 45.9997 189.838 43.1018 189.531 40.2038C188.684 39.8618 187.736 39.8618 186.888 40.2038C186.119 40.5506 185.439 41.0692 184.902 41.7197C188.529 42.7822 190.158 45.6024 191.013 48.8976Z" fill="url(#paint24_linear)"/>
<path d="M192.645 49.269C191.95 46.0342 190.741 41.9832 190.305 40.5537C190.056 40.4169 189.798 40.2999 189.531 40.2038C189.912 43.7625 191.056 47.3213 191.186 50.88C191.816 50.4939 192.323 49.9347 192.645 49.269Z" fill="url(#paint25_linear)"/>
<path d="M190.697 49.9558C189.428 50.5129 186.569 50.7504 185.778 49.9558C185.156 49.3382 184.344 44.946 184.016 43.0457C183.962 43.1481 183.913 43.2533 183.869 43.3609C183.869 43.3609 184.984 50.3445 185.778 51.1348C186.573 51.9252 189.428 51.692 190.697 51.1348C191.547 50.7601 192.236 50.0979 192.645 49.2648C192.602 49.0546 192.555 48.8387 192.503 48.617C192.052 49.237 191.422 49.7041 190.697 49.9558Z" fill="url(#paint26_linear)"/>
<path d="M12.4814 22.6996L27.5973 23.4511C29.5626 17.0025 32.2243 10.787 35.5353 4.91473C32.754 5.23001 26.6817 6.422 21.741 11.6607C18.4721 15.1835 15.3817 18.8677 12.4814 22.6996Z" fill="white"/>
<path d="M38.9729 4.63404C38.9729 4.63404 33.9717 14.1614 31.2725 23.7707C32.9698 23.8355 52.7888 25.3169 52.7888 25.3169C52.7888 25.3169 50.0896 10.0714 48.9019 7.21669C47.7142 4.36195 44.8724 4.19784 38.9729 4.63404Z" fill="white"/>
<path d="M52.9486 4.99253C52.9486 4.99253 56.8356 18.8127 57.6302 21.1881C58.4249 23.5634 58.8222 23.9694 64.0609 23.7319C69.2997 23.4943 128.77 23.2136 133.654 24.4056C127.224 19.7586 117.455 11.881 111.857 8.56419C106.26 5.24734 100.197 4.15899 90.8981 3.68392C81.5997 3.20885 56.7794 3.14407 54.5768 3.08793C52.3742 3.03178 52.737 4.24537 52.9486 4.99253Z" fill="white"/>
<path d="M20.9504 12.4986C17.6119 15.9018 12.4941 22.6824 12.4941 22.6824L27.4977 23.5462C29.4844 16.3769 32.1318 11.2937 35.561 4.88454C27.4977 5.96424 23.7101 9.69138 20.9504 12.4986Z" fill="#1C1C1C"/>
<path d="M47.5805 5.48918C46.2244 3.68391 42.657 4.254 39.9103 4.29287C39.6048 4.42489 39.2919 4.53882 38.9731 4.63406C35.5439 11.0432 33.1254 16.6188 31.1431 23.788L32.8404 23.8874C32.8404 23.8874 35.3237 15.8889 38.0229 12.87C40.7222 9.85119 42.7736 10.3306 42.1517 13.764C41.5298 17.1975 40.6704 24.5611 40.6704 24.5611L52.789 25.3083L52.8495 25.1009C50.6425 18.6227 50.703 9.17745 47.5805 5.48918Z" fill="#1C1C1C"/>
<path d="M116.306 11.6003C106.463 4.61246 102.917 4.97524 94.824 3.93872C88.2594 3.10087 68.7513 2.90653 54.8663 2.84606C50.2279 2.66899 54.9397 10.0844 55.9589 14.7315L56.8227 11.799C56.8227 11.799 63.37 11.9199 68.1337 11.799C68.1337 16.9211 62.5192 17.5171 59.6774 19.5383C58.9177 20.1122 58.3147 20.8682 57.924 21.7366C56.0453 25.8567 84.6273 23.5289 87.672 23.2525C86.9983 21.0499 85.7372 17.8972 85.3442 16.6836C84.61 14.4205 83.8542 12.395 79.449 11.4405C90.0474 11.6824 88.8554 12.0365 89.6889 12.991C90.5225 13.9454 95.3034 23.5289 95.3034 23.5289H104.947C104.947 23.5289 96.016 11.799 97.0871 11.0864C98.1581 10.3738 106.973 11.799 109.949 13.764C112.924 15.7291 124.041 23.9089 124.041 23.9089L133.65 24.4056C133.65 24.4056 126.148 18.5882 116.306 11.6003Z" fill="#1C1C1C"/>
<path opacity="0.5" d="M12.4814 22.717L27.5973 23.4685C29.5634 17.0201 32.225 10.8048 35.5353 4.9321C32.754 5.25169 26.6817 6.43937 21.741 11.6824C18.4716 15.2031 15.3811 18.886 12.4814 22.717Z" fill="#303030"/>
<path d="M27.9772 23.9651L11.5657 23.1488L12.1012 22.4319C12.1444 22.3715 16.5021 16.554 21.4039 11.3541C26.3058 6.15429 32.3176 4.81977 35.4919 4.44404L36.4291 4.34039L35.9713 5.15664C32.6851 10.9973 30.0396 17.176 28.0808 23.585L27.9772 23.9651ZM13.4228 22.2851L27.2689 22.9761C29.1553 16.931 31.6363 11.0879 34.6757 5.53238C29.8875 6.24539 25.4699 8.52326 22.1122 12.0106C18.2555 16.0962 14.7357 20.5748 13.4228 22.2851Z" fill="#141414"/>
<path opacity="0.5" d="M38.9385 4.6556C38.9385 4.6556 33.9373 14.157 31.238 23.788C32.9353 23.8571 52.7501 25.3341 52.7501 25.3341C52.7501 25.3341 50.0551 10.093 48.8631 7.23393C47.6712 4.37487 44.8164 4.21508 38.9385 4.6556Z" fill="#303030"/>
<path d="M53.3633 25.8567L52.75 25.8092C52.5557 25.8092 32.9223 24.3322 31.2553 24.2631L30.6506 24.2415L30.8147 23.6585C33.4967 14.1139 38.5022 4.53041 38.5541 4.43108L38.675 4.19786H38.9384C40.666 4.0683 41.8709 4.01215 42.8815 4.01215C45.9911 4.01215 48.2801 4.53041 49.3598 7.06988C50.5561 9.94189 53.169 24.6475 53.2769 25.2694L53.3633 25.8567ZM31.916 23.3432C35.2459 23.5505 49.0833 24.5784 52.2145 24.8159C51.7006 21.9612 49.4893 9.87279 48.4658 7.41539C47.7057 5.59284 46.2459 4.94502 42.8858 4.94502C41.953 4.94502 40.8301 4.99684 39.2796 5.10913C38.5152 6.59481 34.3432 14.9172 31.916 23.3432Z" fill="#141414"/>
<path opacity="0.5" d="M52.9486 5.0098C52.9486 5.0098 56.8356 18.83 57.6302 21.2097C58.4249 23.5894 58.8222 23.9867 64.0609 23.7492C69.2997 23.5116 128.77 23.2309 133.654 24.4229C127.224 19.7802 117.455 11.8983 111.857 8.58579C106.26 5.27325 100.197 4.17627 90.8981 3.7012C81.5997 3.22613 56.7794 3.16567 54.5768 3.1052C52.3742 3.04474 52.737 4.26697 52.9486 5.0098Z" fill="#303030"/>
<path d="M135.909 25.4551L133.538 24.8764C131.305 24.3322 115.675 24.0126 91.736 24.0126C78.149 24.0126 66.255 24.1206 64.0956 24.2199C63.1886 24.2631 62.4933 24.2804 61.9102 24.2804C58.4552 24.2804 57.9153 23.5203 57.1941 21.3522C56.3908 18.9769 52.6464 5.70513 52.4909 5.15663C52.3354 4.60814 52.1324 3.89554 52.5816 3.30386C52.9141 2.87198 53.5188 2.64308 54.4214 2.64308H54.5855C55.1211 2.64308 57.0473 2.66899 59.7076 2.69059C68.1639 2.75537 83.893 2.8763 90.9241 3.23908C99.8424 3.69687 106.17 4.65133 112.086 8.18845C115.831 10.417 121.316 14.576 126.623 18.5968C129.267 20.6051 131.763 22.4837 133.914 24.0515L135.909 25.4551ZM91.736 23.0538C102.01 23.0538 124.71 23.1229 131.901 23.7103C130.113 22.4146 128.139 20.8987 126.079 19.3353C120.797 15.3318 115.334 11.19 111.633 8.97015C105.867 5.53669 99.661 4.60383 90.9025 4.15467C83.9017 3.79621 68.1812 3.67528 59.7336 3.6105C57.0645 3.6105 55.1383 3.57595 54.5942 3.55867H54.4516C53.6958 3.55867 53.4497 3.73574 53.3719 3.83939C53.2078 4.05102 53.3374 4.50881 53.4281 4.83704C53.4756 4.99684 57.315 18.6918 58.114 21.0369C58.697 22.7645 58.8741 23.3086 61.9275 23.3086C62.4976 23.3086 63.18 23.3086 64.0869 23.2525C66.2247 23.1747 78.1274 23.0625 91.736 23.0625V23.0538Z" fill="#141414"/>
<path style="mix-blend-mode:multiply" d="M13.669 58.7619L54.2962 71.3814C54.2962 71.3814 53.4065 59.7638 56.3433 50.8714C38.4807 45.7536 7.33765 37.9797 7.33765 37.9797C7.33765 37.9797 11.5226 40.571 13.669 58.7619Z" fill="url(#paint27_linear)"/>
<path style="mix-blend-mode:multiply" d="M52.8494 74.383C52.8563 74.5616 52.8193 74.7391 52.7416 74.9001C52.664 75.061 52.548 75.2005 52.4039 75.3062C52.2598 75.4119 52.092 75.4807 51.9152 75.5065C51.7383 75.5323 51.5579 75.5143 51.3896 75.4541L15.8112 64.1992C15.4195 64.0522 15.0838 63.786 14.8514 63.4381C14.619 63.0902 14.5015 62.6782 14.5155 62.2601C14.5076 62.0812 14.5439 61.9031 14.6212 61.7415C14.6986 61.58 14.8146 61.4401 14.959 61.3342C15.1034 61.2282 15.2717 61.1595 15.4489 61.1342C15.6262 61.1089 15.807 61.1277 15.9753 61.189L51.5537 72.4439C51.9462 72.5898 52.2826 72.8558 52.5152 73.2039C52.7478 73.552 52.8647 73.9646 52.8494 74.383Z" fill="url(#paint28_linear)"/>
<path d="M64.9376 44.5399C59.3232 46.9801 55.0994 57.1854 55.0994 69.4163C55.0994 81.6472 59.3189 91.8526 64.9376 94.2884V44.5399Z" fill="#232323"/>
<path d="M65.5727 48.9236C61.5993 51.5624 58.7014 59.7206 58.7014 69.4164C58.7014 79.1121 61.5993 87.2747 65.5727 89.9135V48.9236Z" fill="url(#paint29_linear)"/>
<path d="M65.97 58.222C64.3893 60.9601 63.3787 65.2185 63.3787 70.008C63.3787 74.7976 64.3936 79.0776 65.97 81.7984V58.222Z" fill="url(#paint30_radial)"/>
<path d="M3.8436 38.0013C1.9865 40.3464 0.673584 45.9177 0.673584 52.4218C0.673584 58.926 1.96923 64.5145 3.8436 66.8424V38.0013Z" fill="#232323"/>
<path d="M4.03794 41.2663C2.91505 43.5855 2.16357 47.7143 2.16357 52.4261C2.16357 57.1379 2.91505 61.2624 4.03794 63.5816V41.2663Z" fill="url(#paint31_linear)"/>
<g style="mix-blend-mode:multiply" opacity="0.4">
<path d="M29.1995 25.2737C31.3114 16.0487 37.4053 4.92775 38.269 3.38593C38.5843 3.36434 38.8953 3.33842 39.2105 3.32115C47.8784 2.91518 49.2388 4.07694 50.1069 6.638C51.0441 9.38909 54.8144 27.472 54.8576 27.6534L55.3241 27.5584C55.1686 26.8112 51.5105 9.26385 50.5734 6.48253C49.5887 3.58892 47.7877 2.44443 39.2019 2.84608C31.6872 3.20022 24.6561 6.0636 20.4021 10.5033C16.8088 14.2521 10.7409 22.1642 10.6804 22.2505C6.55594 27.5109 6.50843 34.1705 8.8406 37.3362C12.9608 41.9962 14.265 58.0665 14.2823 58.2393V58.3991L14.4378 58.4466C14.6408 58.5114 34.6585 64.8039 39.3617 66.4494L40.5969 66.8812C42.6483 67.6111 44.0519 68.1035 44.9762 68.1035C45.2982 68.1187 45.6169 68.0326 45.8874 67.8573C46.2891 67.5679 46.4748 67.0453 46.4705 66.2205C46.4705 65.5726 46.4316 64.9809 46.3971 64.2943C46.2804 62.1348 46.1077 58.8353 46.4705 49.0834C46.9369 36.4595 54.2012 27.6361 54.2746 27.5497L53.9075 27.2431C53.8341 27.3338 46.4662 36.2738 45.9911 49.0661C45.6283 58.8396 45.8054 62.1349 45.9177 64.3202C45.9565 64.9982 45.9868 65.5856 45.9911 66.2205C45.9954 66.8553 45.8745 67.2786 45.611 67.4686C44.9632 67.9307 43.2918 67.3347 40.7567 66.4321L39.5215 66.0002C37.6126 65.3308 33.1858 63.9012 28.5819 62.4285C26.9537 54.754 26.9494 35.099 29.1995 25.2737ZM28.0723 62.2644C22.026 60.3253 15.7896 58.3775 14.7401 58.0406C14.5889 56.2397 13.2501 41.6032 9.2077 37.0382C6.98782 34.015 7.19944 27.4677 11.0562 22.5442C11.1166 22.4622 17.1716 14.563 20.7476 10.8316C24.6345 6.77621 30.8968 4.06399 37.7162 3.42912C36.4206 5.73537 30.7629 16.3035 28.7331 25.1701C26.5003 34.9565 26.483 54.3653 28.0723 62.2644Z" fill="#EFC243"/>
</g>
<path d="M55.1774 25.5674C55.1774 25.5674 52.3961 24.8505 51.3639 22.229C50.3317 19.6074 50.3317 17.7849 48.6646 17.3876C46.9975 16.9902 39.2193 17.2278 36.0407 17.3876C32.862 17.5474 33.8165 20.8037 33.8165 22.9459C33.8165 25.088 35.3281 25.8049 39.2971 25.5674C43.2661 25.3299 46.5225 25.1701 48.1895 25.2478C49.8566 25.3256 50.8111 27.8693 50.8111 27.8693C50.8111 27.8693 51.8389 28.9793 54.7801 28.5042C57.7212 28.0291 55.7777 25.779 55.1774 25.5674Z" fill="url(#paint32_linear)"/>
<path d="M35.2374 23.4987C35.2374 21.3393 34.2873 18.1002 37.4616 17.9447C40.3768 17.7978 47.1703 17.5862 49.5543 17.8583C49.3062 17.6232 48.9985 17.4604 48.6646 17.3876C46.9975 16.9902 39.2193 17.2278 36.0407 17.3876C32.862 17.5474 33.8165 20.8037 33.8165 22.9459C33.8165 24.3668 34.4859 25.1528 36.0882 25.4594C35.794 25.2296 35.5621 24.9297 35.4135 24.5872C35.2649 24.2448 35.2043 23.8706 35.2374 23.4987Z" fill="#F4C500"/>
<path d="M52.2145 28.4221C52.2145 28.4221 51.2601 25.8827 49.593 25.8049H49.4116C50.0168 26.3887 50.4896 27.0957 50.798 27.878C51.2356 28.2486 51.774 28.4802 52.3441 28.5431C52.2707 28.4783 52.2145 28.4221 52.2145 28.4221Z" fill="#7C2C00"/>
</g>
<defs>
<linearGradient id="paint0_linear" x1="101.639" y1="24.5914" x2="138.937" y2="24.5914" gradientUnits="userSpaceOnUse">
<stop stop-color="#D64A00"/>
<stop offset="1" stop-color="#FF6300"/>
</linearGradient>
<linearGradient id="paint1_linear" x1="10.1102" y1="52.4261" x2="2.16357" y2="52.4261" gradientUnits="userSpaceOnUse">
<stop stop-color="#878787"/>
<stop offset="0.2" stop-color="#9F9F9F"/>
<stop offset="0.54" stop-color="#C2C2C2"/>
<stop offset="0.82" stop-color="#D8D8D8"/>
<stop offset="1" stop-color="#E0E0E0"/>
</linearGradient>
<radialGradient id="paint2_radial" cx="0" cy="0" r="1" gradientUnits="userSpaceOnUse" gradientTransform="translate(4.66096 52.6155) scale(2.65867 9.06045)">
<stop stop-color="#E0E0E0"/>
<stop offset="0.03" stop-color="#D8D8D8"/>
<stop offset="0.27" stop-color="#A5A5A5"/>
<stop offset="0.49" stop-color="#7D7D7D"/>
<stop offset="0.7" stop-color="#616161"/>
<stop offset="0.87" stop-color="#4F4F4F"/>
<stop offset="1" stop-color="#494949"/>
</radialGradient>
<linearGradient id="paint3_linear" x1="7761.33" y1="11165.8" x2="8621.76" y2="11165.8" gradientUnits="userSpaceOnUse">
<stop stop-color="#878787"/>
<stop offset="0.2" stop-color="#9F9F9F"/>
<stop offset="0.54" stop-color="#C2C2C2"/>
<stop offset="0.82" stop-color="#D8D8D8"/>
<stop offset="1" stop-color="#E0E0E0"/>
</linearGradient>
<radialGradient id="paint4_radial" cx="0" cy="0" r="1" gradientUnits="userSpaceOnUse" gradientTransform="translate(3145.09 17848) scale(202.051 1023.05)">
<stop stop-color="#E0E0E0"/>
<stop offset="0.03" stop-color="#D8D8D8"/>
<stop offset="0.27" stop-color="#A5A5A5"/>
<stop offset="0.49" stop-color="#7D7D7D"/>
<stop offset="0.7" stop-color="#616161"/>
<stop offset="0.87" stop-color="#4F4F4F"/>
<stop offset="1" stop-color="#494949"/>
</radialGradient>
<linearGradient id="paint5_linear" x1="-3626.82" y1="11096.8" x2="-4492.99" y2="11148.8" gradientUnits="userSpaceOnUse">
<stop stop-color="#878787"/>
<stop offset="0.2" stop-color="#9F9F9F"/>
<stop offset="0.54" stop-color="#C2C2C2"/>
<stop offset="0.82" stop-color="#D8D8D8"/>
<stop offset="1" stop-color="#E0E0E0"/>
</linearGradient>
<radialGradient id="paint6_radial" cx="0" cy="0" r="1" gradientUnits="userSpaceOnUse" gradientTransform="translate(6617 16943.8) rotate(-3.33) scale(203.445 1021.64)">
<stop stop-color="#E0E0E0"/>
<stop offset="0.03" stop-color="#D8D8D8"/>
<stop offset="0.27" stop-color="#A5A5A5"/>
<stop offset="0.49" stop-color="#7D7D7D"/>
<stop offset="0.7" stop-color="#616161"/>
<stop offset="0.87" stop-color="#4F4F4F"/>
<stop offset="1" stop-color="#494949"/>
</radialGradient>
<linearGradient id="paint7_linear" x1="-3.365e-05" y1="45.8832" x2="197.819" y2="45.8832" gradientUnits="userSpaceOnUse">
<stop stop-color="#FFA900"/>
<stop offset="0.24" stop-color="#FFA900"/>
<stop offset="0.43" stop-color="#FF9500"/>
<stop offset="0.67" stop-color="#FF7700"/>
<stop offset="1" stop-color="#FF7700"/>
</linearGradient>
<linearGradient id="paint8_linear" x1="100.814" y1="80.3905" x2="194.865" y2="80.3905" gradientUnits="userSpaceOnUse">
<stop stop-color="#0D0D0D"/>
<stop offset="0.05" stop-color="#101010"/>
<stop offset="0.64" stop-color="#272727"/>
<stop offset="1" stop-color="#303030"/>
</linearGradient>
<linearGradient id="paint9_linear" x1="6427.86" y1="2242.84" x2="6780.13" y2="2242.84" gradientUnits="userSpaceOnUse">
<stop stop-color="#D64A00"/>
<stop offset="1" stop-color="#FF6300"/>
</linearGradient>
<linearGradient id="paint10_linear" x1="14510.9" y1="3956.38" x2="20211.9" y2="3956.38" gradientUnits="userSpaceOnUse">
<stop stop-color="#D64A00"/>
<stop offset="1" stop-color="#FF6300"/>
</linearGradient>
<linearGradient id="paint11_linear" x1="111.823" y1="88.1082" x2="116.254" y2="63.7198" gradientUnits="userSpaceOnUse">
<stop stop-color="white"/>
<stop offset="0.71" stop-color="white" stop-opacity="0"/>
</linearGradient>
<linearGradient id="paint12_linear" x1="79.7212" y1="30.7975" x2="168.78" y2="30.7975" gradientUnits="userSpaceOnUse">
<stop stop-color="#FF7700"/>
<stop offset="0.26" stop-color="#FF7D00"/>
<stop offset="0.61" stop-color="#FF8E00"/>
<stop offset="1" stop-color="#FFA900"/>
</linearGradient>
<linearGradient id="paint13_linear" x1="156.501" y1="33.4536" x2="158.729" y2="25.2132" gradientUnits="userSpaceOnUse">
<stop offset="0.29" stop-color="white" stop-opacity="0"/>
<stop offset="1" stop-color="white"/>
</linearGradient>
<linearGradient id="paint14_linear" x1="101.289" y1="35.5784" x2="104.079" y2="26.971" gradientUnits="userSpaceOnUse">
<stop offset="0.36" stop-color="white" stop-opacity="0"/>
<stop offset="1" stop-color="white"/>
</linearGradient>
<linearGradient id="paint15_linear" x1="92.0513" y1="46.8721" x2="132.441" y2="46.8721" gradientUnits="userSpaceOnUse">
<stop stop-color="#6B6B6B"/>
<stop offset="1" stop-color="white"/>
</linearGradient>
<linearGradient id="paint16_linear" x1="2625.67" y1="2635.28" x2="2800.87" y2="2635.28" gradientUnits="userSpaceOnUse">
<stop stop-color="#6B6B6B"/>
<stop offset="1" stop-color="white"/>
</linearGradient>
<linearGradient id="paint17_linear" x1="6949.85" y1="1869.27" x2="7960.73" y2="1869.27" gradientUnits="userSpaceOnUse">
<stop stop-color="#6B6B6B"/>
<stop offset="1" stop-color="white"/>
</linearGradient>
<linearGradient id="paint18_linear" x1="6817.63" y1="2568.72" x2="7938.75" y2="2568.72" gradientUnits="userSpaceOnUse">
<stop stop-color="#6B6B6B"/>
<stop offset="1" stop-color="white"/>
</linearGradient>
<linearGradient id="paint19_linear" x1="101.091" y1="47.7532" x2="132.437" y2="47.7532" gradientUnits="userSpaceOnUse">
<stop stop-color="white"/>
<stop offset="1" stop-color="#6B6B6B"/>
</linearGradient>
<linearGradient id="paint20_linear" x1="94.2885" y1="49.079" x2="132.441" y2="49.079" gradientUnits="userSpaceOnUse">
<stop stop-color="#141414"/>
<stop offset="0.28" stop-color="#272727"/>
<stop offset="0.72" stop-color="#3E3E3E"/>
<stop offset="1" stop-color="#474747"/>
</linearGradient>
<linearGradient id="paint21_linear" x1="4607.66" y1="2438.97" x2="4786.07" y2="2438.97" gradientUnits="userSpaceOnUse">
<stop stop-color="#6B6B6B"/>
<stop offset="1" stop-color="white"/>
</linearGradient>
<linearGradient id="paint22_linear" x1="3333.85" y1="1670.5" x2="3424.28" y2="1670.5" gradientUnits="userSpaceOnUse">
<stop stop-color="#6B6B6B"/>
<stop offset="1" stop-color="white"/>
</linearGradient>
<linearGradient id="paint23_linear" x1="3870.01" y1="2025.97" x2="3993.94" y2="2025.97" gradientUnits="userSpaceOnUse">
<stop stop-color="white"/>
<stop offset="1" stop-color="#6B6B6B"/>
</linearGradient>
<linearGradient id="paint24_linear" x1="3278.53" y1="1847.19" x2="3365" y2="1847.19" gradientUnits="userSpaceOnUse">
<stop stop-color="#6B6B6B"/>
<stop offset="1" stop-color="white"/>
</linearGradient>
<linearGradient id="paint25_linear" x1="1799.23" y1="2223.58" x2="1821.68" y2="2223.58" gradientUnits="userSpaceOnUse">
<stop stop-color="#6B6B6B"/>
<stop offset="1" stop-color="white"/>
</linearGradient>
<linearGradient id="paint26_linear" x1="4605.49" y1="1837.4" x2="4783.81" y2="1837.4" gradientUnits="userSpaceOnUse">
<stop stop-color="#141414"/>
<stop offset="0.28" stop-color="#272727"/>
<stop offset="0.72" stop-color="#3E3E3E"/>
<stop offset="1" stop-color="#474747"/>
</linearGradient>
<linearGradient id="paint27_linear" x1="24.302" y1="78.7709" x2="35.8505" y2="36.0535" gradientUnits="userSpaceOnUse">
<stop stop-color="#B87800"/>
<stop offset="0.71" stop-color="#F1C40F" stop-opacity="0"/>
</linearGradient>
<linearGradient id="paint28_linear" x1="32.9828" y1="70.1579" x2="34.1322" y2="66.4686" gradientUnits="userSpaceOnUse">
<stop stop-color="white"/>
<stop offset="0.07" stop-color="#F5F5F5"/>
<stop offset="0.2" stop-color="#DADADA"/>
<stop offset="0.36" stop-color="#ADADAD"/>
<stop offset="0.55" stop-color="#707070"/>
<stop offset="0.57" stop-color="#6B6B6B"/>
<stop offset="0.59" stop-color="#757575"/>
<stop offset="0.79" stop-color="#BFBFBF"/>
<stop offset="0.93" stop-color="#EDEDED"/>
<stop offset="1" stop-color="white"/>
</linearGradient>
<linearGradient id="paint29_linear" x1="2804.65" y1="10698.1" x2="3111.32" y2="10698.1" gradientUnits="userSpaceOnUse">
<stop stop-color="#878787"/>
<stop offset="0.2" stop-color="#9F9F9F"/>
<stop offset="0.54" stop-color="#C2C2C2"/>
<stop offset="0.82" stop-color="#D8D8D8"/>
<stop offset="1" stop-color="#E0E0E0"/>
</linearGradient>
<radialGradient id="paint30_radial" cx="0" cy="0" r="1" gradientUnits="userSpaceOnUse" gradientTransform="translate(655.825 14072.3) scale(38.8434 805.777)">
<stop stop-color="#E0E0E0"/>
<stop offset="0.03" stop-color="#D8D8D8"/>
<stop offset="0.27" stop-color="#A5A5A5"/>
<stop offset="0.49" stop-color="#7D7D7D"/>
<stop offset="0.7" stop-color="#616161"/>
<stop offset="0.87" stop-color="#4F4F4F"/>
<stop offset="1" stop-color="#494949"/>
</radialGradient>
<linearGradient id="paint31_linear" x1="1045.77" y1="4960.68" x2="1080.24" y2="4960.68" gradientUnits="userSpaceOnUse">
<stop stop-color="#878787"/>
<stop offset="0.2" stop-color="#9F9F9F"/>
<stop offset="0.54" stop-color="#C2C2C2"/>
<stop offset="0.82" stop-color="#D8D8D8"/>
<stop offset="1" stop-color="#E0E0E0"/>
</linearGradient>
<linearGradient id="paint32_linear" x1="34.2225" y1="22.8984" x2="63.5213" y2="22.8984" gradientUnits="userSpaceOnUse">
<stop stop-color="#FFA900"/>
<stop offset="0.39" stop-color="#FF8E00"/>
<stop offset="0.74" stop-color="#FF7D00"/>
<stop offset="1" stop-color="#FF7700"/>
</linearGradient>
<clipPath id="clip0">
<rect width="197.819" height="94.8586" fill="white"/>
</clipPath>
</defs>
</svg>
