<svg width="237" height="103" viewBox="0 0 237 103" fill="none" xmlns="http://www.w3.org/2000/svg">
<g clip-path="url(#clip0)">
<path d="M181.588 21.078H55.823V95.99H181.588V21.078Z" fill="#C4D4B5"/>
<path d="M223.968 21.078H181.588V95.99H223.968V21.078Z" fill="#A3C6B4"/>
<path d="M80.5631 57.5013H75.0647V95.99H80.5631V57.5013Z" fill="#84AAA0"/>
<path d="M73.1953 29.5136H60.6455V41.4422H73.1953V29.5136Z" fill="#39828F"/>
<path d="M70.5578 29.5136L60.6455 34.5978V39.8673L73.2008 33.9657V29.5136H70.5578Z" fill="#619BA5"/>
<path d="M60.6455 40.5376L73.2008 34.6905V35.7531L60.6455 41.4422V40.5376Z" fill="#619BA5"/>
<path d="M67.3592 29.5136H66.3347V41.4422H67.3592V29.5136Z" fill="#DFC2C2"/>
<path d="M73.1953 35.0229H60.6455V35.9928H73.1953V35.0229Z" fill="#DFC2C2"/>
<path d="M73.1953 28.4401H60.6455V29.5136H73.1953V28.4401Z" fill="white"/>
<path d="M60.6455 28.4401H59.5066V41.4476H60.6455V28.4401Z" fill="white"/>
<path d="M74.4159 28.4401H73.2007V41.4476H74.4159V28.4401Z" fill="white"/>
<path d="M74.4105 41.4421H59.5066V42.7118H74.4105V41.4421Z" fill="white"/>
<path d="M94.5025 29.5136H81.9526V41.4422H94.5025V29.5136Z" fill="#39828F"/>
<path d="M91.865 29.5136L81.9526 34.5978V39.8673L94.5025 33.9657V29.5136H91.865Z" fill="#619BA5"/>
<path d="M81.9526 40.5376L94.5025 34.6905V35.7531L81.9526 41.4422V40.5376Z" fill="#619BA5"/>
<path d="M88.6607 29.5136H87.6362V41.4422H88.6607V29.5136Z" fill="#DFC2C2"/>
<path d="M94.5025 35.0229H81.9526V35.9928H94.5025V35.0229Z" fill="#DFC2C2"/>
<path d="M94.5025 28.4401H81.9526V29.5136H94.5025V28.4401Z" fill="white"/>
<path d="M81.9526 28.4401H80.8137V41.4476H81.9526V28.4401Z" fill="white"/>
<path d="M95.7122 28.4401H94.5024V41.4476H95.7122V28.4401Z" fill="white"/>
<path d="M95.7176 41.4421H80.8137V42.7118H95.7176V41.4421Z" fill="white"/>
<path d="M154.979 30.2002H142.429V42.1288H154.979V30.2002Z" fill="#39828F"/>
<path d="M152.342 30.2002L142.429 35.2845V40.554L154.984 34.6523V30.2002H152.342Z" fill="#619BA5"/>
<path d="M142.429 41.2242L154.984 35.3771V36.4397L142.429 42.1288V41.2242Z" fill="#619BA5"/>
<path d="M149.143 30.2002H148.118V42.1288H149.143V30.2002Z" fill="#DFC2C2"/>
<path d="M154.979 35.7095H142.429V36.6795H154.979V35.7095Z" fill="#DFC2C2"/>
<path d="M154.979 29.1267H142.429V30.2002H154.979V29.1267Z" fill="white"/>
<path d="M142.429 29.1267H141.29V42.1342H142.429V29.1267Z" fill="white"/>
<path d="M156.2 29.1267H154.984V42.1342H156.2V29.1267Z" fill="white"/>
<path d="M156.194 42.1288H141.29V43.3985H156.194V42.1288Z" fill="white"/>
<path d="M176.972 30.2002H164.423V42.1288H176.972V30.2002Z" fill="#39828F"/>
<path d="M174.335 30.2002L164.423 35.2845V40.554L176.972 34.6523V30.2002H174.335Z" fill="#619BA5"/>
<path d="M164.423 41.2242L176.972 35.3771V36.4397L164.423 42.1288V41.2242Z" fill="#619BA5"/>
<path d="M171.136 30.2002H170.112V42.1288H171.136V30.2002Z" fill="#DFC2C2"/>
<path d="M176.972 35.7095H164.423V36.6795H176.972V35.7095Z" fill="#DFC2C2"/>
<path d="M176.972 29.1267H164.423V30.2002H176.972V29.1267Z" fill="white"/>
<path d="M164.423 29.1267H163.284V42.1342H164.423V29.1267Z" fill="white"/>
<path d="M178.182 29.1267H176.972V42.1342H178.182V29.1267Z" fill="white"/>
<path d="M178.188 42.1288H163.284V43.3985H178.188V42.1288Z" fill="white"/>
<path d="M220.703 30.1348H208.154V42.0634H220.703V30.1348Z" fill="#39828F"/>
<path d="M218.066 30.1348L208.154 35.219V40.4885L220.703 34.5869V30.1348H218.066Z" fill="#619BA5"/>
<path d="M208.154 41.1534L220.703 35.3117V36.3688L208.154 42.0634V41.1534Z" fill="#619BA5"/>
<path d="M214.862 30.1348H213.837V42.0634H214.862V30.1348Z" fill="#DFC2C2"/>
<path d="M220.703 35.6441H208.154V36.6141H220.703V35.6441Z" fill="#DFC2C2"/>
<path d="M220.703 29.0558H208.154V30.1293H220.703V29.0558Z" fill="#DFC2C2"/>
<path d="M208.154 29.0558H207.015V42.0634H208.154V29.0558Z" fill="#DFC2C2"/>
<path d="M221.919 29.0558H220.703V42.0634H221.919V29.0558Z" fill="#DFC2C2"/>
<path d="M221.919 42.0634H207.015V43.3331H221.919V42.0634Z" fill="#DFC2C2"/>
<path d="M220.703 52.8149H208.154V64.7435H220.703V52.8149Z" fill="#39828F"/>
<path d="M218.066 52.8149L208.154 57.8992V63.1687L220.703 57.2616V52.8149H218.066Z" fill="#619BA5"/>
<path d="M208.154 63.8335L220.703 57.9918V59.049L208.154 64.7436V63.8335Z" fill="#619BA5"/>
<path d="M214.862 52.8149H213.837V64.7435H214.862V52.8149Z" fill="#DFC2C2"/>
<path d="M220.703 58.3242H208.154V59.2941H220.703V58.3242Z" fill="#DFC2C2"/>
<path d="M220.703 51.736H208.154V52.8095H220.703V51.736Z" fill="#DFC2C2"/>
<path d="M208.154 51.736H207.015V64.7436H208.154V51.736Z" fill="#DFC2C2"/>
<path d="M221.919 51.736H220.703V64.7436H221.919V51.736Z" fill="#DFC2C2"/>
<path d="M221.919 64.7435H207.015V66.0132H221.919V64.7435Z" fill="#DFC2C2"/>
<path d="M220.703 76.1816H208.154V88.1102H220.703V76.1816Z" fill="#39828F"/>
<path d="M218.066 76.1762L208.154 81.2659V86.5354L220.703 80.6283V76.1762H218.066Z" fill="#619BA5"/>
<path d="M208.154 87.2002L220.703 81.3585V82.4157L208.154 88.1103V87.2002Z" fill="#619BA5"/>
<path d="M214.862 76.1816H213.837V88.1102H214.862V76.1816Z" fill="#DFC2C2"/>
<path d="M220.703 81.691H208.154V82.661H220.703V81.691Z" fill="#DFC2C2"/>
<path d="M220.703 75.1027H208.154V76.1762H220.703V75.1027Z" fill="#DFC2C2"/>
<path d="M208.154 75.1027H207.015V88.1102H208.154V75.1027Z" fill="#DFC2C2"/>
<path d="M221.919 75.1027H220.703V88.1102H221.919V75.1027Z" fill="#DFC2C2"/>
<path d="M221.919 88.1103H207.015V89.38H221.919V88.1103Z" fill="#DFC2C2"/>
<path d="M72.5088 53.5669H59.959V65.4955H72.5088V53.5669Z" fill="#39828F"/>
<path d="M69.8713 53.5669L59.959 58.6511V63.9207L72.5143 58.019V53.5669H69.8713Z" fill="#619BA5"/>
<path d="M59.959 64.5909L72.5143 58.7438V59.8064L59.959 65.4955V64.5909Z" fill="#619BA5"/>
<path d="M66.6727 53.5669H65.6482V65.4955H66.6727V53.5669Z" fill="#DFC2C2"/>
<path d="M72.5088 59.0762H59.959V60.0462H72.5088V59.0762Z" fill="#DFC2C2"/>
<path d="M72.5088 52.4934H59.959V53.5669H72.5088V52.4934Z" fill="white"/>
<path d="M59.959 52.4934H58.8201V65.5009H59.959V52.4934Z" fill="white"/>
<path d="M73.7294 52.4934H72.5142V65.5009H73.7294V52.4934Z" fill="white"/>
<path d="M73.724 65.4955H58.8201V66.7652H73.724V65.4955Z" fill="white"/>
<path d="M72.5088 76.2471H59.959V88.1757H72.5088V76.2471Z" fill="#39828F"/>
<path d="M69.8713 76.2471L59.959 81.3313V86.6008L72.5143 80.6992V76.2471H69.8713Z" fill="#619BA5"/>
<path d="M59.959 87.2711L72.5143 81.424V82.4866L59.959 88.1757V87.2711Z" fill="#619BA5"/>
<path d="M66.6727 76.2471H65.6482V88.1757H66.6727V76.2471Z" fill="#DFC2C2"/>
<path d="M72.5088 81.7563H59.959V82.7263H72.5088V81.7563Z" fill="#DFC2C2"/>
<path d="M72.5088 75.1735H59.959V76.247H72.5088V75.1735Z" fill="#DFC2C2"/>
<path d="M59.959 75.1735H58.8201V88.1811H59.959V75.1735Z" fill="#DFC2C2"/>
<path d="M73.7294 75.1735H72.5142V88.1811H73.7294V75.1735Z" fill="#DFC2C2"/>
<path d="M73.724 88.1756H58.8201V89.4453H73.724V88.1756Z" fill="#DFC2C2"/>
<path d="M124.054 29.5136H111.504V41.4422H124.054V29.5136Z" fill="#39828F"/>
<path d="M121.416 29.5136L111.504 34.5978V39.8673L124.059 33.9657V29.5136H121.416Z" fill="#619BA5"/>
<path d="M111.504 40.5376L124.059 34.6905V35.7531L111.504 41.4422V40.5376Z" fill="#619BA5"/>
<path d="M118.212 29.5136H117.188V41.4422H118.212V29.5136Z" fill="#DFC2C2"/>
<path d="M124.054 35.0229H111.504V35.9928H124.054V35.0229Z" fill="#DFC2C2"/>
<path d="M124.054 28.4401H111.504V29.5136H124.054V28.4401Z" fill="white"/>
<path d="M111.504 28.4401H110.365V41.4476H111.504V28.4401Z" fill="white"/>
<path d="M125.264 28.4401H124.054V41.4476H125.264V28.4401Z" fill="white"/>
<path d="M125.269 41.4421H110.365V42.7118H125.269V41.4421Z" fill="white"/>
<path d="M124.054 48.0686H111.504V59.9972H124.054V48.0686Z" fill="#39828F"/>
<path d="M121.416 48.0686L111.504 53.1583V58.4223L124.059 52.5207V48.0686H121.416Z" fill="#619BA5"/>
<path d="M111.504 59.0925L124.059 53.2454V54.308L111.504 59.9971V59.0925Z" fill="#619BA5"/>
<path d="M118.212 48.0686H117.188V59.9972H118.212V48.0686Z" fill="#DFC2C2"/>
<path d="M124.054 53.5778H111.504V54.5478H124.054V53.5778Z" fill="#DFC2C2"/>
<path d="M124.054 46.995H111.504V48.0685H124.054V46.995Z" fill="white"/>
<path d="M111.504 46.995H110.365V60.0026H111.504V46.995Z" fill="white"/>
<path d="M125.264 46.995H124.054V60.0026H125.264V46.995Z" fill="white"/>
<path d="M125.269 59.9971H110.365V61.2668H125.269V59.9971Z" fill="white"/>
<path d="M95.8428 53.2944H83.293V65.223H95.8428V53.2944Z" fill="#39828F"/>
<path d="M93.2053 53.2999L83.293 58.3841V63.6536L95.8482 57.7466V53.2999H93.2053Z" fill="#619BA5"/>
<path d="M83.293 64.3184L95.8482 58.4767V59.5339L83.293 65.2285V64.3184Z" fill="#619BA5"/>
<path d="M90.0067 53.2944H88.9822V65.223H90.0067V53.2944Z" fill="#DFC2C2"/>
<path d="M95.8428 58.8092H83.293V59.7792H95.8428V58.8092Z" fill="#DFC2C2"/>
<path d="M95.8428 52.2209H83.293V53.2944H95.8428V52.2209Z" fill="white"/>
<path d="M83.2932 52.2209H82.1543V65.2285H83.2932V52.2209Z" fill="white"/>
<path d="M97.0581 52.2209H95.8484V65.2285H97.0581V52.2209Z" fill="white"/>
<path d="M97.0582 65.2285H82.1543V66.4982H97.0582V65.2285Z" fill="white"/>
<path d="M95.8428 75.9746H83.293V87.9032H95.8428V75.9746Z" fill="#39828F"/>
<path d="M93.2053 75.9746L83.293 81.0643V86.3338L95.8482 80.4267V75.9746H93.2053Z" fill="#619BA5"/>
<path d="M83.293 86.9986L95.8482 81.1569V82.2141L83.293 87.9086V86.9986Z" fill="#619BA5"/>
<path d="M90.0067 75.9746H88.9822V87.9032H90.0067V75.9746Z" fill="#DFC2C2"/>
<path d="M95.8428 81.4893H83.293V82.4593H95.8428V81.4893Z" fill="#DFC2C2"/>
<path d="M95.8428 74.9011H83.293V75.9746H95.8428V74.9011Z" fill="#DFC2C2"/>
<path d="M83.2932 74.9011H82.1543V87.9087H83.2932V74.9011Z" fill="#DFC2C2"/>
<path d="M97.0581 74.9011H95.8484V87.9087H97.0581V74.9011Z" fill="#DFC2C2"/>
<path d="M97.0582 87.9086H82.1543V89.1783H97.0582V87.9086Z" fill="#DFC2C2"/>
<path d="M162.346 57.5013H156.848V95.99H162.346V57.5013Z" fill="#84AAA0"/>
<path d="M205.532 22.2006H200.034V68.0948H205.532V22.2006Z" fill="#84AAA0"/>
<path d="M154.293 53.5669H141.743V65.4955H154.293V53.5669Z" fill="#39828F"/>
<path d="M151.655 53.5669L141.743 58.6511V63.9207L154.298 58.019V53.5669H151.655Z" fill="#619BA5"/>
<path d="M141.743 64.5909L154.298 58.7438V59.8064L141.743 65.4955V64.5909Z" fill="#619BA5"/>
<path d="M148.456 53.5669H147.432V65.4955H148.456V53.5669Z" fill="#DFC2C2"/>
<path d="M154.293 59.0762H141.743V60.0462H154.293V59.0762Z" fill="#DFC2C2"/>
<path d="M154.293 52.4934H141.743V53.5669H154.293V52.4934Z" fill="white"/>
<path d="M141.743 52.4934H140.604V65.5009H141.743V52.4934Z" fill="white"/>
<path d="M155.513 52.4934H154.298V65.5009H155.513V52.4934Z" fill="white"/>
<path d="M155.508 65.4955H140.604V66.7652H155.508V65.4955Z" fill="white"/>
<path d="M154.293 76.2471H141.743V88.1757H154.293V76.2471Z" fill="#39828F"/>
<path d="M151.655 76.2471L141.743 81.3313V86.6008L154.298 80.6992V76.2471H151.655Z" fill="#619BA5"/>
<path d="M141.743 87.2711L154.298 81.424V82.4866L141.743 88.1757V87.2711Z" fill="#619BA5"/>
<path d="M148.456 76.2471H147.432V88.1757H148.456V76.2471Z" fill="#DFC2C2"/>
<path d="M154.293 81.7563H141.743V82.7263H154.293V81.7563Z" fill="#DFC2C2"/>
<path d="M154.293 75.1735H141.743V76.247H154.293V75.1735Z" fill="#DFC2C2"/>
<path d="M141.743 75.1735H140.604V88.1811H141.743V75.1735Z" fill="#DFC2C2"/>
<path d="M155.513 75.1735H154.298V88.1811H155.513V75.1735Z" fill="#DFC2C2"/>
<path d="M155.508 88.1756H140.604V89.4453H155.508V88.1756Z" fill="#DFC2C2"/>
<path d="M177.626 53.2944H165.077V65.223H177.626V53.2944Z" fill="#39828F"/>
<path d="M174.989 53.2999L165.077 58.3841V63.6536L177.626 57.7466V53.2999H174.989Z" fill="#619BA5"/>
<path d="M165.077 64.3184L177.626 58.4767V59.5339L165.077 65.2285V64.3184Z" fill="#619BA5"/>
<path d="M171.79 53.2944H170.766V65.223H171.79V53.2944Z" fill="#DFC2C2"/>
<path d="M177.626 58.8092H165.077V59.7792H177.626V58.8092Z" fill="#DFC2C2"/>
<path d="M177.626 52.2209H165.077V53.2944H177.626V52.2209Z" fill="white"/>
<path d="M165.076 52.2209H163.938V65.2285H165.076V52.2209Z" fill="white"/>
<path d="M178.842 52.2209H177.632V65.2285H178.842V52.2209Z" fill="white"/>
<path d="M178.841 65.2285H163.938V66.4982H178.841V65.2285Z" fill="white"/>
<path d="M177.626 75.9746H165.077V87.9032H177.626V75.9746Z" fill="#39828F"/>
<path d="M174.989 75.9746L165.077 81.0643V86.3338L177.626 80.4267V75.9746H174.989Z" fill="#619BA5"/>
<path d="M165.077 86.9986L177.626 81.1569V82.2141L165.077 87.9086V86.9986Z" fill="#619BA5"/>
<path d="M171.79 75.9746H170.766V87.9032H171.79V75.9746Z" fill="#DFC2C2"/>
<path d="M177.626 81.4893H165.077V82.4593H177.626V81.4893Z" fill="#DFC2C2"/>
<path d="M177.626 74.9011H165.077V75.9746H177.626V74.9011Z" fill="#DFC2C2"/>
<path d="M165.076 74.9011H163.938V87.9087H165.076V74.9011Z" fill="#DFC2C2"/>
<path d="M178.842 74.9011H177.632V87.9087H178.842V74.9011Z" fill="#DFC2C2"/>
<path d="M178.841 87.9086H163.938V89.1783H178.841V87.9086Z" fill="#DFC2C2"/>
<path d="M53.9919 17.8684L98.4312 0H137.606L182.967 17.8684H53.9919Z" fill="#E76642"/>
<path d="M152.053 5.68915H188.694L226.719 17.8684H182.967L152.053 5.68915Z" fill="#C05245"/>
<path d="M55.8338 21.078H13.4543V95.99H55.8338V21.078Z" fill="#A3C6B4"/>
<path d="M29.2739 30.1348H16.7241V42.0634H29.2739V30.1348Z" fill="#39828F"/>
<path d="M19.3616 30.1348L29.2794 35.219V40.4885L16.7241 34.5869V30.1348H19.3616Z" fill="#619BA5"/>
<path d="M29.2794 41.1534L16.7241 35.3117V36.3688L29.2794 42.0634V41.1534Z" fill="#619BA5"/>
<path d="M23.5902 30.1348H22.5657V42.0634H23.5902V30.1348Z" fill="#DFC2C2"/>
<path d="M29.2739 35.6441H16.7241V36.6141H29.2739V35.6441Z" fill="#DFC2C2"/>
<path d="M29.2739 29.0558H16.7241V30.1293H29.2739V29.0558Z" fill="#DFC2C2"/>
<path d="M30.4182 29.0558H29.2793V42.0634H30.4182V29.0558Z" fill="#DFC2C2"/>
<path d="M16.7239 29.0558H15.5142V42.0634H16.7239V29.0558Z" fill="#DFC2C2"/>
<path d="M30.4181 42.0634H15.5142V43.3331H30.4181V42.0634Z" fill="#DFC2C2"/>
<path d="M29.2739 52.8149H16.7241V64.7435H29.2739V52.8149Z" fill="#39828F"/>
<path d="M19.3616 52.8149L29.2794 57.8992V63.1687L16.7241 57.2616V52.8149H19.3616Z" fill="#619BA5"/>
<path d="M29.2794 63.8335L16.7241 57.9918V59.049L29.2794 64.7436V63.8335Z" fill="#619BA5"/>
<path d="M23.5902 52.8149H22.5657V64.7435H23.5902V52.8149Z" fill="#DFC2C2"/>
<path d="M29.2739 58.3242H16.7241V59.2941H29.2739V58.3242Z" fill="#DFC2C2"/>
<path d="M29.2739 51.736H16.7241V52.8095H29.2739V51.736Z" fill="#DFC2C2"/>
<path d="M30.4182 51.736H29.2793V64.7436H30.4182V51.736Z" fill="#DFC2C2"/>
<path d="M16.7239 51.736H15.5142V64.7436H16.7239V51.736Z" fill="#DFC2C2"/>
<path d="M30.4181 64.7435H15.5142V66.0132H30.4181V64.7435Z" fill="#DFC2C2"/>
<path d="M29.2739 76.1816H16.7241V88.1102H29.2739V76.1816Z" fill="#39828F"/>
<path d="M19.3616 76.1762L29.2794 81.2659V86.5354L16.7241 80.6283V76.1762H19.3616Z" fill="#619BA5"/>
<path d="M29.2794 87.2002L16.7241 81.3585V82.4157L29.2794 88.1103V87.2002Z" fill="#619BA5"/>
<path d="M23.5902 76.1816H22.5657V88.1102H23.5902V76.1816Z" fill="#DFC2C2"/>
<path d="M29.2739 81.691H16.7241V82.661H29.2739V81.691Z" fill="#DFC2C2"/>
<path d="M29.2739 75.1027H16.7241V76.1762H29.2739V75.1027Z" fill="#DFC2C2"/>
<path d="M30.4182 75.1027H29.2793V88.1102H30.4182V75.1027Z" fill="#DFC2C2"/>
<path d="M16.7239 75.1027H15.5142V88.1102H16.7239V75.1027Z" fill="#DFC2C2"/>
<path d="M30.4181 88.1103H15.5142V89.38H30.4181V88.1103Z" fill="#DFC2C2"/>
<path d="M85.3748 5.68915H48.7334L10.708 17.8684H54.4607L85.3748 5.68915Z" fill="#C05245"/>
<path d="M181.588 22.2224H55.823V24.5438H181.588V22.2224Z" fill="#AFC4A7"/>
<path d="M103.93 21.078H98.4312V95.99H103.93V21.078Z" fill="#84AAA0"/>
<path d="M137.607 21.078H132.108V95.99H137.607V21.078Z" fill="#84AAA0"/>
<path d="M140.609 68.0949H95.1125V73.2717H140.609V68.0949Z" fill="white"/>
<path d="M229.471 17.8683H8.8606V22.2223H229.471V17.8683Z" fill="#84AAA0"/>
<path d="M229.471 20.0426H8.8606V22.2169H229.471V20.0426Z" fill="#709286"/>
<path d="M55.8229 22.2224H13.4543V24.5438H55.8229V22.2224Z" fill="#84AAA0"/>
<path d="M37.3988 22.2006H31.9004V68.0948H37.3988V22.2006Z" fill="#84AAA0"/>
<path d="M223.967 22.2224H181.599V24.5438H223.967V22.2224Z" fill="#84AAA0"/>
<path d="M140.609 69.9586H95.1125V73.2772H140.609V69.9586Z" fill="#A3C6B4"/>
<path d="M236.501 99.4176C236.501 101.358 234.321 102.932 231.597 102.932H4.9044C2.17973 102.932 0 101.358 0 99.4176C0 97.4722 2.17973 95.8974 4.9044 95.8974H231.597C234.321 95.8974 236.501 97.4722 236.501 99.4176Z" fill="#8DAF38"/>
<path d="M12.299 95.8919C12.3318 96.0018 12.3205 96.1201 12.2677 96.2218C12.2148 96.3235 12.1244 96.4006 12.0157 96.4369C11.9616 96.4547 11.9046 96.4616 11.8479 96.4573C11.7912 96.4529 11.7359 96.4374 11.6852 96.4115C11.6346 96.3857 11.5895 96.3501 11.5527 96.3067C11.5159 96.2633 11.488 96.2131 11.4707 96.1589L10.5661 93.3689C10.5319 93.2591 10.5425 93.1401 10.5956 93.0381C10.6486 92.936 10.7399 92.859 10.8495 92.824C10.9593 92.7897 11.0783 92.8003 11.1803 92.8534C11.2824 92.9065 11.3594 92.9978 11.3944 93.1074L12.299 95.8919Z" fill="#B6712C"/>
<path d="M13.912 96.0499C13.9106 96.1076 13.8977 96.1645 13.8742 96.2172C13.8506 96.2699 13.8168 96.3174 13.7747 96.357C13.7327 96.3965 13.6831 96.4273 13.6291 96.4476C13.575 96.4678 13.5174 96.4771 13.4597 96.4749C13.402 96.4728 13.3452 96.4593 13.2928 96.4351C13.2403 96.4109 13.1932 96.3764 13.1541 96.3339C13.1151 96.2913 13.0849 96.2413 13.0653 96.187C13.0458 96.1326 13.0372 96.0749 13.0401 96.0172L13.1545 93.0909C13.1602 92.9743 13.2113 92.8645 13.2968 92.7851C13.3824 92.7057 13.4956 92.6629 13.6123 92.6659C13.7284 92.6715 13.8376 92.7228 13.9162 92.8085C13.9948 92.8942 14.0363 93.0074 14.0319 93.1236L13.912 96.0499Z" fill="#B6712C"/>
<path d="M15.9013 96.099C15.8867 96.1558 15.861 96.2092 15.8256 96.2559C15.7902 96.3027 15.7459 96.3419 15.6951 96.3713C15.6444 96.4008 15.5883 96.4198 15.5301 96.4273C15.472 96.4348 15.4129 96.4306 15.3564 96.415C15.2995 96.4005 15.2462 96.3748 15.1994 96.3394C15.1527 96.304 15.1134 96.2596 15.084 96.2089C15.0546 96.1582 15.0355 96.1021 15.028 96.0439C15.0205 95.9857 15.0247 95.9266 15.0403 95.8701L15.7705 93.031C15.785 92.9742 15.8108 92.9208 15.8462 92.8741C15.8816 92.8273 15.9259 92.7881 15.9767 92.7586C16.0274 92.7292 16.0835 92.7102 16.1416 92.7027C16.1998 92.6952 16.2589 92.6994 16.3154 92.7149C16.3723 92.7295 16.4256 92.7552 16.4724 92.7906C16.5191 92.826 16.5584 92.8704 16.5878 92.9211C16.6172 92.9718 16.6362 93.0279 16.6437 93.0861C16.6512 93.1442 16.6471 93.2033 16.6315 93.2599L15.9013 96.099Z" fill="#B6712C"/>
<path d="M20.7946 89.7722C20.7953 90.3896 20.6744 91.001 20.4386 91.5715C20.2029 92.142 19.857 92.6605 19.4207 93.0973C18.9845 93.534 18.4664 93.8805 17.8961 94.1169C17.3259 94.3533 16.7146 94.475 16.0973 94.475H10.9749C10.3576 94.475 9.74633 94.3533 9.17607 94.1169C8.60581 93.8805 8.08774 93.534 7.65148 93.0973C7.21522 92.6605 6.86933 92.142 6.63359 91.5715C6.39785 91.001 6.27687 90.3896 6.27759 89.7722C6.27759 88.5264 6.77249 87.3317 7.65341 86.4507C8.53433 85.5698 9.72911 85.0749 10.9749 85.0749H16.0973C17.3431 85.0749 18.5379 85.5698 19.4188 86.4507C20.2997 87.3317 20.7946 88.5264 20.7946 89.7722Z" fill="#7DA032"/>
<path d="M20.8818 90.2028C20.8818 91.3778 20.415 92.5047 19.5842 93.3355C18.7533 94.1664 17.6264 94.6332 16.4514 94.6332H11.6179C11.0356 94.6339 10.4589 94.5198 9.92081 94.2975C9.38267 94.0752 8.89364 93.7489 8.48167 93.3375C8.0697 92.926 7.74287 92.4374 7.51989 91.8995C7.2969 91.3616 7.18213 90.7851 7.18213 90.2028C7.18142 89.6201 7.29566 89.043 7.51833 88.5045C7.74099 87.966 8.0677 87.4767 8.47974 87.0647C8.89178 86.6527 9.38106 86.3259 9.91955 86.1033C10.458 85.8806 11.0352 85.7664 11.6179 85.7671H16.4514C17.0337 85.7671 17.6102 85.8819 18.1481 86.1048C18.686 86.3278 19.1746 86.6547 19.5861 87.0666C19.9975 87.4786 20.3238 87.9676 20.5461 88.5058C20.7684 89.0439 20.8825 89.6206 20.8818 90.2028Z" fill="#8DAF38"/>
<path d="M54.6839 95.9627C54.7182 96.0726 54.7076 96.1915 54.6545 96.2936C54.6014 96.3957 54.5102 96.4726 54.4006 96.5077C54.2914 96.5421 54.1731 96.5323 54.0712 96.4803C53.9692 96.4283 53.8918 96.3383 53.8556 96.2298L52.951 93.4397C52.9183 93.3299 52.9295 93.2116 52.9824 93.1099C53.0353 93.0082 53.1257 92.931 53.2344 92.8948C53.2884 92.877 53.3454 92.87 53.4021 92.8744C53.4589 92.8787 53.5142 92.8943 53.5648 92.9201C53.6155 92.946 53.6605 92.9816 53.6974 93.0249C53.7342 93.0683 53.762 93.1185 53.7793 93.1727L54.6839 95.9627Z" fill="#B6712C"/>
<path d="M56.3025 96.1207C56.3004 96.1785 56.2868 96.2352 56.2626 96.2877C56.2384 96.3401 56.204 96.3873 56.1614 96.4263C56.1188 96.4653 56.0689 96.4955 56.0145 96.5151C55.9601 96.5347 55.9024 96.5433 55.8447 96.5403C55.7875 96.5382 55.7312 96.5248 55.6791 96.501C55.627 96.4771 55.5801 96.4432 55.5411 96.4012C55.5022 96.3592 55.4719 96.3099 55.452 96.2562C55.4321 96.2024 55.4229 96.1453 55.4251 96.088L55.545 93.1617C55.5464 93.104 55.5593 93.0472 55.5828 92.9944C55.6064 92.9417 55.6402 92.8942 55.6823 92.8547C55.7244 92.8151 55.7739 92.7843 55.8279 92.7641C55.882 92.7438 55.9396 92.7345 55.9973 92.7367C56.055 92.7388 56.1118 92.7523 56.1642 92.7766C56.2167 92.8008 56.2638 92.8352 56.3029 92.8778C56.3419 92.9204 56.3721 92.9703 56.3917 93.0247C56.4112 93.079 56.4198 93.1367 56.4169 93.1944L56.3025 96.1207Z" fill="#B6712C"/>
<path d="M58.3078 96.1698C58.2932 96.2266 58.2675 96.28 58.2321 96.3267C58.1967 96.3735 58.1524 96.4127 58.1016 96.4422C58.0509 96.4716 57.9948 96.4906 57.9366 96.4981C57.8785 96.5056 57.8194 96.5014 57.7628 96.4859C57.706 96.4713 57.6527 96.4456 57.6059 96.4102C57.5592 96.3748 57.5199 96.3304 57.4905 96.2797C57.4611 96.229 57.442 96.1729 57.4345 96.1147C57.427 96.0565 57.4312 95.9975 57.4468 95.9409L58.177 93.1018C58.1915 93.045 58.2173 92.9916 58.2527 92.9449C58.2881 92.8981 58.3324 92.8589 58.3831 92.8294C58.4339 92.8 58.49 92.781 58.5481 92.7735C58.6063 92.766 58.6654 92.7701 58.7219 92.7857C58.7787 92.8003 58.8321 92.826 58.8789 92.8614C58.9256 92.8968 58.9649 92.9412 58.9943 92.9919C59.0237 93.0426 59.0427 93.0987 59.0502 93.1569C59.0577 93.2151 59.0536 93.2741 59.038 93.3307L58.3078 96.1698Z" fill="#B6712C"/>
<path d="M63.1796 89.8431C63.1803 90.4605 63.0594 91.0719 62.8236 91.6424C62.5879 92.2129 62.242 92.7314 61.8057 93.1682C61.3695 93.6049 60.8514 93.9514 60.2811 94.1878C59.7109 94.4242 59.0996 94.5459 58.4823 94.5459H53.3599C52.7426 94.5459 52.1313 94.4242 51.5611 94.1878C50.9908 93.9514 50.4727 93.6049 50.0365 93.1682C49.6002 92.7314 49.2543 92.2129 49.0186 91.6424C48.7829 91.0719 48.6619 90.4605 48.6626 89.8431C48.6626 88.5973 49.1575 87.4026 50.0384 86.5216C50.9193 85.6407 52.1141 85.1458 53.3599 85.1458H58.4823C59.7281 85.1458 60.9229 85.6407 61.8038 86.5216C62.6847 87.4026 63.1796 88.5973 63.1796 89.8431Z" fill="#7DA032"/>
<path d="M63.2668 90.2682C63.2682 91.4413 62.8043 92.5671 61.9769 93.3986C61.1494 94.2302 60.0259 94.6996 58.8528 94.704H54.0029C53.4202 94.7047 52.843 94.5904 52.3046 94.3678C51.7661 94.1451 51.2768 93.8184 50.8647 93.4063C50.4527 92.9943 50.126 92.505 49.9033 91.9665C49.6807 91.428 49.5664 90.8509 49.5671 90.2682C49.5671 89.6859 49.6819 89.1094 49.9049 88.5715C50.1279 88.0337 50.4547 87.545 50.8667 87.1336C51.2786 86.7221 51.7677 86.3959 52.3058 86.1736C52.844 85.9512 53.4206 85.8372 54.0029 85.8379H58.8528C60.0278 85.8379 61.1547 86.3047 61.9855 87.1355C62.8163 87.9663 63.2831 89.0932 63.2831 90.2682H63.2668Z" fill="#8DAF38"/>
<path d="M93.2218 96.0118C93.256 96.1217 93.2455 96.2406 93.1924 96.3426C93.1393 96.4447 93.048 96.5217 92.9384 96.5567C92.8286 96.5895 92.7103 96.5783 92.6086 96.5254C92.5069 96.4725 92.4298 96.3821 92.3935 96.2734L91.4944 93.4833C91.4599 93.3742 91.4697 93.2559 91.5217 93.1539C91.5737 93.052 91.6637 92.9745 91.7723 92.9384C91.8821 92.9056 92.0004 92.9169 92.1021 92.9697C92.2038 93.0226 92.281 93.113 92.3172 93.2218L93.2218 96.0118Z" fill="#B6712C"/>
<path d="M94.8183 96.1698C94.8127 96.2859 94.7614 96.3951 94.6757 96.4737C94.59 96.5522 94.4768 96.5938 94.3606 96.5894C94.2445 96.5837 94.1353 96.5325 94.0567 96.4468C93.9781 96.3611 93.9366 96.2478 93.941 96.1316L94.0609 93.2053C94.063 93.1481 94.0764 93.0918 94.1002 93.0397C94.1241 92.9876 94.158 92.9407 94.2 92.9018C94.2421 92.8628 94.2913 92.8325 94.3451 92.8126C94.3988 92.7927 94.4559 92.7835 94.5132 92.7857C94.5709 92.7871 94.6278 92.8 94.6805 92.8236C94.7332 92.8471 94.7807 92.8809 94.8203 92.923C94.8598 92.9651 94.8906 93.0146 94.9109 93.0687C94.9311 93.1228 94.9404 93.1803 94.9382 93.238L94.8183 96.1698Z" fill="#B6712C"/>
<path d="M96.8239 96.2135C96.8093 96.2703 96.7836 96.3236 96.7482 96.3704C96.7128 96.4172 96.6685 96.4564 96.6177 96.4858C96.567 96.5153 96.5109 96.5343 96.4528 96.5418C96.3946 96.5493 96.3355 96.5451 96.279 96.5295C96.2221 96.515 96.1688 96.4893 96.122 96.4539C96.0753 96.4185 96.036 96.3741 96.0066 96.3234C95.9772 96.2726 95.9581 96.2166 95.9506 96.1584C95.9431 96.1002 95.9473 96.0411 95.9629 95.9846L96.6986 93.1455C96.7124 93.0883 96.7377 93.0345 96.773 92.9873C96.8082 92.9401 96.8526 92.9006 96.9035 92.8711C96.9544 92.8415 97.0108 92.8226 97.0692 92.8155C97.1277 92.8083 97.187 92.8131 97.2435 92.8294C97.3003 92.844 97.3537 92.8697 97.4004 92.9051C97.4472 92.9405 97.4864 92.9848 97.5159 93.0356C97.5453 93.0863 97.5643 93.1424 97.5718 93.2006C97.5793 93.2587 97.5751 93.3178 97.5596 93.3744L96.8239 96.2135Z" fill="#B6712C"/>
<path d="M101.723 89.8922C101.723 90.5095 101.601 91.1208 101.365 91.691C101.128 92.2613 100.782 92.7793 100.345 93.2156C99.9082 93.6519 99.3897 93.9978 98.8191 94.2335C98.2486 94.4692 97.6372 94.5902 97.0199 94.5895H91.8975C90.6517 94.5895 89.4569 94.0946 88.576 93.2137C87.6951 92.3328 87.2002 91.138 87.2002 89.8922C87.1995 89.2748 87.3204 88.6634 87.5562 88.0929C87.7919 87.5224 88.1378 87.0039 88.5741 86.5671C89.0103 86.1304 89.5284 85.7839 90.0987 85.5475C90.6689 85.3111 91.2802 85.1894 91.8975 85.1894H96.9981C98.2453 85.1894 99.4415 85.6849 100.323 86.5668C101.205 87.4487 101.701 88.6449 101.701 89.8922H101.723Z" fill="#7DA032"/>
<path d="M101.81 90.3172C101.808 91.4927 101.34 92.6196 100.509 93.4503C99.677 94.2809 98.5496 94.7475 97.3741 94.7475H92.5405C91.365 94.7475 90.2376 94.2809 89.4059 93.4503C88.5742 92.6196 88.1062 91.4927 88.1047 90.3172C88.1047 89.1408 88.5721 88.0125 89.4039 87.1807C90.2358 86.3488 91.3641 85.8815 92.5405 85.8815H97.3741C98.5505 85.8815 99.6788 86.3488 100.511 87.1807C101.342 88.0125 101.81 89.1408 101.81 90.3172Z" fill="#8DAF38"/>
<path d="M139.895 95.4341C139.928 95.544 139.917 95.6622 139.864 95.764C139.811 95.8657 139.721 95.9428 139.612 95.979C139.558 95.9969 139.501 96.0038 139.444 95.9994C139.387 95.9951 139.332 95.9795 139.281 95.9537C139.231 95.9279 139.186 95.8922 139.149 95.8489C139.112 95.8055 139.084 95.7553 139.067 95.7011L138.162 92.9111C138.145 92.8567 138.138 92.7994 138.143 92.7424C138.147 92.6854 138.163 92.6299 138.19 92.5792C138.216 92.5285 138.252 92.4835 138.296 92.4469C138.34 92.4103 138.391 92.3829 138.446 92.3661C138.555 92.3317 138.673 92.3415 138.775 92.3935C138.877 92.4455 138.954 92.5355 138.991 92.6441L139.895 95.4341Z" fill="#B6712C"/>
<path d="M141.508 95.5922C141.506 95.6494 141.493 95.7057 141.469 95.7578C141.445 95.8099 141.411 95.8568 141.369 95.8957C141.327 95.9347 141.278 95.965 141.224 95.9849C141.171 96.0048 141.113 96.0139 141.056 96.0118C140.999 96.0104 140.942 95.9975 140.89 95.9739C140.837 95.9502 140.79 95.9163 140.751 95.8742C140.712 95.832 140.682 95.7824 140.662 95.7284C140.642 95.6743 140.634 95.6169 140.637 95.5595L140.751 92.6277C140.757 92.5116 140.808 92.4024 140.894 92.3238C140.979 92.2452 141.093 92.2037 141.209 92.2081C141.325 92.2138 141.434 92.265 141.513 92.3507C141.591 92.4364 141.633 92.5497 141.628 92.6659L141.508 95.5922Z" fill="#B6712C"/>
<path d="M143.492 95.6412C143.477 95.698 143.452 95.7513 143.416 95.7981C143.381 95.8449 143.336 95.8841 143.286 95.9135C143.235 95.943 143.179 95.962 143.121 95.9695C143.062 95.977 143.003 95.9728 142.947 95.9572C142.89 95.9428 142.837 95.917 142.79 95.8815C142.744 95.846 142.705 95.8016 142.676 95.7507C142.647 95.6998 142.628 95.6437 142.622 95.5855C142.615 95.5274 142.62 95.4685 142.636 95.4123L143.366 92.5732C143.381 92.5164 143.407 92.463 143.442 92.4163C143.477 92.3695 143.522 92.3303 143.573 92.3008C143.623 92.2714 143.679 92.2524 143.738 92.2449C143.796 92.2374 143.855 92.2416 143.911 92.2571C143.968 92.2717 144.022 92.2974 144.068 92.3328C144.115 92.3682 144.154 92.4126 144.184 92.4633C144.213 92.514 144.232 92.5701 144.24 92.6283C144.247 92.6865 144.243 92.7455 144.227 92.8021L143.492 95.6412Z" fill="#B6712C"/>
<path d="M148.391 89.3145C148.391 90.5608 147.896 91.7562 147.015 92.638C146.135 93.5198 144.94 94.0159 143.694 94.0173H138.571C137.324 94.0173 136.128 93.5218 135.246 92.6399C134.364 91.758 133.868 90.5618 133.868 89.3145C133.868 88.6972 133.99 88.086 134.226 87.5157C134.463 86.9454 134.809 86.4274 135.246 85.9911C135.683 85.5549 136.201 85.209 136.772 84.9732C137.342 84.7375 137.954 84.6165 138.571 84.6172H143.694C144.939 84.6172 146.134 85.1121 147.015 85.993C147.896 86.874 148.391 88.0687 148.391 89.3145Z" fill="#7DA032"/>
<path d="M148.478 89.7396C148.479 90.3223 148.364 90.8994 148.142 91.4379C147.919 91.9764 147.592 92.4657 147.18 92.8777C146.768 93.2898 146.279 93.6165 145.741 93.8391C145.202 94.0618 144.625 94.176 144.042 94.1753H139.209C138.626 94.1753 138.05 94.0606 137.512 93.8376C136.974 93.6146 136.485 93.2878 136.074 92.8758C135.663 92.4638 135.336 91.9748 135.114 91.4366C134.892 90.8985 134.778 90.3218 134.778 89.7396C134.778 88.5646 135.245 87.4377 136.076 86.6069C136.907 85.776 138.034 85.3093 139.209 85.3093H144.042C144.624 85.3086 145.201 85.4226 145.739 85.6449C146.277 85.8673 146.766 86.1935 147.178 86.6049C147.59 87.0164 147.917 87.505 148.14 88.0429C148.363 88.5808 148.478 89.1573 148.478 89.7396Z" fill="#8DAF38"/>
<path d="M222.682 95.4342C222.699 95.4885 222.706 95.5459 222.701 95.6029C222.696 95.6599 222.68 95.7153 222.654 95.7661C222.628 95.8168 222.591 95.8618 222.548 95.8983C222.504 95.9349 222.453 95.9624 222.398 95.9791C222.289 96.0136 222.171 96.0038 222.069 95.9518C221.967 95.8998 221.889 95.8098 221.853 95.7012L220.949 92.9111C220.916 92.8013 220.927 92.683 220.98 92.5813C221.033 92.4796 221.123 92.4024 221.232 92.3662C221.286 92.3484 221.343 92.3415 221.4 92.3458C221.456 92.3502 221.512 92.3657 221.562 92.3915C221.613 92.4174 221.658 92.453 221.695 92.4964C221.732 92.5397 221.76 92.5899 221.777 92.6441L222.682 95.4342Z" fill="#B6712C"/>
<path d="M224.3 95.5922C224.298 95.6499 224.284 95.7067 224.26 95.7591C224.236 95.8116 224.202 95.8587 224.159 95.8977C224.116 95.9368 224.066 95.967 224.012 95.9865C223.958 96.0061 223.9 96.0147 223.842 96.0118C223.785 96.0097 223.729 95.9963 223.677 95.9724C223.625 95.9485 223.578 95.9146 223.539 95.8726C223.5 95.8306 223.469 95.7813 223.45 95.7276C223.43 95.6739 223.42 95.6167 223.423 95.5595L223.543 92.6277C223.548 92.5126 223.599 92.4042 223.683 92.3258C223.768 92.2474 223.88 92.2051 223.995 92.2081C224.111 92.2138 224.221 92.2649 224.301 92.3504C224.38 92.4359 224.423 92.5492 224.42 92.6659L224.3 95.5922Z" fill="#B6712C"/>
<path d="M226.283 95.6412C226.269 95.698 226.243 95.7513 226.208 95.7981C226.172 95.8448 226.128 95.8841 226.077 95.9135C226.026 95.9429 225.97 95.962 225.912 95.9695C225.854 95.977 225.795 95.9728 225.738 95.9572C225.682 95.9427 225.628 95.917 225.581 95.8816C225.535 95.8462 225.495 95.8018 225.466 95.7511C225.437 95.7003 225.418 95.6442 225.41 95.5861C225.403 95.5279 225.407 95.4688 225.422 95.4123L226.158 92.5732C226.172 92.516 226.197 92.4622 226.232 92.415C226.268 92.3678 226.312 92.3283 226.363 92.2988C226.414 92.2692 226.47 92.2503 226.529 92.2432C226.587 92.236 226.646 92.2407 226.703 92.2571C226.76 92.2717 226.813 92.2974 226.86 92.3328C226.907 92.3682 226.946 92.4125 226.975 92.4633C227.005 92.514 227.024 92.5701 227.031 92.6283C227.039 92.6864 227.035 92.7455 227.019 92.8021L226.283 95.6412Z" fill="#B6712C"/>
<path d="M231.182 89.3145C231.182 90.5618 230.687 91.758 229.805 92.6399C228.923 93.5218 227.727 94.0173 226.48 94.0173H221.357C220.111 94.0159 218.916 93.5198 218.035 92.638C217.155 91.7562 216.66 90.5608 216.66 89.3145C216.66 88.0687 217.155 86.874 218.036 85.993C218.917 85.1121 220.111 84.6172 221.357 84.6172H226.48C227.097 84.6165 227.708 84.7375 228.279 84.9732C228.849 85.209 229.368 85.5549 229.805 85.9911C230.241 86.4274 230.588 86.9454 230.824 87.5157C231.061 88.086 231.182 88.6972 231.182 89.3145Z" fill="#7DA032"/>
<path d="M231.27 89.7396C231.27 90.916 230.802 92.0443 229.97 92.8761C229.138 93.708 228.01 94.1753 226.834 94.1753H222C220.824 94.1753 219.696 93.708 218.864 92.8761C218.032 92.0443 217.564 90.916 217.564 89.7396C217.566 88.5641 218.034 87.4372 218.866 86.6065C219.697 85.7758 220.825 85.3093 222 85.3093H226.834C228.009 85.3093 229.137 85.7758 229.968 86.6065C230.8 87.4372 231.268 88.5641 231.27 89.7396Z" fill="#8DAF38"/>
<path d="M55.8231 24.5383L36.0747 95.8973H55.9212L55.8231 24.5383Z" fill="#95B4A1"/>
<path d="M53.3272 30.1348H40.7773V42.0634H53.3272V30.1348Z" fill="#39828F"/>
<path d="M43.4203 30.1348L53.3326 35.219V40.4885L40.7773 34.5869V30.1348H43.4203Z" fill="#619BA5"/>
<path d="M53.3326 41.1534L40.7773 35.3117V36.3688L53.3326 42.0634V41.1534Z" fill="#619BA5"/>
<path d="M47.6436 30.1348H46.6191V42.0634H47.6436V30.1348Z" fill="#DFC2C2"/>
<path d="M53.3272 35.6441H40.7773V36.6141H53.3272V35.6441Z" fill="#DFC2C2"/>
<path d="M53.3272 29.0558H40.7773V30.1293H53.3272V29.0558Z" fill="#DFC2C2"/>
<path d="M54.4714 29.0558H53.3325V42.0634H54.4714V29.0558Z" fill="#DFC2C2"/>
<path d="M40.7774 29.0558H39.5676V42.0634H40.7774V29.0558Z" fill="#DFC2C2"/>
<path d="M54.4715 42.0634H39.5676V43.3331H54.4715V42.0634Z" fill="#DFC2C2"/>
<path d="M53.3272 52.8149H40.7773V64.7435H53.3272V52.8149Z" fill="#39828F"/>
<path d="M43.4203 52.8149L53.3326 57.8992V63.1687L40.7773 57.2616V52.8149H43.4203Z" fill="#619BA5"/>
<path d="M53.3326 63.8335L40.7773 57.9918V59.049L53.3326 64.7436V63.8335Z" fill="#619BA5"/>
<path d="M47.6436 52.8149H46.6191V64.7435H47.6436V52.8149Z" fill="#DFC2C2"/>
<path d="M53.3272 58.3242H40.7773V59.2941H53.3272V58.3242Z" fill="#DFC2C2"/>
<path d="M53.3272 51.736H40.7773V52.8095H53.3272V51.736Z" fill="#DFC2C2"/>
<path d="M54.4714 51.736H53.3325V64.7436H54.4714V51.736Z" fill="#DFC2C2"/>
<path d="M40.7774 51.736H39.5676V64.7436H40.7774V51.736Z" fill="#DFC2C2"/>
<path d="M54.4715 64.7435H39.5676V66.0132H54.4715V64.7435Z" fill="#DFC2C2"/>
<path d="M53.3272 76.1816H40.7773V88.1102H53.3272V76.1816Z" fill="#39828F"/>
<path d="M43.4203 76.1762L53.3326 81.2659V86.5354L40.7773 80.6283V76.1762H43.4203Z" fill="#619BA5"/>
<path d="M53.3326 87.2002L40.7773 81.3585V82.4157L53.3326 88.1103V87.2002Z" fill="#619BA5"/>
<path d="M47.6436 76.1816H46.6191V88.1102H47.6436V76.1816Z" fill="#DFC2C2"/>
<path d="M53.3272 81.691H40.7773V82.661H53.3272V81.691Z" fill="#DFC2C2"/>
<path d="M53.3272 75.1027H40.7773V76.1762H53.3272V75.1027Z" fill="#DFC2C2"/>
<path d="M54.4714 75.1027H53.3325V88.1102H54.4714V75.1027Z" fill="#DFC2C2"/>
<path d="M40.7774 75.1027H39.5676V88.1102H40.7774V75.1027Z" fill="#DFC2C2"/>
<path d="M54.4715 88.1103H39.5676V89.38H54.4715V88.1103Z" fill="#DFC2C2"/>
<path d="M181.692 24.5383L201.435 95.8973H181.594L181.692 24.5383Z" fill="#95B4A1"/>
<path d="M196.645 30.1348H184.095V42.0634H196.645V30.1348Z" fill="#39828F"/>
<path d="M194.007 30.1348L184.095 35.219V40.4885L196.65 34.5869V30.1348H194.007Z" fill="#619BA5"/>
<path d="M184.095 41.1534L196.65 35.3117V36.3688L184.095 42.0634V41.1534Z" fill="#619BA5"/>
<path d="M190.808 30.1348H189.784V42.0634H190.808V30.1348Z" fill="#DFC2C2"/>
<path d="M196.645 35.6441H184.095V36.6141H196.645V35.6441Z" fill="#DFC2C2"/>
<path d="M196.645 29.0558H184.095V30.1293H196.645V29.0558Z" fill="#DFC2C2"/>
<path d="M184.1 29.0558H182.961V42.0634H184.1V29.0558Z" fill="#DFC2C2"/>
<path d="M197.865 29.0558H196.65V42.0634H197.865V29.0558Z" fill="#DFC2C2"/>
<path d="M197.865 42.0634H182.961V43.3331H197.865V42.0634Z" fill="#DFC2C2"/>
<path d="M196.645 52.8149H184.095V64.7435H196.645V52.8149Z" fill="#39828F"/>
<path d="M194.007 52.8149L184.095 57.8992V63.1687L196.65 57.2616V52.8149H194.007Z" fill="#619BA5"/>
<path d="M184.095 63.8335L196.65 57.9918V59.049L184.095 64.7436V63.8335Z" fill="#619BA5"/>
<path d="M190.808 52.8149H189.784V64.7435H190.808V52.8149Z" fill="#DFC2C2"/>
<path d="M196.645 58.3242H184.095V59.2941H196.645V58.3242Z" fill="#DFC2C2"/>
<path d="M196.645 51.736H184.095V52.8095H196.645V51.736Z" fill="#DFC2C2"/>
<path d="M184.1 51.736H182.961V64.7436H184.1V51.736Z" fill="#DFC2C2"/>
<path d="M197.865 51.736H196.65V64.7436H197.865V51.736Z" fill="#DFC2C2"/>
<path d="M197.865 64.7435H182.961V66.0132H197.865V64.7435Z" fill="#DFC2C2"/>
<path d="M196.645 76.1816H184.095V88.1102H196.645V76.1816Z" fill="#39828F"/>
<path d="M194.007 76.1762L184.095 81.2659V86.5354L196.65 80.6283V76.1762H194.007Z" fill="#619BA5"/>
<path d="M184.095 87.2002L196.65 81.3585V82.4157L184.095 88.1103V87.2002Z" fill="#619BA5"/>
<path d="M190.808 76.1816H189.784V88.1102H190.808V76.1816Z" fill="#DFC2C2"/>
<path d="M196.645 81.691H184.095V82.661H196.645V81.691Z" fill="#DFC2C2"/>
<path d="M196.645 75.1027H184.095V76.1762H196.645V75.1027Z" fill="#DFC2C2"/>
<path d="M184.1 75.1027H182.961V88.1102H184.1V75.1027Z" fill="#DFC2C2"/>
<path d="M197.865 75.1027H196.65V88.1102H197.865V75.1027Z" fill="#DFC2C2"/>
<path d="M197.865 88.1103H182.961V89.38H197.865V88.1103Z" fill="#DFC2C2"/>
<path d="M78.0998 44.4066H69.9966V46.2539H78.0998V44.4066Z" fill="#AFC4A7"/>
<path d="M81.5873 47.1476H73.4841V48.9949H81.5873V47.1476Z" fill="#AFC4A7"/>
<path d="M87.3473 44.4066H79.2441V46.2539H87.3473V44.4066Z" fill="#AFC4A7"/>
<path d="M85.6361 49.7088H77.533V51.5561H85.6361V49.7088Z" fill="#AFC4A7"/>
<path d="M158.161 44.4938H150.058V46.3411H158.161V44.4938Z" fill="#AFC4A7"/>
<path d="M161.649 47.2348H153.546V49.0822H161.649V47.2348Z" fill="#AFC4A7"/>
<path d="M167.409 44.4938H159.306V46.3411H167.409V44.4938Z" fill="#AFC4A7"/>
<path d="M165.703 49.7961H157.6V51.6434H165.703V49.7961Z" fill="#AFC4A7"/>
<path d="M171.327 70.0675H165.316V71.4353H171.327V70.0675Z" fill="#AFC4A7"/>
<path d="M175.599 68.0349H169.589V69.4027H175.599V68.0349Z" fill="#AFC4A7"/>
<path d="M174.33 71.9693H168.319V73.3371H174.33V71.9693Z" fill="#AFC4A7"/>
<path d="M66.5145 70.0675H60.5039V71.4353H66.5145V70.0675Z" fill="#AFC4A7"/>
<path d="M70.7867 68.0349H64.7761V69.4027H70.7867V68.0349Z" fill="#AFC4A7"/>
<path d="M69.5226 71.9693H63.512V73.3371H69.5226V71.9693Z" fill="#AFC4A7"/>
<path d="M124.855 76.7102H110.556V95.9518H124.855V76.7102Z" fill="white"/>
<path d="M116.796 77.653H112.017V81.7672H116.796V77.653Z" fill="#619BA5"/>
<path d="M123.493 77.653H118.714V81.7672H123.493V77.653Z" fill="#619BA5"/>
<path d="M116.796 83.2385H112.017V87.3528H116.796V83.2385Z" fill="#619BA5"/>
<path d="M123.493 83.2385H118.714V87.3528H123.493V83.2385Z" fill="#619BA5"/>
<path d="M116.796 88.8187H112.017V92.9329H116.796V88.8187Z" fill="#619BA5"/>
<path d="M123.493 88.8187H118.714V92.9329H123.493V88.8187Z" fill="#619BA5"/>
<path d="M181.675 95.4341C181.693 95.4882 181.7 95.5452 181.696 95.6019C181.691 95.6586 181.676 95.7139 181.65 95.7645C181.624 95.8152 181.588 95.8603 181.545 95.8971C181.502 95.9339 181.452 95.9618 181.397 95.9791C181.288 96.0121 181.171 96.0016 181.069 95.9498C180.967 95.898 180.89 95.8089 180.852 95.7011L179.953 92.9111C179.935 92.8571 179.929 92.8001 179.933 92.7433C179.937 92.6866 179.953 92.6314 179.979 92.5807C180.004 92.53 180.04 92.485 180.083 92.4481C180.127 92.4113 180.177 92.3835 180.231 92.3662C180.34 92.3331 180.458 92.3436 180.56 92.3954C180.661 92.4472 180.739 92.5363 180.776 92.6441L181.675 95.4341Z" fill="#B6712C"/>
<path d="M183.294 95.5922C183.292 95.6494 183.278 95.7057 183.254 95.7578C183.23 95.8099 183.197 95.8568 183.155 95.8957C183.112 95.9347 183.063 95.965 183.009 95.9849C182.956 96.0048 182.899 96.0139 182.841 96.0118C182.784 96.0103 182.727 95.9975 182.674 95.9739C182.621 95.9504 182.574 95.9166 182.534 95.8745C182.495 95.8324 182.464 95.7829 182.444 95.7288C182.423 95.6747 182.414 95.6172 182.416 95.5595L182.536 92.6277C182.542 92.5116 182.593 92.4024 182.679 92.3238C182.765 92.2452 182.878 92.2037 182.994 92.2081C183.11 92.2151 183.218 92.2668 183.296 92.3522C183.375 92.4376 183.417 92.5501 183.414 92.6659L183.294 95.5922Z" fill="#B6712C"/>
<path d="M185.277 95.6412C185.263 95.698 185.237 95.7513 185.202 95.7981C185.166 95.8449 185.122 95.8841 185.071 95.9135C185.02 95.943 184.964 95.962 184.906 95.9695C184.848 95.977 184.789 95.9728 184.732 95.9572C184.676 95.9427 184.622 95.917 184.575 95.8816C184.529 95.8462 184.489 95.8018 184.46 95.7511C184.431 95.7003 184.412 95.6442 184.404 95.5861C184.397 95.5279 184.401 95.4688 184.416 95.4123L185.152 92.5732C185.166 92.5164 185.192 92.463 185.228 92.4163C185.263 92.3695 185.307 92.3303 185.358 92.3008C185.409 92.2714 185.465 92.2524 185.523 92.2449C185.581 92.2374 185.64 92.2416 185.697 92.2571C185.754 92.2709 185.808 92.2962 185.855 92.3316C185.902 92.3669 185.941 92.4114 185.97 92.4625C185.999 92.5135 186.017 92.57 186.024 92.6284C186.03 92.6868 186.025 92.7459 186.007 92.8021L185.277 95.6412Z" fill="#B6712C"/>
<path d="M190.181 89.3145C190.181 90.5608 189.687 91.7562 188.806 92.638C187.925 93.5198 186.73 94.0159 185.484 94.0173H180.373C179.125 94.0173 177.929 93.5218 177.047 92.6399C176.165 91.758 175.67 90.5618 175.67 89.3145C175.67 88.6972 175.792 88.086 176.028 87.5157C176.264 86.9454 176.611 86.4274 177.048 85.9911C177.484 85.5549 178.003 85.209 178.573 84.9732C179.144 84.7375 179.755 84.6165 180.373 84.6172H185.495C186.741 84.6172 187.936 85.1121 188.817 85.993C189.697 86.874 190.192 88.0687 190.192 89.3145H190.181Z" fill="#7DA032"/>
<path d="M190.263 89.7396C190.264 90.3223 190.15 90.8994 189.927 91.4379C189.704 91.9764 189.378 92.4657 188.966 92.8777C188.554 93.2898 188.064 93.6165 187.526 93.8391C186.987 94.0618 186.41 94.176 185.828 94.1753H180.994C180.412 94.1753 179.835 94.0606 179.297 93.8376C178.759 93.6146 178.271 93.2878 177.859 92.8758C177.448 92.4638 177.122 91.9748 176.899 91.4366C176.677 90.8985 176.563 90.3218 176.564 89.7396C176.564 88.5646 177.03 87.4377 177.861 86.6069C178.692 85.776 179.819 85.3093 180.994 85.3093H185.822C186.404 85.3086 186.981 85.4226 187.519 85.6449C188.057 85.8673 188.546 86.1935 188.958 86.6049C189.37 87.0164 189.697 87.505 189.92 88.0429C190.143 88.5808 190.258 89.1573 190.258 89.7396H190.263Z" fill="#8DAF38"/>
</g>
<defs>
<clipPath id="clip0">
<rect width="236.501" height="102.938" fill="white"/>
</clipPath>
</defs>
</svg>
