<svg width="174" height="213" viewBox="0 0 174 213" fill="none" xmlns="http://www.w3.org/2000/svg">
<g clip-path="url(#clip0)">
<path d="M7.25856 121.261C5.37614 120.874 4.90714 122.087 3.00377 121.69L3.4502 124.621C3.19395 125.191 2.62342 126.714 2.62342 126.714C0.504083 132.848 0.620123 132.188 0.831251 132.302C1.04238 132.416 2.6347 130.146 2.81521 130.358C2.99571 130.569 1.90301 134.219 2.22856 134.123C2.55412 134.027 3.97238 130.779 4.15611 130.901C4.33984 131.023 3.23424 134.529 3.7129 134.653C4.19156 134.775 5.27299 130.893 5.61305 131.145C5.95311 131.397 4.74436 135.347 5.19885 135.389C5.58082 135.424 7.04098 131.039 7.49708 129.642C7.5551 129.462 7.79202 129.42 7.91128 129.568C9.73729 131.847 10.0129 131.916 10.2176 131.659C10.3626 131.476 9.42302 128.996 8.67521 126.626L7.68242 123.736L7.25856 121.261Z" fill="#FFC0BB"/>
<path d="M34.7662 66.2986C34.9612 69.4723 35.0837 72.6509 35.1546 75.8295C35.1981 77.418 35.2094 79.0081 35.2304 80.5981C35.2368 82.1882 35.2384 83.7783 35.2255 85.3684C35.2191 86.1635 35.2094 86.9585 35.1917 87.7536C35.174 88.5486 35.1659 89.3436 35.1417 90.1387C35.0853 91.7288 35.0434 93.3173 34.9483 94.9057C34.7791 98.0811 34.5374 101.258 34.0764 104.406L34.157 103.216L34.2473 102.027C34.2956 101.234 34.3278 100.441 34.3697 99.6487L34.402 99.0544L34.4245 98.4585L34.4681 97.2684L34.5148 96.0782L34.5454 94.8881C34.6373 91.7143 34.684 88.539 34.7082 85.362C34.7436 82.1866 34.7469 79.0097 34.7517 75.8327L34.7662 66.2986Z" fill="#81CAEF"/>
<path d="M42.9471 147.133C42.9471 147.133 43.3371 148.887 42.9471 151.127C42.557 153.368 32.4116 206.66 32.4116 206.66L37.7672 207.439C37.7672 207.439 55.2408 157.947 56.2159 154.634C57.1909 151.322 58.2643 146.645 54.9475 143.04C51.6291 139.436 42.9471 147.133 42.9471 147.133Z" fill="#FFC0BB"/>
<path d="M23.6073 29.1611C23.6073 29.1611 20.2615 26.9735 16.4547 29.1611C12.648 31.3471 12.648 38.7225 14.1468 40.4877C15.6473 42.2528 14.0695 44.6412 17.0688 46.946C20.0681 49.2508 24.845 50.0957 27.572 47.4038C30.2989 44.7118 28.2988 38.7064 28.2988 38.7064L23.6073 29.1611Z" fill="#07085B"/>
<path d="M18.967 142.08C18.967 142.08 20.0211 167.475 20.1178 171.86C20.2161 176.244 22.4595 208.783 23.4346 211.61L28.8981 211.22C28.8981 211.22 32.6243 148.219 31.4542 142.08C30.2825 135.941 18.967 142.08 18.967 142.08Z" fill="#FFC0BB"/>
<path d="M82.0733 53.6855C82.1104 53.8622 82.328 53.9296 82.4553 53.8028C83.4481 52.8166 86.5892 49.7328 86.897 49.9271C87.2645 50.1584 84.5247 52.9836 84.7036 53.3434C84.8825 53.7048 87.4853 50.8828 87.8382 51.1928C88.1912 51.5044 85.7318 53.9971 85.8333 54.1802C85.9365 54.3633 88.549 52.2255 88.8649 52.2849C89.1824 52.3444 86.6714 54.964 86.7326 55.221C86.7939 55.478 89.1292 54.2445 89.2581 54.4324C89.387 54.6203 89.5047 54.7231 85.0452 59.0051L83.2176 60.6161L81.0145 61.1268L79.4592 58.8991C79.4592 58.8991 80.726 51.0498 81.0241 50.9149C81.311 50.7848 81.5141 50.9631 82.0733 53.6855Z" fill="#FFC0BB"/>
<path d="M22.5806 142.08L27.1126 158.831C37.5803 158.819 53.1957 157.851 60.9526 152.687C60.9526 152.687 50.8121 105.622 44.0801 93.8328L20.9592 92.5656C20.9592 92.5656 4.92643 114.87 16.6319 158.517C16.6319 158.517 18.6336 158.665 21.8279 158.757L22.5806 142.08Z" fill="#09083C"/>
<path d="M26.8499 47.3796C26.8499 47.3796 27.0561 48.9778 27.1915 50.9116C28.9402 52.3234 31.1997 53.0462 33.556 52.7426C34.3312 52.643 35.0661 52.4358 35.7543 52.1419C35.6995 50.8811 35.7188 49.7118 35.9138 49.1512C36.4521 47.6125 26.8499 47.3796 26.8499 47.3796Z" fill="#F99893"/>
<path d="M43.4838 55.5228L65.3879 72.0903L79.4126 57.7249C79.4126 57.7249 83.6078 60.9564 83.6078 60.897C83.6078 60.8376 70.4228 81.4268 67.1865 82.5046C63.9503 83.5823 43.0664 69.0482 43.0664 69.0482L43.4838 55.5228Z" fill="#8DB596"/>
<path d="M42.2139 45.5165C42.5136 44.9527 42.7634 44.3585 42.9585 43.7385C43.5161 42.0713 43.7643 40.3126 43.861 38.7819C43.8819 38.4543 43.9206 38.1266 43.9674 37.8022C44.1511 36.4867 44.0995 35.1006 43.7417 33.6856C42.5942 29.1322 38.5103 25.8139 33.8139 25.6275C27.4865 25.377 22.4388 30.5311 22.6515 36.6843C21.9682 36.3357 21.2139 36.2763 20.5612 36.5943C19.3105 37.2047 18.9157 38.965 19.6796 40.5278C20.4435 42.089 22.0778 42.8599 23.3284 42.2496C23.5025 42.1645 23.6572 42.0553 23.7974 41.93C24.5114 47.1467 28.9467 51.0401 34.0943 50.7783C36.6117 50.6498 38.8584 49.5496 40.5184 47.8438C40.6296 47.7442 40.7473 47.627 40.8681 47.4921C41.4032 46.8978 41.8448 46.2296 42.2139 45.5165Z" fill="#FFC0BB"/>
<path d="M32.5792 38.1523C32.6083 38.7064 32.1812 39.1786 31.6251 39.2075C31.0707 39.2365 30.5969 38.8092 30.5695 38.2551C30.5405 37.701 30.9676 37.2288 31.5236 37.1999C32.078 37.1725 32.5502 37.5982 32.5792 38.1523Z" fill="#333333"/>
<path d="M40.8406 38.1523C40.8696 38.7064 40.4425 39.1786 39.8865 39.2075C39.3321 39.2365 38.8583 38.8092 38.8293 38.2551C38.8003 37.701 39.229 37.2288 39.7834 37.1999C40.3394 37.1725 40.8116 37.5982 40.8406 38.1523Z" fill="#333333"/>
<path d="M35.6528 36.2362C35.6463 36.5606 35.6431 36.8835 35.656 37.2063C35.6641 37.5292 35.6834 37.8504 35.7157 38.1716C35.7495 38.4912 35.793 38.8093 35.8704 39.1176C35.9461 39.4244 36.0509 39.7296 36.2314 39.9721C36.2556 40.001 36.2765 40.0331 36.3039 40.0572C36.3297 40.0845 36.3523 40.1086 36.3861 40.1408C36.4167 40.1713 36.4473 40.2002 36.4747 40.2339C36.5038 40.266 36.5312 40.2998 36.5553 40.3351C36.6569 40.4764 36.731 40.6419 36.7552 40.8169C36.8084 41.1703 36.6649 41.5237 36.4393 41.7726C36.2153 42.028 35.9187 42.2031 35.6093 42.3139C35.2966 42.4231 34.9695 42.4729 34.6455 42.4697C34.8067 42.4504 34.9662 42.4231 35.1226 42.3862C35.2789 42.3476 35.4304 42.2962 35.577 42.232C35.8688 42.1051 36.1363 41.9236 36.3329 41.6827C36.5263 41.445 36.6424 41.1382 36.5876 40.8443C36.565 40.6981 36.5038 40.56 36.4135 40.4395C36.3925 40.409 36.3684 40.3801 36.3426 40.3512C36.3184 40.3223 36.291 40.2966 36.2636 40.2692L36.1734 40.1793C36.1411 40.1488 36.117 40.1135 36.0896 40.0797C35.9848 39.94 35.9107 39.7874 35.8494 39.6316C35.7882 39.4758 35.7414 39.3152 35.706 39.1546C35.6351 38.8317 35.5948 38.5057 35.577 38.1813C35.5368 37.5324 35.5674 36.8803 35.6528 36.2362Z" fill="#F99893"/>
<path d="M46.3928 77.1706C46.4702 77.0886 49.8305 73.5101 49.1778 66.798C48.8232 63.1553 46.9408 59.829 45.2711 57.5273C43.7948 55.4907 41.4466 54.2685 38.9292 54.2219C34.3328 54.1368 26.9965 54.0372 26.9965 54.0372C26.9965 54.0372 17.5312 52.9996 14.5303 56.6889C11.531 60.375 1.37429 85.9642 0.797317 98.1822C0.220342 110.402 3.22126 124.809 3.22126 124.809C3.22126 124.809 6.56868 125.039 8.06913 124.809C9.56959 124.578 7.72263 101.179 9.33912 97.3759C10.9556 93.5726 18.2258 75.3604 18.6884 73.6306L20.4902 83.1663C20.8222 84.9251 20.6691 86.7384 20.0454 88.4152C18.5175 92.527 15.5666 100.429 14.3772 103.359C14.3772 103.359 37.1 107.01 48.2962 101.476L48.1947 101.048C46.3316 93.2272 45.7369 85.1692 46.3928 77.1706Z" fill="#8DB596"/>
<path d="M33.4255 36.4772C32.9678 36.2347 32.4923 36.0548 32.0088 35.9343C31.5237 35.8187 31.0289 35.7753 30.5422 35.8219C30.2989 35.8428 30.0571 35.891 29.8218 35.9584C29.7025 35.9889 29.5881 36.0323 29.4705 36.0725C29.4124 36.0933 29.356 36.1206 29.2996 36.1431C29.2416 36.1656 29.1836 36.1881 29.1288 36.217C28.6791 36.4306 28.2553 36.7117 27.8411 37.0249C28.1489 36.6073 28.5421 36.2459 28.995 35.9697C29.2223 35.8315 29.464 35.7143 29.7203 35.6324C29.9749 35.5472 30.2392 35.4878 30.5084 35.4637C31.045 35.4139 31.5898 35.4862 32.0894 35.6661C32.3408 35.7528 32.5794 35.8685 32.805 36.0018C33.0274 36.1383 33.2434 36.2909 33.4255 36.4772Z" fill="#07085B"/>
<path d="M37.4805 36.4772C37.6626 36.2909 37.8785 36.1383 38.1026 36.0034C38.3282 35.8701 38.5667 35.7544 38.8181 35.6677C39.3178 35.4878 39.8625 35.4155 40.3992 35.4653C40.6683 35.4878 40.9326 35.5472 41.1873 35.634C41.4419 35.7175 41.6853 35.8331 41.9125 35.9712C42.367 36.2475 42.7587 36.6073 43.0665 37.0265C42.6523 36.7133 42.2284 36.4338 41.7788 36.2186C41.724 36.1897 41.6659 36.1672 41.6079 36.1447C41.5499 36.1222 41.4951 36.0949 41.4371 36.074C41.3194 36.0339 41.205 35.9889 41.0858 35.96C40.8505 35.8941 40.6087 35.8444 40.3653 35.8235C39.8786 35.7769 39.3838 35.8203 38.8987 35.9359C38.4136 36.0548 37.9382 36.2346 37.4805 36.4772Z" fill="#07085B"/>
<path d="M43.3564 28.1894C41.3757 21.3922 32.3326 21.1512 32.3326 21.1512C18.3466 22.1198 20.5498 34.3715 21.0107 36.3984C21.4152 36.3053 21.9729 36.3165 22.6498 36.6827C22.935 36.8369 23.1655 36.9991 23.3525 37.163C24.9996 36.6618 25.4992 33.9298 26.3518 32.6143C27.5089 30.8283 32.6082 31.7502 34.5422 30.483C36.4778 29.2157 36.6745 27.2562 36.6745 27.2562C44.1348 28.4367 44.0188 36.3101 44.0188 36.3101C44.3411 36.2378 44.7392 36.2732 44.7392 36.2732C44.7392 36.2732 45.126 34.2623 43.3564 28.1894Z" fill="#07085B"/>
<path d="M38.3956 43.6566C38.141 44.7006 36.9226 45.5021 35.4479 45.5181C33.9732 45.5342 32.7371 44.76 32.4583 43.7209L38.3956 43.6566Z" fill="white"/>
<path d="M36.0959 209.591L37.9606 210.802C38.8244 211.352 38.4344 212.69 37.4094 212.69H23.2445C22.7449 212.69 22.3403 212.285 22.3403 211.787V208.827C31.775 211.824 35.0322 210.912 36.0959 209.591Z" fill="#07085B"/>
<path d="M45.1374 208.424L46.5267 210.16C47.173 210.953 46.3816 212.1 45.4082 211.777L31.9637 207.323C31.4899 207.166 31.232 206.655 31.39 206.181L32.3231 203.372C40.3331 209.183 43.7127 209.342 45.1374 208.424Z" fill="#07085B"/>
</g>
<g clip-path="url(#clip1)">
<path d="M124.219 12.0139C124.219 12.0139 124.573 20.883 125.773 25.6904L128.67 11.3101L124.219 12.0139Z" fill="#005692"/>
<path d="M145.677 188.813L147.693 201.583H151.724L151.157 188.813H145.677Z" fill="#F8B78F"/>
<path d="M154.562 207.971V206.766C154.562 206.766 153.037 203.885 152.298 201.523L151.724 201.1L151.039 199.806H148.036L147.657 200.975L147.042 201.464C146.345 204.088 145.683 206.766 145.683 206.766V207.971C145.683 207.971 147.829 210.225 149.809 210.333C149.803 210.333 154.036 210.894 154.562 207.971Z" fill="#6F422E"/>
<path d="M154.562 206.867V207.971C154.036 210.893 149.809 210.333 149.809 210.333C147.829 210.219 145.683 207.971 145.683 207.971V206.867C145.683 206.867 148.272 209.85 152.044 208.919C152.038 208.913 154.243 208.621 154.562 206.867Z" fill="white"/>
<path d="M147.037 205.83C147.108 205.704 147.173 205.585 147.249 205.466L147.255 205.46C147.439 205.245 147.663 205.102 147.917 205.036C147.982 205.019 148.042 205.013 148.112 205.007L148.278 204.989L148.621 204.953C149.076 204.917 149.531 204.899 149.986 204.911C150.442 204.917 150.897 204.935 151.352 204.995L151.523 205.013C151.541 205.018 151.588 205.018 151.624 205.03L151.713 205.054C151.831 205.09 151.949 205.132 152.061 205.203C152.28 205.329 152.511 205.537 152.564 205.836C152.41 205.609 152.197 205.537 151.984 205.496C151.878 205.478 151.772 205.466 151.665 205.466H151.588C151.565 205.466 151.553 205.472 151.517 205.478L151.346 205.496C150.891 205.549 150.436 205.573 149.98 205.579C149.525 205.585 149.07 205.567 148.615 205.537L148.272 205.502L147.947 205.466C147.752 205.46 147.527 205.508 147.338 205.609L147.344 205.603C147.249 205.681 147.143 205.758 147.037 205.83Z" fill="white"/>
<path d="M148.497 202.245C148.987 201.625 150.099 201.625 150.578 202.245C150.82 202.561 151.198 202.078 150.962 201.768C150.282 200.879 148.81 200.885 148.113 201.768C147.87 202.078 148.249 202.561 148.497 202.245Z" fill="white"/>
<path d="M148.237 203.366C148.851 202.722 150.235 202.722 150.832 203.366C151.098 203.647 151.482 203.17 151.216 202.883C150.371 201.977 148.709 201.983 147.858 202.883C147.586 203.164 147.971 203.641 148.237 203.366Z" fill="white"/>
<path d="M147.87 204.535C148.709 203.808 150.37 203.802 151.198 204.535C151.482 204.792 151.754 204.201 151.47 203.951C150.495 203.086 148.585 203.092 147.598 203.951C147.314 204.195 147.586 204.786 147.87 204.535Z" fill="white"/>
<path d="M130.23 198.243H126.093V203.718H130.23V198.243Z" fill="#F8B78F"/>
<path d="M125.596 201.332L113.614 206.187C113.159 206.402 113.324 206.784 113.324 206.784C114.53 208.549 121.381 207.529 121.381 207.529L131.194 205.352C131.259 203.277 130.514 201.106 130.514 201.106H130.195C129.651 201.225 129.338 201.869 128.924 202.215C128.499 202.567 127.913 202.609 127.387 202.597L127.712 202.126C127.819 201.971 127.689 201.893 127.689 201.893L126.057 201.309C126.057 201.309 125.844 201.231 125.596 201.332Z" fill="#6F422E"/>
<path d="M123.568 201.839C124.177 202.072 124.81 202.68 124.969 203.325C125.064 203.7 124.491 203.855 124.402 203.486C124.29 203.05 123.829 202.573 123.415 202.412C123.054 202.281 123.208 201.702 123.568 201.839Z" fill="white"/>
<path d="M122.203 202.311C122.806 202.722 123.296 203.175 123.633 203.831C123.805 204.171 123.296 204.476 123.125 204.136C122.835 203.563 122.428 203.181 121.907 202.823C121.588 202.609 121.884 202.096 122.203 202.311Z" fill="white"/>
<path d="M121.097 202.853C121.618 203.259 122.197 203.7 122.339 204.386C122.416 204.762 121.848 204.923 121.771 204.547C121.653 203.975 121.109 203.611 120.678 203.277C120.376 203.038 120.802 202.621 121.097 202.853Z" fill="white"/>
<path d="M119.903 203.301C120.435 203.676 120.843 204.142 121.139 204.726C121.31 205.066 120.802 205.37 120.631 205.03C120.382 204.535 120.057 204.142 119.608 203.82C119.3 203.599 119.596 203.08 119.903 203.301Z" fill="white"/>
<path d="M131.2 205.353L121.387 207.53C121.387 207.53 114.11 208.532 113.3 206.593C113.3 206.593 113.3 208.532 115.913 208.806C115.913 208.806 118.42 209.229 121.553 208.484L131.2 206.396C131.2 206.396 131.318 206.253 131.2 205.353Z" fill="white"/>
<path d="M140.777 107.296L134.12 155.114L134.209 163.279L130.958 202.132C130.958 202.132 127.535 203.814 124.437 201.607L121.955 150.449L121.665 107.291H140.777V107.296Z" fill="#4772A7"/>
<path d="M139.21 116.69L135.208 147.294C135.048 143.799 134.126 138.019 133.807 134.53C132.335 118.522 128.085 116.309 128.416 116.69H139.21Z" fill="#D1D3D4"/>
<path d="M151.931 107.296L149.637 151.803L151.115 162.14L152.534 200.939C152.534 200.939 150.075 202.74 146.522 201.243L139.405 151.255L132.512 107.291H151.931V107.296Z" fill="#4772A7"/>
<path d="M104.15 82.9793C112.213 76.985 121.86 64.2926 121.86 64.2926C121.86 64.2926 127.612 59.1333 124.627 54.9284C124.627 54.9284 122.091 52.8766 116.841 57.5885C109.08 64.728 104.209 70.257 98.7703 77.5993L99.7516 79.9314L104.15 82.9793Z" fill="#F8B78F"/>
<path d="M102.045 85.0728C100.408 84.0409 96.8373 79.7047 95.6077 78.1957C90.2402 71.605 87.0539 67.2211 82.7563 62.9088L84.317 60.7914C92.6638 65.3721 103.192 76.3766 103.192 76.3766L108.459 79.323L102.045 85.0728Z" fill="#F8B78F"/>
<path d="M107.879 63.8751C107.176 65.5451 109.647 68.6884 111.941 70.7521C113.052 71.7542 114.317 72.8397 115.683 73.7165C124.567 63.6842 128.203 59.0677 129.273 57.1293C129.273 57.1293 132.477 50.2105 126.506 47.3833C126.506 47.3833 122.321 44.8961 119.395 48.445C119.395 48.4569 112.733 56.8549 107.879 63.8751Z" fill="#293351"/>
<path d="M141.036 32.3945H132.323V44.6038H141.036V32.3945Z" fill="#F8B78F"/>
<path d="M141.036 38.0667V32.3885H132.323V38.4962C135.438 38.8302 138.305 39.1284 141.036 38.0667Z" fill="#F6A47A"/>
<path d="M152.008 48.612C149.874 45.2838 148.55 44.8544 148.55 44.8544L140.516 41.8483H132.843L124.81 44.8544C124.81 44.8544 121.458 45.755 119.324 49.0891L152.008 48.612Z" fill="#F8B78F"/>
<path d="M153.61 58.9902L153.947 110.78C153.947 110.78 137.389 115.158 118.952 110.404L120.873 62.044L118.845 49.8228C118.845 46.8645 123.604 45.099 123.604 45.099L130.757 42.6297C130.757 42.6297 130.136 45.8922 133.961 46.1905C133.961 46.1905 142.467 47.5027 142.426 42.5581L152.014 45.6656C152.008 45.6656 154.71 51.9104 153.61 58.9902Z" fill="#262F4A"/>
<path d="M132.299 37.2437C133.629 36.9574 135.905 36.2178 135.905 36.2178C141.096 33.9453 142.875 33.9095 143.75 31.0167C143.773 30.9273 146.274 16.1533 146.274 16.1533C146.345 8.57242 138.412 7.65389 137.218 7.55846C136.03 7.38549 128.427 5.91227 126.82 13.3201C126.82 13.3201 124.26 21.9567 126.784 32.2275C128.091 36.0508 129.923 36.9812 129.923 36.9812C129.923 36.9812 130.881 37.4942 132.299 37.2437Z" fill="#F8B78F"/>
<path d="M131.767 26.0781C131.767 26.0781 132.075 26.1855 132.353 26.3644C132.435 26.3942 132.524 26.4181 132.595 26.4539C132.672 26.4777 132.749 26.5374 132.826 26.5374C132.902 26.5553 132.979 26.5553 133.038 26.5911C133.109 26.5851 133.18 26.5851 133.245 26.597C133.316 26.609 133.393 26.5791 133.47 26.5791C133.541 26.5851 133.63 26.5493 133.712 26.5314C133.89 26.5076 134.037 26.436 134.215 26.4062C134.386 26.3585 134.546 26.275 134.664 26.2511C134.782 26.2213 134.859 26.2093 134.859 26.2093C134.859 26.2093 134.853 26.2869 134.824 26.4062C134.788 26.5255 134.77 26.6925 134.658 26.8714C134.54 27.0444 134.386 27.2829 134.138 27.4261C134.014 27.4977 133.907 27.605 133.742 27.6349C133.582 27.6706 133.429 27.7243 133.257 27.7243C133.086 27.7064 132.914 27.6766 132.749 27.6468C132.595 27.5871 132.459 27.4857 132.335 27.4082C132.193 27.3366 132.134 27.2054 132.051 27.104C131.974 27.0026 131.909 26.8953 131.862 26.7998C131.738 26.3644 131.767 26.0781 131.767 26.0781Z" fill="#F6A47A"/>
<path d="M134.806 20.0957C134.877 20.4715 135.208 20.7101 135.551 20.6564C136.745 20.4715 137.962 20.4715 139.157 20.6564C139.499 20.7101 139.83 20.4655 139.901 20.0957C139.972 19.72 139.718 19.3502 139.334 19.2965C138.022 19.0937 136.692 19.0937 135.373 19.2965C134.995 19.3502 134.741 19.7259 134.806 20.0957Z" fill="#005692"/>
<path d="M126.731 20.0957C126.802 20.4715 127.133 20.7101 127.476 20.6564C128.676 20.4715 129.888 20.4715 131.082 20.6564C131.425 20.7101 131.756 20.4655 131.826 20.0957C131.892 19.72 131.637 19.3502 131.253 19.2965C129.941 19.0937 128.611 19.0937 127.298 19.2965C126.914 19.3502 126.66 19.7259 126.731 20.0957Z" fill="#005692"/>
<path d="M128.593 22.5352C128.593 21.9149 128.936 21.408 129.362 21.408C129.787 21.408 130.13 21.9149 130.13 22.5352" stroke="#27303B" stroke-miterlimit="10" stroke-linecap="round" stroke-linejoin="round"/>
<path d="M136.798 22.5352C136.798 21.9149 137.141 21.408 137.572 21.408C137.998 21.408 138.341 21.9149 138.341 22.5352" stroke="#27303B" stroke-miterlimit="10" stroke-linecap="round" stroke-linejoin="round"/>
<path d="M130.514 30.5873C130.638 32.0963 131.844 33.2832 133.316 33.2832C134.788 33.2832 135.994 32.0963 136.118 30.5873H130.514Z" fill="white"/>
<path d="M78.5355 51.296L81.2902 55.2564L82.9217 56.5984L83.5897 57.3619L85.1562 61.3939L83.3651 63.4337C80.4744 62.545 78.1926 60.4038 78.1926 60.4038L78.3522 57.3082L74.8468 54.0218L74.5039 53.3061L75.3138 53.2345L79.6113 56.169L77.8261 51.7135L77.7256 50.9561L78.5355 51.296Z" fill="#F8B78F"/>
<path d="M144.081 28.3625L144.678 23.9309C143.596 24.2649 143.584 26.5553 143.584 26.5553L142.095 26.5434C142.012 20.8831 141.574 17.5668 141.574 17.5668C141.574 17.5668 139.701 14.185 138.223 12.0079L145.417 10.5109L147.622 13.1829C147.628 13.1949 148.81 18.4973 144.081 28.3625Z" fill="#005692"/>
<path d="M145.618 6.33577C145.618 6.33577 148.686 9.81306 146.274 12.0139H138.229L132.323 12.7237L124.219 12.0139L123.551 8.39948C123.551 8.39948 123.432 4.94605 126.79 2.75708C126.79 2.75708 126.82 3.84858 128.138 4.3496C128.138 4.3496 127.417 1.56419 130.13 0.269897C130.13 0.269897 129.645 3.84858 134.794 4.54643C134.8 4.54643 144.004 2.95988 145.618 6.33577Z" fill="#005692"/>
<path d="M143.472 24.5572C143.472 24.5572 144.554 21.5452 146.771 23.0959C146.771 23.0959 147.775 23.764 146.771 25.7979C146.771 25.7979 145.31 28.7324 143.159 27.3486L143.472 24.5572Z" fill="#F8B78F"/>
<path d="M161.969 84.8103L160.219 67.4835L149.129 68.1217L154.402 87.1245L161.969 84.8103Z" fill="#F8B78F"/>
<path d="M161.969 84.8104C162.477 93.441 161.088 117.967 161.088 117.967L158.546 118.128L155.543 99.0715L154.396 87.1246L156.501 82.5737L161.969 84.8104Z" fill="#F8B78F"/>
<path d="M150.376 76.6092C147.758 63.6067 146.274 56.5924 146.274 56.5924C146.274 56.5924 142.035 44.3414 152.008 45.6655C152.008 45.6655 157.175 47.0672 159.409 55.8171C159.409 55.8171 161.791 64.9606 162.412 74.7006C158.818 76.3229 154.562 76.9432 150.376 76.6092Z" fill="#262F4A"/>
<path d="M161.094 117.967L162.081 123.401L160.414 126.377L157.175 129.961V128.918L158.576 125.041L158.174 121.731L158.552 118.128L161.094 117.967Z" fill="#F8B78F"/>
<path d="M158.392 119.655L156.512 123.52C156.512 123.52 157.724 125.214 159.409 121.587L158.392 119.655Z" fill="#F8B78F"/>
</g>
<defs>
<clipPath id="clip0">
<rect width="88.5785" height="191.537" fill="white" transform="translate(0.723145 21.1512)"/>
</clipPath>
<clipPath id="clip1">
<rect width="98.8383" height="212.294" fill="white" transform="translate(74.5039 0.269897)"/>
</clipPath>
</defs>
</svg>
