<svg width="23" height="40" viewBox="0 0 23 40" fill="none" xmlns="http://www.w3.org/2000/svg">
<path d="M22.1925 15.7672C21.9727 15.4285 21.5967 15.2281 21.1953 15.2297L12.883 15.2627L12.8311 2.20043C12.8289 1.63995 12.4351 1.15701 11.886 1.04282C11.3275 0.926285 10.7824 1.21582 10.5564 1.72734L1.14143 23.1396C0.979011 23.506 1.01633 23.9333 1.23616 24.2673C1.45599 24.6037 1.83204 24.8065 2.23341 24.8049L10.5457 24.7719L10.5976 37.8341C10.5998 38.3946 10.9936 38.8775 11.5427 38.9917C11.6258 39.008 11.709 39.0172 11.7898 39.0169C12.2505 39.015 12.6793 38.7449 12.8723 38.3072L22.2873 16.8949C22.4473 16.5262 22.4148 16.1036 22.1925 15.7672Z" fill="white"/>
</svg>
