<svg width="24" height="24" viewBox="0 0 24 24" fill="none" xmlns="http://www.w3.org/2000/svg">
<g clip-path="url(#clip0)">
<path d="M21.8921 9.49756H3.0249C1.9063 9.49756 0.958496 10.4004 0.958496 11.519V20.9976C0.958496 22.1161 1.9063 23.019 3.0249 23.019H21.8921C23.0107 23.019 23.9585 22.1161 23.9585 20.9976V11.519C23.9585 10.4004 23.0107 9.49756 21.8921 9.49756Z" fill="#FF507E"/>
<path d="M23.9585 11.519V20.9976C23.9585 22.1161 23.0107 23.019 21.8921 23.019H12.4585V9.49756H21.8921C23.0107 9.49756 23.9585 10.4004 23.9585 11.519Z" fill="#F40F78"/>
<path d="M20.5444 12.1929H4.37256C3.99517 12.1929 3.69873 12.4893 3.69873 12.8667V19.6499C3.69873 20.0272 3.99517 20.3237 4.37256 20.3237H20.5444C20.9218 20.3237 21.2183 20.0272 21.2183 19.6499V12.8667C21.2183 12.4893 20.9218 12.1929 20.5444 12.1929Z" fill="#E1E4FB"/>
<path d="M21.2183 12.8667V19.6499C21.2183 20.0272 20.9218 20.3237 20.5444 20.3237H12.4585V12.1929H20.5444C20.9218 12.1929 21.2183 12.4893 21.2183 12.8667Z" fill="#C5C9F7"/>
<path d="M5.04639 13.5405V18.9761H19.8706V13.5405H5.04639Z" fill="#C5C9F7"/>
<path d="M19.8706 13.5405H12.4585V18.9761H19.8706V13.5405Z" fill="#A8AFF1"/>
<path d="M9.76318 20.3237C9.39074 20.3237 9.08936 20.0223 9.08936 19.6499V12.8667C9.08936 12.4943 9.39074 12.1929 9.76318 12.1929C10.1356 12.1929 10.437 12.4943 10.437 12.8667V19.6499C10.437 20.0223 10.1356 20.3237 9.76318 20.3237Z" fill="#E1E4FB"/>
<path d="M15.1538 20.3237C14.7814 20.3237 14.48 20.0223 14.48 19.6499V12.8667C14.48 12.4943 14.7814 12.1929 15.1538 12.1929C15.5263 12.1929 15.8276 12.4943 15.8276 12.8667V19.6499C15.8276 20.0223 15.5263 20.3237 15.1538 20.3237Z" fill="#C5C9F7"/>
<path d="M7.06787 17.6284C6.69542 17.6284 6.39404 17.327 6.39404 16.9546V15.562C6.39404 15.1896 6.69542 14.8882 7.06787 14.8882C7.44032 14.8882 7.7417 15.1896 7.7417 15.562V16.9546C7.7417 17.327 7.44032 17.6284 7.06787 17.6284Z" fill="#495A79"/>
<path d="M17.8491 17.6284C17.4767 17.6284 17.1753 17.327 17.1753 16.9546V15.562C17.1753 15.1896 17.4767 14.8882 17.8491 14.8882C18.2216 14.8882 18.5229 15.1896 18.5229 15.562V16.9546C18.5229 17.327 18.2216 17.6284 17.8491 17.6284Z" fill="#42516D"/>
<path d="M16.3262 2.79966C16.2453 2.55708 16.0431 2.38189 15.8006 2.3415L13.9543 2.0315L13.0784 0.355957C12.9571 0.1269 12.701 0.019043 12.4584 0.019043C12.2294 0.0325195 12.0002 0.140377 11.8789 0.355957L11.0029 2.0315L9.15667 2.3415C8.91409 2.38189 8.7119 2.55708 8.63109 2.79966C8.5637 3.04224 8.6177 3.2983 8.79289 3.47349L10.1001 4.82115L9.83055 6.68091C9.80364 6.92349 9.89793 7.17954 10.1001 7.32783C10.3023 7.46255 10.5717 7.48955 10.8009 7.38169L12.4584 6.5731L12.4854 6.55971L14.17 7.38178C14.3856 7.48964 14.6552 7.46264 14.8573 7.32792C15.0594 7.17963 15.1672 6.92358 15.1268 6.681L14.8573 4.82124L16.1645 3.47358C16.3397 3.2983 16.4071 3.04224 16.3262 2.79966Z" fill="#FFDA2D"/>
<path d="M16.1646 3.47349L14.8574 4.82115L15.1269 6.68091C15.1673 6.92349 15.0595 7.17954 14.8574 7.32783C14.6552 7.46255 14.3856 7.48955 14.1701 7.38169L12.4855 6.55962L12.4585 6.5731V0.019043C12.7011 0.019043 12.9571 0.1269 13.0785 0.355957L13.9544 2.0315L15.8007 2.3415C16.0433 2.38189 16.2455 2.55708 16.3263 2.79966C16.4071 3.04224 16.3397 3.2983 16.1646 3.47349Z" fill="#FFBC33"/>
<path d="M23.8104 4.363C23.743 4.13385 23.5678 3.97213 23.3386 3.91823L21.9057 3.55436L21.1375 2.34151C21.0162 2.13932 20.7736 2.04498 20.5445 2.04498C20.329 2.05846 20.1133 2.15284 19.992 2.34151L19.2239 3.55436L17.8358 3.91827C17.6202 3.97213 17.4315 4.13385 17.3641 4.36304C17.2967 4.57862 17.3371 4.8212 17.4854 4.9964L18.4018 6.10147L18.3075 7.52999C18.294 7.75905 18.4018 7.98824 18.5905 8.12296C18.7792 8.25768 19.0217 8.28468 19.2374 8.20382L20.5446 7.69171L20.5716 7.67823L21.9058 8.20382C22.1213 8.28468 22.4088 8.25768 22.5975 8.12296C22.7727 7.98824 22.8806 7.75905 22.867 7.52999L22.7727 6.10147L23.6891 4.9964C23.8373 4.82116 23.8912 4.57858 23.8104 4.363Z" fill="#FFDA2D"/>
<path d="M23.689 4.99635L22.7726 6.10143L22.8669 7.52994C22.8804 7.759 22.7726 7.98819 22.5974 8.12291C22.4087 8.25763 22.1212 8.28463 21.9056 8.20377L20.5714 7.67819L20.5444 7.69166V2.04498C20.7735 2.04498 21.0161 2.13932 21.1374 2.34151L21.9056 3.55436L23.3385 3.91827C23.5677 3.97213 23.7429 4.13385 23.8103 4.36304C23.8911 4.57858 23.8372 4.82116 23.689 4.99635Z" fill="#FFBC33"/>
<path d="M7.59336 4.363C7.52598 4.13385 7.35079 3.97213 7.12164 3.91823L5.7336 3.55436L4.96543 2.34151C4.8441 2.13932 4.60152 2.04498 4.37246 2.04498C4.15688 2.05846 3.94122 2.15284 3.81997 2.34151L3.05181 3.55436L1.61875 3.91827C1.40317 3.97213 1.21446 4.13385 1.14707 4.363C1.07969 4.57858 1.12008 4.82116 1.26832 4.99635L2.22965 6.10143L2.1354 7.52994C2.12192 7.759 2.22965 7.98819 2.41836 8.12291C2.60708 8.25763 2.84961 8.28463 3.06528 8.20377L4.37246 7.69166L4.39946 7.67819L5.73364 8.20377C5.94922 8.28463 6.1918 8.25763 6.38047 8.12291C6.55567 7.98819 6.66353 7.759 6.65 7.52994L6.55567 6.10143L7.47207 4.99635C7.62027 4.82116 7.67422 4.57858 7.59336 4.363Z" fill="#FFDA2D"/>
<path d="M7.47217 4.99635L6.55576 6.10143L6.6501 7.52994C6.66358 7.759 6.55576 7.98819 6.38057 8.12291C6.1919 8.25763 5.94932 8.28463 5.73374 8.20377L4.39956 7.67819L4.37256 7.69166V2.04498C4.60162 2.04498 4.84419 2.13932 4.96553 2.34151L5.73369 3.55436L7.12173 3.91827C7.35088 3.97213 7.52608 4.13385 7.59346 4.36304C7.67432 4.57858 7.62037 4.82116 7.47217 4.99635Z" fill="#FFBC33"/>
<path d="M13.1323 15.562V16.9546C13.1323 17.3319 12.8359 17.6284 12.4585 17.6284C12.0811 17.6284 11.7847 17.3319 11.7847 16.9546V15.562C11.7847 15.1846 12.0811 14.8882 12.4585 14.8882C12.8359 14.8882 13.1323 15.1846 13.1323 15.562Z" fill="#495A79"/>
<path d="M13.1323 15.562V16.9546C13.1323 17.3319 12.8359 17.6284 12.4585 17.6284V14.8882C12.8359 14.8882 13.1323 15.1846 13.1323 15.562Z" fill="#42516D"/>
</g>
<defs>
<clipPath id="clip0">
<rect width="23" height="23" fill="white" transform="translate(0.958496 0.019043)"/>
</clipPath>
</defs>
</svg>
