<svg width="22" height="36" viewBox="0 0 22 36" fill="none" xmlns="http://www.w3.org/2000/svg">
<path d="M4.35243 26.5144C4.35243 27.2263 4.04686 27.8314 3.6267 28.0806C3.49301 28.1696 3.34023 28.2052 3.16834 28.2052C3.01556 28.2052 2.86277 28.1518 2.70999 28.0806C2.27073 27.8314 1.98425 27.2085 1.98425 26.5144C1.98425 26.1406 2.06065 25.8025 2.21343 25.5177C2.42351 25.0906 2.78638 24.8058 3.16834 24.8058C3.56941 24.8058 3.91317 25.0906 4.12325 25.5177C4.27604 25.8025 4.35243 26.1406 4.35243 26.5144Z" fill="#141720"/>
<path d="M4.35243 24.5211C4.35243 24.8948 4.27604 25.233 4.12325 25.5177C3.91317 25.9449 3.55031 26.2297 3.16834 26.2297C2.76728 26.2297 2.42351 25.9449 2.21343 25.5177C2.07974 25.233 1.98425 24.8948 1.98425 24.5211C1.98425 24.1473 2.06065 23.8092 2.21343 23.5244C2.42351 23.0973 2.78638 22.8125 3.16834 22.8125C3.56941 22.8125 3.91317 23.0973 4.12325 23.5244C4.27604 23.8092 4.35243 24.1651 4.35243 24.5211Z" fill="#141720"/>
<path d="M4.35243 22.5455C4.35243 22.9193 4.27604 23.2574 4.12325 23.5422C3.91317 23.9693 3.55031 24.2541 3.16834 24.2541C2.76728 24.2541 2.42351 23.9693 2.21343 23.5422C2.07974 23.2574 1.98425 22.9193 1.98425 22.5455C1.98425 22.1718 2.06065 21.8336 2.21343 21.5488C2.42351 21.1217 2.78638 20.8369 3.16834 20.8369C3.56941 20.8369 3.91317 21.1217 4.12325 21.5488C4.27604 21.8336 4.35243 22.1718 4.35243 22.5455Z" fill="#141720"/>
<path d="M4.35243 20.57C4.35243 20.9437 4.27604 21.2819 4.12325 21.5667C3.91317 21.9938 3.55031 22.2786 3.16834 22.2786C2.76728 22.2786 2.42351 21.9938 2.21343 21.5667C2.07974 21.2819 1.98425 20.9437 1.98425 20.57C1.98425 20.1962 2.06065 19.8581 2.21343 19.5733C2.42351 19.1462 2.78638 18.8614 3.16834 18.8614C3.56941 18.8614 3.91317 19.1462 4.12325 19.5733C4.27604 19.8581 4.35243 20.1962 4.35243 20.57Z" fill="#141720"/>
<path d="M4.35238 18.5945C4.35238 18.7902 4.33328 18.9682 4.29508 19.1462C4.25689 19.3064 4.19959 19.4488 4.1423 19.5911C3.93222 20.0183 3.56935 20.303 3.18739 20.303C2.78632 20.303 2.44256 20.0183 2.23247 19.5911C2.09879 19.3064 2.0033 18.9682 2.0033 18.5945C2.0033 18.2207 2.07969 17.8826 2.23247 17.5978C2.44256 17.1707 2.80542 16.8859 3.18739 16.8859C3.28288 16.8859 3.35927 16.9037 3.43566 16.9215C3.72214 17.0105 3.97041 17.2596 4.1423 17.5978C4.27598 17.8826 4.35238 18.2207 4.35238 18.5945Z" fill="#141720"/>
<path d="M4.35243 16.6189C4.35243 16.9927 4.27604 17.3308 4.12325 17.6156C4.02776 17.7935 3.91317 17.9537 3.77949 18.0783C3.6076 18.2385 3.37842 18.3275 3.16834 18.3275C2.76728 18.3275 2.42351 18.0427 2.21343 17.6156C2.07974 17.3308 1.98425 16.9927 1.98425 16.6189C1.98425 16.2452 2.06065 15.907 2.21343 15.6222C2.42351 15.1951 2.78638 14.9103 3.16834 14.9103C3.56941 14.9103 3.91317 15.1951 4.12325 15.6222C4.27604 15.907 4.35243 16.2452 4.35243 16.6189Z" fill="#141720"/>
<path d="M4.35237 14.6256C4.35237 14.6434 4.35237 14.6612 4.35237 14.679C4.35237 15.0349 4.25687 15.3553 4.12319 15.6045C3.9322 15.996 3.62663 16.2452 3.28286 16.2986C3.24467 16.2986 3.20647 16.3164 3.14918 16.3164C2.74811 16.3164 2.40435 16.0316 2.19427 15.6045C2.06058 15.3197 1.96509 14.9815 1.96509 14.6078C1.96509 14.234 2.04148 13.8959 2.19427 13.6111C2.27066 13.4509 2.36615 13.3086 2.49984 13.184C2.69082 13.006 2.92 12.8814 3.16828 12.8814C3.56934 12.8814 3.91311 13.1662 4.12319 13.5933C4.27597 13.9137 4.35237 14.2696 4.35237 14.6256Z" fill="#141720"/>
<path d="M4.35414 12.65C4.35414 13.0238 4.27775 13.3619 4.12496 13.6467C3.93398 14.0382 3.62841 14.3052 3.28464 14.3586C3.24644 14.3586 3.20825 14.3764 3.17005 14.3764C2.76899 14.3764 2.42522 14.0916 2.21514 13.6645C2.08145 13.3797 1.98596 13.0416 1.98596 12.6678C1.98596 12.4542 2.00506 12.2407 2.06236 12.0627C2.23424 11.422 2.6544 10.977 3.17005 10.977C3.81939 10.9592 4.35414 11.7067 4.35414 12.65Z" fill="#141720"/>
<path d="M4.33322 30.2519H2.02234L2.70987 28.0806L3.16823 26.6924L3.62659 28.0806L3.83667 28.7569L4.33322 30.2519Z" fill="#141720"/>
<path d="M20.3375 26.5144C20.3375 27.4576 19.8028 28.2229 19.1534 28.2229C18.5041 28.2229 17.9694 27.4576 17.9694 26.5144C17.9694 25.5711 18.5041 24.8058 19.1534 24.8058C19.8219 24.8058 20.3375 25.5711 20.3375 26.5144Z" fill="#141720"/>
<path d="M20.3375 24.5211C20.3375 25.4643 19.8028 26.2296 19.1534 26.2296C18.5041 26.2296 17.9694 25.4643 17.9694 24.5211C17.9694 23.5778 18.5041 22.8125 19.1534 22.8125C19.8219 22.8303 20.3375 23.5956 20.3375 24.5211Z" fill="#141720"/>
<path d="M20.3375 22.5455C20.3375 23.4888 19.8028 24.2541 19.1534 24.2541C18.5041 24.2541 17.9694 23.4888 17.9694 22.5455C17.9694 21.6022 18.5041 20.8369 19.1534 20.8369C19.8219 20.8369 20.3375 21.6022 20.3375 22.5455Z" fill="#141720"/>
<path d="M20.3375 20.57C20.3375 21.5133 19.8028 22.2786 19.1534 22.2786C18.5041 22.2786 17.9694 21.5133 17.9694 20.57C17.9694 19.6267 18.5041 18.8614 19.1534 18.8614C19.8219 18.8614 20.3375 19.6267 20.3375 20.57Z" fill="#141720"/>
<path d="M20.3375 18.5945C20.3375 19.5377 19.8028 20.303 19.1534 20.303C18.5041 20.303 17.9694 19.5377 17.9694 18.5945C17.9694 17.6512 18.5041 16.8859 19.1534 16.8859C19.8219 16.8859 20.3375 17.6512 20.3375 18.5945Z" fill="#141720"/>
<path d="M20.3375 16.6189C20.3375 17.5622 19.8028 18.3275 19.1534 18.3275C18.5041 18.3275 17.9694 17.5622 17.9694 16.6189C17.9694 15.6757 18.5041 14.9104 19.1534 14.9104C19.8219 14.9104 20.3375 15.6757 20.3375 16.6189Z" fill="#141720"/>
<path d="M20.3375 14.6256C20.3375 15.5689 19.8028 16.3342 19.1534 16.3342C18.5041 16.3342 17.9694 15.5689 17.9694 14.6256C17.9694 13.6823 18.5041 12.917 19.1534 12.917C19.8219 12.9348 20.3375 13.7001 20.3375 14.6256Z" fill="#141720"/>
<path d="M20.3375 12.65C20.3375 13.5933 19.8028 14.3586 19.1534 14.3586C18.5041 14.3586 17.9694 13.5933 17.9694 12.65C17.9694 11.7067 18.5041 10.9414 19.1534 10.9414C19.8219 10.9592 20.3375 11.7067 20.3375 12.65Z" fill="#141720"/>
<path d="M19.1535 26.6746L18.0076 30.2519H19.1344H19.1917H20.3185L19.1535 26.6746Z" fill="#141720"/>
<path d="M21.579 35.6623H0.742798C0.742798 34.5589 0.93378 33.5088 1.29665 32.53C1.35394 32.352 1.43033 32.174 1.50673 31.996C1.58312 31.8181 1.65951 31.6579 1.755 31.4799C1.96508 31.0528 2.23246 30.6434 2.49983 30.2519C2.65262 30.0205 2.8245 29.8069 3.01549 29.5934C3.14917 29.451 3.26376 29.3086 3.39745 29.1662C3.45475 29.095 3.53114 29.0238 3.60753 28.9526C3.68392 28.8815 3.74122 28.8281 3.81761 28.7569L3.83671 28.7391C4.18048 28.4187 4.56244 28.1162 4.94441 27.8492C5.13539 27.7068 5.34547 27.5822 5.55555 27.4576C5.57465 27.4398 5.61284 27.422 5.63194 27.4042C5.80383 27.2975 5.99481 27.1907 6.18579 27.1017C6.26218 27.0661 6.31948 27.0305 6.39587 26.9949C6.41497 26.9949 6.43407 26.9771 6.43407 26.9771C6.49136 26.9415 6.54866 26.9059 6.60595 26.8881C6.62505 26.8703 6.64415 26.8703 6.66325 26.8525C6.70144 26.8169 6.75874 26.7991 6.79693 26.7635C6.85423 26.7279 6.91152 26.6923 6.96882 26.639C7.02611 26.6034 7.08341 26.5678 7.1407 26.5144C7.46537 26.2652 7.77094 25.9982 8.03832 25.6957C8.2866 25.4287 8.49668 25.144 8.70676 24.8414C8.91684 24.5032 9.10782 24.1473 9.24151 23.7913C9.3179 23.6134 9.37519 23.4176 9.43249 23.2218C9.47069 23.0794 9.50888 22.937 9.52798 22.8125C9.58528 22.4565 9.62347 22.1006 9.62347 21.7268H11.1322H11.3996H12.6792C12.6792 22.0828 12.7174 22.4387 12.7747 22.7947C12.7938 22.937 12.832 23.0794 12.8702 23.2218C12.9275 23.4176 12.9848 23.5956 13.0421 23.7913C13.1757 24.1651 13.3667 24.521 13.5768 24.8592C13.7487 25.144 13.9588 25.3931 14.1688 25.6423C14.4553 25.9626 14.78 26.2652 15.1429 26.5322C15.2002 26.5678 15.2383 26.6034 15.2956 26.639C15.3147 26.6567 15.3338 26.6567 15.3529 26.6745C15.3911 26.6923 15.4102 26.7101 15.4484 26.7279C15.4866 26.7635 15.5439 26.7813 15.5821 26.8169C15.6012 26.8347 15.6203 26.8347 15.6203 26.8525C15.6585 26.8703 15.6967 26.8881 15.7349 26.9237C15.7731 26.9415 15.8113 26.9593 15.8495 26.9771C15.8877 26.9949 15.9259 27.0305 15.9641 27.0483C16.0023 27.0661 16.0405 27.1017 16.0787 27.1195C16.0978 27.1195 16.0978 27.1373 16.1169 27.1373L16.1742 27.1729C16.1933 27.1729 16.1933 27.1907 16.2124 27.1907C16.2697 27.2263 16.3079 27.2441 16.3651 27.2797C16.4415 27.3331 16.537 27.3687 16.6134 27.422C16.6898 27.4754 16.7662 27.511 16.8617 27.5644C17.0336 27.6534 17.1864 27.7602 17.3392 27.8848C17.5301 28.0272 17.7211 28.1695 17.9121 28.3119C18.084 28.4543 18.2559 28.5967 18.4278 28.7569C18.4469 28.7747 18.4469 28.7747 18.466 28.7925C18.9434 29.2374 19.3827 29.7357 19.7646 30.2519C20.9296 31.7825 21.579 33.6512 21.579 35.6623Z" fill="#DFB28B"/>
<path d="M21.579 35.6624H0.742798C0.742798 34.5589 0.93378 33.5089 1.29665 32.53C1.35394 32.352 1.43033 32.174 1.50673 31.9961C1.58312 31.8181 1.65951 31.6579 1.755 31.4799C1.96508 31.0528 2.23246 30.6434 2.49983 30.2519C2.65262 30.0205 2.8245 29.807 3.01549 29.5934C3.14917 29.451 3.26376 29.3086 3.39745 29.1662C3.45475 29.095 3.53114 29.0239 3.60753 28.9527C3.68392 28.8815 3.74122 28.8281 3.81761 28.7569L3.83671 28.7391C4.18048 28.4187 4.56244 28.1162 4.94441 27.8492C5.13539 27.7068 5.34547 27.5822 5.55555 27.4577C5.57465 27.4399 5.61284 27.4221 5.63194 27.4043C5.80383 27.2975 5.99481 27.1907 6.18579 27.1017C6.26218 27.0661 6.31948 27.0305 6.39587 26.9949C6.41497 26.9949 6.43407 26.9771 6.43407 26.9771C6.49136 26.9415 6.54866 26.9059 6.60595 26.8881C6.66325 26.8525 6.72054 26.8169 6.75874 26.7814C6.77784 26.7636 6.79694 26.7458 6.81603 26.7458C6.87333 26.7102 6.91152 26.6746 6.96882 26.6568C6.96882 26.6568 6.98792 26.6568 6.98792 26.639C7.04521 26.6034 7.08341 26.5678 7.1407 26.5322C7.25529 26.639 7.36988 26.7458 7.48447 26.8347C7.54177 26.8881 7.59906 26.9237 7.65635 26.9771C7.71365 27.0127 7.77094 27.0661 7.82824 27.1017C7.84734 27.1195 7.84734 27.1195 7.86644 27.1195C7.92373 27.1551 7.98102 27.1907 8.03832 27.2263C8.17201 27.3153 8.3057 27.3865 8.43938 27.4577C8.51578 27.4933 8.57307 27.5289 8.64946 27.5645C8.72586 27.6 8.80225 27.6356 8.87864 27.6534C8.89774 27.6534 8.89774 27.6712 8.91684 27.6712C9.08872 27.7424 9.26061 27.7958 9.43249 27.8492C9.48978 27.867 9.56618 27.8848 9.64257 27.9026C9.69986 27.9204 9.75716 27.9382 9.83355 27.9382C9.85265 27.9382 9.85265 27.9382 9.87175 27.956C10.0627 27.9916 10.2728 28.0272 10.4829 28.0628C10.5593 28.0628 10.6166 28.0806 10.693 28.0806C10.8458 28.0984 10.9794 28.0984 11.1322 28.0984H11.1513C11.1895 28.0984 11.2468 28.0984 11.285 28.0984C11.3041 28.0984 11.3232 28.0984 11.3423 28.0984C11.3614 28.0984 11.3805 28.0984 11.3996 28.0984C11.4951 28.0984 11.5906 28.0806 11.667 28.0806C11.7434 28.0806 11.8198 28.0628 11.8962 28.0628C11.9153 28.0628 11.9344 28.0628 11.9535 28.0628C12.0107 28.0628 12.068 28.045 12.1253 28.0272C12.1444 28.0272 12.1635 28.0272 12.2017 28.0094C12.2399 28.0094 12.2972 27.9916 12.3354 27.9916C12.3736 27.9916 12.4118 27.9738 12.4691 27.956C12.5646 27.9382 12.641 27.9204 12.7174 27.8848C12.7938 27.867 12.8893 27.8314 12.9657 27.8136C13.0612 27.7958 13.1375 27.7602 13.2139 27.7246C13.2521 27.7068 13.2903 27.689 13.3285 27.6712C13.5386 27.5822 13.7296 27.4933 13.9206 27.3865C13.9779 27.3509 14.0543 27.3153 14.1116 27.2797C14.1498 27.2619 14.1879 27.2263 14.2452 27.2085C14.2834 27.1907 14.3216 27.1729 14.3407 27.1373C14.4171 27.0839 14.4744 27.0483 14.5508 26.9949C14.6272 26.9415 14.6845 26.8881 14.7418 26.8347C14.8755 26.728 14.9901 26.6212 15.1238 26.5144C15.1811 26.5678 15.2574 26.6212 15.3338 26.6568L15.3529 26.6746C15.3529 26.6746 15.3529 26.6746 15.372 26.6746C15.4293 26.7102 15.4866 26.7636 15.563 26.7992C15.5821 26.8169 15.6012 26.8169 15.6012 26.8347C15.6776 26.8703 15.754 26.9237 15.8113 26.9593C15.8877 27.0127 15.9832 27.0483 16.0596 27.0839C16.0787 27.0839 16.0787 27.1017 16.0978 27.1017C16.1169 27.1195 16.136 27.1195 16.1551 27.1373C16.1742 27.1373 16.1742 27.1551 16.1933 27.1551C16.2506 27.1907 16.2888 27.2085 16.346 27.2441C16.4224 27.2975 16.5179 27.3331 16.5943 27.3865C16.6707 27.4399 16.7471 27.4755 16.8426 27.5289C17.0145 27.6178 17.1673 27.7246 17.3201 27.8492C17.511 27.9916 17.7211 28.134 17.893 28.2764C18.0649 28.4187 18.2368 28.5611 18.4087 28.7213C18.4278 28.7391 18.4278 28.7391 18.4468 28.7569C18.9243 29.2018 19.3636 29.7002 19.7455 30.2163C20.9296 31.7825 21.579 33.6512 21.579 35.6624Z" fill="#9D78DC"/>
<path d="M11.1895 28.1179C11.1704 28.1357 11.1704 28.1357 11.1704 28.1357C10.6166 28.9365 9.69988 29.3459 8.78316 29.3459C8.03833 29.3459 7.2744 29.0611 6.70146 28.5094L5.63196 27.4415C5.80384 27.3348 5.99482 27.228 6.18581 27.139C6.2622 27.1034 6.31949 27.0678 6.39589 27.0322C6.41499 27.0322 6.43408 27.0144 6.43408 27.0144C6.49138 26.9788 6.54867 26.9432 6.60597 26.9254C6.62507 26.9076 6.64416 26.9076 6.66326 26.8898C6.70146 26.872 6.73965 26.8364 6.77785 26.8186C6.79695 26.8186 6.79695 26.8008 6.81605 26.8008C6.87334 26.7652 6.93064 26.7296 6.98793 26.6762C6.98793 26.6762 6.98793 26.6762 7.00703 26.6585C7.06433 26.6229 7.10252 26.5873 7.15982 26.5517C7.27441 26.6585 7.38899 26.7652 7.50358 26.8542C7.56088 26.9076 7.61817 26.9432 7.67547 26.9966C7.73276 27.0322 7.79006 27.0856 7.84735 27.1212C7.86645 27.139 7.86645 27.139 7.88555 27.139C7.94284 27.1746 8.00014 27.2102 8.05743 27.2458C8.19112 27.3348 8.32481 27.406 8.4585 27.4771C8.53489 27.5127 8.59218 27.5483 8.66858 27.5839C8.74497 27.6195 8.82136 27.6551 8.89775 27.6729C8.91685 27.6729 8.91685 27.6907 8.93595 27.6907C9.10783 27.7619 9.27972 27.8153 9.4516 27.8687C9.5089 27.8865 9.58529 27.9043 9.66168 27.9221C9.71898 27.9399 9.77627 27.9577 9.85266 27.9577C9.87176 27.9577 9.87176 27.9577 9.89086 27.9755C10.0818 28.0289 10.2919 28.0467 10.502 28.0823C10.5784 28.1001 10.6357 28.1001 10.7121 28.1001C10.8649 28.1179 10.9986 28.1179 11.1513 28.1179H11.1895Z" fill="#E7ECF2"/>
<path d="M16.709 27.4398L15.6586 28.4899C15.0856 29.0594 14.3408 29.3264 13.5769 29.3264C12.6601 29.3264 11.7434 28.917 11.1896 28.1161V28.0983C12.7556 28.0983 14.1689 27.4932 15.2002 26.5322C15.3339 26.6389 15.4867 26.7457 15.6395 26.8347C15.6586 26.8525 15.6777 26.8525 15.6777 26.8703C15.7541 26.9059 15.8304 26.9593 15.8877 26.9949C15.9641 27.0483 16.0596 27.0839 16.136 27.1195C16.1551 27.1195 16.1551 27.1373 16.1742 27.1373C16.3461 27.2263 16.518 27.3152 16.6899 27.422L16.709 27.4398Z" fill="#E7ECF2"/>
<path d="M16.7281 5.9759C16.7281 7.22174 16.4607 8.39638 15.9832 9.48204C15.0474 11.5466 13.3286 13.2195 11.1705 14.1628C9.91 14.7145 8.49673 15.0349 7.00707 15.0349C6.09036 15.0349 5.19274 14.9103 4.35242 14.6967C3.98955 14.6078 3.62669 14.4832 3.28292 14.3586C3.24472 14.3408 3.20653 14.323 3.16833 14.3052C3.13013 14.2874 3.11103 14.2874 3.07284 14.2696C2.86276 13.9314 2.67177 13.5933 2.49989 13.2373C2.32801 12.8636 2.17522 12.472 2.06063 12.0627C1.85055 11.333 1.73596 10.5677 1.73596 9.7846C1.73596 4.90805 5.95667 0.992569 11.1705 0.992569C12.8511 0.992569 14.4363 1.40191 15.8114 2.13162C15.8686 2.2384 15.9259 2.36299 15.9832 2.48757C16.1551 2.87912 16.3079 3.30626 16.4225 3.71561C16.6326 4.42751 16.7281 5.19281 16.7281 5.9759Z" fill="#141720"/>
<path d="M20.5858 9.76682C20.5858 11.1372 20.242 12.4187 19.65 13.5755C18.0266 12.5966 16.7279 11.1728 15.9831 9.48205C15.5057 8.3964 15.2383 7.22176 15.2383 5.97592C15.2383 4.73009 15.5057 3.55544 15.9831 2.46979C16.0213 2.3986 16.0404 2.32741 16.0786 2.25622C18.7715 3.80461 20.5858 6.59884 20.5858 9.76682Z" fill="#141720"/>
<path d="M19.1534 9.32186V14.9103C19.1534 14.9815 19.1534 15.0527 19.1534 15.1239C19.1534 15.1951 19.1534 15.2485 19.1534 15.3197C19.1534 15.3731 19.1534 15.4442 19.1343 15.4976C19.1343 15.5332 19.1343 15.5866 19.1152 15.6222C19.1152 15.64 19.1152 15.6756 19.1152 15.6934C19.1152 15.7468 19.1152 15.7824 19.0961 15.8358C19.0961 15.9248 19.077 16.0138 19.0579 16.1028C19.0579 16.1206 19.0579 16.1384 19.0388 16.1739C19.0388 16.2095 19.0197 16.2629 19.0197 16.2985C19.0197 16.3163 19.0197 16.3163 19.0197 16.3163C19.0006 16.3697 19.0006 16.4231 18.9815 16.4765C18.9624 16.5655 18.9433 16.6545 18.9242 16.7435C18.9242 16.7435 18.9242 16.7435 18.9242 16.7613C18.9242 16.7791 18.9242 16.7791 18.9242 16.7969C18.9242 16.7969 18.9242 16.7969 18.9242 16.8147C18.9242 16.8503 18.9052 16.8859 18.9052 16.9214C18.9052 16.9392 18.9052 16.9392 18.9052 16.9392C18.9052 16.957 18.9051 16.9748 18.8861 16.9926C18.8861 17.0282 18.867 17.0638 18.867 17.0994C18.867 17.1172 18.8479 17.135 18.8479 17.1528C18.8479 17.1706 18.8288 17.1884 18.8288 17.2062C18.7906 17.3486 18.7333 17.5088 18.6951 17.6511C18.676 17.7223 18.6569 17.7935 18.6187 17.8647V17.8825C18.5996 17.9359 18.5805 18.0071 18.5614 18.0605C18.5614 18.0605 18.5614 18.0605 18.5614 18.0783C18.5614 18.0961 18.5423 18.1139 18.5423 18.1317C18.5232 18.1851 18.5041 18.2563 18.4659 18.3097C18.4277 18.3809 18.4086 18.452 18.3704 18.5232C18.3513 18.5766 18.3131 18.6478 18.2749 18.7012C18.2749 18.719 18.2558 18.719 18.2558 18.7368C18.2176 18.808 18.1985 18.8614 18.1603 18.9326C18.1221 19.0038 18.0839 19.075 18.0457 19.1284C18.0457 19.1284 18.0457 19.1284 18.0457 19.1462C17.9693 19.2707 17.8929 19.4131 17.8356 19.5377L17.7211 19.7157C17.4155 20.1962 17.0908 20.6589 16.7089 21.0683C16.6516 21.1217 16.6134 21.1929 16.5561 21.2463C16.4797 21.3353 16.4033 21.4064 16.3269 21.4954C16.2696 21.5666 16.1932 21.6378 16.1359 21.6912C16.1359 21.6912 16.1359 21.6912 16.1359 21.709C15.9449 21.9048 15.7539 22.0828 15.563 22.2429C15.5248 22.2785 15.4866 22.3141 15.4484 22.3497C15.3911 22.4031 15.3147 22.4565 15.2383 22.5099C15.181 22.5455 15.1237 22.5989 15.0664 22.6345C14.9327 22.7413 14.7799 22.8481 14.6462 22.937C14.589 22.9726 14.5317 23.026 14.4744 23.0616C14.3789 23.1328 14.2834 23.1862 14.1688 23.2574C14.1115 23.293 14.0542 23.3286 13.9969 23.3642C13.9778 23.3642 13.9778 23.382 13.9778 23.382C13.7868 23.4888 13.5958 23.5956 13.4049 23.6845C13.3476 23.7023 13.3094 23.7379 13.2521 23.7557C13.1948 23.7735 13.1566 23.7913 13.0993 23.8269C13.042 23.8625 12.9656 23.8803 12.9083 23.8981C12.8892 23.9159 12.851 23.9159 12.8319 23.9337C12.7555 23.9693 12.6791 23.9871 12.6027 24.0227C12.5072 24.0583 12.4118 24.0761 12.3163 24.1117C12.259 24.1295 12.1826 24.1473 12.1062 24.1651C12.1062 24.1651 12.1062 24.1651 12.0871 24.1651C12.0298 24.1829 11.9534 24.2007 11.8961 24.2007C11.877 24.2007 11.8579 24.2007 11.8388 24.2185C11.7815 24.2363 11.7242 24.2363 11.6669 24.2363C11.5905 24.2541 11.5141 24.2541 11.4377 24.2541C11.4186 24.2541 11.3804 24.2541 11.3614 24.2541C11.3041 24.2541 11.2468 24.2541 11.1704 24.2541C11.1131 24.2541 11.0558 24.2541 10.9794 24.2541C10.9603 24.2541 10.9412 24.2541 10.903 24.2541C10.8457 24.2541 10.7884 24.2541 10.7311 24.2363C10.712 24.2363 10.712 24.2363 10.6929 24.2363C10.6165 24.2185 10.5401 24.2185 10.4637 24.2007C10.4064 24.1829 10.33 24.1829 10.2728 24.1651C9.92898 24.0939 9.58522 23.9871 9.24145 23.8447C8.93588 23.7201 8.6494 23.5778 8.34383 23.3998C8.32473 23.382 8.30563 23.382 8.28654 23.3642C8.15285 23.293 8.01916 23.204 7.88547 23.115C7.80908 23.0616 7.73269 23.0082 7.65629 22.9726C7.42712 22.8125 7.19794 22.6345 6.96876 22.4565C6.91146 22.4031 6.83507 22.3497 6.77778 22.2963C6.72048 22.2429 6.64409 22.1895 6.58679 22.1362C6.43401 22.0116 6.30032 21.8692 6.16663 21.7268C6.14754 21.7268 6.14754 21.709 6.14754 21.709C6.09024 21.6556 6.03295 21.6022 5.97565 21.531C5.82287 21.3709 5.67008 21.1929 5.51729 21.0149C5.46 20.9437 5.4027 20.8903 5.34541 20.8191C5.15443 20.57 4.96345 20.3208 4.77246 20.0538C4.73427 19.9826 4.67697 19.9114 4.63878 19.8403C4.58148 19.7513 4.52419 19.6623 4.48599 19.5733C4.4096 19.4487 4.3332 19.3241 4.25681 19.1817C4.14222 18.9682 4.04673 18.7546 3.95124 18.541C3.93214 18.4876 3.91304 18.4342 3.89395 18.3809C3.85575 18.3097 3.83665 18.2385 3.81755 18.1851C3.79845 18.1495 3.79845 18.1317 3.77936 18.0961C3.76026 18.0249 3.72206 17.9715 3.70296 17.9003C3.66477 17.8113 3.62657 17.7045 3.60747 17.5978C3.56928 17.5088 3.55018 17.402 3.51198 17.313C3.47378 17.2062 3.45469 17.0994 3.41649 16.9926C3.41649 16.9748 3.41649 16.9748 3.41649 16.957C3.41649 16.957 3.41649 16.957 3.41649 16.9392C3.37829 16.7969 3.3401 16.6545 3.321 16.5121C3.3019 16.4587 3.3019 16.4053 3.2828 16.3519C3.2637 16.2095 3.24461 16.0672 3.22551 15.9248C3.20641 15.8536 3.20641 15.8002 3.20641 15.729C3.20641 15.6578 3.18731 15.5866 3.18731 15.5332C3.16821 15.4086 3.16821 15.2841 3.16821 15.1595C3.16821 15.0883 3.16821 15.0171 3.16821 14.9459V9.32186C3.16821 5.35299 6.5104 2.09603 10.7311 1.88245H10.7502C10.8075 1.88245 10.8648 1.88245 10.9221 1.88245C10.9985 1.88245 11.094 1.88245 11.1704 1.88245C11.2468 1.88245 11.3423 1.88245 11.4186 1.88245H11.4377C11.495 1.88245 11.5523 1.88245 11.6096 1.88245C11.6287 1.88245 11.6669 1.88245 11.686 1.88245C11.7433 1.88245 11.8006 1.88245 11.8579 1.90025C11.8961 1.90025 11.9152 1.90025 11.9534 1.90025C11.9725 1.90025 11.9916 1.90025 12.0107 1.90025C12.3163 1.93585 12.6218 1.97144 12.9274 2.04263C13.4431 2.14942 13.9396 2.3096 14.4171 2.50537C14.8563 2.68335 15.2765 2.91472 15.6775 3.16388C15.8685 3.28847 16.0404 3.41305 16.2123 3.53763C16.2696 3.59103 16.346 3.64442 16.4033 3.69781C16.7852 4.00037 17.129 4.33853 17.4346 4.71228C18.485 5.95811 19.1152 7.5243 19.1343 9.23287C19.1534 9.26847 19.1534 9.30406 19.1534 9.32186Z" fill="#DFB28B"/>
<path d="M20.5858 9.7668C20.5858 10.5499 20.4713 11.3152 20.2612 12.0449C20.1466 12.4542 19.9938 12.8458 19.8219 13.2373C19.7646 13.3619 19.7073 13.4687 19.65 13.5933C19.4781 13.4865 19.3254 13.3797 19.1535 13.2729C19.0389 13.2017 18.9243 13.1128 18.8097 13.0238C18.5232 12.8102 18.2559 12.5788 17.9885 12.3297C17.1291 11.511 16.4415 10.5499 15.9641 9.49983C15.0283 11.5644 13.3094 13.2373 11.1513 14.1806C9.89084 14.7323 8.47757 15.0527 6.98791 15.0527C6.07119 15.0527 5.17358 14.9281 4.33325 14.7145C3.97039 14.6256 3.60752 14.501 3.26375 14.3764C3.22556 14.3586 3.18736 14.3408 3.14916 14.323C3.11097 14.3052 3.09187 14.3052 3.05367 14.2874C2.84359 13.9492 2.65261 13.6111 2.48073 13.2551C2.30884 12.8814 2.15606 12.4898 2.04147 12.0805C1.83139 11.3508 1.7168 10.5855 1.7168 9.80239C1.7359 4.90805 5.9566 0.992569 11.1704 0.992569C12.8511 0.992569 14.4362 1.40191 15.8113 2.13162C15.9068 2.18501 15.9832 2.22061 16.0787 2.274C18.7715 3.80459 20.5858 6.59882 20.5858 9.7668Z" fill="#141720"/>
</svg>
