<svg width="226" height="135" viewBox="0 0 226 135" fill="none" xmlns="http://www.w3.org/2000/svg">
<g clip-path="url(#clip0)">
<path d="M1.59237 127.138H223.534C223.957 127.138 224.362 127.306 224.66 127.605C224.959 127.903 225.127 128.308 225.127 128.731V131.274H0V128.731C0 128.308 0.167767 127.903 0.466394 127.605C0.76502 127.306 1.17005 127.138 1.59237 127.138Z" fill="#787878"/>
<path d="M0 131.274H225.127V133.314C225.127 133.737 224.959 134.142 224.66 134.44C224.362 134.739 223.957 134.907 223.534 134.907H1.59237C1.17005 134.907 0.76502 134.739 0.466394 134.44C0.167767 134.142 0 133.737 0 133.314L0 131.274Z" fill="#5B5956"/>
<path d="M92.8982 19.093H188.78L202.976 40.0064H92.8982V19.093Z" fill="#37424E"/>
<path d="M72.2943 40.0063H41.5601V70.7405H72.2943V40.0063Z" fill="#008FBE"/>
<path d="M72.2943 40.0063H41.5601V43.8249H72.2943V40.0063Z" fill="#97A6C6"/>
<path d="M86.8613 19.093H52.9153L38.7231 40.0064H86.8613V19.093Z" fill="#37424E"/>
<path d="M67.8805 38.5838H38.7231V41.4246H67.8805V38.5838Z" fill="#5E6B80"/>
<path d="M67.8805 39.7668H38.7231V40.2383H67.8805V39.7668Z" fill="#465464"/>
<path d="M200.059 40.0063H108.262V88.5232H200.059V40.0063Z" fill="#97A6C6"/>
<path d="M136.769 43.8212L200.058 43.8212V40.0026L136.769 40.0026V43.8212Z" fill="#8B9CBC"/>
<path d="M202.976 38.5838H92.8982V41.4246H202.976V38.5838Z" fill="#5E6B80"/>
<path d="M202.976 39.7668H92.8982V40.2383H202.976V39.7668Z" fill="#465464"/>
<path d="M92.8982 1.87051L39.7588 47.5158V127.138H146.038V47.5158L92.8982 1.87051Z" fill="#798CAA"/>
<path d="M53.0582 56.676L22.3665 83.039V127.138H83.7538V83.039L53.0582 56.676Z" fill="#6B809A"/>
<path d="M42.5995 52.2465L95.739 6.6051L146.038 49.8077V47.5158L92.8982 1.87051L39.7588 47.5158V127.138H42.5995V52.2465Z" fill="#6B809A"/>
<path d="M149.884 52.6873L92.8985 3.74129L35.9172 52.6873L34.0659 50.5345L92.8985 0L151.731 50.5345L149.884 52.6873Z" fill="#5E6B80"/>
<path d="M150.653 51.7905L92.8984 2.18366L35.1481 51.7905L34.8389 51.4311L92.8984 1.5614L150.962 51.4311L150.653 51.7905Z" fill="#465464"/>
<path d="M163.252 29.5324L121.847 65.0978V127.138H204.658V65.0978L163.252 29.5324Z" fill="#97A6C6"/>
<path d="M125.631 68.8817L167.036 33.3201L204.658 65.6312V65.0978L163.252 29.5324L121.847 65.0978V127.138H125.631V68.8817Z" fill="#8B9CBC"/>
<path d="M51.1644 54.7821L20.4727 81.145V127.138H81.8599V81.145L51.1644 54.7821Z" fill="#97A6C6"/>
<path d="M24.2565 84.9327L54.952 58.5697L81.8599 81.6822V81.145L51.1644 54.7821L20.4727 81.145V127.138H24.2565V84.9327Z" fill="#8B9CBC"/>
<path d="M85.9338 86.5175L51.1646 56.6568L16.3992 86.5175L14.5479 84.3647L51.1646 52.9116L87.7851 84.3647L85.9338 86.5175Z" fill="#5E6B80"/>
<path d="M86.7067 85.6207L51.1645 55.0952L15.6261 85.6207L15.3169 85.2613L51.1645 54.4729L51.3191 54.6043L87.0121 85.2613L86.7067 85.6207Z" fill="#465464"/>
<path d="M194.926 68.9354H133.469V82.7681H194.926V68.9354Z" fill="#8B9CBC"/>
<path d="M208.732 70.466L163.253 31.4028L117.77 70.466L115.922 68.3132L163.253 27.6615L210.583 68.3132L208.732 70.466Z" fill="#5E6B80"/>
<path d="M209.501 69.5693L163.252 29.8451L117 69.5693L116.691 69.2137L163.252 29.2229L163.407 29.3543L209.81 69.2137L209.501 69.5693Z" fill="#465464"/>
<path d="M81.8599 120.081H20.4727V127.138H81.8599V120.081Z" fill="#8293B1"/>
<path d="M81.8599 120.081H20.4727V120.827H81.8599V120.081Z" fill="#70819C"/>
<path d="M24.2565 120.827H20.4727V127.138H24.2565V120.827Z" fill="#7286A1"/>
<path d="M24.2565 120.081H20.4727V120.827H24.2565V120.081Z" fill="#5C7085"/>
<path d="M121.847 120.081H81.8599V127.138H121.847V120.081Z" fill="#6C8097"/>
<path d="M121.847 120.081H81.8599V120.827H121.847V120.081Z" fill="#5D7183"/>
<path d="M83.7537 120.827H81.8599V127.138H83.7537V120.827Z" fill="#5D7183"/>
<path d="M83.7537 120.081H81.8599V120.827H83.7537V120.081Z" fill="#516271"/>
<path d="M112.849 120.081H111.902V120.827H112.849V120.081Z" fill="#516271"/>
<path d="M112.849 120.827H111.902V127.138H112.849V120.827Z" fill="#5D7183"/>
<path d="M204.658 120.081H121.847V127.138H204.658V120.081Z" fill="#8293B1"/>
<path d="M204.658 120.081H121.847V120.827H204.658V120.081Z" fill="#70819C"/>
<path d="M125.631 120.827H121.847V127.138H125.631V120.827Z" fill="#7286A1"/>
<path d="M125.631 120.081H121.847V120.827H125.631V120.081Z" fill="#5C7085"/>
<path d="M28.8905 122.964H25.041V123.366H28.8905V122.964Z" fill="#70819C"/>
<path d="M33.0998 124.808H29.2502V125.21H33.0998V124.808Z" fill="#70819C"/>
<path d="M40.7985 122.763H36.949V123.165H40.7985V122.763Z" fill="#70819C"/>
<path d="M48.4591 124.243H44.6096V124.645H48.4591V124.243Z" fill="#70819C"/>
<path d="M50.6234 123.165H46.7739V123.567H50.6234V123.165Z" fill="#70819C"/>
<path d="M58.5658 125.65H54.7163V126.052H58.5658V125.65Z" fill="#70819C"/>
<path d="M64.2203 121.882H60.3708V122.284H64.2203V121.882Z" fill="#70819C"/>
<path d="M68.9936 124.243H65.144V124.645H68.9936V124.243Z" fill="#70819C"/>
<path d="M76.5729 122.964H72.7234V123.366H76.5729V122.964Z" fill="#70819C"/>
<path d="M79.0194 124.85H75.1699V125.252H79.0194V124.85Z" fill="#70819C"/>
<path d="M132.522 122.06H129.438V122.461H132.522V122.06Z" fill="#70819C"/>
<path d="M125.631 123.408H123.76V123.81H125.631V123.408Z" fill="#5C7085"/>
<path d="M127.606 123.408H125.631V123.81H127.606V123.408Z" fill="#70819C"/>
<path d="M131.363 125.395H127.513V125.797H131.363V125.395Z" fill="#70819C"/>
<path d="M112.853 121.658H112.273V122.06H112.853V121.658Z" fill="#516271"/>
<path d="M116.119 121.658H112.849V122.06H116.119V121.658Z" fill="#5D7183"/>
<path d="M117.727 125.596H113.877V125.998H117.727V125.596Z" fill="#5D7183"/>
<path d="M120.572 123.609H116.722V124.011H120.572V123.609Z" fill="#5D7183"/>
<path d="M90.9079 121.859H87.0583V122.261H90.9079V121.859Z" fill="#5D7183"/>
<path d="M83.7538 123.609H82.8069V124.011H83.7538V123.609Z" fill="#516271"/>
<path d="M86.6565 123.609H83.7539V124.011H86.6565V123.609Z" fill="#5D7183"/>
<path d="M89.984 125.395H86.1345V125.797H89.984V125.395Z" fill="#5D7183"/>
<path d="M196.808 122.199H193.979V122.601H196.808V122.199Z" fill="#70819C"/>
<path d="M199.63 125.871H195.78V126.272H199.63V125.871Z" fill="#70819C"/>
<path d="M203.239 123.408H199.39V123.81H203.239V123.408Z" fill="#70819C"/>
<path d="M193.979 87.3329H132.522V127.138H193.979V87.3329Z" fill="white"/>
<path d="M191.586 89.7831H134.914V127.138H191.586V89.7831Z" fill="#627180"/>
<path d="M191.586 95.3758H134.914V95.9671H191.586V95.3758Z" fill="#43515B"/>
<path d="M191.586 99.9134H134.914V100.505H191.586V99.9134Z" fill="#43515B"/>
<path d="M191.586 104.451H134.914V105.042H191.586V104.451Z" fill="#43515B"/>
<path d="M191.586 108.988H134.914V109.58H191.586V108.988Z" fill="#43515B"/>
<path d="M191.586 113.526H134.914V114.117H191.586V113.526Z" fill="#43515B"/>
<path d="M191.586 118.063H134.914V118.655H191.586V118.063Z" fill="#43515B"/>
<path d="M191.586 122.601H134.914V123.192H191.586V122.601Z" fill="#43515B"/>
<path d="M138.702 93.5669H191.586V89.7831H134.914V127.138H138.702V93.5669Z" fill="#596876"/>
<path d="M191.586 89.7292H134.914V91.4298H191.586V89.7292Z" fill="#3A4950"/>
<path d="M138.698 95.3758H134.914V95.9671H138.698V95.3758Z" fill="#2F3C42"/>
<path d="M138.698 99.9134H134.914V100.505H138.698V99.9134Z" fill="#2F3C42"/>
<path d="M138.698 104.451H134.914V105.042H138.698V104.451Z" fill="#2F3C42"/>
<path d="M138.698 108.988H134.914V109.58H138.698V108.988Z" fill="#2F3C42"/>
<path d="M138.698 113.526H134.914V114.117H138.698V113.526Z" fill="#2F3C42"/>
<path d="M138.698 118.063H134.914V118.655H138.698V118.063Z" fill="#2F3C42"/>
<path d="M138.698 122.601H134.914V123.192H138.698V122.601Z" fill="#2F3C42"/>
<path d="M116.057 79.7808H89.5398V88.6315H116.057V79.7808Z" fill="#6B809A"/>
<path d="M65.345 115.218V87.3791H37.5056V115.218H34.4214V117.611H68.4331V115.218H65.345Z" fill="#8B9CBC"/>
<path d="M64.3979 86.4324H36.5586V114.272H64.3979V86.4324Z" fill="white"/>
<path d="M62.999 87.8314H37.9617V114.272H62.999V87.8314Z" fill="#30C0EB"/>
<path d="M40.8024 90.6722H62.999V87.8314H37.9617V114.272H40.8024V90.6722Z" fill="#00B0DA"/>
<path d="M67.4861 114.272H33.4744V116.664H67.4861V114.272Z" fill="white"/>
<path d="M37.9617 114.272H43.7784L57.0353 87.8314L51.2069 87.8585L37.9617 114.272Z" fill="#43CDF0"/>
<path d="M55.0295 114.272L62.999 98.375V94.5294L53.1008 114.272H55.0295Z" fill="#43CDF0"/>
<path d="M48.397 114.272L61.6539 87.8314H58.8711L45.6143 114.272H48.397Z" fill="#43CDF0"/>
<path d="M49.7961 90.6721H55.6129L57.0352 87.8314L51.2069 87.8585L49.7961 90.6721Z" fill="#00BBDC"/>
<path d="M37.9617 114.272H40.8024V108.609L37.9617 114.272Z" fill="#00BBDC"/>
<path d="M60.232 90.6721L61.6543 87.8314H58.8715L57.4453 90.6721H60.232Z" fill="#00BBDC"/>
<path d="M46.778 87.8314H45.375V114.272H46.778V87.8314Z" fill="white"/>
<path d="M55.59 87.8314H54.187V114.272H55.59V87.8314Z" fill="white"/>
<path d="M37.2622 104.988V106.391H63.7025V104.988H37.2622Z" fill="white"/>
<path d="M37.2622 95.7082V97.1111H63.7025V95.7082H37.2622Z" fill="white"/>
<path d="M115.11 78.8338H88.5928V87.6846H115.11V78.8338Z" fill="white"/>
<path d="M113.789 80.1558H89.9187V86.359H113.789V80.1558Z" fill="#30C0EB"/>
<path d="M91.7043 81.9453H113.789V80.1558H89.9187V86.359H91.7043V81.9453Z" fill="#00B0DA"/>
<path d="M102.518 79.4174H101.193V87.1009H102.518V79.4174Z" fill="white"/>
<path d="M97.8918 86.359L101.003 80.1558H96.3999L93.2886 86.359H97.8918Z" fill="#43CDF0"/>
<path d="M109.823 86.359L112.93 80.1558H108.814L105.707 86.359H109.823Z" fill="#43CDF0"/>
<path d="M104.524 86.359L107.636 80.1558H105.993L102.882 86.359H104.524Z" fill="#43CDF0"/>
<path d="M100.106 81.9452L101.003 80.1558H96.3998L95.5032 81.9452H100.106Z" fill="#00BBDC"/>
<path d="M106.739 81.9452L107.635 80.1558H105.993L105.096 81.9452H106.739Z" fill="#00BBDC"/>
<path d="M112.034 81.9452L112.931 80.1558H108.814L107.918 81.9452H112.034Z" fill="#00BBDC"/>
<path d="M84.2371 38.4641H68.0081V59.5127H84.2371V38.4641Z" fill="#6B809A"/>
<path d="M110.909 38.4641H94.6841V59.5127H110.909V38.4641Z" fill="#6B809A"/>
<path d="M83.2901 37.5172H67.061V58.5658H83.2901V37.5172Z" fill="white"/>
<path d="M81.8601 38.9204H68.4912V57.1669H81.8601V38.9204Z" fill="#30C0EB"/>
<path d="M70.8102 41.1968H81.8601V38.9204H68.4912V57.163H70.8102V41.1968Z" fill="#00B0DA"/>
<path d="M79.7807 38.9204H74.9109L68.4912 51.725V57.163H70.6324L79.7807 38.9204Z" fill="#43CDF0"/>
<path d="M74.737 57.163L81.8601 42.9593V38.9204H81.6166L72.4683 57.163H74.737Z" fill="#43CDF0"/>
<path d="M70.8102 47.0946L68.4912 51.7248V57.1628H70.6324L70.8102 56.8111V47.0946Z" fill="#00BBDC"/>
<path d="M78.6403 41.1968L79.7805 38.9204H74.9106L73.7666 41.1968H78.6403Z" fill="#00BBDC"/>
<path d="M81.6167 38.9204L80.4727 41.1968H81.8602V38.9204H81.6167Z" fill="#00BBDC"/>
<path d="M67.7104 47.3381V48.741H82.6408V47.3381H67.7104Z" fill="white"/>
<path d="M109.97 37.5172H93.741V58.5658H109.97V37.5172Z" fill="white"/>
<path d="M108.536 38.9204H95.1672V57.1669H108.536V38.9204Z" fill="#30C0EB"/>
<path d="M97.4901 41.1968H108.536V38.9204H95.1672V57.163H97.4901V41.1968Z" fill="#00B0DA"/>
<path d="M106.461 38.9204H101.591L95.1672 51.725V57.163H97.3123L106.461 38.9204Z" fill="#43CDF0"/>
<path d="M101.413 57.163L108.536 42.9593V38.9204H108.293L99.1443 57.163H101.413Z" fill="#43CDF0"/>
<path d="M97.4901 47.0946L95.1672 51.7248V57.1628H97.3123L97.4901 56.8111V47.0946Z" fill="#00BBDC"/>
<path d="M105.316 41.1968L106.46 38.9204H101.591L100.447 41.1968H105.316Z" fill="#00BBDC"/>
<path d="M108.293 38.9204L107.152 41.1968H108.536V38.9204H108.293Z" fill="#00BBDC"/>
<path d="M94.3904 47.3419V48.7448H109.321V47.3419H94.3904Z" fill="white"/>
<path d="M193.979 67.9888H132.522V81.8215H193.979V67.9888Z" fill="white"/>
<path d="M192.58 69.3915H133.925V80.4222H192.58V69.3915Z" fill="#30C0EB"/>
<path d="M137.709 73.1753H192.58V69.3915H133.925V80.4183H137.709V73.1753Z" fill="#00B0DA"/>
<path d="M134.539 80.4183H137.705L143.236 69.3915H140.07L134.539 80.4183Z" fill="#43CDF0"/>
<path d="M155.101 80.4183H160.918L166.449 69.3915H160.628L155.101 80.4183Z" fill="#43CDF0"/>
<path d="M175.589 80.4183H180.162L185.692 69.3915H181.12L175.589 80.4183Z" fill="#43CDF0"/>
<path d="M142.648 80.4183L148.179 69.3915H146.25L140.719 80.4183H142.648Z" fill="#43CDF0"/>
<path d="M165.463 80.4183L170.994 69.3915H168.211L162.68 80.4183H165.463Z" fill="#43CDF0"/>
<path d="M183.93 80.4183H185.994L191.525 69.3915H189.461L183.93 80.4183Z" fill="#43CDF0"/>
<path d="M141.338 73.1753L143.236 69.3915H140.07L138.173 73.1753H141.338Z" fill="#00BBDC"/>
<path d="M137.709 74.0992L134.539 80.4185H137.705L137.709 80.4146V74.0992Z" fill="#00BBDC"/>
<path d="M146.281 73.1753L148.179 69.3915H146.25L144.353 73.1753H146.281Z" fill="#00BBDC"/>
<path d="M164.551 73.1753L166.449 69.3915H160.628L158.73 73.1753H164.551Z" fill="#00BBDC"/>
<path d="M169.096 73.1753L170.994 69.3915H168.211L166.313 73.1753H169.096Z" fill="#00BBDC"/>
<path d="M183.795 73.1753L185.693 69.3915H181.12L179.223 73.1753H183.795Z" fill="#00BBDC"/>
<path d="M189.627 73.1753L191.525 69.3915H189.461L187.563 73.1753H189.627Z" fill="#00BBDC"/>
<path d="M173.962 80.4222V69.3915H172.559V80.4222H173.962Z" fill="white"/>
<path d="M153.946 80.4222V69.3916H152.543V80.4222H153.946Z" fill="white"/>
<path d="M112.849 95.4724H92.7476V120.081H112.849V95.4724Z" fill="#6B809A"/>
<path d="M111.902 94.5294H91.8008V127.138H111.902V94.5294Z" fill="white"/>
<path d="M110.503 95.9286H93.2039V127.138H110.503V95.9286Z" fill="#30C0EB"/>
<path d="M96.0251 98.7693H110.503V95.9286H93.1843V127.138H96.0251V98.7693Z" fill="#00B0DA"/>
<path d="M109.429 95.9286H103.608L93.2039 116.683V127.138H93.7797L109.429 95.9286Z" fill="#43CDF0"/>
<path d="M110.503 116.22V112.374L103.098 127.138H105.027L110.503 116.22Z" fill="#43CDF0"/>
<path d="M98.3985 127.138L110.504 102.993V97.4434L95.6118 127.138H98.3985Z" fill="#43CDF0"/>
<path d="M108.003 98.7693L109.429 95.9286H103.608L102.186 98.7693H108.003Z" fill="#00BBDC"/>
<path d="M96.0253 111.056L93.2039 116.683V127.138H93.7797L96.0253 122.659V111.056Z" fill="#00BBDC"/>
<path d="M95.6118 127.138H96.0254V126.315L95.6118 127.138Z" fill="#00BBDC"/>
<path d="M110.503 98.7691V97.4434L109.839 98.7691H110.503Z" fill="#00BBDC"/>
<path d="M108.559 112.359H107.964V120.081H108.559V112.359Z" fill="white"/>
<path d="M111.214 103.342H102.553V95.4724H101.15V103.342H92.4885V104.745H101.15V127.138H102.553V104.745H111.214V103.342Z" fill="white"/>
</g>
<defs>
<clipPath id="clip0">
<rect width="225.127" height="134.907" fill="white"/>
</clipPath>
</defs>
</svg>
