<svg width="100" height="122" viewBox="0 0 100 122" fill="none" xmlns="http://www.w3.org/2000/svg">
<path d="M75.4671 0L63.1839 30.1209H37.624L49.0041 0H75.4671Z" fill="#AB322F"/>
<path d="M64.3582 24.9277H36.721C34.9147 24.9277 33.4244 26.4179 33.4244 28.2243V45.8362H67.6548V28.2243C67.6548 26.3728 66.1646 24.9277 64.3582 24.9277ZM65.2162 31.3854H35.1856V30.0306C35.1856 28.5855 36.3598 27.3662 37.85 27.3662H62.5519C63.997 27.3662 65.2162 28.5404 65.2162 30.0306V31.3854Z" fill="#F28F0E"/>
<path d="M25.7474 0L37.6242 30.1209H63.1841L51.5331 0H25.7474Z" fill="#FA352C"/>
<path d="M43.54 30.1209L30.4892 0H28.9989L42.0498 30.1209H43.54Z" fill="#FCE0E0"/>
<path d="M49.0944 30.1209L36.0435 0H34.5532L47.6041 30.1209H49.0944Z" fill="#FCE0E0"/>
<path d="M55.191 30.1209L42.1401 0H40.6499L53.7008 30.1209H55.191Z" fill="#FCE0E0"/>
<path d="M60.5647 30.1209L47.5138 0H46.0687L59.1196 30.1209H60.5647Z" fill="#FCE0E0"/>
<path d="M83.0016 88.7045C92.1697 70.3683 84.7375 48.0717 66.4013 38.9036C48.065 29.7355 25.7684 37.1677 16.6003 55.5039C7.43221 73.8401 14.8644 96.1367 33.2006 105.305C51.5368 114.473 73.8335 107.041 83.0016 88.7045Z" fill="#FFB10F"/>
<path d="M79.6217 50.0359C83.3699 55.8163 85.5376 62.7256 85.5376 70.1316C85.5376 90.6337 68.9191 107.252 48.417 107.252C36.1789 107.252 25.3408 101.336 18.567 92.2143C25.1602 102.465 36.6757 109.239 49.7718 109.239C70.2739 109.239 86.8923 92.6207 86.8923 72.1186C86.8923 63.8545 84.2279 56.2227 79.6217 50.0359Z" fill="#FF930F"/>
<path d="M76.8623 85.6349C84.3351 70.6893 78.2772 52.5157 63.3317 45.0429C48.3861 37.5701 30.2124 43.628 22.7397 58.5736C15.2669 73.5191 21.3248 91.6928 36.2703 99.1656C51.2159 106.638 69.3895 100.58 76.8623 85.6349Z" fill="#FFDC01"/>
<path d="M46.1138 92.7111C47.2879 93.6594 47.6041 95.1948 47.6041 95.1948C47.6041 95.1948 46.0235 95.24 44.8042 94.2916C43.6301 93.3433 43.314 91.8079 43.314 91.8079C43.314 91.8079 44.8945 91.7627 46.1138 92.7111Z" fill="#FFF375"/>
<path d="M44.6686 95.1496C46.1137 94.6529 47.6039 95.1948 47.6039 95.1948C47.6039 95.1948 46.7911 96.5496 45.346 97.0463C43.9009 97.5431 42.4106 97.0012 42.4106 97.0012C42.4106 97.0012 43.2235 95.6464 44.6686 95.1496Z" fill="#FFF375"/>
<path d="M41.4625 91.4466C42.5011 92.5304 42.5914 94.1109 42.5914 94.1109C42.5914 94.1109 41.0109 93.9303 39.9722 92.8465C38.9336 91.7627 38.8433 90.1821 38.8433 90.1821C38.8433 90.1821 40.4238 90.3628 41.4625 91.4466Z" fill="#FFF375"/>
<path d="M39.7013 93.6594C41.1915 93.3433 42.5914 94.111 42.5914 94.111C42.5914 94.111 41.5979 95.3303 40.1077 95.6464C38.6175 95.9625 37.2175 95.1948 37.2175 95.1948C37.2175 95.1948 38.2562 93.9755 39.7013 93.6594Z" fill="#FFF375"/>
<path d="M37.8499 89.6854C38.708 90.9047 38.5273 92.4853 38.5273 92.4853C38.5273 92.4853 36.9919 92.0788 36.1339 90.8144C35.2759 89.5951 35.4565 88.0145 35.4565 88.0145C35.4565 88.0145 36.9919 88.421 37.8499 89.6854Z" fill="#FFF375"/>
<path d="M35.7724 91.5821C37.3078 91.5369 38.5722 92.4852 38.5722 92.4852C38.5722 92.4852 37.3981 93.5691 35.8627 93.6142C34.3273 93.6594 33.0629 92.711 33.0629 92.711C33.0629 92.711 34.237 91.6272 35.7724 91.5821Z" fill="#FFF375"/>
<path d="M34.4628 86.9307C35.0047 88.3306 34.4628 89.8208 34.4628 89.8208C34.4628 89.8208 33.0629 89.0532 32.5662 87.6532C32.0243 86.2533 32.5662 84.7631 32.5662 84.7631C32.5662 84.7631 33.9209 85.5308 34.4628 86.9307Z" fill="#FFF375"/>
<path d="M31.934 88.2855C33.4242 88.6016 34.4177 89.8209 34.4177 89.8209C34.4177 89.8209 33.0178 90.5886 31.5276 90.2724C30.0373 89.9563 29.0438 88.737 29.0438 88.737C29.0438 88.737 30.4437 87.9693 31.934 88.2855Z" fill="#FFF375"/>
<path d="M31.8889 83.7696C32.0695 85.2598 31.1664 86.5695 31.1664 86.5695C31.1664 86.5695 29.9922 85.4856 29.8116 83.9954C29.631 82.5052 30.5341 81.1956 30.5341 81.1956C30.5341 81.1956 31.7083 82.2794 31.8889 83.7696Z" fill="#FFF375"/>
<path d="M29.1343 84.4921C30.4891 85.1244 31.1664 86.5694 31.1664 86.5694C31.1664 86.5694 29.631 86.9759 28.2311 86.3437C26.8764 85.7114 26.199 84.2664 26.199 84.2664C26.199 84.2664 27.7795 83.8599 29.1343 84.4921Z" fill="#FFF375"/>
<path d="M29.6758 79.7505C29.5403 81.2407 28.4114 82.3697 28.4114 82.3697C28.4114 82.3697 27.5082 81.0601 27.5985 79.615C27.734 78.1248 28.863 76.9958 28.863 76.9958C28.863 76.9958 29.8113 78.2602 29.6758 79.7505Z" fill="#FFF375"/>
<path d="M26.8307 79.9312C28.05 80.8343 28.4113 82.3697 28.4113 82.3697C28.4113 82.3697 26.8307 82.46 25.6114 81.5569C24.3922 80.6537 24.0309 79.1183 24.0309 79.1183C24.0309 79.1183 25.6114 79.028 26.8307 79.9312Z" fill="#FFF375"/>
<path d="M28.5468 75.9571C28.1855 77.4022 26.8759 78.3505 26.8759 78.3505C26.8759 78.3505 26.1533 76.9506 26.5146 75.5055C26.8759 74.0605 28.1855 73.1121 28.1855 73.1121C28.1855 73.1121 28.908 74.512 28.5468 75.9571Z" fill="#FFF375"/>
<path d="M25.702 75.6862C26.7406 76.77 26.8761 78.3506 26.8761 78.3506C26.8761 78.3506 25.2955 78.1699 24.2117 77.1313C23.1731 76.0475 23.0376 74.4669 23.0376 74.4669C23.0376 74.4669 24.6633 74.6024 25.702 75.6862Z" fill="#FFF375"/>
<path d="M28.4116 71.7122C27.689 73.0218 26.1988 73.6089 26.1988 73.6089C26.1988 73.6089 25.8827 72.0735 26.5601 70.7639C27.2826 69.4543 28.7728 68.8672 28.7728 68.8672C28.7728 68.8672 29.1341 70.4026 28.4116 71.7122Z" fill="#FFF375"/>
<path d="M25.747 70.7639C26.5147 72.0735 26.2437 73.6089 26.2437 73.6089C26.2437 73.6089 24.7535 73.067 23.9858 71.8025C23.2181 70.4929 23.489 68.9575 23.489 68.9575C23.489 68.9575 24.9793 69.4994 25.747 70.7639Z" fill="#FFF375"/>
<path d="M29.1789 67.4222C28.1854 68.5511 26.6049 68.7769 26.6049 68.7769C26.6049 68.7769 26.65 67.1964 27.6435 66.0674C28.637 64.9384 30.2176 64.7126 30.2176 64.7126C30.2176 64.7126 30.1724 66.2932 29.1789 67.4222Z" fill="#FFF375"/>
<path d="M26.7854 65.8868C27.237 67.3319 26.5596 68.7769 26.5596 68.7769C26.5596 68.7769 25.2049 67.9189 24.7984 66.4738C24.3468 65.0288 25.0242 63.5837 25.0242 63.5837C25.0242 63.5837 26.379 64.4869 26.7854 65.8868Z" fill="#FFF375"/>
<path d="M30.7598 63.8998C29.5405 64.7578 27.9148 64.6223 27.9148 64.6223C27.9148 64.6223 28.3212 63.0869 29.5405 62.2289C30.7598 61.3709 32.3855 61.5063 32.3855 61.5063C32.3855 61.5063 31.9791 63.0417 30.7598 63.8998Z" fill="#FFF375"/>
<path d="M28.7728 61.8676C28.8631 63.3578 27.9148 64.6223 27.9148 64.6223C27.9148 64.6223 26.831 63.4933 26.7407 62.003C26.6504 60.5128 27.5987 59.2484 27.5987 59.2484C27.5987 59.2484 28.6825 60.3773 28.7728 61.8676Z" fill="#FFF375"/>
<path d="M32.7017 60.6935C31.3469 61.3709 29.7664 60.9645 29.7664 60.9645C29.7664 60.9645 30.3986 59.5194 31.7533 58.842C33.1081 58.1646 34.6887 58.5711 34.6887 58.5711C34.6887 58.5711 34.0564 60.0613 32.7017 60.6935Z" fill="#FFF375"/>
<path d="M31.0761 58.3904C30.9407 59.8806 29.7665 60.9644 29.7665 60.9644C29.7665 60.9644 28.8634 59.6548 28.9988 58.1646C29.1343 56.6743 30.3085 55.5905 30.3085 55.5905C30.3085 55.5905 31.2116 56.9453 31.0761 58.3904Z" fill="#FFF375"/>
<path d="M54.3329 92.5303C53.1588 93.4787 52.8427 95.0141 52.8427 95.0141C52.8427 95.0141 54.4232 95.0592 55.6425 94.1109C56.8166 93.1626 57.1327 91.6272 57.1327 91.6272C57.1327 91.6272 55.507 91.582 54.3329 92.5303Z" fill="#FFF375"/>
<path d="M55.7327 94.9238C54.2876 94.4271 52.7974 94.969 52.7974 94.969C52.7974 94.969 53.6102 96.3237 55.0553 96.8205C56.5004 97.3172 57.9906 96.7753 57.9906 96.7753C57.9906 96.7753 57.1778 95.4206 55.7327 94.9238Z" fill="#FFF375"/>
<path d="M58.3516 91.4466C57.313 92.5304 57.2227 94.1109 57.2227 94.1109C57.2227 94.1109 58.8032 93.9303 59.8419 92.8465C60.8805 91.7627 60.9708 90.1821 60.9708 90.1821C60.9708 90.1821 59.3903 90.3628 58.3516 91.4466Z" fill="#FFF375"/>
<path d="M60.1128 93.6594C58.6226 93.3433 57.2227 94.111 57.2227 94.111C57.2227 94.111 58.2162 95.3303 59.7064 95.6464C61.1966 95.9625 62.5966 95.1948 62.5966 95.1948C62.5966 95.1948 61.6031 93.9755 60.1128 93.6594Z" fill="#FFF375"/>
<path d="M61.9644 89.5048C61.1063 90.7241 61.287 92.3046 61.287 92.3046C61.287 92.3046 62.8224 91.8982 63.6804 90.6338C64.5384 89.4145 64.3578 87.8339 64.3578 87.8339C64.3578 87.8339 62.8224 88.2855 61.9644 89.5048Z" fill="#FFF375"/>
<path d="M64.0415 91.4014C62.5061 91.3562 61.2417 92.3046 61.2417 92.3046C61.2417 92.3046 62.4158 93.3884 63.9512 93.4336C65.4866 93.4787 66.7511 92.5304 66.7511 92.5304C66.7511 92.5304 65.5769 91.4917 64.0415 91.4014Z" fill="#FFF375"/>
<path d="M65.2609 86.8404C64.719 88.2403 65.2609 89.7305 65.2609 89.7305C65.2609 89.7305 66.6608 88.9628 67.1575 87.5629C67.6994 86.163 67.1575 84.6727 67.1575 84.6727C67.1575 84.6727 65.8028 85.4404 65.2609 86.8404Z" fill="#FFF375"/>
<path d="M67.745 88.1952C66.2547 88.5113 65.2612 89.7306 65.2612 89.7306C65.2612 89.7306 66.6612 90.4983 68.1514 90.1822C69.6416 89.8661 70.6351 88.6468 70.6351 88.6468C70.6351 88.6468 69.2352 87.8791 67.745 88.1952Z" fill="#FFF375"/>
<path d="M67.9705 83.4535C67.7899 84.9437 68.6931 86.2534 68.6931 86.2534C68.6931 86.2534 69.8672 85.1695 70.0478 83.6793C70.2285 82.1891 69.3253 80.8795 69.3253 80.8795C69.3253 80.8795 68.1512 81.9633 67.9705 83.4535Z" fill="#FFF375"/>
<path d="M70.7253 84.176C69.3705 84.8083 68.6931 86.2534 68.6931 86.2534C68.6931 86.2534 70.2285 86.6598 71.6284 86.0276C72.9832 85.3953 73.6606 83.9503 73.6606 83.9503C73.6606 83.9503 72.08 83.5438 70.7253 84.176Z" fill="#FFF375"/>
<path d="M69.9122 79.7054C70.0476 81.1957 71.1766 82.3246 71.1766 82.3246C71.1766 82.3246 72.0798 81.015 71.9895 79.57C71.854 78.0797 70.725 76.9507 70.725 76.9507C70.725 76.9507 69.7767 78.2152 69.9122 79.7054Z" fill="#FFF375"/>
<path d="M72.7573 79.8409C71.538 80.744 71.1768 82.2794 71.1768 82.2794C71.1768 82.2794 72.7573 82.3697 73.9766 81.4666C75.1959 80.5634 75.5572 79.028 75.5572 79.028C75.5572 79.028 73.9766 78.9828 72.7573 79.8409Z" fill="#FFF375"/>
<path d="M71.0412 75.8669C71.4025 77.3119 72.7121 78.2603 72.7121 78.2603C72.7121 78.2603 73.4346 76.8604 73.0734 75.4153C72.7121 73.9702 71.4025 73.0219 71.4025 73.0219C71.4025 73.0219 70.6799 74.4218 71.0412 75.8669Z" fill="#FFF375"/>
<path d="M73.8863 75.5959C72.8476 76.6797 72.7122 78.2603 72.7122 78.2603C72.7122 78.2603 74.2927 78.0797 75.3765 77.041C76.4152 75.9572 76.5507 74.3766 76.5507 74.3766C76.5507 74.3766 74.9249 74.5121 73.8863 75.5959Z" fill="#FFF375"/>
<path d="M71.1316 71.7574C71.8542 73.067 73.3444 73.6541 73.3444 73.6541C73.3444 73.6541 73.6605 72.1187 72.9832 70.8091C72.2606 69.4995 70.7704 68.9124 70.7704 68.9124C70.7704 68.9124 70.4091 70.4478 71.1316 71.7574Z" fill="#FFF375"/>
<path d="M73.841 70.8542C73.0733 72.1638 73.3442 73.6992 73.3442 73.6992C73.3442 73.6992 74.8345 73.1573 75.6022 71.8929C76.3699 70.5833 76.0989 69.0479 76.0989 69.0479C76.0989 69.0479 74.5635 69.5446 73.841 70.8542Z" fill="#FFF375"/>
<path d="M70.3638 67.4673C71.3573 68.5963 72.9379 68.8221 72.9379 68.8221C72.9379 68.8221 72.8927 67.2415 71.8992 66.1126C70.9057 64.9836 69.3252 64.7578 69.3252 64.7578C69.3252 64.7578 69.3252 66.3835 70.3638 67.4673Z" fill="#FFF375"/>
<path d="M72.7121 65.9319C72.2605 67.377 72.9379 68.8221 72.9379 68.8221C72.9379 68.8221 74.2927 67.9641 74.6991 66.519C75.1507 65.0739 74.4733 63.6288 74.4733 63.6288C74.4733 63.6288 73.1637 64.532 72.7121 65.9319Z" fill="#FFF375"/>
<path d="M68.8286 64.0352C70.0479 64.8932 71.6736 64.7577 71.6736 64.7577C71.6736 64.7577 71.2672 63.2223 70.0479 62.3643C68.8286 61.5063 67.2029 61.6418 67.2029 61.6418C67.2029 61.6418 67.6093 63.1772 68.8286 64.0352Z" fill="#FFF375"/>
<path d="M70.8159 62.003C70.7256 63.4932 71.6739 64.7577 71.6739 64.7577C71.6739 64.7577 72.7577 63.6287 72.848 62.1385C72.9383 60.6482 71.99 59.3838 71.99 59.3838C71.99 59.3838 70.9062 60.5128 70.8159 62.003Z" fill="#FFF375"/>
<path d="M66.7964 60.8741C68.1512 61.5514 69.7318 61.145 69.7318 61.145C69.7318 61.145 69.0995 59.6999 67.7448 59.0225C66.39 58.3452 64.8094 58.7516 64.8094 58.7516C64.8094 58.7516 65.4417 60.1967 66.7964 60.8741Z" fill="#FFF375"/>
<path d="M68.4222 58.571C68.5576 60.0613 69.7318 61.1451 69.7318 61.1451C69.7318 61.1451 70.635 59.8355 70.4995 58.3452C70.364 56.855 69.1899 55.7712 69.1899 55.7712C69.1899 55.7712 68.2415 57.0808 68.4222 58.571Z" fill="#FFF375"/>
<path d="M65.7127 56.313C65.6675 56.3582 65.5772 56.4485 65.4869 56.4937C65.4417 56.4937 65.4417 56.5388 65.3965 56.5388C70.1382 60.6031 73.1187 66.4286 73.1187 72.9315C73.1187 85.1244 62.6419 95.0142 49.7264 95.0142C36.811 95.0142 26.3342 85.1244 26.3342 72.9315C26.3342 66.6996 29.0889 61.0999 33.4693 57.0808C33.3338 57.0356 33.1983 56.9904 33.108 56.9453C28.7276 61.0096 25.9729 66.6996 25.9729 72.9315C25.9729 85.305 36.6304 95.3754 49.7264 95.3754C62.8225 95.3754 73.48 85.305 73.48 72.9315C73.5251 66.3383 70.4995 60.4225 65.7127 56.313Z" fill="#FFF375"/>
<path d="M35.8177 57.8937C34.3274 58.2098 32.9275 57.4872 32.9275 57.4872C32.9275 57.4872 33.921 56.2228 35.4112 55.9067C36.9015 55.5906 38.3014 56.3131 38.3014 56.3131C38.3014 56.3131 37.3079 57.5775 35.8177 57.8937Z" fill="#FFF375"/>
<path d="M34.8241 55.2744C34.3273 56.6744 32.9274 57.4872 32.9274 57.4872C32.9274 57.4872 32.3855 55.997 32.8823 54.5971C33.379 53.1971 34.7789 52.3843 34.7789 52.3843C34.7789 52.3843 35.3208 53.8745 34.8241 55.2744Z" fill="#FFF375"/>
<path d="M63.8159 57.8937C65.3061 58.2098 66.7061 57.4872 66.7061 57.4872C66.7061 57.4872 65.7126 56.2228 64.2223 55.9067C62.7321 55.5906 61.3322 56.3131 61.3322 56.3131C61.3322 56.3131 62.3256 57.5775 63.8159 57.8937Z" fill="#FFF375"/>
<path d="M64.8095 55.2744C65.3062 56.6744 66.7062 57.4872 66.7062 57.4872C66.7062 57.4872 67.2481 55.997 66.7513 54.5971C66.2546 53.1971 64.8547 52.3843 64.8547 52.3843C64.8547 52.3843 64.3128 53.8745 64.8095 55.2744Z" fill="#FFF375"/>
<path d="M48.4621 58.8419H53.7006V83.9954H47.559V65.6157L42.9076 68.822L39.9271 64.4868L48.4621 58.8419Z" fill="#FFF375"/>
</svg>
