<svg width="88" height="120" viewBox="0 0 88 120" fill="none" xmlns="http://www.w3.org/2000/svg">
<path d="M70.5212 0L57.6081 31.5497H30.8831L42.7556 0H70.5212Z" fill="#892020"/>
<path d="M58.8379 26.1101H29.8897C27.9977 26.1101 26.4368 27.671 26.4368 29.5631V48.0104H62.2908V29.5631C62.2908 27.6237 60.7299 26.1101 58.8379 26.1101ZM59.7366 32.8741H28.3288V31.4551C28.3288 29.9415 29.5586 28.6644 31.1196 28.6644H56.9931C58.5068 28.6644 59.7839 29.8942 59.7839 31.4551V32.8741H59.7366Z" fill="#6B7384"/>
<path d="M18.3955 0L30.8829 31.5497H57.6079L45.4516 0H18.3955Z" fill="#FA352C"/>
<path d="M35.8023 31.5497L23.0784 0H21.0444L33.7684 31.5497H35.8023Z" fill="#FF740D"/>
<path d="M42.0462 31.5497L29.3223 0H27.2883L40.0123 31.5497H42.0462Z" fill="#FF740D"/>
<path d="M48.0533 31.5497L35.3293 0H33.2954L46.0194 31.5497H48.0533Z" fill="#FF740D"/>
<path d="M54.4864 31.5497L41.8098 0H39.7285L52.4525 31.5497H54.4864Z" fill="#FF740D"/>
<path d="M82.1524 80.5861C84.9418 59.295 69.9433 39.7739 48.6522 36.9845C27.3612 34.1951 7.8401 49.1936 5.05068 70.4847C2.26127 91.7757 17.2598 111.297 38.5508 114.086C59.8419 116.876 79.363 101.877 82.1524 80.5861Z" fill="#798093"/>
<path d="M43.6071 36.6581C43.2287 36.6581 42.8503 36.6581 42.4719 36.6581C63.4262 37.2731 80.218 54.4433 80.218 75.5395C80.218 96.6357 63.4262 113.806 42.4719 114.421C42.8503 114.421 43.2287 114.421 43.6071 114.421C65.0817 114.421 82.4885 97.0141 82.4885 75.5395C82.4885 54.0649 65.0817 36.6581 43.6071 36.6581Z" fill="#6B7384"/>
<path d="M75.0237 79.6521C77.2973 62.2981 65.0722 46.3867 47.7182 44.1131C30.3642 41.8395 14.4528 54.0646 12.1792 71.4186C9.90563 88.7726 22.1307 104.684 39.4847 106.958C56.8387 109.231 72.7501 97.0061 75.0237 79.6521Z" fill="#9EA8BA"/>
<path d="M42.6136 81.0738H52.3103V85.8512H34.9036V80.8846C37.9308 78.283 45.5463 71.9447 45.5463 67.9714C45.5463 65.9848 44.2218 64.6131 42.046 64.6131C39.8702 64.6131 37.647 65.4645 35.7077 66.4578L35.5185 61.1601C48.6681 55.957 55.9052 64.2819 49.7087 73.411C48.2424 75.7288 45.8774 78.2357 42.6136 81.0738Z" fill="#CAD5E5"/>
<path d="M39.7286 97.5818C40.9584 98.5751 41.2895 100.183 41.2895 100.183C41.2895 100.183 39.6339 100.231 38.3568 99.2373C37.127 98.244 36.7959 96.6358 36.7959 96.6358C36.7959 96.6358 38.4987 96.5885 39.7286 97.5818Z" fill="#BAC6D8"/>
<path d="M38.2147 100.136C39.7283 99.6158 41.2892 100.183 41.2892 100.183C41.2892 100.183 40.4378 101.602 38.9242 102.123C37.4105 102.643 35.8496 102.075 35.8496 102.075C35.8496 102.075 36.7483 100.656 38.2147 100.136Z" fill="#BAC6D8"/>
<path d="M34.9039 96.2573C35.9918 97.3926 36.0864 99.0481 36.0864 99.0481C36.0864 99.0481 34.4308 98.8589 33.3429 97.7237C32.255 96.5885 32.1604 94.9329 32.1604 94.9329C32.1604 94.9329 33.8159 95.1221 34.9039 96.2573Z" fill="#BAC6D8"/>
<path d="M33.0588 98.5751C34.6198 98.244 36.0861 99.0481 36.0861 99.0481C36.0861 99.0481 35.0455 100.325 33.4845 100.656C31.9236 100.987 30.4573 100.183 30.4573 100.183C30.4573 100.183 31.4979 98.9062 33.0588 98.5751Z" fill="#BAC6D8"/>
<path d="M31.0724 94.3653C31.9711 95.6424 31.7819 97.298 31.7819 97.298C31.7819 97.298 30.1737 96.8723 29.275 95.5478C28.3762 94.2707 28.5654 92.6152 28.5654 92.6152C28.5654 92.6152 30.1737 93.0882 31.0724 94.3653Z" fill="#BAC6D8"/>
<path d="M28.8964 96.3992C30.5046 96.3519 31.8291 97.3452 31.8291 97.3452C31.8291 97.3452 30.5992 98.4805 28.991 98.5278C27.3828 98.5751 26.0583 97.5817 26.0583 97.5817C26.0583 97.5817 27.2882 96.4465 28.8964 96.3992Z" fill="#BAC6D8"/>
<path d="M27.5248 91.5273C28.0924 92.9936 27.5248 94.5545 27.5248 94.5545C27.5248 94.5545 26.0585 93.7504 25.5382 92.2841C24.9705 90.8178 25.5382 89.2568 25.5382 89.2568C25.5382 89.2568 26.9572 90.061 27.5248 91.5273Z" fill="#BAC6D8"/>
<path d="M24.9233 92.9463C26.4842 93.2774 27.5248 94.5545 27.5248 94.5545C27.5248 94.5545 26.0585 95.3586 24.4975 95.0275C22.9366 94.6964 21.896 93.4193 21.896 93.4193C21.896 93.4193 23.3623 92.6152 24.9233 92.9463Z" fill="#BAC6D8"/>
<path d="M24.8285 88.1689C25.0177 89.7298 24.0717 91.1015 24.0717 91.1015C24.0717 91.1015 22.8419 89.9663 22.6527 88.4054C22.4635 86.8444 23.4095 85.4727 23.4095 85.4727C23.4095 85.4727 24.6393 86.6552 24.8285 88.1689Z" fill="#BAC6D8"/>
<path d="M21.9432 88.973C23.3622 89.6352 24.0718 91.1488 24.0718 91.1488C24.0718 91.1488 22.4635 91.5746 20.9972 90.9123C19.5782 90.2501 18.8687 88.7365 18.8687 88.7365C18.8687 88.7365 20.5242 88.3108 21.9432 88.973Z" fill="#BAC6D8"/>
<path d="M22.5582 84.0065C22.4163 85.5674 21.2338 86.7499 21.2338 86.7499C21.2338 86.7499 20.2878 85.3782 20.3824 83.8645C20.5243 82.3036 21.7068 81.1211 21.7068 81.1211C21.7068 81.1211 22.6528 82.4455 22.5582 84.0065Z" fill="#BAC6D8"/>
<path d="M19.5784 84.1957C20.8555 85.1417 21.2339 86.7499 21.2339 86.7499C21.2339 86.7499 19.5784 86.8445 18.3013 85.8985C17.0242 84.9525 16.6458 83.3442 16.6458 83.3442C16.6458 83.3442 18.3013 83.2496 19.5784 84.1957Z" fill="#BAC6D8"/>
<path d="M21.3759 80.0331C20.9974 81.5467 19.6257 82.5401 19.6257 82.5401C19.6257 82.5401 18.8689 81.0737 19.2473 79.5601C19.6257 78.0465 20.9974 77.0532 20.9974 77.0532C20.9974 77.0532 21.7543 78.5195 21.3759 80.0331Z" fill="#BAC6D8"/>
<path d="M18.3957 79.7494C19.4837 80.8846 19.6256 82.5401 19.6256 82.5401C19.6256 82.5401 17.97 82.3509 16.8348 81.263C15.7469 80.1278 15.605 78.4722 15.605 78.4722C15.605 78.4722 17.2605 78.6141 18.3957 79.7494Z" fill="#BAC6D8"/>
<path d="M21.2338 75.5869C20.477 76.9586 18.916 77.5735 18.916 77.5735C18.916 77.5735 18.5849 75.9653 19.2944 74.5936C20.0513 73.2218 21.6122 72.6069 21.6122 72.6069C21.6122 72.6069 21.9906 74.2152 21.2338 75.5869Z" fill="#BAC6D8"/>
<path d="M18.3961 74.5936C19.2002 75.9653 18.9164 77.5735 18.9164 77.5735C18.9164 77.5735 17.3554 77.0059 16.5513 75.6815C15.7472 74.3098 16.031 72.7015 16.031 72.7015C16.031 72.7015 17.6392 73.2691 18.3961 74.5936Z" fill="#BAC6D8"/>
<path d="M22.0379 71.0933C20.9973 72.2758 19.3418 72.5123 19.3418 72.5123C19.3418 72.5123 19.3891 70.8568 20.4297 69.6743C21.4703 68.4918 23.1259 68.2552 23.1259 68.2552C23.1259 68.2552 23.0786 69.9108 22.0379 71.0933Z" fill="#BAC6D8"/>
<path d="M19.5312 69.485C20.0042 70.9987 19.2947 72.5123 19.2947 72.5123C19.2947 72.5123 17.8757 71.6136 17.45 70.0999C16.9769 68.5863 17.6865 67.0727 17.6865 67.0727C17.6865 67.0727 19.0582 67.9714 19.5312 69.485Z" fill="#BAC6D8"/>
<path d="M23.6462 67.4039C22.3691 68.3026 20.6663 68.1607 20.6663 68.1607C20.6663 68.1607 21.092 66.5524 22.3691 65.6537C23.6462 64.755 25.349 64.8969 25.349 64.8969C25.349 64.8969 24.9233 66.5051 23.6462 67.4039Z" fill="#BAC6D8"/>
<path d="M21.5648 65.2753C21.6594 66.8362 20.6661 68.1607 20.6661 68.1607C20.6661 68.1607 19.5309 66.9781 19.4363 65.4172C19.3417 63.8563 20.335 62.5319 20.335 62.5319C20.335 62.5319 21.4702 63.7144 21.5648 65.2753Z" fill="#BAC6D8"/>
<path d="M25.6803 64.0455C24.2612 64.755 22.6057 64.3293 22.6057 64.3293C22.6057 64.3293 23.2679 62.8157 24.687 62.1061C26.106 61.3966 27.7615 61.8223 27.7615 61.8223C27.7615 61.8223 27.0993 63.3833 25.6803 64.0455Z" fill="#BAC6D8"/>
<path d="M23.9772 61.6332C23.8353 63.1941 22.6055 64.3293 22.6055 64.3293C22.6055 64.3293 21.6595 62.9576 21.8014 61.3967C21.9433 59.8357 23.1731 58.7005 23.1731 58.7005C23.1731 58.7005 24.1191 60.0722 23.9772 61.6332Z" fill="#BAC6D8"/>
<path d="M48.3371 97.3926C47.1072 98.3859 46.7761 99.9942 46.7761 99.9942C46.7761 99.9942 48.4317 100.041 49.7088 99.0481C50.9386 98.0548 51.2697 96.4466 51.2697 96.4466C51.2697 96.4466 49.5669 96.3993 48.3371 97.3926Z" fill="#BAC6D8"/>
<path d="M49.8507 99.8995C48.3371 99.3792 46.7761 99.9468 46.7761 99.9468C46.7761 99.9468 47.6275 101.366 49.1412 101.886C50.6548 102.406 52.2157 101.839 52.2157 101.839C52.2157 101.839 51.317 100.42 49.8507 99.8995Z" fill="#BAC6D8"/>
<path d="M52.547 96.2574C51.4591 97.3926 51.3645 99.0482 51.3645 99.0482C51.3645 99.0482 53.02 98.859 54.108 97.7237C55.1959 96.5885 55.2905 94.933 55.2905 94.933C55.2905 94.933 53.6349 95.1222 52.547 96.2574Z" fill="#BAC6D8"/>
<path d="M54.3918 98.5751C52.8308 98.244 51.3645 99.0481 51.3645 99.0481C51.3645 99.0481 52.4051 100.325 53.9661 100.656C55.527 100.987 56.9933 100.183 56.9933 100.183C56.9933 100.183 55.9527 98.9062 54.3918 98.5751Z" fill="#BAC6D8"/>
<path d="M56.3782 94.2235C55.4795 95.5006 55.6687 97.1561 55.6687 97.1561C55.6687 97.1561 57.2769 96.7304 58.1757 95.406C59.0744 94.1289 58.8852 92.4733 58.8852 92.4733C58.8852 92.4733 57.2769 92.9463 56.3782 94.2235Z" fill="#BAC6D8"/>
<path d="M58.5542 96.2101C56.946 96.1628 55.6216 97.1561 55.6216 97.1561C55.6216 97.1561 56.8514 98.2913 58.4596 98.3386C60.0679 98.3859 61.3923 97.3926 61.3923 97.3926C61.3923 97.3926 60.1152 96.3047 58.5542 96.2101Z" fill="#BAC6D8"/>
<path d="M59.784 91.4327C59.2164 92.8991 59.784 94.46 59.784 94.46C59.784 94.46 61.2503 93.6559 61.7706 92.1895C62.3383 90.7232 61.7706 89.1623 61.7706 89.1623C61.7706 89.1623 60.3516 89.9664 59.784 91.4327Z" fill="#BAC6D8"/>
<path d="M62.4328 92.8518C60.8719 93.1829 59.8313 94.46 59.8313 94.46C59.8313 94.46 61.2976 95.2641 62.8586 94.933C64.4195 94.6019 65.4601 93.3248 65.4601 93.3248C65.4601 93.3248 63.9465 92.5207 62.4328 92.8518Z" fill="#BAC6D8"/>
<path d="M62.6219 87.8851C62.4327 89.446 63.3788 90.8178 63.3788 90.8178C63.3788 90.8178 64.6086 89.6825 64.7978 88.1216C64.987 86.5607 64.041 85.189 64.041 85.189C64.041 85.189 62.8111 86.3242 62.6219 87.8851Z" fill="#BAC6D8"/>
<path d="M65.5074 88.642C64.0884 89.3042 63.3789 90.8178 63.3789 90.8178C63.3789 90.8178 64.9871 91.2435 66.4535 90.5813C67.8725 89.9191 68.582 88.4054 68.582 88.4054C68.582 88.4054 66.9265 87.9797 65.5074 88.642Z" fill="#BAC6D8"/>
<path d="M64.656 83.9119C64.7979 85.4728 65.9804 86.6554 65.9804 86.6554C65.9804 86.6554 66.9264 85.2836 66.8318 83.77C66.6899 82.2091 65.5074 81.0266 65.5074 81.0266C65.5074 81.0266 64.5141 82.3983 64.656 83.9119Z" fill="#BAC6D8"/>
<path d="M67.636 84.1011C66.3589 85.0471 65.9805 86.6554 65.9805 86.6554C65.9805 86.6554 67.636 86.75 68.9131 85.8039C70.1902 84.8579 70.5687 83.2497 70.5687 83.2497C70.5687 83.2497 68.9131 83.2024 67.636 84.1011Z" fill="#BAC6D8"/>
<path d="M65.8384 79.9386C66.2168 81.4523 67.5885 82.4456 67.5885 82.4456C67.5885 82.4456 68.3453 80.9793 67.9669 79.4656C67.5885 77.952 66.2168 76.9587 66.2168 76.9587C66.2168 76.9587 65.46 78.425 65.8384 79.9386Z" fill="#BAC6D8"/>
<path d="M68.8184 79.6548C67.7305 80.79 67.5886 82.4456 67.5886 82.4456C67.5886 82.4456 69.2442 82.2564 70.3794 81.1684C71.4673 80.0332 71.6092 78.3777 71.6092 78.3777C71.6092 78.3777 69.9064 78.5196 68.8184 79.6548Z" fill="#BAC6D8"/>
<path d="M65.9803 75.6342C66.7371 77.006 68.2981 77.6209 68.2981 77.6209C68.2981 77.6209 68.6292 76.0127 67.9197 74.6409C67.1629 73.2692 65.6019 72.6543 65.6019 72.6543C65.6019 72.6543 65.2235 74.2625 65.9803 75.6342Z" fill="#BAC6D8"/>
<path d="M68.7713 74.6409C67.9672 76.0127 68.251 77.6209 68.251 77.6209C68.251 77.6209 69.8119 77.0533 70.616 75.7289C71.4201 74.3571 71.1363 72.7489 71.1363 72.7489C71.1363 72.7489 69.5754 73.3165 68.7713 74.6409Z" fill="#BAC6D8"/>
<path d="M65.1289 71.1407C66.1696 72.3232 67.8251 72.5597 67.8251 72.5597C67.8251 72.5597 67.7778 70.9042 66.7372 69.7216C65.6965 68.5391 64.041 68.3026 64.041 68.3026C64.041 68.3026 64.0883 69.9581 65.1289 71.1407Z" fill="#BAC6D8"/>
<path d="M67.636 69.5324C67.163 71.046 67.8725 72.5597 67.8725 72.5597C67.8725 72.5597 69.2915 71.6609 69.7172 70.1473C70.1902 68.6337 69.4807 67.1201 69.4807 67.1201C69.4807 67.1201 68.0617 68.0661 67.636 69.5324Z" fill="#BAC6D8"/>
<path d="M63.5683 67.4985C64.8454 68.3972 66.5483 68.2553 66.5483 68.2553C66.5483 68.2553 66.1226 66.647 64.8454 65.7483C63.5683 64.8496 61.8655 64.9915 61.8655 64.9915C61.8655 64.9915 62.2439 66.5997 63.5683 67.4985Z" fill="#BAC6D8"/>
<path d="M65.6021 65.4172C65.5075 66.9781 66.5008 68.3026 66.5008 68.3026C66.5008 68.3026 67.636 67.1201 67.7306 65.5591C67.8252 63.9982 66.8319 62.6738 66.8319 62.6738C66.8319 62.6738 65.6967 63.8563 65.6021 65.4172Z" fill="#BAC6D8"/>
<path d="M61.3923 64.1874C62.8113 64.8969 64.4668 64.4712 64.4668 64.4712C64.4668 64.4712 63.8046 62.9576 62.3856 62.248C60.9666 61.5385 59.311 61.9642 59.311 61.9642C59.311 61.9642 59.9732 63.5252 61.3923 64.1874Z" fill="#BAC6D8"/>
<path d="M63.0951 61.7751C63.237 63.336 64.4668 64.4712 64.4668 64.4712C64.4668 64.4712 65.4128 63.0995 65.2709 61.5386C65.129 59.9776 63.8992 58.8424 63.8992 58.8424C63.8992 58.8424 62.9532 60.2614 63.0951 61.7751Z" fill="#BAC6D8"/>
<path d="M60.2569 59.4573C60.2096 59.5046 60.115 59.5992 60.0204 59.6465C59.9731 59.6465 59.9731 59.6938 59.9258 59.6938C64.8923 63.9509 68.0142 70.0527 68.0142 76.8641C68.0142 89.6353 57.0404 99.9942 43.5123 99.9942C29.9843 99.9942 19.0105 89.6353 19.0105 76.8641C19.0105 70.3365 21.8958 64.4712 26.484 60.2615C26.3421 60.2142 26.2002 60.1669 26.1056 60.1195C21.5174 64.3766 18.6321 70.3365 18.6321 76.8641C18.6321 89.8245 29.7951 100.373 43.5123 100.373C57.2296 100.373 68.3926 89.8245 68.3926 76.8641C68.4399 69.9581 65.2708 63.7617 60.2569 59.4573Z" fill="#BAC6D8"/>
<path d="M28.9911 61.1128C27.4302 61.4439 25.9639 60.6871 25.9639 60.6871C25.9639 60.6871 27.0045 59.3627 28.5654 59.0316C30.1263 58.7005 31.5927 59.4573 31.5927 59.4573C31.5927 59.4573 30.5048 60.7817 28.9911 61.1128Z" fill="#BAC6D8"/>
<path d="M27.9032 58.3694C27.3829 59.8357 25.9166 60.6871 25.9166 60.6871C25.9166 60.6871 25.3489 59.1262 25.8693 57.6598C26.3896 56.1935 27.8559 55.3421 27.8559 55.3421C27.8559 55.3421 28.4708 56.903 27.9032 58.3694Z" fill="#BAC6D8"/>
<path d="M58.2703 61.1128C59.8312 61.4439 61.2975 60.6871 61.2975 60.6871C61.2975 60.6871 60.2569 59.3627 58.696 59.0316C57.135 58.7005 55.6687 59.4573 55.6687 59.4573C55.6687 59.4573 56.7093 60.7817 58.2703 61.1128Z" fill="#BAC6D8"/>
<path d="M59.3111 58.3694C59.8315 59.8357 61.2978 60.6871 61.2978 60.6871C61.2978 60.6871 61.8654 59.1262 61.3451 57.6598C60.8248 56.1935 59.3584 55.3421 59.3584 55.3421C59.3584 55.3421 58.7908 56.903 59.3111 58.3694Z" fill="#BAC6D8"/>
</svg>
