<svg width="79" height="96" viewBox="0 0 79 96" fill="none" xmlns="http://www.w3.org/2000/svg">
<path d="M59.4011 0L49.7328 23.7086H29.6143L38.5716 0H59.4011Z" fill="#AB322F"/>
<path d="M50.657 19.6211H28.9034C27.4816 19.6211 26.3086 20.7941 26.3086 22.2159V36.0785H53.2518V22.2159C53.2518 20.7585 52.0789 19.6211 50.657 19.6211ZM51.3324 24.7041H27.6949V23.6377C27.6949 22.5003 28.619 21.5405 29.792 21.5405H49.2352C50.3727 21.5405 51.3324 22.4647 51.3324 23.6377V24.7041Z" fill="#F28F0E"/>
<path d="M20.2661 0L29.6145 23.7086H49.7331L40.5624 0H20.2661Z" fill="#FA352C"/>
<path d="M34.2708 23.7091L23.9982 0.000488281H22.8252L33.0978 23.7091H34.2708Z" fill="#FCE0E0"/>
<path d="M38.6428 23.7086L28.3703 0H27.1973L37.4698 23.7086H38.6428Z" fill="#FCE0E0"/>
<path d="M43.4411 23.7086L33.1686 0H31.9956L42.2682 23.7086H43.4411Z" fill="#FCE0E0"/>
<path d="M47.6712 23.7086L37.3987 0H36.2612L46.5338 23.7086H47.6712Z" fill="#FCE0E0"/>
<path d="M65.3318 69.8208C72.5481 55.3881 66.6981 37.8381 52.2654 30.6217C37.8327 23.4054 20.2827 29.2554 13.0664 43.6881C5.85 58.1208 11.7 75.6708 26.1327 82.8872C40.5654 90.1035 58.1154 84.2535 65.3318 69.8208Z" fill="#FFB10F"/>
<path d="M62.6713 39.3843C65.6216 43.9341 67.3278 49.3725 67.3278 55.2019C67.3278 71.3394 54.2471 84.42 38.1096 84.42C28.4769 84.42 19.946 79.7636 14.6143 72.5835C19.8039 80.6522 28.8679 85.984 39.176 85.984C55.3135 85.984 68.3941 72.9034 68.3941 56.7659C68.3941 50.2611 66.297 44.254 62.6713 39.3843Z" fill="#FF930F"/>
<path d="M60.4995 67.4043C66.3814 55.6404 61.6132 41.3357 49.8493 35.4537C38.0854 29.5718 23.7807 34.34 17.8987 46.1039C12.0168 57.8678 16.785 72.1725 28.5489 78.0545C40.3128 83.9364 54.6176 79.1682 60.4995 67.4043Z" fill="#FFDC01"/>
<path d="M36.2966 72.9739C37.2208 73.7203 37.4696 74.9289 37.4696 74.9289C37.4696 74.9289 36.2255 74.9644 35.2658 74.2179C34.3416 73.4715 34.0928 72.263 34.0928 72.263C34.0928 72.263 35.3369 72.2274 36.2966 72.9739Z" fill="#FFF375"/>
<path d="M35.1591 74.893C36.2965 74.502 37.4695 74.9286 37.4695 74.9286C37.4695 74.9286 36.8297 75.9949 35.6923 76.3859C34.5548 76.7769 33.3818 76.3504 33.3818 76.3504C33.3818 76.3504 34.0216 75.284 35.1591 74.893Z" fill="#FFF375"/>
<path d="M32.6353 71.9796C33.4529 72.8327 33.524 74.0768 33.524 74.0768C33.524 74.0768 32.2799 73.9346 31.4624 73.0815C30.6448 72.2285 30.5737 70.9844 30.5737 70.9844C30.5737 70.9844 31.8178 71.1266 32.6353 71.9796Z" fill="#FFF375"/>
<path d="M31.2489 73.7212C32.4219 73.4724 33.5238 74.0767 33.5238 74.0767C33.5238 74.0767 32.7418 75.0364 31.5688 75.2852C30.3958 75.534 29.2939 74.9298 29.2939 74.9298C29.2939 74.9298 30.1115 73.97 31.2489 73.7212Z" fill="#FFF375"/>
<path d="M29.7919 70.593C30.4672 71.5527 30.3251 72.7968 30.3251 72.7968C30.3251 72.7968 29.1165 72.4769 28.4412 71.4816C27.7658 70.5219 27.908 69.2778 27.908 69.2778C27.908 69.2778 29.1165 69.5977 29.7919 70.593Z" fill="#FFF375"/>
<path d="M28.1566 72.0857C29.3652 72.0502 30.3604 72.7966 30.3604 72.7966C30.3604 72.7966 29.4363 73.6497 28.2277 73.6852C27.0192 73.7208 26.0239 72.9743 26.0239 72.9743C26.0239 72.9743 26.9481 72.1212 28.1566 72.0857Z" fill="#FFF375"/>
<path d="M27.1258 68.4249C27.5524 69.5268 27.1258 70.6998 27.1258 70.6998C27.1258 70.6998 26.0239 70.0955 25.6329 68.9936C25.2064 67.8917 25.6329 66.7188 25.6329 66.7188C25.6329 66.7188 26.6993 67.323 27.1258 68.4249Z" fill="#FFF375"/>
<path d="M25.1352 69.4912C26.3082 69.7401 27.0902 70.6998 27.0902 70.6998C27.0902 70.6998 25.9883 71.304 24.8153 71.0552C23.6423 70.8064 22.8604 69.8467 22.8604 69.8467C22.8604 69.8467 23.9623 69.2424 25.1352 69.4912Z" fill="#FFF375"/>
<path d="M25.0997 65.9367C25.2419 67.1097 24.531 68.1405 24.531 68.1405C24.531 68.1405 23.6068 67.2874 23.4646 66.1144C23.3224 64.9415 24.0333 63.9106 24.0333 63.9106C24.0333 63.9106 24.9575 64.7637 25.0997 65.9367Z" fill="#FFF375"/>
<path d="M22.9315 66.5055C23.9979 67.0031 24.5311 68.1406 24.5311 68.1406C24.5311 68.1406 23.3225 68.4605 22.2206 67.9629C21.1543 67.4652 20.6211 66.3278 20.6211 66.3278C20.6211 66.3278 21.8652 66.0079 22.9315 66.5055Z" fill="#FFF375"/>
<path d="M23.3583 62.7723C23.2517 63.9453 22.3631 64.8339 22.3631 64.8339C22.3631 64.8339 21.6522 63.8031 21.7233 62.6656C21.8299 61.4926 22.7185 60.604 22.7185 60.604C22.7185 60.604 23.465 61.5993 23.3583 62.7723Z" fill="#FFF375"/>
<path d="M21.1188 62.9147C22.0786 63.6256 22.3629 64.8342 22.3629 64.8342C22.3629 64.8342 21.1188 64.9053 20.1591 64.1944C19.1994 63.4835 18.915 62.2749 18.915 62.2749C18.915 62.2749 20.1591 62.2038 21.1188 62.9147Z" fill="#FFF375"/>
<path d="M22.4697 59.7867C22.1853 60.9242 21.1545 61.6706 21.1545 61.6706C21.1545 61.6706 20.5858 60.5687 20.8701 59.4313C21.1545 58.2938 22.1853 57.5474 22.1853 57.5474C22.1853 57.5474 22.754 58.6493 22.4697 59.7867Z" fill="#FFF375"/>
<path d="M20.2305 59.5735C21.048 60.4266 21.1546 61.6707 21.1546 61.6707C21.1546 61.6707 19.9106 61.5285 19.0575 60.7109C18.2399 59.8579 18.1333 58.6138 18.1333 58.6138C18.1333 58.6138 19.4129 58.7204 20.2305 59.5735Z" fill="#FFF375"/>
<path d="M22.3632 56.4454C21.7945 57.4762 20.6215 57.9383 20.6215 57.9383C20.6215 57.9383 20.3726 56.7298 20.9058 55.699C21.4745 54.6681 22.6475 54.2061 22.6475 54.2061C22.6475 54.2061 22.9319 55.4146 22.3632 56.4454Z" fill="#FFF375"/>
<path d="M20.2659 55.6992C20.8702 56.73 20.6569 57.9385 20.6569 57.9385C20.6569 57.9385 19.4839 57.512 18.8797 56.5167C18.2754 55.4859 18.4887 54.2773 18.4887 54.2773C18.4887 54.2773 19.6617 54.7039 20.2659 55.6992Z" fill="#FFF375"/>
<path d="M22.967 53.0687C22.185 53.9574 20.9409 54.1351 20.9409 54.1351C20.9409 54.1351 20.9765 52.891 21.7585 52.0024C22.5404 51.1138 23.7845 50.936 23.7845 50.936C23.7845 50.936 23.749 52.1801 22.967 53.0687Z" fill="#FFF375"/>
<path d="M21.0831 51.8602C21.4386 52.9976 20.9054 54.1351 20.9054 54.1351C20.9054 54.1351 19.8391 53.4597 19.5192 52.3223C19.1637 51.1848 19.6969 50.0474 19.6969 50.0474C19.6969 50.0474 20.7632 50.7583 21.0831 51.8602Z" fill="#FFF375"/>
<path d="M24.2115 50.2963C23.2518 50.9716 21.9722 50.865 21.9722 50.865C21.9722 50.865 22.2921 49.6565 23.2518 48.9811C24.2115 48.3058 25.4911 48.4124 25.4911 48.4124C25.4911 48.4124 25.1712 49.6209 24.2115 50.2963Z" fill="#FFF375"/>
<path d="M22.6473 48.6969C22.7184 49.8699 21.9719 50.8651 21.9719 50.8651C21.9719 50.8651 21.1188 49.9765 21.0477 48.8035C20.9767 47.6305 21.7231 46.6353 21.7231 46.6353C21.7231 46.6353 22.5762 47.5239 22.6473 48.6969Z" fill="#FFF375"/>
<path d="M25.7396 47.7726C24.6733 48.3058 23.4292 47.9859 23.4292 47.9859C23.4292 47.9859 23.9268 46.8485 24.9932 46.3153C26.0595 45.7821 27.3036 46.102 27.3036 46.102C27.3036 46.102 26.806 47.275 25.7396 47.7726Z" fill="#FFF375"/>
<path d="M24.4604 45.9597C24.3538 47.1327 23.4296 47.9857 23.4296 47.9857C23.4296 47.9857 22.7187 46.9549 22.8254 45.7819C22.932 44.6089 23.8562 43.7559 23.8562 43.7559C23.8562 43.7559 24.5671 44.8222 24.4604 45.9597Z" fill="#FFF375"/>
<path d="M42.7672 72.8323C41.8431 73.5787 41.5942 74.7873 41.5942 74.7873C41.5942 74.7873 42.8383 74.8228 43.798 74.0763C44.7222 73.3299 44.971 72.1214 44.971 72.1214C44.971 72.1214 43.6914 72.0858 42.7672 72.8323Z" fill="#FFF375"/>
<path d="M43.8681 74.7163C42.7306 74.3253 41.5576 74.7518 41.5576 74.7518C41.5576 74.7518 42.1974 75.8182 43.3349 76.2092C44.4723 76.6002 45.6453 76.1736 45.6453 76.1736C45.6453 76.1736 45.0055 75.1073 43.8681 74.7163Z" fill="#FFF375"/>
<path d="M45.9296 71.9787C45.1121 72.8317 45.041 74.0758 45.041 74.0758C45.041 74.0758 46.2851 73.9337 47.1026 73.0806C47.9202 72.2275 47.9913 70.9834 47.9913 70.9834C47.9913 70.9834 46.7472 71.1256 45.9296 71.9787Z" fill="#FFF375"/>
<path d="M47.3159 73.7207C46.1429 73.4719 45.041 74.0762 45.041 74.0762C45.041 74.0762 45.823 75.0359 46.996 75.2847C48.169 75.5335 49.2709 74.9293 49.2709 74.9293C49.2709 74.9293 48.4889 73.9696 47.3159 73.7207Z" fill="#FFF375"/>
<path d="M48.7732 70.4504C48.0978 71.4101 48.24 72.6542 48.24 72.6542C48.24 72.6542 49.4486 72.3343 50.1239 71.3391C50.7993 70.3793 50.6571 69.1353 50.6571 69.1353C50.6571 69.1353 49.4486 69.4907 48.7732 70.4504Z" fill="#FFF375"/>
<path d="M50.4084 71.9431C49.1998 71.9076 48.2046 72.654 48.2046 72.654C48.2046 72.654 49.1288 73.5071 50.3373 73.5427C51.5458 73.5782 52.5411 72.8318 52.5411 72.8318C52.5411 72.8318 51.6169 72.0142 50.4084 71.9431Z" fill="#FFF375"/>
<path d="M51.3678 68.3531C50.9413 69.455 51.3678 70.628 51.3678 70.628C51.3678 70.628 52.4697 70.0238 52.8607 68.9219C53.2872 67.82 52.8607 66.647 52.8607 66.647C52.8607 66.647 51.7943 67.2512 51.3678 68.3531Z" fill="#FFF375"/>
<path d="M53.3231 69.4195C52.1502 69.6683 51.3682 70.628 51.3682 70.628C51.3682 70.628 52.4701 71.2323 53.6431 70.9835C54.816 70.7346 55.598 69.7749 55.598 69.7749C55.598 69.7749 54.4961 69.1707 53.3231 69.4195Z" fill="#FFF375"/>
<path d="M53.5007 65.6872C53.3586 66.8602 54.0695 67.891 54.0695 67.891C54.0695 67.891 54.9936 67.0379 55.1358 65.8649C55.278 64.6919 54.5671 63.6611 54.5671 63.6611C54.5671 63.6611 53.6429 64.5142 53.5007 65.6872Z" fill="#FFF375"/>
<path d="M55.6694 66.256C54.603 66.7536 54.0698 67.8911 54.0698 67.8911C54.0698 67.8911 55.2784 68.211 56.3803 67.7134C57.4466 67.2157 57.9798 66.0783 57.9798 66.0783C57.9798 66.0783 56.7357 65.7584 55.6694 66.256Z" fill="#FFF375"/>
<path d="M55.029 62.7371C55.1356 63.9101 56.0243 64.7987 56.0243 64.7987C56.0243 64.7987 56.7352 63.7679 56.6641 62.6305C56.5574 61.4575 55.6688 60.5688 55.6688 60.5688C55.6688 60.5688 54.9223 61.5641 55.029 62.7371Z" fill="#FFF375"/>
<path d="M57.2685 62.8438C56.3088 63.5547 56.0244 64.7632 56.0244 64.7632C56.0244 64.7632 57.2685 64.8343 58.2282 64.1234C59.1879 63.4125 59.4723 62.2039 59.4723 62.2039C59.4723 62.2039 58.2282 62.1684 57.2685 62.8438Z" fill="#FFF375"/>
<path d="M55.918 59.7159C56.2024 60.8534 57.2332 61.5998 57.2332 61.5998C57.2332 61.5998 57.8019 60.4979 57.5175 59.3605C57.2332 58.223 56.2024 57.4766 56.2024 57.4766C56.2024 57.4766 55.6336 58.5785 55.918 59.7159Z" fill="#FFF375"/>
<path d="M58.1571 59.5027C57.3395 60.3558 57.2329 61.5999 57.2329 61.5999C57.2329 61.5999 58.477 61.4577 59.3301 60.6401C60.1476 59.7871 60.2543 58.543 60.2543 58.543C60.2543 58.543 58.9746 58.6496 58.1571 59.5027Z" fill="#FFF375"/>
<path d="M55.9888 56.4815C56.5575 57.5123 57.7305 57.9744 57.7305 57.9744C57.7305 57.9744 57.9793 56.7659 57.4461 55.7351C56.8774 54.7043 55.7044 54.2422 55.7044 54.2422C55.7044 54.2422 55.42 55.4507 55.9888 56.4815Z" fill="#FFF375"/>
<path d="M58.1214 55.7704C57.5171 56.8013 57.7304 58.0098 57.7304 58.0098C57.7304 58.0098 58.9034 57.5832 59.5076 56.588C60.1119 55.5572 59.8986 54.3486 59.8986 54.3486C59.8986 54.3486 58.6901 54.7396 58.1214 55.7704Z" fill="#FFF375"/>
<path d="M55.3844 53.1044C56.1664 53.993 57.4105 54.1707 57.4105 54.1707C57.4105 54.1707 57.375 52.9267 56.593 52.038C55.811 51.1494 54.5669 50.9717 54.5669 50.9717C54.5669 50.9717 54.5669 52.2513 55.3844 53.1044Z" fill="#FFF375"/>
<path d="M57.233 51.8958C56.8776 53.0333 57.4108 54.1707 57.4108 54.1707C57.4108 54.1707 58.4771 53.4953 58.797 52.3579C59.1525 51.2205 58.6193 50.083 58.6193 50.083C58.6193 50.083 57.5885 50.7939 57.233 51.8958Z" fill="#FFF375"/>
<path d="M54.1761 50.4027C55.1358 51.0781 56.4155 50.9715 56.4155 50.9715C56.4155 50.9715 56.0956 49.7629 55.1358 49.0876C54.1761 48.4122 52.8965 48.5188 52.8965 48.5188C52.8965 48.5188 53.2164 49.7274 54.1761 50.4027Z" fill="#FFF375"/>
<path d="M55.7401 48.8033C55.669 49.9763 56.4155 50.9716 56.4155 50.9716C56.4155 50.9716 57.2686 50.0829 57.3397 48.91C57.4107 47.737 56.6643 46.7417 56.6643 46.7417C56.6643 46.7417 55.8112 47.6303 55.7401 48.8033Z" fill="#FFF375"/>
<path d="M52.5767 47.9152C53.643 48.4484 54.8871 48.1285 54.8871 48.1285C54.8871 48.1285 54.3895 46.991 53.3231 46.4579C52.2568 45.9247 51.0127 46.2446 51.0127 46.2446C51.0127 46.2446 51.5103 47.382 52.5767 47.9152Z" fill="#FFF375"/>
<path d="M53.8559 46.1017C53.9625 47.2747 54.8867 48.1278 54.8867 48.1278C54.8867 48.1278 55.5976 47.097 55.491 45.924C55.3843 44.751 54.4602 43.8979 54.4602 43.8979C54.4602 43.8979 53.7137 44.9288 53.8559 46.1017Z" fill="#FFF375"/>
<path d="M51.7231 44.3247C51.6876 44.3603 51.6165 44.4313 51.5454 44.4669C51.5099 44.4669 51.5098 44.5024 51.4743 44.5024C55.2066 47.7015 57.5525 52.2868 57.5525 57.4053C57.5525 67.0025 49.3061 74.7869 39.1401 74.7869C28.9742 74.7869 20.7277 67.0025 20.7277 57.4053C20.7277 52.5001 22.896 48.0925 26.3439 44.929C26.2372 44.8934 26.1306 44.8579 26.0595 44.8223C22.6116 48.0214 20.4434 52.5001 20.4434 57.4053C20.4434 67.1447 28.832 75.0713 39.1401 75.0713C49.4482 75.0713 57.8369 67.1447 57.8369 57.4053C57.8724 52.2157 55.4909 47.5593 51.7231 44.3247Z" fill="#FFF375"/>
<path d="M28.1924 45.5689C27.0194 45.8177 25.9175 45.249 25.9175 45.249C25.9175 45.249 26.6995 44.2537 27.8725 44.0049C29.0455 43.7561 30.1474 44.3248 30.1474 44.3248C30.1474 44.3248 29.3654 45.32 28.1924 45.5689Z" fill="#FFF375"/>
<path d="M27.4103 43.5073C27.0193 44.6092 25.9174 45.249 25.9174 45.249C25.9174 45.249 25.4908 44.076 25.8818 42.9741C26.2728 41.8722 27.3747 41.2324 27.3747 41.2324C27.3747 41.2324 27.8013 42.4054 27.4103 43.5073Z" fill="#FFF375"/>
<path d="M50.2304 45.5689C51.4034 45.8177 52.5053 45.249 52.5053 45.249C52.5053 45.249 51.7233 44.2537 50.5503 44.0049C49.3773 43.7561 48.2754 44.3248 48.2754 44.3248C48.2754 44.3248 49.0574 45.32 50.2304 45.5689Z" fill="#FFF375"/>
<path d="M51.0122 43.5073C51.4032 44.6092 52.5051 45.249 52.5051 45.249C52.5051 45.249 52.9316 44.076 52.5406 42.9741C52.1496 41.8722 51.0477 41.2324 51.0477 41.2324C51.0477 41.2324 50.6212 42.4054 51.0122 43.5073Z" fill="#FFF375"/>
</svg>
