<svg width="85" height="114" viewBox="0 0 85 114" fill="none" xmlns="http://www.w3.org/2000/svg">
<path d="M67.69 0L55.4666 29.8643H30.1693L41.4076 0H67.69Z" fill="#8E2323"/>
<path d="M56.6307 24.7153H29.2289C27.438 24.7153 25.9604 26.1928 25.9604 27.9838V45.4456H59.8992V27.9838C59.8992 26.148 58.4664 24.7153 56.6307 24.7153ZM57.4813 31.118H27.7514V29.7747C27.7514 28.342 28.9155 27.1331 30.3931 27.1331H54.8845C56.3172 27.1331 57.5261 28.2972 57.5261 29.7747V31.118H57.4813Z" fill="#C95506"/>
<path d="M18.349 0L30.1693 29.8643H55.4667L43.9597 0H18.349Z" fill="#FA352C"/>
<path d="M35.766 29.8643L23.095 0H21.6174L34.2885 29.8643H35.766Z" fill="#7F0B0B"/>
<path d="M40.4226 29.8643L27.7516 0H26.274L38.9451 29.8643H40.4226Z" fill="#7F0B0B"/>
<path d="M45.7058 29.8643L33.0348 0H31.5573L44.2731 29.8643H45.7058Z" fill="#7F0B0B"/>
<path d="M50.8101 29.8643L38.1391 0H36.6615L49.3773 29.8643H50.8101Z" fill="#7F0B0B"/>
<path d="M78.555 77.4032C81.8113 57.3389 68.1858 38.4339 48.1216 35.1776C28.0573 31.9213 9.15234 45.5469 5.89604 65.6111C2.63975 85.6753 16.2653 104.58 36.3295 107.837C56.3937 111.093 75.2987 97.4674 78.555 77.4032Z" fill="#FFB839"/>
<path d="M67.6451 44.9083C73.9582 51.5349 77.8536 60.4897 77.8536 70.34C77.8536 90.6674 61.3768 107.144 41.0493 107.144C31.1991 107.144 22.1995 103.249 15.6177 96.9357C22.3338 103.92 31.7363 108.308 42.2135 108.308C62.5409 108.308 79.0177 91.8315 79.0177 71.5041C79.0177 61.0717 74.6746 51.6244 67.6451 44.9083Z" fill="#EA7603"/>
<path d="M71.8371 76.3129C74.4913 59.9589 63.3853 44.5497 47.0313 41.8955C30.6772 39.2414 15.268 50.3473 12.6139 66.7014C9.95972 83.0554 21.0657 98.4646 37.4197 101.119C53.7738 103.773 69.183 92.667 71.8371 76.3129Z" fill="#FF9B50"/>
<g opacity="0.69">
<g opacity="0.69">
<path opacity="0.69" d="M39.2584 92.727C40.4225 93.6673 40.736 95.1896 40.736 95.1896C40.736 95.1896 39.1689 95.2343 37.96 94.2941C36.7958 93.3538 36.4824 91.8315 36.4824 91.8315C36.4824 91.8315 38.0943 91.7867 39.2584 92.727Z" fill="#FFB448"/>
<path opacity="0.69" d="M37.8257 95.1C39.2585 94.6075 40.736 95.1448 40.736 95.1448C40.736 95.1448 39.9301 96.488 38.4973 96.9805C37.0646 97.473 35.587 96.9357 35.587 96.9357C35.587 96.9357 36.4377 95.5925 37.8257 95.1Z" fill="#FFB448"/>
</g>
<g opacity="0.69">
<path opacity="0.69" d="M34.6915 91.4733C35.7213 92.5479 35.8108 94.115 35.8108 94.115C35.8108 94.115 34.2438 93.9359 33.214 92.8613C32.1842 91.7868 32.0946 90.2197 32.0946 90.2197C32.0946 90.2197 33.6617 90.3988 34.6915 91.4733Z" fill="#FFB448"/>
<path opacity="0.69" d="M32.9451 93.6673C34.4227 93.3538 35.8107 94.115 35.8107 94.115C35.8107 94.115 34.8256 95.3239 33.3481 95.6373C31.8705 95.9507 30.4825 95.1896 30.4825 95.1896C30.4825 95.1896 31.4676 93.9359 32.9451 93.6673Z" fill="#FFB448"/>
<path opacity="0.69" d="M31.0648 89.6823C31.9155 90.8912 31.7364 92.4583 31.7364 92.4583C31.7364 92.4583 30.2141 92.0554 29.3634 90.8017C28.5127 89.5928 28.6917 88.0257 28.6917 88.0257C28.6917 88.0257 30.2141 88.4734 31.0648 89.6823Z" fill="#FFB448"/>
<path opacity="0.69" d="M29.005 91.5629C30.5274 91.5181 31.781 92.4584 31.781 92.4584C31.781 92.4584 30.6169 93.5329 29.0946 93.5777C27.5723 93.6225 26.3186 92.6822 26.3186 92.6822C26.3186 92.6822 27.5275 91.6524 29.005 91.5629Z" fill="#FFB448"/>
<path opacity="0.69" d="M27.7067 86.9959C28.244 88.3839 27.7067 89.8614 27.7067 89.8614C27.7067 89.8614 26.3187 89.1003 25.8262 87.7123C25.2889 86.3243 25.8262 84.8467 25.8262 84.8467C25.8262 84.8467 27.2142 85.6079 27.7067 86.9959Z" fill="#FFB448"/>
<path opacity="0.69" d="M25.2441 88.2943C26.7216 88.6078 27.7066 89.8167 27.7066 89.8167C27.7066 89.8167 26.3187 90.5778 24.8411 90.2644C23.3636 89.951 22.3785 88.7421 22.3785 88.7421C22.3785 88.7421 23.7665 88.0257 25.2441 88.2943Z" fill="#FFB448"/>
<path opacity="0.69" d="M25.1545 83.8169C25.3336 85.2945 24.4381 86.5929 24.4381 86.5929C24.4381 86.5929 23.2739 85.5184 23.0948 84.0408C22.9158 82.5633 23.8112 81.2648 23.8112 81.2648C23.8112 81.2648 24.9754 82.3842 25.1545 83.8169Z" fill="#FFB448"/>
<path opacity="0.69" d="M22.4233 84.5781C23.7665 85.205 24.4381 86.6377 24.4381 86.6377C24.4381 86.6377 22.9158 87.0407 21.5278 86.4139C20.1845 85.787 19.5129 84.3542 19.5129 84.3542C19.5129 84.3542 21.08 83.9513 22.4233 84.5781Z" fill="#FFB448"/>
</g>
<g opacity="0.69">
<path opacity="0.69" d="M23.0053 79.8768C22.871 81.3544 21.7517 82.4737 21.7517 82.4737C21.7517 82.4737 20.8562 81.1753 20.9457 79.7425C21.0801 78.265 22.1994 77.1456 22.1994 77.1456C22.1994 77.1456 23.1397 78.3993 23.0053 79.8768Z" fill="#FFB448"/>
<path opacity="0.69" d="M20.1847 80.0559C21.3936 80.9514 21.7518 82.4737 21.7518 82.4737C21.7518 82.4737 20.1847 82.5633 18.9758 81.6678C17.7669 80.7723 17.4087 79.25 17.4087 79.25C17.4087 79.25 18.9758 79.1604 20.1847 80.0559Z" fill="#FFB448"/>
<path opacity="0.69" d="M21.8861 76.1158C21.5279 77.5486 20.2295 78.4888 20.2295 78.4888C20.2295 78.4888 19.5131 77.1008 19.8713 75.6681C20.2295 74.2353 21.5279 73.295 21.5279 73.295C21.5279 73.295 22.2443 74.683 21.8861 76.1158Z" fill="#FFB448"/>
<path opacity="0.69" d="M19.0654 75.8472C20.0952 76.9218 20.2295 78.4889 20.2295 78.4889C20.2295 78.4889 18.6624 78.3098 17.5878 77.28C16.558 76.2054 16.4237 74.6383 16.4237 74.6383C16.4237 74.6383 18.0356 74.7726 19.0654 75.8472Z" fill="#FFB448"/>
<path opacity="0.69" d="M21.7517 71.9071C21.0353 73.2055 19.5578 73.7876 19.5578 73.7876C19.5578 73.7876 19.2444 72.2653 19.916 70.9668C20.6324 69.6684 22.1099 69.0863 22.1099 69.0863C22.1099 69.0863 22.4681 70.5638 21.7517 71.9071Z" fill="#FFB448"/>
<path opacity="0.69" d="M19.11 70.9668C19.8712 72.2653 19.6025 73.7876 19.6025 73.7876C19.6025 73.7876 18.125 73.2503 17.3638 71.9966C16.6027 70.6982 16.8713 69.1758 16.8713 69.1758C16.8713 69.1758 18.3489 69.6684 19.11 70.9668Z" fill="#FFB448"/>
<path opacity="0.69" d="M22.5128 67.6535C21.5278 68.7729 19.9607 68.9968 19.9607 68.9968C19.9607 68.9968 20.0055 67.4297 20.9905 66.3103C21.9755 65.191 23.5426 64.9671 23.5426 64.9671C23.5426 64.9671 23.4978 66.5342 22.5128 67.6535Z" fill="#FFB448"/>
<path opacity="0.69" d="M20.1398 66.1312C20.5876 67.564 19.916 68.9967 19.916 68.9967C19.916 68.9967 18.5727 68.146 18.1698 66.7133C17.722 65.2805 18.3937 63.8477 18.3937 63.8477C18.3937 63.8477 19.6921 64.6984 20.1398 66.1312Z" fill="#FFB448"/>
</g>
<path opacity="0.69" d="M24.0353 64.1612C22.8264 65.0119 21.2145 64.8775 21.2145 64.8775C21.2145 64.8775 21.6175 63.3552 22.8264 62.5045C24.0353 61.6538 25.6471 61.7881 25.6471 61.7881C25.6471 61.7881 25.2889 63.3105 24.0353 64.1612Z" fill="#FFB448"/>
<path opacity="0.69" d="M22.11 62.1463C22.1995 63.6239 21.2593 64.8775 21.2593 64.8775C21.2593 64.8775 20.1847 63.7582 20.0951 62.2807C20.0056 60.8031 20.9458 59.5494 20.9458 59.5494C20.9458 59.5494 22.0204 60.6688 22.11 62.1463Z" fill="#FFB448"/>
<path opacity="0.69" d="M25.9606 60.9822C24.6174 61.6538 23.0503 61.2508 23.0503 61.2508C23.0503 61.2508 23.6771 59.8181 25.0203 59.1465C26.3636 58.4749 27.9306 58.8778 27.9306 58.8778C27.9306 58.8778 27.3038 60.3554 25.9606 60.9822Z" fill="#FFB448"/>
<path opacity="0.69" d="M24.3487 58.6987C24.2144 60.1763 23.0503 61.2508 23.0503 61.2508C23.0503 61.2508 22.1548 59.9524 22.2891 58.4749C22.4234 56.9973 23.5876 55.9227 23.5876 55.9227C23.5876 55.9227 24.5278 57.2212 24.3487 58.6987Z" fill="#FFB448"/>
<g opacity="0.69">
<path opacity="0.69" d="M47.4072 92.5031C46.2431 93.4434 45.9297 94.9657 45.9297 94.9657C45.9297 94.9657 47.4968 95.0105 48.7057 94.0702C49.8698 93.13 50.1832 91.6077 50.1832 91.6077C50.1832 91.6077 48.5713 91.6077 47.4072 92.5031Z" fill="#FFB448"/>
<path opacity="0.69" d="M48.84 94.9209C47.4072 94.4284 45.9297 94.9657 45.9297 94.9657C45.9297 94.9657 46.7356 96.3089 48.1684 96.8014C49.6012 97.294 51.0787 96.7567 51.0787 96.7567C51.0787 96.7567 50.228 95.4134 48.84 94.9209Z" fill="#FFB448"/>
</g>
<g opacity="0.69">
<path opacity="0.69" d="M51.3922 91.4733C50.3624 92.5479 50.2728 94.115 50.2728 94.115C50.2728 94.115 51.8399 93.9359 52.8697 92.8613C53.8995 91.7868 53.9891 90.2197 53.9891 90.2197C53.9891 90.2197 52.422 90.3988 51.3922 91.4733Z" fill="#FFB448"/>
<path opacity="0.69" d="M53.1384 93.6672C51.6608 93.3538 50.2728 94.1149 50.2728 94.1149C50.2728 94.1149 51.2579 95.3238 52.7354 95.6373C54.2129 95.9507 55.6009 95.1895 55.6009 95.1895C55.6009 95.1895 54.6159 93.9358 53.1384 93.6672Z" fill="#FFB448"/>
<path opacity="0.69" d="M55.0188 89.548C54.168 90.7569 54.3471 92.324 54.3471 92.324C54.3471 92.324 55.8695 91.921 56.7202 90.6673C57.5709 89.4584 57.3918 87.8914 57.3918 87.8914C57.3918 87.8914 55.8695 88.3391 55.0188 89.548Z" fill="#FFB448"/>
<path opacity="0.69" d="M57.0785 91.4286C55.5562 91.3838 54.3025 92.324 54.3025 92.324C54.3025 92.324 55.4666 93.3986 56.9889 93.4434C58.5112 93.4882 59.7649 92.5479 59.7649 92.5479C59.7649 92.5479 58.6008 91.4733 57.0785 91.4286Z" fill="#FFB448"/>
<path opacity="0.69" d="M58.2426 86.9064C57.7053 88.2944 58.2426 89.7719 58.2426 89.7719C58.2426 89.7719 59.6306 89.0107 60.1231 87.6227C60.6604 86.2347 60.1231 84.7572 60.1231 84.7572C60.1231 84.7572 58.7799 85.5184 58.2426 86.9064Z" fill="#FFB448"/>
<path opacity="0.69" d="M60.7499 88.2496C59.2724 88.563 58.2874 89.7719 58.2874 89.7719C58.2874 89.7719 59.6753 90.5331 61.1529 90.2196C62.6304 89.9062 63.6154 88.6973 63.6154 88.6973C63.6154 88.6973 62.2275 87.9362 60.7499 88.2496Z" fill="#FFB448"/>
<path opacity="0.69" d="M60.9291 83.5483C60.75 85.0259 61.6455 86.3243 61.6455 86.3243C61.6455 86.3243 62.8096 85.2498 62.9887 83.7722C63.1678 82.2947 62.2723 80.9962 62.2723 80.9962C62.2723 80.9962 61.1082 82.0708 60.9291 83.5483Z" fill="#FFB448"/>
<path opacity="0.69" d="M63.6602 84.2647C62.317 84.8915 61.6454 86.3243 61.6454 86.3243C61.6454 86.3243 63.1677 86.7273 64.5557 86.1004C65.8989 85.4736 66.5705 84.0408 66.5705 84.0408C66.5705 84.0408 65.0482 83.6379 63.6602 84.2647Z" fill="#FFB448"/>
</g>
<g opacity="0.69">
<path opacity="0.69" d="M62.8542 79.7873C62.9885 81.2648 64.1079 82.3842 64.1079 82.3842C64.1079 82.3842 65.0034 81.0857 64.9138 79.653C64.7795 78.1754 63.6601 77.0561 63.6601 77.0561C63.6601 77.0561 62.7646 78.3098 62.8542 79.7873Z" fill="#FFB448"/>
<path opacity="0.69" d="M65.6751 79.9664C64.4662 80.8619 64.108 82.3842 64.108 82.3842C64.108 82.3842 65.6751 82.4737 66.884 81.5782C68.0929 80.6828 68.4511 79.1604 68.4511 79.1604C68.4511 79.1604 66.884 79.1157 65.6751 79.9664Z" fill="#FFB448"/>
<path opacity="0.69" d="M63.9736 76.0263C64.3318 77.459 65.6302 78.3993 65.6302 78.3993C65.6302 78.3993 66.3466 77.0113 65.9884 75.5785C65.6302 74.1458 64.3318 73.2055 64.3318 73.2055C64.3318 73.2055 63.6154 74.5935 63.9736 76.0263Z" fill="#FFB448"/>
<path opacity="0.69" d="M66.7944 75.7576C65.7646 76.8322 65.6302 78.3993 65.6302 78.3993C65.6302 78.3993 67.1974 78.2202 68.2719 77.1904C69.3017 76.1158 69.436 74.5487 69.436 74.5487C69.436 74.5487 67.869 74.683 66.7944 75.7576Z" fill="#FFB448"/>
<path opacity="0.69" d="M64.1079 71.9518C64.8243 73.2503 66.3018 73.8323 66.3018 73.8323C66.3018 73.8323 66.6152 72.31 65.9436 71.0116C65.2272 69.7131 63.7497 69.131 63.7497 69.131C63.7497 69.131 63.3915 70.6534 64.1079 71.9518Z" fill="#FFB448"/>
<path opacity="0.69" d="M66.7497 71.0115C65.9885 72.31 66.2572 73.8323 66.2572 73.8323C66.2572 73.8323 67.7347 73.295 68.4959 72.0413C69.257 70.7429 68.9884 69.2206 68.9884 69.2206C68.9884 69.2206 67.5108 69.7579 66.7497 71.0115Z" fill="#FFB448"/>
<path opacity="0.69" d="M63.302 67.6983C64.287 68.8176 65.8541 69.0415 65.8541 69.0415C65.8541 69.0415 65.8094 67.4744 64.8243 66.3551C63.8393 65.2357 62.2722 65.0118 62.2722 65.0118C62.2722 65.0118 62.317 66.5789 63.302 67.6983Z" fill="#FFB448"/>
<path opacity="0.69" d="M65.675 66.1759C65.2273 67.6087 65.8989 69.0415 65.8989 69.0415C65.8989 69.0415 67.2421 68.1908 67.6451 66.758C68.0928 65.3252 67.4212 63.8925 67.4212 63.8925C67.4212 63.8925 66.1228 64.7879 65.675 66.1759Z" fill="#FFB448"/>
</g>
<path opacity="0.69" d="M61.8245 64.2507C63.0334 65.1014 64.6453 64.9671 64.6453 64.9671C64.6453 64.9671 64.2423 63.4448 63.0334 62.5941C61.8245 61.7434 60.2126 61.8777 60.2126 61.8777C60.2126 61.8777 60.5708 63.4 61.8245 64.2507Z" fill="#FFB448"/>
<path opacity="0.69" d="M63.7498 62.2806C63.6602 63.7582 64.6005 65.0118 64.6005 65.0118C64.6005 65.0118 65.6751 63.8925 65.7646 62.4149C65.8542 60.9374 64.9139 59.6837 64.9139 59.6837C64.9139 59.6837 63.8393 60.8031 63.7498 62.2806Z" fill="#FFB448"/>
<path opacity="0.69" d="M59.7649 61.1165C61.1081 61.7882 62.6752 61.3852 62.6752 61.3852C62.6752 61.3852 62.0483 59.9524 60.7051 59.2808C59.3619 58.6092 57.7948 59.0122 57.7948 59.0122C57.7948 59.0122 58.4216 60.4897 59.7649 61.1165Z" fill="#FFB448"/>
<path opacity="0.69" d="M61.3769 58.833C61.5112 60.3105 62.6753 61.3851 62.6753 61.3851C62.6753 61.3851 63.5708 60.0867 63.4365 58.6091C63.3022 57.1316 62.1381 56.057 62.1381 56.057C62.1381 56.057 61.2426 57.3555 61.3769 58.833Z" fill="#FFB448"/>
<path opacity="0.69" d="M58.6903 56.6391C58.6456 56.6839 58.556 56.7734 58.4665 56.8182C58.4217 56.8182 58.4217 56.863 58.3769 56.863C63.0782 60.8926 66.0333 66.6685 66.0333 73.1159C66.0333 85.2049 55.6457 95.0104 42.8403 95.0104C30.035 95.0104 19.6474 85.2049 19.6474 73.1159C19.6474 66.9371 22.3786 61.3851 26.7217 57.4003C26.5874 57.3555 26.453 57.3107 26.3635 57.2659C22.0204 61.2956 19.2892 66.9371 19.2892 73.1159C19.2892 85.384 29.8559 95.3686 42.8403 95.3686C55.8248 95.3686 66.3915 85.384 66.3915 73.1159C66.481 66.5789 63.4812 60.7135 58.6903 56.6391Z" fill="#FFB448"/>
<path opacity="0.69" d="M29.0947 58.2062C27.6171 58.5196 26.2291 57.8032 26.2291 57.8032C26.2291 57.8032 27.2142 56.5496 28.6917 56.2361C30.1692 55.9227 31.5572 56.6391 31.5572 56.6391C31.5572 56.6391 30.5722 57.8928 29.0947 58.2062Z" fill="#FFB448"/>
<path opacity="0.69" d="M28.1096 55.6093C27.6171 56.9973 26.2291 57.8032 26.2291 57.8032C26.2291 57.8032 25.6918 56.3257 26.1843 54.9377C26.6768 53.5497 28.0648 52.7438 28.0648 52.7438C28.0648 52.7438 28.6021 54.2213 28.1096 55.6093Z" fill="#FFB448"/>
<path opacity="0.69" d="M56.8097 58.2062C58.2873 58.5196 59.6753 57.8032 59.6753 57.8032C59.6753 57.8032 58.6903 56.5496 57.2127 56.2361C55.7352 55.9227 54.3472 56.6391 54.3472 56.6391C54.3472 56.6391 55.3322 57.8928 56.8097 58.2062Z" fill="#FFB448"/>
<path opacity="0.69" d="M57.7949 55.6093C58.2874 56.9973 59.6754 57.8032 59.6754 57.8032C59.6754 57.8032 60.2127 56.3257 59.7202 54.9377C59.2277 53.5497 57.8397 52.7438 57.8397 52.7438C57.8397 52.7438 57.3024 54.2213 57.7949 55.6093Z" fill="#FFB448"/>
</g>
<path d="M46.7805 68.1013C49.7356 68.9072 51.5266 70.743 51.5266 73.8324C51.5266 81.1753 41.2285 82.2499 34.2886 80.3246L34.6468 75.1756C37.3332 76.5636 41.7211 77.1009 43.9598 75.6233C45.7955 74.4144 45.6164 72.131 44.2732 71.1907C42.7956 70.1609 40.5122 70.5639 38.363 70.4743V66.1312H41.0942C46.4223 66.1312 46.5567 60.5345 40.9599 60.5345C39.0794 60.5345 37.1541 60.9375 35.3632 61.6091L35.0945 56.9973C36.2586 56.6391 37.4675 56.3705 38.6764 56.1914C51.9295 54.2213 52.4221 63.0418 50.0043 65.9969C49.2879 67.0267 48.2133 67.6983 46.7805 68.1013Z" fill="#FFB839"/>
</svg>
