<svg width="237" height="87" viewBox="0 0 237 87" fill="none" xmlns="http://www.w3.org/2000/svg">
<g clip-path="url(#clip0)">
<path d="M151.391 18.3885C151.391 18.3885 154.981 17.3696 157.134 17.3696C159.287 17.3696 158.927 20.0148 158.981 23.1154C159.036 26.2161 151.391 18.3885 151.391 18.3885Z" fill="#EAC16E"/>
<path d="M152.141 18.844C152.141 18.844 155.731 17.8252 157.885 17.8252C158.051 17.8248 158.217 17.8445 158.379 17.8839C158.226 17.7132 158.035 17.5801 157.822 17.4951C157.609 17.41 157.378 17.3755 157.149 17.3941C154.996 17.3941 151.405 18.413 151.405 18.413C151.405 18.413 155.297 22.4002 157.504 23.5514C155.252 22.028 152.141 18.844 152.141 18.844Z" fill="#EAC16E"/>
<path d="M15.0377 31.7806H29.6656V47.2105H15.0377V31.7806Z" fill="black"/>
<path d="M86.4735 49.7283H105.595V69.8997H86.4735V49.7283Z" fill="black"/>
<path d="M33.345 36.6104H24.2828L24.3421 64.6683H33.345C37.5674 64.2764 40.2589 57.3208 40.2589 49.5519C40.2589 41.7831 37.523 36.6104 33.345 36.6104Z" fill="black"/>
<path d="M31.5573 50.6443C31.5573 58.3984 28.1694 64.683 23.9914 64.683C19.8134 64.683 16.4256 58.3984 16.4256 50.6443C16.4256 42.8902 19.8134 36.6104 23.9914 36.6104C28.1694 36.6104 31.5573 42.8951 31.5573 50.6443Z" fill="#232323"/>
<path d="M18.6132 50.6491C18.6132 57.1689 21.2405 62.4542 24.4802 62.4542C27.7199 62.4542 30.3472 57.1689 30.3472 50.6491C30.3472 44.1294 27.7199 38.844 24.4802 38.844C21.2405 38.844 18.6132 44.1294 18.6132 50.6491Z" fill="url(#paint0_linear)"/>
<path d="M29.6659 50.9725C29.6659 55.5329 27.8288 59.2311 25.562 59.2311C23.2952 59.2311 21.4581 55.5329 21.4581 50.9725C21.4581 46.4121 23.2952 42.7187 25.562 42.7187C27.8288 42.7187 29.6659 46.417 29.6659 50.9725Z" fill="url(#paint1_radial)"/>
<path d="M121.725 49.7283H107.457L107.551 86.9853L120.549 85.5648C128.258 84.7026 130.856 78.6434 130.856 68.3519C130.856 58.0604 128.303 49.7283 121.725 49.7283Z" fill="black"/>
<path d="M118.9 68.3617C118.9 78.6482 113.571 86.9755 106.993 86.9755C100.415 86.9755 95.0863 78.6482 95.0863 68.3617C95.0863 58.0751 100.42 49.7478 106.993 49.7478C113.566 49.7478 118.9 58.0702 118.9 68.3617Z" fill="#232323"/>
<path d="M98.5384 68.3666C98.5384 77.0221 102.672 84.0414 107.773 84.0414C112.875 84.0414 117.009 77.0221 117.009 68.3666C117.009 59.7112 112.875 52.6918 107.773 52.6918C102.672 52.6918 98.5384 59.7112 98.5384 68.3666Z" fill="url(#paint2_linear)"/>
<path d="M115.932 68.7977C115.932 74.8521 113.043 79.7602 109.472 79.7602C105.902 79.7602 103.018 74.8619 103.018 68.7977C103.018 62.7335 105.912 57.8351 109.472 57.8351C113.033 57.8351 115.932 62.7433 115.932 68.7977Z" fill="url(#paint3_radial)"/>
<path d="M185.99 40.5438L171.811 42.1211L176.044 79.143L190.128 77.5951C196.667 76.875 201.038 67.9943 199.897 57.7665C198.756 47.5387 192.524 39.8433 185.99 40.5438Z" fill="black"/>
<path d="M185.254 59.3781C186.395 69.6059 182.024 78.4817 175.486 79.2018C168.947 79.9218 162.725 72.2118 161.579 61.984C160.433 51.7562 164.809 42.8803 171.347 42.1554C177.886 41.4304 184.108 49.1503 185.254 59.3781Z" fill="#232323"/>
<path d="M165.011 61.6068C165.999 70.2083 170.863 76.733 175.93 76.1746C180.997 75.6162 184.326 68.1902 183.373 59.5887C182.419 50.9871 177.52 44.4576 172.449 45.016C167.377 45.5744 164.048 53.0004 165.011 61.6068Z" fill="url(#paint4_linear)"/>
<path d="M182.35 60.1324C183.022 66.1525 180.696 71.3448 177.15 71.7366C173.604 72.1285 170.182 67.5632 169.51 61.5431C168.838 55.523 171.169 50.3357 174.71 49.9438C178.251 49.5519 181.688 54.1172 182.35 60.1324Z" fill="url(#paint5_radial)"/>
<path d="M223.928 56.008C223.928 56.008 216.969 67.6612 194.79 72.1188C172.611 76.5763 155.485 77.9968 143.43 77.9968C137.503 77.8548 138.491 68.6458 138.491 68.6458L223.928 56.008Z" fill="#EAC16E"/>
<path d="M157.747 68.7976C157.747 68.7976 159.529 73.8871 167.767 74.4798C172.73 74.8324 206.603 67.622 210.613 65.6137C215.641 63.1008 215.952 59.2066 215.952 59.2066L157.747 68.7976Z" fill="#111111"/>
<path d="M166.349 72.6624C171.313 73.0151 205.186 65.8047 209.196 63.7964C211.142 62.9043 212.752 61.4224 213.794 59.5642L215.952 59.2115C215.952 59.2115 215.641 63.1302 210.613 65.6186C206.603 67.622 172.73 74.8373 167.767 74.4846C161.258 74.0193 158.779 70.7423 158.028 69.3854C159.465 70.7864 162.013 72.344 166.349 72.6624Z" fill="url(#paint6_linear)"/>
<path d="M156.393 22.3806C156.393 22.3806 140.15 7.90105 134.17 4.54077C128.189 1.18048 117.784 -0.24984 93.8517 0.0342655C69.9196 0.318371 52.5211 3.19862 47.0097 5.6478C41.4983 8.09699 26.7617 19.3094 26.7617 19.3094C26.7617 19.3094 29.6409 19.6963 32.2485 20.3184C34.856 20.9405 42.6441 26.5541 45.3504 28.4203C48.0567 30.2866 72.0826 32.5448 83.8709 30.7226C95.6592 28.9004 151.563 21.9006 156.393 22.3806Z" fill="#EAC16E"/>
<path d="M75.9547 16.385C75.9547 16.385 51.3707 16.8406 46.3235 11.6532C49.9534 8.99337 51.351 7.97451 52.9017 7.86185C54.4524 7.74919 69.6927 7.37201 72.4582 8.64069C75.2238 9.90937 75.5102 14.7783 75.9547 16.385Z" fill="white"/>
<g opacity="0.8">
<path opacity="0.8" d="M79.8215 29.1894C79.8215 29.1894 77.0658 20.8376 75.9547 16.385C74.8435 11.9324 75.0805 8.42516 69.6185 7.90103C64.1565 7.37691 54.393 7.63652 52.5757 7.90103C50.7583 8.16555 49.5681 9.204 46.3037 11.6532C43.0394 14.1024 36.4958 19.6963 36.4958 19.6963C41.063 22.2496 45.857 24.3812 50.8176 26.0642C54.8276 27.4162 65.7023 29.6694 79.8215 29.1894Z" fill="#212121"/>
</g>
<path d="M150.146 21.3471C150.146 21.3471 144.842 17.3451 141.844 14.7098C139.429 12.5608 136.749 10.724 133.869 9.24322C131.617 8.0921 118.421 7.94515 114.361 8.16558C115.739 13.4117 116.683 17.8742 116.683 17.8742L122.337 19.5249C122.337 19.5249 135.76 18.2905 139.741 18.5207C143.721 18.751 150.146 21.3471 150.146 21.3471Z" fill="white"/>
<path d="M111.606 8.08231L114.362 17.3696L106.238 14.7147V9.16974L111.606 8.08231Z" fill="white"/>
<path d="M89.4861 9.04732C89.4861 9.04732 83.3821 9.72819 78.7152 9.88984C77.4015 12.7897 79.0658 15.6993 79.0658 15.6993C79.0658 15.6993 88.1329 15.474 89.4861 9.04732Z" fill="white"/>
<path opacity="0.8" d="M153.737 21.254C153.737 21.254 139.232 8.44965 136.042 6.7989C132.852 5.14815 133.286 3.99214 118.638 4.63872C103.991 5.28531 89.1999 7.03892 83.9798 7.80307C78.7598 8.56721 77.4511 9.48321 78.8043 14.7098C80.1574 19.9363 81.5106 23.6297 82.0933 25.305C82.6761 26.9802 83.8317 28.9004 88.0196 28.1362C92.2074 27.3721 139.281 21.2785 153.737 21.254Z" fill="#212121"/>
<path d="M229.681 35.8071C229.681 35.8071 221.078 29.9584 205.705 27.5582C190.331 25.158 176.118 24.5849 169.061 23.9138C162.004 23.2427 156.176 22.1749 154.818 20.9748C154.818 20.9748 140.452 21.8173 128.071 23.1889C115.69 24.5604 94.2766 27.2398 94.2766 27.2398L81.5944 29.2432C81.7308 29.777 82.0155 30.2621 82.4163 30.6432C82.8171 31.0243 83.3177 31.286 83.8612 31.3985C85.728 31.7561 111.023 35.5181 122.999 38.3003C134.975 41.0826 145.114 43.9825 148.477 47.2056C152.428 46.6276 229.681 35.8071 229.681 35.8071Z" fill="#EAC16E"/>
<path d="M27.0581 19.3535C27.0581 19.3535 8.83989 20.7397 6.89412 20.965C4.94833 21.1903 3.931 21.6116 2.76057 26.7892C1.59013 31.9668 1.52592 32.7603 1.67409 33.6224C1.82224 34.4845 7.60031 42.9048 17.8428 49.787C15.4526 43.909 15.3736 39.7209 16.3218 38.2073C17.27 36.6937 25.3148 35.6209 28.7916 40.9406C32.2683 46.2602 34.8116 58.2759 45.6171 61.1513C56.4226 64.0266 99.0569 73.4952 99.0569 73.4952C99.0569 73.4952 93.9357 64.0952 94.9975 58.6286C96.0593 53.162 99.2545 51.3398 104.568 51.2468C109.882 51.1537 118.011 51.8199 122.841 59.2997C127.671 66.7795 133.424 78.1437 143.435 78.0017C146.333 75.4153 150.724 55.6455 148.462 47.2056C135.992 37.3403 86.3748 30.4385 83.1055 29.8115C79.8362 29.1845 68.8776 31.1977 57.0893 28.8024C51.1183 27.6142 45.3415 25.613 39.923 22.8558C35.7796 20.7397 30.762 18.4375 27.0581 19.3535Z" fill="#EAC16E"/>
<path d="M97.1459 69.4051L36.4316 54.8765C35.208 53.2725 34.1352 51.5607 33.2265 49.7626L95.3087 63.8454C95.7655 65.7457 96.3799 67.6053 97.1459 69.4051Z" fill="#EAC16E"/>
<path d="M93.7827 27.3182C93.7827 27.3182 94.7259 29.4539 103.714 30.169C112.702 30.8842 141.247 35.2781 152.398 42.0378C170.814 39.4515 211.907 33.5391 217.804 34.0975C210.362 30.5315 200.208 28.8073 190.346 28.1362C180.483 27.4652 154.087 24.6829 151.089 21.3275C143.04 21.3471 111.774 24.9229 93.7827 27.3182Z" fill="#EAC16E"/>
<g style="mix-blend-mode:multiply" opacity="0.4">
<g style="mix-blend-mode:multiply" opacity="0.4">
<path d="M152.319 42.3366L157.026 41.6753C176.454 38.9322 208.964 34.3278 216.782 34.3278C217.177 34.3278 217.503 34.3278 217.769 34.3621L219.379 34.5139L217.923 33.8183C211.369 30.6834 201.838 28.6114 190.356 27.8276C178.083 26.99 154.023 24.1685 151.297 21.1169L151.213 21.0189H151.07C142.985 21.0434 112.031 24.5751 93.7235 27.0145L93.3432 27.0635L93.4963 27.4113C93.6 27.6464 94.7655 29.7282 103.675 30.4385C113.537 31.2467 141.464 35.7679 152.23 42.2925L152.319 42.3366ZM216.387 33.7742C207.868 33.9212 176.068 38.4081 156.947 41.1218L152.443 41.7537C141.528 35.2144 113.576 30.6883 103.724 29.8996C97.3039 29.3853 95.0717 28.146 94.3408 27.5435C112.979 25.0943 143.069 21.6655 150.946 21.6263C154.665 25.2707 183.338 27.9599 190.306 28.435C200.993 29.1502 209.967 30.9969 216.387 33.7742Z" fill="#EAC16E"/>
</g>
</g>
<path d="M228.57 50.4533C228.57 50.4533 234.709 41.7538 229.681 35.8071C212.47 37.7224 148.467 47.1909 148.467 47.1909C148.467 47.1909 141.504 58.1339 148.467 63.5074C149.82 64.2765 168.093 61.3962 168.093 61.3962C168.093 61.3962 186.657 58.7119 193.329 57.5608C200.001 56.4097 228.57 50.4533 228.57 50.4533Z" fill="#666666"/>
<path d="M229.029 36.3802C212.544 38.2171 153.139 46.995 148.156 47.7298C148.349 47.3967 148.467 47.2056 148.467 47.2056C148.467 47.2056 212.47 37.7224 229.681 35.8071C234.709 41.7538 228.57 50.4533 228.57 50.4533L228.249 50.5218C229.449 48.587 233.336 41.4745 229.029 36.3802Z" fill="#515151"/>
<path d="M149.213 54.5385C148.635 58.1192 150.176 61.019 152.645 61.0239C155.114 61.0288 157.584 58.129 158.161 54.5532C158.739 50.9774 157.198 48.0726 154.729 48.0677C152.26 48.0628 149.786 50.9382 149.213 54.5385Z" fill="url(#paint7_radial)"/>
<path d="M156.937 54.8618C157.016 51.4623 155.218 48.9543 152.922 49.258C152.274 49.3596 151.668 49.6358 151.168 50.0565C152.181 48.8172 153.455 48.0432 154.729 48.0481C157.198 48.0481 158.739 50.9528 158.161 54.5336C157.781 56.9093 156.561 58.9813 155.065 60.103C156.261 58.6118 156.919 56.767 156.937 54.8618Z" fill="#111111"/>
<path d="M168.646 71.8248C168.305 73.936 169.209 75.6456 170.666 75.6505C172.123 75.6554 173.579 73.9458 173.92 71.8346C174.261 69.7234 173.352 68.0139 171.895 68.009C170.439 68.0041 168.982 69.7234 168.646 71.8248Z" fill="url(#paint8_radial)"/>
<path d="M173.194 72.0257C173.244 70.0222 172.207 68.5429 170.829 68.7242C170.445 68.7892 170.088 68.9588 169.797 69.214C170.037 68.8755 170.35 68.5938 170.713 68.3889C171.075 68.184 171.479 68.061 171.895 68.0286C173.377 68.0286 174.256 69.743 173.92 71.8542C173.744 73.1354 173.092 74.3054 172.093 75.1361C172.801 74.2511 173.189 73.1556 173.194 72.0257Z" fill="#111111"/>
<path d="M206.589 64.7565C206.277 66.7159 207.112 68.2785 208.455 68.2785C209.799 68.2785 211.137 66.711 211.448 64.7663C211.759 62.8217 210.925 61.2493 209.586 61.2444C208.248 61.2395 206.875 62.8168 206.589 64.7565Z" fill="url(#paint9_radial)"/>
<path d="M210.781 64.9427C210.826 63.096 209.853 61.7343 208.604 61.9008C208.251 61.955 207.921 62.1061 207.65 62.3368C207.872 62.0244 208.16 61.7645 208.495 61.5757C208.83 61.3869 209.202 61.2737 209.586 61.2444C210.925 61.2444 211.759 62.8217 211.448 64.7663C211.286 65.9467 210.685 67.0245 209.764 67.7886C210.417 66.9811 210.776 65.9781 210.781 64.9427Z" fill="#111111"/>
<path d="M221.967 42.704C221.439 46.0055 222.856 48.68 225.138 48.6849C227.419 48.6898 229.691 46.0153 230.224 42.7187C230.758 39.4221 229.335 36.7378 227.059 36.7378C224.782 36.7378 222.501 39.4025 221.967 42.704Z" fill="url(#paint10_radial)"/>
<path d="M229.098 43.0175C229.172 39.8825 227.513 37.5705 225.395 37.8497C224.796 37.9441 224.236 38.2 223.775 38.5893C224.713 37.448 225.883 36.7329 227.064 36.7378C229.34 36.7378 230.758 39.4172 230.229 42.7187C229.951 44.7238 228.932 46.5549 227.37 47.8571C228.474 46.4801 229.082 44.7767 229.098 43.0175Z" fill="#111111"/>
<path d="M230.58 46.5492C230.58 46.5492 233.049 48.4743 231.647 52.0158C230.051 55.9933 226.664 57.4432 224.989 58.0212C219.266 59.9805 179.101 66.9999 164.814 69.0817C156.23 70.3357 146.901 71.5309 144.151 69.3707C141.4 67.2105 142.842 61.0435 142.842 61.0435C143.705 61.793 144.71 62.3654 145.797 62.7277C146.885 63.0901 148.034 63.2352 149.178 63.1547C153.045 62.8657 194.568 56.826 205.591 54.6168C216.614 52.4077 227.35 50.7667 230.58 46.5492Z" fill="url(#paint11_linear)"/>
<path d="M149.193 63.14C153.06 62.851 194.583 56.8113 205.606 54.6021C216.629 52.393 227.335 50.7667 230.595 46.5492C231.266 47.1402 231.741 47.9189 231.958 48.7829C228.387 52.731 217.972 54.3327 207.265 56.4733C196.242 58.6776 153.786 65.6871 149.904 65.7802C143.415 65.9272 142.847 61.0337 142.847 61.0337C143.712 61.7835 144.718 62.3557 145.807 62.7173C146.897 63.0788 148.047 63.2225 149.193 63.14Z" fill="#BFBFBF"/>
<path d="M86.2812 28.5771C86.888 28.5726 87.4932 28.512 88.0887 28.3958C91.9753 27.6905 139.301 21.5381 153.737 21.5381H154.497L153.929 21.0483C153.337 20.5242 139.36 8.20475 136.15 6.5491C135.736 6.33357 135.38 6.12784 135.044 5.93191C133.306 4.91305 132.051 4.17829 125.557 4.17829C123.671 4.17829 121.394 4.23707 118.599 4.35953C103.201 5.0453 88.3356 6.87729 83.9107 7.52878C81.0414 7.95004 79.3277 8.41049 78.5129 9.63018C77.8215 10.6637 77.8165 12.1577 78.5129 14.7882C79.7179 19.4367 80.9327 22.9048 81.5846 24.7662L81.8069 25.4078C82.3304 26.8871 83.3032 28.5771 86.2812 28.5771ZM152.951 20.9503C137.672 21.1756 91.7876 27.1321 87.9603 27.808C87.3987 27.9158 86.8285 27.9732 86.2565 27.9795C83.6638 27.9795 82.8242 26.559 82.3402 25.1678L82.118 24.5212C81.4661 22.6696 80.2611 19.2163 79.0611 14.5922C78.4339 12.1724 78.4141 10.7666 78.9968 9.89469C79.6882 8.86113 81.3525 8.42518 83.9946 8.04311C88.4146 7.39652 103.255 5.55963 118.629 4.88366C121.414 4.7563 123.676 4.69752 125.542 4.69752C131.879 4.69752 133.014 5.3637 134.738 6.37276C135.079 6.57359 135.439 6.78422 135.869 7.00955C138.674 8.49376 150.275 18.5991 152.976 20.9699L152.951 20.9503Z" fill="#111111"/>
<path d="M79.8215 29.1894C79.8215 29.1894 77.0658 20.8376 75.9547 16.385C74.8435 11.9324 75.0805 8.42516 69.6185 7.90103C64.1565 7.37691 54.393 7.63652 52.5757 7.90103C50.7583 8.16555 49.5681 9.204 46.3037 11.6532C43.0394 14.1024 36.4958 19.6963 36.4958 19.6963C41.063 22.2496 45.857 24.3812 50.8176 26.0642C54.8276 27.4162 65.7023 29.6694 79.8215 29.1894Z" stroke="#111111" stroke-miterlimit="10"/>
<path d="M99.5409 82.8707C96.8296 79.4418 95.0962 74.2349 95.0962 68.3617C95.0643 64.7944 95.7528 61.2568 97.121 57.9576H99.5508L99.5409 82.8707Z" fill="#232323"/>
<path d="M101.961 80.5342C99.8769 77.6588 98.5385 73.2797 98.5385 68.3666C98.4831 64.7669 99.2816 61.2047 100.87 57.9674H101.961V80.5342Z" fill="url(#paint12_linear)"/>
<path d="M19.2505 61.5725C17.527 59.0009 16.4207 55.0675 16.4207 50.6442C16.3957 47.9779 16.8317 45.3271 17.7097 42.8069H19.2505V61.5725Z" fill="#232323"/>
<path d="M20.7864 59.814C19.4629 57.6489 18.6134 54.3523 18.6134 50.6491C18.572 47.9645 19.0759 45.2991 20.095 42.8117H20.7864V59.814Z" fill="url(#paint13_linear)"/>
<path d="M128.066 2.91452C128.066 2.91452 114.529 -0.156756 89.486 0.612288C64.4427 1.38133 51.1976 4.42322 47.8641 6.0005C57.8695 6.2895 73.2432 6.5785 76.6508 6.64708C80.0583 6.71566 96.6419 2.43448 128.066 2.91452Z" fill="url(#paint14_linear)"/>
<path d="M227.958 34.7784C220.458 31.6748 212.638 29.3965 204.638 27.9844C191.798 25.785 182.227 25.7066 177.881 24.9964C179.259 26.0005 195.284 27.5827 203.699 29.2384C209.028 30.2866 221.478 35.4936 221.478 35.4936L227.958 34.7784Z" fill="url(#paint15_linear)"/>
<path d="M143.914 44.9915C144.121 46.608 164.241 45.4128 188.854 42.3268C213.468 39.2408 233.242 35.4348 233.049 33.8135C232.857 32.1921 212.727 33.3922 188.109 36.4782C163.49 39.5641 143.711 43.3751 143.914 44.9915Z" fill="url(#paint16_radial)"/>
<path d="M43.4097 31.6581C42.7677 35.087 63.8157 41.8467 90.4196 46.7255C117.023 51.6043 139.104 52.775 139.746 49.3364C140.388 45.8977 119.34 39.1526 92.7407 34.2739C66.1418 29.3951 44.0517 28.2195 43.4097 31.6581Z" fill="url(#paint17_radial)"/>
<path d="M149 66.7844C149.168 67.7297 169.001 65.1042 193.299 60.9063C217.596 56.7084 237.163 52.5791 237 51.5994C236.837 50.6197 216.999 53.2796 192.701 57.4775C168.404 61.6754 148.837 65.8439 149 66.7844Z" fill="url(#paint18_radial)"/>
<path d="M155.183 44.9866C155.183 44.9866 144.319 35.425 103.991 31.3986C130.456 35.8071 148.66 46.5492 148.66 46.5492L155.183 44.9866Z" fill="url(#paint19_linear)"/>
<path d="M164.32 47.3378L217.547 39.6523V42.0378L164.32 50.0221V47.3378Z" fill="#111111"/>
<path d="M216.678 41.6018V39.7747L217.547 39.6523V42.0378L164.32 50.0221V49.449L216.678 41.6018Z" fill="#212121"/>
<path d="M164.32 52.0844L217.547 44.394V46.8774L164.32 54.7687V52.0844Z" fill="#111111"/>
<path d="M216.752 46.4366V44.5115L217.547 44.394V46.8774L164.32 54.7687V54.2103L216.752 46.4366Z" fill="#212121"/>
<path d="M164.32 56.826L217.547 49.1404V51.428L164.32 59.5103V56.826Z" fill="#111111"/>
<path d="M216.777 50.9773V49.2531L217.547 49.1404V51.428L164.32 59.5103V58.9421L216.777 50.9773Z" fill="#212121"/>
<path d="M7.59558 32.8338C7.59558 32.8338 6.7264 34.4894 7.59558 41.1904C4.7905 39.9315 0.731047 34.367 0.148301 32.8338C-0.434445 31.3006 0.805111 26.4659 1.3681 25.5254C1.9311 24.5849 3.37809 24.438 3.37809 24.438C3.37809 24.438 2.42003 27.4896 3.05216 28.8759C3.64478 30.1886 6.19304 32.2117 7.59558 32.8338Z" fill="#383838"/>
<path d="M5.9313 40.0932C5.35349 34.5923 6.09428 33.1669 6.09428 33.1669C4.69173 32.5448 2.14344 30.5266 1.55081 29.2139C1.05696 28.0726 1.58539 25.8144 1.80268 25.0405C2.26741 24.7096 2.80973 24.5022 3.37808 24.438C3.37808 24.438 2.42002 27.4896 3.05215 28.8759C3.64477 30.1886 6.19304 32.2117 7.59558 32.8338C7.59558 32.8338 6.7264 34.4894 7.59558 41.1904C6.99548 40.8973 6.43608 40.5285 5.9313 40.0932Z" fill="url(#paint20_linear)"/>
<path d="M84.098 32.5203C84.098 32.5203 81.7028 31.9129 80.8139 29.6743C79.925 27.4358 79.925 25.8781 78.4928 25.5401C77.0606 25.2021 70.359 25.4029 67.628 25.5401C64.897 25.6772 65.7119 28.4546 65.7119 30.2866C65.7119 32.1186 67.0156 32.7358 70.4331 32.5203C73.8506 32.3047 76.6507 32.1872 78.0878 32.2509C79.5249 32.3145 80.3398 34.4894 80.3398 34.4894C80.3398 34.4894 81.2287 35.4397 83.7573 35.0331C86.2858 34.6266 84.6116 32.7064 84.098 32.5203Z" fill="#EAC16E"/>
<path d="M65.9245 26.4169C66.101 26.1352 66.3502 25.9054 66.6462 25.7512C66.9423 25.5971 67.2745 25.5242 67.6085 25.5401C70.3445 25.4029 77.0411 25.2021 78.4733 25.5401C79.9055 25.8781 79.9055 27.4407 80.7944 29.6743C81.6834 31.908 84.0785 32.5203 84.0785 32.5203C84.5724 32.7064 86.2614 34.6266 83.7328 35.0331L83.3229 35.087C81.3228 28.1362 71.3223 31.4132 65.9245 26.4169Z" fill="url(#paint21_linear)"/>
<path d="M66.9319 30.7618C66.9319 28.9298 66.1072 26.1524 68.8431 26.0152C71.3569 25.8879 77.2041 25.7066 79.2535 25.9418C79.0414 25.742 78.7785 25.6032 78.493 25.5401C77.0559 25.2021 70.3593 25.4029 67.6283 25.5401C64.8973 25.6772 65.7121 28.4546 65.7121 30.2866C65.7121 31.4965 66.2899 32.1725 67.6875 32.4321C67.431 32.2384 67.2275 31.984 67.0955 31.6923C66.9635 31.4005 66.9073 31.0806 66.9319 30.7618Z" fill="#EAC16E"/>
<path d="M81.5598 34.945C81.5598 34.945 80.74 32.775 79.3029 32.7064H79.1449C79.6636 33.2054 80.0693 33.8082 80.335 34.4747C80.714 34.7893 81.1776 34.9868 81.6685 35.0429L81.5598 34.945Z" fill="#EAC16E"/>
</g>
<defs>
<linearGradient id="paint0_linear" x1="30.3521" y1="50.6491" x2="18.6182" y2="50.6491" gradientUnits="userSpaceOnUse">
<stop stop-color="#878787"/>
<stop offset="0.2" stop-color="#9F9F9F"/>
<stop offset="0.54" stop-color="#C2C2C2"/>
<stop offset="0.82" stop-color="#D8D8D8"/>
<stop offset="1" stop-color="#E0E0E0"/>
</linearGradient>
<radialGradient id="paint1_radial" cx="0" cy="0" r="1" gradientUnits="userSpaceOnUse" gradientTransform="translate(22.2772 51.335) scale(3.95205 8.16314)">
<stop stop-color="#E0E0E0"/>
<stop offset="0.03" stop-color="#D8D8D8"/>
<stop offset="0.27" stop-color="#A5A5A5"/>
<stop offset="0.49" stop-color="#7D7D7D"/>
<stop offset="0.7" stop-color="#616161"/>
<stop offset="0.87" stop-color="#4F4F4F"/>
<stop offset="1" stop-color="#494949"/>
</radialGradient>
<linearGradient id="paint2_linear" x1="-11500" y1="11126.3" x2="-12190.9" y2="11126.3" gradientUnits="userSpaceOnUse">
<stop stop-color="#878787"/>
<stop offset="0.2" stop-color="#9F9F9F"/>
<stop offset="0.54" stop-color="#C2C2C2"/>
<stop offset="0.82" stop-color="#D8D8D8"/>
<stop offset="1" stop-color="#E0E0E0"/>
</linearGradient>
<radialGradient id="paint3_radial" cx="0" cy="0" r="1" gradientUnits="userSpaceOnUse" gradientTransform="translate(663.502 16932.8) scale(161.731 483.35)">
<stop stop-color="#E0E0E0"/>
<stop offset="0.03" stop-color="#D8D8D8"/>
<stop offset="0.27" stop-color="#A5A5A5"/>
<stop offset="0.49" stop-color="#7D7D7D"/>
<stop offset="0.7" stop-color="#616161"/>
<stop offset="0.87" stop-color="#4F4F4F"/>
<stop offset="1" stop-color="#494949"/>
</radialGradient>
<linearGradient id="paint4_linear" x1="-7717.18" y1="11324.1" x2="-8409.25" y2="11401.6" gradientUnits="userSpaceOnUse">
<stop stop-color="#878787"/>
<stop offset="0.2" stop-color="#9F9F9F"/>
<stop offset="0.54" stop-color="#C2C2C2"/>
<stop offset="0.82" stop-color="#D8D8D8"/>
<stop offset="1" stop-color="#E0E0E0"/>
</linearGradient>
<radialGradient id="paint5_radial" cx="0" cy="0" r="1" gradientUnits="userSpaceOnUse" gradientTransform="translate(4100.91 15520.8) rotate(-6.08273) scale(164.621 482.306)">
<stop stop-color="#E0E0E0"/>
<stop offset="0.03" stop-color="#D8D8D8"/>
<stop offset="0.27" stop-color="#A5A5A5"/>
<stop offset="0.49" stop-color="#7D7D7D"/>
<stop offset="0.7" stop-color="#616161"/>
<stop offset="0.87" stop-color="#4F4F4F"/>
<stop offset="1" stop-color="#494949"/>
</radialGradient>
<linearGradient id="paint6_linear" x1="215.952" y1="66.8481" x2="158.028" y2="66.8481" gradientUnits="userSpaceOnUse">
<stop stop-color="#0D0D0D"/>
<stop offset="0.05" stop-color="#101010"/>
<stop offset="0.64" stop-color="#272727"/>
<stop offset="1" stop-color="#303030"/>
</linearGradient>
<radialGradient id="paint7_radial" cx="0" cy="0" r="1" gradientUnits="userSpaceOnUse" gradientTransform="translate(153.687 54.5287) rotate(180) scale(5.64968 5.60373)">
<stop stop-color="white"/>
<stop offset="0.14" stop-color="#F3F3F3"/>
<stop offset="0.38" stop-color="#D3D3D3"/>
<stop offset="0.7" stop-color="#A0A0A0"/>
<stop offset="1" stop-color="#6B6B6B"/>
</radialGradient>
<radialGradient id="paint8_radial" cx="0" cy="0" r="1" gradientUnits="userSpaceOnUse" gradientTransform="translate(-1110.4 2821.24) rotate(180) scale(36.5159 51.5036)">
<stop stop-color="white"/>
<stop offset="0.14" stop-color="#F3F3F3"/>
<stop offset="0.38" stop-color="#D3D3D3"/>
<stop offset="0.7" stop-color="#A0A0A0"/>
<stop offset="1" stop-color="#6B6B6B"/>
</radialGradient>
<radialGradient id="paint9_radial" cx="0" cy="0" r="1" gradientUnits="userSpaceOnUse" gradientTransform="translate(-590.123 2494.12) rotate(180) scale(30.9857 43.6815)">
<stop stop-color="white"/>
<stop offset="0.14" stop-color="#F3F3F3"/>
<stop offset="0.38" stop-color="#D3D3D3"/>
<stop offset="0.7" stop-color="#A0A0A0"/>
<stop offset="1" stop-color="#6B6B6B"/>
</radialGradient>
<radialGradient id="paint10_radial" cx="0" cy="0" r="1" gradientUnits="userSpaceOnUse" gradientTransform="translate(-838.795 3631.03) rotate(180) scale(89.4617 126.042)">
<stop stop-color="white"/>
<stop offset="0.14" stop-color="#F3F3F3"/>
<stop offset="0.38" stop-color="#D3D3D3"/>
<stop offset="0.7" stop-color="#A0A0A0"/>
<stop offset="1" stop-color="#6B6B6B"/>
</radialGradient>
<linearGradient id="paint11_linear" x1="232.096" y1="58.5551" x2="142.477" y2="58.5551" gradientUnits="userSpaceOnUse">
<stop stop-color="#2E2E2E"/>
<stop offset="0.53" stop-color="#A6A6A6"/>
<stop offset="1" stop-color="#2E2E2E"/>
</linearGradient>
<linearGradient id="paint12_linear" x1="-2052.29" y1="8069.86" x2="-2180.42" y2="8069.86" gradientUnits="userSpaceOnUse">
<stop stop-color="#878787"/>
<stop offset="0.2" stop-color="#9F9F9F"/>
<stop offset="0.54" stop-color="#C2C2C2"/>
<stop offset="0.82" stop-color="#D8D8D8"/>
<stop offset="1" stop-color="#E0E0E0"/>
</linearGradient>
<linearGradient id="paint13_linear" x1="-1729.15" y1="5456.5" x2="-1780.82" y2="5456.5" gradientUnits="userSpaceOnUse">
<stop stop-color="#878787"/>
<stop offset="0.2" stop-color="#9F9F9F"/>
<stop offset="0.54" stop-color="#C2C2C2"/>
<stop offset="0.82" stop-color="#D8D8D8"/>
<stop offset="1" stop-color="#E0E0E0"/>
</linearGradient>
<linearGradient id="paint14_linear" x1="88.0094" y1="-0.626999" x2="87.9316" y2="8.80237" gradientUnits="userSpaceOnUse">
<stop stop-color="white"/>
<stop offset="0.71" stop-color="white" stop-opacity="0"/>
</linearGradient>
<linearGradient id="paint15_linear" x1="236.062" y1="30.2425" x2="161.682" y2="30.2425" gradientUnits="userSpaceOnUse">
<stop offset="0.29" stop-color="white" stop-opacity="0"/>
<stop offset="1" stop-color="white"/>
</linearGradient>
<radialGradient id="paint16_radial" cx="0" cy="0" r="1" gradientUnits="userSpaceOnUse" gradientTransform="translate(188.927 40.2453) rotate(172.837) scale(42.768 2.69336)">
<stop stop-color="white"/>
<stop offset="0.16" stop-color="white" stop-opacity="0.76"/>
<stop offset="0.32" stop-color="white" stop-opacity="0.53"/>
<stop offset="0.49" stop-color="white" stop-opacity="0.34"/>
<stop offset="0.64" stop-color="white" stop-opacity="0.19"/>
<stop offset="0.78" stop-color="white" stop-opacity="0.09"/>
<stop offset="0.9" stop-color="white" stop-opacity="0.02"/>
<stop offset="1" stop-color="white" stop-opacity="0"/>
</radialGradient>
<radialGradient id="paint17_radial" cx="0" cy="0" r="1" gradientUnits="userSpaceOnUse" gradientTransform="translate(-65845.4 -9930.05) rotate(-169.652) scale(9102.56 247.457)">
<stop stop-color="white"/>
<stop offset="0.16" stop-color="white" stop-opacity="0.76"/>
<stop offset="0.32" stop-color="white" stop-opacity="0.53"/>
<stop offset="0.49" stop-color="white" stop-opacity="0.34"/>
<stop offset="0.64" stop-color="white" stop-opacity="0.19"/>
<stop offset="0.78" stop-color="white" stop-opacity="0.09"/>
<stop offset="0.9" stop-color="white" stop-opacity="0.02"/>
<stop offset="1" stop-color="white" stop-opacity="0"/>
</radialGradient>
<radialGradient id="paint18_radial" cx="0" cy="0" r="1" gradientUnits="userSpaceOnUse" gradientTransform="translate(-38685.6 7273.32) rotate(170.191) scale(7569.54 48.7946)">
<stop stop-color="white"/>
<stop offset="0.16" stop-color="white" stop-opacity="0.76"/>
<stop offset="0.32" stop-color="white" stop-opacity="0.53"/>
<stop offset="0.49" stop-color="white" stop-opacity="0.34"/>
<stop offset="0.64" stop-color="white" stop-opacity="0.19"/>
<stop offset="0.78" stop-color="white" stop-opacity="0.09"/>
<stop offset="0.9" stop-color="white" stop-opacity="0.02"/>
<stop offset="1" stop-color="white" stop-opacity="0"/>
</radialGradient>
<linearGradient id="paint19_linear" x1="-16295.1" y1="4172.22" x2="-16296.8" y2="4851.17" gradientUnits="userSpaceOnUse">
<stop stop-color="white"/>
<stop offset="0.71" stop-color="white" stop-opacity="0"/>
</linearGradient>
<linearGradient id="paint20_linear" x1="-3545.21" y1="4726.01" x2="-3624.39" y2="4726.01" gradientUnits="userSpaceOnUse">
<stop stop-color="#878787"/>
<stop offset="0.2" stop-color="#9F9F9F"/>
<stop offset="0.54" stop-color="#C2C2C2"/>
<stop offset="0.82" stop-color="#D8D8D8"/>
<stop offset="1" stop-color="#E0E0E0"/>
</linearGradient>
<linearGradient id="paint21_linear" x1="-8008.95" y1="2589.96" x2="-8098.54" y2="2836.45" gradientUnits="userSpaceOnUse">
<stop stop-color="white"/>
<stop offset="0.71" stop-color="white" stop-opacity="0"/>
</linearGradient>
<clipPath id="clip0">
<rect width="237" height="87" fill="white" transform="matrix(-1 0 0 1 237 0)"/>
</clipPath>
</defs>
</svg>
