<svg width="118" height="208" viewBox="0 0 118 208" fill="none" xmlns="http://www.w3.org/2000/svg">
<path d="M47.8763 207.612C73.8252 207.612 94.861 203.169 94.861 197.687C94.861 192.205 73.8252 187.761 47.8763 187.761C21.9274 187.761 0.891602 192.205 0.891602 197.687C0.891602 203.169 21.9274 207.612 47.8763 207.612Z" fill="#ECEDEB"/>
<path d="M94.0955 3.55959C93.5213 3.55959 87.9712 2.22341 83.378 6.6137C78.7848 11.004 80.2202 16.5396 81.1771 19.4982C82.134 22.4569 82.134 23.5068 81.5599 24.4612C80.9857 25.4156 78.2106 28.2788 77.9236 29.2332C77.5408 30.1876 85.4832 34.387 85.4832 34.387L91.7032 30.7603C91.7032 30.7603 97.2533 34.1007 97.7318 33.9098C98.3059 33.7189 100.124 30.7603 101.751 23.984C103.378 17.2076 102.995 12.0538 100.794 8.23619C98.6887 4.22767 94.0955 3.55959 94.0955 3.55959Z" fill="#F6BA99"/>
<path d="M90.3634 18.1622C90.3634 18.1622 89.4065 15.3944 87.7798 17.7805C86.153 20.1665 86.6315 21.9799 87.397 22.3616C88.1625 22.7434 88.1625 22.7434 88.1625 22.7434C88.1625 22.7434 87.7798 24.5568 88.9281 26.7519C90.0764 28.947 91.7031 30.5695 91.7031 30.5695" stroke="#393762" stroke-width="0.5" stroke-miterlimit="10"/>
<path d="M102.325 12.0538C102.038 10.6222 101.559 9.28605 100.89 8.14075C98.6887 4.32311 94.0955 3.55959 94.0955 3.55959C93.5213 3.55959 87.9712 2.22341 83.378 6.6137C78.7848 11.004 80.2201 16.5396 81.1771 19.4982C81.8469 21.6934 82.0383 22.8387 81.8469 23.6976C83.0909 23.7931 84.622 23.7931 86.153 23.4113C88.9281 22.6478 89.5022 19.5937 88.9281 18.4484C88.3539 17.3031 89.885 16.2532 89.885 16.2532C89.885 16.2532 91.0333 19.2119 92.2773 17.3985C93.5213 15.5851 91.3204 13.0082 93.5213 11.4812C95.7222 10.0496 98.1145 10.0496 100.89 11.4812C101.368 11.6721 101.846 11.863 102.325 12.0538Z" fill="#393762"/>
<path d="M102.325 12.0539C102.325 12.0539 103.569 12.9129 105.483 10.5268C107.301 8.14082 107.301 3.94142 105.866 4.99127C104.43 6.04112 103.856 6.61377 103.856 6.61377C103.856 6.61377 102.421 0.21922 100.315 0.887307C98.3059 1.65083 98.3059 3.46421 98.3059 3.46421C98.3059 3.46421 94.4782 0.505543 93.7127 1.45995C92.9471 2.41436 92.4687 2.70069 92.4687 2.70069C92.4687 2.70069 92.8514 2.89157 91.7031 3.27333C90.5548 3.6551 89.6936 4.89583 89.6936 4.89583C89.6936 4.89583 95.7222 5.7548 97.5403 7.56818C99.4542 9.38155 102.325 12.0539 102.325 12.0539Z" fill="#393762"/>
<path d="M89.3109 42.595C89.3109 42.595 92.6601 43.7403 92.8515 49.1804C93.0429 54.716 97.2533 68.8412 97.2533 68.8412C97.2533 68.8412 102.229 63.3057 103.186 62.2558C104.143 61.1105 105.961 60.8242 107.779 63.8783C109.598 67.0279 109.023 70.6546 106.344 75.0449C103.569 79.4352 98.4016 86.0206 94.1912 85.3525C89.9808 84.589 82.9953 71.9908 82.8039 70.4637C82.6125 69.0321 86.1531 54.1433 86.6315 51.7573C87.11 49.3713 89.3109 42.595 89.3109 42.595Z" fill="#393762"/>
<path d="M48.8333 95.6602C48.8333 95.6602 46.2496 99.1915 47.2065 102.437C48.1634 105.777 49.5988 108.831 49.5988 108.831C49.5988 108.831 43.4745 128.492 42.0392 132.596C40.6038 136.604 41.6564 136.986 37.8287 139.372C34.001 141.758 25.4845 145.099 22.7094 153.879C19.9343 162.66 16.298 170.963 15.1497 173.158C14.0014 175.353 13.523 176.69 11.1307 176.69C8.73839 176.69 4.71933 175.544 4.33656 178.694C3.9538 181.843 4.33656 186.425 4.33656 187.474C4.33656 188.524 1.5615 190.433 2.7098 194.251C3.8581 198.068 5.86763 201.6 6.92024 201.981C8.06855 202.363 10.0781 201.791 10.2695 200.836C10.4608 199.882 8.25993 198.45 9.31254 195.11C10.4608 191.769 15.9153 186.52 19.0731 183.561C22.2309 180.603 29.5992 167.623 35.0536 161.705C40.6038 155.788 46.8237 148.535 51.2256 144.621C55.6274 140.804 64.6224 125.915 66.5363 122.575C68.3544 119.234 70.3639 114.653 70.3639 114.653C70.3639 114.653 89.6937 118.28 93.0429 118.852C96.3921 119.425 99.6457 120.475 99.6457 120.475C99.6457 120.475 93.9041 125.438 92.4688 133.169C91.0334 140.899 87.6842 154.834 86.0574 159.415C84.4307 163.996 83.091 166.764 82.0384 169.15C80.8901 171.536 79.0719 174.685 80.4116 176.117C81.6556 177.549 88.7368 178.503 92.1817 179.076C95.7223 179.648 102.516 179.457 103.952 178.121C105.387 176.881 105.579 176.117 104.717 175.926C103.76 175.735 98.6887 172.395 97.1577 171.154C95.7223 169.913 94.574 167.623 94.7654 166.764C94.9568 165.809 103.186 147.676 106.918 140.327C110.555 132.978 114.669 120.093 115.722 117.23C116.87 114.271 117.157 113.699 116.105 112.267C114.956 110.835 108.162 105.682 96.7749 99.3824C85.1962 93.2742 78.9762 93.0833 75.5313 92.5107C71.9907 91.938 66.1535 86.5933 58.2111 90.1246C50.2687 93.656 48.8333 95.6602 48.8333 95.6602Z" fill="#F6BA99"/>
<path d="M89.8849 40.7816C89.8849 40.7816 90.6504 47.7488 89.3107 57.4838C88.0668 67.2188 80.9856 81.7258 80.5071 85.1617C79.9329 88.693 82.3252 90.8881 81.6554 91.938C80.7942 93.0833 79.3588 93.465 77.5406 93.465C75.7225 93.465 68.5456 91.6517 62.8041 92.7015C57.0626 93.8468 50.8426 98.9052 49.5986 98.428C48.3546 97.8553 46.2494 95.6602 47.5891 93.465C48.8331 91.2699 50.1728 89.9337 51.2254 87.7386C52.3737 85.5434 57.8281 68.0777 59.1678 62.4467C60.4118 56.7203 59.9333 50.1348 59.742 45.5537C59.5506 40.9725 63.3783 33.4327 66.3447 32.3828C69.3112 31.2375 77.5406 33.5281 78.4976 33.5281C79.3588 33.4327 88.1624 36.2005 89.8849 40.7816Z" fill="#393762"/>
<path d="M85.3876 39.35C85.3876 39.35 89.5981 44.6947 90.1722 44.3129C90.7464 43.9312 92.7559 42.1178 91.1291 37.7275C89.5024 33.3372 85.579 30.3786 81.56 26.9427C77.5409 23.4114 73.2348 18.1621 70.5554 21.2162C67.7803 24.3658 62.613 31.5239 64.8139 33.9099C67.0148 36.2959 78.5935 36.8685 81.1772 37.7275C83.7609 38.5865 85.3876 39.35 85.3876 39.35Z" fill="#7EB9F5"/>
<path d="M39.6467 77.8127C39.6467 77.8127 40.2209 80.0079 41.6563 82.3939C43.0917 84.7799 43.8572 87.3568 42.9003 88.3112C41.9434 89.2656 41.9433 89.2656 38.3071 90.3155C34.6708 91.4608 33.1397 90.6972 32.7569 89.7428C32.3742 88.7884 33.9052 87.7386 33.9052 87.7386C33.9052 87.7386 31.5129 87.1659 31.5129 84.7799C31.5129 82.3939 32.2785 77.6218 32.2785 77.6218L39.4554 77.0492L39.6467 77.8127Z" fill="#F6BA99"/>
<path d="M30.9387 73.995C30.9387 73.995 30.7473 77.6218 31.8956 78.5762C33.0439 79.5306 38.8811 78.5762 39.6467 77.8127C40.4122 77.0491 40.6036 72.2771 40.6036 72.2771L30.9387 73.995Z" fill="#7EB9F5"/>
<path d="M75.627 38.0139C75.627 38.0139 73.0433 35.2462 69.2156 34.0054C65.3879 32.7647 53.2351 33.6237 44.7185 35.8188C36.2976 38.0139 32.757 37.8231 31.513 41.1635C30.269 44.5039 28.1638 70.1776 28.5466 73.1362C28.9293 76.0949 34.7665 76.2858 37.5416 75.5223C40.3167 74.7587 42.5176 72.9454 43.4745 69.1277C44.4314 65.3101 44.24 51.4711 45.484 50.0395C46.728 48.6079 62.0387 49.4669 66.2492 48.8942C70.4596 48.3216 73.426 47.0808 74.1916 45.9356" fill="#393762"/>
<path d="M105.483 60.9198C105.483 60.9198 102.325 62.5423 102.899 65.3101C103.474 68.0778 106.249 70.0821 107.301 69.8912C108.449 69.7003 110.65 66.7417 110.65 66.7417C110.65 66.7417 111.033 59.4882 105.483 60.9198Z" fill="#7EB9F5"/>
<path d="M105.1 63.0193C105.1 63.0193 106.535 67.2187 108.449 67.4096C110.267 67.6005 111.224 66.4552 113.425 64.2601C115.626 62.0649 117.827 60.4424 117.827 57.4838C117.827 54.5251 117.062 50.5166 115.435 50.3257C113.808 50.1348 112.468 50.7075 112.468 50.7075C112.468 50.7075 111.894 49.5622 110.267 50.8983C108.641 52.1391 109.023 53.0935 108.067 54.716C107.11 56.3385 106.918 57.102 107.11 58.5336C107.301 59.9652 107.301 60.5379 107.301 60.5379L105.1 63.0193Z" fill="#F6BA99"/>
<path d="M112.468 50.7075C113.043 51.6619 113.904 56.6249 113.234 57.2929C112.468 58.0565 111.224 59.4881 110.842 57.8656C110.459 56.2431 109.693 53.8571 109.693 53.8571" stroke="#393762" stroke-width="0.5" stroke-miterlimit="10"/>
<path d="M96.6791 99.4779C85.1961 93.2742 78.9761 93.0833 75.5312 92.5107C71.9906 91.938 66.1534 86.5933 58.211 90.1246C50.2685 93.656 48.8332 95.6602 48.8332 95.6602C48.8332 95.6602 46.2495 99.1915 47.2064 102.437C48.1633 105.777 49.5987 108.831 49.5987 108.831C49.5987 108.831 43.4744 128.492 42.039 132.596C41.9433 132.787 41.9433 132.978 41.8477 133.169C43.4744 133.741 45.3883 134.409 47.5892 135.364C51.2255 136.891 53.3307 139.372 54.3833 141.281C58.9765 135.364 65.1008 125.342 66.5362 122.67C68.3543 119.33 70.3638 114.748 70.3638 114.748C70.3638 114.748 89.6936 118.375 93.0428 118.948C94.1911 119.139 95.2437 119.425 96.2963 119.616C96.7748 116.753 97.7317 112.935 99.7412 109.404C101.559 106.159 103.282 104.632 104.43 103.964C102.038 102.532 99.5499 101.1 96.6791 99.4779Z" fill="#DA5955"/>
<path d="M103.856 178.217C105.291 176.976 105.483 176.212 104.621 176.022C103.665 175.831 98.5929 172.49 97.0618 171.25C95.6265 170.009 94.4782 167.718 94.6695 166.859C94.7652 166.573 95.6265 164.473 96.9661 161.515C95.5308 161.896 93.6169 162.278 92.0859 162.087C90.2677 161.896 87.5883 160.942 85.7702 160.274C84.2391 164.378 82.9951 167.05 82.0382 169.245C80.8899 171.631 79.0718 174.781 80.4114 176.212C81.6554 177.644 88.7366 178.598 92.1815 179.171C95.5308 179.744 102.325 179.553 103.856 178.217Z" fill="#DECBB6"/>
<path d="M104.526 176.022C103.569 175.831 98.4972 172.49 96.9661 171.249C95.5307 170.009 94.3824 167.718 94.5738 166.859C94.5738 166.859 93.8083 164.473 92.1815 164.091C90.5548 163.71 89.7892 168.673 89.7892 168.673L82.8037 167.241C82.5167 167.909 82.2296 168.577 81.9425 169.15C80.7942 171.536 78.9761 174.685 80.3157 176.117C81.5597 177.549 88.6409 178.503 92.0858 179.076C95.6264 179.648 102.421 179.457 103.856 178.121C105.291 176.976 105.483 176.212 104.526 176.022Z" fill="#393762"/>
<path d="M17.3506 179.362C15.7239 178.121 14.767 176.117 14.2885 174.685C13.6187 175.926 12.8531 176.594 11.035 176.594C8.64269 176.594 4.62363 175.449 4.24086 178.598C3.85809 181.748 4.24086 186.329 4.24086 187.379C4.24086 188.524 1.4658 190.338 2.6141 194.155C3.7624 197.973 5.77193 201.504 6.82454 201.886C7.97284 202.268 9.98237 201.695 10.1738 200.741C10.3651 199.786 8.16423 198.355 9.21684 195.014C10.3651 191.674 15.8196 186.425 18.9774 183.466C19.5516 182.989 20.2214 182.13 20.9869 180.984C19.8386 180.794 18.4989 180.221 17.3506 179.362Z" fill="#DECBB6"/>
<path d="M14.4799 187.952C14.3842 187.665 14.1928 187.474 14.0014 187.188C12.8531 185.756 11.035 187.379 11.035 187.379C11.035 187.379 9.21684 185.375 9.40822 182.607C9.50391 180.507 11.4177 177.549 12.279 176.403C11.8962 176.499 11.5134 176.594 11.035 176.594C8.64269 176.594 4.62363 175.449 4.24086 178.598C3.85809 181.748 4.24086 186.329 4.24086 187.379C4.24086 188.524 1.4658 190.338 2.6141 194.155C3.7624 197.973 5.77193 201.504 6.82454 201.886C7.97284 202.268 9.98237 201.695 10.1738 200.741C10.3651 199.786 8.16423 198.355 9.21684 195.014C9.88668 193.201 12.1833 190.433 14.4799 187.952Z" fill="#393762"/>
</svg>
