<svg width="163" height="164" viewBox="0 0 163 164" fill="none" xmlns="http://www.w3.org/2000/svg">
<g clip-path="url(#clip0)">
<path d="M143.939 140.272C140.68 143.722 137.601 145.948 135.168 147.705C106.55 168.369 72.6828 162.348 65.4891 160.878C54.8614 158.705 34.3162 154.505 19.4631 136.928C-3.00866 110.336 0.48927 68.4402 17.9207 40.7827C21.1102 35.728 37.948 7.64889 72.1765 3.14474C92.8905 0.42117 117.038 5.91517 134.522 20.6576C171.23 51.6068 168.617 114.126 143.939 140.272Z" fill="url(#paint0_linear)"/>
<path d="M1.85689 21.6181C1.69393 20.9328 2.65426 20.476 3.2421 20.9563C9.20778 25.8294 23.5487 40.4137 19.9751 65.904C15.4936 97.884 23.1588 109.551 32.698 116.668C32.698 116.668 19.591 113.323 11.3496 101.48C-8.88716 72.4054 4.70878 33.8244 1.85689 21.6181Z" fill="#BDD0FB"/>
<path d="M6.3967 31.6045C7.14169 35.1657 7.81101 38.7385 8.32318 42.3231C8.85864 45.9077 9.27187 49.504 9.55124 53.1061C9.81897 56.7082 10.0052 60.3162 10.0169 63.9242C10.046 67.5322 9.89463 71.1402 9.73167 74.76C9.59198 78.3797 9.4232 82.0228 9.69093 85.6894C9.94701 89.3501 10.7153 93.046 12.2343 96.5075C12.6127 97.3685 13.0142 98.2295 13.4682 99.0612C13.9047 99.8988 14.382 100.725 14.8825 101.539C15.8836 103.167 17.0127 104.737 18.2699 106.225C20.79 109.2 23.834 111.842 27.1864 114.073C27.5414 114.307 28.042 114.249 28.3155 113.944C28.5832 113.646 28.5192 113.212 28.1875 112.978C27.3901 112.416 26.5986 111.842 25.8419 111.244C25.4578 110.951 25.0911 110.641 24.7128 110.336C24.352 110.02 23.9736 109.721 23.6244 109.393C22.2043 108.116 20.8831 106.758 19.69 105.323C17.2863 102.458 15.3598 99.2721 13.8989 95.9628C13.1889 94.2994 12.6243 92.6008 12.2111 90.8612C11.7978 89.1275 11.5417 87.3587 11.3962 85.5781C11.1111 82.017 11.2391 78.409 11.3497 74.7892C11.4544 71.1695 11.5301 67.5322 11.437 63.895C11.3962 62.0792 11.3148 60.2635 11.1984 58.4478C11.146 57.54 11.0761 56.6321 11.0005 55.7301C10.919 54.8222 10.8317 53.9202 10.7386 53.0124C10.3486 49.3927 9.83643 45.7905 9.19039 42.206C8.52689 38.6214 7.75281 35.0544 6.82158 31.5225C6.79248 31.423 6.68189 31.3585 6.56549 31.382C6.44909 31.4112 6.37924 31.505 6.3967 31.6045Z" fill="white"/>
<path d="M23.3684 70.5078C22.8388 71.439 21.5351 71.5269 20.8774 70.6835C17.2514 66.0153 8.17775 51.8938 12.6942 31.9502C16.5122 15.1168 16.9953 5.62232 16.9138 1.29389C16.8964 0.380174 18.0488 -0.0239685 18.6017 0.702317C24.7129 8.70903 42.4761 36.6886 23.3684 70.5078Z" fill="#91B3FA"/>
<path d="M21.9425 70.2734C21.9192 70.2852 21.8901 70.291 21.8669 70.2969C21.6399 70.3496 21.4187 70.209 21.3663 69.9806C21.3081 69.7229 15.6393 44.1154 19.8938 20.4584C19.9346 20.23 20.1499 20.0777 20.3769 20.1187C20.6039 20.1597 20.7552 20.3764 20.7145 20.6049C16.489 44.0862 22.1229 69.5354 22.1753 69.7873C22.2219 69.9982 22.1171 70.1914 21.9425 70.2734Z" fill="white"/>
<path d="M13.113 29.66C13.0955 28.1605 14.3992 26.995 15.8776 27.1882C25.6671 28.471 59.3194 32.4245 87.1166 30.1285C88.3854 30.0231 89.4912 30.9837 89.561 32.2605L95.6489 137.191C95.7304 138.632 94.6479 139.868 93.2161 139.962C81.5234 140.717 33.373 143.663 16.186 141.941C15.1384 141.836 14.341 140.957 14.3294 139.897L13.113 29.66Z" fill="#7D97F4"/>
<path d="M14.277 32.284C14.2596 30.8431 15.5167 29.7185 16.9369 29.906C26.3539 31.1418 58.7432 34.9431 85.4928 32.735C86.715 32.6354 87.7743 33.5608 87.85 34.7908L93.7051 135.774C93.7865 137.156 92.7389 138.351 91.3654 138.439C80.1149 139.165 33.7805 142 17.2337 140.348C16.2268 140.249 15.4585 139.399 15.4469 138.38L14.277 32.284Z" fill="#91B3FA"/>
<path opacity="0.78" d="M23.0305 40.0271L24.1422 61.6751C24.1771 62.3955 24.7591 62.9636 25.475 62.9812C29.4618 63.0749 41.8821 63.3151 48.8896 62.9109C49.6811 62.8641 50.3039 62.2139 50.3272 61.4174C50.4378 57.3584 50.6706 45.5328 49.7277 40.5952C49.5764 39.7986 48.8896 39.2188 48.0864 39.1895L24.5263 38.4866C23.6766 38.4632 22.984 39.1719 23.0305 40.0271Z" fill="white"/>
<path d="M36.6266 52.3505C39.182 52.3505 41.2536 50.2658 41.2536 47.6941C41.2536 45.1224 39.182 43.0377 36.6266 43.0377C34.0711 43.0377 31.9995 45.1224 31.9995 47.6941C31.9995 50.2658 34.0711 52.3505 36.6266 52.3505Z" fill="url(#paint1_linear)"/>
<path d="M29.6712 61.3998L44.4079 61.3236C45.31 61.3178 45.8454 60.3103 45.3565 59.5489C44.0936 57.5868 41.4628 54.7051 36.9231 54.8574C32.5521 55.0038 29.9738 57.6336 28.6817 59.5196C28.1346 60.3162 28.705 61.4056 29.6712 61.3998Z" fill="url(#paint2_linear)"/>
<g opacity="0.6">
<path opacity="0.6" d="M81.8841 41.6026C82.3905 41.6026 82.7979 41.2688 82.7862 40.8705C82.7746 40.4722 82.3439 40.1384 81.8376 40.1325L56.1764 39.8045C55.6701 39.7987 55.3907 40.1852 55.5653 40.6714L55.6351 40.8588C55.8039 41.3391 56.3627 41.7315 56.8748 41.7315L81.8841 41.6026Z" fill="white"/>
</g>
<g opacity="0.6">
<path opacity="0.6" d="M56.1999 43.8459C55.6935 43.84 55.4141 44.2266 55.5887 44.7128L55.6586 44.9002C55.8274 45.3805 56.3861 45.7729 56.8983 45.7729L81.9193 45.644C82.4256 45.644 82.833 45.3102 82.8214 44.9119C82.8097 44.5136 82.379 44.1797 81.8727 44.1739L56.1999 43.8459Z" fill="white"/>
</g>
<g opacity="0.6">
<path opacity="0.6" d="M56.2174 47.9401C55.7111 47.9343 55.4317 48.3208 55.6063 48.807L55.6761 48.9944C55.8449 49.4747 56.4037 49.8671 56.9159 49.8671L81.9368 49.7383C82.4432 49.7383 82.8506 49.4044 82.8389 49.0061C82.8273 48.6078 82.3966 48.274 81.8903 48.2681L56.2174 47.9401Z" fill="white"/>
</g>
<g opacity="0.6">
<path opacity="0.6" d="M84.5381 69.471C85.0444 69.471 85.4402 69.1371 85.4111 68.7388C85.382 68.3406 84.9455 68.0126 84.4333 68.0126L24.0897 67.8486C23.5833 67.8486 23.4262 68.1707 23.7463 68.569L24.1363 69.0551C24.4564 69.4534 25.1315 69.7755 25.6437 69.7755L84.5381 69.471Z" fill="white"/>
</g>
<g opacity="0.6">
<path opacity="0.6" d="M24.1131 71.89C23.6068 71.89 23.4496 72.2121 23.7697 72.6104L24.1597 73.0965C24.4798 73.4948 25.1549 73.8169 25.6671 73.8169L84.5673 73.5065C85.0737 73.5065 85.4695 73.1726 85.4404 72.7744C85.4113 72.3761 84.9748 72.0481 84.4626 72.0481L24.1131 71.89Z" fill="white"/>
</g>
<path opacity="0.6" d="M23.7873 78.6315C25.2423 78.5144 27.9662 78.4441 29.4678 78.4148C30.1022 78.4031 30.6609 78.8306 30.8122 79.4515C31.1091 80.6581 31.5165 82.7549 31.4816 84.9748C31.4699 85.6425 30.9286 86.1755 30.271 86.1696L24.736 86.1404C24.055 86.1345 23.4846 85.6132 23.4206 84.9338L22.9084 79.6975C22.8502 79.1586 23.2518 78.6725 23.7873 78.6315Z" fill="white"/>
<g opacity="0.6">
<path opacity="0.6" d="M34.1241 80.7284C33.6177 80.7108 33.2627 81.1091 33.3442 81.6128L33.4548 82.3391C33.5304 82.8428 34.0135 83.2587 34.5198 83.2528L47.7899 83.1825C48.2962 83.1825 48.7094 82.7608 48.6978 82.2454V82.1927C48.6862 81.6831 48.2671 81.2438 47.7549 81.2263L34.1241 80.7284Z" fill="white"/>
</g>
<path opacity="0.6" d="M53.9417 78.4734C55.3967 78.3562 58.1205 78.2859 59.6222 78.2566C60.2566 78.2449 60.8153 78.6725 60.9666 79.2934C61.2634 80.4999 61.6709 82.5968 61.6359 84.8167C61.6243 85.4844 61.083 86.0174 60.4253 86.0115L54.8903 85.9822C54.2094 85.9764 53.639 85.4551 53.575 84.7757L53.0628 79.5394C53.0046 79.0005 53.4004 78.5144 53.9417 78.4734Z" fill="white"/>
<g opacity="0.6">
<path opacity="0.6" d="M64.2725 80.5702C63.7662 80.5526 63.4111 80.9509 63.4926 81.4546L63.6032 82.1809C63.6789 82.6847 64.1619 83.1005 64.6683 83.0947L77.9383 83.0244C78.4447 83.0244 78.8579 82.6027 78.8463 82.0872V82.0345C78.8346 81.5249 78.4156 81.0856 77.9034 81.0681L64.2725 80.5702Z" fill="white"/>
</g>
<path d="M31.7085 99.3775C31.7026 99.3775 31.6968 99.3775 31.6968 99.3775L26.5867 99.3541C25.8592 99.3482 25.2539 98.8504 25.1782 98.1885L24.7068 93.8777C24.6777 93.6258 24.7533 93.374 24.9221 93.169C25.1084 92.9405 25.3936 92.8 25.702 92.7765C26.1327 92.7473 26.738 92.6887 27.3782 92.6301C28.7285 92.5071 30.4106 92.3548 31.3534 92.3373C32.0402 92.3314 32.6222 92.7355 32.791 93.3388C33.0646 94.3287 33.0471 96.203 33.0064 98.2002C32.9947 98.8504 32.4127 99.3775 31.7085 99.3775ZM25.7311 93.1748C25.5274 93.1924 25.3412 93.2802 25.2248 93.4267C25.1258 93.5438 25.0793 93.6902 25.0967 93.8367L25.5682 98.1475C25.6205 98.6102 26.0571 98.9617 26.5867 98.9617L31.6968 98.9851C31.7026 98.9851 31.7026 98.9851 31.7085 98.9851C32.2032 98.9851 32.6106 98.6278 32.6222 98.1944C32.663 96.2264 32.6746 94.3872 32.4185 93.4501C32.3021 93.0284 31.8656 92.7414 31.3709 92.7414C30.4397 92.759 28.7693 92.9113 27.4248 93.0343C26.7729 93.087 26.1618 93.1397 25.7311 93.1748Z" fill="white"/>
<path opacity="0.6" d="M26.2841 93.6141C27.355 93.5321 29.6889 93.2861 30.7947 93.2627C31.2662 93.2568 31.6736 93.538 31.79 93.948C32.0053 94.7387 31.9879 96.3259 31.9588 97.7844C31.9471 98.2237 31.5513 98.5751 31.0624 98.5692L26.9825 98.5517C26.482 98.5517 26.0629 98.2061 26.0105 97.7609L25.6322 94.3169C25.5915 93.9597 25.8825 93.6434 26.2841 93.6141Z" fill="white"/>
<g opacity="0.6">
<path opacity="0.6" d="M36.1785 96.4899C36.3298 97.0522 36.842 97.4446 37.4182 97.4329L84.6722 96.7828C85.2077 96.7769 85.6325 96.3318 85.6151 95.7929C85.6034 95.2716 85.1727 94.8558 84.6548 94.8558L37.3949 94.8851C36.5684 94.8851 35.9573 95.6816 36.1785 96.4899Z" fill="white"/>
</g>
<path d="M31.7607 110.395C31.7549 110.395 31.7491 110.395 31.7491 110.395L26.6389 110.371C25.9114 110.366 25.3061 109.868 25.2305 109.206L24.759 104.895C24.7299 104.643 24.8056 104.391 24.9744 104.186C25.1606 103.958 25.4458 103.817 25.7543 103.794C26.185 103.765 26.7903 103.706 27.4305 103.647C28.7808 103.524 30.4628 103.372 31.4057 103.355C31.4115 103.355 31.4173 103.355 31.4289 103.355C32.0983 103.349 32.6803 103.759 32.8432 104.356C33.1168 105.346 33.0993 107.22 33.0586 109.218C33.0528 109.862 32.4708 110.389 31.7607 110.395ZM25.7892 104.192C25.5855 104.21 25.3992 104.298 25.2828 104.444C25.1839 104.561 25.1373 104.708 25.1548 104.854L25.6262 109.165C25.6786 109.628 26.1151 109.979 26.6448 109.979L31.7549 110.002C31.7607 110.002 31.7607 110.002 31.7665 110.002C32.2612 110.002 32.6686 109.645 32.6803 109.212C32.721 107.244 32.7327 105.405 32.4766 104.467C32.3602 104.046 31.9178 103.747 31.4289 103.759C30.4977 103.776 28.8273 103.929 27.4829 104.052C26.8252 104.104 26.2199 104.157 25.7892 104.192Z" fill="white"/>
<path opacity="0.6" d="M26.3363 104.631C27.4073 104.549 29.7411 104.303 30.847 104.28C31.3184 104.274 31.7258 104.555 31.8422 104.965C32.0576 105.756 32.0401 107.343 32.011 108.802C31.9994 109.241 31.6036 109.592 31.1147 109.587L27.0348 109.569C26.5342 109.569 26.1152 109.223 26.0628 108.778L25.6845 105.334C25.6496 104.977 25.9406 104.661 26.3363 104.631Z" fill="white"/>
<g opacity="0.6">
<path opacity="0.6" d="M36.2364 107.507C36.3877 108.069 36.8999 108.462 37.4761 108.45L84.7301 107.8C85.2656 107.794 85.6905 107.349 85.673 106.81C85.6614 106.289 85.2307 105.873 84.7127 105.873L37.4528 105.902C36.6205 105.902 36.0152 106.699 36.2364 107.507Z" fill="white"/>
</g>
<path d="M31.8188 121.412C31.813 121.412 31.8072 121.412 31.8072 121.412L26.697 121.389C25.9695 121.383 25.3642 120.885 25.2886 120.223L24.8171 115.912C24.788 115.66 24.8637 115.409 25.0325 115.204C25.2187 114.975 25.5039 114.835 25.8124 114.811C26.2431 114.782 26.8484 114.723 27.4886 114.665C28.8389 114.542 30.5209 114.389 31.4638 114.372C31.4696 114.372 31.4754 114.372 31.4871 114.372C32.1564 114.366 32.7384 114.776 32.9014 115.373C33.1749 116.363 33.1575 118.238 33.1167 120.235C33.1109 120.879 32.5231 121.406 31.8188 121.412ZM25.8415 115.204C25.6378 115.221 25.4515 115.309 25.3351 115.455C25.2362 115.573 25.1896 115.719 25.2071 115.865L25.6785 120.176C25.7309 120.639 26.1674 120.99 26.697 120.99L31.8072 121.014C31.813 121.014 31.813 121.014 31.8188 121.014C32.3135 121.014 32.7209 120.657 32.7326 120.223C32.7733 118.255 32.785 116.416 32.5289 115.479C32.4125 115.057 31.9701 114.758 31.4812 114.77C30.55 114.788 28.8796 114.94 27.5352 115.063C26.8833 115.116 26.278 115.174 25.8415 115.204Z" fill="white"/>
<path opacity="0.6" d="M26.3944 115.649C27.4654 115.567 29.7993 115.321 30.9051 115.297C31.3765 115.291 31.7839 115.573 31.9003 115.983C32.1157 116.773 32.0982 118.361 32.0691 119.819C32.0575 120.258 31.6617 120.61 31.1728 120.604L27.0929 120.586C26.5923 120.586 26.1733 120.241 26.1209 119.796L25.7426 116.352C25.7077 115.994 25.9987 115.678 26.3944 115.649Z" fill="white"/>
<g opacity="0.6">
<path opacity="0.6" d="M36.289 118.525C36.4403 119.087 36.9525 119.479 37.5287 119.468L84.7827 118.817C85.3182 118.812 85.7431 118.366 85.7256 117.828C85.714 117.306 85.2833 116.89 84.7653 116.89L37.5054 116.92C36.6789 116.914 36.0736 117.71 36.289 118.525Z" fill="white"/>
</g>
<path d="M31.8774 132.424C31.8716 132.424 31.8658 132.424 31.8658 132.424L26.7556 132.4C26.0281 132.394 25.4228 131.896 25.3472 131.235L24.8757 126.924C24.8466 126.672 24.9223 126.42 25.0911 126.215C25.2773 125.987 25.5625 125.846 25.871 125.823C26.3017 125.793 26.907 125.735 27.5472 125.676C28.8975 125.553 30.5795 125.401 31.5224 125.383C31.5282 125.383 31.534 125.383 31.5456 125.383C32.215 125.377 32.797 125.787 32.96 126.385C33.2335 127.375 33.216 129.249 33.1753 131.246C33.1637 131.896 32.5816 132.424 31.8774 132.424ZM25.9001 126.221C25.6964 126.238 25.5101 126.326 25.3937 126.473C25.2948 126.59 25.2482 126.736 25.2657 126.883L25.7371 131.194C25.7895 131.656 26.226 132.008 26.7556 132.008L31.8658 132.031C31.8716 132.031 31.8716 132.031 31.8774 132.031C32.3721 132.031 32.7795 131.674 32.7912 131.24C32.8319 129.272 32.8436 127.433 32.5875 126.496C32.4711 126.074 32.0287 125.776 31.5398 125.787C30.6086 125.805 28.9382 125.957 27.5937 126.08C26.9419 126.133 26.3366 126.192 25.9001 126.221Z" fill="white"/>
<path opacity="0.6" d="M26.453 126.666C27.5239 126.584 29.8578 126.338 30.9636 126.315C31.435 126.309 31.8425 126.59 31.9589 127C32.1742 127.791 32.1567 129.378 32.1276 130.836C32.116 131.276 31.7202 131.627 31.2313 131.621L27.1514 131.604C26.6509 131.604 26.2318 131.258 26.1794 130.813L25.8011 127.369C25.7604 127.012 26.0572 126.695 26.453 126.666Z" fill="white"/>
<g opacity="0.6">
<path opacity="0.6" d="M36.3471 129.536C36.4984 130.098 37.0106 130.491 37.5868 130.479L84.8408 129.829C85.3763 129.823 85.8012 129.378 85.7837 128.839C85.7721 128.318 85.3414 127.902 84.8234 127.902L37.5635 127.931C36.737 127.931 36.1317 128.728 36.3471 129.536Z" fill="white"/>
</g>
<path d="M26.6738 127.34C27.0521 127.111 27.541 127.246 27.7563 127.632L28.7748 129.442C28.8738 129.624 29.1415 129.612 29.223 129.419L31.6908 123.808C31.813 123.527 32.2262 123.62 32.2262 123.925C32.2088 125.635 31.7722 128.892 29.0717 131.633C29.0717 131.633 27.5701 131.053 26.3478 128.394C26.1732 128.013 26.3129 127.556 26.6738 127.34Z" fill="url(#paint3_linear)"/>
<path d="M17.2629 36.7413C17.2454 35.2418 18.5491 34.0763 20.0275 34.2695C29.817 35.5523 63.4693 39.5058 91.2665 37.2098C92.5353 37.1044 93.6411 38.065 93.711 39.3418L99.7989 144.273C99.8803 145.713 98.7978 146.949 97.366 147.043C85.6733 147.799 37.5229 150.745 20.3359 149.023C19.2883 148.917 18.4909 148.039 18.4793 146.979L17.2629 36.7413Z" fill="#7D97F4"/>
<path d="M18.4328 39.3653C18.4153 37.9244 19.6725 36.7998 21.0926 36.9873C30.5097 38.2231 62.899 42.0244 89.6485 39.8163C90.8708 39.7167 91.93 40.6421 92.0057 41.8721L97.8608 142.855C97.9423 144.237 96.8946 145.432 95.5211 145.52C84.2707 146.246 37.9362 149.081 21.3894 147.43C20.3826 147.33 19.6143 146.481 19.6027 145.462L18.4328 39.3653Z" fill="#BDD0FB"/>
<path d="M24.0551 48.0221L25.0794 67.8954C25.1143 68.5573 25.6498 69.0785 26.3075 69.0961C29.98 69.1781 41.4167 69.4007 47.8712 69.0317C48.5988 68.9907 49.175 68.3933 49.1982 67.6611C49.303 63.9301 49.5125 53.0768 48.6453 48.5493C48.5056 47.8171 47.8771 47.2841 47.1321 47.2607L25.4344 46.6105C24.6545 46.5871 24.0143 47.2373 24.0551 48.0221Z" fill="#BDD0FB"/>
<path d="M41.3831 55.6056C42.0377 53.227 40.6523 50.7648 38.2888 50.106C35.9252 49.4473 33.4785 50.8415 32.8239 53.22C32.1693 55.5986 33.5547 58.0608 35.9183 58.7196C38.2818 59.3783 40.7285 57.9841 41.3831 55.6056Z" fill="#91B3FA"/>
<path d="M30.428 67.5674L44.5827 67.4913C45.4499 67.4854 45.9679 66.519 45.4965 65.7869C44.2859 63.9008 41.7541 61.1304 37.4006 61.2827C33.2042 61.4233 30.7248 63.9536 29.4851 65.7576C28.9497 66.5249 29.4968 67.5733 30.428 67.5674Z" fill="#91B3FA"/>
<g opacity="0.6">
<path opacity="0.6" d="M86.0399 48.684C86.5463 48.684 86.9537 48.3501 86.942 47.9518C86.9304 47.5535 86.4997 47.2197 85.9933 47.2138L60.3322 46.8858C59.8258 46.88 59.5465 47.2665 59.7211 47.7527L59.7909 47.9401C59.9597 48.4204 60.5184 48.8128 61.0306 48.8128L86.0399 48.684Z" fill="white"/>
</g>
<g opacity="0.6">
<path opacity="0.6" d="M60.3498 50.9273C59.8434 50.9214 59.564 51.308 59.7386 51.7941L59.8085 51.9815C59.9773 52.4618 60.536 52.8543 61.0482 52.8543L86.0691 52.7254C86.5755 52.7254 86.9829 52.3915 86.9713 51.9933C86.9596 51.595 86.5289 51.2611 86.0226 51.2553L60.3498 50.9273Z" fill="white"/>
</g>
<g opacity="0.6">
<path opacity="0.6" d="M60.3727 55.0214C59.8663 55.0156 59.587 55.4021 59.7616 55.8883L59.8314 56.0757C60.0002 56.556 60.5589 56.9484 61.0711 56.9484L86.0921 56.8195C86.5984 56.8195 87.0059 56.4857 86.9942 56.0874C86.9826 55.6891 86.5519 55.3553 86.0455 55.3494L60.3727 55.0214Z" fill="white"/>
</g>
<g opacity="0.6">
<path opacity="0.6" d="M88.6939 76.5581C89.2002 76.5581 89.596 76.2243 89.5669 75.826C89.5378 75.4277 89.1013 75.0997 88.5891 75.0997L28.2454 74.9357C27.7391 74.9357 27.5819 75.2579 27.9021 75.6561L28.292 76.1423C28.6121 76.5406 29.2873 76.8627 29.7994 76.8627L88.6939 76.5581Z" fill="white"/>
</g>
<g opacity="0.6">
<path opacity="0.6" d="M28.2689 78.9712C27.7625 78.9712 27.6054 79.2933 27.9255 79.6916L28.3154 80.1778C28.6356 80.5761 29.3107 80.8982 29.8229 80.8982L88.7231 80.5878C89.2295 80.5878 89.6252 80.2539 89.5961 79.8556C89.567 79.4573 89.1305 79.1293 88.6183 79.1293L28.2689 78.9712Z" fill="white"/>
</g>
<path opacity="0.6" d="M27.9428 85.7128C29.3979 85.5957 32.1217 85.5254 33.6233 85.4961C34.2577 85.4844 34.8165 85.9119 34.9736 86.5328C35.2704 87.7394 35.6778 89.8362 35.6429 92.0561C35.6313 92.7238 35.09 93.2568 34.4323 93.2509L28.8973 93.2216C28.2164 93.2158 27.646 92.6945 27.582 92.0151L27.0698 86.7788C27.0058 86.2399 27.4015 85.7597 27.9428 85.7128Z" fill="white"/>
<g opacity="0.6">
<path opacity="0.6" d="M38.274 87.8155C37.7676 87.7979 37.4126 88.1962 37.4941 88.6999L37.6047 89.4262C37.6803 89.93 38.1634 90.3458 38.6697 90.34L51.9398 90.2697C52.4461 90.2697 52.8593 89.848 52.8477 89.3325V89.2798C52.8361 88.7702 52.417 88.3309 51.9048 88.3134L38.274 87.8155Z" fill="white"/>
</g>
<path opacity="0.6" d="M58.0971 85.5547C59.5522 85.4376 62.276 85.3673 63.7776 85.338C64.412 85.3263 64.9708 85.7539 65.1279 86.3747C65.4247 87.5813 65.8321 89.6781 65.7972 91.898C65.7856 92.5657 65.2443 93.0987 64.5866 93.0928L59.0516 93.0636C58.3707 93.0577 57.8003 92.5364 57.7363 91.857L57.2241 86.6207C57.1601 86.0819 57.5558 85.6016 58.0971 85.5547Z" fill="white"/>
<g opacity="0.6">
<path opacity="0.6" d="M68.4283 87.6574C67.9219 87.6398 67.5669 88.0381 67.6484 88.5419L67.7589 89.2681C67.8346 89.7719 68.3177 90.1877 68.824 90.1819L82.0941 90.1116C82.6004 90.1116 83.0137 89.6899 83.002 89.1744V89.1217C82.9904 88.6121 82.5713 88.1729 82.0592 88.1553L68.4283 87.6574Z" fill="white"/>
</g>
<path opacity="0.6" d="M35.8584 106.459C35.8525 106.459 35.8467 106.459 35.8467 106.459L30.7366 106.435C30.0091 106.43 29.4038 105.932 29.3281 105.27L28.8567 100.959C28.8276 100.707 28.9032 100.455 29.072 100.25C29.2583 100.022 29.5435 99.8813 29.8519 99.8578C30.2826 99.8286 30.8879 99.77 31.5281 99.7114C32.8784 99.5884 34.5605 99.4361 35.5033 99.4186C36.1901 99.4127 36.7721 99.8168 36.9409 100.42C37.2145 101.41 37.197 103.284 37.1563 105.282C37.1505 105.932 36.5626 106.459 35.8584 106.459ZM29.881 100.256C29.6773 100.274 29.4911 100.362 29.3747 100.508C29.2757 100.625 29.2292 100.772 29.2466 100.918L29.7181 105.229C29.7705 105.692 30.207 106.043 30.7366 106.043L35.8467 106.066C35.8526 106.066 35.8525 106.066 35.8584 106.066C36.3531 106.066 36.7605 105.709 36.7721 105.276C36.8129 103.308 36.8245 101.469 36.5684 100.531C36.452 100.11 36.0155 99.8227 35.5208 99.8227C34.5896 99.8403 32.9192 99.9925 31.5747 100.116C30.9228 100.168 30.3176 100.227 29.881 100.256Z" fill="white"/>
<path d="M30.434 100.701C31.5049 100.619 33.8388 100.373 34.9446 100.35C35.4161 100.344 35.8235 100.625 35.9399 101.035C36.1552 101.826 36.1378 103.413 36.1087 104.872C36.097 105.311 35.7013 105.662 35.2124 105.656L31.1324 105.639C30.6319 105.639 30.2128 105.293 30.1604 104.848L29.7821 101.404C29.7472 101.047 30.0382 100.731 30.434 100.701Z" fill="#BDD0FB"/>
<g opacity="0.6">
<path opacity="0.6" d="M40.328 103.577C40.4793 104.139 40.9915 104.532 41.5677 104.52L88.8218 103.87C89.3572 103.864 89.7821 103.419 89.7646 102.88C89.753 102.359 89.3223 101.943 88.8043 101.943L41.5444 101.972C40.718 101.966 40.1127 102.763 40.328 103.577Z" fill="white"/>
</g>
<path opacity="0.6" d="M35.9165 117.476C35.9107 117.476 35.9048 117.476 35.9048 117.476L30.7947 117.453C30.0672 117.447 29.4619 116.949 29.3862 116.287L28.9148 111.976C28.8857 111.724 28.9613 111.473 29.1301 111.268C29.3164 111.039 29.6016 110.899 29.91 110.875C30.3407 110.846 30.946 110.787 31.5863 110.729C32.9365 110.606 34.6186 110.453 35.5614 110.436C35.5673 110.436 35.5731 110.436 35.5847 110.436C36.254 110.43 36.8361 110.84 36.999 111.437C37.2726 112.427 37.2551 114.302 37.2144 116.299C37.2027 116.949 36.6207 117.476 35.9165 117.476ZM29.9391 111.273C29.7354 111.291 29.5492 111.379 29.4328 111.525C29.3338 111.642 29.2873 111.789 29.3047 111.935L29.7762 116.246C29.8286 116.709 30.2651 117.06 30.7947 117.06L35.9048 117.084C35.9107 117.084 35.9107 117.084 35.9165 117.084C36.4112 117.084 36.8186 116.726 36.8302 116.293C36.871 114.325 36.8826 112.486 36.6265 111.549C36.5101 111.127 36.0678 110.828 35.5789 110.84C34.6477 110.858 32.9773 111.01 31.6328 111.133C30.981 111.186 30.3757 111.238 29.9391 111.273Z" fill="white"/>
<path d="M30.492 111.713C31.5629 111.631 33.8968 111.385 35.0027 111.361C35.4741 111.355 35.8815 111.636 35.9979 112.046C36.2133 112.837 36.1958 114.425 36.1667 115.883C36.1551 116.322 35.7593 116.674 35.2704 116.668L31.1904 116.65C30.6899 116.65 30.2709 116.305 30.2185 115.86L29.8402 112.415C29.7994 112.064 30.0963 111.742 30.492 111.713Z" fill="#BDD0FB"/>
<g opacity="0.6">
<path opacity="0.6" d="M40.3866 114.589C40.5379 115.151 41.0501 115.543 41.6263 115.532L88.8804 114.881C89.4158 114.876 89.8407 114.43 89.8232 113.892C89.8116 113.37 89.3809 112.954 88.8629 112.954L41.603 112.984C40.7766 112.984 40.1713 113.78 40.3866 114.589Z" fill="white"/>
</g>
<path opacity="0.6" d="M35.9746 128.493C35.9687 128.493 35.9629 128.493 35.9629 128.493L30.8528 128.47C30.1253 128.464 29.52 127.966 29.4443 127.304L28.9729 122.994C28.9438 122.742 29.0195 122.49 29.1882 122.285C29.3745 122.056 29.6597 121.916 29.9681 121.892C30.3988 121.863 31.0041 121.805 31.6444 121.746C32.9946 121.623 34.6767 121.471 35.6195 121.453C35.6254 121.453 35.6312 121.453 35.6428 121.453C36.3121 121.447 36.8942 121.857 37.0571 122.455C37.3307 123.445 37.3132 125.319 37.2725 127.316C37.2608 127.966 36.6788 128.487 35.9746 128.493ZM29.9972 122.291C29.7935 122.308 29.6073 122.396 29.4909 122.543C29.3919 122.66 29.3454 122.806 29.3628 122.953L29.8343 127.263C29.8867 127.726 30.3232 128.078 30.8528 128.078L35.9629 128.101C35.9687 128.101 35.9687 128.101 35.9746 128.101C36.4693 128.101 36.8767 127.744 36.8883 127.31C36.9291 125.342 36.9407 123.503 36.6846 122.566C36.5682 122.144 36.1259 121.846 35.637 121.857C34.7058 121.875 33.0354 122.027 31.6909 122.15C31.0391 122.203 30.4338 122.256 29.9972 122.291Z" fill="white"/>
<path d="M30.5501 122.73C31.621 122.648 33.9549 122.402 35.0608 122.379C35.5322 122.373 35.9396 122.654 36.056 123.064C36.2714 123.855 36.2539 125.442 36.2248 126.9C36.2132 127.34 35.8174 127.691 35.3285 127.685L31.2486 127.668C30.748 127.668 30.329 127.322 30.2766 126.877L29.8983 123.433C29.8575 123.076 30.1544 122.759 30.5501 122.73Z" fill="#BDD0FB"/>
<g opacity="0.6">
<path opacity="0.6" d="M40.4447 125.606C40.596 126.168 41.1082 126.561 41.6844 126.549L88.9385 125.899C89.4739 125.893 89.8988 125.448 89.8813 124.909C89.8697 124.388 89.439 123.972 88.921 123.972L41.6611 124.001C40.8347 124.001 40.2294 124.798 40.4447 125.606Z" fill="white"/>
</g>
<path opacity="0.6" d="M36.0332 139.511C36.0274 139.511 36.0215 139.511 36.0215 139.511L30.9114 139.487C30.1839 139.481 29.5786 138.983 29.5029 138.322L29.0315 134.011C29.0024 133.759 29.078 133.507 29.2468 133.302C29.4331 133.074 29.7183 132.933 30.0267 132.91C30.4574 132.88 31.0627 132.822 31.703 132.763C33.0532 132.64 34.7353 132.488 35.6781 132.47C35.684 132.47 35.6898 132.47 35.7014 132.47C36.3708 132.465 36.9528 132.875 37.1157 133.472C37.3893 134.462 37.3718 136.336 37.3311 138.333C37.3194 138.978 36.7374 139.505 36.0332 139.511ZM30.0558 133.302C29.8521 133.32 29.6659 133.408 29.5495 133.554C29.4505 133.671 29.404 133.818 29.4214 133.964L29.8929 138.275C29.9453 138.737 30.3818 139.089 30.9114 139.089L36.0215 139.112C36.0274 139.112 36.0274 139.112 36.0332 139.112C36.5279 139.112 36.9353 138.755 36.9469 138.322C36.9877 136.354 36.9993 134.515 36.7432 133.577C36.6268 133.156 36.1845 132.857 35.6956 132.869C34.7644 132.886 33.094 133.039 31.7495 133.162C31.0977 133.214 30.4865 133.273 30.0558 133.302Z" fill="white"/>
<path d="M30.6083 133.747C31.6792 133.665 34.0131 133.419 35.119 133.396C35.5904 133.39 35.9978 133.671 36.1142 134.081C36.3296 134.872 36.3121 136.459 36.283 137.918C36.2714 138.357 35.8756 138.708 35.3867 138.702L31.3067 138.685C30.8062 138.685 30.3871 138.339 30.3348 137.894L29.9564 134.45C29.9157 134.093 30.2067 133.777 30.6083 133.747Z" fill="#BDD0FB"/>
<g opacity="0.6">
<path opacity="0.6" d="M40.5027 136.623C40.654 137.185 41.1662 137.578 41.7424 137.566L88.9964 136.916C89.5319 136.91 89.9567 136.465 89.9393 135.926C89.9276 135.405 89.4969 134.989 88.9789 134.989L41.7191 135.018C40.8926 135.012 40.2815 135.809 40.5027 136.623Z" fill="white"/>
</g>
<path d="M158.536 103.489H134.435V150.264H158.536V103.489Z" fill="url(#paint4_linear)"/>
<path d="M161.761 107.531H133.283V87.6047L155.661 86.4509L162.878 105.762C163.263 106.588 162.669 107.531 161.761 107.531Z" fill="url(#paint5_linear)"/>
<path d="M155.667 86.7437L134.435 87.8975V85.5898L154.276 84.436C155.044 84.436 155.667 85.0627 155.667 85.8358V86.7437Z" fill="url(#paint6_linear)"/>
<g opacity="0.89">
<path opacity="0.89" d="M153.374 137.56H139.731C139.696 137.56 139.667 137.531 139.667 137.496V116.258C139.667 116.223 139.696 116.193 139.731 116.193H153.374C153.408 116.193 153.438 116.223 153.438 116.258V137.496C153.443 137.531 153.414 137.56 153.374 137.56Z" fill="url(#paint7_linear)"/>
<g opacity="0.89">
<path opacity="0.89" d="M145.982 136.406H140.709C140.691 136.406 140.674 136.389 140.674 136.371V117.388C140.674 117.371 140.691 117.353 140.709 117.353H145.982C145.999 117.353 146.017 117.371 146.017 117.388V136.371C146.023 136.389 146.005 136.406 145.982 136.406Z" fill="url(#paint8_linear)"/>
<path opacity="0.89" d="M152.401 136.406H147.128C147.111 136.406 147.093 136.389 147.093 136.371V117.388C147.093 117.371 147.111 117.353 147.128 117.353H152.401C152.419 117.353 152.436 117.371 152.436 117.388V136.371C152.436 136.389 152.419 136.406 152.401 136.406Z" fill="url(#paint9_linear)"/>
</g>
</g>
<path d="M137.84 96.9937H70.8726V150.27H137.84V96.9937Z" fill="url(#paint10_linear)"/>
<path d="M136.262 71.152H70.8435L63.5973 96.2147C63.4286 96.8004 63.5275 97.4271 63.8651 97.9425L64.6101 99.0671C65.0058 99.6646 65.6868 100.028 66.4143 100.028H140.482C141.326 100.028 142.088 99.5474 142.438 98.7977L143.153 97.2631C143.363 96.8121 143.409 96.2967 143.27 95.8164L136.262 71.152Z" fill="url(#paint11_linear)"/>
<path d="M136.408 71.152H70.6631V70.0157C70.6631 69.5881 71.0123 69.2367 71.4546 69.2308L135.593 68.2761C136.041 68.2703 136.408 68.6217 136.408 69.061V71.152Z" fill="url(#paint12_linear)"/>
<path d="M113.162 150.264H92.3955V146.908C92.3955 146.803 92.477 146.721 92.5818 146.721H112.976C113.08 146.721 113.162 146.803 113.162 146.908V150.264Z" fill="url(#paint13_linear)"/>
<path d="M109.868 146.721H95.6958V119.11C95.6958 118.993 95.7889 118.899 95.9053 118.899H109.664C109.781 118.899 109.874 118.993 109.874 119.11V146.721H109.868Z" fill="url(#paint14_linear)"/>
<path opacity="0.9" d="M108.867 117.025H96.6969C96.144 117.025 95.6958 116.574 95.6958 116.018V115.139C95.6958 114.612 96.1032 114.173 96.627 114.132L108.797 113.282C109.373 113.241 109.868 113.704 109.868 114.29V116.018C109.868 116.574 109.42 117.025 108.867 117.025Z" fill="url(#paint15_linear)"/>
<path opacity="0.9" d="M121.124 104.667H120.99C117.492 104.667 114.425 107.162 114.425 110.682V117.025H121.124V104.667Z" fill="url(#paint16_linear)"/>
<path opacity="0.9" d="M114.425 118.899V137.56C114.425 138.187 115.158 139.165 115.781 139.165H121.124V118.899H114.425Z" fill="url(#paint17_linear)"/>
<path opacity="0.9" d="M122.951 104.667H122.614V117.025H129.313V110.682C129.313 107.162 126.449 104.667 122.951 104.667Z" fill="url(#paint18_linear)"/>
<path opacity="0.9" d="M122.608 139.165H128.155C128.777 139.165 129.307 138.193 129.307 137.56V118.899H122.608V139.165Z" fill="url(#paint19_linear)"/>
<path opacity="0.9" d="M84.2239 104.667H84.0901C80.5921 104.667 77.5249 107.162 77.5249 110.682V117.025H84.2239V104.667Z" fill="url(#paint20_linear)"/>
<path opacity="0.9" d="M77.5249 118.899V137.56C77.5249 138.187 78.2582 139.165 78.881 139.165H84.2239V118.899H77.5249Z" fill="url(#paint21_linear)"/>
<path d="M86.0514 104.667H85.7139V117.025H92.4129V110.682C92.4129 107.162 89.5552 104.667 86.0514 104.667Z" fill="url(#paint22_linear)"/>
<path d="M85.7139 139.165H91.2605C91.8832 139.165 92.4129 138.193 92.4129 137.56V118.899H85.7139V139.165Z" fill="url(#paint23_linear)"/>
<path opacity="0.56" d="M89.0545 97.0699H68.5791C68.0728 97.0699 67.613 96.8356 67.3103 96.4315C67.0077 96.0215 66.9146 95.5119 67.0601 95.0257L72.9093 75.0529C72.921 75.0119 72.9617 74.9884 73.0083 75.0001C73.049 75.0119 73.0723 75.0587 73.0607 75.0997L67.2114 95.0726C67.0834 95.5119 67.1648 95.9746 67.4384 96.3436C67.7119 96.7126 68.131 96.9235 68.585 96.9235H89.0604C89.1011 96.9235 89.136 96.9586 89.136 96.9996C89.136 97.0406 89.0953 97.0699 89.0545 97.0699Z" fill="white"/>
<path d="M100.812 139.241H98.67C97.9541 139.241 97.3779 138.656 97.3779 137.941V122.027C97.3779 121.307 97.96 120.727 98.67 120.727H100.812C101.528 120.727 102.104 121.313 102.104 122.027V137.941C102.11 138.661 101.528 139.241 100.812 139.241ZM98.6758 120.885C98.0473 120.885 97.5351 121.4 97.5351 122.033V137.947C97.5351 138.579 98.0473 139.095 98.6758 139.095H100.818C101.446 139.095 101.958 138.579 101.958 137.947V122.033C101.958 121.4 101.446 120.885 100.818 120.885H98.6758Z" fill="white"/>
<path opacity="0.9" d="M106.783 139.241H104.641C103.925 139.241 103.349 138.656 103.349 137.941V122.027C103.349 121.307 103.931 120.727 104.641 120.727H106.783C107.499 120.727 108.075 121.313 108.075 122.027V137.941C108.075 138.661 107.499 139.241 106.783 139.241ZM104.641 120.885C104.013 120.885 103.5 121.4 103.5 122.033V137.947C103.5 138.579 104.013 139.095 104.641 139.095H106.783C107.412 139.095 107.924 138.579 107.924 137.947V122.033C107.924 121.4 107.412 120.885 106.783 120.885H104.641Z" fill="url(#paint24_linear)"/>
<path d="M100.812 144.606H98.67C97.9541 144.606 97.3779 144.021 97.3779 143.306V141.479C97.3779 140.758 97.96 140.178 98.67 140.178H100.812C101.528 140.178 102.104 140.764 102.104 141.479V143.306C102.11 144.027 101.528 144.606 100.812 144.606ZM98.6758 140.331C98.0473 140.331 97.5351 140.846 97.5351 141.479V143.306C97.5351 143.939 98.0473 144.454 98.6758 144.454H100.818C101.446 144.454 101.958 143.939 101.958 143.306V141.479C101.958 140.846 101.446 140.331 100.818 140.331H98.6758Z" fill="white"/>
<path opacity="0.9" d="M106.783 144.606H104.641C103.925 144.606 103.349 144.021 103.349 143.306V141.479C103.349 140.758 103.931 140.178 104.641 140.178H106.783C107.499 140.178 108.075 140.764 108.075 141.479V143.306C108.075 144.027 107.499 144.606 106.783 144.606ZM104.641 140.331C104.013 140.331 103.5 140.846 103.5 141.479V143.306C103.5 143.939 104.013 144.454 104.641 144.454H106.783C107.412 144.454 107.924 143.939 107.924 143.306V141.479C107.924 140.846 107.412 140.331 106.783 140.331H104.641Z" fill="url(#paint25_linear)"/>
<path opacity="0.56" d="M129.889 140.331H113.761C112.836 140.331 112.085 139.575 112.085 138.644V110.547C112.085 106.102 115.676 102.488 120.094 102.488H123.557C127.974 102.488 131.565 106.102 131.565 110.547V138.644C131.565 139.575 130.814 140.331 129.889 140.331ZM120.094 102.64C115.763 102.64 112.242 106.184 112.242 110.541V138.638C112.242 139.481 112.923 140.167 113.761 140.167H129.889C130.727 140.167 131.408 139.481 131.408 138.638V110.541C131.408 106.184 127.887 102.64 123.557 102.64H120.094Z" fill="white"/>
<path opacity="0.56" d="M93.0007 140.331H76.873C75.9476 140.331 75.1968 139.575 75.1968 138.644V110.547C75.1968 106.102 78.7878 102.488 83.2054 102.488H86.6684C91.0859 102.488 94.677 106.102 94.677 110.547V138.644C94.677 139.575 93.9262 140.331 93.0007 140.331ZM83.2054 102.64C78.8751 102.64 75.3539 106.184 75.3539 110.541V138.638C75.3539 139.481 76.0349 140.167 76.873 140.167H93.0007C93.8389 140.167 94.5198 139.481 94.5198 138.638V110.541C94.5198 106.184 90.9986 102.64 86.6684 102.64H83.2054Z" fill="white"/>
<path opacity="0.56" d="M138.497 91.2244C138.462 91.2244 138.433 91.201 138.422 91.1717L133.87 76.0427C133.562 75.0118 132.631 74.309 131.56 74.3031C119.652 74.2094 112.359 74.2094 112.056 74.3148C112.016 74.3266 111.969 74.309 111.957 74.268C111.946 74.227 111.957 74.186 111.998 74.1684C112.365 74.0161 124.413 74.0923 131.56 74.145C132.7 74.1567 133.69 74.9006 134.022 75.9958L138.573 91.1248C138.585 91.1658 138.561 91.2127 138.521 91.2244C138.515 91.2244 138.503 91.2244 138.497 91.2244Z" fill="white"/>
<path d="M141.547 147.711C141.547 147.711 147.472 120.885 139.504 124.575C131.542 128.265 138.701 146.996 139.504 148.162C140.313 149.333 141.082 150.007 141.547 147.711Z" fill="#7D97F4"/>
<path d="M140.953 148.443C140.953 148.443 138.369 129.882 145.755 131.299C153.141 132.716 141.954 148.291 141.884 148.958C141.814 149.626 140.953 148.443 140.953 148.443Z" fill="#91B3FA"/>
<path d="M140.005 148.542C140.005 148.542 138.247 132.019 132.572 134.696C126.892 137.373 139.161 148.607 139.359 149.169C139.557 149.731 140.005 148.542 140.005 148.542Z" fill="#91B3FA"/>
<g opacity="0.7">
<path opacity="0.7" d="M142.059 127.679C141.983 127.679 141.908 127.627 141.884 127.55C141.651 126.771 141.273 126.25 140.761 126.004C140.033 125.653 139.271 125.957 139.265 125.957C139.172 125.992 139.067 125.951 139.032 125.858C138.997 125.764 139.038 125.659 139.131 125.623C139.166 125.606 140.051 125.26 140.918 125.682C141.529 125.981 141.972 126.572 142.233 127.451C142.263 127.545 142.21 127.65 142.111 127.679C142.094 127.679 142.076 127.679 142.059 127.679Z" fill="white"/>
<path opacity="0.7" d="M142.059 146.071C142.024 146.071 141.989 146.059 141.96 146.041C141.879 145.989 141.85 145.872 141.908 145.79C141.937 145.749 144.742 141.362 146.593 137.32C147.158 136.084 147.245 135.007 146.844 134.116C146.244 132.781 144.737 132.312 144.719 132.306C144.626 132.277 144.568 132.178 144.597 132.078C144.626 131.984 144.725 131.926 144.824 131.955C144.894 131.973 146.506 132.47 147.175 133.958C147.618 134.948 147.536 136.125 146.925 137.461C145.063 141.531 142.246 145.93 142.216 145.977C142.176 146.041 142.118 146.071 142.059 146.071Z" fill="white"/>
<path opacity="0.7" d="M138.515 146.018C138.427 146.018 138.352 145.954 138.334 145.866C138.328 145.848 137.997 144.027 136.373 139.066C135.756 137.174 134.929 136.014 133.998 135.715C133.201 135.458 132.584 135.909 132.578 135.909C132.497 135.967 132.386 135.95 132.328 135.868C132.27 135.786 132.287 135.674 132.368 135.616C132.398 135.592 133.143 135.053 134.115 135.37C135.18 135.709 136.058 136.916 136.722 138.954C138.357 143.945 138.683 145.725 138.695 145.801C138.712 145.901 138.648 145.995 138.549 146.012C138.538 146.018 138.526 146.018 138.515 146.018Z" fill="white"/>
</g>
<path d="M135.285 147.646L136.891 153.421C137.141 154.312 137.939 154.927 138.858 154.933L142.49 154.962C143.532 154.968 144.417 154.189 144.545 153.152L145.301 147.096L135.285 147.646Z" fill="#7D97F4"/>
<path d="M145.161 146.674L135.18 146.85C134.691 146.856 134.301 147.289 134.307 147.81C134.313 148.332 134.708 148.747 135.191 148.747L145.161 148.654C145.691 148.648 146.128 148.203 146.128 147.652C146.128 147.102 145.697 146.662 145.161 146.674Z" fill="#7D97F4"/>
<path d="M107.586 93.3974C107.953 93.4735 104.804 147.342 102.394 159.472L97.389 159.097L96.2774 104.59H94.4207L91.6387 158.16H87.5587L83.665 92.8293C83.6592 92.8351 99.2398 91.7164 107.586 93.3974Z" fill="url(#paint26_linear)"/>
<path d="M102.389 163.021C102.389 163.021 98.3087 163.584 95.8991 163.021C95.8991 163.021 95.16 160.965 97.3833 159.103C99.6066 157.234 102.389 159.478 102.389 159.478V163.021Z" fill="url(#paint27_linear)"/>
<path d="M91.6331 158.166C91.6331 158.166 91.8193 161.153 91.6331 162.646C91.6331 162.646 83.8456 162.91 79.562 162.887C78.7763 162.881 78.5551 161.803 79.2768 161.481C80.6562 160.866 83.1239 158.828 87.5589 158.166H91.6331Z" fill="url(#paint28_linear)"/>
<path d="M105.916 49.9081C105.916 49.9081 95.1599 46.3586 86.6275 49.5332L82.3613 94.5161C82.3613 94.5161 101.463 93.9538 107.958 95.4474L105.916 49.9081Z" fill="url(#paint29_linear)"/>
<path d="M115.374 53.6391C115.374 53.6391 109.065 50.0955 103.134 49.1584L104.915 94.8207C104.961 95.9569 105.77 96.9175 106.882 97.1401L107.516 97.2689C108.122 97.3919 108.686 96.9117 108.669 96.2908L108.116 77.015C108.017 73.5417 108.646 70.0918 109.961 66.8762L115.374 53.6391Z" fill="url(#paint30_linear)"/>
<path d="M89.5903 48.7836C89.5903 48.7836 80.3187 49.5274 74.9351 54.383L79.114 66.2613C80.5224 70.2559 81.2383 74.4671 81.2383 78.7077L82.1172 95.834C82.1463 96.3494 82.5653 96.7536 83.0775 96.7536C84.3463 96.7536 85.3998 95.7813 85.5162 94.5103L89.5903 48.7836Z" fill="url(#paint31_linear)"/>
<path d="M99.9793 43.1841L100.142 48.5024C100.16 49.0296 99.8338 49.504 99.3391 49.6797C97.9888 50.16 95.1893 50.8863 92.5411 49.9316C92.0056 49.7383 91.6855 49.1877 91.767 48.6254L92.5644 43.19H99.9793V43.1841Z" fill="url(#paint32_linear)"/>
<path d="M102.203 33.4788C102.203 33.4788 101.277 42.9967 99.2344 45.4274C99.2344 45.4274 93.1115 45.9897 90.8882 44.6836C90.8882 44.6836 89.311 39.9217 89.4972 33.5784C89.4972 33.5784 89.1946 27.8033 95.5269 27.323C102.948 26.7607 102.203 33.4788 102.203 33.4788Z" fill="url(#paint33_linear)"/>
<path d="M90.1491 36.466C90.1491 36.466 89.5904 34.785 88.665 34.785C87.7396 34.785 88.8512 39.2657 90.1491 39.2657V36.466Z" fill="url(#paint34_linear)"/>
<path d="M101.358 36.9053C101.358 36.9053 102.132 35.318 103.052 35.441C103.972 35.564 102.266 39.8573 100.98 39.6757L101.358 36.9053Z" fill="url(#paint35_linear)"/>
<path d="M101.562 38.5042C101.562 38.5042 101.352 44.1915 98.8673 47.0732C98.6403 47.3368 98.3085 47.4891 97.9593 47.5067C96.6905 47.5652 93.4487 47.6765 91.6212 47.3134C91.1672 47.2197 90.7889 46.8975 90.6434 46.4582C90.1952 45.1345 89.4153 43.0377 89.683 38.2407L91.173 41.8194C92.2788 44.7772 92.8783 41.1868 93.3905 41.2278H96.7313C97.0805 41.2571 97.4704 43.4652 98.7741 42.821L101.562 38.5042Z" fill="white"/>
<path d="M92.0054 31.2414C92.0054 31.2414 96.7314 36.1321 101.882 36.1145C101.882 36.1145 104.804 28.2543 99.0536 26.9481C93.3033 25.642 93.1171 27.323 93.1171 27.323C93.1171 27.323 86.3948 25.6595 89.3863 35.2652L92.0054 31.2414Z" fill="white"/>
<path d="M93.8566 164.327C94.1651 164.327 94.4153 164.076 94.4153 163.765V84.4359C94.4153 84.1255 94.1651 83.8737 93.8566 83.8737C93.5481 83.8737 93.2979 84.1255 93.2979 84.4359V163.765C93.3037 164.076 93.5539 164.327 93.8566 164.327Z" fill="#91B3FA"/>
<path d="M91.4468 83.3172C91.4468 83.3172 80.8715 89.2915 78.2757 81.6362C75.6799 73.9809 80.499 69.1312 80.499 69.1312L74.9349 54.3829C74.9349 54.3829 64.3597 73.9809 71.7804 85.9295C78.7297 97.1225 91.0685 86.8608 91.0685 86.8608L91.4468 83.3172Z" fill="url(#paint36_linear)"/>
<path d="M115.373 53.6391C115.373 53.6391 125.39 87.2357 115.373 91.7164C105.357 96.1971 97.0107 85.3672 97.0107 85.3672L98.1224 82.1927C98.1224 82.1927 107.214 87.4172 110.176 84.805C113.144 82.1927 108.133 66.888 108.133 66.888L115.373 53.6391Z" fill="url(#paint37_linear)"/>
<path d="M91.0742 86.8667C91.0742 86.8667 93.1171 87.0541 94.2288 85.9354C95.3404 84.8167 96.4521 82.7608 94.7875 82.5734C93.1171 82.386 91.4467 83.3172 91.4467 83.3172L91.0742 86.8667Z" fill="url(#paint38_linear)"/>
<path d="M90.3351 83.3172C90.3351 83.3172 95.1601 80.3301 98.1225 82.1985C98.1225 82.1985 98.6813 84.4359 97.0109 85.3731C97.0109 85.3731 94.0426 87.4289 91.633 86.3044C89.2235 85.1857 90.3351 83.3172 90.3351 83.3172Z" fill="url(#paint39_linear)"/>
<path d="M66.7227 114.395L68.4745 113.446C68.8936 113.218 69.1962 112.826 69.301 112.357L70.7968 105.996L67.8459 106.084L66.7227 114.395Z" fill="url(#paint40_linear)"/>
<path d="M69.5048 63.2507C69.5048 63.2507 75.0689 82.2922 70.8027 105.996C70.8027 105.996 69.9123 107.285 67.8519 106.084C67.8519 106.084 68.0207 77.4425 66.1641 72.3995L69.5048 63.2507Z" fill="url(#paint41_linear)"/>
<path fill-rule="evenodd" clip-rule="evenodd" d="M58.4001 158.798L58.0684 159.624L58.2022 162.594C58.2197 163.01 58.5573 163.361 59.0054 163.431C59.6224 163.525 60.5187 163.625 61.3626 163.56C62.0203 163.507 62.4335 162.887 62.1774 162.33L61.1822 160.186C61.0308 159.864 60.7631 159.618 60.4314 159.507L58.4001 158.798Z" fill="url(#paint42_linear)"/>
<path fill-rule="evenodd" clip-rule="evenodd" d="M57.3643 131.85C57.3643 131.85 57.3643 153.398 58.3711 159.472C58.4235 159.782 58.6563 160.034 58.9706 160.087C59.2558 160.134 59.6399 160.122 60.0997 159.917C60.3325 159.812 60.4839 159.583 60.5188 159.331L63.3648 132.224L57.3643 131.85Z" fill="url(#paint43_linear)"/>
<path fill-rule="evenodd" clip-rule="evenodd" d="M54.8204 158.798L55.1521 159.624L55.3908 162.594C55.3733 163.01 55.0357 163.361 54.5876 163.431C53.9706 163.525 52.7018 163.625 51.8579 163.56C51.2002 163.507 50.787 162.887 51.0431 162.33L52.0383 160.186C52.1897 159.864 52.4574 159.618 52.7891 159.507L54.8204 158.798Z" fill="url(#paint44_linear)"/>
<path fill-rule="evenodd" clip-rule="evenodd" d="M55.8625 131.85C55.8625 131.85 55.8625 153.685 54.8323 159.612C54.7974 159.806 54.6635 159.97 54.4773 160.028C54.1746 160.122 53.6741 160.181 53.0339 159.864C52.8651 159.782 52.7487 159.618 52.7312 159.437L49.8677 132.224L55.8625 131.85Z" fill="url(#paint45_linear)"/>
<path d="M65.9776 89.1978C68.9459 96.1034 68.684 115.578 64.4934 135.118C64.4934 135.118 54.1044 136.049 49.0991 135.118C49.0991 135.118 42.2371 94.7972 49.4716 89.1978H65.9776Z" fill="url(#paint46_linear)"/>
<path d="M44.4604 63.2507C44.4604 63.2507 48.3541 56.72 56.514 54.8516L60.7802 54.6641C60.7802 54.6641 66.903 57.6513 69.4988 63.2507L66.1581 77.6241L65.9718 89.1978C65.9718 89.1978 56.1415 91.4353 49.4658 89.1978L47.9817 75.0118L44.4604 63.2507Z" fill="url(#paint47_linear)"/>
<path d="M61.1588 49.4395V56.5149C61.1588 57.0889 60.7456 57.5751 60.1811 57.6571C59.2498 57.7977 57.8122 57.9089 56.5726 57.5341C56.0022 57.3642 55.653 56.7902 55.7635 56.1987L57.0731 49.4395H61.1588Z" fill="url(#paint48_linear)"/>
<path d="M63.7547 39.0782C63.7547 39.0782 68.2071 51.0268 62.5499 52.4735C55.8916 54.1779 53.645 45.3278 53.645 45.3278C53.645 45.3278 59.4885 28.4416 63.7547 39.0782Z" fill="url(#paint49_linear)"/>
<path d="M51.858 39.746C51.858 39.746 54.2618 35.0837 52.3295 33.1625C50.3913 31.2414 46.7886 32.0907 46.2765 35.9154C45.7643 39.7518 50.6882 43.9163 51.858 39.746Z" fill="white"/>
<path d="M65.559 38.0884C65.8267 39.0724 64.9537 39.9802 63.9642 39.7518C62.969 39.5234 61.7526 39.3125 60.6933 39.3535C53.5519 39.6347 56.334 44.3028 56.334 45.0467C56.334 46.5754 54.844 44.2501 54.7567 44.7655C54.5705 45.8842 55.4377 49.2814 55.4377 49.2814C55.4377 49.2814 50.8572 48.3091 49.3789 46.0717C47.8947 43.8342 49.5651 38.7912 50.118 36.9228C50.6768 35.0544 54.3842 33.1918 56.4271 33.3734C58.2488 33.5549 64.0748 32.6764 65.559 38.0884Z" fill="white"/>
<path d="M55.6819 46.0775C55.6819 46.0775 55.1232 43.2778 53.639 43.8401C52.1549 44.4024 54.7507 47.5711 55.6819 48.1334V46.0775Z" fill="url(#paint50_linear)"/>
<path d="M44.4606 63.2507C44.4606 63.2507 30.9229 84.3422 46.5035 94.0475L47.9236 92.0151C47.9236 92.0151 40.5669 81.1677 47.4289 71.4624L44.4606 63.2507Z" fill="url(#paint51_linear)"/>
<path d="M49.6577 164.327C50.0186 164.327 50.3096 164.035 50.3096 163.671V95.3595C50.3096 94.9964 50.0186 94.7035 49.6577 94.7035C49.2969 94.7035 49.0059 94.9964 49.0059 95.3595V163.677C49.0059 164.035 49.2969 164.327 49.6577 164.327Z" fill="url(#paint52_linear)"/>
<path d="M47.9876 91.9975C47.9876 91.9975 51.5146 93.3037 51.6951 96.1034C51.8813 98.9031 51.5088 99.647 50.9559 98.7157C50.3972 97.7844 49.8442 96.8472 48.7326 96.1034C47.6209 95.3595 46.5093 94.0475 46.5093 94.0475C46.5093 94.0475 46.6897 91.9975 47.9876 91.9975Z" fill="url(#paint53_linear)"/>
<path d="M158.281 76.1405C162.986 71.4057 162.986 63.7291 158.281 58.9943C153.576 54.2595 145.948 54.2595 141.243 58.9943C136.538 63.7291 136.538 71.4057 141.243 76.1405C145.948 80.8752 153.576 80.8752 158.281 76.1405Z" fill="#91B3FA"/>
<path d="M139.685 63.075C139.65 63.075 139.615 63.0692 139.58 63.0516C139.463 62.9989 139.411 62.8583 139.469 62.7412C141.291 58.8052 145.103 56.2808 149.41 56.146C150.097 56.1226 150.789 56.1636 151.465 56.269C151.593 56.2866 151.68 56.4038 151.657 56.5326C151.639 56.6615 151.523 56.7493 151.395 56.7259C150.749 56.6263 150.085 56.5912 149.428 56.6088C145.295 56.7376 141.64 59.1625 139.888 62.9345C139.853 63.0223 139.772 63.075 139.685 63.075Z" fill="white"/>
<path opacity="0.78" d="M150.033 78.0868C155.665 78.0868 160.23 73.4925 160.23 67.8251C160.23 62.1577 155.665 57.5634 150.033 57.5634C144.401 57.5634 139.836 62.1577 139.836 67.8251C139.836 73.4925 144.401 78.0868 150.033 78.0868Z" fill="white"/>
<path d="M149.271 75.4804L149.236 74.3617C148.078 74.35 146.925 74.1099 146.105 73.7819C145.808 73.6647 145.651 73.3426 145.726 73.0322L145.976 71.9837C146.07 71.5972 146.477 71.3863 146.844 71.5327C147.659 71.849 148.665 72.0833 149.736 72.054C150.848 72.0189 151.669 71.6147 151.645 70.8357C151.622 70.1329 150.97 69.7346 149.41 69.3656C147.181 68.8267 145.569 67.9072 145.511 65.9509C145.458 64.182 146.698 62.7939 148.916 62.3663L148.881 61.2476C148.869 60.8903 149.148 60.5857 149.509 60.5799L150.161 60.5623C150.516 60.5506 150.819 60.8317 150.825 61.1949L150.854 62.1964C151.925 62.2082 152.71 62.3663 153.333 62.5654C153.653 62.665 153.84 63.0047 153.758 63.3327L153.531 64.305C153.444 64.6799 153.054 64.8966 152.693 64.7677C152.117 64.5686 151.308 64.3694 150.26 64.3987C148.939 64.4397 148.578 65.002 148.596 65.494C148.613 66.1032 149.422 66.4956 151.151 66.9759C153.624 67.6377 154.678 68.6334 154.736 70.4784C154.788 72.1712 153.589 73.7292 151.186 74.1802L151.226 75.4277C151.238 75.785 150.959 76.0896 150.598 76.0954L149.946 76.113C149.579 76.1247 149.282 75.8377 149.271 75.4804Z" fill="#91B3FA"/>
<path d="M144.452 43.5085C149.166 38.7645 149.166 31.0731 144.452 26.3292C139.738 21.5852 132.095 21.5852 127.381 26.3292C122.667 31.0731 122.667 38.7645 127.381 43.5085C132.095 48.2524 139.738 48.2524 144.452 43.5085Z" fill="#91B3FA"/>
<path d="M125.821 30.4214C125.786 30.4214 125.751 30.4155 125.716 30.398C125.6 30.3453 125.547 30.2047 125.605 30.0875C127.433 26.1457 131.251 23.6154 135.564 23.4807C136.251 23.4573 136.943 23.4983 137.618 23.6037C137.746 23.6213 137.834 23.7443 137.81 23.8673C137.793 23.9961 137.671 24.084 137.548 24.0606C136.902 23.961 136.239 23.9258 135.575 23.9434C131.437 24.0723 127.776 26.503 126.019 30.2808C125.984 30.3687 125.908 30.4155 125.821 30.4214Z" fill="white"/>
<path opacity="0.78" d="M143.409 42.4469C147.397 38.4326 147.397 31.9242 143.409 27.9099C139.42 23.8956 132.952 23.8956 128.963 27.9099C124.974 31.9242 124.974 38.4326 128.963 42.4469C132.952 46.4612 139.42 46.4612 143.409 42.4469Z" fill="white"/>
<path d="M141.983 32.243H138.637V29.3437C138.637 28.6643 138.09 28.1078 137.409 28.1078H134.958C134.283 28.1078 133.73 28.6584 133.73 29.3437V32.243H130.384C129.709 32.243 129.156 32.7936 129.156 33.4789V36.3489C129.156 37.0283 129.703 37.5847 130.384 37.5847H133.73V40.484C133.73 41.1634 134.278 41.7199 134.958 41.7199H137.409C138.084 41.7199 138.637 41.1693 138.637 40.484V37.5789H141.983C142.659 37.5789 143.211 37.0283 143.211 36.343V33.473C143.211 32.7994 142.664 32.243 141.983 32.243Z" fill="#91B3FA"/>
<path d="M117.744 23.6447C122.435 18.9237 122.435 11.2693 117.744 6.54826C113.052 1.8272 105.446 1.82721 100.755 6.54826C96.0638 11.2693 96.0638 18.9237 100.755 23.6447C105.446 28.3658 113.052 28.3658 117.744 23.6447Z" fill="#91B3FA"/>
<path d="M99.2055 10.6184C99.1705 10.6184 99.1356 10.6126 99.1007 10.595C98.9843 10.5423 98.9377 10.4017 98.9901 10.2846C100.806 6.3603 104.607 3.84173 108.902 3.70701C109.589 3.68358 110.275 3.72458 110.951 3.83001C111.079 3.84758 111.166 3.96473 111.143 4.09358C111.125 4.22244 111.009 4.3103 110.881 4.28687C110.235 4.1873 109.577 4.15215 108.919 4.16973C104.799 4.29858 101.155 6.71758 99.4092 10.4779C99.3684 10.5657 99.2928 10.6126 99.2055 10.6184Z" fill="white"/>
<path opacity="0.78" d="M109.525 25.5835C115.14 25.5835 119.693 21.0022 119.693 15.351C119.693 9.69981 115.14 5.11859 109.525 5.11859C103.909 5.11859 99.3569 9.69981 99.3569 15.351C99.3569 21.0022 103.909 25.5835 109.525 25.5835Z" fill="white"/>
<path d="M116.619 12.2936L109.525 6.81128L102.43 12.2936C102.087 12.5571 102.273 13.1136 102.709 13.1136H103.71C103.699 13.1721 103.693 13.2307 103.693 13.2951V21.4834C103.693 21.9813 104.094 22.3913 104.595 22.3913H114.46C114.955 22.3913 115.362 21.9871 115.362 21.4834V13.2951C115.362 13.2307 115.357 13.1721 115.345 13.1136H116.346C116.777 13.1136 116.963 12.5571 116.619 12.2936ZM111.829 19.205H107.22V14.5603H111.829V19.205Z" fill="#91B3FA"/>
</g>
<defs>
<linearGradient id="paint0_linear" x1="182.944" y1="210.158" x2="40.0672" y2="33.8334" gradientUnits="userSpaceOnUse">
<stop stop-color="#DAE3FE"/>
<stop offset="1" stop-color="#E9EFFD"/>
</linearGradient>
<linearGradient id="paint1_linear" x1="30.3601" y1="36.847" x2="69.0547" y2="103.015" gradientUnits="userSpaceOnUse">
<stop stop-color="#CE1567"/>
<stop offset="1" stop-color="#7A1DBC"/>
</linearGradient>
<linearGradient id="paint2_linear" x1="25.2487" y1="39.8349" x2="63.9444" y2="106.005" gradientUnits="userSpaceOnUse">
<stop stop-color="#CE1567"/>
<stop offset="1" stop-color="#7A1DBC"/>
</linearGradient>
<linearGradient id="paint3_linear" x1="55.7565" y1="81.2707" x2="29.6624" y2="126.059" gradientUnits="userSpaceOnUse">
<stop stop-color="#A737D5"/>
<stop offset="1" stop-color="#EF497A"/>
</linearGradient>
<linearGradient id="paint4_linear" x1="89.7317" y1="131.421" x2="124.245" y2="128.693" gradientUnits="userSpaceOnUse">
<stop stop-color="#FE7062"/>
<stop offset="1" stop-color="#FF928E"/>
</linearGradient>
<linearGradient id="paint5_linear" x1="180.091" y1="63.3678" x2="157.392" y2="87.101" gradientUnits="userSpaceOnUse">
<stop stop-color="#E1473D"/>
<stop offset="1" stop-color="#E9605A"/>
</linearGradient>
<linearGradient id="paint6_linear" x1="143.277" y1="90.6226" x2="161.911" y2="44.3317" gradientUnits="userSpaceOnUse">
<stop stop-color="#E1473D"/>
<stop offset="1" stop-color="#E9605A"/>
</linearGradient>
<linearGradient id="paint7_linear" x1="139.669" y1="126.878" x2="153.441" y2="126.878" gradientUnits="userSpaceOnUse">
<stop stop-color="#E1473D"/>
<stop offset="1" stop-color="#E9605A"/>
</linearGradient>
<linearGradient id="paint8_linear" x1="190.076" y1="100.458" x2="96.9149" y2="152.469" gradientUnits="userSpaceOnUse">
<stop stop-color="#FEBBBA"/>
<stop offset="1" stop-color="#FF928E"/>
</linearGradient>
<linearGradient id="paint9_linear" x1="104.16" y1="169.521" x2="183.374" y2="96.3812" gradientUnits="userSpaceOnUse">
<stop stop-color="#FEBBBA"/>
<stop offset="1" stop-color="#FF928E"/>
</linearGradient>
<linearGradient id="paint10_linear" x1="103.463" y1="136.948" x2="107.335" y2="80.123" gradientUnits="userSpaceOnUse">
<stop stop-color="#FEBBBA"/>
<stop offset="1" stop-color="#FF928E"/>
</linearGradient>
<linearGradient id="paint11_linear" x1="75.3296" y1="73.7377" x2="150.786" y2="108.006" gradientUnits="userSpaceOnUse">
<stop stop-color="#FF928E"/>
<stop offset="1" stop-color="#FE7062"/>
</linearGradient>
<linearGradient id="paint12_linear" x1="103.233" y1="36.1326" x2="103.545" y2="70.7594" gradientUnits="userSpaceOnUse">
<stop stop-color="#E1473D"/>
<stop offset="1" stop-color="#E9605A"/>
</linearGradient>
<linearGradient id="paint13_linear" x1="102.038" y1="137.541" x2="103.303" y2="156.085" gradientUnits="userSpaceOnUse">
<stop stop-color="#E1473D"/>
<stop offset="1" stop-color="#E9605A"/>
</linearGradient>
<linearGradient id="paint14_linear" x1="102.945" y1="95.507" x2="102.505" y2="195.298" gradientUnits="userSpaceOnUse">
<stop stop-color="#E1473D"/>
<stop offset="1" stop-color="#E9605A"/>
</linearGradient>
<linearGradient id="paint15_linear" x1="95.6961" y1="115.155" x2="109.868" y2="115.155" gradientUnits="userSpaceOnUse">
<stop stop-color="#FEBBBA"/>
<stop offset="1" stop-color="#FF928E"/>
</linearGradient>
<linearGradient id="paint16_linear" x1="131.552" y1="77.4935" x2="108.691" y2="136.178" gradientUnits="userSpaceOnUse">
<stop stop-color="#FF928E"/>
<stop offset="1" stop-color="#FE7062"/>
</linearGradient>
<linearGradient id="paint17_linear" x1="136.809" y1="79.5418" x2="113.948" y2="138.226" gradientUnits="userSpaceOnUse">
<stop stop-color="#FF928E"/>
<stop offset="1" stop-color="#FE7062"/>
</linearGradient>
<linearGradient id="paint18_linear" x1="137.847" y1="79.9458" x2="114.986" y2="138.63" gradientUnits="userSpaceOnUse">
<stop stop-color="#FF928E"/>
<stop offset="1" stop-color="#FE7062"/>
</linearGradient>
<linearGradient id="paint19_linear" x1="143.709" y1="82.2297" x2="120.849" y2="140.914" gradientUnits="userSpaceOnUse">
<stop stop-color="#FF928E"/>
<stop offset="1" stop-color="#FE7062"/>
</linearGradient>
<linearGradient id="paint20_linear" x1="93.8156" y1="85.5702" x2="70.4938" y2="134.757" gradientUnits="userSpaceOnUse">
<stop stop-color="#FF928E"/>
<stop offset="1" stop-color="#FE7062"/>
</linearGradient>
<linearGradient id="paint21_linear" x1="99.8768" y1="88.4442" x2="76.5551" y2="137.631" gradientUnits="userSpaceOnUse">
<stop stop-color="#FF928E"/>
<stop offset="1" stop-color="#FE7062"/>
</linearGradient>
<linearGradient id="paint22_linear" x1="99.6099" y1="88.3177" x2="76.2881" y2="137.505" gradientUnits="userSpaceOnUse">
<stop stop-color="#FEBBBA"/>
<stop offset="1" stop-color="#FF928E"/>
</linearGradient>
<linearGradient id="paint23_linear" x1="106.338" y1="91.5081" x2="83.0168" y2="140.695" gradientUnits="userSpaceOnUse">
<stop stop-color="#FEBBBA"/>
<stop offset="1" stop-color="#FF928E"/>
</linearGradient>
<linearGradient id="paint24_linear" x1="103.35" y1="129.985" x2="108.076" y2="129.985" gradientUnits="userSpaceOnUse">
<stop stop-color="#FEBBBA"/>
<stop offset="1" stop-color="#FF928E"/>
</linearGradient>
<linearGradient id="paint25_linear" x1="103.35" y1="142.391" x2="108.076" y2="142.391" gradientUnits="userSpaceOnUse">
<stop stop-color="#FEBBBA"/>
<stop offset="1" stop-color="#FF928E"/>
</linearGradient>
<linearGradient id="paint26_linear" x1="107.613" y1="125.973" x2="83.6569" y2="125.973" gradientUnits="userSpaceOnUse">
<stop stop-color="#09005D"/>
<stop offset="1" stop-color="#1A0F91"/>
</linearGradient>
<linearGradient id="paint27_linear" x1="99.2375" y1="164.893" x2="98.4685" y2="144.77" gradientUnits="userSpaceOnUse">
<stop stop-color="#4F52FF"/>
<stop offset="1" stop-color="#4042E2"/>
</linearGradient>
<linearGradient id="paint28_linear" x1="85.4373" y1="165.42" x2="84.6683" y2="145.298" gradientUnits="userSpaceOnUse">
<stop stop-color="#4F52FF"/>
<stop offset="1" stop-color="#4042E2"/>
</linearGradient>
<linearGradient id="paint29_linear" x1="91.9416" y1="40.8628" x2="97.0903" y2="113.475" gradientUnits="userSpaceOnUse">
<stop stop-color="#4F52FF"/>
<stop offset="1" stop-color="#4042E2"/>
</linearGradient>
<linearGradient id="paint30_linear" x1="108.996" y1="39.0502" x2="110.022" y2="87.7014" gradientUnits="userSpaceOnUse">
<stop stop-color="#09005D"/>
<stop offset="1" stop-color="#1A0F91"/>
</linearGradient>
<linearGradient id="paint31_linear" x1="82.0171" y1="39.6188" x2="83.0424" y2="88.2699" gradientUnits="userSpaceOnUse">
<stop stop-color="#09005D"/>
<stop offset="1" stop-color="#1A0F91"/>
</linearGradient>
<linearGradient id="paint32_linear" x1="97.1118" y1="56.7534" x2="95.8427" y2="45.9642" gradientUnits="userSpaceOnUse">
<stop stop-color="#FEBBBA"/>
<stop offset="1" stop-color="#FF928E"/>
</linearGradient>
<linearGradient id="paint33_linear" x1="95.4672" y1="44.6746" x2="95.9527" y2="30.7716" gradientUnits="userSpaceOnUse">
<stop stop-color="#FEBBBA"/>
<stop offset="1" stop-color="#FF928E"/>
</linearGradient>
<linearGradient id="paint34_linear" x1="88.9921" y1="44.4486" x2="89.4776" y2="30.5454" gradientUnits="userSpaceOnUse">
<stop stop-color="#FEBBBA"/>
<stop offset="1" stop-color="#FF928E"/>
</linearGradient>
<linearGradient id="paint35_linear" x1="101.907" y1="44.8996" x2="102.393" y2="30.9966" gradientUnits="userSpaceOnUse">
<stop stop-color="#FEBBBA"/>
<stop offset="1" stop-color="#FF928E"/>
</linearGradient>
<linearGradient id="paint36_linear" x1="77.9939" y1="31.594" x2="81.5826" y2="105.715" gradientUnits="userSpaceOnUse">
<stop stop-color="#09005D"/>
<stop offset="1" stop-color="#1A0F91"/>
</linearGradient>
<linearGradient id="paint37_linear" x1="105.941" y1="30.2409" x2="109.53" y2="104.362" gradientUnits="userSpaceOnUse">
<stop stop-color="#09005D"/>
<stop offset="1" stop-color="#1A0F91"/>
</linearGradient>
<linearGradient id="paint38_linear" x1="95.6371" y1="84.7112" x2="91.0761" y2="84.7112" gradientUnits="userSpaceOnUse">
<stop stop-color="#FEBBBA"/>
<stop offset="1" stop-color="#FF928E"/>
</linearGradient>
<linearGradient id="paint39_linear" x1="91.2665" y1="82.4257" x2="100.534" y2="87.0302" gradientUnits="userSpaceOnUse">
<stop stop-color="#FEBBBA"/>
<stop offset="1" stop-color="#FF928E"/>
</linearGradient>
<linearGradient id="paint40_linear" x1="70.8011" y1="110.197" x2="66.7206" y2="110.197" gradientUnits="userSpaceOnUse">
<stop stop-color="#FEBBBA"/>
<stop offset="1" stop-color="#FF928E"/>
</linearGradient>
<linearGradient id="paint41_linear" x1="38.74" y1="44.9315" x2="75.3076" y2="92.8568" gradientUnits="userSpaceOnUse">
<stop stop-color="#E1473D"/>
<stop offset="1" stop-color="#E9605A"/>
</linearGradient>
<linearGradient id="paint42_linear" x1="58.0683" y1="161.189" x2="62.2571" y2="161.189" gradientUnits="userSpaceOnUse">
<stop stop-color="#4F52FF"/>
<stop offset="1" stop-color="#4042E2"/>
</linearGradient>
<linearGradient id="paint43_linear" x1="57.3624" y1="145.979" x2="63.3625" y2="145.979" gradientUnits="userSpaceOnUse">
<stop stop-color="#FEBBBA"/>
<stop offset="1" stop-color="#FF928E"/>
</linearGradient>
<linearGradient id="paint44_linear" x1="55.3953" y1="161.189" x2="50.967" y2="161.189" gradientUnits="userSpaceOnUse">
<stop stop-color="#4F52FF"/>
<stop offset="1" stop-color="#4042E2"/>
</linearGradient>
<linearGradient id="paint45_linear" x1="55.8621" y1="145.979" x2="49.8619" y2="145.979" gradientUnits="userSpaceOnUse">
<stop stop-color="#FEBBBA"/>
<stop offset="1" stop-color="#FF928E"/>
</linearGradient>
<linearGradient id="paint46_linear" x1="67.9608" y1="112.364" x2="46.1567" y2="112.364" gradientUnits="userSpaceOnUse">
<stop stop-color="#09005D"/>
<stop offset="1" stop-color="#1A0F91"/>
</linearGradient>
<linearGradient id="paint47_linear" x1="37.0691" y1="46.2064" x2="73.6367" y2="94.1316" gradientUnits="userSpaceOnUse">
<stop stop-color="#E1473D"/>
<stop offset="1" stop-color="#E9605A"/>
</linearGradient>
<linearGradient id="paint48_linear" x1="63.4481" y1="67.5415" x2="56.9126" y2="48.801" gradientUnits="userSpaceOnUse">
<stop stop-color="#FEBBBA"/>
<stop offset="1" stop-color="#FF928E"/>
</linearGradient>
<linearGradient id="paint49_linear" x1="65.8432" y1="51.9957" x2="52.6984" y2="35.1125" gradientUnits="userSpaceOnUse">
<stop stop-color="#FEBBBA"/>
<stop offset="1" stop-color="#FF928E"/>
</linearGradient>
<linearGradient id="paint50_linear" x1="62.0058" y1="55.1339" x2="48.8289" y2="38.2094" gradientUnits="userSpaceOnUse">
<stop stop-color="#FEBBBA"/>
<stop offset="1" stop-color="#FF928E"/>
</linearGradient>
<linearGradient id="paint51_linear" x1="26.4253" y1="54.3278" x2="62.9929" y2="102.253" gradientUnits="userSpaceOnUse">
<stop stop-color="#E1473D"/>
<stop offset="1" stop-color="#E9605A"/>
</linearGradient>
<linearGradient id="paint52_linear" x1="28.8649" y1="76.0781" x2="68.0328" y2="175.48" gradientUnits="userSpaceOnUse">
<stop stop-color="#4F52FF"/>
<stop offset="1" stop-color="#4042E2"/>
</linearGradient>
<linearGradient id="paint53_linear" x1="51.745" y1="95.5478" x2="46.5033" y2="95.5478" gradientUnits="userSpaceOnUse">
<stop stop-color="#FEBBBA"/>
<stop offset="1" stop-color="#FF928E"/>
</linearGradient>
<clipPath id="clip0">
<rect width="163" height="164" fill="white"/>
</clipPath>
</defs>
</svg>
