<svg width="297" height="155" viewBox="0 0 297 155" fill="none" xmlns="http://www.w3.org/2000/svg">
<path d="M181.736 115.333L184.386 115.766C184.592 115.8 184.787 115.891 184.936 116.017C185.085 116.142 185.2 116.313 185.246 116.495C185.257 116.552 185.269 116.609 185.269 116.666C185.269 116.723 185.269 116.768 185.257 116.825L179.155 153.531C179.075 154.009 178.582 154.328 178.043 154.26C178.02 154.26 178.008 154.26 177.985 154.248L175.336 153.816C175.313 153.816 175.301 153.804 175.278 153.804C174.739 153.69 174.372 153.235 174.452 152.756L180.555 116.051C180.566 115.994 180.578 115.948 180.601 115.891C180.623 115.834 180.646 115.789 180.681 115.732C180.784 115.572 180.945 115.447 181.128 115.379C181.312 115.322 181.518 115.299 181.736 115.333Z" fill="#FFB93E"/>
<path d="M182.412 133.954L179.143 153.611C179.074 154.032 178.581 154.305 178.042 154.248C178.019 154.248 178.007 154.248 177.984 154.237L175.335 153.804C175.312 153.804 175.3 153.793 175.277 153.793C174.738 153.679 174.371 153.269 174.44 152.848L177.307 135.605C178.741 135.559 180.76 135.229 182.412 133.954Z" fill="#FFA412"/>
<path d="M179.97 119.643L179.9 120.059L184.597 120.829L184.666 120.414L179.97 119.643Z" fill="#FFA412"/>
<path d="M179.733 121.043L179.664 121.459L184.361 122.228L184.43 121.812L179.733 121.043Z" fill="#FFA412"/>
<path d="M179.452 122.754L179.383 123.17L184.08 123.94L184.149 123.524L179.452 122.754Z" fill="#FFA412"/>
<path d="M179.027 125.335L178.958 125.75L183.655 126.52L183.724 126.104L179.027 125.335Z" fill="#FFA412"/>
<path d="M178.569 128.066L178.5 128.482L183.196 129.252L183.265 128.836L178.569 128.066Z" fill="#FFA412"/>
<path d="M177.863 132.283L177.794 132.699L182.491 133.467L182.56 133.051L177.863 132.283Z" fill="#FFA412"/>
<path d="M177.214 136.23L177.145 136.646L181.841 137.417L181.911 137.001L177.214 136.23Z" fill="#FFA412"/>
<path d="M176.633 139.735L176.563 140.15L181.26 140.92L181.329 140.504L176.633 139.735Z" fill="#FFA412"/>
<path d="M180.187 118.295L180.118 118.711L184.815 119.48L184.884 119.064L180.187 118.295Z" fill="#FFA412"/>
<path d="M180.335 117.397L180.266 117.812L184.963 118.582L185.032 118.166L180.335 117.397Z" fill="#FFA412"/>
<path d="M180.481 116.542L180.412 116.958L185.109 117.727L185.178 117.311L180.481 116.542Z" fill="#FFA412"/>
<path d="M180.52 116.324L185.211 117.087L185.257 116.825C185.268 116.768 185.268 116.723 185.268 116.666L180.611 115.903C180.588 115.948 180.577 116.005 180.565 116.062L180.52 116.324Z" fill="#FFA412"/>
<path d="M180.68 115.755L185.233 116.495C185.188 116.313 185.073 116.142 184.924 116.016L181.127 115.402C180.944 115.47 180.783 115.595 180.68 115.755Z" fill="#FFA412"/>
<path d="M186.542 115.333L189.192 115.766C189.398 115.8 189.593 115.891 189.742 116.017C189.891 116.142 190.006 116.313 190.052 116.495C190.064 116.552 190.075 116.609 190.075 116.666C190.075 116.723 190.075 116.768 190.064 116.825L183.961 153.531C183.881 154.009 183.388 154.328 182.849 154.26C182.826 154.26 182.814 154.26 182.791 154.248L180.142 153.816C180.119 153.816 180.107 153.804 180.084 153.804C179.545 153.69 179.19 153.235 179.259 152.756L185.361 116.051C185.372 115.994 185.384 115.948 185.407 115.891C185.43 115.834 185.452 115.789 185.487 115.732C185.59 115.572 185.751 115.447 185.934 115.379C186.129 115.322 186.336 115.299 186.542 115.333Z" fill="#FFB93E"/>
<path d="M187.218 133.954L183.949 153.611C183.88 154.032 183.387 154.305 182.848 154.248C182.825 154.248 182.813 154.248 182.79 154.237L180.141 153.804C180.118 153.804 180.106 153.793 180.083 153.793C179.544 153.679 179.177 153.269 179.246 152.848L182.114 135.605C183.547 135.559 185.566 135.229 187.218 133.954Z" fill="#FFA412"/>
<path d="M184.778 119.646L184.709 120.061L189.405 120.832L189.475 120.417L184.778 119.646Z" fill="#FFA412"/>
<path d="M184.546 121.05L184.477 121.466L189.174 122.235L189.243 121.819L184.546 121.05Z" fill="#FFA412"/>
<path d="M184.261 122.757L184.191 123.173L188.888 123.943L188.957 123.527L184.261 122.757Z" fill="#FFA412"/>
<path d="M183.833 125.322L183.764 125.738L188.461 126.507L188.53 126.091L183.833 125.322Z" fill="#FFA412"/>
<path d="M183.377 128.069L183.308 128.485L188.005 129.254L188.074 128.838L183.377 128.069Z" fill="#FFA412"/>
<path d="M182.671 132.3L182.602 132.716L187.298 133.486L187.367 133.07L182.671 132.3Z" fill="#FFA412"/>
<path d="M182.019 136.214L181.95 136.63L186.647 137.399L186.716 136.983L182.019 136.214Z" fill="#FFA412"/>
<path d="M181.437 139.733L181.368 140.149L186.064 140.918L186.134 140.502L181.437 139.733Z" fill="#FFA412"/>
<path d="M184.997 118.301L184.928 118.717L189.625 119.487L189.694 119.071L184.997 118.301Z" fill="#FFA412"/>
<path d="M185.152 117.404L185.083 117.82L189.779 118.588L189.848 118.172L185.152 117.404Z" fill="#FFA412"/>
<path d="M185.289 116.545L185.22 116.961L189.917 117.73L189.986 117.314L185.289 116.545Z" fill="#FFA412"/>
<path d="M185.325 116.324L190.017 117.087L190.062 116.825C190.074 116.768 190.074 116.723 190.074 116.666L185.417 115.903C185.394 115.948 185.383 116.005 185.371 116.062L185.325 116.324Z" fill="#FFA412"/>
<path d="M185.497 115.755L190.051 116.495C190.005 116.313 189.89 116.142 189.741 116.016L185.944 115.402C185.761 115.47 185.6 115.595 185.497 115.755Z" fill="#FFA412"/>
<path d="M168.958 150.57V153.235C168.958 153.451 168.901 153.645 168.798 153.804C168.695 153.975 168.545 154.112 168.373 154.191C168.316 154.214 168.27 154.237 168.213 154.248C168.155 154.26 168.11 154.26 168.052 154.26L130.59 154.169C130.108 154.169 129.707 153.736 129.684 153.189C129.684 153.166 129.684 153.155 129.684 153.132V150.467C129.684 150.445 129.684 150.433 129.684 150.41C129.707 149.875 130.108 149.431 130.59 149.442L168.052 149.533C168.11 149.533 168.155 149.545 168.213 149.545C168.27 149.556 168.327 149.579 168.373 149.602C168.545 149.681 168.695 149.818 168.798 149.989C168.901 150.16 168.958 150.353 168.958 150.57Z" fill="#FFB93E"/>
<path d="M150.547 154.227L130.474 154.181C130.038 154.181 129.694 153.748 129.671 153.202C129.671 153.179 129.671 153.168 129.671 153.145V150.48C129.671 150.457 129.671 150.446 129.671 150.423C129.694 149.888 130.05 149.443 130.486 149.455L148.093 149.5C148.368 150.89 149.022 152.814 150.547 154.227Z" fill="#FFA412"/>
<path d="M163.978 149.529L163.967 154.255L164.391 154.256L164.403 149.53L163.978 149.529Z" fill="#FFA412"/>
<path d="M162.528 149.518L162.517 154.244L162.941 154.245L162.953 149.519L162.528 149.518Z" fill="#FFA412"/>
<path d="M160.805 149.517L160.792 154.244L161.217 154.245L161.229 149.519L160.805 149.517Z" fill="#FFA412"/>
<path d="M158.15 149.512L158.139 154.238L158.563 154.239L158.574 149.513L158.15 149.512Z" fill="#FFA412"/>
<path d="M155.355 149.502L155.344 154.229L155.768 154.23L155.78 149.503L155.355 149.502Z" fill="#FFA412"/>
<path d="M151.059 149.499L151.048 154.225L151.472 154.226L151.484 149.5L151.059 149.499Z" fill="#FFA412"/>
<path d="M147.036 149.483L147.025 154.209L147.449 154.21L147.461 149.484L147.036 149.483Z" fill="#FFA412"/>
<path d="M143.443 149.474L143.431 154.2L143.855 154.201L143.868 149.475L143.443 149.474Z" fill="#FFA412"/>
<path d="M165.346 149.528L165.335 154.254L165.759 154.255L165.771 149.529L165.346 149.528Z" fill="#FFA412"/>
<path d="M166.25 149.53L166.24 154.256L166.664 154.257L166.674 149.531L166.25 149.53Z" fill="#FFA412"/>
<path d="M167.124 149.535L167.112 154.262L167.537 154.263L167.548 149.536L167.124 149.535Z" fill="#FFA412"/>
<path d="M167.787 149.545L167.775 154.271H168.039C168.097 154.271 168.142 154.271 168.2 154.26L168.211 149.568C168.154 149.556 168.108 149.556 168.051 149.556L167.787 149.545Z" fill="#FFA412"/>
<path d="M168.372 149.613L168.36 154.203C168.532 154.123 168.682 153.986 168.785 153.816L168.796 150C168.693 149.818 168.544 149.681 168.372 149.613Z" fill="#FFA412"/>
<path d="M164.954 145.832V148.497C164.954 148.713 164.897 148.907 164.793 149.066C164.69 149.237 164.541 149.374 164.369 149.454C164.312 149.476 164.266 149.499 164.208 149.511C164.151 149.522 164.105 149.522 164.048 149.522L126.586 149.431C126.104 149.431 125.703 148.998 125.68 148.451C125.68 148.429 125.68 148.417 125.68 148.395V145.73C125.68 145.707 125.68 145.695 125.68 145.673C125.703 145.126 126.104 144.693 126.586 144.705L164.048 144.796C164.071 144.796 164.094 144.796 164.117 144.796C164.128 144.796 164.14 144.796 164.151 144.796C164.162 144.796 164.174 144.796 164.185 144.796C164.197 144.796 164.197 144.796 164.208 144.796C164.266 144.807 164.323 144.83 164.369 144.853C164.38 144.853 164.38 144.864 164.392 144.864C164.403 144.864 164.403 144.875 164.415 144.875C164.426 144.887 164.449 144.887 164.461 144.898C164.472 144.898 164.484 144.91 164.484 144.91C164.495 144.91 164.495 144.921 164.507 144.921C164.518 144.932 164.53 144.944 164.552 144.955C164.564 144.967 164.587 144.978 164.598 144.989C164.61 145.001 164.621 145.012 164.633 145.023C164.644 145.035 164.644 145.035 164.656 145.046C164.679 145.069 164.702 145.092 164.725 145.126C164.736 145.137 164.736 145.137 164.747 145.149C164.759 145.16 164.759 145.16 164.77 145.172C164.782 145.183 164.793 145.206 164.805 145.228C164.897 145.422 164.954 145.627 164.954 145.832Z" fill="#FFB93E"/>
<path d="M146.556 149.489L126.483 149.443C126.047 149.443 125.703 149.011 125.68 148.464C125.68 148.441 125.68 148.43 125.68 148.407V145.742C125.68 145.719 125.68 145.708 125.68 145.685C125.703 145.138 126.058 144.706 126.494 144.717L144.101 144.763C144.112 144.797 144.112 144.842 144.124 144.877C144.411 146.255 145.076 148.111 146.556 149.489Z" fill="#FFA412"/>
<path d="M159.976 144.791L159.965 149.517L160.389 149.518L160.4 144.792L159.976 144.791Z" fill="#FFA412"/>
<path d="M158.539 144.791L158.527 149.518L158.952 149.519L158.963 144.792L158.539 144.791Z" fill="#FFA412"/>
<path d="M156.802 144.791L156.791 149.517L157.215 149.518L157.227 144.792L156.802 144.791Z" fill="#FFA412"/>
<path d="M154.159 144.785L154.148 149.511L154.572 149.512L154.584 144.786L154.159 144.785Z" fill="#FFA412"/>
<path d="M151.353 144.776L151.343 149.502L151.767 149.503L151.777 144.777L151.353 144.776Z" fill="#FFA412"/>
<path d="M147.058 144.761L147.045 149.487L147.47 149.488L147.482 144.762L147.058 144.761Z" fill="#FFA412"/>
<path d="M143.046 144.756L143.035 149.483L143.459 149.484L143.47 144.757L143.046 144.756Z" fill="#FFA412"/>
<path d="M139.451 144.748L139.441 149.474L139.866 149.475L139.876 144.748L139.451 144.748Z" fill="#FFA412"/>
<path d="M161.345 144.801L161.333 149.527L161.758 149.528L161.769 144.802L161.345 144.801Z" fill="#FFA412"/>
<path d="M162.249 144.803L162.238 149.53L162.662 149.531L162.673 144.804L162.249 144.803Z" fill="#FFA412"/>
<path d="M163.134 144.797L163.123 149.524L163.547 149.525L163.558 144.798L163.134 144.797Z" fill="#FFA412"/>
<path d="M163.784 144.807L163.772 149.533H164.036C164.094 149.533 164.14 149.533 164.197 149.522L164.208 144.83C164.151 144.818 164.105 144.818 164.048 144.818L163.784 144.807Z" fill="#FFA412"/>
<path d="M164.38 144.875L164.369 149.465C164.541 149.385 164.69 149.249 164.793 149.078L164.805 145.263C164.701 145.092 164.552 144.955 164.38 144.875Z" fill="#FFA412"/>
<path d="M166.904 141.231V143.896C166.904 144.112 166.846 144.306 166.743 144.465C166.64 144.636 166.491 144.773 166.319 144.853C166.261 144.875 166.216 144.898 166.158 144.91C166.101 144.921 166.055 144.921 165.998 144.921L128.536 144.83C128.387 144.83 128.238 144.784 128.123 144.716C127.859 144.557 127.664 144.26 127.641 143.907C127.641 143.896 127.641 143.873 127.641 143.862C127.641 143.839 127.641 143.828 127.641 143.805V141.14C127.641 141.117 127.641 141.106 127.641 141.083C127.664 140.548 128.066 140.104 128.547 140.115L166.009 140.206C166.066 140.206 166.112 140.217 166.17 140.217C166.227 140.229 166.284 140.252 166.33 140.274C166.502 140.354 166.651 140.491 166.755 140.662C166.846 140.821 166.904 141.026 166.904 141.231Z" fill="#FFB93E"/>
<path d="M148.494 144.887L128.421 144.841C128.283 144.841 128.157 144.796 128.054 144.727C127.813 144.568 127.653 144.272 127.618 143.919C127.618 143.907 127.618 143.885 127.618 143.873C127.618 143.85 127.618 143.839 127.618 143.816V141.151C127.618 141.129 127.618 141.117 127.618 141.094C127.641 140.559 127.997 140.115 128.433 140.126L146.039 140.172C146.315 141.527 146.934 143.384 148.368 144.784C148.414 144.807 148.46 144.853 148.494 144.887Z" fill="#FFA412"/>
<path d="M167.81 136.516V139.181C167.81 139.397 167.753 139.591 167.649 139.751C167.546 139.921 167.397 140.058 167.225 140.138C167.168 140.161 167.122 140.183 167.064 140.195C167.007 140.206 166.961 140.206 166.904 140.206L129.442 140.115C128.96 140.115 128.559 139.682 128.536 139.136C128.536 139.113 128.536 139.101 128.536 139.079V136.414C128.536 136.391 128.536 136.38 128.536 136.357C128.559 135.856 128.903 135.446 129.339 135.389C129.373 135.389 129.407 135.377 129.442 135.377L166.904 135.468C166.961 135.468 167.007 135.48 167.064 135.48C167.122 135.491 167.179 135.514 167.225 135.537C167.397 135.616 167.546 135.753 167.649 135.924C167.753 136.106 167.81 136.3 167.81 136.516Z" fill="#FFB93E"/>
<path d="M149.4 140.161L129.327 140.115C128.891 140.115 128.547 139.682 128.524 139.136C128.524 139.113 128.524 139.101 128.524 139.079V136.414C128.524 136.391 128.524 136.38 128.524 136.357C128.547 135.856 128.857 135.446 129.236 135.389C129.27 135.389 129.293 135.377 129.327 135.377L146.934 135.423C146.934 135.423 146.934 135.423 146.934 135.434C147.233 136.835 147.886 138.76 149.4 140.161Z" fill="#FFA412"/>
<path d="M165.057 131.79V134.455C165.057 134.671 165 134.865 164.897 135.024C164.793 135.195 164.644 135.332 164.472 135.411C164.415 135.434 164.369 135.457 164.312 135.468C164.289 135.468 164.277 135.48 164.254 135.48C164.243 135.48 164.231 135.48 164.22 135.48C164.208 135.48 164.197 135.48 164.185 135.48C164.174 135.48 164.151 135.48 164.14 135.48L126.678 135.389C126.196 135.389 125.794 134.956 125.771 134.409C125.771 134.386 125.771 134.375 125.771 134.352V131.687C125.771 131.665 125.771 131.653 125.771 131.63C125.771 131.619 125.771 131.596 125.771 131.585C125.806 131.152 126.093 130.788 126.448 130.685C126.46 130.685 126.471 130.685 126.471 130.674C126.54 130.662 126.597 130.651 126.666 130.651L164.128 130.742C164.151 130.742 164.185 130.742 164.208 130.742C164.22 130.742 164.231 130.742 164.243 130.742C164.254 130.742 164.266 130.742 164.289 130.753C164.346 130.765 164.403 130.788 164.449 130.81C164.621 130.89 164.77 131.027 164.874 131.198C165 131.38 165.057 131.573 165.057 131.79Z" fill="#FFB93E"/>
<path d="M146.659 135.446L126.586 135.4C126.15 135.4 125.806 134.967 125.783 134.421C125.783 134.398 125.783 134.386 125.783 134.364V131.699C125.783 131.676 125.783 131.665 125.783 131.642C125.783 131.63 125.783 131.608 125.783 131.596C125.818 131.152 126.081 130.788 126.414 130.697C126.426 130.697 126.437 130.685 126.448 130.685C126.494 130.674 126.54 130.674 126.586 130.674L144.193 130.719C144.193 130.731 144.193 130.742 144.204 130.753C144.491 132.131 145.145 134.033 146.659 135.446C146.659 135.434 146.659 135.446 146.659 135.446Z" fill="#FFA412"/>
<path d="M164.989 127.098V129.763C164.989 129.979 164.931 130.173 164.828 130.332C164.725 130.503 164.576 130.64 164.404 130.719C164.358 130.742 164.323 130.753 164.277 130.765C164.266 130.765 164.254 130.776 164.243 130.776C164.186 130.788 164.14 130.788 164.082 130.788L126.621 130.697C126.586 130.697 126.54 130.697 126.506 130.685C126.494 130.685 126.471 130.685 126.46 130.674C126.047 130.594 125.737 130.195 125.714 129.717C125.714 129.694 125.714 129.683 125.714 129.66V126.995C125.714 126.972 125.714 126.961 125.714 126.938C125.737 126.392 126.139 125.959 126.621 125.97L164.082 126.061C164.105 126.061 164.128 126.061 164.151 126.061C164.163 126.061 164.174 126.061 164.186 126.061C164.197 126.061 164.209 126.061 164.22 126.061C164.231 126.061 164.231 126.061 164.243 126.061C164.3 126.073 164.358 126.096 164.404 126.118C164.415 126.118 164.415 126.13 164.426 126.13C164.438 126.13 164.438 126.141 164.449 126.141C164.461 126.152 164.484 126.152 164.495 126.164C164.507 126.175 164.53 126.187 164.541 126.198C164.553 126.209 164.564 126.221 164.587 126.232C164.599 126.244 164.621 126.255 164.633 126.266C164.644 126.278 164.656 126.289 164.667 126.3C164.679 126.312 164.679 126.312 164.69 126.323C164.713 126.346 164.736 126.369 164.759 126.403C164.771 126.414 164.771 126.414 164.782 126.426C164.794 126.437 164.794 126.437 164.805 126.449C164.816 126.46 164.828 126.483 164.839 126.505C164.931 126.688 164.989 126.893 164.989 127.098Z" fill="#FFB93E"/>
<path d="M146.59 130.753L126.517 130.708C126.506 130.708 126.483 130.708 126.471 130.708C126.448 130.708 126.437 130.708 126.414 130.697C126.024 130.64 125.726 130.23 125.703 129.728C125.703 129.706 125.703 129.694 125.703 129.672V127.007C125.703 126.984 125.703 126.972 125.703 126.95C125.726 126.403 126.081 125.97 126.517 125.982L144.124 126.027C144.135 126.061 144.135 126.107 144.147 126.141C144.434 127.508 145.087 129.353 146.544 130.719C146.567 130.731 146.579 130.742 146.59 130.753Z" fill="#FFA412"/>
<path d="M166.939 122.497V125.162C166.939 125.378 166.881 125.572 166.778 125.731C166.675 125.902 166.526 126.039 166.354 126.118C166.296 126.141 166.25 126.164 166.193 126.175C166.136 126.187 166.09 126.187 166.032 126.187L128.57 126.095C128.421 126.095 128.272 126.05 128.158 125.982C127.894 125.822 127.699 125.526 127.676 125.173C127.676 125.162 127.676 125.139 127.676 125.127C127.676 125.105 127.676 125.093 127.676 125.071V122.406C127.676 122.383 127.676 122.371 127.676 122.349C127.699 121.802 128.1 121.369 128.582 121.381L166.044 121.472C166.101 121.472 166.147 121.483 166.204 121.483C166.262 121.494 166.319 121.517 166.365 121.54C166.537 121.62 166.686 121.756 166.789 121.927C166.881 122.087 166.939 122.292 166.939 122.497Z" fill="#FFB93E"/>
<path d="M148.528 126.152L128.455 126.107C128.318 126.107 128.191 126.061 128.088 125.993C127.847 125.834 127.687 125.537 127.652 125.184C127.652 125.173 127.652 125.15 127.652 125.139C127.652 125.116 127.652 125.105 127.652 125.082V122.417C127.652 122.394 127.652 122.383 127.652 122.36C127.675 121.813 128.031 121.381 128.467 121.392L146.074 121.438C146.349 122.793 146.968 124.649 148.402 126.05C148.448 126.073 148.494 126.107 148.528 126.152Z" fill="#FFA412"/>
<path d="M170.001 117.782V120.447C170.001 120.663 169.944 120.857 169.84 121.016C169.737 121.187 169.588 121.324 169.416 121.403C169.359 121.426 169.313 121.449 169.255 121.46C169.198 121.472 169.152 121.472 169.095 121.472L131.633 121.381C131.151 121.381 130.75 120.948 130.727 120.401C130.727 120.378 130.727 120.367 130.727 120.344V117.679C130.727 117.656 130.727 117.645 130.727 117.622C130.75 117.121 131.094 116.711 131.529 116.654C131.564 116.654 131.598 116.643 131.633 116.643L169.095 116.734C169.152 116.734 169.198 116.745 169.255 116.745C169.313 116.757 169.37 116.78 169.416 116.802C169.588 116.882 169.737 117.019 169.84 117.19C169.955 117.372 170.001 117.565 170.001 117.782Z" fill="#FFB93E"/>
<path d="M151.602 121.438L131.529 121.392C131.094 121.392 130.75 120.959 130.727 120.413C130.727 120.39 130.727 120.378 130.727 120.356V117.691C130.727 117.668 130.727 117.656 130.727 117.634C130.75 117.133 131.059 116.723 131.438 116.666C131.472 116.666 131.507 116.654 131.529 116.654L149.136 116.7C149.136 116.7 149.136 116.7 149.136 116.711C149.423 118.101 150.077 120.025 151.602 121.438Z" fill="#FFA412"/>
<path d="M165.091 113.055V115.72C165.091 115.937 165.034 116.13 164.931 116.29C164.828 116.461 164.678 116.597 164.506 116.677C164.449 116.7 164.403 116.723 164.346 116.734C164.323 116.734 164.311 116.745 164.288 116.745C164.277 116.745 164.266 116.745 164.243 116.745C164.231 116.745 164.231 116.745 164.22 116.745C164.208 116.745 164.185 116.745 164.174 116.745L126.712 116.654C126.23 116.654 125.829 116.222 125.806 115.675C125.806 115.652 125.806 115.641 125.806 115.618V112.953C125.806 112.93 125.806 112.919 125.806 112.896C125.829 112.361 126.23 111.917 126.712 111.928L164.174 112.019C164.185 112.019 164.208 112.019 164.22 112.019C164.254 112.019 164.3 112.03 164.334 112.03C164.392 112.042 164.449 112.065 164.495 112.087C164.518 112.099 164.552 112.11 164.575 112.133C164.587 112.144 164.61 112.156 164.621 112.167C164.633 112.179 164.655 112.19 164.667 112.201C164.667 112.201 164.667 112.201 164.678 112.201C164.69 112.213 164.701 112.224 164.724 112.235C164.759 112.258 164.782 112.292 164.816 112.327C164.828 112.338 164.839 112.349 164.839 112.361C164.839 112.372 164.85 112.372 164.85 112.384C164.862 112.395 164.873 112.406 164.873 112.418C164.885 112.44 164.896 112.452 164.908 112.475C165.034 112.645 165.091 112.839 165.091 113.055Z" fill="#FFB93E"/>
<path d="M146.693 116.711L126.62 116.666C126.184 116.666 125.84 116.233 125.817 115.686C125.817 115.663 125.817 115.652 125.817 115.629V112.964C125.817 112.942 125.817 112.93 125.817 112.907C125.84 112.372 126.196 111.928 126.632 111.939L144.239 111.985C144.25 112.019 144.25 112.053 144.262 112.099C144.548 113.465 145.202 115.322 146.693 116.711C146.682 116.7 146.693 116.7 146.693 116.711Z" fill="#FFA412"/>
<path d="M167.856 108.443V111.108C167.856 111.324 167.799 111.518 167.696 111.677C167.592 111.848 167.443 111.985 167.271 112.065C167.214 112.087 167.168 112.11 167.111 112.122C167.053 112.133 167.007 112.133 166.95 112.133L129.488 112.042C129.339 112.042 129.201 111.996 129.086 111.928C128.811 111.769 128.616 111.461 128.593 111.108C128.593 111.097 128.593 111.085 128.593 111.062C128.593 111.04 128.593 111.028 128.593 111.005V108.341C128.593 108.318 128.593 108.306 128.593 108.284C128.616 107.782 128.96 107.372 129.396 107.316C129.431 107.316 129.465 107.304 129.499 107.304L166.961 107.395C167.019 107.395 167.065 107.407 167.122 107.407C167.179 107.418 167.237 107.441 167.283 107.464C167.455 107.543 167.604 107.68 167.707 107.851C167.799 108.033 167.856 108.238 167.856 108.443Z" fill="#FFB93E"/>
<path d="M149.458 112.099L129.385 112.053C129.259 112.053 129.133 112.019 129.029 111.939C128.788 111.78 128.616 111.472 128.582 111.119C128.582 111.108 128.582 111.097 128.582 111.074C128.582 111.051 128.582 111.04 128.582 111.017V108.352C128.582 108.329 128.582 108.318 128.582 108.295C128.605 107.794 128.915 107.384 129.293 107.327C129.328 107.327 129.351 107.316 129.385 107.316L146.992 107.361C146.992 107.361 146.992 107.361 146.992 107.372C147.267 108.728 147.887 110.584 149.332 111.985C149.378 112.03 149.412 112.065 149.458 112.099Z" fill="#FFA412"/>
<path d="M165.115 103.728V106.393C165.115 106.609 165.057 106.803 164.954 106.963C164.851 107.133 164.702 107.27 164.53 107.35C164.472 107.372 164.427 107.395 164.369 107.407C164.346 107.407 164.335 107.418 164.312 107.418C164.3 107.418 164.289 107.418 164.277 107.418C164.266 107.418 164.255 107.418 164.243 107.418C164.232 107.418 164.209 107.418 164.197 107.418L126.735 107.327C126.254 107.327 125.852 106.894 125.829 106.348C125.829 106.325 125.829 106.313 125.829 106.291V103.626C125.829 103.603 125.829 103.591 125.829 103.569C125.852 103.033 126.254 102.589 126.735 102.601L164.197 102.692C164.255 102.692 164.3 102.703 164.358 102.703C164.415 102.715 164.472 102.737 164.518 102.76C164.69 102.84 164.84 102.976 164.943 103.147C165.057 103.318 165.115 103.512 165.115 103.728Z" fill="#FFB93E"/>
<path d="M146.705 107.373L126.632 107.327C126.196 107.327 125.852 106.894 125.829 106.348C125.829 106.325 125.829 106.313 125.829 106.291V103.626C125.829 103.603 125.829 103.591 125.829 103.569C125.852 103.033 126.208 102.589 126.643 102.601L144.25 102.646C144.537 104.036 145.179 105.96 146.705 107.373Z" fill="#FFA412"/>
<path d="M161.921 140.194L161.91 144.921L162.335 144.922L162.346 140.195L161.921 140.194Z" fill="#FFA412"/>
<path d="M160.483 140.184L160.473 144.91L160.898 144.911L160.908 140.184L160.483 140.184Z" fill="#FFA412"/>
<path d="M158.747 140.183L158.737 144.909L159.162 144.91L159.172 140.184L158.747 140.183Z" fill="#FFA412"/>
<path d="M156.105 140.177L156.094 144.903L156.518 144.904L156.529 140.178L156.105 140.177Z" fill="#FFA412"/>
<path d="M153.299 140.168L153.288 144.894L153.712 144.895L153.723 140.169L153.299 140.168Z" fill="#FFA412"/>
<path d="M149.003 140.164L148.992 144.891L149.416 144.892L149.427 140.165L149.003 140.164Z" fill="#FFA412"/>
<path d="M144.979 140.149L144.969 144.875L145.394 144.876L145.404 140.149L144.979 140.149Z" fill="#FFA412"/>
<path d="M141.398 140.14L141.386 144.866L141.811 144.867L141.822 140.141L141.398 140.14Z" fill="#FFA412"/>
<path d="M163.29 140.193L163.279 144.919L163.703 144.92L163.714 140.194L163.29 140.193Z" fill="#FFA412"/>
<path d="M164.194 140.195L164.184 144.922L164.608 144.923L164.618 140.196L164.194 140.195Z" fill="#FFA412"/>
<path d="M165.079 140.201L165.068 144.927L165.492 144.928L165.504 140.202L165.079 140.201Z" fill="#FFA412"/>
<path d="M165.734 140.206L165.723 144.932H165.987C166.044 144.932 166.09 144.932 166.147 144.921L166.159 140.229C166.101 140.217 166.055 140.217 165.998 140.217L165.734 140.206Z" fill="#FFA412"/>
<path d="M166.319 140.274L166.308 144.864C166.48 144.784 166.629 144.648 166.732 144.477L166.743 140.662C166.64 140.491 166.491 140.354 166.319 140.274Z" fill="#FFA412"/>
<path d="M149.915 135.443L149.904 140.169L150.328 140.17L150.34 135.444L149.915 135.443Z" fill="#FFA412"/>
<path d="M145.892 135.427L145.881 140.153L146.305 140.154L146.316 135.428L145.892 135.427Z" fill="#FFA412"/>
<path d="M142.298 135.418L142.287 140.144L142.711 140.145L142.723 135.419L142.298 135.418Z" fill="#FFA412"/>
<path d="M164.61 140.206L164.622 135.48H164.243C164.266 135.48 164.277 135.48 164.3 135.468L164.312 130.776C164.289 130.776 164.254 130.765 164.232 130.765L164.243 126.187H164.404L164.392 130.719C164.564 130.64 164.713 130.503 164.817 130.332L164.828 126.517C164.748 126.369 164.622 126.255 164.495 126.175H164.644L164.656 121.449H164.232L164.22 126.073C164.174 126.061 164.128 126.061 164.082 126.061H163.819L163.807 130.788H163.887L163.876 135.48H164.14C164.151 135.48 164.174 135.48 164.186 135.48L164.174 140.195L164.61 140.206Z" fill="#FFA412"/>
<path d="M165.107 135.474L165.096 140.2L165.52 140.201L165.531 135.475L165.107 135.474Z" fill="#FFA412"/>
<path d="M165.981 135.479L165.968 140.206L166.393 140.207L166.405 135.48L165.981 135.479Z" fill="#FFA412"/>
<path d="M166.64 135.48L166.628 140.206H166.892C166.95 140.206 166.995 140.206 167.053 140.195L167.064 135.503C167.007 135.491 166.961 135.491 166.904 135.491L166.64 135.48Z" fill="#FFA412"/>
<path d="M167.225 135.548L167.214 140.138C167.386 140.058 167.535 139.921 167.638 139.751L167.65 135.935C167.547 135.764 167.397 135.628 167.225 135.548Z" fill="#FFA412"/>
<path d="M160.492 135.48L160.504 130.753H160.424L160.435 126.061H160.011L159.999 130.788H160.079L160.068 135.468H159.655L159.644 140.195H160.068L160.079 135.48H160.492Z" fill="#FFA412"/>
<path d="M157.338 130.742H157.257L157.269 126.05H156.844L156.833 130.776H156.913L156.902 135.468H157.005L156.994 140.183H157.418L157.429 135.457H157.326L157.338 130.742Z" fill="#FFA412"/>
<path d="M164.484 130.833L164.472 135.423C164.644 135.343 164.793 135.206 164.897 135.036L164.908 131.22C164.805 131.05 164.656 130.913 164.484 130.833Z" fill="#FFA412"/>
<path d="M154.619 126.05H154.195L154.184 130.776H154.264L154.252 135.457H154.207L154.195 140.172L154.619 140.183L154.631 135.457H154.677L154.688 130.742H154.608L154.619 126.05Z" fill="#FFA412"/>
<path d="M151.809 126.039H151.385V130.765H151.454V135.457H151.878L151.89 130.731H151.809V126.039Z" fill="#FFA412"/>
<path d="M147.519 126.027H147.095L147.083 130.753H147.164L147.152 135.446H147.577L147.588 130.719H147.508L147.519 126.027Z" fill="#FFA412"/>
<path d="M143.493 126.027H143.069V130.742H143.138V135.434H143.562L143.574 130.708H143.493V126.027Z" fill="#FFA412"/>
<path d="M139.903 126.016H139.479V130.742H139.547V135.423H139.972L139.983 130.708H139.903V126.016Z" fill="#FFA412"/>
<path d="M161.811 126.061H161.387L161.375 130.788H161.456L161.444 135.468H161.387L161.375 140.195H161.8L161.811 135.48H161.869L161.88 130.753H161.8L161.811 126.061Z" fill="#FFA412"/>
<path d="M162.717 126.073H162.373L162.385 121.46H161.949V126.187H162.293L162.281 130.788H162.362L162.35 135.48H162.775L162.786 130.753H162.706L162.717 126.073Z" fill="#FFA412"/>
<path d="M160.519 121.448L160.508 126.174L160.932 126.175L160.943 121.449L160.519 121.448Z" fill="#FFA412"/>
<path d="M158.772 126.061H158.565L158.554 130.776L158.634 130.788V135.468H159.058V130.753H158.99V126.175H159.196L159.208 121.449H158.783L158.772 126.061Z" fill="#FFA412"/>
<path d="M156.141 121.441L156.129 126.168L156.553 126.169L156.566 121.442L156.141 121.441Z" fill="#FFA412"/>
<path d="M153.335 121.432L153.323 126.159L153.748 126.16L153.759 121.433L153.335 121.432Z" fill="#FFA412"/>
<path d="M149.038 121.429L149.027 126.155L149.452 126.156L149.463 121.43L149.038 121.429Z" fill="#FFA412"/>
<path d="M145.015 121.413L145.005 126.139L145.429 126.14L145.439 121.414L145.015 121.413Z" fill="#FFA412"/>
<path d="M141.433 121.404L141.422 126.13L141.846 126.131L141.858 121.405L141.433 121.404Z" fill="#FFA412"/>
<path d="M163.314 126.073H163.164L163.153 130.788H163.233L163.222 135.48H162.82V140.195H163.245L163.256 135.48H163.646L163.658 130.765H163.577L163.589 126.187H163.738L163.749 121.46H163.325L163.314 126.073Z" fill="#FFA412"/>
<path d="M165.103 121.465L165.092 126.191L165.516 126.192L165.527 121.466L165.103 121.465Z" fill="#FFA412"/>
<path d="M166.181 126.175L166.193 121.483C166.135 121.472 166.089 121.472 166.032 121.472H165.768L165.757 126.198H166.021C166.078 126.198 166.135 126.187 166.181 126.175Z" fill="#FFA412"/>
<path d="M166.778 125.742L166.789 121.927C166.686 121.756 166.537 121.62 166.365 121.54L166.354 126.13C166.526 126.05 166.675 125.913 166.778 125.742Z" fill="#FFA412"/>
<path d="M165.029 116.739L165.018 121.465L165.442 121.466L165.453 116.74L165.029 116.739Z" fill="#FFA412"/>
<path d="M159.201 116.722L159.189 121.448L159.614 121.449L159.625 116.723L159.201 116.722Z" fill="#FFA412"/>
<path d="M156.406 116.724L156.395 121.45L156.819 121.451L156.83 116.725L156.406 116.724Z" fill="#FFA412"/>
<path d="M152.11 116.709L152.099 121.435L152.523 121.436L152.534 116.71L152.11 116.709Z" fill="#FFA412"/>
<path d="M148.086 116.704L148.075 121.43L148.5 121.431L148.511 116.705L148.086 116.704Z" fill="#FFA412"/>
<path d="M144.492 116.695L144.482 121.422L144.907 121.423L144.917 116.696L144.492 116.695Z" fill="#FFA412"/>
<path d="M166.398 116.749L166.386 121.475L166.811 121.476L166.822 116.75L166.398 116.749Z" fill="#FFA412"/>
<path d="M167.301 116.751L167.29 121.477L167.714 121.478L167.726 116.752L167.301 116.751Z" fill="#FFA412"/>
<path d="M168.175 116.745L168.164 121.471L168.588 121.472L168.599 116.746L168.175 116.745Z" fill="#FFA412"/>
<path d="M168.831 116.757L168.82 121.483H169.084C169.141 121.483 169.187 121.483 169.244 121.472L169.256 116.78C169.198 116.768 169.152 116.768 169.095 116.768L168.831 116.757Z" fill="#FFA412"/>
<path d="M169.427 116.825L169.416 121.415C169.588 121.335 169.737 121.198 169.84 121.028L169.852 117.212C169.749 117.041 169.6 116.905 169.427 116.825Z" fill="#FFA412"/>
<path d="M160.102 116.734L160.527 116.745L160.538 112.019H160.125L160.137 107.407H160.549L160.561 102.692L160.125 102.68V107.407L159.712 107.395L159.701 112.122H160.114L160.102 116.734Z" fill="#FFA412"/>
<path d="M158.671 112.011L158.659 116.737L159.083 116.738L159.096 112.012L158.671 112.011Z" fill="#FFA412"/>
<path d="M151.497 111.996L151.486 116.722L151.91 116.723L151.921 111.997L151.497 111.996Z" fill="#FFA412"/>
<path d="M147.201 111.981L147.19 116.707L147.614 116.708L147.626 111.982L147.201 111.981Z" fill="#FFA412"/>
<path d="M143.178 111.976L143.167 116.702L143.591 116.703L143.603 111.977L143.178 111.976Z" fill="#FFA412"/>
<path d="M139.584 111.967L139.573 116.693L139.998 116.694L140.009 111.968L139.584 111.967Z" fill="#FFA412"/>
<path d="M161.479 116.745H161.857L161.846 121.46H162.27L162.282 116.734H161.903L161.915 112.019H161.857V107.418H161.915L161.926 102.692H161.502L161.49 107.407H161.433L161.421 112.133H161.49L161.479 116.745Z" fill="#FFA412"/>
<path d="M162.391 112.023L162.382 116.75L162.807 116.75L162.816 112.024L162.391 112.023Z" fill="#FFA412"/>
<path d="M164.587 112.133H164.668L164.679 107.407H164.3C164.323 107.407 164.335 107.407 164.358 107.395L164.369 102.703C164.312 102.692 164.266 102.692 164.209 102.692H163.945L163.933 107.418H164.197C164.209 107.418 164.232 107.418 164.243 107.418L164.232 112.03C164.22 112.03 164.197 112.03 164.186 112.03H163.922L163.911 116.745H163.681L163.693 112.03H163.291L163.303 107.418H163.704L163.716 102.692H163.291L163.28 107.407H162.878L162.867 112.133H163.268L163.257 116.745H163.578L163.566 121.46H163.991L164.002 116.745H164.174C164.232 116.745 164.278 116.745 164.335 116.734L164.346 112.133H164.507L164.495 116.677C164.668 116.597 164.817 116.461 164.92 116.29L164.931 112.475C164.851 112.338 164.736 112.213 164.587 112.133Z" fill="#FFA412"/>
<path d="M149.959 107.371L149.949 112.098L150.373 112.099L150.383 107.372L149.959 107.371Z" fill="#FFA412"/>
<path d="M145.936 107.367L145.925 112.093L146.349 112.094L146.36 107.368L145.936 107.367Z" fill="#FFA412"/>
<path d="M142.354 107.358L142.343 112.084L142.767 112.085L142.778 107.359L142.354 107.358Z" fill="#FFA412"/>
<path d="M165.151 107.414L165.14 112.14L165.564 112.141L165.575 107.415L165.151 107.414Z" fill="#FFA412"/>
<path d="M166.036 107.408L166.024 112.134L166.449 112.135L166.46 107.409L166.036 107.408Z" fill="#FFA412"/>
<path d="M166.686 107.418L166.674 112.144H166.938C166.995 112.144 167.041 112.144 167.099 112.133L167.11 107.441C167.053 107.429 167.007 107.429 166.95 107.429L166.686 107.418Z" fill="#FFA412"/>
<path d="M167.695 111.689L167.707 107.874C167.604 107.703 167.455 107.566 167.282 107.486L167.271 112.076C167.443 111.996 167.592 111.86 167.695 111.689Z" fill="#FFA412"/>
<path d="M158.69 102.675L158.679 107.401L159.104 107.402L159.115 102.676L158.69 102.675Z" fill="#FFA412"/>
<path d="M157.383 102.68H156.959L156.948 107.407H157.062L157.051 112.008H156.948L156.936 116.734H157.36L157.372 112.122H157.475L157.487 107.395H157.383V102.68Z" fill="#FFA412"/>
<path d="M154.298 107.384H154.252V112.11H154.298L154.287 116.723H154.711L154.723 112.008H154.677V107.395H154.734V102.669H154.31L154.298 107.384Z" fill="#FFA412"/>
<path d="M151.517 102.66L151.506 107.386L151.93 107.387L151.942 102.661L151.517 102.66Z" fill="#FFA412"/>
<path d="M147.221 102.656L147.21 107.382L147.634 107.383L147.646 102.657L147.221 102.656Z" fill="#FFA412"/>
<path d="M143.198 102.64L143.186 107.366L143.61 107.367L143.623 102.641L143.198 102.64Z" fill="#FFA412"/>
<path d="M139.604 102.631L139.594 107.358L140.018 107.359L140.028 102.632L139.604 102.631Z" fill="#FFA412"/>
<path d="M162.413 102.687L162.401 107.413L162.825 107.414L162.838 102.688L162.413 102.687Z" fill="#FFA412"/>
<path d="M164.53 102.76L164.518 107.35C164.69 107.27 164.839 107.133 164.942 106.962L164.954 103.147C164.851 102.976 164.713 102.84 164.53 102.76Z" fill="#FFA412"/>
<path d="M177.021 115.356L179.671 115.823C179.877 115.857 180.072 115.948 180.21 116.073C180.359 116.21 180.474 116.37 180.519 116.552C180.531 116.609 180.542 116.666 180.542 116.723C180.542 116.78 180.542 116.825 180.531 116.882L173.958 153.497C173.878 153.964 173.373 154.282 172.834 154.214C172.811 154.214 172.8 154.214 172.777 154.203L170.127 153.736C170.104 153.736 170.093 153.724 170.07 153.724C169.542 153.611 169.175 153.144 169.267 152.665L175.84 116.051C175.84 116.028 175.851 116.005 175.851 115.982C175.851 115.971 175.851 115.96 175.862 115.948C175.862 115.937 175.874 115.925 175.874 115.914C175.874 115.903 175.874 115.903 175.885 115.891C175.908 115.834 175.931 115.789 175.966 115.743C175.966 115.732 175.977 115.732 175.977 115.72C175.977 115.709 175.989 115.709 175.989 115.698C176 115.686 176.012 115.675 176.023 115.652C176.035 115.641 176.035 115.641 176.046 115.629C176.057 115.618 176.057 115.618 176.069 115.607C176.08 115.595 176.092 115.584 176.103 115.572C176.115 115.561 176.138 115.55 176.149 115.538C176.161 115.527 176.172 115.515 176.184 115.504C176.195 115.493 176.207 115.493 176.207 115.481C176.23 115.458 176.264 115.447 176.298 115.436C176.31 115.436 176.321 115.424 176.321 115.424C176.333 115.424 176.344 115.413 176.344 115.413C176.367 115.402 176.379 115.402 176.402 115.39C176.597 115.345 176.803 115.322 177.021 115.356Z" fill="#FFB93E"/>
<path d="M177.457 133.988L173.935 153.611C173.855 154.032 173.362 154.305 172.823 154.225C172.8 154.225 172.788 154.225 172.765 154.214L170.116 153.747C170.093 153.747 170.081 153.736 170.058 153.736C169.531 153.622 169.152 153.201 169.232 152.779L172.318 135.571C172.352 135.571 172.398 135.571 172.433 135.571C173.878 135.525 175.839 135.195 177.457 133.988Z" fill="#FFA412"/>
<path d="M175.189 119.642L175.115 120.057L179.801 120.888L179.875 120.473L175.189 119.642Z" fill="#FFA412"/>
<path d="M174.94 121.05L174.866 121.465L179.552 122.293L179.627 121.878L174.94 121.05Z" fill="#FFA412"/>
<path d="M174.636 122.725L174.562 123.14L179.248 123.969L179.323 123.554L174.636 122.725Z" fill="#FFA412"/>
<path d="M174.166 125.319L174.092 125.734L178.778 126.563L178.853 126.148L174.166 125.319Z" fill="#FFA412"/>
<path d="M173.68 128.058L173.606 128.473L178.292 129.301L178.367 128.886L173.68 128.058Z" fill="#FFA412"/>
<path d="M172.936 132.259L172.862 132.674L177.548 133.503L177.623 133.089L172.936 132.259Z" fill="#FFA412"/>
<path d="M172.212 136.194L172.137 136.609L176.824 137.437L176.898 137.022L172.212 136.194Z" fill="#FFA412"/>
<path d="M171.596 139.715L171.521 140.13L176.207 140.961L176.282 140.546L171.596 139.715Z" fill="#FFA412"/>
<path d="M175.429 118.29L175.355 118.705L180.041 119.534L180.116 119.119L175.429 118.29Z" fill="#FFA412"/>
<path d="M175.601 117.411L175.526 117.826L180.213 118.655L180.287 118.241L175.601 117.411Z" fill="#FFA412"/>
<path d="M175.743 116.54L175.668 116.955L180.355 117.784L180.429 117.369L175.743 116.54Z" fill="#FFA412"/>
<path d="M175.793 116.324L180.473 117.155L180.519 116.893C180.53 116.836 180.53 116.791 180.53 116.734L175.885 115.914C175.862 115.96 175.85 116.016 175.839 116.062L175.793 116.324Z" fill="#FFA412"/>
<path d="M175.965 115.755L180.508 116.552C180.462 116.37 180.359 116.199 180.198 116.073L176.413 115.402C176.229 115.481 176.069 115.607 175.965 115.755Z" fill="#FFA412"/>
<path d="M259.361 154.737H243.256C242.396 154.008 243.853 152.356 245.378 152.254C246.044 152.208 246.881 152.345 247.833 152.539C248.051 149.612 249.324 136.481 254.084 137.016C259.441 137.608 254.084 142.801 252.57 145.876C251.446 148.154 250.265 151.423 249.726 152.96C250.161 153.051 250.609 153.142 251.068 153.233C251.779 151.07 254.417 143.781 257.789 144.202C261.735 144.703 260.152 147.619 257.353 149.35C255.3 150.625 252.777 152.436 251.584 153.313C252.593 153.473 253.66 153.586 254.727 153.564C257.491 153.507 258.833 154.304 259.361 154.737Z" fill="#82B378"/>
<path d="M56.3881 153.69C55.7457 152.688 53.8187 150.103 51.2609 150.444C48.4736 150.82 54.3464 152.643 56.1472 153.69C55.7457 153.69 55.4016 153.667 55.1493 153.576C53.9449 153.155 51.8917 153.964 51.2265 154.248H62.6738C62.5935 153.975 62.387 153.531 61.8594 153.212C61.6759 153.098 61.2974 153.087 60.8041 153.121C61.4809 152.324 61.9626 149.773 60.0586 150.433C58.6707 150.911 58.6821 152.472 58.8083 153.383C58.5101 153.428 58.2119 153.474 57.9251 153.519C57.3516 150.638 55.3443 142.176 51.2494 141.96C47.1086 141.732 54.7593 150.729 57.3172 153.611C56.996 153.645 56.6863 153.679 56.3881 153.69Z" fill="#82B378"/>
<path d="M169.939 81.881C176.381 75.4854 176.381 65.1162 169.939 58.7207C163.498 52.3252 153.055 52.3252 146.613 58.7207C140.172 65.1162 140.172 75.4854 146.613 81.881C153.055 88.2765 163.498 88.2765 169.939 81.881Z" fill="#E2810E"/>
<path d="M172.971 75.1499C175.285 66.4019 170.018 57.4478 161.207 55.1504C152.397 52.8531 143.378 58.0824 141.065 66.8305C138.751 75.5785 144.018 84.5326 152.828 86.83C161.639 89.1273 170.657 83.898 172.971 75.1499Z" fill="#FFB93E"/>
<path d="M157.131 86.0756C151.832 86.0756 146.682 83.2854 143.952 78.3655C142.014 74.8806 141.566 70.849 142.679 67.0224C143.792 63.1958 146.349 60.0297 149.859 58.105C153.369 56.1804 157.43 55.7362 161.284 56.8409C165.138 57.9456 168.326 60.4853 170.265 63.9702C174.268 71.1792 171.618 80.2674 164.358 84.2307C162.075 85.4834 159.586 86.0756 157.131 86.0756ZM157.086 57.1256C154.734 57.1256 152.406 57.7178 150.284 58.8795C146.98 60.6903 144.583 63.6627 143.528 67.2615C142.484 70.8604 142.908 74.6528 144.732 77.9327C147.301 82.5679 152.142 85.1873 157.131 85.1873C159.437 85.1873 161.765 84.6293 163.933 83.4449C170.758 79.7094 173.247 71.1679 169.485 64.3916C167.661 61.1117 164.667 58.7314 161.043 57.6837C159.735 57.3078 158.405 57.1256 157.086 57.1256Z" fill="#FFA412"/>
<path d="M161.032 73.9581C160.906 73.662 160.757 73.4115 160.584 73.2179C160.401 73.0243 160.183 72.8762 159.908 72.7623C159.632 72.6598 159.323 72.5801 158.944 72.5459C158.577 72.5118 158.141 72.5118 157.637 72.5346C156.765 72.5801 155.962 72.5801 155.228 72.5346C154.494 72.5004 153.817 72.3751 153.221 72.1701C152.624 71.9651 152.096 71.669 151.649 71.259C151.202 70.849 150.823 70.291 150.537 69.5963C150.284 68.9927 150.169 68.3891 150.181 67.8082C150.192 67.216 150.33 66.658 150.571 66.1227C150.823 65.5874 151.179 65.0977 151.649 64.6308C152.119 64.1752 152.681 63.7653 153.358 63.4236L152.418 61.1345L154.276 60.3828L155.228 62.7061C155.928 62.5239 156.604 62.4556 157.258 62.5011C157.912 62.5467 158.508 62.7061 159.059 62.968C159.61 63.2414 160.103 63.6172 160.55 64.1069C160.986 64.5966 161.353 65.2002 161.651 65.9177L158.29 67.273C157.935 66.4188 157.488 65.8494 156.925 65.5761C156.363 65.3027 155.767 65.3027 155.125 65.5647C154.781 65.7013 154.494 65.8722 154.287 66.0772C154.069 66.2708 153.92 66.4872 153.828 66.7263C153.737 66.9655 153.691 67.2046 153.714 67.4666C153.725 67.7285 153.794 67.9905 153.897 68.2524C154.001 68.5143 154.138 68.7421 154.31 68.9243C154.471 69.1066 154.689 69.2546 154.953 69.3571C155.216 69.4596 155.538 69.5279 155.916 69.5621C156.295 69.5963 156.753 69.6077 157.293 69.5849C158.153 69.5621 158.956 69.5735 159.69 69.619C160.424 69.6646 161.089 69.7899 161.686 69.9949C162.282 70.1999 162.81 70.5074 163.257 70.9174C163.704 71.3274 164.071 71.874 164.358 72.5687C164.611 73.1951 164.737 73.8101 164.725 74.3909C164.714 74.9831 164.576 75.5412 164.324 76.0651C164.071 76.5889 163.704 77.0786 163.223 77.5342C162.741 77.9897 162.167 78.3883 161.502 78.73L162.374 80.8597L160.527 81.6L159.655 79.4817C158.99 79.6753 158.302 79.7892 157.614 79.8119C156.925 79.8347 156.272 79.7436 155.641 79.5272C155.01 79.3108 154.436 78.9464 153.897 78.4453C153.37 77.9442 152.922 77.2609 152.578 76.4067L155.939 75.0515C156.145 75.564 156.386 75.9512 156.673 76.2359C156.96 76.5206 157.258 76.7142 157.579 76.8167C157.9 76.9192 158.233 76.9534 158.577 76.9192C158.921 76.8737 159.242 76.7939 159.564 76.6687C159.931 76.5206 160.229 76.3498 160.47 76.1448C160.711 75.9398 160.883 75.7234 161.009 75.4842C161.124 75.2451 161.192 74.9945 161.192 74.7326C161.192 74.4934 161.135 74.2315 161.032 73.9581Z" fill="#FFA412"/>
<path d="M173.419 61.4875C172.731 61.0092 171.16 59.9386 171.079 60.1778C171.022 60.3486 171.102 60.6333 171.297 60.9408C170.345 60.5878 169.393 60.36 167.122 60.7928C166.663 60.8839 166.25 61.1344 166.01 61.5217C165.78 61.8747 165.688 62.3303 166.273 62.6833C167.432 63.4008 167.099 62.968 168.705 64.0158C170.311 65.0635 172.284 65.3255 173.465 64.5966L175.048 64.3347L175.243 61.7494C175.243 61.7494 174.337 61.6469 173.419 61.4875Z" fill="#FFB27D"/>
<path d="M214.873 39.8263C214.873 39.8263 211.145 44.2223 206.396 42.3774C206.396 42.3774 205.375 39.9288 205.364 38.118C205.364 37.8902 205.364 37.6852 205.353 37.4802C205.33 35.4416 205.261 34.3028 205.261 34.3028C205.479 34.2117 212.521 31.3417 212.51 31.5809C212.395 37.0816 214.873 39.8263 214.873 39.8263Z" fill="#FFB27D"/>
<path d="M211.81 32.8791C211.134 34.1319 208.805 36.5804 205.353 37.4688C205.33 35.4302 205.261 34.2913 205.261 34.2913C205.456 34.2457 212.017 32.5147 211.81 32.8791Z" fill="#ED975D"/>
<path d="M203.781 34.0863C203.781 34.0863 211.707 35.9313 212.785 31.0228C213.864 26.1029 215.619 23.0393 210.606 21.6499C205.593 20.2605 204.194 21.9232 203.426 23.4721C202.68 25.021 201.751 33.4714 203.781 34.0863Z" fill="#FFB27D"/>
<path d="M212.521 32.3553C212.625 32.4236 214.334 32.9475 217.557 26.5584C218.062 25.5562 218.406 23.3924 217.224 21.4677C216.043 19.5544 211.856 18.0511 208.381 17.3905C204.905 16.73 204.068 18.6775 203.242 20.6363C202.382 22.6863 199.893 24.3718 199.893 24.3718C202.898 26.0346 206.511 23.6543 207.761 24.0415C209.011 24.4288 209.459 26.3876 209.551 27.0254C209.642 27.6517 209.791 28.1756 211.363 27.6176C212.934 27.0595 212.074 29.8384 211.822 30.3623C211.833 30.3623 211.615 31.7858 212.521 32.3553Z" fill="#A9453D"/>
<path d="M232.927 154.943H237.721C238.731 154.943 239.843 153.941 240.119 152.119C240.394 150.285 242.47 149.294 242.918 147.791C243.365 146.288 241.071 144.181 241.071 144.181L240.692 143.691L240.291 143.179L236.494 144.067C236.494 144.067 236.402 144.967 236.345 146.105C236.299 146.937 236.288 147.882 236.334 148.725C236.448 150.718 235.772 152.87 233.982 153.257C232.181 153.656 232.927 154.943 232.927 154.943Z" fill="#2C3A64"/>
<path d="M199.537 154.943H212.246C212.372 154.92 212.464 154.897 212.521 154.863C213.37 154.442 213.106 151.219 213.003 150.217C212.98 150.035 212.969 149.921 212.969 149.921C212.969 149.921 208.495 146.367 207.887 149.089C207.864 149.169 207.842 149.26 207.819 149.34C207.039 151.879 203.575 153.041 201.567 153.36C200.03 153.611 199.64 154.499 199.537 154.943Z" fill="#2C3A64"/>
<path d="M202.095 82.1466C202.095 82.1466 202.772 90.5628 203.575 100.665C204.665 114.399 205.961 131.266 206.098 134.466C206.316 140.012 207.211 148.896 207.211 148.896C207.211 148.896 209.333 151.003 213.577 150.114C213.577 150.114 217.362 137.439 218.44 124.034C218.452 123.818 218.475 123.59 218.486 123.374C219.496 109.73 221.056 80.9849 221.056 80.9849L202.095 82.1466Z" fill="#2B478B"/>
<path d="M202.095 82.1466C202.095 82.1466 202.772 90.5628 203.575 100.665L218.452 124.034C218.463 123.818 218.486 123.59 218.498 123.374C219.507 109.73 221.067 80.9849 221.067 80.9849L202.095 82.1466Z" fill="#233862"/>
<path d="M205.192 83.1374C205.192 83.1374 217.431 113.602 225.471 127.918C233.524 142.233 236.036 146.231 236.036 146.231C236.036 146.231 240.647 144.397 241.06 143.156C241.06 143.156 237.986 115.515 232.594 108.785C229.555 104.981 225.976 93.558 225.804 89.5606C225.632 85.5632 224.714 77.6594 224.714 77.6594L205.192 83.1374Z" fill="#2B478B"/>
<path d="M233.111 77.6025L233.237 79.5613C233.237 79.5613 231.941 83.0463 235.577 84.8229C235.577 84.8229 237.137 85.4493 237.205 84.2421C237.274 83.0349 237.068 83.4904 237.194 81.7935C237.32 80.0966 236.643 78.4908 235.519 77.9442L234.59 76.885L233.111 77.6025Z" fill="#FFB27D"/>
<path d="M234.533 79.0375C233.179 79.4703 232.961 79.3678 232.961 79.3678C232.961 79.3678 226.366 67.4552 225.701 66.3619C225.035 65.2686 211.707 52.9916 211.707 52.9916L215.137 40.3046C215.137 40.3046 230.3 59.802 231.941 62.5922C234.648 67.216 236.23 77.9556 236.23 77.9556C236.23 77.9556 235.588 78.6958 234.533 79.0375Z" fill="#1E3D70"/>
<path d="M199.514 57.9684C199.56 60.5764 199.709 63.5033 199.916 66.4757C199.927 66.6466 199.939 66.8288 199.95 66.9996C200.076 68.8446 200.225 70.6896 200.386 72.489C200.455 73.2065 200.524 73.9239 200.593 74.63L200.604 74.7211C200.604 74.9831 200.638 75.2678 200.673 75.5297C201.338 82.2718 202.038 87.6018 202.175 87.6815C202.336 87.784 202.508 87.8409 202.692 87.8181C204.469 87.5904 209.792 88.0004 214.139 87.0551C217.809 86.2807 220.975 84.8229 224.325 82.8641C224.772 82.6021 225.781 81.9074 225.701 81.3949C225.621 80.8255 225.472 80.0055 225.277 78.9805C224.611 75.3931 223.476 69.2204 223.086 62C223.005 60.6561 222.902 59.3237 222.753 58.014C222.375 54.6087 221.778 51.3744 220.975 48.5044C219.484 43.1745 217.293 39.086 214.54 37.4916C214.185 37.2866 212.246 38.5165 210.468 39.644C208.828 40.6918 207.096 40.9765 205.421 40.8284L203.942 42.457C202.152 44.5184 200.248 47.2744 199.721 51.1807C199.686 51.4655 199.652 51.773 199.618 52.1032C199.503 53.6976 199.468 55.7134 199.514 57.9684Z" fill="#2A4E96"/>
<path d="M199.514 57.9684C199.56 60.5764 199.709 63.5033 199.916 66.4758C199.927 66.6466 199.938 66.8288 199.95 66.9997C210.124 60.6789 211.695 49.108 211.695 49.108C206.694 49.3244 202.714 50.4633 199.652 52.1033C199.503 53.6977 199.468 55.7135 199.514 57.9684Z" fill="#1E3D70"/>
<path d="M173.798 62.9567C173.695 61.4534 174.475 61.2142 174.475 61.2142C174.475 61.2142 189.822 58.4582 191.118 58.0482C192.426 57.6382 203.575 46.1242 203.575 46.1242C203.575 46.1242 207.853 41.341 211.352 42.4001C214.391 43.3226 215.584 45.68 215.986 47.9236C216.467 50.6 215.229 53.2877 212.889 54.7113C207.658 57.9001 197.174 64.1867 194.697 64.9041C189.203 66.4986 174.44 65.0294 174.44 65.0294C174.44 65.0294 173.878 64.1297 173.798 62.9567Z" fill="#2A4E96"/>
<path opacity="0.2" d="M191.852 92.2141V148.839C191.852 152.141 189.134 154.841 185.807 154.841H127.182C126.678 154.841 126.173 154.784 125.703 154.658C124.682 154.408 123.764 153.907 123.019 153.223C122.48 152.734 122.032 152.164 121.7 151.515C121.677 151.481 121.665 151.447 121.642 151.413C121.287 150.718 121.069 149.932 121.011 149.123C121 148.987 121 148.839 121 148.702V92.5786C121 89.4011 122.652 86.4628 125.347 84.7545C125.347 84.7545 125.347 84.7545 125.359 84.7545C127.607 83.331 129.098 80.8255 129.098 77.9783C129.098 77.1355 128.972 76.3269 128.719 75.5525H184.132C183.892 76.3155 183.754 77.1241 183.754 77.9783C183.754 80.7002 185.119 83.1146 187.218 84.5723C187.356 84.6634 187.505 84.7659 187.642 84.8457C190.246 86.4173 191.852 89.1961 191.852 92.2141Z" fill="#ED9F4A"/>
<path opacity="0.2" d="M191.852 92.2141V148.839C191.852 152.005 189.363 154.613 186.231 154.829C186.094 154.841 185.945 154.841 185.807 154.841H159.999C156.604 154.841 153.816 152.073 153.816 148.702V92.5786C153.816 89.4011 155.468 86.4628 158.164 84.7545C160.412 83.331 161.903 80.8255 161.903 77.9783C161.903 77.1355 161.777 76.3269 161.524 75.5525H184.132C183.891 76.3155 183.754 77.1241 183.754 77.9783C183.754 80.2105 184.671 82.2376 186.151 83.6954C186.598 84.1396 187.103 84.5268 187.642 84.8457C190.246 86.4173 191.852 89.1961 191.852 92.2141Z" fill="#ED9F4A"/>
<path opacity="0.6" d="M187.218 84.5723C185.406 83.5018 177.571 79.6866 157.625 79.846C134.787 80.0282 125.634 84.6179 125.347 84.7546C127.595 83.331 129.086 80.8255 129.086 77.9783C129.086 77.1355 128.96 76.3269 128.708 75.5525H184.121C183.88 76.3155 183.742 77.1241 183.742 77.9783C183.765 80.7116 185.13 83.1146 187.218 84.5723Z" fill="#ED9F4A"/>
<path d="M185.394 75.1653V77.7392C185.394 77.9897 185.188 78.1947 184.935 78.1947H127.928C127.676 78.1947 127.469 77.9897 127.469 77.7392V75.1653C127.469 74.9148 127.676 74.7098 127.928 74.7098H184.935C185.188 74.6984 185.394 74.9148 185.394 75.1653Z" fill="#2B478B"/>
<path d="M185.394 75.1653V77.7392C185.394 77.9897 185.188 78.1947 184.935 78.1947H163.36C163.107 78.1947 162.901 77.9897 162.901 77.7392V75.1653C162.901 74.9148 163.107 74.7098 163.36 74.7098H184.935C185.188 74.6984 185.394 74.9148 185.394 75.1653Z" fill="#233862"/>
<path d="M147.359 87.8751C147.359 87.8751 145.89 89.925 144.537 89.9592C143.195 89.9934 141.142 89.0025 141.142 89.0025C141.142 89.0025 139.903 86.2693 140.74 85.1987C140.74 85.1987 141.578 84.8343 142.461 85.4834C142.61 85.5973 142.771 85.734 142.92 85.9162C143.138 86.1668 143.367 86.3148 143.631 86.3945C144.594 86.6793 145.73 86.0073 146.154 86.6565C146.407 87.0437 146.67 87.3284 146.9 87.5334C147.164 87.7612 147.359 87.8751 147.359 87.8751Z" fill="#F9DDBF"/>
<path d="M128.203 102.692C128.203 102.692 133.399 90.1984 142.747 89.9592C142.747 89.9592 151.373 90.9158 151.855 102.692H128.203Z" fill="#F9DDBF"/>
<path d="M140.189 90.3464C140.189 90.3464 143.94 91.1778 145.087 90.6881C145.087 90.6881 145.259 89.1278 143.688 89.3556C142.61 89.5036 141.91 88.9911 141.485 88.7861C140.9 88.4786 140.029 89.6972 140.189 90.3464Z" fill="#F1A34F"/>
<path d="M143.447 88.0003C143.206 88.1825 142.472 85.4834 142.472 85.4834C142.621 85.5973 142.782 85.734 142.931 85.9162C143.149 86.1667 143.378 86.3148 143.642 86.3945C143.631 86.4742 143.677 87.8295 143.447 88.0003Z" fill="#E5C1A1"/>
<path d="M146.9 87.5334C146.842 87.5676 145.11 88.5926 144.881 88.5926C144.64 88.5926 146.154 86.6565 146.154 86.6565C146.406 87.0437 146.682 87.3284 146.9 87.5334Z" fill="#E5C1A1"/>
<path d="M133.284 99.2068C133.193 99.1271 136.955 93.6947 137.999 93.6491C139.042 93.615 141.371 94.8336 143.057 94.993C144.743 95.1524 146.383 94.6741 146.705 95.6649C147.026 96.6557 147.898 100.175 147.358 100.733C146.819 101.302 135.349 100.961 133.284 99.2068Z" fill="#E5C1A1"/>
<path opacity="0.5" d="M129.075 150.57C128.777 150.729 128.467 150.877 128.169 151.014C127.882 151.185 127.584 151.344 127.286 151.504C125.898 152.221 124.475 152.802 123.019 153.235C122.48 152.745 122.032 152.176 121.7 151.526C121.47 151.652 121.241 151.766 121 151.879V109.16C122.067 109.297 123.122 109.514 124.166 109.787C129.981 111.347 135.154 115.014 138.309 120.424C144.548 131.152 140.431 144.648 129.075 150.57Z" fill="#E2810E"/>
<path d="M133.009 118.738C126.758 107.475 112.489 103.375 101.145 109.582C89.8008 115.789 85.6715 129.956 91.9228 141.22C98.1741 152.483 112.443 156.583 123.787 150.376C135.143 144.169 139.261 130.002 133.009 118.738Z" fill="#E2810E"/>
<path d="M122.881 150.854C122.594 151.025 122.296 151.196 121.998 151.367C121.894 151.424 121.791 151.481 121.699 151.526C121.47 151.652 121.241 151.766 121 151.879C109.828 157.323 96.201 153.144 90.1332 142.21C84.3407 131.778 87.4492 118.852 96.958 112.065C97.7151 111.518 98.518 111.017 99.3553 110.561C99.6536 110.402 99.9633 110.242 100.261 110.094C100.56 109.946 100.858 109.81 101.156 109.673C102.074 109.263 103.003 108.921 103.955 108.648C105.354 108.227 106.777 107.942 108.199 107.794C112.615 107.327 117.065 108.136 121.011 110.049C125.198 112.076 128.811 115.367 131.231 119.718C137.31 130.696 133.56 144.408 122.881 150.854Z" fill="#FFB93E"/>
<path d="M110.837 152.437C108.841 152.437 106.834 152.153 104.873 151.595C99.3897 150.023 94.8475 146.413 92.0946 141.459C89.3418 136.493 88.6994 130.765 90.2823 125.321C91.8652 119.877 95.5013 115.367 100.491 112.634C105.492 109.901 111.261 109.263 116.744 110.835C122.227 112.406 126.769 116.016 129.522 120.971C132.275 125.936 132.917 131.665 131.334 137.108C129.752 142.552 126.116 147.062 121.126 149.795C117.926 151.549 114.404 152.437 110.837 152.437ZM93.2073 140.844C95.7995 145.513 100.066 148.896 105.228 150.376C110.39 151.857 115.815 151.253 120.518 148.679C125.221 146.105 128.628 141.869 130.119 136.744C131.61 131.619 131.002 126.232 128.41 121.563C125.817 116.893 121.55 113.511 116.389 112.03C111.227 110.55 105.802 111.154 101.099 113.727C96.396 116.301 92.9893 120.538 91.4982 125.663C90.0071 130.788 90.615 136.174 93.2073 140.844Z" fill="#FFA412"/>
<path d="M121.149 133.236C121.103 133.122 121.057 133.008 121 132.906C120.621 132.075 120.139 131.403 119.577 130.89C118.935 130.309 118.189 129.877 117.341 129.58C116.492 129.284 115.54 129.113 114.496 129.045C113.452 128.977 112.305 128.965 111.078 129C110.321 129.022 109.667 129.011 109.128 128.965C108.589 128.92 108.13 128.817 107.751 128.669C107.373 128.521 107.075 128.316 106.834 128.054C106.604 127.792 106.409 127.474 106.249 127.098C106.1 126.722 106.008 126.346 105.985 125.982C105.962 125.617 106.019 125.264 106.157 124.934C106.295 124.604 106.513 124.296 106.811 124.011C107.109 123.727 107.511 123.487 108.004 123.294C108.921 122.929 109.77 122.929 110.562 123.317C111.353 123.704 111.995 124.501 112.5 125.72L117.283 123.795C116.87 122.781 116.343 121.916 115.723 121.221C115.092 120.526 114.393 119.98 113.601 119.593C112.821 119.205 111.961 118.989 111.032 118.921C110.103 118.852 109.139 118.955 108.153 119.217L106.799 115.903L104.15 116.962L105.48 120.23C104.528 120.72 103.714 121.289 103.049 121.95C102.383 122.599 101.879 123.305 101.523 124.068C101.167 124.831 100.984 125.629 100.961 126.46C100.938 127.291 101.11 128.145 101.466 129.011C101.879 130.013 102.395 130.799 103.037 131.38C103.679 131.961 104.425 132.393 105.274 132.678C106.123 132.963 107.075 133.134 108.118 133.191C109.174 133.248 110.309 133.248 111.548 133.191C112.259 133.145 112.89 133.156 113.418 133.202C113.945 133.248 114.404 133.35 114.783 133.498C115.161 133.658 115.482 133.863 115.735 134.147C115.987 134.421 116.205 134.774 116.377 135.206C116.526 135.582 116.606 135.958 116.606 136.334C116.606 136.71 116.526 137.063 116.354 137.404C116.182 137.746 115.93 138.065 115.597 138.35C115.264 138.634 114.829 138.885 114.312 139.101C113.865 139.284 113.395 139.409 112.913 139.466C112.431 139.523 111.961 139.477 111.502 139.329C111.043 139.181 110.608 138.896 110.206 138.498C109.805 138.099 109.46 137.541 109.162 136.812L104.379 138.714C104.872 139.933 105.503 140.901 106.26 141.618C107.017 142.336 107.843 142.848 108.738 143.156C109.633 143.463 110.573 143.6 111.548 143.554C112.523 143.52 113.498 143.361 114.45 143.076L115.689 146.094L118.316 145.035L117.077 142.005C118.029 141.516 118.855 140.946 119.531 140.309C120.162 139.716 120.655 139.079 121.011 138.384C121.045 138.327 121.068 138.27 121.091 138.213C121.447 137.461 121.642 136.676 121.665 135.833C121.688 135.001 121.516 134.124 121.149 133.236Z" fill="#FFA412"/>
<path d="M93.242 48.9713C93.3108 48.6866 86.9906 51.8071 86.6695 52.1601C83.7101 55.4287 84.5475 59.688 86.2451 59.7222C87.3348 59.745 87.1168 61.5444 87.1168 61.5444L99.2295 56.4537C99.2524 56.4537 97.7842 48.0032 93.242 48.9713Z" fill="#2C3A64"/>
<path d="M94.7328 49.6318C94.7328 49.6318 95.1687 44.9397 89.8923 44.9397C89.8923 44.9397 91.4867 45.3725 92.3126 46.2266C92.3126 46.2266 88.9518 44.2678 85.2927 47.2744C81.6337 50.2924 83.9048 57.8431 82.7922 59.2781C81.6796 60.713 77.3438 60.9978 77.8715 65.6443C78.3991 70.2795 91.6358 76.0992 90.7755 79.9371C90.7755 79.9371 95.9601 72.375 92.2552 68.9129C92.2552 68.9129 94.0675 70.5984 94.251 72.6142C94.251 72.6142 94.7443 68.6965 92.2323 67.4437C90.007 66.339 88.1833 62.2733 88.3783 61.5444C88.5732 60.8155 94.7328 49.6318 94.7328 49.6318Z" fill="#2C3A64"/>
<path d="M89.9497 71.6803C89.1353 67.7968 84.054 66.5896 81.6567 69.767C81.2209 70.3365 80.9226 71.0084 80.8194 71.8056C80.2688 76.2244 87.3804 94.1957 88.4013 95.8243C90.2594 98.7854 101.168 108.944 101.168 108.944L103.175 107.737C103.175 107.737 95.4325 94.731 94.2396 93.5124C92.8517 92.1002 91.4868 79.0602 89.9497 71.6803Z" fill="#ED985F"/>
<path d="M100.399 107.737C100.399 107.737 103.336 105.824 104.448 105.949C105.561 106.074 108.773 106.997 108.819 107.464C108.853 107.931 105.24 108.227 104.988 108.477C104.747 108.739 102.281 110.368 101.397 109.855C100.491 109.343 100.399 107.737 100.399 107.737Z" fill="#ED985F"/>
<path d="M79.9248 150.968L77.2982 150.581C77.2982 150.581 68.4775 143.623 67.1699 130.64C67.0322 129.318 67.0093 127.975 67.1125 126.631C67.124 126.471 67.1011 126.323 67.0208 126.187C66.734 125.754 66.0343 124.683 65.0823 123.146C64.1417 121.642 62.5359 118.784 60.7809 115.584C57.6037 109.821 53.8988 102.931 52.6256 100.744C48.5765 93.763 50.5265 89.0595 50.5265 89.0595C50.5265 89.0595 61.8133 87.9548 64.8988 85.267L66.0114 86.9753C66.0114 86.9753 68.4546 97.7262 68.3399 97.7718C68.4546 98.1362 68.5807 98.5121 68.7069 98.8879C70.6339 104.799 72.8592 112.19 74.0635 118.214C74.7403 121.597 75.1073 124.558 74.9123 126.562C74.8435 127.257 74.9238 128.316 75.1073 129.626C76.2085 137.325 79.9248 150.968 79.9248 150.968Z" fill="#2B478B"/>
<path d="M85.4192 154.26H74.4766C74.4766 154.26 74.2128 152.608 74.7863 151.344C75.3369 150.137 76.1168 150.103 74.8895 148.212C75.5892 148.918 77.8144 149.215 79.3973 149.01C79.5923 149.317 80.6476 151.413 81.2899 151.88C82.0126 152.392 85.2013 152.21 85.4192 154.26Z" fill="#233862"/>
<path d="M68.7184 98.8765C67.7663 104.104 65.5067 112.816 60.7809 115.595C57.6037 109.832 53.8988 102.942 52.6256 100.756C48.5765 93.763 50.5265 89.0595 50.5265 89.0595C50.5265 89.0595 61.8133 87.9548 64.8988 85.267L66.0114 86.9753C66.0114 86.9753 68.4546 97.7262 68.3399 97.7718C68.466 98.1362 68.5922 98.5007 68.7184 98.8765Z" fill="#233862"/>
<path d="M88.7799 69.2659C88.7799 69.2659 90.3284 70.8603 91.0281 72.7737C91.0281 72.7737 88.562 79.8119 82.7925 80.6888C82.7925 80.6888 87.3576 69.2659 88.7799 69.2659Z" fill="#ED7D2B"/>
<path d="M61.045 89.8681L61.0794 87.8409C57.0075 88.3534 47.0283 83.0007 47.0283 83.0007C47.0283 83.0007 42.7614 85.8137 42.1764 93.8655C41.8897 97.7946 40.0888 114.399 39.8938 119.353C39.825 121.153 39.8021 122.428 39.7906 122.941C39.7906 123.1 39.7103 123.237 39.6185 123.362C38.7697 124.421 38.0471 125.549 37.4048 126.722C31.1879 138.213 34.434 153.827 34.434 153.827L35.8792 153.463C35.8792 153.463 41.1441 137.279 44.5737 130.275C45.1587 129.091 45.6863 128.168 46.1337 127.633C47.4298 126.073 48.7948 123.431 50.1368 120.242C52.6717 114.217 55.1378 106.268 56.9042 100.118C57.0189 100.129 61.045 89.8681 61.045 89.8681Z" fill="#2B478B"/>
<path d="M84.8915 76.3041C78.2273 74.7894 82.4827 65.4849 82.8727 65.6557C83.7904 65.4735 85.8206 63.8563 87.6329 60.713L87.8738 60.9294L91.9687 64.4941C91.9687 64.4941 91.0281 65.8835 90.2252 67.2387C89.6058 68.2979 89.0782 69.3456 89.1585 69.7101C89.5026 69.9606 86.6694 76.7141 84.8915 76.3041Z" fill="#FFB27D"/>
<path d="M91.9803 64.4827C91.9803 64.4827 91.0282 65.8721 90.2368 67.2273C87.6904 65.6671 87.6904 62.5466 87.8854 60.918L91.9803 64.4827Z" fill="#ED985F"/>
<path d="M92.0946 66.2707C92.0946 66.2707 85.9121 62.8541 88.1144 59.073C90.3167 55.2806 91.0049 52.2968 95.0424 54.3126C99.08 56.3284 98.9997 58.2075 98.5753 59.6539C98.1509 61.0888 93.7578 67.0679 92.0946 66.2707Z" fill="#FFB27D"/>
<path d="M99.6195 57.4445C99.3327 55.759 98.4725 55.5995 97.876 55.7134C95.5934 51.9666 91.8656 53.4243 91.8656 53.4243C89.8698 55.907 86.9907 56.3284 86.9907 56.3284C86.9907 56.3284 87.7133 57.6495 90.6612 58.4695C91.5674 58.72 92.5882 58.572 93.5747 58.2417C91.5215 59.3806 89.3765 59.8133 89.3765 59.8133C93.265 60.1664 96.9699 56.6359 97.3598 56.2601C97.5434 56.8067 97.8531 57.957 97.6695 58.7884C97.4172 59.9272 96.3963 61.9886 97.0157 62.2619C97.0157 62.2619 100.044 59.9614 99.6195 57.4445Z" fill="#2C3A64"/>
<path d="M43.1282 154.26H32.1856C32.1856 154.26 31.9218 152.608 32.4953 151.344C33.0458 150.137 33.9061 149.59 33.6996 148.133C34.3993 148.839 35.5234 149.636 37.1063 149.431C37.3013 149.738 38.3566 151.413 38.9989 151.879C39.7216 152.392 42.9103 152.21 43.1282 154.26Z" fill="#233862"/>
<path d="M85.6827 83.6726C84.2718 84.1623 82.2989 84.4243 80.2802 84.6406C77.4011 84.9481 74.4303 85.1645 72.8818 85.7795C72.3198 86.0073 71.9298 86.2806 71.8151 86.6337C71.1383 88.6495 68.1675 91.7586 68.1675 91.7586C49.1154 90.893 47.0278 82.9893 47.0278 82.9893C59.8401 68.1954 81.5419 63.9132 81.5419 63.9132C81.5419 63.9132 83.0904 63.2641 86.9903 66.339C89.594 68.4004 89.2499 69.1862 89.2499 69.1862C89.2499 69.1862 89.8234 82.249 85.6827 83.6726Z" fill="#F99746"/>
<path d="M80.2806 84.6521C77.4016 84.9596 74.4307 85.1759 72.8823 85.7909C72.2514 76.3611 76.7248 69.2659 76.7248 69.2659C76.7248 69.2659 79.6497 81.076 80.2806 84.6521Z" fill="#ED7D2B"/>
<path d="M83.2395 67.4437C83.2395 67.4437 76.0247 68.1498 75.4512 72.8078C74.8777 77.4544 82.3678 96.4052 83.4345 98.1248C85.3845 101.245 96.8891 111.951 96.8891 111.951L99.0111 110.675C99.0111 110.675 90.8558 96.9632 89.594 95.6877C87.5982 93.6491 85.6827 69.0495 83.2395 67.4437Z" fill="#FFB27D"/>
<path d="M75.6576 75.598C75.6805 75.7005 82.3103 77.7505 86.5773 75.598C86.5773 75.598 87.4949 65.8151 82.3906 66.3504C77.2978 66.8857 74.2697 68.4801 74.1435 70.8945C74.0288 73.3203 75.6576 75.598 75.6576 75.598Z" fill="#F99746"/>
<path d="M96.2358 110.573C96.2358 110.573 98.8166 108.215 99.9407 108.158C101.053 108.101 104.38 108.5 104.494 108.956C104.609 109.411 101.076 110.277 100.881 110.573C100.686 110.869 98.5184 112.873 97.5549 112.509C96.5914 112.144 96.2358 110.573 96.2358 110.573Z" fill="#FFB27D"/>
<path d="M259.732 155H21.2677C21.12 155 21 154.809 21 154.574V154.426C21 154.191 21.12 154 21.2677 154H259.732C259.88 154 259.999 154.191 259.999 154.426V154.574C260.009 154.809 259.889 155 259.732 155Z" fill="#2E3552"/>
</svg>
