<svg width="61" height="28" viewBox="0 0 61 28" fill="none" xmlns="http://www.w3.org/2000/svg">
<g clip-path="url(#clip0)">
<path d="M27.3393 10.2954L18.27 9.4543L14.6674 1.08882C14.4152 0.503066 13.5847 0.503066 13.3325 1.08882L9.72994 9.45435L0.660639 10.2954C0.0256091 10.3543 -0.231039 11.1442 0.248077 11.5651L7.09089 17.5764L5.08835 26.4618C4.94813 27.0839 5.62002 27.5721 6.16837 27.2465L14 22.5962L21.8316 27.2465C22.38 27.5721 23.0519 27.0839 22.9117 26.4618L20.9091 17.5764L27.7519 11.5651C28.231 11.1442 27.9744 10.3543 27.3393 10.2954Z" fill="#FFDC64"/>
<path d="M14.6674 1.08882C14.4152 0.503066 13.5847 0.503066 13.3325 1.08882L9.72994 9.45435L0.660639 10.2954C0.0256091 10.3543 -0.231039 11.1442 0.248077 11.5651L7.09089 17.5764L5.08835 26.4618C4.94813 27.0839 5.62002 27.5721 6.16837 27.2465L7.91634 26.2085C8.15828 16.2499 12.7854 9.23697 16.4488 5.22516L14.6674 1.08882Z" fill="#FFC850"/>
</g>
<g clip-path="url(#clip1)">
<path d="M59.5054 10.2954L50.4361 9.4543L46.8335 1.08882C46.5812 0.503066 45.7507 0.503066 45.4985 1.08882L41.896 9.45435L32.8267 10.2954C32.1916 10.3543 31.935 11.1442 32.4141 11.5651L39.2569 17.5764L37.2544 26.4618C37.1141 27.0839 37.786 27.5721 38.3344 27.2465L46.166 22.5962L53.9976 27.2465C54.546 27.5721 55.2179 27.0839 55.0777 26.4618L53.0751 17.5764L59.9179 11.5651C60.397 11.1442 60.1404 10.3543 59.5054 10.2954Z" fill="#FFDC64"/>
<path d="M46.8335 1.08882C46.5812 0.503066 45.7507 0.503066 45.4985 1.08882L41.896 9.45435L32.8267 10.2954C32.1916 10.3543 31.935 11.1442 32.4141 11.5651L39.2569 17.5764L37.2544 26.4618C37.1141 27.0839 37.786 27.5721 38.3344 27.2465L40.0824 26.2085C40.3243 16.2499 44.9514 9.23697 48.6148 5.22516L46.8335 1.08882Z" fill="#FFC850"/>
</g>
<defs>
<clipPath id="clip0">
<rect width="28" height="28" fill="white"/>
</clipPath>
<clipPath id="clip1">
<rect width="28" height="28" fill="white" transform="translate(32.166)"/>
</clipPath>
</defs>
</svg>
