<svg width="198" height="88" viewBox="0 0 198 88" fill="none" xmlns="http://www.w3.org/2000/svg">
<g clip-path="url(#clip0)">
<path d="M118.009 64.5515C118.514 74.6059 114.79 86.9399 104.198 86.9399C103.162 86.9399 97.6072 87.1701 96.6567 86.9102C87.9241 84.5266 81.7794 71.4351 81.7794 59.8993C81.7794 50.9105 84.3375 40.845 93.163 39.6384C93.7533 39.5567 100.065 39.6384 100.711 39.6384C111.412 39.6384 117.463 53.7286 118.009 64.5515Z" fill="#37474F"/>
<path d="M109.618 64.5515C110.123 74.6059 106.399 86.9399 95.8104 86.9399C85.2213 86.9399 79.188 72.69 79.1917 59.8993C79.1917 50.309 81.9837 39.6383 92.324 39.6383C103.013 39.6383 109.073 53.7286 109.618 64.5515Z" fill="#263238"/>
<path d="M105.185 64.2619C105.557 72.0032 102.805 81.5006 94.9787 81.5006C87.152 81.5006 82.6929 70.5254 82.6929 60.679C82.6929 53.2941 84.7572 45.0851 92.402 45.0851C100.303 45.0776 104.784 55.934 105.185 64.2619Z" fill="#C7C7C7"/>
<path d="M90.0369 46.7484C90.4602 49.8932 91.8562 59.9178 92.6694 59.9178C93.3525 59.9178 94.574 50.4575 94.9973 47.0343C94.107 46.6571 93.1499 46.4626 92.183 46.4625C91.4578 46.458 90.7356 46.5542 90.0369 46.7484Z" fill="#263238"/>
<path d="M94.1843 60.5156C94.6409 60.7866 98.0976 56.2681 100.604 52.8783C99.8707 51.4213 98.9121 50.0893 97.7634 48.9315C96.2783 52.8114 93.5679 60.148 94.1843 60.5156Z" fill="#263238"/>
<path d="M95.0085 61.6814C95.2387 62.0899 99.23 60.5045 102.805 58.9822C102.51 57.7076 102.124 56.4557 101.651 55.236C98.4837 57.8869 94.7263 61.1728 95.0085 61.6814Z" fill="#263238"/>
<path d="M95.5132 63.0923C95.5132 63.5676 99.7384 64.2359 103.57 64.7408C103.57 64.5552 103.57 64.3695 103.551 64.1876C103.502 63.1438 103.393 62.1038 103.225 61.0725C99.4897 61.7334 95.5132 62.5651 95.5132 63.0923Z" fill="#263238"/>
<path d="M102.935 71.3051C103.257 69.8954 103.459 68.4607 103.537 67.0168C99.7906 65.5985 95.4206 64.0725 95.1459 64.5626C94.8711 65.0527 99.5307 68.7247 102.935 71.3051Z" fill="#263238"/>
<path d="M99.0294 78.508C100.371 77.3381 101.401 75.8529 102.026 74.1863C99.4266 70.8447 94.9712 65.2755 94.3698 65.6468C93.7683 66.018 97.7707 75.5563 99.0294 78.508Z" fill="#263238"/>
<path d="M90.9131 79.1355C91.9901 79.7767 93.2202 80.1153 94.4737 80.1157C94.9521 80.1175 95.4296 80.0728 95.8994 79.982C95.5541 77.3534 94.0764 66.445 93.2187 66.445C92.5504 66.445 91.3623 75.5675 90.9131 79.1355Z" fill="#263238"/>
<path d="M85.8712 72.768C86.4935 74.2562 87.3235 75.6487 88.3365 76.9041C89.8216 73.0019 92.2016 66.5081 91.6186 66.1368C91.1954 65.8992 88.2622 69.6083 85.8712 72.768Z" fill="#263238"/>
<path d="M84.1373 67.0168C84.358 68.1779 84.6481 69.3247 85.0061 70.4511C87.7796 68.0898 90.6162 65.5168 90.3637 65.0601C90.1669 64.7037 87.1929 65.7841 84.1373 67.0168Z" fill="#263238"/>
<path d="M83.5654 61.9413C83.5989 63.0032 83.6843 64.0725 83.8216 65.1306C86.9256 64.5737 89.7993 63.9351 89.7993 63.471C89.7993 63.0069 86.7696 62.4648 83.5654 61.9413Z" fill="#263238"/>
<path d="M83.5657 59.9252C86.7104 61.1393 89.8515 62.2235 90.0891 61.8002C90.3267 61.377 86.9072 58.4587 83.9073 55.9859C83.7055 57.2899 83.5914 58.606 83.5657 59.9252Z" fill="#263238"/>
<path d="M84.5456 53.1307C87.074 56.4054 90.6049 60.8125 91.1359 60.4932C91.6668 60.1739 88.4886 51.9537 87.1074 48.497C85.8894 49.8103 85.01 51.4008 84.5456 53.1307Z" fill="#263238"/>
<path d="M24.791 42.2187C25.088 49.21 22.9086 57.7866 16.7156 57.7866C16.1104 57.7866 12.8616 57.9463 12.3084 57.7681C7.19956 56.1084 3.60553 47.0008 3.60553 38.9811C3.60553 32.7324 5.09066 25.73 10.2626 24.8909C10.6079 24.8352 14.2985 24.8909 14.6772 24.8909C20.9296 24.8797 24.4717 34.6853 24.791 42.2187Z" fill="#37474F"/>
<path d="M19.8865 42.2187C20.1798 49.21 18.0041 57.7867 11.8111 57.7867C5.61812 57.7867 2.09465 47.8771 2.09465 38.9811C2.09465 32.298 3.72458 24.8909 9.77279 24.8909C16.0252 24.8797 19.5672 34.6854 19.8865 42.2187Z" fill="#263238"/>
<path d="M17.295 42.0034C17.5141 47.3908 15.9027 53.9922 11.3248 53.9922C6.74681 53.9922 4.1404 46.3623 4.1404 39.5121C4.1404 34.381 5.35078 28.6632 9.81734 28.6632C14.4398 28.6632 17.0574 36.2114 17.295 42.0034Z" fill="#C7C7C7"/>
<path d="M8.4362 29.8253C8.68125 32.0159 9.49806 38.9849 9.97331 38.9849C10.3743 38.9849 11.0872 32.4057 11.3359 30.0258C10.8265 29.7661 10.263 29.63 9.69115 29.6285C9.26498 29.6263 8.84124 29.6927 8.4362 29.8253Z" fill="#263238"/>
<path d="M10.8606 39.4007C11.1279 39.5901 13.1514 36.4304 14.6143 34.0876C14.1994 33.0962 13.6402 32.1716 12.9546 31.3438C12.0858 34.0505 10.5004 39.1445 10.8606 39.4007Z" fill="#263238"/>
<path d="M11.3433 40.2101C11.477 40.496 13.8124 39.3932 15.9102 38.3351C15.7377 37.4559 15.512 36.588 15.2344 35.7361C13.3743 37.5702 11.1651 39.8573 11.3433 40.2101Z" fill="#263238"/>
<path d="M11.6366 41.194C11.6366 41.5207 14.1093 41.9848 16.3481 42.3375C16.3481 42.2076 16.3481 42.0814 16.3481 41.9663C16.3222 41.2682 16.259 40.5405 16.1588 39.8054C13.9645 40.2472 11.6366 40.8227 11.6366 41.194Z" fill="#263238"/>
<path d="M15.9915 46.9043C16.1799 45.9239 16.2978 44.9313 16.3442 43.934C14.1537 42.9464 11.5992 41.8845 11.4358 42.2261C11.2725 42.5677 13.9977 45.111 15.9915 46.9043Z" fill="#263238"/>
<path d="M13.6933 51.9129C14.5013 51.0603 15.1011 50.0322 15.4458 48.9093C13.9161 46.5776 11.3134 42.7162 10.9681 42.9687C10.6228 43.2212 12.9582 49.8597 13.6933 51.9129Z" fill="#263238"/>
<path d="M8.93726 52.3511C9.3531 52.6511 9.82833 52.8587 10.331 52.9599C10.8337 53.0611 11.3523 53.0535 11.8518 52.9377C11.6513 51.1073 10.7862 43.522 10.285 43.522C9.9063 43.522 9.20458 49.8672 8.93726 52.3511Z" fill="#263238"/>
<path d="M6.00038 47.9216C6.35778 48.9383 6.84575 49.9043 7.45207 50.7953C8.32458 48.085 9.71316 43.5627 9.37158 43.3214C9.11169 43.1432 7.40011 45.7236 6.00038 47.9216Z" fill="#263238"/>
<path d="M4.98689 43.9229C5.11373 44.726 5.28352 45.5217 5.49555 46.3066C7.11806 44.6692 8.77398 42.8796 8.62547 42.5603C8.51037 42.3115 6.77277 43.0653 4.98689 43.9229Z" fill="#263238"/>
<path d="M4.65651 40.392C4.65651 41.1346 4.72706 41.8772 4.80503 42.6197C6.62059 42.2484 8.30249 41.7881 8.30249 41.465C8.30249 41.142 6.52405 40.7559 4.65651 40.392Z" fill="#263238"/>
<path d="M4.64888 38.9886C6.50531 39.8351 8.32831 40.5888 8.46569 40.2918C8.60306 39.9947 6.60927 37.9601 4.85308 36.2485C4.7344 37.1574 4.66623 38.0721 4.64888 38.9886Z" fill="#263238"/>
<path d="M5.22446 34.2658C6.70959 36.5417 8.77022 39.6048 9.07838 39.3821C9.38655 39.1593 7.53014 33.4415 6.72074 31.043C5.99071 31.9939 5.47977 33.0944 5.22446 34.2658Z" fill="#263238"/>
<path d="M0.00421143 19.636C0.0784607 20.1893 0.795044 23.1224 0.795044 23.1224C0.795044 23.1224 0.639084 37.1718 1.82719 43.8401L2.48067 44.1445C0.806168 27.7078 6.59077 24.7152 9.44595 24.9751C12.045 25.2165 16.6971 28.7845 19.0771 37.0419C20.5786 42.1772 21.3204 47.5046 21.2788 52.8548C22.6674 53.4823 23.6327 53.9093 23.8778 53.9984C25.2404 54.4699 27.78 53.3561 27.78 53.3561C27.78 53.3561 69.4566 68.1517 81.1298 72.1319C80.4318 70.2569 79.2919 61.5355 79.6632 55.2682C80.0345 49.0009 82.9416 39.6371 92.5319 39.6371C102.122 39.6371 109.054 52.9662 110.406 61.0639C111.757 69.1616 109.125 78.7333 109.607 78.9116C113.483 79.7358 116.409 80.3373 117.033 80.4301C119.149 80.7494 150.159 81.5959 152.379 81.4883C154.599 81.3806 174.901 77.044 180.935 75.2618C186.968 73.4797 196.157 68.9129 196.387 68.1666C196.618 67.4203 196.558 61.554 196.517 61.3164C196.477 61.0788 195.088 59.6531 195.088 59.6531L197.152 51.1284C197.152 51.1284 186.125 30.1137 169.533 25.0122C160.488 22.235 156.278 22.8699 153.66 22.7845C151.043 22.6991 131.517 20.4009 130.718 20.4009C129.92 20.4009 97.9452 2.30451 91.5146 0.722836C85.084 -0.858835 52.9419 0.566897 50.1647 0.722836C47.3875 0.878775 27.4644 4.06439 17.9372 9.77474C17.9372 9.77474 10.0809 10.9629 9.60933 11.0445C9.13779 11.1262 2.7814 13.1868 2.4621 13.4245C2.14279 13.6621 -0.0774841 19.0754 0.00421143 19.636Z" fill="#FFC727"/>
<path d="M56.1164 5.8328L67.5445 25.9118C67.5445 25.9118 107.97 26.5208 110.031 26.3054C112.091 26.0901 122.413 24.5641 124.058 24.0331C125.702 23.5022 130.719 20.428 130.719 20.428C130.065 20.428 108.189 8.11249 96.9317 2.9108C67.5222 3.46401 56.1164 5.8328 56.1164 5.8328Z" fill="#263238"/>
<path d="M56.1166 5.8328L66.2341 23.6136C69.3194 23.6916 106.949 24.6086 108.932 24.4007C111 24.1928 120.883 22.9156 122.528 22.3921C124.173 21.8686 128.762 19.6854 128.955 19.5926C123.635 16.8302 107.666 7.98996 98.0308 3.42317C97.6595 3.24495 97.2883 3.07787 96.9467 2.91822C67.5224 3.46401 56.1166 5.8328 56.1166 5.8328Z" fill="#37474F"/>
<path d="M56.588 5.73634L117.393 23.2832C119.117 23.0682 120.829 22.7633 122.521 22.3699C123.694 21.9986 126.49 20.7139 127.979 20.0234L72.375 3.97646C62.9815 4.67447 58.0471 5.46159 56.588 5.73634Z" fill="#455A64"/>
<path d="M84.5829 3.28214L114.753 11.9999C111.831 10.4405 108.791 8.83283 105.883 7.34027L91.0321 3.05194C88.7635 3.11506 86.6138 3.19674 84.5829 3.28214Z" fill="#455A64"/>
<path d="M61.7003 15.6423L63.1261 18.1521L83.4019 24.0036C85.9823 24.0667 88.6518 24.1224 91.2434 24.1744L61.7003 15.6423Z" fill="#455A64"/>
<path d="M64.9233 21.3005L65.276 21.9168L71.5879 23.7361L73.5186 23.7844L64.9233 21.3005Z" fill="#455A64"/>
<path d="M62.8364 25.5109C62.8364 25.5109 51.4046 24.1891 50.1905 24.0814C48.9764 23.9738 26.2724 16.834 26.1127 16.6224C25.9531 16.4107 24.8429 11.9664 24.8429 11.9664C24.8429 11.9664 32.6399 7.04694 33.3119 6.76847C33.9839 6.49001 44.74 4.70413 45.9578 4.91205C47.1757 5.11997 51.9355 6.23754 52.3068 6.60882C52.6781 6.9801 62.8364 25.5109 62.8364 25.5109Z" fill="#263238"/>
<path d="M26.4581 10.9417C26.5212 12.3228 27.1747 16.0357 27.1747 16.0357C27.1747 16.0357 49.6076 22.121 50.1943 22.2287C50.7809 22.3364 56.4393 22.6223 56.4393 22.6223C56.5558 22.3332 56.6441 22.0335 56.7029 21.7275C56.7029 21.5307 53.1386 9.23004 52.4294 6.79442C52.3935 6.73501 52.3538 6.67797 52.3106 6.62363C51.9393 6.25235 47.1794 5.13849 45.9616 4.92686C44.7438 4.71523 34.0026 6.51596 33.3157 6.78328C32.8219 6.96892 28.7786 9.48623 26.4581 10.9417Z" fill="#37474F"/>
<path d="M30.1711 8.6324L55.0471 15.813C54.8318 15.0705 54.609 14.2908 54.3862 13.5259L32.5287 7.2141C31.9273 7.55568 31.0844 8.06062 30.1711 8.6324Z" fill="#455A64"/>
<path d="M26.7144 10.782L56.0161 19.2436C55.9641 19.0691 55.9084 18.8723 55.8527 18.6866L27.2639 10.433L26.7144 10.782Z" fill="#455A64"/>
<path d="M56.4356 22.6224L56.6992 21.7276C56.6992 21.7276 52.4257 17.7288 51.4715 17.2944C50.5173 16.86 41.3132 17.6917 40.9976 18.2078C40.718 18.801 40.6211 19.464 40.7191 20.1125C40.7971 20.506 48.8131 22.9677 49.6857 23.0085C50.5582 23.0493 56.4356 22.6224 56.4356 22.6224Z" fill="#FFC727"/>
<path d="M147.798 53.8696C147.798 53.8696 143.988 48.0478 142.718 47.1865C141.449 46.3251 122.825 36.9204 121.659 36.4972C120.493 36.0739 111.713 33.8982 111.713 33.8982C111.713 33.8982 112.214 36.7571 112.637 37.3363C113.06 37.9155 133.793 52.0169 135.987 52.6146C138.181 53.2124 147.798 53.8696 147.798 53.8696Z" fill="#37474F"/>
<path d="M115.496 34.8636C116.379 36.0889 118.418 38.8958 118.978 39.371C119.687 39.9799 136.198 49.793 137.331 50.0417C138.148 50.2199 142.158 49.4031 144.333 48.9279C143.873 48.2857 143.335 47.7022 142.733 47.1902C141.463 46.3437 122.84 36.9242 121.674 36.5047C121.028 36.2782 118.031 35.5059 115.496 34.8636Z" fill="#455A64"/>
<path d="M191.862 42.4415C191.593 43.8417 190.943 45.1406 189.983 46.1952C189.983 46.1952 183.898 40.0838 183.422 39.397C182.947 38.7101 180.471 33.7869 180.248 33.2596C180.025 32.7324 176.164 27.9874 175.863 27.8315C175.863 27.8315 184.098 32.6099 187.046 35.4539C187.803 36.1816 191.758 41.9885 191.862 42.4415Z" fill="#37474F"/>
<path d="M175.87 27.8426H175.893C175.921 27.8636 175.947 27.8872 175.971 27.9132C177.055 28.8525 185.713 36.1817 186.122 36.7386C186.53 37.2955 191.071 44.6618 191.071 44.6618C191.465 43.9721 191.732 43.2178 191.862 42.4341C191.758 41.9849 187.8 36.178 187.035 35.4503C184.183 32.7027 176.386 28.1285 175.885 27.8463L175.87 27.8426Z" fill="#455A64"/>
<g opacity="0.3">
<path opacity="0.3" d="M110.955 79.1986C111.67 76.1368 112.119 73.0187 112.295 69.8794C112.387 68.3079 112.396 66.7327 112.321 65.1604C112.299 64.3732 112.21 63.5898 112.143 62.8027C112.076 62.0156 111.957 61.2396 111.801 60.4636C111.505 58.913 111.095 57.3866 110.572 55.8968C110.059 54.4063 109.459 52.9471 108.775 51.5268C107.427 48.6669 105.702 46.0008 103.644 43.5999C102.604 42.4049 101.436 41.3268 100.162 40.3846C98.8883 39.4306 97.4707 38.6861 95.9625 38.1791C94.4447 37.6875 92.8452 37.4982 91.2546 37.6222C89.6637 37.7173 88.1058 38.1169 86.6655 38.7992C85.2311 39.4925 83.9508 40.4673 82.9007 41.6655C81.8593 42.8574 81.0009 44.1975 80.3537 45.6419C79.1 48.5383 78.3902 51.6407 78.2596 54.7941C78.45 51.6566 79.2152 48.5808 80.5171 45.7199C81.1732 44.3015 82.0352 42.9879 83.0752 41.8214C84.1137 40.6595 85.3767 39.7199 86.788 39.0591C88.2025 38.4131 89.7245 38.0355 91.2769 37.9452C92.8257 37.8317 94.3819 38.0209 95.8585 38.5022C97.3259 39.0064 98.7043 39.7394 99.9426 40.6742C101.191 41.6061 102.335 42.6704 103.355 43.8486C105.4 46.2169 107.117 48.8494 108.46 51.6753C109.84 54.4856 110.865 57.4563 111.512 60.5193C111.675 61.2841 111.757 62.0638 111.883 62.8361C112.009 63.6084 112.054 64.3918 112.084 65.1752C112.175 66.7392 112.185 68.3069 112.113 69.872C111.997 73.0084 111.609 76.1289 110.955 79.1986Z" fill="black"/>
<path opacity="0.3" d="M19.6599 35.0863C19.0752 32.7192 18.0691 30.4768 16.6896 28.4663C15.9915 27.4577 15.1639 26.5452 14.228 25.7522C13.2993 24.9382 12.2399 24.2867 11.0944 23.8253C9.92669 23.3483 8.63339 23.2739 7.41867 23.6136C6.81739 23.7848 6.24715 24.0505 5.72933 24.4008C5.47294 24.5768 5.23198 24.7743 5.00904 24.9911L4.6749 25.3141L4.38157 25.6854C3.64054 26.6663 3.08329 27.7732 2.73678 28.9527C2.39512 30.1212 2.16636 31.3197 2.05363 32.5319C2.23761 31.3365 2.52329 30.1589 2.90758 29.0121C3.27733 27.8694 3.85232 26.8038 4.60435 25.8673L4.89394 25.5295L5.22068 25.2287C5.43606 25.0281 5.66563 24.8432 5.90756 24.6755C6.40004 24.3524 6.93995 24.1081 7.5078 23.9515C8.07669 23.8021 8.66575 23.7445 9.25281 23.7807C9.84054 23.8258 10.4178 23.9611 10.9644 24.1817C12.0764 24.625 13.1056 25.2526 14.009 26.0381C14.9284 26.8114 15.7512 27.6928 16.4594 28.6631C17.1803 29.6279 17.8022 30.6628 18.3159 31.7522C18.6018 32.2868 18.8171 32.866 19.0584 33.4081C19.2998 33.9502 19.4483 34.5183 19.6599 35.0863Z" fill="black"/>
</g>
<g opacity="0.2">
<path opacity="0.2" d="M157.759 73.3397C153.697 73.2171 149.635 73.1243 145.57 73.1689C144.552 73.1689 143.535 73.2023 142.521 73.2617C142.008 73.28 141.498 73.3409 140.995 73.4436C140.92 73.4599 140.85 73.4943 140.791 73.5439C140.754 73.5773 140.75 73.6218 140.732 73.6664C140.713 73.7109 140.732 73.7444 140.732 73.7815C140.768 73.9132 140.824 74.0385 140.899 74.1528C141.039 74.3684 141.196 74.5732 141.367 74.7654C142.052 75.5216 142.778 76.2393 143.542 76.9151C144.285 77.5933 145.053 78.2579 145.848 78.9089L145.948 78.7678C143.873 77.5018 141.771 76.2654 139.729 74.9473C139.6 74.8691 139.476 74.7822 139.358 74.6874C139.258 74.5831 139.174 74.4642 139.109 74.3347C138.968 74.0725 138.862 73.7929 138.794 73.503C138.709 73.225 138.694 72.9306 138.749 72.6454C138.757 72.6158 138.771 72.5881 138.79 72.5637V72.5451H138.827C138.9 72.5336 138.973 72.5262 139.046 72.5228C139.195 72.5228 139.347 72.5228 139.495 72.5043C140.709 72.5043 141.927 72.5488 143.145 72.5934C145.577 72.6899 148.005 72.8161 150.437 72.9647L157.759 73.3397ZM157.759 73.3397C152.902 72.9906 148.042 72.6751 143.178 72.456C141.961 72.404 140.747 72.3483 139.525 72.352C139.373 72.352 139.221 72.352 139.065 72.352C138.985 72.3554 138.906 72.3641 138.827 72.378L138.756 72.3966L138.708 72.43L138.686 72.4597C138.66 72.4974 138.64 72.5387 138.627 72.5822C138.559 72.8945 138.571 73.2186 138.66 73.5253C138.732 73.8287 138.842 74.1219 138.987 74.3978C139.06 74.5407 139.154 74.6721 139.265 74.7877C139.382 74.8894 139.506 74.9825 139.636 75.0661C141.682 76.399 143.765 77.6651 145.855 78.9015L145.956 78.7604C145.172 78.1181 144.4 77.4572 143.646 76.7815C142.883 76.1144 142.158 75.4054 141.474 74.6577C141.308 74.4708 141.156 74.2723 141.018 74.0637C140.95 73.9665 140.9 73.8585 140.869 73.7444C140.867 73.7196 140.867 73.6948 140.869 73.6701C140.869 73.6701 140.869 73.6293 140.888 73.6255C140.93 73.5959 140.978 73.5745 141.029 73.5624C141.518 73.4609 142.015 73.4001 142.514 73.3805C143.524 73.3137 144.541 73.2914 145.555 73.2728C147.586 73.2394 149.62 73.2505 151.651 73.2728C153.682 73.2951 155.728 73.3062 157.759 73.3397Z" fill="black"/>
<path opacity="0.2" d="M190.93 68.2716C191.461 67.7927 191.965 67.284 192.459 66.7679C192.964 66.2577 193.433 65.7131 193.863 65.138C193.976 64.9904 194.06 64.8229 194.111 64.6442L194.208 64.1244L194.401 63.07C194.539 62.3642 194.627 61.6496 194.665 60.9314C194.668 60.8332 194.655 60.7351 194.624 60.6418C194.614 60.6047 194.59 60.5729 194.557 60.5527C194.538 60.5437 194.517 60.5391 194.496 60.5391C194.475 60.5391 194.454 60.5437 194.435 60.5527C194.39 60.5709 194.347 60.5946 194.308 60.6232C194.157 60.725 194.012 60.8353 193.874 60.9536C193.599 61.1838 193.332 61.4215 193.064 61.6628C192.534 62.1417 192.014 62.6356 191.498 63.1294C190.463 64.1195 189.443 65.1232 188.438 66.1405L188.553 66.2667C189.38 65.5662 190.213 64.8732 191.052 64.1875C191.473 63.8459 191.896 63.5093 192.322 63.1776C192.537 63.0106 192.753 62.8472 192.972 62.6913C193.079 62.6139 193.191 62.542 193.306 62.4759L193.38 62.4425C193.336 62.4202 193.38 62.4425 193.38 62.4759C193.38 62.5093 193.421 62.5984 193.439 62.6615C193.566 63.1826 193.624 63.7182 193.61 64.2544C193.607 64.3162 193.596 64.3774 193.577 64.4363C193.545 64.4939 193.511 64.5497 193.473 64.6034L193.246 64.9375L192.786 65.6058L190.93 68.2716ZM190.93 68.2716L192.857 65.6541L193.332 64.9969L193.562 64.6591C193.603 64.6021 193.64 64.5426 193.673 64.4808C193.7 64.4121 193.715 64.3393 193.718 64.2655C193.739 63.7174 193.686 63.1691 193.558 62.6356C193.541 62.5671 193.519 62.5001 193.491 62.4351C193.484 62.4151 193.474 62.3963 193.462 62.3794C193.462 62.3794 193.462 62.3794 193.436 62.346C193.413 62.3371 193.388 62.3371 193.365 62.346C193.327 62.3566 193.289 62.3715 193.254 62.3905C193.134 62.4575 193.017 62.5306 192.905 62.6096C192.682 62.7655 192.463 62.9289 192.248 63.0922C191.817 63.4214 191.39 63.7568 190.967 64.0984C190.12 64.7741 189.281 65.4598 188.449 66.1553L188.561 66.2778L191.609 63.2519C192.121 62.7568 192.639 62.2618 193.161 61.7668C193.425 61.5254 193.688 61.2878 193.963 61.0576C194.095 60.9403 194.234 60.8312 194.379 60.7309C194.412 60.7083 194.447 60.6884 194.483 60.6715C194.483 60.6715 194.524 60.6715 194.483 60.6715C194.442 60.6715 194.483 60.6715 194.483 60.69C194.506 60.7671 194.517 60.8472 194.516 60.9277C194.482 61.639 194.4 62.3473 194.271 63.0477L194.089 64.1021L193.993 64.6293C193.942 64.7953 193.863 64.9511 193.759 65.0897C193.347 65.661 192.901 66.2065 192.422 66.7234C191.939 67.2617 191.449 67.7816 190.93 68.2716Z" fill="black"/>
</g>
<path opacity="0.1" d="M68.8179 38.0492L25.8157 22.8266C25.8157 22.8266 38.0273 31.8488 40.0879 33.0294C42.1485 34.2101 55.589 41.8326 56.9108 41.9403C58.2326 42.0479 65.1236 41.9403 65.1236 41.9403L68.8179 38.0492Z" fill="black"/>
<path opacity="0.1" d="M171.623 54.6085C171.623 54.6085 160.729 46.7187 159.853 46.1952C158.977 45.6717 136.952 34.0876 136.024 33.7906C135.096 33.4935 129.905 35.6024 129.905 35.6024C129.905 35.6024 158.476 47.465 159.823 48.2261C161.171 48.9872 171.623 54.6085 171.623 54.6085Z" fill="black"/>
<path opacity="0.1" d="M109.607 78.9128C110.654 79.1318 111.631 79.3435 112.511 79.5254L116.71 78.5786C117.712 78.3484 120.423 73.3806 120.879 73.0094C121.336 72.6381 127.934 73.3807 131.142 73.2915C134.35 73.2024 147.656 70.3213 148.377 69.7161C149.097 69.1109 146.751 67.6295 146.116 67.0985C145.481 66.5676 129.504 66.6753 125.736 66.4636C122.858 66.3003 114.453 64.106 110.658 63.0849C111.341 70.6517 109.162 78.7494 109.607 78.9128Z" fill="black"/>
<path d="M187.34 73.3398C187.614 72.8645 187.763 65.9327 187.867 65.6691C187.971 65.4054 193.636 60.0627 193.9 59.6914C194.164 59.3201 195.805 51.8053 195.757 51.434C195.708 51.0627 188.453 54.2929 186.846 54.9018C185.238 55.5107 168.486 59.3201 166.265 59.6877C164.045 60.0552 144.519 60.8015 144.308 60.7458C144.096 60.6901 144.783 66.8869 145.206 67.6257C145.629 68.3646 149.227 70.2247 149.598 70.273C149.97 70.3212 163.069 71.3868 163.388 71.6059C163.707 71.8249 167.695 78.5786 168.434 78.5786C172.629 78.5786 186.983 73.9598 187.34 73.3398Z" fill="#263238"/>
<path d="M187.866 65.669L189.151 53.9513L188.501 54.2223L187.866 65.669Z" fill="#455A64"/>
<path d="M163.403 71.6058L153.422 60.4264L152.424 60.4673L163.403 71.6058Z" fill="#455A64"/>
<path d="M187.866 65.669C187.866 65.669 183.263 69.2148 182.895 69.3187C182.527 69.4227 173.156 72.2296 172.284 72.2296C171.411 72.2296 162.905 71.6727 163.403 71.6058C163.9 71.539 187.866 65.669 187.866 65.669Z" fill="#455A64"/>
<path d="M139.774 81.2593C139.176 81.2593 133.262 76.4623 132.824 76.2655C132.386 76.0687 121.436 73.0353 120.88 73.0093C120.323 72.9833 117.349 78.3558 116.714 78.5786C116.079 78.8014 112.073 79.4326 111.727 79.362C111.382 79.2915 116.517 80.7469 117.152 80.7877C117.787 80.8286 139.774 81.2593 139.774 81.2593Z" fill="#263238"/>
<path d="M21.2789 52.8561C22.6675 53.4835 23.6328 53.9105 23.8779 53.9996C25.2405 54.4711 27.7801 53.3573 27.7801 53.3573C27.7801 53.3573 69.4567 68.153 81.1299 72.1331C81.0965 72.0069 80.87 71.1715 80.7066 70.4067C80.7066 70.3621 80.7066 70.3064 80.6769 70.2544C80.6546 70.1319 80.6287 70.0168 80.6101 69.8832C80.6101 69.8832 31.3592 50.1605 30.9917 50.0491C30.6241 49.9378 28.3444 50.3685 27.9731 50.5801C27.6018 50.7917 25.5375 52.96 24.5907 52.908C23.644 52.8561 21.2974 52.3808 21.2974 52.3808C21.2826 52.6147 21.2826 52.7632 21.2789 52.8561Z" fill="#263238"/>
<path d="M90.668 31.2212C90.668 31.2212 83.0232 29.0789 82.3883 28.9935C81.7534 28.9081 72.3451 34.8264 71.0753 35.8994C69.8055 36.9724 65.2016 41.6394 65.1348 41.9439C65.0679 42.2484 70.3699 45.0181 70.3699 45.0181C70.3699 45.0181 78.4973 39.2484 79.5703 38.1679C80.2237 37.4959 90.668 31.2212 90.668 31.2212Z" fill="#263238"/>
<path d="M80.1458 31.2212L82.6965 32.4131L73.5072 38.788L71.1496 37.7447L80.1458 31.2212Z" fill="#37474F"/>
<path d="M13.4559 21.772C13.4559 21.772 11.6885 21.0035 11.5512 20.6879C11.4138 20.3723 11.5512 15.0109 11.6291 14.7139C11.7071 14.4169 13.5747 13.7671 13.5747 13.7671L13.4559 21.772Z" fill="#263238"/>
<path d="M10.1626 21.5196C10.1626 21.5196 8.65517 20.9627 8.57349 20.7065C8.49181 20.4503 8.49552 16.1434 8.57349 15.8056C8.65146 15.4677 10.1626 14.9108 10.1626 14.9108V21.5196Z" fill="#263238"/>
<path d="M7.20326 20.4466C7.20326 20.4466 6.0894 19.7931 5.95574 19.5555C5.82208 19.3179 6.07456 16.4218 6.27134 16.2399C6.64366 16.0532 7.03776 15.9135 7.44458 15.8241L7.20326 20.4466Z" fill="#263238"/>
<path d="M164.639 35.5616L167.921 33.6681L163.447 30.6792L160.922 30.5084L158.435 31.8116L164.639 35.5616Z" fill="#263238"/>
<path d="M137.331 38.6619L129.905 35.6025L122.688 35.8439L130.563 38.9478L137.331 38.6619Z" fill="#263238"/>
<path opacity="0.2" d="M43.9903 55.2397L80.5952 69.8905C80.2031 67.5543 79.928 65.1999 79.771 62.8361C76.4294 61.9116 57.9803 56.7991 56.3578 56.3646C54.583 55.882 43.9903 55.2397 43.9903 55.2397Z" fill="white"/>
<path opacity="0.2" d="M62.4022 0.263558C63.271 0.3044 87.1297 1.30687 88.2955 1.49622C89.4613 1.68558 93.4155 2.98136 93.4155 2.98136L96.9353 2.9071C94.5479 1.79325 92.6395 1.01726 91.5108 0.738802C87.449 -0.259953 73.11 -0.0594588 62.4022 0.263558Z" fill="white"/>
<path opacity="0.2" d="M182.895 54.8424L174.69 56.7879C174.69 56.7879 161.49 47.2607 160.354 46.5219C159.218 45.783 137.257 34.173 136.024 33.798C134.791 33.423 115.054 29.4168 114.044 29.298C113.034 29.1792 88.7634 27.1594 88.7634 27.1594C88.7634 27.1594 108.104 26.506 109.555 26.3463C111.007 26.1867 122.636 24.449 124.065 23.5505C125.494 22.652 130.718 20.428 130.718 20.428L138.515 21.256C138.515 21.256 155.862 29.3983 164.646 35.5616C167.754 37.7447 173.643 42.7571 174.222 43.4439C174.801 44.1308 182.895 54.8424 182.895 54.8424Z" fill="white"/>
<path opacity="0.1" d="M139.57 28.1991C139.57 28.1991 154.444 35.725 155.435 36.2522C156.426 36.7794 167.505 44.3091 167.869 44.6618C168.233 45.0145 179.576 55.429 179.75 55.5775L182.884 54.835C182.884 54.835 174.79 44.1346 174.211 43.4477C173.632 42.7608 167.743 37.7411 164.632 35.5579C158.598 31.3253 148.514 26.157 142.796 23.3352L142.637 23.3018C143.639 24.1632 146.32 28.2028 145.93 28.8228C145.54 29.4429 139.57 28.1991 139.57 28.1991Z" fill="white"/>
<g opacity="0.2">
<path opacity="0.2" d="M183.53 40.2694C182.821 40.6407 182.104 40.9823 181.388 41.3276C180.671 41.6729 179.947 42.0071 179.216 42.3189C178.484 42.6308 177.757 42.9538 177.018 43.2509C176.279 43.5479 175.533 43.8412 174.79 44.1345C175.555 43.908 176.316 43.6667 177.062 43.3919C177.809 43.1172 178.547 42.809 179.29 42.4971C180.033 42.1853 180.742 41.8288 181.451 41.4613C182.16 41.0937 182.854 40.6964 183.53 40.2694Z" fill="black"/>
<path opacity="0.2" d="M173.635 43.1284C172.559 43.3511 171.486 43.5813 170.416 43.8264L167.209 44.569L164.016 45.3561C162.95 45.6234 161.888 45.9056 160.83 46.1915C161.903 45.9687 162.976 45.7385 164.049 45.4935L167.253 44.7509L170.446 43.9638C171.515 43.7039 172.574 43.418 173.635 43.1284Z" fill="black"/>
<path opacity="0.2" d="M160.355 48.3672C158.996 48.3672 157.641 48.3672 156.271 48.3672L152.186 48.4117L148.121 48.5008C146.766 48.5343 145.411 48.5825 144.037 48.6382C145.396 48.6382 146.751 48.6382 148.121 48.6382L152.186 48.5937L156.271 48.5045C157.644 48.4711 159 48.4229 160.355 48.3672Z" fill="black"/>
<path opacity="0.2" d="M182.698 39.3709L175.919 36.4007L172.536 34.9155L170.855 34.1507C170.292 33.9068 169.744 33.6304 169.213 33.3227C168.189 32.6581 167.201 31.9081 166.213 31.1767L163.265 28.949L157.407 24.4379L160.284 26.7584L163.191 29.0455L166.121 31.3067C167.108 32.0492 168.077 32.7918 169.117 33.4861C169.656 33.7938 170.213 34.0703 170.784 34.3141L172.473 35.0566L175.871 36.5418L179.275 37.9861L182.698 39.3709Z" fill="black"/>
<path opacity="0.2" d="M169.403 34.2917C168.753 34.5368 168.126 34.8301 167.509 35.1345C166.889 35.4406 166.284 35.7776 165.697 36.1444C166.347 35.8994 166.971 35.6061 167.591 35.3016C168.211 34.9972 168.816 34.663 169.403 34.2917Z" fill="black"/>
<path opacity="0.2" d="M141.356 40.2695C140.417 40.2361 139.481 40.2101 138.542 40.199L135.724 40.1767L132.906 40.199C131.966 40.199 131.027 40.2361 130.088 40.2695C131.028 40.3066 131.968 40.3301 132.906 40.34L135.724 40.3623L138.542 40.34C139.481 40.3289 140.417 40.3029 141.356 40.2695Z" fill="black"/>
<path opacity="0.2" d="M178.08 53.8696L172.302 48.5788L169.399 45.9501C168.913 45.5157 168.434 45.0776 167.932 44.6506C167.431 44.2236 166.867 43.908 166.332 43.5367C164.191 42.0516 162.04 40.5751 159.879 39.1073C158.799 38.3647 157.718 37.6482 156.623 36.9316C156.074 36.5789 155.543 36.215 154.949 35.8957C154.355 35.5764 153.779 35.3276 153.196 35.038L146.194 31.5405L142.696 29.7881L140.947 28.9118L140.071 28.4774C139.782 28.3219 139.483 28.1855 139.176 28.069C134.149 26.6322 129.096 25.3512 124.047 24.0406L131.599 26.0938C134.112 26.7807 136.641 27.4416 139.136 28.1841C139.436 28.3029 139.73 28.438 140.016 28.5888L140.888 29.0307L142.633 29.9106L146.123 31.6816L153.111 35.2051C153.697 35.4947 154.28 35.7843 154.878 36.0591C155.476 36.3338 155.992 36.7274 156.53 37.0727C157.626 37.7818 158.71 38.5095 159.794 39.2336C161.96 40.689 164.116 42.1568 166.262 43.637C166.796 44.0083 167.342 44.3796 167.862 44.7508C168.382 45.1221 168.842 45.6048 169.347 46.0392L172.258 48.6382L178.08 53.8696Z" fill="black"/>
<path opacity="0.2" d="M189.983 46.1952C189.723 47.3314 189.534 48.4749 189.337 49.6222C189.14 50.7695 188.966 51.9167 188.873 53.0751C189.133 51.9427 189.326 50.7955 189.519 49.6519C189.712 48.5083 189.875 47.3537 189.983 46.1952Z" fill="black"/>
<path opacity="0.2" d="M147.798 53.8695C148.433 54.8832 149.127 55.8559 149.814 56.8398C150.501 57.8237 151.217 58.7705 151.979 59.695C151.344 58.6814 150.653 57.7086 149.962 56.7247C149.272 55.7408 148.574 54.794 147.798 53.8695Z" fill="black"/>
<path opacity="0.2" d="M141.356 53.3572C141.603 54.9686 141.851 56.5775 142.098 58.1839C142.37 59.7879 142.663 61.3881 142.967 62.9846C143.123 63.7841 143.289 64.5799 143.465 65.372C143.558 65.7693 143.647 66.1666 143.754 66.5601C143.84 66.9686 144.011 67.3545 144.256 67.6925C145.283 68.9747 146.632 69.9612 148.165 70.5514C147.416 70.2375 146.715 69.82 146.082 69.3113C145.435 68.827 144.86 68.2532 144.374 67.6071C144.145 67.281 143.987 66.9104 143.91 66.5193C143.806 66.1294 143.717 65.7321 143.632 65.3386C143.461 64.544 143.3 63.747 143.149 62.9475C142.83 61.3547 142.54 59.7582 142.24 58.1579L141.356 53.3572Z" fill="black"/>
<path opacity="0.2" d="M122.361 47.9439C122.19 49.8485 122.038 51.7569 121.919 53.6653C121.853 54.6195 121.808 55.5775 121.767 56.5317C121.726 57.4859 121.678 58.4438 121.719 59.4091C121.763 59.8913 121.844 60.3693 121.964 60.8385C122.072 61.3027 122.183 61.7705 122.298 62.2346C122.532 63.1628 122.77 64.091 123.041 65.0118C123.536 66.8608 124.057 68.7023 124.604 70.5365L123.178 64.9672L122.48 62.1826L122.157 60.7866C122.041 60.3271 121.963 59.859 121.923 59.3868C121.879 58.4438 121.923 57.4821 121.953 56.5279L122.079 53.6616L122.361 47.9439Z" fill="black"/>
<path opacity="0.2" d="M124.058 45.9835C122.496 45.9513 120.933 45.9278 119.369 45.9129L114.683 45.8906L109.997 45.9129C108.435 45.9278 106.872 45.9513 105.308 45.9835C106.87 46.0206 108.433 46.0453 109.997 46.0577H114.683H119.369C120.93 46.0429 122.494 46.0181 124.058 45.9835Z" fill="black"/>
<path opacity="0.2" d="M81.8687 43.1506C80.9664 42.679 80.0345 42.2743 79.1063 41.8659C78.1781 41.4575 77.2499 41.0788 76.2771 40.7521C77.1756 41.2199 78.1075 41.6246 79.0358 42.0367C79.964 42.4488 80.9033 42.8201 81.8687 43.1506Z" fill="black"/>
<path opacity="0.2" d="M111.728 33.9205C112.27 33.215 112.764 32.4799 113.246 31.7373C113.729 30.9948 114.193 30.2336 114.609 29.4502C114.071 30.1557 113.573 30.8908 113.09 31.6334C112.608 32.3759 112.155 33.1371 111.728 33.9205Z" fill="black"/>
<path opacity="0.2" d="M31.9868 40.7521C31.0215 40.7818 30.0524 40.8226 29.0871 40.8783L26.1874 41.0528L23.2914 41.2719C22.326 41.3498 21.3644 41.439 20.399 41.5392C21.3693 41.5095 22.3372 41.4674 23.3025 41.413L26.1985 41.2385L29.0945 41.0194C30.0599 40.9414 31.0252 40.8486 31.9868 40.7521Z" fill="black"/>
<path opacity="0.2" d="M196.065 50.1122C194.349 50.8548 192.629 51.5751 190.904 52.2731C190.039 52.6221 189.174 52.9748 188.305 53.309C187.87 53.4761 187.436 53.6431 186.994 53.7917C186.552 53.9402 186.103 54.0515 185.65 54.1629C182.034 55.0726 178.392 55.882 174.753 56.6951C172.929 57.0961 171.106 57.4884 169.284 57.8721C168.371 58.0577 167.457 58.2433 166.54 58.4141C165.622 58.563 164.696 58.6597 163.767 58.7037C160.054 58.9785 156.341 59.2495 152.602 59.4463C151.674 59.5057 150.746 59.4463 149.814 59.4463L147.018 59.3386L141.449 59.0713C139.592 58.9711 137.736 58.8671 135.88 58.7297C135.415 58.6889 134.948 58.6592 134.495 58.5812C134.042 58.5033 133.585 58.3844 133.132 58.2768L130.422 57.5973C126.805 56.6728 123.2 55.7186 119.595 54.7681L108.765 51.8721C115.956 53.8436 123.156 55.804 130.377 57.6753L133.091 58.3622C133.544 58.4698 133.997 58.5849 134.461 58.674C134.925 58.7632 135.389 58.7854 135.857 58.8263C137.714 58.9711 139.57 59.0787 141.427 59.1975L147.014 59.4797L149.81 59.5948C150.742 59.6208 151.667 59.6765 152.613 59.6208C156.345 59.4277 160.061 59.1419 163.782 58.8782C164.716 58.8297 165.647 58.7293 166.57 58.5775C167.487 58.4067 168.4 58.2062 169.314 58.0243C171.14 57.653 172.96 57.2409 174.783 56.8325C178.421 56.0119 182.06 55.1914 185.676 54.2706C186.125 54.1518 186.578 54.033 187.024 53.8993C187.469 53.7657 187.896 53.5429 188.349 53.3572C189.215 53.0157 190.076 52.6592 190.948 52.2991C192.66 51.5936 194.372 50.8548 196.065 50.1122Z" fill="black"/>
<path opacity="0.2" d="M138.516 21.256L144.828 24.4713L147.983 26.0641C148.507 26.3315 149.042 26.5876 149.554 26.8624C150.066 27.1371 150.586 27.4305 151.095 27.7238C155.179 30.0666 159.263 32.4502 163.269 34.9007C163.77 35.2089 164.272 35.5059 164.754 35.8438L166.176 36.8871C167.123 37.5888 168.059 38.2979 168.987 39.0257C169.915 39.7534 170.843 40.4885 171.72 41.2534C172.619 42.0028 173.466 42.8128 174.255 43.6779C175.778 45.4637 177.203 47.3461 178.64 49.2137C180.077 51.0813 181.477 52.9525 182.895 54.8424C180.144 51.0144 177.423 47.1679 174.441 43.4996C173.658 42.6092 172.808 41.7801 171.898 41.0195C171.007 40.2435 170.09 39.4972 169.165 38.7658C168.241 38.0343 167.309 37.3178 166.358 36.6086L164.936 35.5579C164.45 35.2089 163.938 34.9007 163.451 34.5925C161.431 33.371 159.4 32.1792 157.366 30.9911C155.331 29.803 153.282 28.6186 151.225 27.4824C150.705 27.1966 150.189 26.9144 149.665 26.6433C149.142 26.3723 148.603 26.1235 148.076 25.8599L144.894 24.3191L138.516 21.256Z" fill="black"/>
<path opacity="0.2" d="M174.69 56.7805L165.088 49.7261C163.477 48.5714 161.873 47.4018 160.221 46.2954C158.569 45.189 156.79 44.2868 155.056 43.3251C151.591 41.4019 148.091 39.5281 144.556 37.7039C142.789 36.7943 141.022 35.8883 139.228 35.0307C138.334 34.6 137.431 34.1804 136.511 33.7943C135.577 33.4305 134.614 33.1449 133.633 32.9403C129.753 32.0678 125.855 31.3364 121.953 30.5938L116.101 29.4985C115.136 29.298 114.133 29.1607 113.149 29.0567C112.165 28.9527 111.174 28.8562 110.179 28.7671C106.225 28.3958 102.271 28.0988 98.298 27.798L86.4169 26.9886L98.298 27.98C102.252 28.3067 106.206 28.6297 110.157 29.0121C111.144 29.105 112.132 29.2089 113.127 29.3166C114.122 29.4243 115.08 29.5654 116.057 29.7696L121.904 30.8834C125.795 31.6446 129.701 32.402 133.559 33.2856C134.522 33.483 135.467 33.7587 136.384 34.1099C137.298 34.4812 138.196 34.9007 139.091 35.3203C140.884 36.1668 142.655 37.0653 144.423 37.9601C147.955 39.7695 151.462 41.6259 154.945 43.5294C156.679 44.4873 158.427 45.434 160.109 46.4736C161.791 47.5132 163.369 48.731 164.992 49.8709L174.69 56.7805Z" fill="black"/>
<path opacity="0.2" d="M111.728 33.9205C110.038 33.3413 108.338 32.8067 106.626 32.3129C105.772 32.0567 104.911 31.8265 104.027 31.6149C103.144 31.4309 102.248 31.3216 101.346 31.2881C99.5643 31.2064 97.7821 31.1607 95.9999 31.1508H93.3267C92.4356 31.1508 91.5445 31.1767 90.6535 31.2139L93.323 31.3327L95.9925 31.4292C97.771 31.4961 99.5531 31.5406 101.328 31.652C102.208 31.6723 103.085 31.7667 103.949 31.9342C104.814 32.1309 105.672 32.3649 106.548 32.5802L111.728 33.9205Z" fill="black"/>
<path opacity="0.2" d="M172.284 55.0317C170.056 53.7396 167.812 52.4587 165.553 51.1889C164.424 50.5627 163.29 49.9439 162.152 49.3325C161.015 48.7199 159.872 48.1073 158.695 47.5652C153.992 45.3969 149.275 43.2793 144.545 41.2125C143.951 40.96 143.357 40.7076 142.748 40.4699C142.603 40.4105 142.422 40.3548 142.269 40.3029C142.117 40.2509 141.98 40.2138 141.827 40.1543C141.53 40.0467 141.23 39.9279 140.929 39.8128L137.335 38.3685L133.741 36.913C132.538 36.4341 131.342 35.9514 130.11 35.5281C129.795 35.4227 129.468 35.3554 129.137 35.3277C128.814 35.2868 128.491 35.2571 128.168 35.2311C127.522 35.1754 126.88 35.1309 126.234 35.0937C124.941 35.0158 123.635 34.9527 122.361 34.897C119.777 34.798 117.193 34.715 114.609 34.6482C117.193 34.7744 119.773 34.918 122.35 35.0789C123.638 35.1531 124.93 35.2311 126.215 35.3277C126.861 35.3759 127.503 35.4242 128.146 35.4873C128.465 35.517 128.784 35.5541 129.104 35.595C129.416 35.6268 129.724 35.6954 130.021 35.7992C132.427 36.694 134.814 37.7076 137.205 38.6803L140.799 40.1432C141.1 40.2583 141.401 40.3808 141.705 40.4922C141.857 40.5516 142.017 40.6036 142.184 40.6556C142.351 40.7076 142.462 40.7447 142.618 40.8115C143.212 41.0417 143.806 41.3016 144.4 41.5541C149.146 43.5887 153.861 45.7125 158.576 47.8251C159.753 48.3449 160.897 48.9389 162.044 49.5367L165.463 51.356C167.743 52.5664 170.017 53.7916 172.284 55.0317Z" fill="black"/>
<path opacity="0.2" d="M22.0663 34.3177L30.7172 38.9513L39.383 43.5515L48.0599 48.1295L50.2319 49.273L51.316 49.8448L51.8581 50.1307C51.9064 50.153 51.9472 50.179 51.9992 50.2012L52.17 50.2606C52.2733 50.2936 52.3788 50.3197 52.4856 50.3386C53.3098 50.4945 54.1192 50.5725 54.9398 50.6542C55.7603 50.7359 56.5734 50.7953 57.3902 50.8473C58.2071 50.8993 59.0276 50.9401 59.8481 50.9549C60.2565 50.9549 60.6687 50.9549 61.0845 50.9549L61.4001 50.9327C61.5115 50.9294 61.6223 50.9145 61.7305 50.8881C61.8383 50.8648 61.9405 50.8206 62.0313 50.7582C62.1315 50.7062 62.2206 50.6505 62.306 50.5985C63.7058 49.7297 65.0535 48.8126 66.4161 47.8993C69.1228 46.0614 71.8258 44.2198 74.473 42.2929C75.1302 41.7991 75.7985 41.335 76.4223 40.778L76.8826 40.3845L77.3653 40.0132C77.6809 39.7607 78.0188 39.5268 78.3455 39.2706C79.671 38.3164 81.0336 37.4142 82.3962 36.5083C85.119 34.7038 87.8714 32.9378 90.6536 31.2101C87.8467 32.8932 85.0608 34.6085 82.296 36.3561C80.9185 37.2434 79.5522 38.1382 78.2118 39.0776C77.8814 39.3189 77.5398 39.5491 77.2168 39.8201L76.7267 40.1914L76.2515 40.5924C75.65 41.1196 74.9705 41.5874 74.3134 42.0775C71.6475 43.9661 68.9545 45.8226 66.2342 47.6468C64.8753 48.5527 63.5164 49.4698 62.1315 50.3238L61.8791 50.4723C61.8037 50.5213 61.719 50.5542 61.6303 50.5688C61.5404 50.5909 61.4481 50.6021 61.3555 50.6022C61.259 50.6022 61.1625 50.6208 61.0585 50.6208C60.6575 50.6208 60.2528 50.6208 59.8444 50.6208C59.0313 50.6022 58.2145 50.5577 57.4014 50.5057C56.5883 50.4537 55.7714 50.398 54.962 50.3238C54.1526 50.2495 53.3321 50.1678 52.5487 50.023C52.4545 50.0068 52.3615 49.9845 52.2702 49.9562L52.1514 49.9191C52.1054 49.8985 52.0607 49.8749 52.0177 49.8485L51.472 49.5663L50.3841 48.9983L48.2084 47.8621L39.5055 43.3325L30.7877 38.8214L22.0663 34.3177Z" fill="black"/>
<path opacity="0.2" d="M65.3728 41.8845C63.4644 41.9588 61.556 42.0293 59.6476 42.0033C59.1723 42.0033 58.6934 42.0033 58.2219 41.9588C57.7492 41.9466 57.2785 41.8944 56.8147 41.8028C56.5902 41.7472 56.3705 41.6739 56.1575 41.5838C55.9385 41.4946 55.7157 41.413 55.5041 41.3053C55.0697 41.1122 54.6427 40.9043 54.2194 40.689C50.8222 38.9588 47.5066 37.0578 44.1947 35.1643L41.6997 33.7571C41.2876 33.5195 40.8495 33.2967 40.4559 33.0554C40.0624 32.814 39.6576 32.5467 39.2641 32.2794C37.6824 31.2138 36.1305 30.0999 34.5673 29.0084L25.2147 22.3847C28.2468 24.7163 31.3087 26.996 34.4003 29.2237C35.9423 30.3574 37.5005 31.4638 39.0747 32.543C39.4683 32.814 39.8693 33.0776 40.2777 33.3375C40.6861 33.5974 41.1094 33.8091 41.5252 34.0504L44.0128 35.4724C45.6712 36.413 47.3383 37.3449 49.014 38.2682C50.6922 39.1853 52.3556 40.1023 54.0969 40.9303C54.5276 41.1382 54.962 41.3387 55.4038 41.5281C55.6192 41.632 55.8494 41.71 56.0721 41.7991C56.2999 41.8904 56.5346 41.9636 56.7739 42.0182C57.2494 42.1031 57.7313 42.1478 58.2144 42.1518C58.6934 42.1518 59.1724 42.1741 59.6513 42.1518C61.5634 42.1481 63.4718 42.0442 65.3728 41.8845Z" fill="black"/>
<path opacity="0.2" d="M26.9597 47.4649L24.1602 41.3573C23.7073 40.3363 23.232 39.3189 22.8125 38.2868C22.5905 37.7827 22.4236 37.2562 22.3149 36.7162C22.2154 36.1726 22.1497 35.6233 22.1182 35.0715C22.0328 33.9576 22.0142 32.8437 22.0365 31.7299C22.0365 31.1693 22.0699 30.616 22.0996 30.0554C22.0996 29.7769 22.1404 29.4985 22.1664 29.2237C22.1664 29.0901 22.1924 28.949 22.2184 28.8227C22.2471 28.6953 22.2881 28.5709 22.3409 28.4515C22.7679 27.4304 23.2729 26.4242 23.763 25.4144L25.2295 22.3884C24.1157 24.345 23.0352 26.298 22.0773 28.3289C22.0133 28.4636 21.9623 28.6041 21.9251 28.7485C21.8917 28.897 21.8768 29.0381 21.8583 29.1792C21.8248 29.4613 21.8026 29.7435 21.7803 30.022C21.7432 30.5863 21.7135 31.1358 21.6986 31.7076C21.6652 32.8215 21.6726 33.9613 21.7469 35.09C21.7846 35.6561 21.859 36.2192 21.9697 36.7756C22.0859 37.3357 22.2639 37.8811 22.5006 38.4019C22.9387 39.4415 23.4065 40.4637 23.904 41.4687C24.8743 43.4959 25.8929 45.4946 26.9597 47.4649Z" fill="black"/>
<path opacity="0.2" d="M17.9375 9.7944C17.3991 10.0432 16.8719 10.3142 16.3373 10.5741L14.7519 11.3761L13.1665 12.1743C12.8992 12.3043 12.6356 12.4417 12.372 12.5456C12.253 12.6015 12.1285 12.6451 12.0007 12.6756C11.8596 12.7053 11.7222 12.7424 11.5774 12.7647C10.4227 12.98 9.24202 13.11 8.07247 13.2771L6.30887 13.5035L4.54527 13.756C5.73338 13.73 6.91779 13.6558 8.10218 13.5592C9.28658 13.4627 10.4635 13.3439 11.6442 13.1285C11.7927 13.1063 11.9413 13.0654 12.0898 13.032C12.244 12.994 12.3944 12.9418 12.539 12.8761C12.8175 12.7498 13.0811 12.6162 13.3447 12.4751C13.8682 12.1966 14.3917 11.9144 14.9041 11.6137C15.914 11.0308 16.9387 10.4367 17.9375 9.7944Z" fill="black"/>
<path opacity="0.2" d="M0.0267181 19.4627C0.21151 19.9633 0.427269 20.4518 0.67275 20.9256C0.911006 21.4056 1.18662 21.8662 1.49701 22.3031C1.57905 22.4185 1.67097 22.5266 1.77176 22.6261C1.83026 22.6875 1.89638 22.7411 1.96853 22.7857L2.1319 22.8748C2.35467 23.0011 2.57744 23.1459 2.80392 23.2795C3.25318 23.558 3.70986 23.8253 4.1814 24.0778C3.79676 23.7096 3.3914 23.3638 2.96729 23.0419C2.75566 22.8748 2.54031 22.7263 2.31382 22.5741C2.25813 22.537 2.19502 22.5035 2.1319 22.4664C2.09438 22.4375 2.0596 22.4052 2.02795 22.3699C1.9433 22.2803 1.86513 22.1847 1.79404 22.084C1.48958 21.6682 1.21111 21.2189 0.921505 20.7808C0.631902 20.3427 0.327459 19.8971 0.0267181 19.4627Z" fill="black"/>
<path opacity="0.2" d="M25.6453 25.0728C26.2876 25.5926 26.9448 26.0901 27.5982 26.5876L28.571 27.3302C28.7269 27.4564 28.8903 27.5827 29.0277 27.7015C29.0536 27.7275 29.1019 27.7869 29.0834 27.7609C29.0648 27.7349 29.0834 27.7275 29.0834 27.7089V27.7646C29.0539 27.8537 29.0179 27.9406 28.9757 28.0245C28.8948 28.1944 28.7938 28.3539 28.6749 28.4997C28.6345 28.551 28.5823 28.5918 28.5227 28.6185L28.4707 28.6L28.3297 28.548L27.1898 28.0913L26.0425 27.6346C25.6527 27.4935 25.2703 27.3413 24.8767 27.2077C25.248 27.4193 25.6193 27.6049 25.9646 27.8017L27.0784 28.3549C27.4497 28.5406 27.821 28.7076 28.1923 28.8747L28.3408 28.9341C28.3742 28.9341 28.3816 28.9341 28.4336 28.9675C28.4838 28.9781 28.5356 28.9781 28.5858 28.9675C28.7225 28.9293 28.8442 28.8503 28.9348 28.7411C29.0852 28.5732 29.2103 28.3844 29.3061 28.1804C29.3536 28.0792 29.3946 27.975 29.4287 27.8685L29.4509 27.7757V27.7163V27.7386C29.4498 27.7065 29.4422 27.6749 29.4287 27.6458C29.3933 27.5791 29.3454 27.5198 29.2876 27.4713C29.1302 27.329 28.9653 27.1951 28.7938 27.0703C28.4559 26.8252 28.1217 26.5876 27.7727 26.3648C27.0636 25.9045 26.3618 25.4701 25.6453 25.0728Z" fill="black"/>
<path opacity="0.2" d="M78.2747 31.2212L74.8217 30.2744L71.3614 29.3574L64.4295 27.5641L57.4827 25.8339L54.0001 24.9911L50.5175 24.1742L53.9704 25.121L57.4308 26.0418L64.3626 27.8314L71.3094 29.5616L74.7883 30.4044L78.2747 31.2212Z" fill="black"/>
<path opacity="0.2" d="M56.1167 5.83284C55.3741 5.09027 54.6316 4.37369 53.8259 3.69424C53.6274 3.51837 53.4109 3.36404 53.1798 3.23385C52.9272 3.15601 52.6707 3.09156 52.4113 3.04078L50.8853 2.70663C49.8643 2.48014 48.8432 2.27222 47.8185 2.0643L46.2814 1.76356C46.0233 1.70726 45.7615 1.67003 45.498 1.65218C45.3634 1.63897 45.2279 1.63897 45.0933 1.65218C44.9633 1.65218 44.8334 1.65218 44.7034 1.68931C43.6638 1.82668 42.6354 2.01604 41.6106 2.20539C40.5859 2.39475 39.5574 2.60267 38.5401 2.82172C36.4981 3.25241 34.456 3.69795 32.4362 4.21775C33.4535 3.98384 34.4746 3.78335 35.4993 3.57543L38.5661 2.9591C40.6156 2.56925 42.6502 2.14599 44.7257 1.87124L45.097 1.83411C45.2198 1.81564 45.3442 1.80942 45.4683 1.81554C45.7255 1.83083 45.9812 1.86558 46.2331 1.9195L47.7665 2.21282L50.837 2.82544L52.3704 3.13731C52.6207 3.18307 52.8686 3.24131 53.113 3.31182C53.3374 3.43515 53.5489 3.58067 53.7442 3.74622C54.5796 4.41082 55.3481 5.11626 56.1167 5.83284Z" fill="black"/>
</g>
</g>
<defs>
<clipPath id="clip0">
<rect width="197.152" height="87.0327" fill="white" transform="matrix(-1 0 0 1 197.152 0)"/>
</clipPath>
</defs>
</svg>
