<svg width="29" height="28" viewBox="0 0 29 28" fill="none" xmlns="http://www.w3.org/2000/svg">
<g clip-path="url(#clip0)">
<path d="M27.475 10.2954L18.4057 9.45427L14.8031 1.08879C14.5508 0.503036 13.7203 0.503036 13.4681 1.08879L9.86556 9.45432L0.796259 10.2954C0.161229 10.3543 -0.0954187 11.1442 0.383698 11.565L7.22651 17.5764L5.22397 26.4618C5.08375 27.0839 5.75564 27.572 6.30399 27.2464L14.1356 22.5961L21.9672 27.2464C22.5156 27.572 23.1875 27.0839 23.0473 26.4618L21.0447 17.5764L27.8875 11.565C28.3666 11.1442 28.11 10.3543 27.475 10.2954Z" fill="#FFDC64"/>
<path d="M14.8031 1.08879C14.5508 0.503036 13.7203 0.503036 13.4681 1.08879L9.86556 9.45432L0.796259 10.2954C0.161229 10.3543 -0.0954186 11.1442 0.383698 11.565L7.22651 17.5764L5.22397 26.4618C5.08375 27.0839 5.75564 27.572 6.30399 27.2464L8.05196 26.2085C8.2939 16.2499 12.921 9.23694 16.5844 5.22513L14.8031 1.08879Z" fill="#FFC850"/>
</g>
<defs>
<clipPath id="clip0">
<rect width="28" height="28" fill="white" transform="translate(0.135742)"/>
</clipPath>
</defs>
</svg>
