<svg width="46" height="60" viewBox="0 0 46 60" fill="none" xmlns="http://www.w3.org/2000/svg">
<path d="M42.6957 33.2415L33.7455 19.2109C35.0136 18.5445 35.8811 17.2147 35.8811 15.6854C35.8811 14.0114 34.842 12.5765 33.3753 11.9891L36.0867 2.50971C36.2036 2.10074 36.0896 1.66063 35.7889 1.35985C33.9853 -0.443674 31.0508 -0.443674 29.2471 1.35985C28.8157 1.7913 28.2421 2.02885 27.632 2.02885C27.0219 2.02885 26.4483 1.7913 26.0141 1.35704L26.0084 1.3513C24.2112 -0.446133 21.2817 -0.451167 19.4772 1.34065L19.4436 1.37413C18.553 2.25845 17.1065 2.25588 16.2191 1.3684L16.2106 1.35985C14.4069 -0.443674 11.4724 -0.443674 9.66874 1.35985C9.36784 1.66087 9.25392 2.10133 9.37112 2.51053L12.0883 11.9869C10.6185 12.5728 9.5766 14.0092 9.5766 15.6855C9.5766 17.2148 10.4439 18.5446 11.7122 19.211L2.76187 33.2415C-0.700704 38.6694 -0.920115 45.2805 2.17494 50.9261C5.26999 56.5717 10.9616 59.9422 17.4 59.9422H28.0575C34.4958 59.9422 40.1873 56.5717 43.2825 50.9261C46.3776 45.2805 46.1583 38.6694 42.6957 33.2415ZM14.5547 3.01562L14.5632 3.02417C16.3607 4.82148 19.29 4.8264 21.0944 3.03482L21.128 3.00133C22.0185 2.11702 23.465 2.11959 24.3552 3.00976L24.361 3.0155C26.1646 4.81903 29.0991 4.81903 30.9028 3.0155C31.6366 2.28163 32.7497 2.15249 33.6171 2.62808L31.0211 11.7046H14.4436L11.8408 2.62796C12.7082 2.15249 13.8209 2.28187 14.5547 3.01562ZM41.2292 49.8005C38.5516 54.6847 33.6276 57.6007 28.0576 57.6007H17.4001C11.8301 57.6007 6.90608 54.6848 4.22843 49.8005C1.55077 44.9163 1.74056 39.1969 4.73609 34.5008L14.1992 19.6661H17.4602C18.1068 19.6661 18.631 19.142 18.631 18.4953C18.631 17.8487 18.1068 17.3245 17.4602 17.3245H13.5574C12.6535 17.3245 11.9182 16.5892 11.9182 15.6854C11.9182 14.7815 12.6535 14.0462 13.5574 14.0462H13.5612H31.9002C32.8041 14.0462 33.5393 14.7815 33.5393 15.6854C33.5393 16.5892 32.8041 17.3245 31.9002 17.3245H27.9975C27.3509 17.3245 26.8267 17.8487 26.8267 18.4953C26.8267 19.142 27.3509 19.6661 27.9975 19.6661H31.2583L40.7216 34.5008C43.7171 39.1968 43.9069 44.9162 41.2292 49.8005Z" fill="white"/>
<path d="M24.7924 38.2363C24.4986 38.1324 24.1988 38.0243 23.8991 37.9121V32.6057C24.6929 32.8393 25.223 33.218 25.2455 33.2344C25.7605 33.6202 26.4913 33.5179 26.8804 33.0042C27.2709 32.4888 27.1696 31.7545 26.6542 31.3639C26.5855 31.3118 25.4969 30.5037 23.8991 30.1978V29.0326C23.8991 28.386 23.3749 27.8618 22.7283 27.8618C22.0816 27.8618 21.5574 28.386 21.5574 29.0326V30.1894C21.3591 30.2274 21.1581 30.2755 20.9544 30.3368C19.3065 30.8319 18.0748 32.2411 17.7399 34.0144C17.4342 35.6337 17.953 37.1954 19.0938 38.0901C19.7129 38.5757 20.4865 39.0191 21.5574 39.49V46.2802C20.6354 46.2219 20.0186 46.0121 18.9904 45.3395C18.4494 44.9853 17.7236 45.1372 17.3697 45.6783C17.0156 46.2195 17.1673 46.945 17.7085 47.2991C19.2078 48.2799 20.2231 48.5577 21.5574 48.6234V49.8341C21.5574 50.4808 22.0816 51.0049 22.7283 51.0049C23.3749 51.0049 23.8991 50.4808 23.8991 49.8341V48.5017C26.4063 47.9526 27.8726 45.8605 28.2016 43.9034C28.6316 41.3447 27.2935 39.1202 24.7924 38.2363ZM20.5389 36.2475C20.0889 35.8945 19.898 35.2053 20.0409 34.4488C20.1722 33.7531 20.6403 32.9142 21.5574 32.6038V36.8917C21.1725 36.6865 20.8251 36.472 20.5389 36.2475ZM25.8923 43.515C25.7237 44.5178 25.0468 45.5814 23.899 46.0513V40.4034C23.9371 40.417 23.9733 40.4303 24.0119 40.444C26.1111 41.1859 25.982 42.9822 25.8923 43.515Z" fill="white"/>
<path d="M22.7289 19.6662C23.0368 19.6662 23.3389 19.5409 23.5567 19.3231C23.7745 19.1054 23.8997 18.8033 23.8997 18.4954C23.8997 18.1874 23.7745 17.8854 23.5567 17.6676C23.3389 17.4498 23.0368 17.3246 22.7289 17.3246C22.421 17.3246 22.1189 17.4498 21.9012 17.6676C21.6834 17.8854 21.5581 18.1874 21.5581 18.4954C21.5581 18.8033 21.6834 19.1054 21.9012 19.3231C22.1189 19.5409 22.4209 19.6662 22.7289 19.6662Z" fill="white"/>
</svg>
