<svg width="182" height="180" viewBox="0 0 182 180" fill="none" xmlns="http://www.w3.org/2000/svg">
<g clip-path="url(#clip0)">
<path d="M83.1886 37.1419C83.1886 37.1419 77.3538 44.106 76.2873 50.1917C75.2834 56.2147 73.0248 73.7191 75.2834 76.9188C77.5421 80.1185 80.1144 80.1185 80.8045 80.1185C81.4947 80.1185 113.304 82.3144 113.115 77.2325C112.927 72.1506 109.853 38.5849 109.853 38.5849C109.853 38.5849 96.113 31.4326 83.1886 37.1419Z" fill="#37354C"/>
<path d="M115.876 44.9214C115.876 44.9214 119.577 71.6485 119.828 75.6638C120.079 79.6791 119.013 97.8736 119.013 97.8736L115.311 97.6227L107.594 48.0584L115.876 44.9214Z" fill="#F2AF97"/>
<path d="M107.908 34.632C105.649 34.0673 98.3088 33.0007 92.9759 32.938C92.9759 32.938 92.9132 32.938 92.8505 32.938C92.725 32.938 92.725 32.938 92.725 32.938C90.7801 33.0635 83.6277 33.0007 81.3691 36.7651C78.8595 40.9059 77.6047 74.9108 77.6047 74.9108H109.163C109.1 74.9108 108.849 34.8202 107.908 34.632Z" fill="#D65C5C"/>
<path d="M80.8672 35.5732C80.8672 35.5732 66.3744 55.5872 64.8059 60.5436C63.2374 65.5 62.7355 66.9431 66.3744 68.7625C70.3897 70.7074 72.8366 65.9392 73.7777 62.5513C75.2207 57.0929 78.9223 48.5603 79.1105 47.8702C79.487 46.8664 80.8672 35.5732 80.8672 35.5732Z" fill="#E08D73"/>
<path d="M102.45 146.999L102.638 163.499L103.391 165.318L108.222 166.511L107.845 143.422L102.45 146.999Z" fill="#F2AF97"/>
<path d="M88.3331 149.383L87.392 163.562L83.6276 162.935L82.6865 148.567L88.3331 149.383Z" fill="#F2AF97"/>
<path d="M77.542 74.9111L82.6866 151.893L88.2077 152.144L90.2781 82.2517L96.5521 82.4399C96.5521 82.4399 100.128 124.036 99.8773 124.664C99.6891 125.291 102.199 152.206 102.199 152.206L108.473 151.955L110.104 124.036L109.037 74.9111H77.542Z" fill="#6571B7"/>
<path d="M107.406 163.938C107.406 163.938 106.528 161.868 107.72 161.68C108.912 161.491 109.539 162.244 109.539 162.244L112.363 165.507L113.806 167.891L111.547 166.824L107.406 163.938Z" fill="#D3AF53"/>
<path d="M102.826 162.872C102.826 162.872 103.767 165.193 104.771 164.816C105.336 164.566 106.339 162.746 107.092 162.997C107.845 163.311 110.668 165.444 111.735 166.009C112.802 166.573 109.539 162.244 109.539 162.244C109.539 162.244 112.3 165.193 113.304 165.695C114.245 166.197 122.401 168.33 122.589 170.902L122.463 172.533C122.463 172.533 119.766 174.98 113.492 172.847C107.218 170.714 103.642 170.275 102.512 169.836C101.32 169.396 101.885 162.934 102.826 162.872Z" fill="#EAD18C"/>
<path d="M114.684 172.031C111.672 171.53 106.716 169.334 104.771 169.083C103.642 168.957 102.575 168.581 101.822 168.267C101.885 169.145 102.073 169.773 102.387 169.898C103.516 170.337 107.092 170.777 113.366 172.91C119.64 175.043 122.338 172.596 122.338 172.596L122.464 170.965C121.773 172.22 117.695 172.533 114.684 172.031Z" fill="white"/>
<path d="M109.037 165.632C108.975 165.632 108.912 165.632 108.912 165.57C108.786 165.507 108.724 165.319 108.786 165.13C108.786 165.068 109.539 163.75 110.543 163.562C110.919 163.499 111.359 163.625 111.672 163.876C111.798 164.001 111.798 164.189 111.735 164.315C111.61 164.44 111.421 164.44 111.296 164.377C111.108 164.189 110.857 164.127 110.669 164.189C110.104 164.315 109.539 165.13 109.351 165.444C109.288 165.57 109.163 165.632 109.037 165.632Z" fill="white"/>
<path d="M109.978 166.511C109.916 166.511 109.853 166.511 109.853 166.448C109.727 166.385 109.665 166.197 109.727 166.009C109.727 165.946 110.48 164.629 111.484 164.44C111.861 164.378 112.3 164.503 112.614 164.754C112.739 164.879 112.739 165.068 112.676 165.193C112.551 165.319 112.363 165.319 112.237 165.256C112.049 165.068 111.798 165.005 111.61 165.068C111.045 165.193 110.48 166.009 110.292 166.322C110.229 166.511 110.104 166.511 109.978 166.511Z" fill="white"/>
<path d="M111.171 167.138C111.108 167.138 111.045 167.138 111.045 167.075C110.92 167.012 110.857 166.824 110.92 166.636C110.92 166.573 111.672 165.255 112.676 165.067C113.053 165.005 113.492 165.13 113.806 165.381C113.931 165.506 113.931 165.695 113.868 165.82C113.743 165.946 113.555 165.946 113.429 165.883C113.241 165.695 112.99 165.632 112.802 165.695C112.237 165.82 111.673 166.636 111.484 166.949C111.422 167.075 111.296 167.138 111.171 167.138Z" fill="white"/>
<path d="M112.425 167.703C112.362 167.703 112.3 167.703 112.3 167.64C112.174 167.577 112.112 167.389 112.174 167.201C112.174 167.138 112.927 165.82 113.931 165.632C114.307 165.569 114.747 165.695 115.06 165.946C115.186 166.071 115.186 166.26 115.123 166.385C114.998 166.511 114.809 166.511 114.684 166.448C114.496 166.26 114.245 166.197 114.056 166.26C113.492 166.385 112.927 167.201 112.739 167.514C112.676 167.703 112.551 167.703 112.425 167.703Z" fill="white"/>
<path d="M71.8955 46.8035L79.4243 56.2144L86.6393 33.6909C86.6393 33.6909 78.6086 33.6909 76.8519 36.5142C75.4089 38.8356 72.5856 42.6627 71.8955 46.8035Z" fill="#D65C5C"/>
<path d="M101.007 148.693H109.351L109.037 152.332L101.509 152.269L101.007 148.693Z" fill="#7983E2"/>
<path d="M81.4319 148.567L89.9017 148.63L89.588 152.206H81.9338L81.4319 148.567Z" fill="#7983E2"/>
<path d="M77.6048 65.1232C79.4242 63.8684 82.4985 50.3794 83.1259 48.2463C84.4434 43.7917 84.9453 38.3334 84.8826 33.6907C83.3141 33.0633 81.5574 33.5652 79.9261 34.1926C78.2949 40.4038 75.2207 57.9709 75.4089 64.3703C76.0363 64.8723 76.8519 65.1232 77.6048 65.1232Z" fill="#524F63"/>
<path d="M82.8749 47.3054C82.8749 49.4385 81.1182 51.1952 78.9851 51.1952C76.8519 51.1952 75.0952 49.4385 75.0952 47.3054C75.0952 45.1722 76.8519 43.4155 78.9851 43.4155C81.181 43.4155 82.8749 45.1722 82.8749 47.3054Z" fill="#F2AF97"/>
<path d="M76.1617 49.2505L65.1195 61.7357C65.1195 61.7357 60.3513 68.1351 64.994 70.4565C68.3192 72.0877 71.0798 68.637 72.8365 66.5039C73.1502 66.1275 78.7968 51.3836 78.7968 51.3836L76.1617 49.2505Z" fill="#F2AF97"/>
<path d="M100.756 33.6281C98.4969 33.2517 95.8618 33.0007 92.9758 32.938C92.9758 32.938 92.9131 32.938 92.8503 32.938C92.7248 32.938 92.7249 32.938 92.7249 32.938C91.6583 33.0007 89.2114 33.0007 86.7646 33.5654C86.7018 34.8202 93.6032 42.5372 93.6032 42.5372C93.6032 42.5372 100.442 35.6358 100.756 33.6281Z" fill="#F2AF97"/>
<path d="M92.9758 25.5347C91.2191 25.5347 89.8389 26.9149 89.8389 28.6716V34.5064C89.8389 36.2631 91.2191 37.6434 92.9758 37.6434C94.7326 37.6434 96.1128 36.2631 96.1128 34.5064V28.6716C96.1128 26.9777 94.7326 25.5347 92.9758 25.5347Z" fill="#F2AF97"/>
<path d="M92.9758 23.6523C91.2191 23.6523 89.8389 25.0326 89.8389 26.7893V30.8047C90.8427 31.1184 91.9093 31.2438 92.9758 31.2438C94.0424 31.2438 95.109 31.0556 96.1128 30.8047V26.7893C96.1128 25.0954 94.7326 23.6523 92.9758 23.6523Z" fill="#E08D73"/>
<path d="M103.67 20.3812C104.625 14.4635 100.602 8.89208 94.6843 7.93716C88.7666 6.98224 83.1952 11.0054 82.2403 16.9232C81.2853 22.8409 85.3085 28.4123 91.2263 29.3672C97.144 30.3221 102.715 26.299 103.67 20.3812Z" fill="#F2AF97"/>
<path d="M82.4983 22.5235C84.3001 22.5235 85.7608 21.0628 85.7608 19.261C85.7608 17.4592 84.3001 15.9985 82.4983 15.9985C80.6965 15.9985 79.2358 17.4592 79.2358 19.261C79.2358 21.0628 80.6965 22.5235 82.4983 22.5235Z" fill="#F2AF97"/>
<path d="M106.402 19.261C106.402 21.0804 104.959 22.5235 103.14 22.5235C101.32 22.5235 99.8772 21.0804 99.8772 19.261C99.8772 17.4415 101.32 15.9985 103.14 15.9985C104.959 15.9985 106.402 17.4415 106.402 19.261Z" fill="#F2AF97"/>
<path d="M89.9018 19.7629C89.9018 20.2021 89.5253 20.5785 89.0861 20.5785C88.647 20.5785 88.2705 20.2021 88.2705 19.7629C88.2705 19.3237 88.647 18.9473 89.0861 18.9473C89.5253 18.9473 89.9018 19.261 89.9018 19.7629Z" fill="#37354C"/>
<path d="M97.4933 19.7629C97.4933 20.2021 97.1168 20.5785 96.6777 20.5785C96.2385 20.5785 95.8621 20.2021 95.8621 19.7629C95.8621 19.3237 96.2385 18.9473 96.6777 18.9473C97.1168 18.9473 97.4933 19.261 97.4933 19.7629Z" fill="#37354C"/>
<path d="M86.5764 17.5667L86.1372 17.1276C87.7684 15.3709 89.9016 15.81 89.9643 15.81L89.8388 16.4374C89.7761 16.4374 87.9567 16.061 86.5764 17.5667Z" fill="#37354C"/>
<path d="M99.0615 17.5667C97.6813 16.1237 95.8618 16.4374 95.7991 16.4374L95.6736 15.81C95.7363 15.81 97.8695 15.3709 99.5007 17.1276L99.0615 17.5667Z" fill="#37354C"/>
<path d="M80.1143 174.542C80.1143 174.542 79.6751 176.236 79.9261 177.239C80.177 178.181 81.1809 179.875 83.565 180C85.9491 180.063 89.0233 180.251 88.8351 173.601L80.1143 174.542Z" fill="white"/>
<path d="M83.6277 163.939C83.8159 163.562 83.1885 160.739 85.1334 160.864C87.0784 160.99 87.3293 161.868 87.2038 163.311C87.0784 164.692 86.1373 170.338 86.1373 170.338L83.3767 170.589L83.6277 163.939Z" fill="#D3AF53"/>
<path d="M83.2513 161.994C83.2513 161.994 82.4356 166.888 82.3102 167.076C82.2474 167.264 79.7378 174.73 80.0515 175.922C80.3025 176.8 81.8082 177.992 84.9452 177.867C87.3921 177.804 89.1488 175.546 88.7724 173.162C88.4587 171.028 88.0822 167.013 88.0822 166.95C88.0822 166.825 87.7058 161.931 87.7058 161.931C87.7058 161.931 85.3844 165.382 85.1962 169.648L84.3178 169.585C84.3178 169.585 84.5688 161.743 83.2513 161.994Z" fill="#EAD18C"/>
<path d="M86.8902 164.441C86.8274 164.441 86.702 164.441 86.6392 164.378C85.2589 162.998 83.8787 164.19 83.8159 164.253C83.6905 164.378 83.5022 164.378 83.3768 164.19C83.2513 164.064 83.2513 163.876 83.4395 163.751C84.1296 163.186 85.6981 162.496 87.1411 163.939C87.2666 164.064 87.2666 164.253 87.1411 164.378C87.0784 164.378 87.0157 164.441 86.8902 164.441Z" fill="white"/>
<path d="M86.7019 166.009C86.6392 166.009 86.5137 166.009 86.451 165.946C85.0707 164.566 83.6904 165.758 83.6277 165.821C83.5022 165.946 83.314 165.946 83.1885 165.758C83.063 165.633 83.063 165.444 83.2513 165.319C83.9414 164.754 85.5099 164.064 86.9529 165.507C87.0784 165.633 87.0784 165.821 86.9529 165.946C86.8902 166.009 86.7647 166.009 86.7019 166.009Z" fill="white"/>
<path d="M86.5137 167.64C86.451 167.64 86.3255 167.64 86.2627 167.578C84.8825 166.197 83.5022 167.389 83.4395 167.452C83.314 167.578 83.1258 167.578 83.0003 167.389C82.8748 167.264 82.8748 167.076 83.063 166.95C83.7532 166.386 85.3217 165.696 86.7647 167.139C86.8901 167.264 86.8901 167.452 86.7647 167.578C86.6392 167.64 86.5764 167.64 86.5137 167.64Z" fill="white"/>
<path d="M86.2627 169.272C86.2 169.272 86.0745 169.272 86.0118 169.209C84.6315 167.829 83.2512 169.021 83.1885 169.084C83.063 169.209 82.8748 169.209 82.7493 169.021C82.6238 168.895 82.6238 168.707 82.8121 168.582C83.5022 168.017 85.0707 167.327 86.5137 168.77C86.6392 168.895 86.6392 169.084 86.5137 169.209C86.451 169.209 86.3882 169.272 86.2627 169.272Z" fill="white"/>
<path d="M117.131 47.0545L109.602 56.4654L102.387 33.9419C102.387 33.9419 110.417 33.9419 112.174 36.7652C113.617 39.0865 116.44 42.9137 117.131 47.0545Z" fill="#D65C5C"/>
<path d="M108.598 65.1232C106.779 63.8684 103.704 50.3794 103.077 48.2463C101.76 43.7917 101.258 38.3334 101.32 33.6907C102.889 33.0633 104.646 33.5652 106.277 34.1926C107.908 40.4038 110.982 57.9709 110.794 64.3703C110.167 64.8723 109.351 65.1232 108.598 65.1232Z" fill="#524F63"/>
<path d="M97.9324 10.9792C96.8659 11.9203 94.6072 12.0458 93.227 11.983C92.2231 11.9203 91.1566 11.7948 90.1527 11.6066C89.2116 11.4184 88.3333 11.1674 87.5177 10.6028C86.2629 9.78714 85.4473 8.28139 85.1336 6.7129C84.8199 5.14441 85.0081 1.56825 85.4473 0.0625C88.7725 3.51318 92.7878 2.7603 96.0502 4.3288C96.7404 4.64249 97.4305 5.20715 97.556 6.02277C97.9952 5.39537 98.8108 5.83455 99.4382 6.14824C100.756 6.90112 102.136 7.77948 102.952 9.22249C103.391 10.0381 103.642 10.9792 103.704 11.9203C103.893 13.928 103.704 16.3748 102.638 18.006C102.199 16.1866 101.948 14.6808 101.258 13.3633C100.693 12.0458 99.3127 10.9165 97.9324 10.9792Z" fill="#37354C"/>
<path d="M83.063 17.2531C82.4984 16.4375 81.9337 15.6218 81.7455 14.618C81.5573 13.6142 81.8082 12.6103 82.1219 11.6692C82.4984 10.4772 83.0003 9.28514 83.5649 8.21857C83.8786 7.59117 84.3178 6.96377 84.8825 6.65008C85.8236 6.2109 86.9529 6.71281 87.3293 7.77939C87.643 8.78322 86.8274 9.91254 86.3882 10.7909C85.3216 12.924 83.8159 14.869 83.063 17.2531Z" fill="#37354C"/>
<path d="M89.3997 23.0879C89.6506 24.9073 91.2191 26.2249 93.1013 26.2249C94.9835 26.2249 96.4892 24.8446 96.8029 23.0879H89.3997Z" fill="#823F4A"/>
<path d="M89.3997 23.0879C89.4624 23.5271 89.5879 23.9035 89.8388 24.2799H94.9207C95.4227 24.2799 95.7991 23.9035 95.7991 23.4016V23.0879H89.3997Z" fill="white"/>
<path d="M78.0439 82.3772H78.1066C81.1809 81.2478 83.1258 78.1736 82.8749 74.9111H77.542L78.0439 82.3772Z" fill="#4758A0"/>
<path d="M109.1 74.9111H102.575L103.767 78.6755C104.269 80.1813 105.147 81.4988 106.339 82.5654C107.343 83.4437 108.535 84.4476 109.351 85.0122L109.1 74.9111Z" fill="#4758A0"/>
<path d="M106.339 99.1284L106.465 112.806L106.59 113.182C107.218 114.939 109.602 115.253 110.606 113.621L110.794 113.308L111.484 99.0029L106.339 99.1284Z" fill="#C45553"/>
<path d="M123.656 98.689L111.484 98.8772L108.724 114.625L121.585 113.307C123.154 113.182 124.409 111.802 124.283 110.17L123.656 98.689Z" fill="#C45553"/>
<path d="M106.967 99.0029L107.155 111.802C107.155 111.802 107.092 113.182 108.41 113.182C109.727 113.182 109.476 111.551 109.476 111.551L109.853 98.8774L106.967 99.0029Z" fill="white"/>
<path d="M119.954 100.007C119.954 102.14 118.197 103.896 116.064 103.896C113.931 103.896 112.174 102.14 112.174 100.007C112.174 97.8734 113.931 96.1167 116.064 96.1167C118.197 96.1167 119.954 97.8107 119.954 100.007Z" fill="#F2AF97"/>
<path d="M46.1097 38.585C45.545 37.8321 44.7294 37.2675 43.7883 37.0792C41.5297 36.5146 36.8242 35.5735 31.4913 35.5107C31.4913 35.5107 31.4286 35.5107 31.3658 35.5107C31.2404 35.5107 31.2404 35.5107 31.2404 35.5107C29.2954 35.6362 22.1431 35.5735 19.8845 39.3379C17.3749 43.4787 16.1201 77.4836 16.1201 77.4836H47.6782C47.6782 77.4836 47.0508 62.1751 45.9214 50.882C48.9329 56.403 52.8855 63.5554 52.8855 63.8691C52.8855 64.371 56.9636 71.0214 56.9636 71.0214C56.9636 71.0214 61.8573 70.6449 64.2414 69.0764C67.2529 66.9433 50.1877 43.9806 46.1097 38.585Z" fill="#413339"/>
<path d="M19.3824 36.8906C19.3824 36.8906 16.8728 44.7331 16.3709 48.1838C15.9318 51.6344 10.7244 76.6676 10.7244 76.6676H12.6066C12.6066 76.6676 17.6257 49.1876 18.0022 47.9328C18.3159 46.678 21.2646 38.0827 21.2646 38.0827L19.3824 36.8906Z" fill="#61253F"/>
<path d="M28.9189 49.1879L31.1148 47.243L46.486 45.2354L50.1877 67.006L34.1263 69.0137L28.9189 49.1879Z" fill="#C45553"/>
<path d="M29.6719 49.5642C29.6719 49.5642 30.9267 47.9957 31.1149 47.9957C31.2404 47.9957 45.9842 45.9253 45.9842 45.9253L49.4976 66.5666L47.6154 68.0724L32.9343 69.0762L29.6719 49.5642Z" fill="white"/>
<path d="M45.1103 46.888L28.9006 49.2051L31.9812 70.7558L48.1908 68.4388L45.1103 46.888Z" fill="#C45553"/>
<path d="M25.782 52.6386L27.9779 50.7564L43.3491 48.686L47.0507 70.4567L30.9894 72.4644L25.782 52.6386Z" fill="#9092EC"/>
<path d="M26.5349 53.0149C26.5349 53.0149 27.7897 51.4464 27.9779 51.4464C28.1034 51.4464 42.8472 49.376 42.8472 49.376L46.3606 70.0173L44.4784 71.5231L29.7974 72.5269L26.5349 53.0149Z" fill="white"/>
<path d="M42.0339 50.3314L25.8242 52.6484L28.9048 74.1992L45.1144 71.8821L42.0339 50.3314Z" fill="#9092EC"/>
<path d="M28.9189 68.9511C31.2404 68.9511 33.1224 67.0691 33.1224 64.7475C33.1224 62.4259 31.2404 60.5439 28.9189 60.5439C26.5973 60.5439 24.7153 62.4259 24.7153 64.7475C24.7153 67.0691 26.5973 68.9511 28.9189 68.9511Z" fill="#F2AF97"/>
<path d="M19.3826 38.083C19.3826 38.083 3.94866 57.846 2.38017 62.8024C0.811682 67.7589 0.686203 71.1468 4.3251 72.9662C8.34044 74.9112 12.544 69.2646 13.4851 65.8767C14.9281 60.4183 17.4377 51.0701 17.6886 50.38C18.0023 49.3761 19.3826 38.083 19.3826 38.083Z" fill="#413339"/>
<path d="M47.9917 156.159L49.1837 167.327L50.8777 169.899L54.5166 168.393L53.0109 161.429L51.6306 154.779L47.9917 156.159Z" fill="#F2AF97"/>
<path d="M28.7306 155.029L29.1071 166.26L27.7895 169.083L24.0251 168.079L24.5271 160.99L24.9662 154.214L28.7306 155.029Z" fill="#F2AF97"/>
<path d="M16.0574 77.4204L19.3826 125.918L24.2135 158.355H29.2327L29.0445 124.914L31.9932 84.761L33.8754 84.9492C33.8754 84.9492 42.4708 126.546 42.2198 127.173C42.0316 127.8 47.9918 161.429 47.9918 161.429H53.011L52.4464 126.546L47.6154 77.4204H16.0574Z" fill="#D65C5C"/>
<path d="M53.5129 166.009C53.5129 166.009 52.6346 163.939 53.8266 163.75C55.0187 163.562 55.6461 164.315 55.6461 164.315L58.4693 167.578L59.9124 169.962L57.6537 168.895L53.5129 166.009Z" fill="#37354C"/>
<path d="M48.9329 164.942C48.9329 164.942 49.874 167.264 50.8778 166.887C51.4425 166.636 52.4463 164.817 53.1992 165.068C53.9521 165.382 56.7753 167.515 57.8419 168.079C58.9085 168.644 55.646 164.315 55.646 164.315C55.646 164.315 58.4066 167.264 59.4104 167.766C60.3515 168.268 68.5077 170.401 68.6959 172.973L68.5704 174.604C68.5704 174.604 65.8726 177.051 59.5986 174.918C53.3247 172.785 49.7485 172.346 48.6192 171.906C47.3644 171.467 47.9918 165.005 48.9329 164.942Z" fill="#524F63"/>
<path d="M60.7906 174.04C57.7791 173.538 52.8227 171.342 50.8777 171.091C49.7484 170.966 48.6818 170.589 47.929 170.275C47.9917 171.154 48.1799 171.781 48.4936 171.907C49.6229 172.346 53.1991 172.785 59.4731 174.918C65.747 177.051 68.4448 174.604 68.4448 174.604L68.5703 172.973C67.8802 174.291 63.8021 174.542 60.7906 174.04Z" fill="white"/>
<path d="M55.1442 167.703C55.0815 167.703 55.0187 167.703 55.0187 167.64C54.8933 167.578 54.8305 167.389 54.8933 167.201C54.8933 167.138 55.6461 165.821 56.65 165.633C57.0264 165.57 57.4656 165.695 57.7793 165.946C57.9048 166.072 57.9048 166.26 57.842 166.386C57.7165 166.511 57.5283 166.511 57.4028 166.448C57.2146 166.26 56.9637 166.197 56.7755 166.26C56.2108 166.386 55.6461 167.201 55.4579 167.515C55.3324 167.64 55.2697 167.703 55.1442 167.703Z" fill="#EFF2F7"/>
<path d="M56.0851 168.582C56.0224 168.582 55.9597 168.582 55.9597 168.519C55.8342 168.456 55.7714 168.268 55.8342 168.08C55.8342 168.017 56.5871 166.699 57.5909 166.511C57.9673 166.448 58.4065 166.574 58.7202 166.825C58.8457 166.95 58.8457 167.139 58.7829 167.264C58.6575 167.389 58.4692 167.389 58.3438 167.327C58.1555 167.139 57.9046 167.076 57.7164 167.139C57.1517 167.264 56.5871 168.08 56.3988 168.393C56.3361 168.519 56.2106 168.582 56.0851 168.582Z" fill="#EFF2F7"/>
<path d="M57.2773 169.208C57.2145 169.208 57.1518 169.208 57.1518 169.146C57.0263 169.083 56.9636 168.895 57.0263 168.707C57.0263 168.644 57.7792 167.326 58.783 167.138C59.1595 167.075 59.5987 167.201 59.9124 167.452C60.0378 167.577 60.0378 167.765 59.9751 167.891C59.8496 168.016 59.6614 168.016 59.5359 167.954C59.3477 167.765 59.0967 167.703 58.9085 167.765C58.3439 167.891 57.7792 168.707 57.591 169.02C57.5282 169.146 57.4028 169.208 57.2773 169.208Z" fill="#EFF2F7"/>
<path d="M58.5322 169.773C58.4694 169.773 58.4067 169.773 58.4067 169.711C58.2812 169.648 58.2185 169.46 58.2812 169.271C58.2812 169.209 59.0341 167.891 60.0379 167.703C60.4144 167.64 60.8535 167.766 61.1672 168.017C61.2927 168.142 61.2927 168.33 61.23 168.456C61.1045 168.581 60.9163 168.581 60.7908 168.519C60.6026 168.33 60.3516 168.268 60.1634 168.33C59.5987 168.456 59.0341 169.271 58.8459 169.585C58.7204 169.711 58.6576 169.773 58.5322 169.773Z" fill="#EFF2F7"/>
<path d="M24.9036 165.507C24.9036 165.507 25.782 163.437 24.5899 163.248C23.3978 163.06 22.7704 163.813 22.7704 163.813L19.9472 167.076L18.5042 169.46L20.7628 168.393L24.9036 165.507Z" fill="#37354C"/>
<path d="M29.4837 164.44C29.4837 164.44 28.5426 166.762 27.5388 166.385C26.9741 166.134 25.9703 164.315 25.2174 164.566C24.4645 164.88 21.6412 167.013 20.5747 167.577C19.5081 168.142 22.7705 163.813 22.7705 163.813C22.7705 163.813 20.01 166.762 19.0062 167.264C18.0651 167.766 9.90892 169.899 9.7207 172.471L9.84618 174.102C9.84618 174.102 12.544 176.549 18.8179 174.416C25.0919 172.283 28.6681 171.844 29.7974 171.405C30.9894 170.965 30.362 164.503 29.4837 164.44Z" fill="#524F63"/>
<path d="M17.5632 173.538C20.5747 173.036 25.5311 170.84 27.476 170.589C28.6053 170.464 29.6719 170.087 30.4248 169.773C30.3621 170.652 30.1738 171.279 29.8601 171.405C28.7308 171.844 25.1547 172.283 18.8807 174.416C12.6067 176.549 9.90893 174.102 9.90893 174.102L9.78345 172.471C10.5363 173.789 14.6144 174.04 17.5632 173.538Z" fill="white"/>
<path d="M23.2726 167.201C23.1471 167.201 23.0843 167.138 23.0216 167.013C22.8334 166.699 22.2687 165.884 21.7041 165.758C21.4531 165.695 21.2649 165.758 21.0767 165.946C20.9512 166.072 20.763 166.009 20.6375 165.884C20.512 165.758 20.5747 165.57 20.7002 165.444C21.0767 165.131 21.4531 165.068 21.8295 165.131C22.8334 165.319 23.5235 166.637 23.5863 166.699C23.649 166.825 23.5863 167.013 23.4608 167.138C23.3353 167.138 23.2726 167.201 23.2726 167.201Z" fill="#EFF2F7"/>
<path d="M22.2686 168.08C22.1432 168.08 22.0804 168.017 22.0177 167.891C21.8295 167.578 21.2648 166.762 20.7002 166.637C20.4492 166.574 20.261 166.637 20.0728 166.825C19.9473 166.95 19.7591 166.888 19.6336 166.762C19.5081 166.637 19.5708 166.448 19.6963 166.323C20.0728 166.009 20.4492 165.946 20.8256 166.009C21.8295 166.197 22.5196 167.515 22.5823 167.578C22.6451 167.703 22.5823 167.891 22.4569 168.017C22.3941 168.08 22.3314 168.08 22.2686 168.08Z" fill="#EFF2F7"/>
<path d="M21.0765 168.707C20.951 168.707 20.8883 168.644 20.8255 168.519C20.6373 168.205 20.0727 167.389 19.508 167.264C19.2571 167.201 19.0688 167.264 18.8806 167.452C18.7551 167.578 18.5669 167.515 18.4414 167.389C18.316 167.264 18.3787 167.076 18.5042 166.95C18.8806 166.637 19.2571 166.574 19.6335 166.637C20.6373 166.825 21.3275 168.142 21.3902 168.205C21.4529 168.331 21.3902 168.519 21.2647 168.644C21.202 168.707 21.1392 168.707 21.0765 168.707Z" fill="#EFF2F7"/>
<path d="M19.8846 169.271C19.7591 169.271 19.6964 169.209 19.6337 169.083C19.4454 168.77 18.8808 167.954 18.3161 167.828C18.0652 167.766 17.8769 167.828 17.6887 168.017C17.5632 168.142 17.375 168.079 17.2495 167.954C17.1241 167.828 17.1868 167.64 17.3123 167.515C17.6887 167.201 18.0652 167.138 18.4416 167.201C19.4454 167.389 20.1356 168.707 20.1983 168.77C20.2611 168.895 20.1983 169.083 20.0728 169.209C19.9474 169.271 19.8846 169.271 19.8846 169.271Z" fill="#EFF2F7"/>
<path d="M47.1763 159.17H53.7639L53.4502 162.809L47.6782 162.747L47.1763 159.17Z" fill="#B23F3F"/>
<path d="M23.4607 157.602H30.0484L29.7347 161.241L24.0253 161.178L23.4607 157.602Z" fill="#B23F3F"/>
<path d="M30.9894 64.0571C30.9894 64.0571 56.4617 61.7985 57.6537 63.8689C59.9751 67.947 59.6614 69.8919 56.9008 70.833C54.1403 71.7741 29.1699 67.5706 29.1699 67.5706L30.9894 64.0571Z" fill="#F2AF97"/>
<path d="M18.3788 56.4028C20.1982 55.148 21.0766 52.9522 21.6412 50.819C22.9588 46.3645 23.5862 41.7218 23.5234 37.079C21.9549 36.4516 20.0727 36.1379 18.5042 36.7653C16.873 42.9765 16.0574 49.3133 16.2456 55.7127C16.8103 56.1519 17.6259 56.4028 18.3788 56.4028Z" fill="#D59A4F"/>
<path d="M38.0161 41.5335C38.5181 40.9688 39.02 38.1456 39.3337 36.1379C37.075 35.7615 34.44 35.5105 31.554 35.4478C31.554 35.4478 31.4912 35.4478 31.4285 35.4478C31.303 35.4478 31.303 35.4478 31.303 35.4478C30.2364 35.5105 27.7896 35.5105 25.3427 36.0751C25.28 37.3299 25.1545 39.965 25.9074 40.9061C26.723 42.1609 37.2005 42.4746 38.0161 41.5335Z" fill="#F2AF97"/>
<path d="M31.9304 84.761L24.5898 84.5728L29.0444 124.914L31.9304 84.761Z" fill="#B23F3F"/>
<path d="M31.4912 28.0444C29.7345 28.0444 28.3542 29.4247 28.3542 31.1814V37.0162C28.3542 38.7729 29.7345 40.1532 31.4912 40.1532C33.2479 40.1532 34.6282 38.7729 34.6282 37.0162V31.1814C34.6282 29.4874 33.2479 28.0444 31.4912 28.0444Z" fill="#F2AF97"/>
<path d="M31.4912 26.79C29.7345 26.79 28.3542 28.1703 28.3542 29.927V33.9424C29.3581 34.2561 30.4247 34.3815 31.4912 34.3815C32.5578 34.3815 33.6244 34.1933 34.6282 33.9424V29.927C34.6282 28.2331 33.2479 26.79 31.4912 26.79Z" fill="#E08D73"/>
<path d="M36.6689 12.5372C39.5355 9.67054 39.5355 5.02282 36.6689 2.15619C33.8023 -0.710445 29.1545 -0.710445 26.2879 2.15619C23.4213 5.02282 23.4213 9.67054 26.2879 12.5372C29.1545 15.4038 33.8023 15.4038 36.6689 12.5372Z" fill="#91616A"/>
<path d="M39.1527 26.9424C43.3914 22.7037 43.3914 15.8314 39.1527 11.5927C34.914 7.35405 28.0417 7.35405 23.803 11.5927C19.5643 15.8314 19.5643 22.7037 23.803 26.9424C28.0417 31.1811 34.914 31.1811 39.1527 26.9424Z" fill="#D65C5C"/>
<path d="M31.4912 32.6244C37.4856 32.6244 42.3451 27.7649 42.3451 21.7705C42.3451 15.776 37.4856 10.9165 31.4912 10.9165C25.4967 10.9165 20.6372 15.776 20.6372 21.7705C20.6372 27.7649 25.4967 32.6244 31.4912 32.6244Z" fill="#F2AF97"/>
<path d="M21.0137 25.6607C22.8155 25.6607 24.2761 24.2 24.2761 22.3982C24.2761 20.5964 22.8155 19.1357 21.0137 19.1357C19.2119 19.1357 17.7512 20.5964 17.7512 22.3982C17.7512 24.2 19.2119 25.6607 21.0137 25.6607Z" fill="#F2AF97"/>
<path d="M41.655 25.6607C43.4568 25.6607 44.9175 24.2 44.9175 22.3982C44.9175 20.5964 43.4568 19.1357 41.655 19.1357C39.8532 19.1357 38.3926 20.5964 38.3926 22.3982C38.3926 24.2 39.8532 25.6607 41.655 25.6607Z" fill="#F2AF97"/>
<path d="M20.7629 19.8883C20.7629 19.8883 28.5426 10.5401 37.7026 12.736C37.7026 12.736 32.307 7.34041 26.8486 10.1637C20.1355 13.5516 20.7629 19.8883 20.7629 19.8883Z" fill="#91616A"/>
<path d="M28.4171 21.6452C28.4171 22.0844 28.0407 22.4608 27.6015 22.4608C27.1623 22.4608 26.7859 22.0844 26.7859 21.6452C26.7859 21.206 27.1623 20.8296 27.6015 20.8296C28.0407 20.8296 28.4171 21.1433 28.4171 21.6452Z" fill="#662F20"/>
<path d="M36.0084 21.6452C36.0084 22.0844 35.632 22.4608 35.1928 22.4608C34.7536 22.4608 34.3772 22.0844 34.3772 21.6452C34.3772 21.206 34.7536 20.8296 35.1928 20.8296C35.632 20.8296 36.0084 21.1433 36.0084 21.6452Z" fill="#662F20"/>
<path d="M28.417 18.0064C28.417 18.0064 26.4093 17.63 24.9036 19.1984" stroke="#662F20" stroke-width="0.75" stroke-miterlimit="10"/>
<path d="M34.3145 18.0064C34.3145 18.0064 36.3221 17.63 37.8279 19.1984" stroke="#662F20" stroke-width="0.75" stroke-miterlimit="10"/>
<path d="M36.3221 25.8486C36.3221 25.8486 34.189 28.0445 30.9893 27.2916" stroke="#662F20" stroke-width="0.75" stroke-miterlimit="10"/>
<path d="M1.94093 86.3296C1.12532 88.0863 0.56066 90.0313 0.811619 91.9135C1.12532 94.1093 2.50559 95.9915 4.2623 97.3718C5.26613 98.1874 6.39545 98.8148 7.65024 98.8776C9.28147 98.9403 10.7872 97.8737 11.7283 96.5562C15.179 91.5998 16.7475 81.8124 12.8576 76.605C11.5401 74.8483 10.0343 73.9072 8.2149 75.5384C6.83462 76.7305 6.01901 79.1773 5.07791 80.7458C4.01134 82.5652 2.88203 84.3847 1.94093 86.3296Z" fill="#D59A4F"/>
<path d="M2.56836 95.1758C4.19959 91.8506 5.83082 88.4627 7.46205 85.1375C8.71684 82.5024 10.2226 79.5536 10.7245 76.6676C12.2303 75.601 14.3634 75.7892 15.8692 76.9186C17.3749 77.9851 18.1905 79.8046 18.5042 81.624C18.8179 83.4435 18.6297 85.2629 18.3787 87.0824C17.7514 91.8506 16.8103 96.6816 14.2379 100.76C11.2892 101.889 7.90123 101.763 5.26616 100.007C3.69767 99.0029 2.81932 96.9952 2.56836 95.1758Z" fill="#BD8747"/>
<path d="M13.8614 75.1621C12.4184 74.0328 10.4735 73.3426 8.71678 73.8446C7.9639 74.0328 7.27377 74.472 6.58363 74.9111C4.6387 76.1659 2.81925 77.6089 1.12528 79.1774C0.811583 79.4284 0.497885 79.7421 0.435145 80.1813C0.372405 80.495 0.497885 80.8087 0.623364 81.0596C1.06254 82.1262 1.56446 83.13 2.31733 84.0711C2.69377 84.5103 3.07021 84.9495 3.57213 85.2004C4.13678 85.4514 4.76418 85.4514 5.39158 85.3259C7.02281 85.0122 8.46582 84.0084 9.84609 83.0673C13.0458 80.6832 18.5669 78.8637 13.8614 75.1621Z" fill="#B37637"/>
<path d="M14.677 85.8277C13.1085 85.8277 11.791 84.5102 11.791 82.9417C11.791 81.3732 13.1085 80.0557 14.677 80.0557C16.2455 80.0557 17.5631 81.3732 17.5631 82.9417C17.5631 84.5102 16.2455 85.8277 14.677 85.8277ZM14.677 80.6831C13.4222 80.6831 12.4184 81.6869 12.4184 82.9417C12.4184 84.1965 13.4222 85.2003 14.677 85.2003C15.9318 85.2003 16.9357 84.1965 16.9357 82.9417C16.9357 81.6869 15.9318 80.6831 14.677 80.6831Z" fill="#EAD18C"/>
<path d="M2.88195 80.4321C2.88195 80.4321 1.43894 82.9417 2.0036 86.3924L2.50551 86.8316C2.50551 86.8316 3.00743 81.436 3.69757 81.3105L2.88195 80.4321Z" fill="#61253F"/>
<path d="M22.1432 36.5774L15.9319 82.1263L13.4224 81.8126L20.1982 36.3892L22.1432 36.5774Z" fill="#6B3F25"/>
<path d="M17.5002 54.0815C19.6485 54.0815 21.3901 52.3399 21.3901 50.1916C21.3901 48.0433 19.6485 46.3018 17.5002 46.3018C15.3519 46.3018 13.6104 48.0433 13.6104 50.1916C13.6104 52.3399 15.3519 54.0815 17.5002 54.0815Z" fill="#F2AF97"/>
<path d="M14.6771 51.7603L3.63494 64.1827C3.63494 64.1827 -0.505872 69.2646 4.26234 71.2723C9.03055 73.2799 8.40316 71.8369 10.1599 69.7038C10.4736 69.3273 17.3122 53.7679 17.3122 53.7679L14.6771 51.7603Z" fill="#F2AF97"/>
<path d="M37.6399 13.9907C38.3927 15.6219 39.4593 17.0649 40.5886 18.5079C40.7768 18.7589 41.0278 19.0726 41.2788 19.2608C41.5297 19.449 41.8434 19.5745 42.1571 19.6373C42.2826 18.5079 41.5297 17.4414 40.9651 16.4375C40.5259 15.6847 40.2122 14.869 39.6475 14.2417C39.1456 13.677 38.5182 13.2378 37.8908 12.8614C37.5771 12.6732 37.3889 12.4849 37.2634 12.8614C37.2634 13.2378 37.5144 13.7397 37.6399 13.9907Z" fill="#91616A"/>
<path d="M137.709 29.1113C136.768 30.3661 135.639 31.6209 135.451 33.1267C135.325 34.0677 135.576 35.0716 136.015 35.9499C137.584 39.5888 141.097 42.1612 144.862 43.3532C148.626 44.5453 152.704 44.4825 156.657 43.8551C159.355 43.416 162.178 42.7258 164.123 40.7809C164.75 40.1535 165.315 39.3379 165.378 38.3968C165.378 37.9576 165.315 37.5184 165.189 37.0792C164.562 35.0088 163.244 33.2521 162.429 31.2445C161.362 28.6721 161.237 25.9116 160.735 23.1511C160.233 20.4532 159.417 17.63 157.347 15.8105C155.402 14.0538 152.579 13.4891 150.069 13.9283C146.556 14.5557 143.23 17.128 141.537 20.265C139.905 23.2138 139.717 26.4135 137.709 29.1113Z" fill="#91616A"/>
<path d="M139.09 42.349C139.09 42.349 133.255 49.3131 132.188 55.3988C131.184 61.4218 128.926 78.9262 131.184 82.1259C133.443 85.3256 136.015 85.3256 136.705 85.3256C137.396 85.3256 169.205 87.5215 169.016 82.4396C168.828 77.3577 165.754 43.792 165.754 43.792C165.754 43.792 151.951 36.5769 139.09 42.349Z" fill="#D65C5C"/>
<path d="M169.644 50.6309C168.013 47.5566 166.57 44.8588 165.691 43.2276C165.127 42.2238 164.185 41.4709 163.056 41.1572C160.045 40.4043 153.896 38.9613 150.257 38.8986C145.301 38.8358 140.031 40.2161 137.709 40.7807C136.768 41.0317 135.953 41.5336 135.388 42.2865C131.31 47.6821 114.245 70.6448 117.319 72.6525C119.703 74.221 124.597 74.5974 124.597 74.5974C124.597 74.5974 128.675 67.947 128.675 67.4451C128.675 67.1314 132.69 59.9791 135.639 54.458C134.51 65.7511 134.008 76.6051 134.008 76.6051H164.938C164.938 76.6051 165.001 68.2607 164.06 57.4067C164.311 58.2851 164.75 59.3517 165.315 60.5437" fill="#EAD18C"/>
<path d="M134.949 87.1451C134.949 87.1451 137.897 123.722 138.901 127.487C139.968 131.251 144.36 164.189 144.36 164.189C144.36 164.189 146.43 164.503 147.308 164.315C148.124 164.127 150.006 134.388 147.936 127.298C147.057 124.224 147.748 90.282 147.748 90.282L152.579 90.0938L153.018 125.855C153.018 125.855 152.453 135.831 152.579 138.403C153.018 145.932 155.904 164.315 155.904 164.315C155.904 164.315 158.602 165.13 158.853 163.876C159.103 162.621 161.55 127.298 161.55 127.298L164.248 80.8711L137.458 82.1259L134.949 87.1451Z" fill="#F2AF97"/>
<path d="M169.393 50.6309C175.541 59.3517 183.572 74.1582 181.125 74.4092C175.228 74.9738 173.847 73.7191 173.847 73.7191C173.847 73.7191 172.593 69.1391 171.087 66.9432C170.522 66.1276 166.946 61.673 164.248 56.8421C166.946 55.65 168.766 52.0739 169.393 50.6309Z" fill="#F2AF97"/>
<path d="M134.008 76.668L129.428 107.599C129.428 107.599 134.635 111.802 152.704 111.802C170.773 111.802 172.906 106.908 172.906 106.908L165.001 76.668H134.008Z" fill="#413339"/>
<path d="M144.109 162.809C144.109 162.809 144.987 160.864 143.858 160.676C142.729 160.488 142.164 161.178 142.164 161.178L139.529 164.252L138.149 166.511L140.282 165.507L144.109 162.809Z" fill="#B23F3F"/>
<path d="M148.438 161.805C148.438 161.805 147.56 164.001 146.618 163.625C146.116 163.437 145.113 161.68 144.423 161.931C143.732 162.182 141.097 164.189 140.031 164.754C139.027 165.256 142.101 161.241 142.101 161.241C142.101 161.241 139.466 164.001 138.588 164.503C137.709 165.005 129.992 167.013 129.867 169.397L129.992 170.965C129.992 170.965 132.502 173.224 138.4 171.216C144.297 169.209 147.685 168.832 148.689 168.393C149.881 167.954 149.316 161.868 148.438 161.805Z" fill="#D65C5C"/>
<path d="M137.27 170.401C140.094 169.899 144.799 167.828 146.556 167.64C147.622 167.515 148.626 167.138 149.316 166.887C149.253 167.703 149.065 168.267 148.752 168.393C147.685 168.832 144.36 169.209 138.462 171.216C132.565 173.224 130.055 170.965 130.055 170.965L129.93 169.397C130.62 170.589 134.447 170.84 137.27 170.401Z" fill="white"/>
<path d="M142.603 164.378C142.478 164.378 142.415 164.315 142.352 164.252C142.164 163.938 141.662 163.186 141.097 163.123C140.909 163.06 140.721 163.123 140.47 163.311C140.344 163.437 140.156 163.374 140.031 163.248C139.905 163.123 139.968 162.935 140.094 162.809C140.407 162.558 140.784 162.433 141.16 162.495C142.101 162.684 142.791 163.876 142.791 163.938C142.854 164.064 142.791 164.252 142.666 164.315C142.666 164.378 142.666 164.378 142.603 164.378Z" fill="#EFF2F7"/>
<path d="M141.662 165.256C141.536 165.256 141.474 165.193 141.411 165.131C141.223 164.817 140.721 164.064 140.156 164.001C139.968 163.939 139.78 164.001 139.529 164.19C139.403 164.315 139.215 164.252 139.09 164.127C138.964 164.001 139.027 163.813 139.152 163.688C139.466 163.437 139.843 163.311 140.219 163.374C141.16 163.562 141.85 164.754 141.85 164.817C141.913 164.942 141.85 165.131 141.725 165.193C141.787 165.256 141.725 165.256 141.662 165.256Z" fill="#EFF2F7"/>
<path d="M140.596 165.821C140.47 165.821 140.407 165.758 140.345 165.695C140.156 165.381 139.654 164.628 139.09 164.566C138.902 164.503 138.713 164.566 138.462 164.754C138.337 164.879 138.149 164.817 138.023 164.691C137.898 164.566 137.96 164.378 138.086 164.252C138.4 164.001 138.776 163.876 139.153 163.938C140.094 164.127 140.784 165.319 140.784 165.381C140.846 165.507 140.784 165.695 140.658 165.758C140.658 165.821 140.596 165.821 140.596 165.821Z" fill="#EFF2F7"/>
<path d="M139.403 166.385C139.278 166.385 139.215 166.323 139.152 166.26C138.964 165.946 138.462 165.193 137.898 165.131C137.709 165.068 137.521 165.131 137.27 165.319C137.145 165.444 136.957 165.382 136.831 165.256C136.706 165.131 136.768 164.942 136.894 164.817C137.208 164.566 137.584 164.441 137.96 164.503C138.901 164.692 139.592 165.884 139.592 165.946C139.654 166.072 139.592 166.26 139.466 166.323C139.466 166.385 139.466 166.385 139.403 166.385Z" fill="#EFF2F7"/>
<path d="M161.362 162.809C161.048 162.245 160.484 161.868 159.794 161.931C159.417 161.931 159.041 161.994 158.79 162.119C158.1 162.433 158.1 163.939 158.351 164.252C158.602 164.566 161.613 169.585 161.613 169.585C161.613 169.585 164.625 168.582 164.562 168.205C164.499 167.829 162.052 164.19 162.052 164.19C162.052 164.19 161.676 163.437 161.362 162.809Z" fill="#B23F3F"/>
<path d="M155.716 163.562C155.716 163.562 154.712 167.138 155.088 168.958C155.088 168.958 155.025 169.46 156.845 170.275C158.664 171.091 159.794 174.354 165.001 173.852C170.208 173.35 169.644 172.597 169.644 172.597C169.644 172.597 170.271 168.644 165.377 167.013C162.993 166.197 161.801 163.186 161.801 163.186C161.801 163.186 160.923 162.809 161.111 163.562C161.299 164.315 164.06 167.64 164.06 167.64L163.182 167.829C163.182 167.829 160.86 163.5 159.856 163.374C158.853 163.249 157.535 164.692 156.782 164.441C155.966 164.252 155.716 163.562 155.716 163.562Z" fill="#D65C5C"/>
<path d="M165.001 173.852C170.208 173.35 169.644 172.597 169.644 172.597C169.644 172.597 169.706 171.969 169.581 171.154C169.016 171.53 167.385 172.471 163.997 172.534C159.668 172.597 159.605 170.087 157.723 169.46C156.468 169.083 155.465 168.331 154.963 167.954C154.963 168.331 154.963 168.644 155.025 168.958C155.025 168.958 154.963 169.46 156.782 170.275C158.664 171.091 159.794 174.416 165.001 173.852Z" fill="white"/>
<path d="M159.794 165.068C159.731 165.068 159.605 165.068 159.543 165.006C159.417 164.88 159.355 164.629 159.48 164.504C159.543 164.441 160.358 163.5 161.299 163.437C161.739 163.437 162.115 163.562 162.429 163.876C162.554 164.002 162.554 164.253 162.429 164.378C162.303 164.504 162.052 164.504 161.927 164.378C161.739 164.19 161.55 164.127 161.362 164.127C160.798 164.127 160.233 164.755 160.045 164.943C160.045 165.068 159.919 165.068 159.794 165.068Z" fill="white"/>
<path d="M160.546 166.26C160.484 166.26 160.358 166.26 160.295 166.197C160.17 166.072 160.107 165.821 160.233 165.695C160.295 165.633 161.111 164.692 162.052 164.629C162.491 164.629 162.868 164.754 163.181 165.068C163.307 165.194 163.307 165.445 163.181 165.57C163.056 165.695 162.805 165.695 162.68 165.57C162.491 165.382 162.303 165.319 162.115 165.319C161.55 165.319 160.986 165.946 160.797 166.135C160.735 166.26 160.672 166.26 160.546 166.26Z" fill="white"/>
<path d="M161.613 167.264C161.55 167.264 161.425 167.264 161.362 167.201C161.237 167.076 161.174 166.825 161.299 166.699C161.362 166.637 162.178 165.696 163.119 165.633C163.558 165.633 163.934 165.758 164.248 166.072C164.374 166.197 164.374 166.448 164.248 166.574C164.123 166.699 163.872 166.699 163.746 166.574C163.558 166.386 163.37 166.323 163.182 166.323C162.617 166.323 162.052 166.95 161.864 167.139C161.801 167.201 161.676 167.264 161.613 167.264Z" fill="white"/>
<path d="M162.491 168.393C162.429 168.393 162.303 168.393 162.241 168.331C162.115 168.205 162.052 167.954 162.178 167.829C162.241 167.766 163.056 166.825 163.997 166.762C164.436 166.762 164.813 166.888 165.127 167.201C165.252 167.327 165.252 167.578 165.127 167.703C165.001 167.829 164.75 167.829 164.625 167.703C164.436 167.515 164.248 167.452 164.06 167.452C163.495 167.452 162.931 168.08 162.742 168.268C162.68 168.331 162.617 168.393 162.491 168.393Z" fill="white"/>
<path d="M164.437 70.3307C162.617 69.0759 159.543 55.5869 158.915 53.4538C157.598 48.9993 157.096 43.5409 157.159 38.8982C158.727 38.2708 160.484 38.7727 162.115 39.4001C163.746 45.6113 166.821 63.1784 166.632 69.5779C166.005 70.0798 165.189 70.3307 164.437 70.3307Z" fill="#37354C"/>
<path d="M158.539 53.3286L156.343 51.3836L141.035 49.376L137.27 71.1466L153.332 73.1543L158.539 53.3286Z" fill="#5BB59B"/>
<path d="M157.786 53.7048C157.786 53.7048 156.531 52.1363 156.343 52.1363C156.155 52.1363 141.474 50.0659 141.474 50.0659L137.96 70.7073L139.843 72.213L154.524 73.2168L157.786 53.7048Z" fill="white"/>
<path d="M139.24 72.5799L155.45 74.897L158.53 53.3462L142.321 51.0291L139.24 72.5799Z" fill="#5BB59B"/>
<path d="M161.676 56.7793L159.48 54.8971L144.109 52.8267L140.407 74.5973L156.469 76.605L161.676 56.7793Z" fill="#D65C5C"/>
<path d="M160.923 57.1555C160.923 57.1555 159.668 55.587 159.48 55.587C159.292 55.587 144.611 53.5166 144.611 53.5166L141.097 74.1579L142.98 75.6637L157.661 76.6675L160.923 57.1555Z" fill="white"/>
<path d="M142.352 76.0521L158.561 78.3691L161.642 56.8184L145.432 54.5013L142.352 76.0521Z" fill="#D65C5C"/>
<path d="M150.069 31.8091C151.826 31.8091 153.206 33.1894 153.206 34.9461V40.7808C153.206 42.5376 151.826 43.9178 150.069 43.9178C148.312 43.9178 146.932 42.5376 146.932 40.7808V34.9461C146.932 33.1894 148.375 31.8091 150.069 31.8091Z" fill="#F2AF97"/>
<path d="M150.069 30.5542C151.826 30.5542 153.206 31.9345 153.206 33.6912V37.6438C152.202 37.9575 151.136 38.083 150.069 38.083C149.003 38.083 147.936 37.8947 146.932 37.6438V33.6284C146.932 31.9345 148.375 30.5542 150.069 30.5542Z" fill="#E08D73"/>
<path d="M150.069 33.8793C156.064 33.8793 160.923 29.0198 160.923 23.0253C160.923 17.0309 156.064 12.1714 150.069 12.1714C144.075 12.1714 139.215 17.0309 139.215 23.0253C139.215 29.0198 144.075 33.8793 150.069 33.8793Z" fill="#91616A"/>
<path d="M151.797 36.2533C157.715 35.2983 161.738 29.7269 160.783 23.8092C159.828 17.8915 154.257 13.8683 148.339 14.8232C142.421 15.7781 138.398 21.3495 139.353 27.2673C140.308 33.185 145.879 37.2082 151.797 36.2533Z" fill="#F2AF97"/>
<path d="M157.284 26.1624C157.284 27.9818 158.727 29.4248 160.547 29.4248C162.366 29.4248 163.809 27.9818 163.809 26.1624C163.809 24.3429 162.366 22.8999 160.547 22.8999C158.727 22.8999 157.284 24.3429 157.284 26.1624Z" fill="#F2AF97"/>
<path d="M139.905 29.4248C141.707 29.4248 143.168 27.9642 143.168 26.1624C143.168 24.3606 141.707 22.8999 139.905 22.8999C138.103 22.8999 136.643 24.3606 136.643 26.1624C136.643 27.9642 138.103 29.4248 139.905 29.4248Z" fill="#F2AF97"/>
<path d="M153.143 25.3469C153.143 25.786 153.52 26.1625 153.959 26.1625C154.398 26.1625 154.775 25.786 154.775 25.3469C154.775 24.9077 154.398 24.5312 153.959 24.5312C153.52 24.5312 153.143 24.9077 153.143 25.3469Z" fill="#37354C"/>
<path d="M145.552 25.3469C145.552 25.786 145.928 26.1625 146.367 26.1625C146.807 26.1625 147.183 25.786 147.183 25.3469C147.183 24.9077 146.807 24.5312 146.367 24.5312C145.928 24.5312 145.552 24.9077 145.552 25.3469Z" fill="#37354C"/>
<path d="M156.531 23.088C155.151 21.5822 153.206 21.9586 153.206 21.9586L153.143 21.5195C153.206 21.5195 155.339 21.0803 156.908 22.7743L156.531 23.088Z" fill="#91616A"/>
<path d="M143.921 23.088L143.607 22.7743C145.175 21.0803 147.246 21.4568 147.371 21.5195L147.246 21.9587C147.12 21.9587 145.301 21.5822 143.921 23.088Z" fill="#91616A"/>
<path d="M150.006 61.8611C151.01 63.7433 153.332 64.4961 155.214 63.555C157.096 62.5512 157.849 60.2298 156.908 58.3477C155.904 56.4655 153.583 55.7126 151.7 56.6537C149.755 57.6575 149.003 59.9789 150.006 61.8611Z" fill="#F2AF97"/>
<path d="M128.988 51.1328C122.84 59.8536 115.311 71.2722 117.382 72.6525C119.766 74.221 124.659 74.5974 124.659 74.5974C124.659 74.5974 128.738 67.947 128.738 67.4451C128.738 67.1942 131.498 62.175 134.196 57.344C131.373 56.152 129.616 52.6386 128.988 51.1328Z" fill="#F2AF97"/>
<path d="M133.443 70.3307C135.262 69.0759 138.337 55.5869 138.964 53.4538C140.282 48.9993 140.783 43.5409 140.721 38.8982C139.152 38.2708 137.396 38.7727 135.764 39.4001C134.133 45.6113 131.059 63.1784 131.247 69.5779C131.937 70.0798 132.69 70.3307 133.443 70.3307Z" fill="#37354C"/>
<path d="M150.571 67.8213C150.571 67.8213 125.099 65.5627 123.907 67.6331C121.585 71.7111 121.899 73.6561 124.66 74.5972C127.42 75.5383 152.39 71.3347 152.39 71.3347L150.571 67.8213Z" fill="#F2AF97"/>
<path d="M148.877 73.4681C151.198 73.4681 153.08 71.5862 153.08 69.2646C153.08 66.943 151.198 65.061 148.877 65.061C146.555 65.061 144.673 66.943 144.673 69.2646C144.673 71.5862 146.555 73.4681 148.877 73.4681Z" fill="#F2AF97"/>
<path d="M152.767 58.4731C152.767 58.4731 177.361 65.5 177.737 67.8841C178.427 72.5268 177.424 74.1581 174.538 74.0953C171.589 74.0326 149.818 61.1082 149.818 61.1082L152.767 58.4731Z" fill="#F2AF97"/>
<path d="M150.508 17.4415C149.818 18.5708 148.877 19.5119 147.81 20.3903C145.364 22.4607 142.289 24.1547 139.152 23.7782C139.215 22.3352 139.341 20.8295 139.905 19.5119C140.784 17.4415 142.603 15.873 144.611 14.9947C146.054 14.3673 148.814 13.3007 150.383 13.7399C152.265 14.2418 151.198 16.3122 150.508 17.4415Z" fill="#91616A"/>
<path d="M146.493 29.2993C146.744 31.1188 148.312 32.4363 150.195 32.4363C152.077 32.4363 153.582 31.056 153.896 29.2993H146.493Z" fill="#823F4A"/>
<path d="M146.493 29.2993C146.556 29.7385 146.681 30.1149 146.932 30.4914H152.014C152.516 30.4914 152.892 30.1149 152.892 29.613V29.2993H146.493Z" fill="white"/>
</g>
<defs>
<clipPath id="clip0">
<rect width="181.129" height="180" fill="white" transform="translate(0.435059)"/>
</clipPath>
</defs>
</svg>
