<svg width="120" height="116" viewBox="0 0 120 116" fill="none" xmlns="http://www.w3.org/2000/svg">
<g clip-path="url(#clip0)">
<path d="M74.3818 113.329C74.3818 114.783 57.7345 115.965 37.1951 115.965C16.6556 115.965 0.00830078 114.783 0.00830078 113.329C0.00830078 111.874 16.6597 110.688 37.1951 110.688C57.7304 110.688 74.3818 111.87 74.3818 113.329Z" fill="#E6E6E6"/>
<path d="M69.998 4.04507H5.44177V112.672H69.998V4.04507Z" fill="#666666"/>
<path d="M51.9046 51.0409H65.1637V34.8399H51.9046V51.0409Z" fill="#B47D4F"/>
<path d="M51.9046 51.0409H65.1637V41.3021H51.9046V51.0409Z" fill="#D49C6B"/>
<path d="M51.9046 51.0409H58.4412V34.8399H51.9046V51.0409Z" fill="#F1F1F1"/>
<path d="M44.3514 11.0941H31.0923V27.2951H44.3514V11.0941Z" fill="#F1F1F1"/>
<path d="M36.8933 11.9535H31.9144V26.4398H36.8933V11.9535Z" fill="#A1DCED"/>
<path d="M43.554 11.9535H38.5751V26.4398H43.554V11.9535Z" fill="#A1DCED"/>
<path d="M37.7197 11.0941V27.2951" stroke="#CCCCCC" stroke-width="0.98" stroke-miterlimit="10"/>
<path d="M46.248 21.056H29.1958V28.6917H46.248V21.056Z" fill="#4C4C4C"/>
<path d="M70.5763 2.69809H4.86316V5.3962H70.5763V2.69809Z" fill="#4C4C4C"/>
<path d="M71.9771 0H3.46667V2.69811H71.9771V0Z" fill="#303030"/>
<path d="M46.6528 21.056H28.7908V22.6385H46.6528V21.056Z" fill="#303030"/>
<path d="M23.535 11.0941H10.2759V27.2951H23.535V11.0941Z" fill="#F1F1F1"/>
<path d="M16.077 11.9535H11.0981V26.4398H16.077V11.9535Z" fill="#A1DCED"/>
<path d="M22.7418 11.9535H17.7629V26.4398H22.7418V11.9535Z" fill="#A1DCED"/>
<path d="M16.9076 11.0941V27.2951" stroke="#CCCCCC" stroke-width="0.98" stroke-miterlimit="10"/>
<path d="M25.4316 21.056H8.37939V28.6917H25.4316V21.056Z" fill="#4C4C4C"/>
<path d="M25.8365 21.056H7.97449V22.6385H25.8365V21.056Z" fill="#303030"/>
<path d="M51.9046 27.2951H65.1637V11.0941H51.9046V27.2951Z" fill="#F1F1F1"/>
<path d="M59.3666 26.4357H64.3455V11.9494H59.3666V26.4357Z" fill="#A1DCED"/>
<path d="M52.7019 26.4357H57.6808V11.9494H52.7019V26.4357Z" fill="#A1DCED"/>
<path d="M58.5361 11.0941V27.2951" stroke="#CCCCCC" stroke-width="0.98" stroke-miterlimit="10"/>
<path d="M50.0079 28.6917L67.0601 28.6917V21.056H50.0079V28.6917Z" fill="#4C4C4C"/>
<path d="M49.603 22.6343L67.4651 22.6343V21.0518L49.603 21.0518V22.6343Z" fill="#303030"/>
<path d="M33.9432 34.8399H20.6841V51.0409H33.9432V34.8399Z" fill="#F1F1F1"/>
<path d="M26.4852 35.6952H21.5063V50.1815H26.4852V35.6952Z" fill="#A1DCED"/>
<path d="M33.1499 35.6952H28.171V50.1815H33.1499V35.6952Z" fill="#A1DCED"/>
<path d="M27.3115 34.8399V51.0409" stroke="#CCCCCC" stroke-width="0.98" stroke-miterlimit="10"/>
<path d="M25.4316 44.7977H8.58186H8.37939V52.4375H8.58186H25.4316H46.2479V44.7977H25.4316Z" fill="#4C4C4C"/>
<path d="M61.4987 34.8399H58.4866V51.0409H61.4987V34.8399Z" fill="#F1F1F1"/>
<path d="M58.8253 50.1855H60.4739V35.6992H58.8253V50.1855Z" fill="#A1DCED"/>
<path d="M52.7019 50.1855H57.6808V35.6992H52.7019V50.1855Z" fill="#A1DCED"/>
<path d="M58.5361 34.8399V51.0409" stroke="#CCCCCC" stroke-width="0.98" stroke-miterlimit="10"/>
<path d="M50.0079 52.4333H67.0601V44.7976H50.0079V52.4333Z" fill="#4C4C4C"/>
<path d="M49.603 46.3801H67.4651V44.7976H49.603V46.3801Z" fill="#303030"/>
<path d="M23.535 57.9204H10.2759V74.1214H23.535V57.9204Z" fill="#F1F1F1"/>
<path d="M16.077 58.7757H11.0981V73.262H16.077V58.7757Z" fill="#A1DCED"/>
<path d="M22.7418 58.7757H17.7629V73.262H22.7418V58.7757Z" fill="#A1DCED"/>
<path d="M16.9076 57.9204V74.1214" stroke="#CCCCCC" stroke-width="0.98" stroke-miterlimit="10"/>
<path d="M25.4316 67.8783H8.37939V75.5139H25.4316V67.8783Z" fill="#4C4C4C"/>
<path d="M25.8365 67.8783H7.97449V69.4608H25.8365V67.8783Z" fill="#303030"/>
<path d="M44.3514 82.3315H31.0923V98.5325H44.3514V82.3315Z" fill="#F1F1F1"/>
<path d="M36.8933 83.1868H31.9144V97.6731H36.8933V83.1868Z" fill="#A1DCED"/>
<path d="M43.554 83.1868H38.5751V97.6731H43.554V83.1868Z" fill="#A1DCED"/>
<path d="M37.7197 82.3315V98.5325" stroke="#CCCCCC" stroke-width="0.98" stroke-miterlimit="10"/>
<path d="M46.248 92.2893H29.1958V99.9249H46.248V92.2893Z" fill="#4C4C4C"/>
<path d="M46.6528 92.2893H28.7908V93.8718H46.6528V92.2893Z" fill="#303030"/>
<path d="M23.535 82.3315H10.2759V98.5325H23.535V82.3315Z" fill="#F1F1F1"/>
<path d="M16.077 83.1868H11.0981V97.6731H16.077V83.1868Z" fill="#A1DCED"/>
<path d="M22.7418 83.1868H17.7629V97.6731H22.7418V83.1868Z" fill="#A1DCED"/>
<path d="M16.9076 82.3315V98.5325" stroke="#CCCCCC" stroke-width="0.98" stroke-miterlimit="10"/>
<path d="M25.4316 92.2893H8.37939V99.9249H25.4316V92.2893Z" fill="#4C4C4C"/>
<path d="M25.8365 92.2893H7.97449V93.8718H25.8365V92.2893Z" fill="#303030"/>
<path d="M51.9046 98.5284H65.1637V82.3273H51.9046V98.5284Z" fill="#F1F1F1"/>
<path d="M59.3666 97.6731H64.3455V83.1868H59.3666V97.6731Z" fill="#A1DCED"/>
<path d="M52.7019 97.6731H57.6808V83.1868H52.7019V97.6731Z" fill="#A1DCED"/>
<path d="M58.5361 82.3315V98.5325" stroke="#CCCCCC" stroke-width="0.98" stroke-miterlimit="10"/>
<path d="M50.0079 99.9291H67.0601V92.2934H50.0079V99.9291Z" fill="#4C4C4C"/>
<path d="M49.603 93.8718H67.4651V92.2893H49.603V93.8718Z" fill="#303030"/>
<path d="M17.7877 42.7028C17.7381 42.7028 17.6885 42.7028 17.6348 42.7028C17.636 42.3514 17.5333 42.0075 17.3395 41.7144C17.1457 41.4213 16.8695 41.1921 16.5458 41.0556C16.222 40.9191 15.8651 40.8815 15.5199 40.9474C15.1748 41.0133 14.8569 41.1799 14.6062 41.4261C14.2385 40.9787 13.7411 40.6565 13.1826 40.5038C12.6241 40.3511 12.0319 40.3755 11.4879 40.5737C10.9438 40.7718 10.4746 41.1339 10.1451 41.61C9.81551 42.0861 9.6418 42.6527 9.64793 43.2317C9.65103 43.4677 9.68436 43.7024 9.7471 43.93C9.48969 44.0209 9.26625 44.1884 9.10673 44.41C8.94721 44.6315 8.85924 44.8966 8.85461 45.1695H20.3288C20.3043 44.5103 20.0265 43.8859 19.5531 43.4264C19.0798 42.9668 18.4474 42.7077 17.7877 42.7028Z" fill="#6BC62A"/>
<path d="M45.0125 45.1653C45.4937 44.6528 45.7612 43.976 45.7604 43.273C45.7588 42.598 45.514 41.9462 45.0707 41.4371C44.6275 40.9281 44.0156 40.5959 43.3472 40.5015C42.6789 40.4071 41.9989 40.5568 41.432 40.9232C40.8651 41.2895 40.4493 41.848 40.2609 42.4962H40.1369C39.9865 42.4973 39.8373 42.5224 39.6948 42.5705C39.4717 42.0237 39.0665 41.5707 38.5478 41.2883C38.0292 41.0059 37.4288 40.9114 36.8484 41.0207C36.2681 41.1301 35.7433 41.4366 35.363 41.8885C34.9826 42.3403 34.7701 42.9097 34.7614 43.5002C34.6344 43.4673 34.5041 43.4493 34.373 43.4465C33.9562 43.4476 33.5568 43.6139 33.2625 43.909C32.9681 44.2041 32.8029 44.6039 32.8029 45.0207C32.7988 45.073 32.7988 45.1255 32.8029 45.1777L45.0125 45.1653Z" fill="#6BC62A"/>
<path d="M25.8365 44.7977H8.17695H7.97449V46.3802H8.17695H25.8365H46.6528V44.7977H25.8365Z" fill="#303030"/>
<path d="M41.5004 74.1215H54.7595V57.9204H41.5004V74.1215Z" fill="#F1F1F1"/>
<path d="M48.9584 73.2662H53.9373V58.7799H48.9584V73.2662Z" fill="#A1DCED"/>
<path d="M42.2937 73.2662H47.2726V58.7799H42.2937V73.2662Z" fill="#A1DCED"/>
<path d="M48.1279 57.9204V74.1214" stroke="#CCCCCC" stroke-width="0.98" stroke-miterlimit="10"/>
<path d="M50.008 67.8783H66.8619H67.0643V75.5181H66.8619H50.008H29.1958V67.8783H50.008Z" fill="#4C4C4C"/>
<path d="M49.6071 67.8783H67.2667H67.465V69.4608H67.2667H49.6071H28.7908V67.8783H49.6071Z" fill="#303030"/>
<path d="M63.7134 69.4607C63.8079 69.296 63.8578 69.1094 63.858 68.9195C63.8572 68.6353 63.7467 68.3624 63.5497 68.1577C63.3526 67.9529 63.0842 67.8321 62.8003 67.8204C62.8315 67.7146 62.8194 67.6008 62.7668 67.504C62.7141 67.4071 62.625 67.3351 62.5193 67.3039C62.4135 67.2727 62.2997 67.2847 62.2029 67.3374C62.106 67.3901 62.034 67.4791 62.0028 67.5849C61.8625 67.5022 61.7029 67.458 61.54 67.4568C61.4824 67.4507 61.4242 67.4507 61.3665 67.4568C61.3293 67.374 61.2698 67.3031 61.1948 67.2519C61.1197 67.2008 61.0319 67.1715 60.9412 67.1672C60.8505 67.163 60.7604 67.1839 60.6808 67.2277C60.6013 67.2715 60.5354 67.3365 60.4906 67.4155C60.194 67.2003 59.8333 67.0918 59.4673 67.1076C59.1012 67.1233 58.7512 67.2624 58.4742 67.5022C58.402 67.4625 58.3211 67.4412 58.2387 67.4403C58.1395 67.4402 58.0426 67.4702 57.9607 67.5262C57.8789 67.5823 57.8159 67.6618 57.78 67.7543C57.6637 67.711 57.5406 67.6886 57.4165 67.6882C57.1764 67.6895 56.9438 67.7718 56.7563 67.9218C56.5688 68.0717 56.4375 68.2806 56.3835 68.5145C56.3381 68.51 56.2925 68.51 56.2471 68.5145C56.1307 68.514 56.0159 68.5414 55.9123 68.5944C55.8087 68.6474 55.7194 68.7246 55.6518 68.8193C55.5842 68.914 55.5403 69.0236 55.5238 69.1388C55.5073 69.254 55.5188 69.3715 55.5571 69.4814L63.7134 69.4607Z" fill="#6BC62A"/>
<path d="M63.924 69.3327H55.3959V70.0227H63.924V69.3327Z" fill="#B47D4F"/>
<path d="M63.6761 70.0226H55.6438L56.1685 71.2333H63.1514L63.6761 70.0226Z" fill="#D49C6B"/>
<path d="M57.5114 68.4112C57.5114 68.4987 57.4855 68.5841 57.4369 68.6569C57.3883 68.7296 57.3193 68.7862 57.2385 68.8197C57.1577 68.8531 57.0688 68.8619 56.9831 68.8448C56.8973 68.8278 56.8185 68.7857 56.7567 68.7239C56.6949 68.662 56.6527 68.5832 56.6357 68.4975C56.6186 68.4117 56.6274 68.3228 56.6609 68.242C56.6943 68.1613 56.751 68.0922 56.8237 68.0436C56.8964 67.995 56.9819 67.9691 57.0693 67.9691C57.1866 67.9691 57.299 68.0157 57.3819 68.0986C57.4648 68.1815 57.5114 68.294 57.5114 68.4112Z" fill="#F60C5B"/>
<path d="M57.2305 68.4113C57.2305 68.4464 57.22 68.4807 57.2005 68.51C57.181 68.5392 57.1533 68.562 57.1208 68.5754C57.0883 68.5888 57.0526 68.5924 57.0181 68.5855C56.9837 68.5787 56.952 68.5617 56.9272 68.5369C56.9023 68.512 56.8854 68.4804 56.8785 68.4459C56.8717 68.4114 56.8752 68.3757 56.8886 68.3433C56.9021 68.3108 56.9249 68.2831 56.9541 68.2635C56.9833 68.244 57.0177 68.2336 57.0528 68.2336C57.0999 68.2336 57.1451 68.2523 57.1784 68.2856C57.2117 68.3189 57.2305 68.3641 57.2305 68.4113Z" fill="#FF9300"/>
<path d="M59.2632 67.5559C59.2632 67.6434 59.2373 67.7289 59.1887 67.8016C59.1402 67.8743 59.0711 67.9309 58.9903 67.9644C58.9095 67.9978 58.8206 68.0066 58.7349 67.9895C58.6491 67.9725 58.5703 67.9304 58.5085 67.8686C58.4467 67.8067 58.4046 67.7279 58.3875 67.6422C58.3705 67.5564 58.3792 67.4675 58.4127 67.3867C58.4461 67.306 58.5028 67.2369 58.5755 67.1883C58.6482 67.1398 58.7337 67.1138 58.8211 67.1138C58.9384 67.1138 59.0508 67.1604 59.1337 67.2433C59.2167 67.3262 59.2632 67.4387 59.2632 67.5559Z" fill="#F60C5B"/>
<path d="M59.003 67.5559C59.003 67.5919 58.9923 67.6271 58.9724 67.657C58.9524 67.6869 58.924 67.7102 58.8908 67.7239C58.8576 67.7377 58.821 67.7413 58.7857 67.7343C58.7505 67.7272 58.7181 67.7099 58.6927 67.6845C58.6672 67.6591 58.6499 67.6267 58.6429 67.5914C58.6359 67.5562 58.6395 67.5196 58.6532 67.4864C58.667 67.4532 58.6903 67.4248 58.7202 67.4048C58.7501 67.3848 58.7853 67.3741 58.8212 67.3741C58.8694 67.3741 58.9157 67.3933 58.9498 67.4274C58.9839 67.4615 59.003 67.5077 59.003 67.5559Z" fill="#FF9300"/>
<path d="M60.3416 68.5435C60.331 68.6528 60.2801 68.7543 60.1987 68.8281C60.1174 68.902 60.0115 68.9429 59.9016 68.9429C59.7917 68.9429 59.6858 68.902 59.6044 68.8281C59.5231 68.7543 59.4721 68.6528 59.4615 68.5435C59.4556 68.4821 59.4625 68.4201 59.4819 68.3616C59.5013 68.3031 59.5328 68.2493 59.5742 68.2036C59.6157 68.158 59.6662 68.1215 59.7226 68.0965C59.7789 68.0715 59.8399 68.0587 59.9016 68.0587C59.9632 68.0587 60.0242 68.0715 60.0806 68.0965C60.137 68.1215 60.1875 68.158 60.229 68.2036C60.2704 68.2493 60.3018 68.3031 60.3212 68.3616C60.3406 68.4201 60.3476 68.4821 60.3416 68.5435Z" fill="#F60C5B"/>
<path d="M60.0815 68.5434C60.0807 68.5784 60.0696 68.6123 60.0496 68.641C60.0295 68.6697 60.0015 68.6918 59.969 68.7046C59.9365 68.7174 59.9009 68.7204 59.8667 68.7131C59.8325 68.7057 59.8012 68.6885 59.7768 68.6635C59.7524 68.6385 59.7358 68.6068 59.7293 68.5725C59.7228 68.5381 59.7266 68.5026 59.7401 68.4704C59.7537 68.4382 59.7764 68.4107 59.8056 68.3913C59.8347 68.372 59.8689 68.3616 59.9038 68.3616C59.9275 68.3616 59.9509 68.3664 59.9728 68.3755C59.9946 68.3847 60.0144 68.3982 60.0309 68.4151C60.0475 68.4321 60.0605 68.4521 60.0692 68.4742C60.0778 68.4962 60.082 68.5198 60.0815 68.5434Z" fill="#FF9300"/>
<path d="M61.7755 67.8163C61.7755 67.9039 61.7494 67.9895 61.7007 68.0623C61.6519 68.1351 61.5826 68.1918 61.5016 68.2251C61.4205 68.2584 61.3314 68.267 61.2456 68.2496C61.1597 68.2322 61.0809 68.1896 61.0193 68.1274C60.9576 68.0652 60.9158 67.986 60.8992 67.9C60.8826 67.8139 60.892 67.7249 60.9261 67.6442C60.9602 67.5635 61.0175 67.4947 61.0907 67.4467C61.164 67.3986 61.2499 67.3733 61.3375 67.3742C61.3953 67.3742 61.4526 67.3856 61.506 67.4079C61.5595 67.4302 61.6079 67.4628 61.6486 67.5039C61.6894 67.545 61.7215 67.5938 61.7433 67.6474C61.7651 67.701 61.776 67.7584 61.7755 67.8163Z" fill="#F60C5B"/>
<path d="M61.4986 67.8162C61.4986 67.8633 61.4799 67.9085 61.4466 67.9419C61.4133 67.9752 61.3681 67.9939 61.321 67.9939C61.2739 67.9939 61.2287 67.9752 61.1954 67.9419C61.162 67.9085 61.1433 67.8633 61.1433 67.8162C61.1433 67.7691 61.162 67.7239 61.1954 67.6906C61.2287 67.6573 61.2739 67.6385 61.321 67.6385C61.3443 67.6385 61.3674 67.6432 61.389 67.6521C61.4105 67.661 61.4301 67.6741 61.4466 67.6906C61.4631 67.7071 61.4762 67.7267 61.4851 67.7482C61.4941 67.7698 61.4986 67.7929 61.4986 67.8162Z" fill="#FF9300"/>
<path d="M63.1431 68.5435C63.1431 68.6309 63.1172 68.7164 63.0686 68.7891C63.02 68.8618 62.951 68.9185 62.8702 68.9519C62.7894 68.9854 62.7005 68.9942 62.6148 68.9771C62.529 68.96 62.4502 68.9179 62.3884 68.8561C62.3266 68.7943 62.2845 68.7155 62.2674 68.6297C62.2503 68.544 62.2591 68.4551 62.2926 68.3743C62.326 68.2935 62.3827 68.2245 62.4554 68.1759C62.5281 68.1273 62.6136 68.1014 62.701 68.1014C62.8183 68.1014 62.9307 68.148 63.0136 68.2309C63.0965 68.3138 63.1431 68.4262 63.1431 68.5435Z" fill="#F60C5B"/>
<path d="M62.8787 68.5434C62.8779 68.5784 62.8668 68.6123 62.8468 68.641C62.8268 68.6697 62.7988 68.6918 62.7662 68.7046C62.7337 68.7174 62.6981 68.7204 62.6639 68.7131C62.6297 68.7057 62.5985 68.6885 62.574 68.6635C62.5496 68.6385 62.5331 68.6068 62.5266 68.5725C62.52 68.5381 62.5238 68.5026 62.5373 68.4704C62.5509 68.4382 62.5737 68.4107 62.6028 68.3913C62.6319 68.372 62.6661 68.3616 62.7011 68.3616C62.7247 68.3616 62.7482 68.3664 62.77 68.3755C62.7918 68.3847 62.8116 68.3982 62.8282 68.4151C62.8447 68.4321 62.8577 68.4521 62.8664 68.4742C62.8751 68.4962 62.8793 68.5198 62.8787 68.5434Z" fill="#FF9300"/>
<path d="M40.0088 68.4939C39.9634 68.4899 39.9178 68.4899 39.8724 68.4939C39.8239 68.2898 39.7143 68.1053 39.5584 67.965C39.5688 67.8155 39.5479 67.6655 39.497 67.5245C39.4462 67.3835 39.3665 67.2547 39.2631 67.1462C39.1597 67.0378 39.0348 66.9521 38.8964 66.8945C38.758 66.837 38.6091 66.809 38.4593 66.8122C38.2732 66.8042 38.0885 66.8469 37.9248 66.9357C37.761 67.0245 37.6245 67.156 37.5297 67.3163C37.2782 67.1721 36.9932 67.0966 36.7033 67.0973C36.3617 67.0976 36.029 67.2061 35.7529 67.4072C35.7081 67.3283 35.6422 67.2633 35.5627 67.2195C35.4831 67.1756 35.393 67.1547 35.3023 67.159C35.2116 67.1633 35.1238 67.1926 35.0487 67.2437C34.9737 67.2948 34.9142 67.3657 34.877 67.4485C34.8193 67.4424 34.7611 67.4424 34.7035 67.4485C34.5406 67.4498 34.381 67.494 34.2407 67.5766C34.2034 67.5137 34.1501 67.4618 34.0862 67.4263C34.0224 67.3907 33.9502 67.3727 33.8771 67.3742C33.8194 67.3736 33.7622 67.3846 33.7088 67.4064C33.6554 67.4282 33.6069 67.4604 33.5662 67.5012C33.5254 67.542 33.4931 67.5905 33.4713 67.6439C33.4495 67.6973 33.4386 67.7545 33.4391 67.8121C33.1552 67.8239 32.8867 67.9447 32.6897 68.1494C32.4926 68.3542 32.3822 68.6271 32.3813 68.9112C32.3816 69.1012 32.4315 69.2877 32.526 69.4525H40.7029C40.7414 69.3423 40.7528 69.2244 40.7361 69.1089C40.7194 68.9933 40.6752 68.8835 40.6071 68.7887C40.539 68.6939 40.4491 68.6168 40.3449 68.5641C40.2408 68.5113 40.1255 68.4844 40.0088 68.4856V68.4939Z" fill="#6BC62A"/>
<path d="M32.3318 70.0226H40.86V69.3326H32.3318V70.0226Z" fill="#B47D4F"/>
<path d="M32.5797 70.0226H40.6162L40.0914 71.2333H33.1045L32.5797 70.0226Z" fill="#D49C6B"/>
<path d="M38.0999 67.5311C38.0999 67.6186 38.1258 67.7041 38.1744 67.7768C38.223 67.8495 38.292 67.9061 38.3728 67.9396C38.4536 67.9731 38.5425 67.9818 38.6282 67.9648C38.714 67.9477 38.7928 67.9056 38.8546 67.8438C38.9164 67.7819 38.9585 67.7032 38.9756 67.6174C38.9927 67.5316 38.9839 67.4427 38.9504 67.362C38.917 67.2812 38.8603 67.2121 38.7876 67.1635C38.7149 67.115 38.6294 67.089 38.542 67.089C38.4838 67.0885 38.426 67.0995 38.3721 67.1216C38.3183 67.1436 38.2693 67.1761 38.2281 67.2173C38.187 67.2585 38.1544 67.3074 38.1324 67.3613C38.1104 67.4152 38.0993 67.4729 38.0999 67.5311Z" fill="#F60C5B"/>
<path d="M38.3644 67.5312C38.3644 67.5663 38.3748 67.6007 38.3943 67.6299C38.4139 67.6591 38.4416 67.6819 38.4741 67.6953C38.5065 67.7088 38.5422 67.7123 38.5767 67.7054C38.6112 67.6986 38.6428 67.6817 38.6677 67.6568C38.6925 67.632 38.7095 67.6003 38.7163 67.5659C38.7232 67.5314 38.7196 67.4957 38.7062 67.4632C38.6928 67.4307 38.67 67.403 38.6408 67.3835C38.6115 67.3639 38.5772 67.3535 38.542 67.3535C38.4949 67.3535 38.4497 67.3722 38.4164 67.4055C38.3831 67.4389 38.3644 67.4841 38.3644 67.5312Z" fill="#FF9300"/>
<path d="M38.9346 68.7624C38.9346 68.8499 38.9605 68.9354 39.0091 69.0081C39.0577 69.0808 39.1267 69.1374 39.2075 69.1709C39.2883 69.2044 39.3772 69.2131 39.4629 69.1961C39.5487 69.179 39.6275 69.1369 39.6893 69.0751C39.7511 69.0132 39.7932 68.9345 39.8103 68.8487C39.8274 68.7629 39.8186 68.674 39.7851 68.5933C39.7517 68.5125 39.695 68.4434 39.6223 68.3949C39.5496 68.3463 39.4641 68.3203 39.3767 68.3203C39.2594 68.3203 39.147 68.3669 39.0641 68.4498C38.9811 68.5327 38.9346 68.6452 38.9346 68.7624Z" fill="#F60C5B"/>
<path d="M39.1948 68.7624C39.1959 68.8099 39.2155 68.8551 39.2495 68.8883C39.2835 68.9215 39.3291 68.9401 39.3766 68.9401C39.4238 68.9401 39.4689 68.9214 39.5023 68.8881C39.5356 68.8547 39.5543 68.8095 39.5543 68.7624C39.5543 68.7153 39.5356 68.6701 39.5023 68.6368C39.4689 68.6035 39.4238 68.5847 39.3766 68.5847C39.3291 68.5847 39.2835 68.6033 39.2495 68.6365C39.2155 68.6697 39.1959 68.7149 39.1948 68.7624Z" fill="#FF9300"/>
<path d="M36.7529 68.2253C36.7521 68.3131 36.7775 68.3992 36.8257 68.4725C36.874 68.5458 36.943 68.6031 37.024 68.6371C37.1049 68.6711 37.1941 68.6802 37.2803 68.6633C37.3664 68.6463 37.4456 68.6041 37.5077 68.5421C37.5697 68.48 37.6119 68.4008 37.6289 68.3147C37.6458 68.2285 37.6367 68.1393 37.6027 68.0584C37.5687 67.9774 37.5114 67.9084 37.4381 67.8601C37.3648 67.8119 37.2787 67.7865 37.1909 67.7873C37.0748 67.7873 36.9634 67.8335 36.8812 67.9156C36.7991 67.9978 36.7529 68.1092 36.7529 68.2253Z" fill="#F60C5B"/>
<path d="M37.0132 68.2253C37.0132 68.2728 37.0318 68.3184 37.065 68.3524C37.0982 68.3864 37.1434 68.406 37.1909 68.4071C37.2167 68.411 37.2432 68.4093 37.2683 68.4021C37.2935 68.3949 37.3168 68.3823 37.3367 68.3652C37.3565 68.3482 37.3725 68.327 37.3834 68.3032C37.3943 68.2794 37.4 68.2536 37.4 68.2274C37.4 68.2012 37.3943 68.1753 37.3834 68.1515C37.3725 68.1277 37.3565 68.1066 37.3367 68.0895C37.3168 68.0724 37.2935 68.0598 37.2683 68.0526C37.2432 68.0454 37.2167 68.0437 37.1909 68.0476C37.1437 68.0476 37.0985 68.0663 37.0652 68.0997C37.0319 68.133 37.0132 68.1782 37.0132 68.2253Z" fill="#FF9300"/>
<path d="M35.0465 67.5559C35.0571 67.6653 35.1081 67.7667 35.1894 67.8406C35.2708 67.9144 35.3767 67.9553 35.4865 67.9553C35.5964 67.9553 35.7023 67.9144 35.7837 67.8406C35.865 67.7667 35.916 67.6653 35.9266 67.5559C35.9325 67.4945 35.9256 67.4326 35.9062 67.3741C35.8868 67.3155 35.8554 67.2617 35.8139 67.2161C35.7725 67.1704 35.7219 67.1339 35.6656 67.109C35.6092 67.084 35.5482 67.0711 35.4865 67.0711C35.4249 67.0711 35.3639 67.084 35.3075 67.109C35.2512 67.1339 35.2006 67.1704 35.1592 67.2161C35.1177 67.2617 35.0863 67.3155 35.0669 67.3741C35.0475 67.4326 35.0405 67.4945 35.0465 67.5559Z" fill="#F60C5B"/>
<path d="M35.3068 67.5559C35.3076 67.5909 35.3187 67.6248 35.3387 67.6535C35.3587 67.6822 35.3868 67.7043 35.4193 67.7171C35.4518 67.7299 35.4874 67.7329 35.5216 67.7256C35.5558 67.7182 35.5871 67.701 35.6115 67.676C35.6359 67.651 35.6525 67.6193 35.659 67.585C35.6655 67.5506 35.6618 67.5151 35.6482 67.4829C35.6346 67.4507 35.6119 67.4232 35.5827 67.4038C35.5536 67.3845 35.5194 67.3742 35.4845 67.3741C35.4608 67.3741 35.4374 67.3789 35.4155 67.3881C35.3937 67.3972 35.3739 67.4107 35.3574 67.4276C35.3408 67.4446 35.3278 67.4647 35.3191 67.4867C35.3104 67.5087 35.3063 67.5323 35.3068 67.5559Z" fill="#FF9300"/>
<path d="M34.4266 68.5847C34.4372 68.6941 34.4882 68.7956 34.5695 68.8694C34.6509 68.9433 34.7568 68.9842 34.8667 68.9842C34.9765 68.9842 35.0825 68.9433 35.1638 68.8694C35.2452 68.7956 35.2961 68.6941 35.3067 68.5847C35.3127 68.5234 35.3057 68.4614 35.2863 68.4029C35.2669 68.3444 35.2355 68.2906 35.194 68.2449C35.1526 68.1993 35.1021 68.1628 35.0457 68.1378C34.9893 68.1128 34.9283 68.0999 34.8667 68.0999C34.805 68.0999 34.744 68.1128 34.6877 68.1378C34.6313 68.1628 34.5807 68.1993 34.5393 68.2449C34.4979 68.2906 34.4664 68.3444 34.447 68.4029C34.4276 68.4614 34.4207 68.5234 34.4266 68.5847Z" fill="#F60C5B"/>
<path d="M34.6869 68.5848C34.6861 68.6211 34.6962 68.6568 34.7158 68.6873C34.7355 68.7178 34.7639 68.7417 34.7972 68.756C34.8306 68.7703 34.8675 68.7742 34.9032 68.7673C34.9388 68.7605 34.9716 68.7431 34.9972 68.7174C35.0229 68.6917 35.0403 68.659 35.0472 68.6233C35.0541 68.5877 35.0501 68.5508 35.0359 68.5174C35.0216 68.484 34.9977 68.4557 34.9671 68.436C34.9366 68.4163 34.9009 68.4063 34.8646 68.4071C34.8175 68.4071 34.7723 68.4258 34.739 68.4591C34.7057 68.4924 34.6869 68.5376 34.6869 68.5848Z" fill="#FF9300"/>
<path d="M32.8524 68.4071C32.8524 68.4946 32.8784 68.58 32.9269 68.6527C32.9755 68.7255 33.0446 68.7821 33.1254 68.8156C33.2061 68.849 33.295 68.8578 33.3808 68.8407C33.4666 68.8237 33.5453 68.7816 33.6072 68.7197C33.669 68.6579 33.7111 68.5791 33.7282 68.4934C33.7452 68.4076 33.7365 68.3187 33.703 68.2379C33.6695 68.1571 33.6129 68.0881 33.5402 68.0395C33.4675 67.9909 33.382 67.965 33.2945 67.965C33.2363 67.9645 33.1786 67.9755 33.1247 67.9975C33.0708 68.0196 33.0219 68.0521 32.9807 68.0933C32.9395 68.1344 32.907 68.1834 32.885 68.2373C32.8629 68.2912 32.8519 68.3489 32.8524 68.4071Z" fill="#F60C5B"/>
<path d="M33.0962 68.4071C33.0962 68.4431 33.1069 68.4782 33.1268 68.5081C33.1468 68.538 33.1752 68.5613 33.2084 68.5751C33.2416 68.5888 33.2782 68.5924 33.3135 68.5854C33.3487 68.5784 33.3811 68.5611 33.4065 68.5357C33.432 68.5102 33.4493 68.4778 33.4563 68.4426C33.4633 68.4073 33.4597 68.3708 33.446 68.3375C33.4322 68.3043 33.4089 68.2759 33.379 68.2559C33.3491 68.236 33.314 68.2253 33.278 68.2253C33.2298 68.2253 33.1835 68.2445 33.1494 68.2786C33.1153 68.3126 33.0962 68.3589 33.0962 68.4071Z" fill="#FF9300"/>
<path d="M22.8451 17.796H22.8204C22.8204 17.568 22.7298 17.3494 22.5686 17.1882C22.4075 17.0271 22.1889 16.9365 21.9609 16.9365C21.733 16.9365 21.5144 17.0271 21.3532 17.1882C21.1921 17.3494 21.1015 17.568 21.1015 17.796C21.1035 17.899 21.1231 18.001 21.1594 18.0976C20.9194 18.119 20.6974 18.2331 20.5402 18.4157C20.3831 18.5982 20.3033 18.8348 20.3178 19.0752C20.3324 19.3157 20.44 19.541 20.618 19.7033C20.796 19.8656 21.0302 19.9521 21.2709 19.9445C21.4313 19.9448 21.589 19.9029 21.7282 19.8232C21.8674 19.7434 21.9833 19.6285 22.0642 19.49C22.1747 19.6213 22.3164 19.7226 22.4764 19.7846C22.6363 19.8466 22.8093 19.8673 22.9794 19.8448C23.1494 19.8222 23.3111 19.7572 23.4493 19.6556C23.5876 19.554 23.6981 19.4193 23.7705 19.2638C23.8429 19.1082 23.8749 18.937 23.8636 18.7658C23.8523 18.5946 23.798 18.429 23.7058 18.2844C23.6135 18.1397 23.4863 18.0207 23.3359 17.9382C23.1855 17.8557 23.0167 17.8125 22.8451 17.8125V17.796Z" fill="#6BC62A"/>
<path d="M20.2544 19.8412H23.9648V19.1512H20.2544V19.8412Z" fill="#B47D4F"/>
<path d="M20.4982 19.8412H23.7169L23.1921 21.056H21.0229L20.4982 19.8412Z" fill="#D49C6B"/>
<path d="M64.5437 91.2191C65.5912 91.2191 66.4403 90.37 66.4403 89.3226C66.4403 88.2752 65.5912 87.4261 64.5437 87.4261C63.4963 87.4261 62.6472 88.2752 62.6472 89.3226C62.6472 90.37 63.4963 91.2191 64.5437 91.2191Z" fill="#6BC62A"/>
<path d="M64.5439 91.2191C65.3334 91.2191 65.9735 90.37 65.9735 89.3226C65.9735 88.2752 65.3334 87.4261 64.5439 87.4261C63.7543 87.4261 63.1143 88.2752 63.1143 89.3226C63.1143 90.37 63.7543 91.2191 64.5439 91.2191Z" fill="#00B53E"/>
<path d="M64.5439 91.2191C64.941 91.2191 65.2628 90.37 65.2628 89.3226C65.2628 88.2752 64.941 87.4261 64.5439 87.4261C64.1468 87.4261 63.825 88.2752 63.825 89.3226C63.825 90.37 64.1468 91.2191 64.5439 91.2191Z" fill="#6BC62A"/>
<path d="M62.6886 91.0786H66.399V90.3886H62.6886V91.0786Z" fill="#B47D4F"/>
<path d="M62.9324 91.0786H66.1511L65.6263 92.2892H63.4613L62.9324 91.0786Z" fill="#D49C6B"/>
<path d="M58.5362 91.0786H62.2466V90.3886H58.5362V91.0786Z" fill="#B47D4F"/>
<path d="M58.7798 91.0786H62.0026L61.4738 92.2892H59.3087L58.7798 91.0786Z" fill="#D49C6B"/>
<path d="M61.4945 90.3886H59.2964V87.4963C59.2975 87.2041 59.4141 86.9241 59.6207 86.7174C59.8274 86.5108 60.1073 86.3942 60.3996 86.3931C60.6922 86.3931 60.9728 86.5093 61.1797 86.7162C61.3866 86.9231 61.5028 87.2037 61.5028 87.4963L61.4945 90.3886Z" fill="#6BC62A"/>
<path d="M61.0813 90.3886H59.7095V87.0831C59.7095 86.9012 59.7817 86.7267 59.9104 86.5981C60.039 86.4695 60.2135 86.3972 60.3954 86.3972C60.5777 86.3972 60.7525 86.4693 60.8818 86.5979C61.0111 86.7264 61.0843 86.9008 61.0854 87.0831L61.0813 90.3886Z" fill="#00B53E"/>
<path d="M60.693 90.3886H60.0897V86.7112C60.0897 86.6312 60.1215 86.5545 60.1781 86.4979C60.2346 86.4414 60.3113 86.4096 60.3913 86.4096C60.4713 86.4096 60.5481 86.4414 60.6046 86.4979C60.6612 86.5545 60.693 86.6312 60.693 86.7112V90.3886Z" fill="#6BC62A"/>
</g>
<g clip-path="url(#clip1)">
<path d="M119.931 103.686C119.931 104.527 110.31 105.21 98.4387 105.21C86.5677 105.21 76.9462 104.527 76.9462 103.686C76.9462 102.846 86.5701 102.16 98.4387 102.16C110.307 102.16 119.931 102.843 119.931 103.686Z" fill="#E6E6E6"/>
<path d="M117.398 40.5244H80.0865V103.307H117.398V40.5244Z" fill="#666666"/>
<path d="M106.94 67.6863H114.604V58.3227H106.94V67.6863Z" fill="#B47D4F"/>
<path d="M106.94 67.6863H114.604V62.0576H106.94V67.6863Z" fill="#D49C6B"/>
<path d="M106.94 67.6863H110.718V58.3227H106.94V67.6863Z" fill="#F1F1F1"/>
<path d="M102.575 44.5984H94.9116V53.962H102.575V44.5984Z" fill="#F1F1F1"/>
<path d="M98.2643 45.0952H95.3867V53.4677H98.2643V45.0952Z" fill="#A1DCED"/>
<path d="M102.114 45.0952H99.2365V53.4677H102.114V45.0952Z" fill="#A1DCED"/>
<path d="M98.7419 44.5984V53.962" stroke="#CCCCCC" stroke-width="0.98" stroke-miterlimit="10"/>
<path d="M103.671 50.3561H93.8154V54.7692H103.671V50.3561Z" fill="#4C4C4C"/>
<path d="M117.732 39.7459H79.7521V41.3053H117.732V39.7459Z" fill="#4C4C4C"/>
<path d="M118.542 38.1865H78.9451V39.7459H118.542V38.1865Z" fill="#303030"/>
<path d="M103.905 50.3561H93.5814V51.2707H103.905V50.3561Z" fill="#303030"/>
<path d="M90.5438 44.5984H82.8805V53.962H90.5438V44.5984Z" fill="#F1F1F1"/>
<path d="M86.2333 45.0952H83.3557V53.4677H86.2333V45.0952Z" fill="#A1DCED"/>
<path d="M90.0853 45.0952H87.2076V53.4677H90.0853V45.0952Z" fill="#A1DCED"/>
<path d="M86.7134 44.5984V53.962" stroke="#CCCCCC" stroke-width="0.98" stroke-miterlimit="10"/>
<path d="M91.64 50.3561H81.7844V54.7692H91.64V50.3561Z" fill="#4C4C4C"/>
<path d="M91.874 50.3561H81.5504V51.2707H91.874V50.3561Z" fill="#303030"/>
<path d="M106.94 53.9621H114.604V44.5985H106.94V53.9621Z" fill="#F1F1F1"/>
<path d="M111.253 53.4654H114.131V45.0928H111.253V53.4654Z" fill="#A1DCED"/>
<path d="M107.401 53.4654H110.279V45.0928H107.401V53.4654Z" fill="#A1DCED"/>
<path d="M110.773 44.5984V53.962" stroke="#CCCCCC" stroke-width="0.98" stroke-miterlimit="10"/>
<path d="M105.844 54.7692H115.7V50.3561H105.844V54.7692Z" fill="#4C4C4C"/>
<path d="M105.61 51.2683H115.934V50.3537H105.61V51.2683Z" fill="#303030"/>
<path d="M96.5594 58.3227H88.8961V67.6863H96.5594V58.3227Z" fill="#F1F1F1"/>
<path d="M92.2488 58.817H89.3712V67.1895H92.2488V58.817Z" fill="#A1DCED"/>
<path d="M96.1008 58.817H93.2231V67.1895H96.1008V58.817Z" fill="#A1DCED"/>
<path d="M92.7266 58.3227V67.6863" stroke="#CCCCCC" stroke-width="0.98" stroke-miterlimit="10"/>
<path d="M91.64 64.0779H81.9014H81.7844V68.4934H81.9014H91.64H103.671V64.0779H91.64Z" fill="#4C4C4C"/>
<path d="M112.485 58.3227H110.744V67.6863H112.485V58.3227Z" fill="#F1F1F1"/>
<path d="M110.94 67.1919H111.893V58.8194H110.94V67.1919Z" fill="#A1DCED"/>
<path d="M107.401 67.1919H110.279V58.8194H107.401V67.1919Z" fill="#A1DCED"/>
<path d="M110.773 58.3227V67.6863" stroke="#CCCCCC" stroke-width="0.98" stroke-miterlimit="10"/>
<path d="M105.844 68.491H115.7V64.0779H105.844V68.491Z" fill="#4C4C4C"/>
<path d="M105.61 64.9925H115.934V64.0779H105.61V64.9925Z" fill="#303030"/>
<path d="M90.5438 71.6624H82.8805V81.0259H90.5438V71.6624Z" fill="#F1F1F1"/>
<path d="M86.2333 72.1567H83.3557V80.5292H86.2333V72.1567Z" fill="#A1DCED"/>
<path d="M90.0853 72.1567H87.2076V80.5292H90.0853V72.1567Z" fill="#A1DCED"/>
<path d="M86.7134 71.6624V81.0259" stroke="#CCCCCC" stroke-width="0.98" stroke-miterlimit="10"/>
<path d="M91.64 77.4176H81.7844V81.8308H91.64V77.4176Z" fill="#4C4C4C"/>
<path d="M91.874 77.4176H81.5504V78.3323H91.874V77.4176Z" fill="#303030"/>
<path d="M102.575 85.7711H94.9116V95.1347H102.575V85.7711Z" fill="#F1F1F1"/>
<path d="M98.2643 86.2654H95.3867V94.638H98.2643V86.2654Z" fill="#A1DCED"/>
<path d="M102.114 86.2654H99.2365V94.638H102.114V86.2654Z" fill="#A1DCED"/>
<path d="M98.7419 85.7711V95.1347" stroke="#CCCCCC" stroke-width="0.98" stroke-miterlimit="10"/>
<path d="M103.671 91.5263H93.8154V95.9395H103.671V91.5263Z" fill="#4C4C4C"/>
<path d="M103.905 91.5263H93.5814V92.441H103.905V91.5263Z" fill="#303030"/>
<path d="M90.5438 85.7711H82.8805V95.1347H90.5438V85.7711Z" fill="#F1F1F1"/>
<path d="M86.2333 86.2654H83.3557V94.638H86.2333V86.2654Z" fill="#A1DCED"/>
<path d="M90.0853 86.2654H87.2076V94.638H90.0853V86.2654Z" fill="#A1DCED"/>
<path d="M86.7134 85.7711V95.1347" stroke="#CCCCCC" stroke-width="0.98" stroke-miterlimit="10"/>
<path d="M91.64 91.5263H81.7844V95.9395H91.64V91.5263Z" fill="#4C4C4C"/>
<path d="M91.874 91.5263H81.5504V92.441H91.874V91.5263Z" fill="#303030"/>
<path d="M106.94 95.1322H114.604V85.7686H106.94V95.1322Z" fill="#F1F1F1"/>
<path d="M111.253 94.6379H114.131V86.2653H111.253V94.6379Z" fill="#A1DCED"/>
<path d="M107.401 94.6379H110.279V86.2653H107.401V94.6379Z" fill="#A1DCED"/>
<path d="M110.773 85.7711V95.1347" stroke="#CCCCCC" stroke-width="0.98" stroke-miterlimit="10"/>
<path d="M105.844 95.9418H115.7V91.5287H105.844V95.9418Z" fill="#4C4C4C"/>
<path d="M105.61 92.4409H115.934V91.5263H105.61V92.4409Z" fill="#303030"/>
<path d="M87.2221 62.8672C87.1934 62.8672 87.1648 62.8672 87.1337 62.8672C87.1344 62.6641 87.075 62.4653 86.963 62.2959C86.851 62.1265 86.6914 61.994 86.5043 61.9151C86.3171 61.8363 86.1109 61.8145 85.9114 61.8526C85.7119 61.8907 85.5282 61.9869 85.3833 62.1292C85.1708 61.8707 84.8833 61.6845 84.5605 61.5962C84.2377 61.508 83.8955 61.5221 83.581 61.6366C83.2666 61.7511 82.9954 61.9604 82.8049 62.2355C82.6144 62.5107 82.514 62.8382 82.5176 63.1728C82.5194 63.3092 82.5386 63.4449 82.5749 63.5764C82.4261 63.629 82.297 63.7258 82.2048 63.8538C82.1126 63.9819 82.0618 64.1351 82.0591 64.2928H88.6907C88.6766 63.9118 88.516 63.5509 88.2424 63.2853C87.9688 63.0198 87.6033 62.87 87.2221 62.8672Z" fill="#6BC62A"/>
<path d="M102.957 64.2904C103.235 63.9942 103.39 63.603 103.389 63.1967C103.388 62.8066 103.247 62.4299 102.991 62.1356C102.734 61.8414 102.381 61.6494 101.994 61.5949C101.608 61.5403 101.215 61.6268 100.888 61.8386C100.56 62.0503 100.32 62.3731 100.211 62.7477H100.139C100.052 62.7484 99.9658 62.7629 99.8835 62.7907C99.7546 62.4747 99.5204 62.2129 99.2206 62.0496C98.9208 61.8864 98.5738 61.8318 98.2384 61.895C97.903 61.9582 97.5997 62.1354 97.3799 62.3965C97.16 62.6576 97.0372 62.9867 97.0321 63.328C96.9588 63.309 96.8834 63.2986 96.8077 63.297C96.5668 63.2976 96.336 63.3937 96.1658 63.5643C95.9957 63.7349 95.9002 63.9659 95.9002 64.2068C95.8979 64.237 95.8979 64.2674 95.9002 64.2976L102.957 64.2904Z" fill="#6BC62A"/>
<path d="M91.874 64.0779H81.6674H81.5504V64.9925H81.6674H91.874H103.905V64.0779H91.874Z" fill="#303030"/>
<path d="M100.927 81.026H108.59V71.6624H100.927V81.026Z" fill="#F1F1F1"/>
<path d="M105.238 80.5317H108.115V72.1591H105.238V80.5317Z" fill="#A1DCED"/>
<path d="M101.386 80.5317H104.263V72.1591H101.386V80.5317Z" fill="#A1DCED"/>
<path d="M104.758 71.6624V81.0259" stroke="#CCCCCC" stroke-width="0.98" stroke-miterlimit="10"/>
<path d="M105.844 77.4176H115.585H115.702V81.8332H115.585H105.844H93.8154V77.4176H105.844Z" fill="#4C4C4C"/>
<path d="M105.612 77.4176H115.819H115.934V78.3323H115.819H105.612H93.5814V77.4176H105.612Z" fill="#303030"/>
<path d="M113.765 78.3322C113.82 78.237 113.849 78.1292 113.849 78.0194C113.848 77.8552 113.785 77.6974 113.671 77.5791C113.557 77.4608 113.402 77.3909 113.238 77.3842C113.256 77.3231 113.249 77.2573 113.218 77.2013C113.188 77.1453 113.136 77.1037 113.075 77.0857C113.014 77.0676 112.948 77.0746 112.892 77.105C112.836 77.1355 112.795 77.1869 112.777 77.2481C112.696 77.2003 112.603 77.1747 112.509 77.174C112.476 77.1705 112.442 77.1705 112.409 77.174C112.387 77.1262 112.353 77.0852 112.31 77.0556C112.266 77.0261 112.216 77.0092 112.163 77.0067C112.111 77.0042 112.059 77.0163 112.013 77.0416C111.967 77.0669 111.929 77.1045 111.903 77.1501C111.731 77.0258 111.523 76.9631 111.311 76.9722C111.1 76.9813 110.897 77.0617 110.737 77.2003C110.696 77.1773 110.649 77.165 110.601 77.1645C110.544 77.1645 110.488 77.1818 110.441 77.2142C110.393 77.2466 110.357 77.2925 110.336 77.346C110.269 77.3209 110.198 77.308 110.126 77.3078C109.987 77.3085 109.853 77.3561 109.744 77.4428C109.636 77.5294 109.56 77.6502 109.529 77.7854C109.503 77.7828 109.476 77.7828 109.45 77.7854C109.383 77.7851 109.316 77.8009 109.257 77.8315C109.197 77.8622 109.145 77.9068 109.106 77.9615C109.067 78.0163 109.042 78.0796 109.032 78.1462C109.023 78.2128 109.029 78.2807 109.051 78.3442L113.765 78.3322Z" fill="#6BC62A"/>
<path d="M113.887 78.2582H108.958V78.657H113.887V78.2582Z" fill="#B47D4F"/>
<path d="M113.744 78.657H109.101L109.405 79.3567H113.441L113.744 78.657Z" fill="#D49C6B"/>
<path d="M110.181 77.7256C110.181 77.7762 110.166 77.8256 110.138 77.8676C110.11 77.9096 110.07 77.9424 110.023 77.9617C109.976 77.9811 109.925 77.9861 109.875 77.9763C109.826 77.9664 109.78 77.9421 109.745 77.9063C109.709 77.8706 109.685 77.8251 109.675 77.7755C109.665 77.7259 109.67 77.6746 109.689 77.6279C109.709 77.5812 109.741 77.5413 109.783 77.5132C109.825 77.4851 109.875 77.4701 109.925 77.4701C109.993 77.4701 110.058 77.497 110.106 77.545C110.154 77.5929 110.181 77.6579 110.181 77.7256Z" fill="#F60C5B"/>
<path d="M110.018 77.7257C110.018 77.746 110.012 77.7659 110.001 77.7828C109.99 77.7996 109.974 77.8128 109.955 77.8206C109.936 77.8283 109.916 77.8304 109.896 77.8264C109.876 77.8225 109.858 77.8127 109.843 77.7983C109.829 77.784 109.819 77.7657 109.815 77.7457C109.811 77.7258 109.813 77.7052 109.821 77.6864C109.829 77.6676 109.842 77.6516 109.859 77.6403C109.876 77.629 109.895 77.623 109.916 77.623C109.943 77.623 109.969 77.6338 109.988 77.6531C110.008 77.6724 110.018 77.6985 110.018 77.7257Z" fill="#FF9300"/>
<path d="M111.193 77.2313C111.193 77.2819 111.178 77.3313 111.15 77.3733C111.122 77.4153 111.082 77.448 111.036 77.4674C110.989 77.4867 110.937 77.4918 110.888 77.4819C110.838 77.4721 110.793 77.4477 110.757 77.412C110.721 77.3763 110.697 77.3307 110.687 77.2812C110.677 77.2316 110.682 77.1802 110.702 77.1335C110.721 77.0868 110.754 77.0469 110.796 77.0189C110.838 76.9908 110.887 76.9758 110.938 76.9758C111.006 76.9758 111.071 77.0027 111.118 77.0506C111.166 77.0986 111.193 77.1635 111.193 77.2313Z" fill="#F60C5B"/>
<path d="M111.043 77.2314C111.043 77.2521 111.037 77.2725 111.025 77.2897C111.014 77.307 110.997 77.3205 110.978 77.3284C110.959 77.3364 110.938 77.3385 110.917 77.3344C110.897 77.3304 110.878 77.3204 110.864 77.3057C110.849 77.291 110.839 77.2722 110.835 77.2519C110.831 77.2315 110.833 77.2103 110.841 77.1911C110.849 77.1719 110.862 77.1555 110.88 77.144C110.897 77.1324 110.917 77.1263 110.938 77.1263C110.966 77.1263 110.993 77.1374 111.012 77.1571C111.032 77.1768 111.043 77.2035 111.043 77.2314Z" fill="#FF9300"/>
<path d="M111.817 77.802C111.81 77.8652 111.781 77.9239 111.734 77.9666C111.687 78.0093 111.626 78.0329 111.562 78.0329C111.499 78.0329 111.438 78.0093 111.391 77.9666C111.344 77.9239 111.314 77.8652 111.308 77.802C111.305 77.7666 111.309 77.7308 111.32 77.697C111.331 77.6631 111.349 77.632 111.373 77.6056C111.397 77.5792 111.426 77.5582 111.459 77.5437C111.491 77.5293 111.527 77.5219 111.562 77.5219C111.598 77.5219 111.633 77.5293 111.666 77.5437C111.698 77.5582 111.728 77.5792 111.751 77.6056C111.775 77.632 111.794 77.6631 111.805 77.697C111.816 77.7308 111.82 77.7666 111.817 77.802Z" fill="#F60C5B"/>
<path d="M111.666 77.802C111.666 77.8222 111.659 77.8419 111.648 77.8584C111.636 77.875 111.62 77.8878 111.601 77.8952C111.582 77.9026 111.562 77.9043 111.542 77.9001C111.522 77.8958 111.504 77.8859 111.49 77.8714C111.476 77.857 111.467 77.8387 111.463 77.8188C111.459 77.799 111.461 77.7784 111.469 77.7598C111.477 77.7412 111.49 77.7253 111.507 77.7141C111.524 77.7029 111.543 77.697 111.564 77.697C111.577 77.697 111.591 77.6997 111.603 77.705C111.616 77.7103 111.627 77.7181 111.637 77.7279C111.647 77.7377 111.654 77.7493 111.659 77.762C111.664 77.7747 111.667 77.7884 111.666 77.802Z" fill="#FF9300"/>
<path d="M112.645 77.3818C112.645 77.4325 112.63 77.482 112.602 77.524C112.574 77.5661 112.534 77.5988 112.487 77.6181C112.44 77.6374 112.389 77.6423 112.339 77.6322C112.289 77.6222 112.244 77.5976 112.208 77.5616C112.173 77.5257 112.148 77.4799 112.139 77.4302C112.129 77.3805 112.135 77.329 112.154 77.2824C112.174 77.2357 112.207 77.196 112.25 77.1682C112.292 77.1404 112.342 77.1258 112.392 77.1263C112.426 77.1263 112.459 77.1329 112.49 77.1458C112.52 77.1587 112.548 77.1775 112.572 77.2013C112.596 77.225 112.614 77.2532 112.627 77.2842C112.639 77.3152 112.646 77.3484 112.645 77.3818Z" fill="#F60C5B"/>
<path d="M112.485 77.3818C112.485 77.409 112.475 77.4351 112.455 77.4544C112.436 77.4736 112.41 77.4845 112.383 77.4845C112.355 77.4845 112.329 77.4736 112.31 77.4544C112.291 77.4351 112.28 77.409 112.28 77.3818C112.28 77.3545 112.291 77.3284 112.31 77.3092C112.329 77.2899 112.355 77.2791 112.383 77.2791C112.396 77.2791 112.41 77.2817 112.422 77.2869C112.434 77.2921 112.446 77.2996 112.455 77.3092C112.465 77.3187 112.472 77.33 112.478 77.3425C112.483 77.3549 112.485 77.3683 112.485 77.3818Z" fill="#FF9300"/>
<path d="M113.436 77.8021C113.436 77.8526 113.421 77.902 113.393 77.9441C113.365 77.9861 113.325 78.0188 113.278 78.0382C113.231 78.0575 113.18 78.0626 113.13 78.0527C113.081 78.0428 113.035 78.0185 113 77.9828C112.964 77.947 112.939 77.9015 112.93 77.8519C112.92 77.8024 112.925 77.751 112.944 77.7043C112.963 77.6576 112.996 77.6177 113.038 77.5896C113.08 77.5616 113.13 77.5466 113.18 77.5466C113.248 77.5466 113.313 77.5735 113.361 77.6214C113.409 77.6693 113.436 77.7343 113.436 77.8021Z" fill="#F60C5B"/>
<path d="M113.283 77.802C113.283 77.8222 113.276 77.8419 113.265 77.8584C113.253 77.875 113.237 77.8878 113.218 77.8952C113.199 77.9026 113.179 77.9043 113.159 77.9001C113.139 77.8958 113.121 77.8859 113.107 77.8714C113.093 77.857 113.083 77.8387 113.079 77.8188C113.076 77.799 113.078 77.7784 113.086 77.7598C113.094 77.7412 113.107 77.7253 113.123 77.7141C113.14 77.7029 113.16 77.697 113.18 77.697C113.194 77.697 113.208 77.6997 113.22 77.705C113.233 77.7103 113.244 77.7181 113.254 77.7279C113.263 77.7377 113.271 77.7493 113.276 77.762C113.281 77.7747 113.283 77.7884 113.283 77.802Z" fill="#FF9300"/>
<path d="M100.065 77.7734C100.039 77.7711 100.012 77.7711 99.9862 77.7734C99.9581 77.6555 99.8948 77.5489 99.8047 77.4678C99.8107 77.3813 99.7986 77.2946 99.7692 77.2132C99.7398 77.1317 99.6938 77.0572 99.634 76.9945C99.5742 76.9318 99.5021 76.8823 99.4221 76.8491C99.3421 76.8158 99.2561 76.7996 99.1695 76.8015C99.0619 76.7969 98.9551 76.8215 98.8605 76.8728C98.7659 76.9241 98.6869 77.0002 98.6321 77.0928C98.4868 77.0095 98.3221 76.9658 98.1545 76.9663C97.9571 76.9664 97.7648 77.0291 97.6053 77.1454C97.5793 77.0997 97.5413 77.0622 97.4953 77.0368C97.4493 77.0115 97.3972 76.9994 97.3448 77.0019C97.2924 77.0044 97.2417 77.0213 97.1983 77.0509C97.1549 77.0804 97.1205 77.1214 97.099 77.1692C97.0657 77.1657 97.032 77.1657 96.9987 77.1692C96.9046 77.17 96.8123 77.1955 96.7312 77.2433C96.7097 77.2069 96.6789 77.1769 96.642 77.1564C96.6051 77.1358 96.5633 77.1254 96.5211 77.1263C96.4878 77.1259 96.4547 77.1323 96.4238 77.1449C96.393 77.1575 96.365 77.1761 96.3414 77.1997C96.3178 77.2233 96.2992 77.2513 96.2866 77.2822C96.274 77.313 96.2676 77.3461 96.268 77.3794C96.1039 77.3862 95.9487 77.456 95.8348 77.5743C95.7209 77.6927 95.6571 77.8504 95.6566 78.0146C95.6568 78.1244 95.6856 78.2322 95.7402 78.3275H100.466C100.488 78.2638 100.495 78.1956 100.485 78.1289C100.476 78.0621 100.45 77.9986 100.411 77.9438C100.371 77.889 100.319 77.8445 100.259 77.814C100.199 77.7835 100.132 77.7679 100.065 77.7687V77.7734Z" fill="#6BC62A"/>
<path d="M95.6279 78.657H100.557V78.2582H95.6279V78.657Z" fill="#B47D4F"/>
<path d="M95.7712 78.657H100.416L100.113 79.3567H96.0745L95.7712 78.657Z" fill="#D49C6B"/>
<path d="M98.9618 77.217C98.9618 77.2676 98.9768 77.317 99.0049 77.359C99.0329 77.401 99.0729 77.4338 99.1195 77.4531C99.1662 77.4724 99.2176 77.4775 99.2672 77.4676C99.3167 77.4578 99.3623 77.4334 99.398 77.3977C99.4337 77.362 99.4581 77.3164 99.4679 77.2669C99.4778 77.2173 99.4727 77.1659 99.4534 77.1192C99.4341 77.0725 99.4013 77.0326 99.3593 77.0046C99.3173 76.9765 99.2679 76.9615 99.2173 76.9615C99.1837 76.9612 99.1503 76.9676 99.1192 76.9803C99.088 76.993 99.0597 77.0118 99.0359 77.0356C99.0121 77.0594 98.9933 77.0877 98.9806 77.1189C98.9679 77.15 98.9615 77.1834 98.9618 77.217Z" fill="#F60C5B"/>
<path d="M99.1146 77.217C99.1146 77.2373 99.1206 77.2572 99.1319 77.2741C99.1432 77.291 99.1593 77.3041 99.178 77.3119C99.1968 77.3197 99.2174 77.3217 99.2373 77.3178C99.2573 77.3138 99.2756 77.304 99.2899 77.2897C99.3043 77.2753 99.3141 77.257 99.318 77.2371C99.322 77.2172 99.32 77.1965 99.3122 77.1777C99.3044 77.159 99.2912 77.1429 99.2744 77.1317C99.2575 77.1204 99.2376 77.1143 99.2173 77.1143C99.1901 77.1143 99.164 77.1252 99.1447 77.1444C99.1254 77.1637 99.1146 77.1898 99.1146 77.217Z" fill="#FF9300"/>
<path d="M99.4441 77.9287C99.4441 77.9792 99.4591 78.0286 99.4872 78.0706C99.5152 78.1127 99.5551 78.1454 99.6018 78.1648C99.6485 78.1841 99.6999 78.1891 99.7495 78.1793C99.799 78.1694 99.8446 78.1451 99.8803 78.1094C99.916 78.0736 99.9404 78.0281 99.9502 77.9785C99.9601 77.929 99.955 77.8776 99.9357 77.8309C99.9163 77.7842 99.8836 77.7443 99.8416 77.7162C99.7996 77.6881 99.7502 77.6732 99.6996 77.6732C99.6318 77.6732 99.5668 77.7001 99.5189 77.748C99.471 77.7959 99.4441 77.8609 99.4441 77.9287Z" fill="#F60C5B"/>
<path d="M99.5946 77.9286C99.5952 77.9561 99.6066 77.9822 99.6262 78.0014C99.6459 78.0206 99.6722 78.0313 99.6997 78.0313C99.7269 78.0313 99.753 78.0205 99.7723 78.0013C99.7915 77.982 99.8024 77.9559 99.8024 77.9286C99.8024 77.9014 99.7915 77.8753 99.7723 77.856C99.753 77.8368 99.7269 77.826 99.6997 77.826C99.6722 77.826 99.6459 77.8367 99.6262 77.8559C99.6066 77.8751 99.5952 77.9012 99.5946 77.9286Z" fill="#FF9300"/>
<path d="M98.1832 77.6182C98.1828 77.6689 98.1974 77.7187 98.2253 77.7611C98.2532 77.8034 98.2931 77.8366 98.3399 77.8562C98.3867 77.8758 98.4382 77.8811 98.488 77.8713C98.5378 77.8615 98.5836 77.8371 98.6194 77.8013C98.6553 77.7654 98.6797 77.7196 98.6895 77.6698C98.6993 77.6201 98.694 77.5685 98.6744 77.5217C98.6547 77.4749 98.6216 77.435 98.5792 77.4071C98.5368 77.3792 98.4871 77.3646 98.4364 77.3651C98.3692 77.3651 98.3049 77.3917 98.2574 77.4392C98.2099 77.4867 98.1832 77.5511 98.1832 77.6182Z" fill="#F60C5B"/>
<path d="M98.3337 77.6182C98.3337 77.6457 98.3445 77.6721 98.3637 77.6917C98.3829 77.7113 98.409 77.7227 98.4364 77.7233C98.4514 77.7256 98.4667 77.7246 98.4812 77.7204C98.4958 77.7162 98.5092 77.709 98.5207 77.6991C98.5322 77.6892 98.5414 77.677 98.5477 77.6633C98.554 77.6495 98.5573 77.6346 98.5573 77.6194C98.5573 77.6043 98.554 77.5893 98.5477 77.5756C98.5414 77.5618 98.5322 77.5496 98.5207 77.5397C98.5092 77.5299 98.4958 77.5226 98.4812 77.5184C98.4667 77.5142 98.4514 77.5133 98.4364 77.5155C98.4092 77.5155 98.3831 77.5264 98.3638 77.5456C98.3446 77.5649 98.3337 77.591 98.3337 77.6182Z" fill="#FF9300"/>
<path d="M97.1969 77.2313C97.203 77.2945 97.2324 77.3532 97.2795 77.3958C97.3265 77.4385 97.3877 77.4622 97.4512 77.4622C97.5147 77.4622 97.5759 77.4385 97.6229 77.3958C97.67 77.3532 97.6994 77.2945 97.7055 77.2313C97.709 77.1958 97.705 77.16 97.6937 77.1262C97.6825 77.0924 97.6644 77.0613 97.6404 77.0349C97.6165 77.0085 97.5872 76.9874 97.5547 76.973C97.5221 76.9586 97.4868 76.9511 97.4512 76.9511C97.4156 76.9511 97.3803 76.9586 97.3477 76.973C97.3152 76.9874 97.2859 77.0085 97.262 77.0349C97.238 77.0613 97.2199 77.0924 97.2087 77.1262C97.1974 77.16 97.1934 77.1958 97.1969 77.2313Z" fill="#F60C5B"/>
<path d="M97.3474 77.2314C97.3479 77.2516 97.3543 77.2712 97.3659 77.2877C97.3775 77.3043 97.3937 77.3171 97.4125 77.3245C97.4313 77.3319 97.4518 77.3336 97.4716 77.3294C97.4913 77.3252 97.5094 77.3152 97.5235 77.3007C97.5377 77.2863 97.5472 77.268 97.551 77.2481C97.5548 77.2283 97.5526 77.2078 97.5447 77.1891C97.5369 77.1705 97.5238 77.1546 97.5069 77.1434C97.4901 77.1323 97.4703 77.1263 97.4501 77.1263C97.4364 77.1263 97.4229 77.129 97.4103 77.1343C97.3977 77.1396 97.3862 77.1474 97.3767 77.1572C97.3671 77.167 97.3596 77.1786 97.3546 77.1913C97.3495 77.2041 97.3471 77.2177 97.3474 77.2314Z" fill="#FF9300"/>
<path d="M96.8387 77.8259C96.8448 77.8891 96.8743 77.9478 96.9213 77.9905C96.9683 78.0332 97.0296 78.0568 97.093 78.0568C97.1565 78.0568 97.2178 78.0332 97.2648 77.9905C97.3118 77.9478 97.3412 77.8891 97.3474 77.8259C97.3508 77.7905 97.3468 77.7547 97.3356 77.7209C97.3244 77.687 97.3062 77.6559 97.2823 77.6295C97.2583 77.6031 97.2291 77.5821 97.1965 77.5676C97.1639 77.5532 97.1287 77.5457 97.093 77.5457C97.0574 77.5457 97.0222 77.5532 96.9896 77.5676C96.957 77.5821 96.9278 77.6031 96.9038 77.6295C96.8799 77.6559 96.8617 77.687 96.8505 77.7209C96.8393 77.7547 96.8353 77.7905 96.8387 77.8259Z" fill="#F60C5B"/>
<path d="M96.9892 77.8259C96.9887 77.8469 96.9945 77.8676 97.0059 77.8852C97.0172 77.9028 97.0336 77.9167 97.0529 77.9249C97.0722 77.9332 97.0935 77.9355 97.1141 77.9315C97.1347 77.9275 97.1537 77.9174 97.1685 77.9026C97.1833 77.8878 97.1934 77.8688 97.1974 77.8482C97.2014 77.8276 97.1991 77.8063 97.1908 77.787C97.1826 77.7677 97.1687 77.7513 97.1511 77.74C97.1335 77.7286 97.1128 77.7228 97.0918 77.7233C97.0646 77.7233 97.0385 77.7341 97.0192 77.7533C97 77.7726 96.9892 77.7987 96.9892 77.8259Z" fill="#FF9300"/>
<path d="M95.929 77.7233C95.929 77.7738 95.944 77.8232 95.972 77.8653C96.0001 77.9073 96.04 77.94 96.0867 77.9594C96.1334 77.9787 96.1848 77.9838 96.2343 77.9739C96.2839 77.9641 96.3294 77.9397 96.3652 77.904C96.4009 77.8683 96.4252 77.8227 96.4351 77.7732C96.445 77.7236 96.4399 77.6722 96.4206 77.6255C96.4012 77.5788 96.3685 77.5389 96.3264 77.5108C96.2844 77.4828 96.235 77.4678 96.1845 77.4678C96.1508 77.4675 96.1175 77.4739 96.0863 77.4866C96.0552 77.4993 96.0269 77.5181 96.0031 77.5419C95.9793 77.5657 95.9605 77.594 95.9478 77.6251C95.935 77.6563 95.9286 77.6897 95.929 77.7233Z" fill="#F60C5B"/>
<path d="M96.0697 77.7233C96.0697 77.7441 96.0759 77.7644 96.0874 77.7817C96.099 77.799 96.1154 77.8124 96.1346 77.8204C96.1538 77.8283 96.1749 77.8304 96.1953 77.8264C96.2157 77.8223 96.2344 77.8123 96.2491 77.7976C96.2638 77.7829 96.2738 77.7642 96.2778 77.7438C96.2819 77.7234 96.2798 77.7023 96.2719 77.6831C96.2639 77.6639 96.2504 77.6475 96.2332 77.6359C96.2159 77.6244 96.1956 77.6182 96.1748 77.6182C96.1469 77.6182 96.1202 77.6293 96.1005 77.649C96.0808 77.6687 96.0697 77.6954 96.0697 77.7233Z" fill="#FF9300"/>
<path d="M90.145 48.4719H90.1307C90.1307 48.3402 90.0783 48.2139 89.9852 48.1207C89.892 48.0276 89.7657 47.9752 89.634 47.9752C89.5022 47.9752 89.3759 48.0276 89.2827 48.1207C89.1896 48.2139 89.1372 48.3402 89.1372 48.4719C89.1384 48.5315 89.1497 48.5905 89.1707 48.6463C89.032 48.6587 88.9037 48.7246 88.8129 48.8301C88.722 48.9356 88.6759 49.0724 88.6843 49.2113C88.6927 49.3503 88.7549 49.4805 88.8578 49.5743C88.9606 49.6681 89.096 49.7181 89.2352 49.7137C89.3279 49.7139 89.419 49.6897 89.4995 49.6436C89.5799 49.5975 89.6469 49.5311 89.6937 49.451C89.7575 49.5269 89.8394 49.5855 89.9319 49.6213C90.0243 49.6572 90.1243 49.6691 90.2226 49.6561C90.3209 49.643 90.4143 49.6054 90.4942 49.5467C90.5741 49.4881 90.638 49.4102 90.6798 49.3203C90.7216 49.2304 90.7402 49.1314 90.7336 49.0325C90.7271 48.9335 90.6957 48.8378 90.6424 48.7542C90.5891 48.6706 90.5156 48.6018 90.4287 48.5541C90.3417 48.5065 90.2442 48.4815 90.145 48.4815V48.4719Z" fill="#6BC62A"/>
<path d="M88.6476 49.654H90.7921V49.2552H88.6476V49.654Z" fill="#B47D4F"/>
<path d="M88.7886 49.654H90.6489L90.3456 50.3561H89.0919L88.7886 49.654Z" fill="#D49C6B"/>
<path d="M114.245 90.9078C114.851 90.9078 115.341 90.417 115.341 89.8117C115.341 89.2063 114.851 88.7155 114.245 88.7155C113.64 88.7155 113.149 89.2063 113.149 89.8117C113.149 90.417 113.64 90.9078 114.245 90.9078Z" fill="#6BC62A"/>
<path d="M114.245 90.9078C114.702 90.9078 115.072 90.417 115.072 89.8117C115.072 89.2063 114.702 88.7155 114.245 88.7155C113.789 88.7155 113.419 89.2063 113.419 89.8117C113.419 90.417 113.789 90.9078 114.245 90.9078Z" fill="#00B53E"/>
<path d="M114.245 90.9078C114.475 90.9078 114.661 90.417 114.661 89.8117C114.661 89.2063 114.475 88.7155 114.245 88.7155C114.016 88.7155 113.83 89.2063 113.83 89.8117C113.83 90.417 114.016 90.9078 114.245 90.9078Z" fill="#6BC62A"/>
<path d="M113.173 90.8266H115.318V90.4278H113.173V90.8266Z" fill="#B47D4F"/>
<path d="M113.314 90.8266H115.174L114.871 91.5263H113.62L113.314 90.8266Z" fill="#D49C6B"/>
<path d="M110.773 90.8266H112.918V90.4278H110.773V90.8266Z" fill="#B47D4F"/>
<path d="M110.914 90.8266H112.777L112.471 91.5263H111.22L110.914 90.8266Z" fill="#D49C6B"/>
<path d="M112.483 90.4277H111.213V88.7561C111.213 88.5872 111.281 88.4254 111.4 88.3059C111.519 88.1865 111.681 88.1191 111.85 88.1185C112.019 88.1185 112.181 88.1857 112.301 88.3052C112.421 88.4248 112.488 88.587 112.488 88.7561L112.483 90.4277Z" fill="#6BC62A"/>
<path d="M112.244 90.4277H111.451V88.5173C111.451 88.4121 111.493 88.3113 111.567 88.237C111.642 88.1626 111.743 88.1208 111.848 88.1208C111.953 88.1208 112.054 88.1625 112.129 88.2368C112.204 88.3111 112.246 88.4119 112.247 88.5173L112.244 90.4277Z" fill="#00B53E"/>
<path d="M112.02 90.4278H111.671V88.3024C111.671 88.2562 111.689 88.2118 111.722 88.1791C111.755 88.1464 111.799 88.1281 111.845 88.1281C111.892 88.1281 111.936 88.1464 111.969 88.1791C112.001 88.2118 112.02 88.2562 112.02 88.3024V90.4278Z" fill="#6BC62A"/>
</g>
<defs>
<clipPath id="clip0">
<rect width="74.3818" height="115.965" fill="white"/>
</clipPath>
<clipPath id="clip1">
<rect width="42.9899" height="67.0234" fill="white" transform="translate(76.9414 38.1865)"/>
</clipPath>
</defs>
</svg>
