<svg width="93" height="28" viewBox="0 0 93 28" fill="none" xmlns="http://www.w3.org/2000/svg">
<g clip-path="url(#clip0)">
<path d="M27.3392 10.2954L18.2699 9.45427L14.6673 1.08879C14.4151 0.503036 13.5846 0.503036 13.3324 1.08879L9.72982 9.45432L0.660517 10.2954C0.025487 10.3543 -0.231161 11.1442 0.247955 11.565L7.09077 17.5764L5.08823 26.4618C4.94801 27.0839 5.6199 27.572 6.16825 27.2464L13.9999 22.5961L21.8315 27.2464C22.3798 27.572 23.0518 27.0839 22.9116 26.4618L20.909 17.5764L27.7518 11.565C28.2309 11.1442 27.9742 10.3543 27.3392 10.2954Z" fill="#FFDC64"/>
<path d="M14.6673 1.08879C14.4151 0.503036 13.5846 0.503036 13.3324 1.08879L9.72982 9.45432L0.660517 10.2954C0.025487 10.3543 -0.231161 11.1442 0.247955 11.565L7.09077 17.5764L5.08823 26.4618C4.94801 27.0839 5.6199 27.572 6.16825 27.2464L7.91622 26.2085C8.15816 16.2499 12.7853 9.23694 16.4487 5.22513L14.6673 1.08879Z" fill="#FFC850"/>
</g>
<g clip-path="url(#clip1)">
<path d="M59.5052 10.2954L50.4359 9.45427L46.8333 1.08879C46.5811 0.503036 45.7506 0.503036 45.4984 1.08879L41.8958 9.45432L32.8265 10.2954C32.1915 10.3543 31.9349 11.1442 32.414 11.565L39.2568 17.5764L37.2542 26.4618C37.114 27.0839 37.7859 27.572 38.3343 27.2464L46.1659 22.5961L53.9975 27.2464C54.5459 27.572 55.2178 27.0839 55.0776 26.4618L53.075 17.5764L59.9178 11.565C60.3969 11.1442 60.1403 10.3543 59.5052 10.2954Z" fill="#FFDC64"/>
<path d="M46.8333 1.08879C46.5811 0.503036 45.7506 0.503036 45.4984 1.08879L41.8958 9.45432L32.8265 10.2954C32.1915 10.3543 31.9349 11.1442 32.414 11.565L39.2568 17.5764L37.2542 26.4618C37.114 27.0839 37.7859 27.572 38.3343 27.2464L40.0822 26.2085C40.3242 16.2499 44.9513 9.23694 48.6147 5.22513L46.8333 1.08879Z" fill="#FFC850"/>
</g>
<g clip-path="url(#clip2)">
<path d="M91.475 10.2954L82.4057 9.45427L78.8031 1.08879C78.5508 0.503036 77.7203 0.503036 77.4681 1.08879L73.8656 9.45432L64.7963 10.2954C64.1612 10.3543 63.9046 11.1442 64.3837 11.565L71.2265 17.5764L69.224 26.4618C69.0838 27.0839 69.7556 27.572 70.304 27.2464L78.1356 22.5961L85.9672 27.2464C86.5156 27.572 87.1875 27.0839 87.0473 26.4618L85.0447 17.5764L91.8875 11.565C92.3666 11.1442 92.11 10.3543 91.475 10.2954Z" fill="#FFDC64"/>
<path d="M78.8031 1.08879C78.5508 0.503036 77.7203 0.503036 77.4681 1.08879L73.8656 9.45432L64.7963 10.2954C64.1612 10.3543 63.9046 11.1442 64.3837 11.565L71.2265 17.5764L69.224 26.4618C69.0838 27.0839 69.7556 27.572 70.304 27.2464L72.052 26.2085C72.2939 16.2499 76.921 9.23694 80.5844 5.22513L78.8031 1.08879Z" fill="#FFC850"/>
</g>
<defs>
<clipPath id="clip0">
<rect width="28" height="28" fill="white"/>
</clipPath>
<clipPath id="clip1">
<rect width="28" height="28" fill="white" transform="translate(32.166)"/>
</clipPath>
<clipPath id="clip2">
<rect width="28" height="28" fill="white" transform="translate(64.1357)"/>
</clipPath>
</defs>
</svg>
