<svg width="150" height="48" viewBox="0 0 150 48" fill="none" xmlns="http://www.w3.org/2000/svg">
<path d="M33.5327 8.11247C35.3429 8.11247 36.8103 6.42611 36.8103 4.34599C36.8103 2.26583 35.3429 0.579529 33.5327 0.579529C31.7226 0.579529 30.2551 2.26583 30.2551 4.34599C30.2551 6.42611 31.7226 8.11247 33.5327 8.11247Z" fill="#FFE141"/>
<path d="M22.6911 28.2118L19.3785 35.3403L14.1934 47.5154H0L15.6578 12.1685L22.6911 28.2118Z" fill="#FFE141"/>
<path d="M67.569 47.5154H53.447L48.3123 35.3935L44.8779 28.474L51.9899 12.1685L67.569 47.5154Z" fill="#FFE141"/>
<path d="M19.1615 4.05534C19.1615 6.29643 17.5812 8.1124 15.6325 8.1124C13.6823 8.1124 12.1021 6.29643 12.1021 4.05534C12.1021 1.81597 13.6823 0 15.6325 0C17.5812 0 19.1615 1.81597 19.1615 4.05534Z" fill="#FFE141"/>
<path d="M55.4672 4.05534C55.4672 6.29643 53.8869 8.1124 51.9382 8.1124C49.988 8.1124 48.4077 6.29643 48.4077 4.05534C48.4077 1.81597 49.988 0 51.9382 0C53.8869 0 55.4672 1.81597 55.4672 4.05534Z" fill="#FFE141"/>
<path d="M41.3484 28.3237L33.6036 45.7772L25.7168 28.0039L28.7752 21.5024L33.3212 11.5892L37.9042 21.5059L41.3484 28.3237Z" fill="#FFE141"/>
<path d="M97.6173 20.6788C97.6173 20.8696 97.6387 21.0128 97.4707 21.0128L93.1184 21.0114C92.9517 21.0114 92.9304 20.9394 92.9304 20.8205L92.7424 14.5991C92.7424 14.5991 90.4196 16.8001 89.5408 17.5902C89.4568 17.6863 89.3941 17.7092 89.3529 17.7092C89.3115 17.7092 89.2688 17.6847 89.1649 17.5902C88.2235 16.7284 86.2367 14.5991 86.2367 14.5991L86.0886 20.6531C86.0886 20.9644 86.0473 20.9886 85.8166 20.9886H81.9884C81.7791 20.9886 81.7791 20.9416 81.7791 20.6774C81.8218 15.9155 82.0326 9.54885 82.2633 4.73959C82.2633 4.57181 82.2846 4.5246 82.3259 4.50017C82.3672 4.45288 82.4299 4.47574 82.5567 4.57181C84.8994 6.53494 88.5183 10.0294 89.501 11.0346C90.5263 10.0294 94.2719 6.44044 96.6774 4.45452C96.7814 4.35838 96.8654 4.31116 96.9081 4.33559C96.9508 4.36001 96.9708 4.4073 96.9708 4.57508C97.3054 10.844 97.4507 14.9119 97.6173 20.6788Z" fill="#2F2F2F"/>
<path d="M105.252 20.7763C105.252 20.9686 105.231 20.9914 105.043 20.9914L100.42 20.9899C100.211 20.9899 100.211 21.0142 100.211 20.7749L100.214 4.98017C100.214 4.74067 100.214 4.76511 100.423 4.76511L105.046 4.76674C105.234 4.76674 105.255 4.79117 105.255 4.98181L105.252 20.7763Z" fill="#2F2F2F"/>
<path d="M121.592 12.8812C121.591 18.3616 119.101 20.9926 113.997 20.9926L108.39 20.9912C108.202 20.9912 108.181 21.0154 108.181 20.7761L108.184 5.00597C108.184 4.81369 108.205 4.76648 108.393 4.76648L114.523 4.76811C119.333 4.76811 121.592 7.61745 121.592 12.8812ZM116.571 12.8095C116.571 10.2012 115.441 9.26781 113.956 9.26781H112.952L112.95 16.4946H113.913C115.314 16.4946 116.571 15.6083 116.571 12.8095Z" fill="#2F2F2F"/>
<path d="M137.741 20.6621C137.908 20.9975 137.888 20.9975 137.657 20.9975L132.741 20.9961C132.637 20.9961 132.532 20.9712 132.448 20.8053C132.197 20.1586 131.988 19.5853 131.737 18.9856L126.862 18.9839C126.59 19.6537 126.443 20.1572 126.193 20.7305C126.089 20.9455 126.067 20.994 125.774 20.9925L121.486 20.9911C121.318 20.9911 121.276 20.895 121.402 20.6557C123.934 15.4389 126.759 9.21726 128.955 4.55143C128.998 4.45536 129.227 4.4325 129.458 4.4325C129.709 4.4325 129.961 4.4325 130.002 4.52864C132.429 9.60503 135.169 15.3966 137.741 20.6621ZM130.588 15.4438C130.588 15.4438 130.065 14.0086 129.668 13.0017C129.48 12.4999 129.333 12.0438 129.333 12.0438C129.333 12.0438 129.186 12.4984 128.998 13.0017C128.621 14.0314 128.057 15.4422 128.057 15.4422L130.588 15.4438Z" fill="#2F2F2F"/>
<path d="M150 15.3755C150 19.3718 147.217 21.5724 143.743 21.5724C140.898 21.5724 138.953 20.1602 138.138 17.9104C138.013 17.5275 138.034 17.5275 138.222 17.4559L141.339 16.1167C141.527 16.045 141.549 16.045 141.59 16.2128C141.819 17.0975 142.657 17.7931 143.578 17.7931C144.561 17.7931 145.042 17.2913 145.042 16.5729C145.042 15.7827 144.457 15.496 143.222 15.3282C143.075 15.3038 142.845 15.281 142.699 15.2565C141.11 15.1132 138.349 14.2742 138.349 10.3985C138.349 6.66615 140.462 4.27295 144.437 4.27295C147.365 4.27295 149.144 5.70987 149.52 7.79186C149.582 8.07857 149.582 8.103 149.373 8.19914L146.424 9.4422C146.257 9.53827 146.236 9.53827 146.173 9.34606C145.838 8.46142 145.294 7.9825 144.269 7.9825C143.287 7.9825 142.909 8.46142 142.909 9.10657C142.909 9.82499 143.453 10.0645 145.001 10.3284C145.21 10.3757 145.461 10.4001 145.754 10.449C148.096 10.853 150 12.0016 150 15.3755Z" fill="#2F2F2F"/>
<path d="M86.7465 28.2232C86.7364 28.335 86.7465 28.3464 86.6595 28.3464L83.7457 28.3222V30.0214L86.332 29.9822C86.4303 29.9822 86.473 30.0328 86.473 30.1339C86.4944 30.6566 86.5057 31.2207 86.473 31.8182C86.463 31.9321 86.4189 31.957 86.3206 31.957L83.7457 31.9321V34.6903C83.7457 34.827 83.7343 34.8648 83.6474 34.8648H81.8686C81.8031 34.8648 81.7817 34.8776 81.7817 34.6903V26.5625C81.7817 26.4129 81.7917 26.4001 81.8686 26.4001H86.6595C86.7465 26.4001 86.7351 26.4257 86.7465 26.5254C86.7806 27.0595 86.7906 27.734 86.7465 28.2232Z" fill="#2F2F2F"/>
<path d="M91.1672 34.7509C91.1672 34.852 91.1572 34.8634 91.0589 34.8634H89.2459C89.1477 34.8634 89.1477 34.8763 89.1477 34.7509V26.5127C89.1477 26.3866 89.1477 26.398 89.2459 26.398H91.0575C91.1558 26.398 91.1657 26.4116 91.1657 26.5127V34.7509H91.1672Z" fill="#2F2F2F"/>
<path d="M100.421 34.9252C100.421 35.0113 100.421 35.0747 100.389 35.0861C100.367 35.0989 100.335 35.0861 100.29 35.0491C98.6426 33.6397 96.0677 30.93 96.0677 30.93V34.7507C96.0677 34.8632 96.0677 34.8632 95.9694 34.8632H94.3217C94.2447 34.8632 94.212 34.7884 94.212 34.7379C94.1579 31.5545 94.1693 29.5697 94.212 26.276C94.212 26.2126 94.2234 26.1877 94.2447 26.1749C94.2661 26.1507 94.2989 26.1635 94.3316 26.1877C95.8925 27.4603 98.5657 30.2933 98.5657 30.2933V26.5495C98.5657 26.4113 98.5657 26.3978 98.6526 26.3978H100.31C100.42 26.3978 100.42 26.4242 100.42 26.5495C100.464 28.9836 100.454 32.3279 100.421 34.9252Z" fill="#2F2F2F"/>
<path d="M110.32 34.6888C110.385 34.8518 110.374 34.8632 110.277 34.8632H108.236C108.182 34.8632 108.138 34.8518 108.105 34.7635C107.974 34.4253 107.81 33.9638 107.702 33.6526H105.062C104.931 34.0029 104.788 34.4267 104.68 34.7279C104.647 34.8276 104.626 34.8647 104.483 34.8647H102.672C102.585 34.8647 102.562 34.8162 102.618 34.6902C103.742 31.932 105.478 27.9489 106.328 26.1258C106.339 26.1016 106.393 26.1016 106.459 26.1016C106.524 26.1016 106.578 26.0888 106.59 26.1258C107.581 28.3449 109.119 31.9306 110.32 34.6888ZM107.123 32.0281L106.348 30.1324L105.606 32.0281H107.123Z" fill="#2F2F2F"/>
<path d="M118.766 34.9252C118.766 35.0113 118.766 35.0747 118.734 35.0861C118.712 35.0989 118.679 35.0861 118.635 35.0491C116.988 33.6397 114.413 30.93 114.413 30.93V34.7507C114.413 34.8632 114.413 34.8632 114.314 34.8632H112.667C112.59 34.8632 112.557 34.7884 112.557 34.7379C112.503 31.5545 112.514 29.5697 112.557 26.276C112.557 26.2126 112.568 26.1877 112.59 26.1749C112.611 26.1507 112.644 26.1635 112.677 26.1877C114.237 27.4603 116.911 30.2933 116.911 30.2933V26.5495C116.911 26.4113 116.911 26.3978 116.998 26.3978H118.655C118.765 26.3978 118.765 26.4242 118.765 26.5495C118.809 28.9836 118.799 32.3279 118.766 34.9252Z" fill="#2F2F2F"/>
<path d="M128.707 32.4911C128.216 33.8513 126.994 35.0748 125.292 35.0748C122.968 35.0748 121.418 33.0644 121.418 30.668C121.418 28.1106 123.099 26.2241 125.238 26.2241C127.038 26.2241 128.141 27.3329 128.632 28.6091C128.686 28.7587 128.642 28.8092 128.599 28.8335L126.973 29.557C126.907 29.5834 126.897 29.557 126.874 29.4951C126.558 28.7459 126.034 28.3599 125.282 28.3599C124.191 28.3599 123.492 29.3469 123.492 30.6829C123.492 32.2433 124.398 32.954 125.315 32.954C126.057 32.954 126.581 32.5431 126.843 31.905C126.876 31.843 126.886 31.7925 126.974 31.8167L128.611 32.328C128.719 32.3658 128.73 32.4163 128.707 32.4911Z" fill="#2F2F2F"/>
<path d="M133.073 34.7509C133.073 34.852 133.063 34.8634 132.965 34.8634H131.154C131.055 34.8634 131.055 34.8763 131.055 34.7509V26.5127C131.055 26.3866 131.055 26.398 131.154 26.398H132.965C133.063 26.398 133.073 26.4116 133.073 26.5127V34.7509Z" fill="#2F2F2F"/>
<path d="M142.971 34.6888C143.037 34.8518 143.026 34.8632 142.928 34.8632H140.888C140.834 34.8632 140.79 34.8518 140.757 34.7635C140.626 34.4253 140.462 33.9638 140.354 33.6526H137.713C137.582 34.0029 137.44 34.4267 137.332 34.7279C137.299 34.8276 137.278 34.8647 137.135 34.8647H135.324C135.237 34.8647 135.214 34.8162 135.269 34.6902C136.393 31.932 138.129 27.9489 138.979 26.1258C138.991 26.1016 139.045 26.1016 139.11 26.1016C139.176 26.1016 139.23 26.0888 139.242 26.1258C140.233 28.3449 141.771 31.9306 142.971 34.6888ZM139.774 32.0281L138.999 30.1324L138.257 32.0281H139.774Z" fill="#2F2F2F"/>
<path d="M150 34.7509C150 34.852 150 34.8634 149.914 34.8634H145.298C145.199 34.8634 145.199 34.8763 145.199 34.7509V26.5127C145.199 26.3866 145.199 26.398 145.298 26.398H147.065C147.152 26.398 147.164 26.4116 147.164 26.5127V32.8772L149.902 32.8153C149.989 32.8153 150 32.8402 150 32.9406V34.7509Z" fill="#2F2F2F"/>
<path d="M88.1365 44.2845C87.7078 45.4702 86.6425 46.5363 85.1585 46.5363C83.1333 46.5363 81.7817 44.7844 81.7817 42.6964C81.7817 40.4645 83.2472 38.8223 85.1115 38.8223C86.6809 38.8223 87.6423 39.7915 88.0695 40.8989C88.1179 41.0292 88.0795 41.0734 88.041 41.0948L86.6239 41.725C86.567 41.7478 86.557 41.725 86.5385 41.6716C86.2622 41.02 85.8065 40.681 85.1499 40.681C84.1986 40.681 83.5904 41.5413 83.5904 42.7042C83.5904 44.0644 84.3794 44.6854 85.1784 44.6854C85.825 44.6854 86.2821 44.3251 86.51 43.771C86.5385 43.7162 86.5485 43.6735 86.6239 43.6948L88.051 44.1414C88.1464 44.1755 88.1564 44.2197 88.1365 44.2845Z" fill="#2F2F2F"/>
<path d="M94.3673 46.252C94.3673 46.3404 94.3673 46.3503 94.2904 46.3503H90.2671C90.1816 46.3503 90.1816 46.3617 90.1816 46.252V39.0714C90.1816 38.9638 90.1816 38.9731 90.2671 38.9731H91.808C91.8835 38.9731 91.8935 38.9845 91.8935 39.0714V44.6219L94.2804 44.5678C94.3574 44.5678 94.3659 44.5892 94.3659 44.6753V46.252H94.3673Z" fill="#2F2F2F"/>
<path d="M102.54 46.1988C102.597 46.3405 102.588 46.3505 102.501 46.3505H100.722C100.675 46.3505 100.637 46.3405 100.608 46.2636C100.495 45.9688 100.351 45.5685 100.257 45.2965H97.9538C97.8398 45.6006 97.7159 45.9688 97.6205 46.2316C97.592 46.3177 97.5735 46.3505 97.4496 46.3505H95.8702C95.7933 46.3505 95.7748 46.3078 95.8217 46.1988C96.8016 43.7938 98.314 40.3228 99.0561 38.734C99.066 38.7126 99.113 38.7126 99.17 38.7126C99.227 38.7126 99.2754 38.7012 99.2839 38.734C100.153 40.671 101.493 43.7938 102.54 46.1988ZM99.7525 43.8807L99.0774 42.2271L98.4308 43.8807H99.7525Z" fill="#2F2F2F"/>
<path d="M109.179 44.1215C109.179 45.798 107.971 46.5365 106.477 46.5365C105.183 46.5365 104.375 45.9383 104.052 44.8714C104.013 44.7525 104.023 44.6984 104.09 44.6656L105.26 44.1215C105.345 44.0781 105.345 44.0895 105.364 44.1757C105.478 44.578 105.916 45.0566 106.514 45.0566C107.171 45.0566 107.476 44.8287 107.476 44.3274C107.476 43.8808 107.199 43.5974 106.325 43.4785C106.258 43.4671 106.164 43.4571 106.096 43.4457C104.945 43.3154 104.146 42.5755 104.146 41.2252C104.146 39.8109 104.993 38.8203 106.677 38.8203C107.943 38.8203 108.723 39.5046 108.97 40.4205C108.998 40.5394 108.96 40.5814 108.903 40.6042L107.789 41.1162C107.722 41.1483 107.694 41.1255 107.675 41.0721C107.543 40.637 107.105 40.2118 106.61 40.2118C105.943 40.2118 105.735 40.4952 105.735 40.8962C105.735 41.3975 106.087 41.6048 106.943 41.7679C107.028 41.7793 107.134 41.8006 107.258 41.8213C108.475 42.02 109.179 42.7613 109.179 44.1215Z" fill="#2F2F2F"/>
<path d="M116.19 44.1215C116.19 45.798 114.982 46.5365 113.488 46.5365C112.194 46.5365 111.386 45.9383 111.063 44.8714C111.024 44.7525 111.034 44.6984 111.101 44.6656L112.272 44.1215C112.357 44.0781 112.357 44.0895 112.376 44.1757C112.49 44.578 112.927 45.0566 113.527 45.0566C114.183 45.0566 114.488 44.8287 114.488 44.3274C114.488 43.8808 114.212 43.5974 113.337 43.4785C113.27 43.4671 113.176 43.4571 113.108 43.4457C111.957 43.3154 111.158 42.5755 111.158 41.2252C111.158 39.8109 112.005 38.8203 113.689 38.8203C114.954 38.8203 115.734 39.5046 115.982 40.4205C116.01 40.5394 115.972 40.5814 115.915 40.6042L114.801 41.1162C114.734 41.1483 114.706 41.1255 114.687 41.0721C114.555 40.637 114.118 40.2118 113.622 40.2118C112.955 40.2118 112.747 40.4952 112.747 40.8962C112.747 41.3975 113.099 41.6048 113.955 41.7679C114.041 41.7793 114.145 41.8006 114.27 41.8213C115.486 42.02 116.19 42.7613 116.19 44.1215Z" fill="#2F2F2F"/>
<path d="M124.171 46.0583C124.285 46.2748 124.257 46.3517 124.151 46.3517H122.468C122.391 46.3517 122.354 46.3304 122.269 46.1352C121.945 45.4266 121.25 44.1768 121.25 44.1768L120.157 44.1982V46.2542C120.157 46.3418 120.147 46.3517 120.08 46.3517H118.52C118.443 46.3517 118.443 46.3631 118.443 46.2542V39.0728C118.443 38.9653 118.492 38.9752 118.52 38.9752H121.47C122.935 38.9752 123.716 40.1282 123.716 41.4678C123.716 42.4676 123.411 43.1762 122.83 43.491C123.078 43.9354 123.619 45.0357 124.171 46.0583ZM121.907 41.6059C121.907 41.0291 121.651 40.5947 121.099 40.5947H120.158V42.7283L121.109 42.6962C121.622 42.6713 121.907 42.2383 121.907 41.6059Z" fill="#2F2F2F"/>
<path d="M132.533 42.683C132.533 44.8173 131.077 46.5343 129.156 46.5343C127.235 46.5343 125.779 44.8159 125.779 42.683C125.779 40.5508 127.235 38.8203 129.156 38.8203C131.077 38.8203 132.533 40.5508 132.533 42.683ZM130.754 42.683C130.754 41.5642 130.164 40.6811 129.156 40.6811C128.129 40.6811 127.558 41.5642 127.558 42.683C127.558 43.8039 128.129 44.6742 129.156 44.6742C130.164 44.6756 130.754 43.8061 130.754 42.683Z" fill="#2F2F2F"/>
<path d="M141.264 42.683C141.264 44.8173 139.808 46.5343 137.887 46.5343C135.966 46.5343 134.51 44.8159 134.51 42.683C134.51 40.5508 135.966 38.8203 137.887 38.8203C139.81 38.8203 141.264 40.5508 141.264 42.683ZM139.485 42.683C139.485 41.5642 138.896 40.6811 137.887 40.6811C136.86 40.6811 136.289 41.5642 136.289 42.683C136.289 43.8039 136.86 44.6742 137.887 44.6742C138.896 44.6756 139.485 43.8061 139.485 42.683Z" fill="#2F2F2F"/>
<path d="M149.996 46.2102C149.996 46.2963 150.024 46.3619 149.929 46.3619H148.378C148.31 46.3619 148.302 46.3291 148.302 46.275L148.245 43.108C148.245 43.108 147.18 44.3707 146.798 44.8058C146.77 44.8386 146.741 44.8599 146.723 44.8599C146.703 44.8599 146.684 44.8386 146.656 44.8058C146.285 44.3707 145.18 43.0966 145.18 43.0966L145.114 46.1988C145.114 46.3405 145.104 46.3505 145.01 46.3505H143.583C143.497 46.3505 143.497 46.3825 143.497 46.2849C143.517 43.9569 143.601 41.1389 143.687 38.9618C143.697 38.8856 143.715 38.8529 143.743 38.8415C143.772 38.8415 143.792 38.8529 143.821 38.8856C144.648 39.8221 146.294 41.715 146.721 42.2691C147.12 41.725 148.71 39.8221 149.604 38.8315C149.632 38.7995 149.671 38.7881 149.699 38.7995C149.718 38.8087 149.738 38.8415 149.738 38.8856C149.872 41.725 149.93 43.5873 149.996 46.2102Z" fill="#2F2F2F"/>
</svg>
