<svg width="216" height="216" viewBox="0 0 216 216" fill="none" xmlns="http://www.w3.org/2000/svg">
<path d="M33.2908 192.483C33.6666 190.997 32.6861 189.511 31.5889 188.44C30.4917 187.368 29.1786 186.414 28.6041 184.984C27.6711 182.682 28.8892 179.684 27.3082 177.77C26.3795 176.643 24.7165 176.272 23.8958 175.066C23.5139 174.399 23.2591 173.667 23.1442 172.907C22.2495 169.081 20.3429 165.566 17.6238 162.73C17.4623 166.146 18.2217 169.543 19.8225 172.565C20.4661 173.775 21.2522 174.95 21.4725 176.297C21.8267 178.492 20.6086 180.755 21.1659 182.906C21.7965 185.369 24.574 187.001 24.7208 189.537C24.8418 191.697 22.993 193.571 23.1356 195.714C23.2503 196.63 23.582 197.505 24.1031 198.267C25.7791 201.014 28.224 202.897 31.9129 202.815L36.4354 202.949L33.2908 192.483Z" fill="#F5F5F5"/>
<path d="M37.3512 203.044C37.7646 203.106 38.1858 203.094 38.5952 203.01C39.0959 202.933 39.5878 202.807 40.0638 202.634C40.7186 202.4 41.3301 202.06 41.8737 201.627C42.1971 201.359 42.4506 201.017 42.6124 200.629C42.7469 200.191 42.8153 199.736 42.8154 199.277C42.8214 198.788 42.8546 198.299 42.9147 197.813C43.0004 197.297 43.1852 196.803 43.459 196.357C43.986 195.416 44.8671 194.526 45.1436 193.252C45.42 191.977 45.217 190.66 45.0011 189.291C44.7851 187.921 44.5691 186.461 45.0831 185.045C45.5972 183.628 46.5431 182.345 47.0269 180.747C47.5107 179.148 47.2731 177.408 47.3682 175.697C47.3953 174.83 47.5904 173.976 47.9427 173.183C48.3055 172.38 48.8066 171.624 49.1996 170.781C49.9901 169.054 50.1197 167.14 50.3314 165.248C50.4321 164.295 50.5344 163.332 50.638 162.358C50.7005 161.379 50.8641 160.41 51.1262 159.464C51.4243 158.51 51.7791 157.573 52.1888 156.661C52.402 156.188 52.5754 155.698 52.7071 155.197C52.7804 154.681 52.8266 154.162 52.8453 153.642C52.8877 152.596 52.8415 151.548 52.7071 150.51C52.5775 149.469 52.3831 148.437 52.2751 147.391C52.2751 147.326 52.2751 147.266 52.2751 147.21L52.2492 147.002L52.0635 147.097C51.1078 147.59 50.2786 148.297 49.6402 149.162C49.021 150.01 48.5237 150.941 48.163 151.927C47.42 153.875 47.1565 155.909 46.7893 157.857C46.4222 159.806 45.9254 161.715 44.9622 163.335C44.4697 164.142 43.878 164.881 43.3553 165.667C42.7988 166.438 42.421 167.324 42.2495 168.259C41.9903 170.172 43.0573 171.848 42.8456 173.542C42.7453 174.374 42.4684 175.175 42.0335 175.891C41.6275 176.617 41.1696 177.291 40.6945 177.965C40.2309 178.625 39.8289 179.326 39.4936 180.06C39.1791 180.777 38.9948 181.545 38.9494 182.328C38.85 183.852 39.0747 185.299 38.971 186.647C38.8521 187.948 38.4793 189.213 37.8738 190.371C37.3339 191.485 36.7335 192.491 36.2281 193.472C35.9773 193.941 35.7509 194.422 35.5499 194.915C35.372 195.378 35.2417 195.859 35.1612 196.349C35.0371 197.208 35.0371 198.081 35.1612 198.941C35.2828 200.133 35.7312 201.269 36.457 202.223C36.5663 202.366 36.6892 202.498 36.8242 202.616C36.9138 202.711 37.0138 202.795 37.1222 202.867C37.2907 202.992 37.3814 203.048 37.3814 203.048C37.0644 202.791 36.7749 202.501 36.5175 202.185C35.8162 201.23 35.3863 200.103 35.2735 198.923C35.1658 198.078 35.1803 197.221 35.3167 196.379C35.3958 195.9 35.5276 195.43 35.7097 194.98C35.9108 194.493 36.1372 194.017 36.3879 193.554C36.8976 192.586 37.5067 191.58 38.0596 190.457C38.6831 189.281 39.0678 187.994 39.1913 186.669C39.3036 185.274 39.0833 183.826 39.1913 182.349C39.219 181.585 39.3828 180.831 39.6751 180.125C40.0094 179.407 40.4069 178.72 40.8629 178.073C41.3165 177.403 41.8003 176.729 42.2193 175.987C42.6787 175.243 42.9732 174.409 43.0832 173.542C43.2905 171.736 42.2193 170.051 42.4957 168.272C42.6642 167.379 43.0303 166.535 43.567 165.801C44.0767 165.028 44.6771 164.289 45.1825 163.46C46.1976 161.793 46.6857 159.844 47.0485 157.892C47.4114 155.94 47.6835 153.918 48.4135 152.013C48.7651 151.053 49.2509 150.147 49.8562 149.322C50.4647 148.49 51.259 147.811 52.1758 147.339L51.9685 147.223C51.9685 147.283 51.9685 147.344 51.9685 147.408C52.0851 148.462 52.2795 149.499 52.4004 150.527C52.5346 151.549 52.5808 152.581 52.5386 153.611C52.5127 154.112 52.4825 154.644 52.4091 155.119C52.2801 155.602 52.1125 156.075 51.908 156.531C51.4949 157.454 51.1358 158.4 50.8324 159.365C50.5682 160.326 50.4032 161.312 50.34 162.307C50.2406 163.283 50.137 164.246 50.0376 165.201C49.8303 167.101 49.7007 169.002 48.9361 170.652C48.5603 171.473 48.0722 172.233 47.6878 173.058C47.3256 173.876 47.1247 174.756 47.096 175.65C47.0053 177.377 47.2429 179.105 46.7807 180.647C46.3185 182.189 45.3423 183.477 44.8499 184.937C44.3574 186.397 44.5561 187.939 44.7808 189.291C45.0054 190.643 45.2343 191.973 44.9492 193.178C44.6641 194.383 43.8391 195.278 43.2992 196.241C43.0185 196.717 42.8363 197.244 42.7635 197.792C42.7045 198.283 42.6742 198.778 42.6728 199.273C42.6751 199.712 42.614 200.148 42.4914 200.569C42.3411 200.94 42.1006 201.269 41.7916 201.524C41.2631 201.954 40.6679 202.296 40.0293 202.534C39.5603 202.713 39.0759 202.847 38.5822 202.936C38.2786 202.992 37.9708 203.022 37.6622 203.027L37.3512 203.044Z" fill="#E0E0E0"/>
<path d="M51.3334 149.706C51.311 149.748 51.2963 149.794 51.2902 149.84C51.2643 149.948 51.234 150.082 51.1909 150.251C51.1045 150.605 51.0008 151.145 50.8366 151.814C50.6725 152.484 50.2578 153.249 49.9123 154.182C49.5667 155.115 49.1866 156.186 48.854 157.395C48.5214 158.605 48.219 159.944 47.908 161.378C47.6397 162.911 47.1615 164.399 46.4869 165.801C46.1197 166.54 45.705 167.287 45.3811 168.099C45.0607 168.933 44.8459 169.804 44.7418 170.691C44.5248 172.53 44.2105 174.357 43.8001 176.164L41.3034 186.626C40.5173 189.831 39.8045 192.72 39.2085 195.157C38.6124 197.593 38.1545 199.563 37.8219 200.923C37.6664 201.588 37.5454 202.111 37.459 202.491C37.4245 202.66 37.3942 202.794 37.3726 202.923C37.368 202.971 37.368 203.018 37.3726 203.066C37.3946 203.023 37.4106 202.978 37.4202 202.932L37.5368 202.526C37.6361 202.15 37.7787 201.632 37.9687 200.971C38.3229 199.593 38.8327 197.64 39.446 195.234C40.0594 192.828 40.7937 189.921 41.6058 186.721C42.4179 183.52 43.1954 179.948 44.0852 176.237C44.4956 174.423 44.8099 172.589 45.0269 170.743C45.1218 169.875 45.3265 169.023 45.6359 168.207C45.9513 167.412 46.3573 166.669 46.7244 165.926C47.4052 164.503 47.8821 162.991 48.1413 161.434C48.4436 159.996 48.7287 158.657 49.0527 157.456C49.3766 156.255 49.7179 155.175 50.0635 154.246C50.409 153.318 50.7848 152.544 50.9274 151.849C51.0699 151.154 51.1649 150.627 51.234 150.264C51.26 150.1 51.2816 149.961 51.3032 149.853C51.3194 149.806 51.3295 149.757 51.3334 149.706Z" fill="#E0E0E0"/>
<path d="M38.1502 203.053C41.0918 201.282 41.9082 195.947 40.6599 192.751C39.4115 189.554 37.2388 186.63 36.8846 183.213C36.6124 180.587 37.4591 177.887 36.8327 175.321C35.9688 171.866 32.5866 169.192 32.6082 165.628C32.6082 163.628 33.7443 161.741 33.6406 159.745C33.5153 157.296 31.6234 155.361 30.4485 153.21C28.6472 149.918 28.509 146 27.8784 142.311C27.2477 138.623 25.8136 134.649 22.5178 132.847C22.0513 135.996 21.2219 138.156 21.52 142.415C21.6237 143.944 23.4163 146.864 23.6798 150.216C23.8353 152.216 23.9476 154.225 24.0815 156.229C24.2154 158.233 24.345 160.168 25.0534 161.983C25.5976 163.378 26.4659 164.643 26.8719 166.086C27.6365 168.799 26.6689 171.749 27.3039 174.501C27.8308 176.829 29.4636 178.82 29.8005 181.192C30.2843 184.513 28.1505 187.978 29.2692 191.126C29.8265 192.694 31.1266 193.951 31.5024 195.571C31.7962 196.833 31.5024 198.163 31.7573 199.433C32.1892 201.472 36.0768 203.031 38.1632 202.889" fill="#E0E0E0"/>
<path d="M23.3515 135.966C23.3457 136.025 23.3457 136.084 23.3515 136.143C23.3515 136.277 23.3904 136.445 23.4206 136.661C23.4897 137.115 23.5718 137.78 23.7273 138.64C23.8828 139.499 24.3493 140.48 24.7165 141.663C25.0836 142.847 25.481 144.19 25.8223 145.702C26.1635 147.214 26.4572 148.89 26.7639 150.696C27.0706 152.501 27.4032 154.462 28.3103 156.337C28.7423 157.279 29.2001 158.22 29.5543 159.222C29.9043 160.255 30.1234 161.327 30.2066 162.414C30.3818 164.715 30.6803 167.005 31.1007 169.274C32.0294 173.93 32.9192 178.345 33.7227 182.401C34.5261 186.457 35.3511 190.059 35.9948 193.083C36.6384 196.107 37.174 198.565 37.5412 200.284L37.9731 202.241C38.0249 202.448 38.0638 202.616 38.0941 202.746C38.1052 202.804 38.1225 202.86 38.1459 202.914C38.1507 202.855 38.1507 202.796 38.1459 202.737C38.12 202.608 38.0897 202.439 38.0509 202.228C37.9601 201.757 37.8349 201.1 37.6707 200.262C37.3252 198.534 36.8068 196.077 36.2151 193.04C35.6233 190.003 34.8414 186.366 34.0164 182.34C33.1914 178.315 32.3404 173.874 31.4247 169.222C31.0019 166.956 30.6991 164.669 30.5176 162.371C30.4342 161.263 30.2107 160.17 29.8524 159.119C29.4895 158.091 29.0144 157.145 28.5911 156.212C27.6926 154.367 27.3686 152.436 27.0404 150.639C26.7121 148.842 26.4183 147.158 26.0598 145.642C25.7434 144.277 25.3585 142.929 24.9065 141.603C24.5264 140.424 24.0426 139.443 23.8785 138.614C23.7143 137.784 23.6063 137.093 23.5156 136.644C23.4767 136.432 23.4422 136.264 23.4206 136.134C23.4023 136.076 23.3792 136.02 23.3515 135.966Z" fill="#EBEBEB"/>
<path d="M90.8443 23.8568C93.3669 20.9152 99.9153 22.764 104.416 25.1527C104.416 25.1527 107.509 26.6127 108.658 27.3686H108.697L119.202 26.0727C120.056 25.963 120.923 26.1135 121.69 26.5047L122.554 26.9366C122.651 26.9868 122.732 27.0636 122.788 27.1581C122.843 27.2525 122.871 27.3608 122.867 27.4702C122.864 27.5797 122.829 27.6859 122.767 27.7765C122.706 27.8671 122.62 27.9383 122.519 27.982L114.783 31.2864V31.3814L122.42 36.4007L122.537 36.4742C123.977 37.3977 125.712 37.7433 127.396 37.4417L131.487 36.7074C131.694 36.668 131.907 36.6859 132.104 36.7593C132.27 36.8266 132.415 36.9355 132.526 37.0754C132.637 37.2154 132.71 37.3816 132.738 37.5581C132.766 37.7345 132.747 37.9151 132.685 38.0824C132.622 38.2497 132.518 38.398 132.381 38.513L127.629 42.4697C127.267 42.7743 126.824 42.9694 126.355 43.0321C125.885 43.0948 125.407 43.0226 124.977 42.8239L122.757 41.8045L111.526 36.4612L112.822 42.8498C112.831 42.9114 112.826 42.9741 112.808 43.0337C112.791 43.0933 112.76 43.1484 112.719 43.1951C112.678 43.2419 112.627 43.2792 112.571 43.3046C112.514 43.33 112.452 43.3428 112.39 43.3422H111.863C111.509 43.3272 111.165 43.2226 110.863 43.0383C110.561 42.8539 110.311 42.5958 110.135 42.2883L105.613 33.6492L92.3604 27.347C90.5937 26.5349 89.9631 25.0188 90.8443 23.8568Z" fill="#E0E0E0"/>
<path d="M17.2782 52.1411L50.5861 51.4025C50.5861 51.4025 47.5149 46.0938 38.9623 47.0829C30.7897 48.0116 30.2973 44.6381 26.1203 44.3184C21.9433 43.9988 18.5481 47.2514 17.2782 52.1411Z" fill="#F5F5F5"/>
<path d="M173.032 70.1579H204.413C204.413 70.1579 201.64 65.104 193.563 65.8383C185.844 66.5381 185.455 63.3503 181.528 62.9615C177.602 62.5728 174.336 65.5792 173.032 70.1579Z" fill="#F5F5F5"/>
<path d="M36.2452 35.6103H60.1841C60.1841 35.6103 58.0675 31.7573 51.9036 32.3188C46.0203 32.8544 45.7223 30.4225 42.7289 30.1202C39.7354 29.8178 37.2431 32.1158 36.2452 35.6103Z" fill="#F5F5F5"/>
<path d="M173.062 85.9933H188.721C188.721 85.9933 187.338 83.4707 183.308 83.8336C179.455 84.1834 179.261 82.5938 177.304 82.3995C175.347 82.2051 173.715 83.7083 173.062 85.9933Z" fill="#F5F5F5"/>
<path d="M165.231 42.6425H180.894C180.894 42.6425 179.507 40.1199 175.477 40.4828C171.624 40.8326 171.429 39.243 169.473 39.0487C167.516 38.8543 165.87 40.3575 165.231 42.6425Z" fill="#FAFAFA"/>
<path d="M204.932 203.079C204.932 203.139 161.335 203.191 107.561 203.191C53.787 203.191 10.1813 203.139 10.1813 203.079C10.1813 203.018 53.7697 202.966 107.561 202.966C161.352 202.966 204.932 203.018 204.932 203.079Z" fill="#263238"/>
<path d="M175.092 126.908C175.061 126.606 174.919 126.326 174.693 126.124C174.467 125.921 174.174 125.809 173.87 125.811H164.648C164.468 125.811 164.29 125.851 164.128 125.929C163.965 126.006 163.822 126.118 163.708 126.257C163.594 126.396 163.512 126.559 163.468 126.734C163.425 126.908 163.42 127.09 163.456 127.267C163.51 127.548 163.662 127.802 163.886 127.982C164.11 128.161 164.391 128.255 164.678 128.247H173.874C174.045 128.247 174.213 128.211 174.368 128.142C174.524 128.073 174.664 127.972 174.778 127.846C174.893 127.72 174.98 127.571 175.034 127.41C175.088 127.249 175.108 127.078 175.092 126.908Z" fill="#263238"/>
<path d="M195.208 200.055C195.124 200.631 195.212 201.219 195.462 201.744C195.711 202.27 196.111 202.71 196.611 203.008C197.111 203.306 197.688 203.45 198.269 203.42C198.85 203.39 199.409 203.189 199.876 202.841C200.343 202.494 200.696 202.015 200.891 201.467C201.085 200.919 201.113 200.325 200.971 199.761C200.828 199.197 200.521 198.688 200.089 198.298C199.657 197.908 199.119 197.655 198.543 197.571C197.772 197.459 196.987 197.657 196.362 198.123C195.736 198.589 195.322 199.284 195.208 200.055Z" fill="#263238"/>
<path d="M197.506 200.5L195.714 196.794L196.656 196.193L198.392 200.064L197.506 200.5Z" fill="#455A64"/>
<path d="M180.894 154.873L169.753 125.806L167.637 126.869L178.431 155.672L180.894 154.873Z" fill="#263238"/>
<path d="M206.616 193.265L190.157 199.805C189.863 199.922 189.535 199.917 189.245 199.792C188.954 199.667 188.726 199.431 188.609 199.137L172.239 157.939C171.621 156.382 171.646 154.644 172.309 153.106C172.972 151.568 174.22 150.357 175.776 149.738L182.713 146.982C184.269 146.363 186.008 146.389 187.546 147.052C189.084 147.715 190.295 148.962 190.913 150.519L207.283 191.717C207.4 192.011 207.395 192.339 207.27 192.63C207.145 192.92 206.909 193.149 206.616 193.265Z" fill="#0057E7"/>
<path d="M188.591 199.325C188.591 199.325 188.565 199.239 188.505 199.074L188.232 198.344L187.161 195.541L183.174 185.256C181.477 180.915 179.464 175.753 177.226 170.013L173.706 161.015C173.403 160.238 173.092 159.451 172.786 158.657C172.461 157.879 172.342 157.031 172.44 156.194C172.546 155.342 172.881 154.533 173.408 153.855C173.935 153.176 174.636 152.652 175.436 152.338C176.235 152.024 177.105 151.932 177.953 152.071C178.801 152.21 179.596 152.575 180.254 153.128C180.893 153.676 181.382 154.378 181.675 155.166L182.6 157.529C183.826 160.648 185.01 163.654 186.133 166.522L192.133 181.744C193.861 186.064 195.23 189.567 196.198 191.999L197.312 194.785C197.442 195.092 197.537 195.334 197.61 195.507C197.684 195.679 197.718 195.748 197.718 195.748C197.718 195.748 197.692 195.662 197.632 195.494L197.36 194.764C197.113 194.116 196.751 193.174 196.288 191.965L192.301 181.68L186.353 166.436C185.235 163.568 184.055 160.557 182.833 157.438C182.531 156.657 182.22 155.87 181.909 155.076C181.607 154.239 181.093 153.495 180.418 152.916C179.725 152.333 178.888 151.948 177.994 151.801C177.101 151.655 176.184 151.752 175.341 152.083C174.498 152.413 173.76 152.966 173.204 153.681C172.649 154.396 172.297 155.248 172.185 156.147C172.081 157.028 172.206 157.92 172.548 158.739L173.473 161.119C174.699 164.233 175.883 167.244 177.006 170.108C179.261 175.827 181.295 180.989 183.001 185.308L187.066 195.567L188.185 198.349C188.31 198.66 188.41 198.897 188.483 199.07C188.514 199.157 188.55 199.242 188.591 199.325Z" fill="#263238"/>
<path d="M187.528 170.047C187.563 170.16 189.714 169.309 192.336 168.155C194.958 167.002 197.053 165.97 197.018 165.862C196.984 165.754 194.828 166.596 192.211 167.754C189.593 168.911 187.494 169.935 187.528 170.047Z" fill="#263238"/>
<path d="M172.971 125.807L171.049 122.005C170.834 121.581 170.474 121.247 170.034 121.064L167.011 119.802L158.864 108.753L158.095 117.215L163.278 122.567C163.278 122.567 166.531 129.418 169.188 129.068C169.122 128.45 168.94 127.851 168.652 127.301C167.788 125.807 168.708 125.807 168.829 125.815H171.054L172.971 125.807Z" fill="#FFBE9D"/>
<path d="M159.672 119.962C159.918 120.329 161.931 123.059 161.931 123.059L167.637 118.908L165.563 116.882L159.672 119.962Z" fill="#0057E7"/>
<path d="M168.669 127.301C168.669 127.301 170.155 128.165 170.341 128.865V129.297L168.561 129.038L168.669 127.301Z" fill="#FFBE9D"/>
<path d="M170.66 128.113C170.397 127.907 170.192 127.636 170.064 127.327C170.007 127.171 170.01 126.999 170.072 126.845C170.134 126.691 170.252 126.566 170.401 126.493C170.708 126.39 171.023 126.61 171.265 126.83C171.569 127.102 171.857 127.391 172.129 127.694C172.258 127.805 172.359 127.944 172.423 128.101C172.488 128.258 172.514 128.428 172.5 128.597C172.461 128.728 172.381 128.844 172.273 128.928C172.164 129.012 172.033 129.061 171.896 129.068C171.758 129.071 171.621 129.045 171.493 128.993C171.365 128.941 171.249 128.864 171.153 128.765C170.96 128.571 170.806 128.343 170.699 128.092" fill="#FFBE9D"/>
<path d="M172.168 127.984C171.905 127.778 171.699 127.507 171.572 127.197C171.515 127.041 171.517 126.87 171.58 126.716C171.642 126.561 171.759 126.436 171.909 126.364C172.216 126.26 172.531 126.48 172.773 126.701C173.076 126.972 173.365 127.261 173.637 127.565C173.765 127.675 173.866 127.814 173.931 127.971C173.995 128.128 174.022 128.298 174.008 128.467C173.968 128.599 173.889 128.714 173.78 128.799C173.672 128.883 173.54 128.932 173.403 128.938C173.266 128.941 173.129 128.915 173.001 128.863C172.873 128.811 172.757 128.734 172.66 128.636C172.468 128.442 172.314 128.213 172.207 127.962" fill="#FFBE9D"/>
<path d="M167.637 121.496C167.637 121.444 168.021 121.461 168.466 121.845C168.673 122.098 168.846 122.377 168.98 122.675C169.181 123.036 169.283 123.445 169.274 123.858C169.212 124.265 169.052 124.651 168.807 124.981C168.642 125.248 168.522 125.54 168.453 125.845C168.391 126.129 168.37 126.42 168.393 126.709C168.318 126.574 168.271 126.425 168.255 126.272C168.238 126.118 168.253 125.963 168.298 125.815C168.35 125.488 168.463 125.173 168.63 124.886C168.85 124.577 168.997 124.223 169.062 123.85C169.067 123.474 168.98 123.103 168.807 122.77C168.694 122.483 168.549 122.209 168.375 121.953C168.227 121.806 168.058 121.681 167.874 121.582C167.797 121.549 167.718 121.52 167.637 121.496Z" fill="#EB996E"/>
<path d="M106.166 82.5075L100.11 101.868L117.923 120.472L134.247 116.23L106.166 82.5075Z" fill="#F5F5F5"/>
<path d="M106.161 82.5031L106.299 82.663L106.71 83.1468L108.299 85.0387L114.222 92.1012L134.338 116.161L134.45 116.295L134.281 116.338L125.081 118.731L117.958 120.58H117.893L117.85 120.532L100.045 101.941L100.01 101.902V101.855C101.885 95.9239 103.423 91.0817 104.49 87.7125C105.017 86.0452 105.431 84.745 105.716 83.8552L106.036 82.853C106.109 82.6327 106.144 82.5204 106.144 82.5204C105.937 83.1986 103.807 90.1228 100.179 101.906L100.157 101.82L117.984 120.394L117.876 120.364L124.999 118.511L134.199 116.118L134.143 116.299L114.209 92.248L108.308 85.1208L106.718 83.1899L106.287 82.6889L106.161 82.5031Z" fill="#263238"/>
<path d="M106.719 95.2761C106.945 94.9245 107.24 94.6222 107.585 94.3873C107.931 94.1524 108.321 93.9897 108.731 93.9091C109.141 93.8284 109.564 93.8314 109.973 93.9178C110.382 94.0043 110.769 94.1724 111.111 94.4122C112.226 95.2761 112.74 96.9045 114.079 97.3365C115.047 97.6475 116.113 97.1939 117.103 97.371C118.273 97.5827 119.146 98.6669 119.483 99.79C119.82 100.913 119.729 102.153 119.634 103.341L113.841 103.418L106.719 95.2761Z" fill="#E0E0E0"/>
<path d="M96.006 84.2742L133.543 122.956L118.247 121.405L96.8526 98.8181L96.006 84.2742Z" fill="#F5F5F5"/>
<path d="M96.0104 84.2742C96.0449 84.8401 96.3559 89.8162 96.9261 98.8138V98.7662C102.399 104.528 109.885 112.403 118.347 121.331L118.278 121.297L130.014 122.48L133.573 122.843L133.482 123.033C112.61 101.436 96.857 85.1338 96.032 84.2742L133.642 122.878L133.858 123.098L133.551 123.068L129.988 122.705L118.256 121.513H118.217L118.187 121.487C109.738 112.541 102.274 104.641 96.8181 98.8742V98.8483C96.2998 89.8205 96.0363 84.8401 96.0104 84.2742Z" fill="#263238"/>
<path d="M110.697 99.6474C109.539 100.982 109.707 103.103 110.697 104.576C111.686 106.049 113.319 106.939 114.969 107.574C116.303 108.088 117.949 108.412 119.055 107.505" fill="#E0E0E0"/>
<path d="M108.744 97.5438C108.813 97.8677 108.407 98.1096 108.079 98.0794C107.751 98.0492 107.448 97.8634 107.116 97.8461C106.213 97.7943 105.721 98.8656 104.986 99.3882C104.543 99.6775 104.005 99.783 103.486 99.6822C102.967 99.5814 102.507 99.2823 102.204 98.8483C101.712 98.0837 101.725 96.952 100.947 96.4812C100.49 96.2574 99.9653 96.2097 99.4745 96.3473C98.9885 96.4825 98.4833 96.535 97.9799 96.5028C97.729 96.4796 97.4937 96.3708 97.3136 96.1946C97.1335 96.0184 97.0195 95.7855 96.9908 95.5352L96.7186 95.1032L96.0793 84.4254L108.744 97.5438Z" fill="#E0E0E0"/>
<path d="M127.038 122.174C127.23 122.223 127.431 122.232 127.627 122.2C127.823 122.168 128.011 122.097 128.178 121.99C128.346 121.883 128.49 121.743 128.601 121.579C128.712 121.414 128.789 121.229 128.826 121.033C128.874 120.605 128.756 120.174 128.497 119.83C128.237 119.485 127.856 119.253 127.431 119.18C126.666 119.081 125.876 119.526 125.141 119.297C124.303 119.034 123.958 118.062 123.746 117.211C123.534 116.36 123.236 115.388 122.424 115.051C121.081 114.507 119.664 116.23 118.26 115.85C117.219 115.569 116.817 114.317 116.001 113.613C115.671 113.333 115.274 113.142 114.849 113.059C114.424 112.976 113.985 113.003 113.574 113.137C113.2 113.229 112.861 113.427 112.598 113.708C112.335 113.988 112.159 114.339 112.092 114.718L118.29 121.254L127.038 122.174Z" fill="#E0E0E0"/>
<path d="M116.774 187.546L115.232 196.435C115.232 196.435 105.677 197.852 105.233 199.459L122.364 203.07L125.336 189.317L116.774 187.546Z" fill="#0057E7"/>
<g opacity="0.6">
<path opacity="0.6" d="M120.688 196.811C120.842 196.896 120.959 197.034 121.018 197.2C121.076 197.366 121.071 197.547 121.003 197.71C120.924 197.867 120.788 197.987 120.622 198.047C120.456 198.106 120.274 198.1 120.113 198.029C119.95 197.939 119.826 197.792 119.765 197.615C119.704 197.439 119.712 197.246 119.785 197.075C119.885 196.919 120.041 196.808 120.22 196.766C120.4 196.723 120.589 196.752 120.748 196.846" fill="white"/>
</g>
<path opacity="0.6" d="M122.364 203.079L122.675 201.722L106.105 198.759C106.105 198.759 105.276 198.932 105.241 199.485L122.364 203.079Z" fill="white"/>
<path d="M114.973 196.288C114.973 196.375 115.37 196.5 115.725 196.854C116.079 197.208 116.226 197.61 116.308 197.593C116.39 197.576 116.368 197.066 115.932 196.643C115.496 196.219 114.973 196.211 114.973 196.288Z" fill="#263238"/>
<path d="M113.021 196.656C112.986 196.733 113.319 196.949 113.526 197.364C113.733 197.779 113.738 198.167 113.824 198.185C113.91 198.202 114.062 197.753 113.789 197.226C113.517 196.699 113.038 196.573 113.021 196.656Z" fill="#263238"/>
<path d="M111.548 198.591C111.621 198.625 111.824 198.232 111.707 197.727C111.591 197.221 111.237 196.958 111.185 197.023C111.133 197.088 111.323 197.381 111.418 197.796C111.513 198.211 111.466 198.565 111.548 198.591Z" fill="#263238"/>
<path d="M115.552 194.301C115.552 194.388 115.984 194.353 116.446 194.483C116.908 194.612 117.245 194.841 117.31 194.781C117.375 194.72 117.077 194.349 116.528 194.198C115.98 194.047 115.522 194.228 115.552 194.301Z" fill="#263238"/>
<path opacity="0.3" d="M116.472 189.308L116.195 190.889L124.631 192.587L124.942 191.174L116.472 189.308Z" fill="black"/>
<path d="M115.893 192.513C116.16 192.648 116.458 192.709 116.757 192.69C117.079 192.703 117.401 192.674 117.716 192.604C117.9 192.563 118.082 192.511 118.26 192.448C118.368 192.416 118.47 192.366 118.563 192.301C118.629 192.254 118.678 192.186 118.702 192.108C118.726 192.03 118.724 191.946 118.697 191.869C118.666 191.803 118.621 191.744 118.564 191.697C118.507 191.651 118.44 191.618 118.368 191.602C118.261 191.578 118.15 191.571 118.04 191.58C117.52 191.595 117.013 191.744 116.567 192.012C116.092 192.297 115.889 192.578 115.915 192.604C115.941 192.63 116.196 192.418 116.662 192.198C117.096 191.997 117.566 191.889 118.044 191.878C118.234 191.878 118.39 191.9 118.42 191.99C118.45 192.081 118.42 192.038 118.381 192.085C118.312 192.13 118.238 192.166 118.161 192.193C117.994 192.255 117.824 192.309 117.651 192.353C117.357 192.43 117.056 192.48 116.753 192.5C116.466 192.485 116.179 192.489 115.893 192.513Z" fill="#263238"/>
<path d="M115.979 192.651C116.005 192.673 116.234 192.409 116.381 191.874C116.46 191.559 116.487 191.234 116.459 190.911C116.445 190.717 116.409 190.526 116.351 190.34C116.328 190.218 116.275 190.103 116.196 190.007C116.116 189.911 116.014 189.837 115.897 189.792C115.821 189.78 115.742 189.789 115.67 189.817C115.597 189.846 115.534 189.894 115.487 189.956C115.422 190.048 115.37 190.148 115.332 190.254C115.261 190.438 115.221 190.632 115.211 190.828C115.19 191.161 115.251 191.493 115.388 191.796C115.63 192.31 115.958 192.483 115.971 192.457C115.984 192.431 115.751 192.198 115.586 191.714C115.489 191.437 115.453 191.142 115.483 190.85C115.501 190.681 115.542 190.516 115.604 190.358C115.668 190.185 115.768 190.051 115.833 190.086C115.897 190.12 116.036 190.267 116.075 190.427C116.13 190.588 116.17 190.755 116.195 190.924C116.237 191.22 116.237 191.521 116.195 191.818C116.092 192.34 115.936 192.651 115.979 192.651Z" fill="#263238"/>
<path d="M173.066 188.086L169.365 183.248L169.17 182.997L162.846 187.692L168.691 194.111L168.479 200.612C165.222 201.45 164.734 203.079 164.734 203.079H171.498L177.645 191.243L173.066 188.086Z" fill="#0057E7"/>
<path opacity="0.6" d="M177.658 191.235L171.511 203.07L164.747 203.079L165.507 202.059L171.01 201.753L176.682 190.565L177.658 191.235Z" fill="white"/>
<path d="M168.531 197.632C168.583 197.701 168.963 197.481 169.494 197.494C170.026 197.506 170.401 197.727 170.453 197.658C170.505 197.589 170.138 197.226 169.499 197.195C168.859 197.165 168.462 197.58 168.531 197.632Z" fill="#263238"/>
<path d="M168.639 196.021C168.708 196.068 169.006 195.671 169.546 195.563C170.086 195.455 170.518 195.705 170.561 195.636C170.604 195.567 170.509 195.489 170.319 195.386C170.063 195.259 169.771 195.221 169.491 195.277C169.21 195.333 168.956 195.481 168.768 195.697C168.635 195.869 168.604 196.003 168.639 196.021Z" fill="#263238"/>
<path d="M168.596 193.947C168.669 193.986 168.898 193.593 169.369 193.429C169.84 193.265 170.263 193.429 170.298 193.342C170.332 193.256 170.233 193.217 170.043 193.148C169.793 193.058 169.52 193.058 169.27 193.148C169.021 193.238 168.81 193.409 168.669 193.632C168.566 193.809 168.557 193.947 168.596 193.947Z" fill="#263238"/>
<path d="M166.782 192.349C166.864 192.375 167.054 191.99 167.473 191.718C167.892 191.446 168.311 191.407 168.337 191.321C168.363 191.234 167.831 191.126 167.326 191.472C166.82 191.818 166.7 192.34 166.782 192.349Z" fill="#263238"/>
<path d="M165.9 190.958C165.935 190.98 166.155 190.708 166.488 190.25L167.062 189.438C167.192 189.271 167.296 189.086 167.373 188.889C167.397 188.818 167.405 188.743 167.398 188.669C167.392 188.595 167.37 188.523 167.334 188.457C167.293 188.387 167.233 188.329 167.16 188.292C167.087 188.254 167.005 188.238 166.924 188.245C166.686 188.291 166.467 188.405 166.293 188.574C166.127 188.707 165.982 188.864 165.861 189.04C165.669 189.335 165.548 189.671 165.507 190.021C165.436 190.335 165.491 190.665 165.658 190.941C165.66 190.643 165.679 190.346 165.715 190.051C165.779 189.741 165.905 189.447 166.086 189.187C166.192 189.038 166.317 188.903 166.458 188.785C166.59 188.664 166.75 188.577 166.924 188.531C166.95 188.527 166.976 188.532 166.999 188.543C167.022 188.555 167.041 188.573 167.054 188.595C167.076 188.657 167.076 188.724 167.054 188.785C166.984 188.952 166.895 189.11 166.79 189.256C166.617 189.546 166.445 189.826 166.272 190.12C166.104 190.378 165.979 190.661 165.9 190.958Z" fill="#263238"/>
<path d="M165.658 191.161C165.689 191.161 165.658 190.802 165.296 190.396C165.046 190.127 164.716 189.945 164.354 189.88C163.993 189.815 163.62 189.868 163.291 190.034C163.257 190.064 163.229 190.101 163.211 190.143C163.192 190.184 163.183 190.23 163.183 190.276C163.188 190.354 163.216 190.43 163.265 190.491C163.336 190.573 163.417 190.644 163.507 190.703C163.657 190.81 163.818 190.901 163.987 190.975C164.269 191.105 164.569 191.189 164.877 191.226C165.157 191.286 165.45 191.259 165.715 191.148C165.715 191.101 165.395 191.122 164.911 191.018C164.632 190.957 164.362 190.86 164.108 190.729C163.957 190.653 163.812 190.565 163.676 190.466C163.61 190.424 163.55 190.373 163.499 190.314C163.468 190.254 163.499 190.271 163.499 190.254C163.559 190.217 163.627 190.192 163.697 190.18C163.78 190.163 163.864 190.15 163.948 190.142C164.109 190.131 164.27 190.143 164.427 190.176C164.698 190.237 164.949 190.365 165.157 190.548C165.512 190.867 165.611 191.178 165.658 191.161Z" fill="#263238"/>
<path opacity="0.6" d="M172.259 191.031C172.259 191.19 172.306 191.346 172.394 191.478C172.482 191.61 172.608 191.713 172.755 191.774C172.902 191.835 173.063 191.85 173.219 191.819C173.375 191.788 173.518 191.712 173.63 191.6C173.743 191.487 173.819 191.344 173.85 191.188C173.881 191.032 173.865 190.871 173.804 190.724C173.744 190.577 173.641 190.452 173.509 190.363C173.376 190.275 173.221 190.228 173.062 190.228C172.849 190.228 172.645 190.313 172.494 190.463C172.343 190.614 172.259 190.818 172.259 191.031Z" fill="white"/>
<path opacity="0.3" d="M163.447 188.336L164.747 189.766L170.211 184.353L169.451 183.364L163.447 188.336Z" fill="black"/>
<path d="M146.627 75.6827C150.241 74.4266 154.144 74.2495 157.857 75.1729C159.503 75.5833 161.175 76.2658 162.229 77.5962C163.477 79.1685 163.633 81.311 163.827 83.311C164.217 87.379 164.966 91.4045 166.064 95.3409C166.98 98.6151 168.138 101.82 168.635 105.202C169.131 108.585 168.902 112.165 167.188 115.103C164.544 119.63 158.924 121.63 153.685 121.72C150.929 121.763 148.104 121.362 145.659 120.083C143.214 118.805 141.18 116.571 140.583 113.88" fill="#0057E7"/>
<g opacity="0.5">
<path opacity="0.5" d="M146.627 75.6827C150.241 74.4266 154.144 74.2495 157.857 75.1729C159.503 75.5833 161.175 76.2658 162.229 77.5962C163.477 79.1685 163.633 81.311 163.827 83.311C164.217 87.379 164.966 91.4045 166.064 95.3409C166.98 98.6151 168.138 101.82 168.635 105.202C169.131 108.585 168.902 112.165 167.188 115.103C164.544 119.63 158.924 121.63 153.685 121.72C150.929 121.763 148.104 121.362 145.659 120.083C143.214 118.805 141.18 116.571 140.583 113.88" fill="black"/>
</g>
<path d="M153.832 79.8294C154.399 80.3251 154.903 80.8895 155.33 81.5097C155.775 82.198 156.165 82.9201 156.497 83.6695C156.903 84.6 157.369 85.5032 157.892 86.3735C158.429 87.2552 159.17 87.9957 160.052 88.5333C160.789 88.9738 161.656 89.1433 162.505 89.0127C163.074 88.9314 163.606 88.6868 164.039 88.3086C164.154 88.205 164.255 88.0875 164.341 87.9588C164.401 87.8724 164.427 87.8249 164.419 87.8205C164.41 87.8162 164.272 87.9847 163.987 88.2223C163.553 88.5516 163.038 88.7575 162.497 88.8184C161.695 88.9136 160.885 88.7339 160.199 88.3086C159.359 87.779 158.654 87.0619 158.138 86.2137C157.622 85.3528 157.156 84.463 156.743 83.5485C156.394 82.7933 155.98 82.0706 155.503 81.3888C155.18 80.9269 154.794 80.5113 154.359 80.1534C154.203 80.0159 154.024 79.9064 153.832 79.8294Z" fill="#E0E0E0"/>
<path d="M161.421 120.29C161.432 120.177 161.432 120.063 161.421 119.949C161.421 119.699 161.421 119.379 161.421 118.982C161.421 118.144 161.361 116.926 161.296 115.427C161.162 112.403 160.929 108.274 160.566 103.703C160.203 99.1334 159.793 94.9953 159.456 92.0105C159.283 90.5159 159.136 89.3064 159.024 88.4771C158.972 88.084 158.924 87.7644 158.89 87.5182C158.879 87.4054 158.857 87.294 158.825 87.1855C158.812 87.2975 158.812 87.4106 158.825 87.5225C158.847 87.773 158.877 88.0927 158.907 88.4857C158.994 89.3496 159.11 90.5591 159.248 92.0277C159.538 95.0212 159.922 99.155 160.281 103.725C160.639 108.295 160.907 112.438 161.088 115.435C161.179 116.908 161.253 118.113 161.304 118.986L161.374 119.954C161.38 120.067 161.395 120.18 161.421 120.29Z" fill="#E0E0E0"/>
<path d="M160.345 101.941C160.345 102.015 162 101.997 164.021 101.742C166.043 101.488 167.65 101.107 167.637 101.038C167.624 100.969 166 101.22 163.987 101.47C161.974 101.721 160.341 101.846 160.345 101.941Z" fill="#E0E0E0"/>
<path d="M161.68 101.885C161.549 102.127 161.472 102.396 161.456 102.671C161.406 102.964 161.375 103.26 161.365 103.557C161.35 103.75 161.383 103.944 161.46 104.122C161.508 104.231 161.586 104.323 161.685 104.389C161.783 104.455 161.899 104.491 162.017 104.494C162.085 104.497 162.152 104.484 162.213 104.456C162.275 104.428 162.329 104.387 162.371 104.334C162.446 104.24 162.49 104.126 162.497 104.006C162.502 103.818 162.476 103.631 162.419 103.453C162.347 103.157 162.248 102.868 162.125 102.589C161.914 102.127 161.715 101.881 161.693 101.898C161.754 102.161 161.841 102.417 161.952 102.662C162.043 102.935 162.12 103.212 162.181 103.492C162.221 103.645 162.239 103.804 162.233 103.963C162.233 104.11 162.147 104.2 162.026 104.2C161.736 104.2 161.62 103.85 161.633 103.539C161.646 103.228 161.633 102.922 161.659 102.675C161.699 102.414 161.706 102.148 161.68 101.885Z" fill="#E0E0E0"/>
<path d="M143.064 77.2462L160.418 75.2197C162.691 74.9544 164.318 72.8972 164.052 70.6248L163.676 67.4028C163.411 65.1304 161.354 63.5034 159.081 63.7687L141.727 65.7951C139.454 66.0605 137.827 68.1177 138.093 70.39L138.469 73.6121C138.734 75.8845 140.791 77.5115 143.064 77.2462Z" fill="#455A64"/>
<path d="M158.79 64.0458C158.79 64.0458 158.739 64.0112 158.626 63.9767C158.46 63.9293 158.289 63.9032 158.117 63.8989C157.471 63.9016 156.845 64.1189 156.337 64.5166C155.559 65.0642 154.941 65.8099 154.549 66.6764C154.109 67.7478 153.94 68.9108 154.056 70.0629C154.119 71.2253 154.526 72.3426 155.227 73.2723C155.802 74.0316 156.592 74.6004 157.495 74.9051C158.095 75.1119 158.734 75.1828 159.365 75.1124C159.536 75.0935 159.705 75.0588 159.87 75.0088C159.983 74.9742 160.039 74.9526 160.034 74.944C160.03 74.9353 159.793 74.9785 159.356 75.0044C158.744 75.031 158.133 74.9341 157.559 74.7194C156.708 74.405 155.968 73.8478 155.43 73.1168C154.775 72.2192 154.395 71.1507 154.337 70.0413C154.218 68.9353 154.366 67.817 154.769 66.7801C155.138 65.9502 155.713 65.2288 156.441 64.6851C156.911 64.2962 157.491 64.0637 158.099 64.0199C158.549 63.9896 158.786 64.0717 158.79 64.0458Z" fill="#263238"/>
<path d="M148.873 64.9227L151.551 64.6592C150.835 64.8781 150.222 65.3473 149.823 65.981C149.435 66.611 149.185 67.3162 149.089 68.05C148.609 71.1298 150.246 74.4386 152.877 76.1059L150.717 76.391C150.717 76.391 144.54 70.875 148.856 64.9227" fill="#263238"/>
<path d="M145.84 70.5899C146.531 70.7809 147.256 70.8077 147.958 70.6681C148.661 70.5285 149.321 70.2265 149.885 69.786C150.45 69.3456 150.904 68.7791 151.21 68.1319C151.517 67.4846 151.667 66.7746 151.65 66.0587C151.62 64.7326 151.015 63.3762 151.43 62.1106C151.715 61.2467 152.441 60.5642 152.687 59.6874C153.05 58.3699 152.255 57.0438 151.499 55.9121C151.049 55.1601 150.488 54.4801 149.836 53.8949C149.508 53.6033 149.119 53.3876 148.698 53.2629C148.277 53.1382 147.834 53.1077 147.4 53.1735" fill="#263238"/>
<path d="M133.573 53.2902C133.646 54.2923 132.986 55.1908 132.316 55.9424C131.647 56.694 130.908 57.4844 130.761 58.4779C130.506 60.2446 132.234 61.8817 131.88 63.6311C131.685 64.5685 130.921 65.3201 130.783 66.266C130.644 67.212 131.141 68.0802 131.75 68.7757C132.359 69.4711 133.098 70.0716 133.638 70.8059C134.15 71.6361 134.584 72.5124 134.934 73.4235C135.282 74.3413 135.917 75.1227 136.744 75.6524C138.039 76.3522 139.836 76.0239 140.821 77.1081C141.806 78.1923 142.946 78.3175 144.121 79.108" fill="#263238"/>
<path d="M149.024 54.8236C149.05 53.9165 148.208 53.2124 147.361 52.8798C146.514 52.5472 145.568 52.4176 144.812 51.9079C144.143 51.476 143.694 50.7589 143.128 50.1801C142.428 49.4744 141.554 48.9671 140.594 48.7099C139.634 48.4528 138.623 48.455 137.664 48.7163C136.705 48.9777 135.833 49.4888 135.136 50.1975C134.439 50.9062 133.943 51.7871 133.698 52.7502C133.374 54.0461 133.595 55.5795 134.618 56.4434C135.806 57.4412 137.564 57.2209 139.085 56.9099C140.605 56.5989 142.324 56.2922 143.594 57.1864C144.359 57.722 144.795 58.5989 145.266 59.4109C145.737 60.223 146.32 61.048 147.205 61.3504C148.091 61.6528 149.292 61.1301 149.326 60.1971" fill="#263238"/>
<path d="M145.417 55.0137C145.796 55.0537 146.146 55.2351 146.398 55.5217C146.649 55.8082 146.783 56.179 146.774 56.5601L145.866 77.1383C145.828 79.5702 142.277 80.9352 139.672 80.8747C137.046 80.8142 136.96 79.5227 136.929 77.2118C136.873 73.3501 136.878 71.8987 136.878 71.9203C136.878 71.9419 133.556 71.3631 132.878 67.0306C132.541 64.8708 132.657 61.3418 132.847 58.4563C133.016 55.8646 134.744 52.6725 137.335 52.9489L145.417 55.0137Z" fill="#FFBE9D"/>
<path d="M133.668 60.9314C133.666 61.0766 133.721 61.2169 133.821 61.3219C133.921 61.427 134.059 61.4884 134.204 61.4929C134.274 61.4976 134.344 61.4883 134.411 61.4656C134.477 61.4429 134.539 61.4072 134.591 61.3606C134.644 61.314 134.687 61.2574 134.717 61.1941C134.748 61.1308 134.766 61.0621 134.77 60.9919C134.772 60.8474 134.718 60.7078 134.618 60.6028C134.519 60.4979 134.383 60.436 134.238 60.4303C134.168 60.4251 134.097 60.4339 134.03 60.4564C133.963 60.4788 133.901 60.5144 133.848 60.5611C133.795 60.6077 133.751 60.6645 133.721 60.7281C133.69 60.7917 133.672 60.8608 133.668 60.9314Z" fill="#263238"/>
<path d="M133.607 60.2922C133.677 60.3656 134.1 60.0546 134.696 60.0589C135.292 60.0633 135.733 60.3613 135.797 60.2879C135.862 60.2144 135.759 60.1237 135.569 59.9855C135.314 59.8106 135.013 59.7158 134.705 59.7134C134.395 59.7127 134.093 59.8094 133.841 59.9898C133.638 60.1324 133.573 60.262 133.607 60.2922Z" fill="#263238"/>
<path d="M139.62 61.0826C139.618 61.2278 139.673 61.3681 139.773 61.4732C139.873 61.5782 140.011 61.6397 140.156 61.6442C140.226 61.6501 140.297 61.6418 140.364 61.6198C140.431 61.5979 140.493 61.5627 140.546 61.5164C140.599 61.4701 140.643 61.4135 140.673 61.3502C140.704 61.2868 140.722 61.2178 140.726 61.1474C140.729 61.0025 140.674 60.8624 140.575 60.7568C140.476 60.6511 140.34 60.5883 140.195 60.5816C140.124 60.5763 140.053 60.5851 139.986 60.6075C139.918 60.6299 139.856 60.6654 139.803 60.712C139.749 60.7587 139.706 60.8154 139.674 60.879C139.643 60.9426 139.625 61.0119 139.62 61.0826Z" fill="#263238"/>
<path d="M139.486 60.4174C139.556 60.4909 139.975 60.1799 140.575 60.1842C141.175 60.1885 141.607 60.4865 141.672 60.4131C141.737 60.3397 141.638 60.249 141.443 60.1107C141.19 59.9329 140.888 59.8378 140.579 59.8386C140.269 59.8349 139.966 59.9319 139.715 60.1151C139.521 60.2533 139.452 60.3872 139.486 60.4174Z" fill="#263238"/>
<path d="M137.305 64.8493C136.99 64.7485 136.663 64.6875 136.333 64.6678C136.182 64.6678 136.039 64.6246 136.014 64.521C135.998 64.3631 136.033 64.2043 136.113 64.0674L136.571 62.9055C136.989 61.9258 137.33 60.9148 137.59 59.8818C137.521 59.8559 136.955 61.1776 136.329 62.8277C136.173 63.2597 136.031 63.6268 135.897 63.9983C135.799 64.1807 135.77 64.3923 135.815 64.5944C135.837 64.6482 135.871 64.6963 135.915 64.7352C135.958 64.7741 136.009 64.8027 136.065 64.819C136.15 64.8427 136.237 64.8558 136.325 64.8579C136.651 64.894 136.98 64.8911 137.305 64.8493Z" fill="#263238"/>
<path d="M136.877 71.9203C138.915 71.9623 140.925 71.439 142.683 70.4085C142.683 70.4085 141.249 73.3587 136.929 72.944L136.877 71.9203Z" fill="#EB996E"/>
<path d="M137.556 66.2876C137.671 66.1455 137.819 66.0346 137.989 65.9651C138.158 65.8956 138.342 65.8699 138.523 65.8902C138.655 65.9034 138.783 65.9426 138.899 66.0057C139.016 66.0687 139.118 66.1543 139.201 66.2574C139.281 66.3574 139.328 66.4794 139.335 66.6069C139.343 66.7345 139.311 66.8613 139.245 66.9701C139.148 67.0766 139.023 67.152 138.883 67.1866C138.744 67.2213 138.598 67.2136 138.463 67.1645C138.18 67.0646 137.92 66.9089 137.698 66.7066C137.63 66.6599 137.573 66.5996 137.53 66.5295C137.506 66.4976 137.494 66.459 137.494 66.4194C137.494 66.3797 137.506 66.3412 137.53 66.3092" fill="#EB996E"/>
<path d="M139.063 65.2639C138.968 65.2639 138.964 65.9075 138.407 66.3654C137.849 66.8233 137.158 66.7542 137.154 66.8449C137.15 66.9356 137.309 66.9701 137.586 66.9788C137.966 66.9865 138.337 66.8578 138.631 66.6159C138.916 66.3868 139.099 66.0547 139.141 65.6916C139.18 65.4238 139.089 65.2596 139.063 65.2639Z" fill="#263238"/>
<path d="M139.219 59.3721C139.275 59.5319 139.875 59.4584 140.575 59.5448C141.275 59.6312 141.845 59.8213 141.936 59.6787C141.979 59.6053 141.879 59.4541 141.65 59.2943C141.348 59.0986 141.003 58.9773 140.644 58.9401C140.285 58.8969 139.921 58.9384 139.581 59.061C139.322 59.1777 139.193 59.2943 139.219 59.3721Z" fill="#263238"/>
<path d="M133.832 58.5643C133.936 58.6982 134.351 58.5643 134.843 58.5643C135.335 58.5643 135.759 58.655 135.854 58.5125C135.897 58.4477 135.832 58.3094 135.651 58.1799C135.405 58.0247 135.118 57.9463 134.827 57.9548C134.536 57.9632 134.255 58.0581 134.018 58.2274C133.845 58.357 133.785 58.4995 133.832 58.5643Z" fill="#263238"/>
<path d="M148.441 69.2638C147.842 69.3845 147.223 69.3609 146.636 69.1951C146.048 69.0293 145.508 68.726 145.061 68.3103C144.613 67.8946 144.271 67.3784 144.063 66.8044C143.854 66.2303 143.786 65.615 143.862 65.0091C144 63.9465 144.57 62.8493 144.203 61.8558C143.715 60.5254 141.849 60.128 141.352 58.7889C141.067 58.0158 141.327 57.113 140.998 56.357C140.67 55.6011 139.944 55.234 139.214 54.9705C138.463 54.7768 137.748 54.4663 137.093 54.0504C136.48 53.5753 136.1 52.6768 136.493 52.0116C139.729 52.3971 142.908 53.1686 145.961 54.3096C146.665 54.5731 147.408 54.8927 147.827 55.5191C148.246 56.1454 148.259 57.0439 148.212 57.843L147.668 69.5057" fill="#263238"/>
<path d="M150.773 72.8662C150.771 72.4949 150.695 72.1277 150.549 71.7863C150.37 71.3912 150.119 71.0325 149.81 70.7281C149.395 70.3313 148.923 69.9979 148.411 69.7389C147.845 69.4322 147.192 69.1514 146.527 68.7713C145.794 68.3817 145.176 67.8068 144.735 67.104C144.503 66.7109 144.378 66.2643 144.372 65.8081C144.391 65.3449 144.456 64.8848 144.566 64.4345C144.686 63.9915 144.717 63.5289 144.657 63.0738C144.61 62.85 144.514 62.6394 144.376 62.4571C144.237 62.2749 144.061 62.1255 143.858 62.0199C143.426 61.778 142.994 61.6268 142.54 61.4195C142.076 61.2314 141.684 60.9 141.422 60.4735C141.203 60.0503 141.09 59.5805 141.093 59.1042C141.093 58.6506 141.093 58.2144 141.093 57.8083C141.104 57.4026 141.045 56.9981 140.92 56.6118C140.795 56.2579 140.566 55.9496 140.264 55.7263C139.679 55.3507 139.026 55.0939 138.342 54.9704C137.763 54.8551 137.209 54.6356 136.709 54.3225C136.331 54.0657 136.055 53.6854 135.927 53.2469C135.839 52.9745 135.839 52.6813 135.927 52.4089C135.961 52.3173 136.01 52.2325 136.074 52.1584C136.074 52.1584 136.026 52.2491 135.97 52.4262C135.897 52.689 135.906 52.9678 135.996 53.2253C136.132 53.6333 136.401 53.9834 136.761 54.2188C137.256 54.5105 137.798 54.7137 138.363 54.8192C139.072 54.9375 139.75 55.1944 140.359 55.5751C140.692 55.8185 140.946 56.1552 141.089 56.5427C141.223 56.9496 141.288 57.3757 141.283 57.804C141.283 58.236 141.283 58.6679 141.283 59.0999C141.282 59.5411 141.386 59.9764 141.586 60.3698C141.827 60.759 142.185 61.0615 142.609 61.2337C143.041 61.4367 143.504 61.5836 143.948 61.8428C144.172 61.9745 144.371 62.144 144.536 62.3438C144.694 62.5492 144.802 62.7889 144.851 63.0436C144.916 63.5289 144.884 64.0223 144.756 64.495C144.647 64.9293 144.582 65.3736 144.562 65.8211C144.564 66.2433 144.677 66.6575 144.89 67.0219C145.31 67.6973 145.898 68.2524 146.596 68.6331C147.244 69.0132 147.892 69.3026 148.462 69.6223C148.984 69.8951 149.46 70.2462 149.875 70.6633C150.188 70.9826 150.436 71.3596 150.605 71.7734C150.711 72.0342 150.768 72.3125 150.773 72.5941C150.779 72.6674 150.779 72.7411 150.773 72.8144C150.782 72.8403 150.778 72.8662 150.773 72.8662Z" fill="#263238"/>
<path d="M138.147 75.8382C138.081 75.8712 138.009 75.8931 137.936 75.903C137.848 75.9244 137.758 75.9388 137.668 75.9462C137.546 75.9645 137.424 75.9731 137.301 75.9721C136.504 75.9729 135.725 75.7286 135.072 75.2723C134.615 74.9633 134.232 74.5578 133.949 74.0844C133.647 73.5322 133.451 72.9288 133.37 72.3048C133.292 71.6399 133.102 70.9929 132.808 70.3912C132.471 69.7908 131.845 69.3934 131.279 68.8794C130.701 68.3782 130.324 67.6847 130.217 66.927C130.116 66.2229 130.258 65.5055 130.618 64.8925C130.97 64.3931 131.272 63.8607 131.521 63.3029C131.69 62.8046 131.754 62.2764 131.707 61.7522C131.621 60.9844 131.437 60.2309 131.158 59.5103C131.05 59.2465 130.956 58.9768 130.878 58.7026C130.922 58.762 130.959 58.8274 130.986 58.897C131.046 59.0309 131.137 59.2252 131.24 59.4801C131.555 60.1996 131.766 60.9603 131.867 61.7392C131.925 62.2878 131.868 62.8426 131.698 63.3677C131.454 63.9391 131.153 64.4846 130.8 64.9961C130.465 65.5697 130.337 66.2404 130.437 66.8967C130.537 67.6033 130.89 68.2497 131.43 68.7153C131.97 69.2077 132.627 69.6224 132.998 70.2789C133.304 70.9027 133.499 71.5751 133.573 72.2659C133.645 72.8697 133.826 73.4553 134.109 73.9937C134.372 74.4499 134.732 74.8434 135.163 75.147C135.786 75.5998 136.53 75.8569 137.301 75.8857C137.845 75.8986 138.143 75.8123 138.147 75.8382Z" fill="#263238"/>
<path d="M150.752 55.1908C150.794 55.2409 150.819 55.3027 150.825 55.3679C150.834 55.4612 150.824 55.5555 150.795 55.6447C150.766 55.7339 150.719 55.8162 150.657 55.8862C150.561 56.0014 150.442 56.0956 150.309 56.1632C150.175 56.2308 150.029 56.2703 149.879 56.2793C149.493 56.2557 149.118 56.1434 148.782 55.951C148.395 55.7346 147.964 55.6076 147.521 55.5795C147.006 55.5659 146.491 55.6123 145.987 55.7178C145.419 55.8409 144.841 55.9146 144.259 55.938C143.606 55.964 142.968 55.7312 142.484 55.2901C142.05 54.8302 141.705 54.2943 141.465 53.7092C141.244 53.1848 140.966 52.6865 140.635 52.2233C140.353 51.8443 139.967 51.5558 139.524 51.3931C139.08 51.2304 138.599 51.2007 138.139 51.3075C137.512 51.4742 136.972 51.8745 136.631 52.4263C136.511 52.6324 136.405 52.846 136.312 53.0656C136.312 53.0656 136.312 53.0008 136.346 52.8798C136.394 52.7046 136.463 52.5362 136.553 52.3788C136.829 51.8699 137.272 51.4724 137.808 51.2542C138.343 51.0359 138.938 51.0105 139.491 51.1822C140.007 51.3433 140.46 51.662 140.787 52.0937C141.13 52.5669 141.42 53.0769 141.65 53.6141C141.882 54.1728 142.213 54.685 142.627 55.126C143.067 55.5301 143.649 55.7429 144.247 55.7178C144.816 55.6958 145.382 55.6264 145.94 55.5104C146.46 55.4073 146.991 55.3667 147.521 55.3895C147.986 55.4355 148.436 55.5829 148.838 55.8214C149.151 56.0112 149.502 56.1292 149.866 56.167C150.001 56.1629 150.133 56.1321 150.255 56.0765C150.377 56.0209 150.488 55.9415 150.579 55.843C150.639 55.783 150.686 55.7115 150.718 55.6329C150.75 55.5543 150.766 55.47 150.765 55.3851C150.752 55.2512 150.717 55.1951 150.752 55.1908Z" fill="#455A64"/>
<path d="M148.303 53.9424C147.588 53.7784 146.952 53.3724 146.503 52.7932C146.053 52.2141 145.818 51.4974 145.836 50.7645C145.854 50.0316 146.125 49.3275 146.603 48.7715C147.081 48.2156 147.736 47.8418 148.458 47.7136C148.799 47.6299 149.157 47.6412 149.492 47.7463C149.827 47.8514 150.127 48.0462 150.359 48.3097C150.756 48.8497 150.73 49.6574 151.223 50.098C151.715 50.5386 152.596 50.3658 153.296 50.53C153.832 50.6829 154.297 51.0214 154.607 51.4849C154.917 51.9485 155.053 52.5071 154.989 53.0612C154.901 53.612 154.67 54.1301 154.319 54.5637C153.968 54.9972 153.51 55.3311 152.989 55.532C151.935 55.9166 150.783 55.9379 149.715 55.5925C148.656 55.2492 147.65 54.7608 146.726 54.1411" fill="#263238"/>
<path d="M153.508 50.8108C153.467 51.0968 153.358 51.3691 153.192 51.6056C152.833 52.2051 152.335 52.7101 151.741 53.0785C151.147 53.4493 150.473 53.6743 149.776 53.7351C149.486 53.7798 149.191 53.7577 148.912 53.6703C148.912 53.6314 149.24 53.6703 149.745 53.5753C150.406 53.4749 151.039 53.2413 151.607 52.8885C152.173 52.5326 152.662 52.067 153.045 51.5192C153.343 51.1002 153.473 50.7978 153.508 50.8108Z" fill="#455A64"/>
<path d="M151.218 55.6011C150.662 54.8677 149.964 54.2535 149.165 53.7949C148.367 53.3364 147.484 53.0428 146.57 52.9317C146.843 52.8787 147.123 52.8787 147.395 52.9317C148.733 53.1278 149.946 53.824 150.791 54.8798C150.982 55.0879 151.127 55.3336 151.218 55.6011Z" fill="#0057E7"/>
<path d="M119.742 102.645L112.74 101.289L114.001 103.081L111.012 104.576L108.511 103.405C108.705 103.916 108.95 104.407 109.241 104.87C109.79 105.781 110.537 106.515 110.995 106.55C111.148 107.181 111.468 107.76 111.919 108.226C112.326 108.631 112.83 108.924 113.384 109.075C113.937 109.227 114.521 109.232 115.077 109.09L119.781 107.388L119.742 102.645Z" fill="#FFBE9D"/>
<path d="M112.679 106.157C112.564 106.302 112.417 106.419 112.251 106.501C112.084 106.582 111.902 106.626 111.716 106.628C111.534 106.666 111.347 106.664 111.165 106.623C110.984 106.582 110.814 106.503 110.667 106.39C110.692 106.325 111.137 106.472 111.69 106.39C112.243 106.308 112.645 106.101 112.679 106.157Z" fill="#EB996E"/>
<path d="M113.604 107.647C113.647 107.69 113.345 108.027 112.826 108.161C112.676 108.219 112.515 108.243 112.354 108.231C112.193 108.219 112.038 108.172 111.898 108.092C111.898 108.027 112.33 108.066 112.761 107.945C113.193 107.824 113.552 107.6 113.604 107.647Z" fill="#EB996E"/>
<path d="M115.362 102.373C115.17 102.511 114.967 102.631 114.753 102.732C114.377 102.943 113.889 103.297 113.34 103.678C112.871 104.018 112.348 104.279 111.794 104.451C111.565 104.537 111.317 104.559 111.077 104.516C111.077 104.481 111.345 104.451 111.746 104.3C112.265 104.087 112.758 103.816 113.215 103.492C113.679 103.154 114.169 102.852 114.679 102.589C114.887 102.466 115.121 102.392 115.362 102.373Z" fill="#EB996E"/>
<path d="M157.836 114.269C157.836 114.269 158.073 114.42 158.669 115.479C160.497 118.74 161.235 126.554 154.35 133.53C145.443 142.54 135.011 157.287 135.011 157.287L126.804 191.913L114.433 189.23L120.809 153.244L138.29 120.813L157.836 114.269Z" fill="#263238"/>
<path d="M171.481 181.282L152.423 152.117L146.644 126.943L131.923 134.178L139.305 159.728L162.859 189.066L171.481 181.282Z" fill="#263238"/>
<path d="M126.813 191.913C126.816 191.854 126.826 191.796 126.843 191.74C126.869 191.619 126.904 191.455 126.947 191.243C127.051 190.811 127.193 190.159 127.379 189.338L128.999 182.349C130.385 176.44 132.299 168.298 134.415 159.304C134.58 158.605 134.744 157.909 134.899 157.261V157.231C140.299 150.32 145.219 144.208 148.838 139.867C150.653 137.707 152.134 135.979 153.184 134.795C153.698 134.204 154.121 133.763 154.402 133.461L154.722 133.119C154.795 133.042 154.834 133.003 154.838 133.007C154.809 133.052 154.775 133.094 154.739 133.132L154.432 133.487C154.164 133.802 153.754 134.251 153.244 134.852C152.216 136.039 150.756 137.785 148.959 139.966C145.37 144.333 140.471 150.462 135.076 157.369V157.326C134.925 157.974 134.761 158.67 134.592 159.369L129.154 182.388C128.441 185.321 127.858 187.701 127.465 189.36C127.262 190.172 127.107 190.811 126.994 191.252C126.943 191.463 126.899 191.623 126.869 191.744C126.856 191.802 126.837 191.858 126.813 191.913Z" fill="#455A64"/>
<path d="M149.162 123.474C149.074 123.547 148.973 123.603 148.864 123.638C148.578 123.762 148.282 123.859 147.979 123.928C146.969 124.158 145.916 124.127 144.922 123.837C143.927 123.548 143.023 123.01 142.294 122.273C142.075 122.052 141.875 121.812 141.698 121.556C141.577 121.37 141.521 121.262 141.534 121.254C141.547 121.245 141.836 121.634 142.398 122.156C143.132 122.839 144.015 123.34 144.977 123.621C145.939 123.901 146.954 123.953 147.94 123.772C148.704 123.634 149.149 123.439 149.162 123.474Z" fill="#455A64"/>
<path d="M159.672 115.764C152.216 119.69 140.117 122.036 136.247 120.442L136.113 106.079C136.113 106.079 130.813 97.3408 130.791 94.0364C130.761 89.2849 136.692 78.4126 136.692 78.4126L145.594 76.0239C147.387 75.9857 149.16 76.3986 150.752 77.2247C152.417 78.1474 153.772 79.542 154.646 81.233C155.519 82.9241 155.874 84.8359 155.663 86.7277L153.421 101.017L159.672 115.764Z" fill="#0057E7"/>
<g opacity="0.3">
<path opacity="0.3" d="M150.117 77.2118C150.635 77.134 150.825 77.9763 150.458 78.3478C150.091 78.7193 149.508 78.7366 148.994 78.8143C146.674 79.1772 144.882 81.1641 144.039 83.3541C143.197 85.5441 143.115 87.9372 142.977 90.2654C142.838 92.5936 142.609 95.0169 141.508 97.0946C140.48 95.2714 139.87 93.242 139.724 91.1539C139.577 89.0657 139.897 86.9712 140.661 85.0223C141.425 83.0734 142.614 81.319 144.14 79.8866C145.666 78.4542 147.493 77.3796 149.486 76.7409" fill="black"/>
</g>
<path d="M150.752 77.2247C150.752 77.2247 149.456 75.1124 145.171 76.0282C142.303 76.6416 136.031 82.6673 137.78 92.3474C139.53 102.027 144.221 105.457 144.221 105.457C144.221 105.457 139.901 90.6369 142.303 84.1705C142.931 82.3449 144.054 80.7294 145.545 79.5032C147.037 78.2771 148.839 77.4884 150.752 77.2247Z" fill="#263238"/>
<g opacity="0.3">
<path opacity="0.3" d="M136.277 109.129C138.052 109.699 139.754 110.425 141.603 110.658C143.453 110.962 145.35 110.763 147.097 110.083C149.469 109.073 151.231 106.913 152.138 104.498C153.045 102.084 153.171 99.4401 152.929 96.8699C151.309 98.8742 151.503 101.842 150.125 104.023C149.261 105.384 147.858 106.312 146.415 107.047C143.258 108.565 139.777 109.284 136.277 109.142" fill="black"/>
</g>
<path d="M141.616 94.4553C141.616 94.4553 141.037 105.358 154.337 103.189L155.676 106.343C155.676 106.343 141.694 109.297 139.694 97.7036L141.616 94.4553Z" fill="#263238"/>
<path d="M153.737 80.905C154.296 81.7366 154.673 82.6775 154.843 83.6655C155.013 84.6534 154.971 85.6662 154.721 86.637L151.408 101.466C149.987 105.639 145.931 108.174 143.409 108.511L119.785 111.012V102.196L141.715 98.939L142.743 86.9307C142.834 85.3152 143.629 82.4125 144.657 81.1598C145.806 79.7646 147.573 77.864 150.458 78.3478C152.225 78.6415 152.976 79.8208 153.737 80.905Z" fill="#0057E7"/>
<path d="M154.419 87.2158C154.423 87.3271 154.415 87.4385 154.397 87.5484C154.372 87.7687 154.333 88.0883 154.277 88.503C154.164 89.3324 153.991 90.5246 153.728 91.9932C153.464 93.4618 153.128 95.2113 152.683 97.1334C152.462 98.0924 152.225 99.1032 151.935 100.157C151.653 101.236 151.265 102.285 150.778 103.289C150.286 104.298 149.609 105.207 148.782 105.967C148.011 106.672 147.137 107.254 146.19 107.695C144.584 108.414 142.868 108.86 141.115 109.012C139.625 109.163 138.415 109.172 137.582 109.181H136.618C136.508 109.191 136.396 109.191 136.286 109.181C136.395 109.161 136.507 109.152 136.618 109.155L137.577 109.116C138.411 109.081 139.62 109.047 141.098 108.874C142.828 108.703 144.518 108.248 146.1 107.526C147.028 107.097 147.886 106.529 148.644 105.842C149.447 105.094 150.106 104.205 150.588 103.22C151.067 102.229 151.45 101.195 151.732 100.131C152.022 99.1032 152.264 98.0967 152.493 97.1378C152.924 95.2199 153.305 93.4834 153.581 92.0191C153.858 90.5548 154.061 89.3669 154.199 88.5635C154.268 88.1704 154.32 87.8551 154.359 87.6175C154.369 87.4823 154.389 87.348 154.419 87.2158Z" fill="#263238"/>
<path d="M142.35 101.466C142.104 101.066 141.925 100.628 141.819 100.17C141.639 99.7399 141.531 99.2832 141.499 98.8181C141.926 99.6432 142.218 100.531 142.363 101.449L142.35 101.466Z" fill="#263238"/>
<path d="M143.694 101.129C143.227 100.91 142.815 100.59 142.489 100.192C142.109 99.8452 141.814 99.4168 141.625 98.939C141.994 99.2833 142.34 99.6513 142.661 100.04C143.03 100.379 143.375 100.743 143.694 101.129Z" fill="#263238"/>
<path d="M121.841 101.894L121.941 101.868L122.234 101.811L123.366 101.626L127.569 100.965L141.681 98.831L141.586 98.9303C141.664 98.1096 141.746 97.2457 141.832 96.3645C142.113 93.2502 142.411 90.2826 142.558 87.5743C142.66 86.2866 142.906 85.0145 143.292 83.7817C143.602 82.6904 144.128 81.6725 144.838 80.7883C146.238 79.2635 147.806 78.4557 148.959 78.3089C149.4 78.2462 149.848 78.2549 150.285 78.3348C150.432 78.365 150.545 78.3996 150.618 78.4212L150.73 78.4601C150.154 78.3277 149.557 78.3057 148.972 78.3953C147.849 78.5637 146.32 79.3801 144.959 80.8963C144.271 81.7667 143.766 82.7673 143.473 83.8379C143.097 85.0585 142.859 86.3177 142.765 87.5916C142.631 90.2999 142.333 93.2718 142.052 96.3861C141.97 97.25 141.888 98.1139 141.806 98.9519V99.0383H141.72L127.578 101.103L123.366 101.691L122.226 101.842L121.932 101.876L121.841 101.894Z" fill="#263238"/>
<path d="M135.361 109.077C135.301 109.077 135.05 107.086 134.804 104.619C134.558 102.153 134.407 100.14 134.467 100.131C134.731 101.608 134.919 103.097 135.029 104.593C135.216 106.081 135.327 107.578 135.361 109.077Z" fill="#FAFAFA"/>
<path d="M152.657 95.6907C152.157 95.7337 151.654 95.741 151.153 95.7123C150.225 95.7123 148.946 95.6605 147.529 95.6086C146.113 95.5568 144.834 95.4963 143.91 95.4402C143.409 95.4321 142.909 95.3874 142.415 95.3063C142.915 95.2572 143.417 95.2486 143.918 95.2804C144.843 95.2804 146.126 95.3322 147.538 95.384C148.95 95.4359 150.229 95.4963 151.158 95.5525C151.66 95.5585 152.162 95.6047 152.657 95.6907Z" fill="#FAFAFA"/>
<path d="M137.659 92.8701C137.339 92.9525 137.01 92.996 136.679 92.9996C136.074 93.0428 135.232 93.0731 134.303 93.0558C133.374 93.0385 132.532 92.9737 131.927 92.9046C131.597 92.89 131.271 92.8333 130.955 92.7362C131.283 92.7038 131.613 92.7038 131.94 92.7362C132.545 92.7664 133.383 92.801 134.307 92.8182C135.232 92.8355 136.07 92.8182 136.674 92.8182C137.004 92.7991 137.334 92.8165 137.659 92.8701Z" fill="#FAFAFA"/>
<path d="M139.612 82.6241C139.577 82.6803 138.67 82.1922 137.495 81.7602C136.32 81.3283 135.335 81.0648 135.335 81C136.871 81.1875 138.339 81.7448 139.612 82.6241Z" fill="#FAFAFA"/>
<path d="M156.769 109.574C156.709 109.616 156.644 109.65 156.575 109.673L156.004 109.906C155.512 110.109 154.786 110.377 153.883 110.692C151.528 111.504 149.13 112.187 146.7 112.74C144.271 113.306 141.812 113.738 139.335 114.036C138.385 114.144 137.607 114.217 137.08 114.252L136.467 114.286C136.396 114.298 136.323 114.298 136.251 114.286C136.319 114.263 136.391 114.248 136.463 114.243L137.072 114.165C137.603 114.105 138.368 114.01 139.318 113.88C141.206 113.621 143.81 113.193 146.661 112.546C149.512 111.898 152.03 111.146 153.845 110.554C154.752 110.261 155.486 110.014 156.004 109.837L156.587 109.643C156.646 109.614 156.706 109.591 156.769 109.574Z" fill="#FAFAFA"/>
<path d="M155.361 83.7429C155.361 83.8033 152.812 83.7731 149.672 83.6694C146.532 83.5658 143.992 83.4362 143.992 83.3757C143.992 83.3153 146.54 83.3455 149.681 83.4448C152.821 83.5442 155.361 83.6781 155.361 83.7429Z" fill="#FAFAFA"/>
<path d="M124.921 110.36C124.755 108.926 124.662 107.484 124.644 106.04C124.551 104.602 124.533 103.161 124.593 101.721C124.759 103.155 124.851 104.597 124.869 106.04C124.963 107.478 124.98 108.92 124.921 110.36Z" fill="#FAFAFA"/>
<path d="M76.5984 66.184C80.4442 65.4701 84.4145 65.8872 88.0279 67.3848C89.6304 68.0543 91.22 69.0003 92.0839 70.5078C93.112 72.2874 92.9479 74.4818 92.8312 76.5335C92.6054 80.7137 92.7499 84.9056 93.2632 89.0602C93.6951 92.5158 94.3733 95.9714 94.3603 99.4271C94.3474 102.883 93.5699 106.52 91.3885 109.232C88.0236 113.409 82.0324 114.584 76.7021 113.872C73.903 113.5 71.1083 112.662 68.8232 110.995C66.5382 109.327 64.8277 106.757 64.6333 103.941" fill="#455A64"/>
<path d="M83.259 71.4797C83.7573 72.069 84.1809 72.7175 84.5203 73.4105C84.8709 74.1738 85.1598 74.9639 85.3842 75.7733C85.654 76.7769 85.9873 77.7623 86.3821 78.7235C86.7936 79.7014 87.4335 80.5665 88.2481 81.2461C88.9273 81.8045 89.7792 82.1098 90.6584 82.11C91.2423 82.1157 91.8154 81.9522 92.3085 81.6392C92.4403 81.5523 92.5607 81.4493 92.667 81.3325C92.7404 81.2548 92.775 81.2073 92.7663 81.2029C92.7577 81.1986 92.5936 81.3455 92.248 81.5442C91.7591 81.8115 91.2064 81.94 90.6498 81.9157C89.8235 81.8902 89.0303 81.5857 88.3993 81.0518C87.631 80.3889 87.0276 79.5563 86.6369 78.6199C86.2442 77.6697 85.9067 76.6976 85.6261 75.7085C85.3878 74.8912 85.0785 74.0962 84.7018 73.3328C84.4429 72.8177 84.116 72.3397 83.7299 71.9116C83.5987 71.7419 83.4394 71.5958 83.259 71.4797Z" fill="#263238"/>
<path d="M84.7839 113.604C84.8171 113.494 84.8388 113.381 84.8487 113.267C84.8833 113.013 84.9265 112.685 84.9783 112.282C85.0863 111.418 85.2288 110.191 85.4102 108.662C85.7342 105.6 86.123 101.367 86.4599 96.6842C86.7968 92.0018 86.9998 87.7514 87.1121 84.6715C87.1683 83.1338 87.2028 81.8898 87.2158 81.0302C87.2158 80.6241 87.2158 80.2959 87.2158 80.041C87.229 79.9262 87.229 79.8102 87.2158 79.6954C87.1915 79.8076 87.1785 79.9219 87.1769 80.0367C87.1769 80.2958 87.1381 80.6198 87.1121 81.0259C87.0646 81.92 86.9998 83.1554 86.9178 84.6629C86.7536 87.7384 86.5117 91.9802 86.1834 96.6626C85.8552 101.345 85.488 105.578 85.2159 108.641C85.082 110.148 84.974 111.379 84.8962 112.269C84.8617 112.675 84.8357 113.003 84.8185 113.258C84.7935 113.372 84.7819 113.488 84.7839 113.604Z" fill="#263238"/>
<path d="M86.49 94.8441C86.49 94.9175 88.1573 95.1507 90.2437 95.2026C92.33 95.2544 94.0146 95.1162 94.0103 95.0384C94.006 94.9607 92.3257 94.9736 90.2523 94.9175C88.1789 94.8613 86.4986 94.762 86.49 94.8441Z" fill="#263238"/>
<path d="M87.8463 95.0298C87.6778 95.2554 87.5599 95.5147 87.5008 95.79C87.4071 96.0728 87.3321 96.3614 87.2762 96.6539C87.2287 96.8469 87.2287 97.0484 87.2762 97.2414C87.3089 97.3591 87.374 97.4652 87.4642 97.5477C87.5543 97.6302 87.6657 97.6857 87.7859 97.7079C87.8536 97.7182 87.9227 97.7135 87.9884 97.6941C88.0541 97.6747 88.1147 97.6411 88.166 97.5956C88.2584 97.5131 88.3207 97.4021 88.3431 97.2803C88.3731 97.0914 88.3731 96.899 88.3431 96.7101C88.3129 96.406 88.255 96.1052 88.1703 95.8116C88.1195 95.5326 88.0041 95.2693 87.8334 95.0427C87.8503 95.3193 87.8981 95.5932 87.9759 95.8591C88.0278 96.1448 88.0624 96.4333 88.0796 96.723C88.1037 96.8834 88.1037 97.0465 88.0796 97.2068C88.045 97.3537 87.9543 97.4358 87.8377 97.4185C87.5396 97.3667 87.4748 96.9865 87.5353 96.6885C87.5958 96.3904 87.6433 96.0622 87.6951 95.8246C87.7789 95.5671 87.8297 95.3 87.8463 95.0298Z" fill="#263238"/>
<path d="M72.6501 67.2326L90.7261 67.8291C93.0127 67.9046 94.9275 66.1121 95.003 63.8255L95.1189 60.3114C95.1944 58.0248 93.4019 56.11 91.1154 56.0346L73.0393 55.4381C70.7527 55.3626 68.838 57.1551 68.7625 59.4416L68.6465 62.9558C68.5711 65.2424 70.3635 67.1572 72.6501 67.2326Z" fill="#263238"/>
<path d="M90.6842 56.2576C90.6842 56.2576 90.6367 56.2144 90.5287 56.1626C90.3683 56.0875 90.1982 56.0352 90.0234 56.0071C89.3708 55.9093 88.7044 56.0341 88.1314 56.3613C87.2617 56.7925 86.5234 57.4488 85.9932 58.2619C85.384 59.2786 85.0353 60.43 84.9781 61.6139C84.8643 62.8008 85.1064 63.9948 85.6736 65.0436C86.14 65.9005 86.8534 66.5973 87.721 67.0435C88.2976 67.3432 88.9334 67.5114 89.5828 67.536C89.7588 67.5433 89.9352 67.5346 90.1097 67.51C90.1712 67.5084 90.2316 67.4937 90.2868 67.4668C90.2868 67.4409 90.0363 67.4668 89.5914 67.4236C88.9675 67.3598 88.3632 67.1687 87.8161 66.8621C87.002 66.4151 86.3367 65.7393 85.9025 64.9183C85.3751 63.9093 85.153 62.7686 85.2632 61.6355C85.3185 60.4968 85.6442 59.3878 86.2135 58.4001C86.7139 57.6173 87.407 56.9762 88.2264 56.5384C88.7612 56.2112 89.3852 56.0601 90.0104 56.1065C90.451 56.154 90.6756 56.2836 90.6842 56.2576Z" fill="#455A64"/>
<path d="M80.5119 55.6356L83.2591 55.7738C82.504 55.8894 81.8156 56.2727 81.3197 56.8537C80.8301 57.432 80.4693 58.1079 80.2614 58.8364C79.3068 61.8601 80.4601 65.4798 82.8531 67.5662L80.6285 67.5316C80.6285 67.5316 75.2162 61.0005 80.4946 55.6356" fill="#455A64"/>
<path d="M67.0866 50.4609C65.9635 47.7439 65.903 43.0269 67.6179 40.5259C69.3327 38.0249 72.5465 36.4051 75.4967 35.7744C75.9823 35.6252 76.5014 35.6252 76.987 35.7744C77.2234 35.8634 77.4178 36.0381 77.5314 36.2638C77.6451 36.4894 77.6697 36.7496 77.6003 36.9925C78.1737 36.599 78.8088 36.3041 79.4793 36.12C79.8165 36.0248 80.172 36.0144 80.5141 36.0897C80.8563 36.1651 81.1745 36.3239 81.4404 36.5519C81.5686 36.6693 81.6719 36.8111 81.7441 36.9692C81.8163 37.1272 81.856 37.2981 81.8609 37.4718C81.8657 37.6455 81.8356 37.8184 81.7722 37.9802C81.7089 38.142 81.6137 38.2894 81.4923 38.4137C81.908 38.2595 82.3598 38.2311 82.7916 38.3319C83.2234 38.4328 83.6159 38.6584 83.9203 38.9808C84.2247 39.3032 84.4275 39.708 84.5035 40.1448C84.5794 40.5816 84.5252 41.0311 84.3475 41.4373C83.9435 42.2692 83.3833 43.0156 82.6974 43.636C82.0797 44.2062 81.976 44.7936 82.0797 45.6273" fill="#263238"/>
<path d="M67.7907 45.4805L67.0132 62.102C66.9809 62.772 67.0853 63.4415 67.3199 64.0698C67.5546 64.6981 67.9146 65.2722 68.378 65.757C68.8414 66.2419 69.3986 66.6274 70.0157 66.8902C70.6328 67.1529 71.297 67.2874 71.9677 67.2855C73.2373 67.279 74.4559 66.785 75.3716 65.9055C76.2873 65.026 76.83 63.8282 76.8876 62.5599C76.9438 61.3072 76.9956 60.2619 77.0086 60.1366C77.0086 60.1366 81.259 59.9379 81.76 55.7653C82.0019 53.748 82.1661 49.5538 82.2654 45.7569C82.3179 43.7903 81.6279 41.8761 80.3328 40.3953C79.0377 38.9145 77.2325 37.9757 75.2764 37.7658L74.8747 37.7226C70.512 37.5066 67.8857 41.1004 67.7907 45.4805Z" fill="#FFBE9D"/>
<path d="M77.0346 60.0762C75.1021 59.9054 73.2643 59.1625 71.7561 57.9423C71.7561 57.9423 72.5898 60.5557 76.797 60.6291L77.0346 60.0762Z" fill="#EB996E"/>
<path d="M80.7752 48.4221C80.7599 48.5783 80.6839 48.7224 80.5636 48.8233C80.4433 48.9243 80.2882 48.974 80.1316 48.962C80.0552 48.9598 79.98 48.9423 79.9105 48.9105C79.841 48.8787 79.7786 48.8332 79.727 48.7768C79.6754 48.7204 79.6357 48.6542 79.6102 48.5821C79.5848 48.51 79.574 48.4336 79.5787 48.3573C79.5941 48.2018 79.6694 48.0584 79.7888 47.9576C79.9082 47.8568 80.0621 47.8064 80.218 47.8173C80.2944 47.8201 80.3695 47.838 80.439 47.8699C80.5084 47.9019 80.5709 47.9473 80.6227 48.0035C80.6745 48.0598 80.7146 48.1257 80.7408 48.1975C80.767 48.2694 80.7787 48.3457 80.7752 48.4221Z" fill="#263238"/>
<path d="M81.1597 47.7094C81.0776 47.7785 80.6629 47.3983 80.0193 47.3292C79.3757 47.2601 78.8747 47.5323 78.8142 47.4459C78.7537 47.3595 78.8703 47.2731 79.095 47.1478C79.3933 46.9861 79.734 46.9198 80.0712 46.9578C80.4057 46.993 80.7203 47.1336 80.9696 47.3595C81.151 47.515 81.2072 47.6791 81.1597 47.7094Z" fill="#263238"/>
<path d="M74.4386 47.9469C74.4232 48.1024 74.3478 48.2457 74.2285 48.3466C74.1091 48.4474 73.9551 48.4977 73.7993 48.4868C73.7229 48.4841 73.6478 48.4662 73.5783 48.4342C73.5089 48.4022 73.4464 48.3568 73.3946 48.3006C73.3428 48.2444 73.3026 48.1784 73.2765 48.1066C73.2503 48.0348 73.2386 47.9585 73.2421 47.8821C73.2563 47.7262 73.3314 47.5821 73.451 47.4811C73.5707 47.3801 73.7252 47.3301 73.8813 47.3421C73.9581 47.3438 74.0338 47.3608 74.1038 47.3924C74.1738 47.424 74.2367 47.4694 74.2888 47.5258C74.3408 47.5823 74.3809 47.6487 74.4066 47.7211C74.4324 47.7934 74.4432 47.8702 74.4386 47.9469Z" fill="#263238"/>
<path d="M74.8359 47.1478C74.7539 47.2169 74.3392 46.8368 73.6956 46.7677C73.052 46.6986 72.5466 46.9707 72.4861 46.8843C72.4256 46.7979 72.5466 46.7158 72.7669 46.5863C73.0669 46.425 73.4089 46.3587 73.7474 46.3962C74.0814 46.4334 74.3955 46.5738 74.6459 46.7979C74.823 46.9707 74.8748 47.1176 74.8359 47.1478Z" fill="#263238"/>
<path d="M76.6545 52.1628C77.0038 52.0904 77.3611 52.0643 77.7171 52.085C77.8813 52.085 78.0411 52.085 78.08 51.9641C78.1137 51.7967 78.094 51.623 78.0238 51.4673L77.674 50.1715C77.1902 48.3227 76.8619 46.8066 76.9353 46.7893C77.0087 46.772 77.4623 48.2536 77.9461 50.1067C78.0584 50.5386 78.1707 50.9965 78.2744 51.4025C78.3506 51.6133 78.3506 51.8441 78.2744 52.0548C78.2454 52.1106 78.2037 52.1588 78.1527 52.1956C78.1017 52.2323 78.0428 52.2566 77.9806 52.2664C77.8875 52.279 77.793 52.279 77.6999 52.2664C77.3484 52.2776 76.997 52.2428 76.6545 52.1628Z" fill="#263238"/>
<path d="M74.728 52.4046C74.8317 52.4046 74.7582 53.1044 75.3025 53.6659C75.8468 54.2275 76.5984 54.2275 76.5984 54.3268C76.5984 54.4262 76.4213 54.4435 76.1059 54.4175C75.6962 54.3802 75.3133 54.1979 75.026 53.9035C74.7504 53.6235 74.5954 53.2467 74.5941 52.8539C74.5725 52.5601 74.6675 52.396 74.728 52.4046Z" fill="#263238"/>
<path d="M75.2721 44.6511C75.19 44.8196 74.5594 44.6511 73.7948 44.677C73.0303 44.7029 72.3996 44.8239 72.3175 44.677C72.283 44.5949 72.4039 44.4438 72.6674 44.3012C73.0168 44.1245 73.4034 44.0342 73.7948 44.0377C74.1853 44.0339 74.5713 44.1212 74.9222 44.2926C75.1857 44.4178 75.311 44.569 75.2721 44.6511Z" fill="#263238"/>
<path d="M81.1252 45.826C80.9956 45.9599 80.5723 45.7612 80.041 45.6964C79.5097 45.6316 79.0475 45.6964 78.9611 45.5236C78.9222 45.4459 79.0086 45.3077 79.2202 45.191C79.5005 45.0585 79.8133 45.0108 80.1203 45.0537C80.4273 45.0967 80.715 45.2285 80.9481 45.4329C81.1381 45.6014 81.1813 45.7612 81.1252 45.826Z" fill="#263238"/>
<path d="M67.8166 48.6121C67.7475 48.5733 65.0391 47.4545 64.8188 50.3183C64.5985 53.1822 67.5272 52.815 67.5358 52.733C67.5445 52.6509 67.8166 48.6121 67.8166 48.6121Z" fill="#FFBE9D"/>
<path d="M66.7282 51.5796C66.7282 51.5796 66.6763 51.6099 66.5856 51.6444C66.4661 51.6907 66.3336 51.6907 66.2142 51.6444C66.0377 51.5128 65.8995 51.3366 65.8138 51.1339C65.728 50.9312 65.6977 50.7094 65.7261 50.4911C65.7382 50.2449 65.8045 50.0045 65.9204 49.787C65.9542 49.7002 66.0083 49.6227 66.0782 49.5611C66.1481 49.4994 66.2318 49.4555 66.3221 49.4328C66.3809 49.4218 66.4416 49.4318 66.4937 49.461C66.5458 49.4902 66.586 49.5368 66.6072 49.5926C66.6418 49.6747 66.6072 49.7309 66.6331 49.7352C66.6591 49.7395 66.6979 49.692 66.685 49.5754C66.6732 49.503 66.6383 49.4363 66.5856 49.3853C66.5109 49.3191 66.4132 49.285 66.3135 49.2903C66.1942 49.3048 66.0807 49.3498 65.9839 49.4209C65.8871 49.492 65.8102 49.5869 65.7606 49.6963C65.6185 49.9348 65.5383 50.205 65.5274 50.4825C65.4924 50.7366 65.5336 50.9955 65.6459 51.2261C65.7582 51.4568 65.9364 51.649 66.158 51.7783C66.2338 51.807 66.3149 51.8183 66.3957 51.8116C66.4764 51.8049 66.5545 51.7802 66.6245 51.7394C66.7152 51.6487 66.7368 51.5839 66.7282 51.5796Z" fill="#EB996E"/>
<path d="M84.5202 40.487C84.572 44.2277 79.8767 45.4286 78.0409 43.1997C77.177 42.1673 76.4643 40.9017 75.2332 40.3747C74.812 40.211 74.3622 40.1332 73.9105 40.1458C73.4587 40.1584 73.0141 40.2612 72.6026 40.4481H72.5767C71.3499 40.9708 70.5465 42.284 70.2614 43.5885C69.8683 45.407 70.0368 47.0441 69.4321 48.6985C69.3699 48.9465 69.2271 49.1668 69.026 49.3248C68.6632 49.5451 68.1621 49.2902 67.9159 48.949C67.5383 48.3696 67.3386 47.6924 67.3414 47.0009C67.2082 45.4377 67.3873 43.8636 67.8684 42.3703C68.3565 40.8731 69.2725 39.5516 70.5033 38.5691C72.0899 37.3982 74.0689 36.8887 76.0237 37.148C77.972 37.4202 79.7853 38.2982 81.2071 39.6577C81.8942 40.2559 82.4213 41.016 82.7406 41.8693" fill="#263238"/>
<path d="M81.6392 38.2107C81.7736 38.1927 81.9103 38.2091 82.0366 38.2582C82.3881 38.3759 82.6994 38.5899 82.9351 38.8759C83.2993 39.2917 83.5124 39.8184 83.5398 40.3704C83.5448 41.0515 83.297 41.7103 82.8444 42.2192C82.4094 42.728 81.8409 43.105 81.203 43.3077C80.6896 43.4722 80.1523 43.5495 79.6134 43.5367C79.2537 43.5301 78.8953 43.4926 78.5421 43.4244C78.4094 43.4116 78.2803 43.3735 78.162 43.312C78.162 43.2732 78.7192 43.3984 79.609 43.3812C80.1291 43.3711 80.6447 43.2823 81.1382 43.1177C81.7342 42.9136 82.265 42.5543 82.6759 42.0767C83.0928 41.6088 83.3261 41.0057 83.3325 40.3791C83.3192 39.8675 83.1386 39.3744 82.8185 38.9752C82.6047 38.7019 82.3233 38.489 82.0021 38.3575C81.7818 38.2452 81.6392 38.2323 81.6392 38.2107Z" fill="#455A64"/>
<path d="M79.8251 36.7507C79.8251 36.7507 79.9331 36.7247 80.0972 36.8198C80.207 36.892 80.2995 36.9874 80.3682 37.0994C80.4369 37.2114 80.48 37.3371 80.4946 37.4677C80.5226 37.8519 80.4157 38.2338 80.1922 38.5476C79.9561 38.9333 79.6651 39.2825 79.3283 39.5843C78.7143 40.1379 77.972 40.5298 77.1686 40.7246C76.8433 40.8257 76.5006 40.8581 76.1621 40.8197C76.1621 40.7765 76.5422 40.7592 77.1254 40.5735C77.8822 40.3423 78.5795 39.9487 79.1685 39.4201C79.4923 39.1321 79.7783 38.804 80.0195 38.4439C80.2275 38.1692 80.3397 37.8339 80.3391 37.4893C80.3319 37.3755 80.3023 37.2642 80.2518 37.1619C80.2014 37.0596 80.1313 36.9683 80.0454 36.8932C79.9115 36.7895 79.8208 36.7679 79.8251 36.7507Z" fill="#455A64"/>
<path d="M67.6784 77.566L69.0218 67.7433L49.7178 71.6309L32.1502 65.5274L27.4031 70.4085L46.098 80.0367C47.7654 80.8331 49.6442 81.0738 51.4586 80.7235L67.6784 77.566Z" fill="#FFBE9D"/>
<path d="M32.1503 65.5274C32.1503 65.5274 25.4334 62.3137 25.0015 62.2014C24.6689 62.115 19.5977 61.8472 17.2868 61.7262C17.1056 61.7247 16.9305 61.7909 16.7957 61.912C16.661 62.033 16.5763 62.2001 16.5585 62.3803C16.5406 62.5606 16.5908 62.741 16.6992 62.8861C16.8076 63.0312 16.9663 63.1306 17.1442 63.1646H17.2306C18.5265 63.2726 21.3601 63.9205 21.3601 63.9205L20.0642 66.9442C20.0014 67.094 19.9907 67.2606 20.0338 67.4172C20.0768 67.5739 20.1712 67.7115 20.3018 67.8081L24.211 70.6979C24.7228 70.9306 25.287 71.0244 25.8466 70.9698C26.4062 70.9152 26.9416 70.7142 27.3988 70.3869L29.1266 70.7411L32.1503 65.5274Z" fill="#FFBE9D"/>
<path d="M20.0513 67.1343C20.1722 67.7002 21.5199 68.8621 22.5436 68.8621C22.7694 68.8659 22.9889 68.7876 23.1613 68.6418C23.2432 68.5652 23.3004 68.466 23.3258 68.3568C23.3512 68.2476 23.3436 68.1333 23.3039 68.0285C23.2318 67.8994 23.1295 67.7897 23.0058 67.7088L20.7338 65.9248" fill="#FFBE9D"/>
<path d="M20.7339 65.9248C21.0724 66.1059 21.3922 66.32 21.6885 66.5641L22.6863 67.3114C22.8764 67.4583 23.0664 67.5835 23.2738 67.7736C23.3334 67.829 23.3813 67.8957 23.4147 67.9699C23.4481 68.0441 23.4662 68.1242 23.4681 68.2056C23.4686 68.3626 23.4153 68.515 23.317 68.6375C23.2177 68.7494 23.0939 68.8368 22.9553 68.893C22.8167 68.9492 22.667 68.9726 22.5179 68.9615C22.2596 68.9483 22.0061 68.8868 21.7706 68.7801C21.3795 68.6116 21.0189 68.3795 20.7036 68.0932C20.4886 67.9035 20.3036 67.6821 20.1551 67.4367C20.0557 67.2553 20.0514 67.1343 20.0644 67.1343C20.0773 67.1343 20.1119 67.2337 20.2285 67.3892C20.3973 67.6061 20.5916 67.8019 20.8073 67.9723C21.1222 68.2281 21.4729 68.4362 21.8483 68.59C22.0636 68.6803 22.2932 68.7315 22.5265 68.7412C22.6404 68.7498 22.7547 68.7325 22.8609 68.6906C22.9672 68.6487 23.0625 68.5833 23.1399 68.4993C23.2091 68.4205 23.2473 68.3191 23.2473 68.2142C23.2473 68.1093 23.2091 68.0079 23.1399 67.9291C22.9757 67.7736 22.7554 67.6224 22.5826 67.4971L21.5978 66.6894C21.2832 66.4663 20.9936 66.21 20.7339 65.9248Z" fill="#EB996E"/>
<path d="M25.4853 68.8793C25.4853 68.8793 25.3341 68.8016 25.1959 68.5856C25.0154 68.2989 24.914 67.9696 24.9021 67.631C24.8847 67.2949 24.9547 66.9601 25.1052 66.6591C25.2261 66.4301 25.3471 66.3222 25.3687 66.3394C25.2228 66.7566 25.1412 67.1936 25.1268 67.6353C25.1816 68.066 25.3025 68.4856 25.4853 68.8793Z" fill="#EB996E"/>
<path d="M22.7898 67.3286C22.883 67.5042 23.0339 67.6424 23.2171 67.7196C23.4004 67.7969 23.6046 67.8086 23.7954 67.7528C23.9863 67.6969 24.152 67.577 24.2647 67.4132C24.3774 67.2493 24.4301 67.0516 24.4139 66.8535C24.3755 66.6127 24.2882 66.3824 24.1574 66.1767C24.0267 65.9709 23.8553 65.794 23.6537 65.657L21.9734 64.1365" fill="#FFBE9D"/>
<path d="M21.9734 64.1193C22.2282 64.268 22.4645 64.4464 22.6775 64.6506L23.3988 65.2683C23.7134 65.5172 24.0028 65.7964 24.2627 66.1019C24.3965 66.2765 24.4855 66.4812 24.5219 66.698C24.556 66.9079 24.5163 67.1231 24.4096 67.3071C24.3267 67.4629 24.2018 67.5924 24.0492 67.6809C23.8965 67.7695 23.7221 67.8135 23.5457 67.8081C23.3145 67.7971 23.0957 67.7 22.9323 67.536C22.82 67.4194 22.7941 67.333 22.8027 67.3287C22.8114 67.3244 22.8719 67.3848 22.9885 67.4712C23.1518 67.589 23.3487 67.6511 23.55 67.6483C23.6914 67.6436 23.8288 67.601 23.9481 67.525C24.0674 67.449 24.1641 67.3425 24.2282 67.2164C24.3011 67.057 24.3261 66.8798 24.3 66.7064C24.2739 66.5331 24.1979 66.371 24.0813 66.2402C23.833 65.9508 23.563 65.6807 23.2736 65.4324L22.5824 64.7758C22.3505 64.5857 22.1456 64.3648 21.9734 64.1193Z" fill="#EB996E"/>
<path d="M25.671 63.8643C24.3157 64.1881 23.0218 64.7293 21.8396 65.4669C21.764 65.5038 21.7042 65.5666 21.6711 65.644C21.6366 65.7563 21.723 65.8643 21.8137 65.9377C22.1859 66.1896 22.639 66.2929 23.0836 66.2271C23.5214 66.1574 23.9626 66.1112 24.4054 66.0889C25.1743 66.0889 25.8827 66.4733 26.6256 66.6807C27.3686 66.888 28.267 66.8794 28.7854 66.3006" fill="#FFBE9D"/>
<path d="M28.7767 66.3006C28.7767 66.3006 28.7767 66.3438 28.7076 66.4042C28.6257 66.4927 28.5311 66.5684 28.4269 66.6288C28.0313 66.8442 27.5764 66.9245 27.131 66.8578C26.4968 66.7484 25.8748 66.5777 25.2736 66.3481C24.9257 66.2396 24.5622 66.19 24.198 66.2012C23.8179 66.2228 23.4248 66.3178 22.9929 66.3438C22.5621 66.3942 22.1274 66.2901 21.7661 66.05C21.6612 65.9832 21.5844 65.8802 21.5501 65.7606C21.5332 65.6855 21.5455 65.6067 21.5847 65.5403C21.6188 65.4889 21.6629 65.4449 21.7143 65.4107C21.8828 65.3027 22.0383 65.2164 22.1981 65.1257C22.7509 64.8095 23.3288 64.5393 23.9259 64.3179C24.3309 64.1668 24.7449 64.0413 25.1656 63.9421C25.3183 63.8952 25.4767 63.869 25.6364 63.8643C25.6364 63.9032 24.9842 64.0544 23.982 64.4648C23.3967 64.7059 22.8282 64.9858 22.2802 65.3027C22.129 65.3935 21.9648 65.4928 21.818 65.5878C21.7488 65.6397 21.7273 65.6699 21.7402 65.7131C21.7654 65.78 21.8126 65.8364 21.8741 65.8729C22.1962 66.078 22.5793 66.165 22.9583 66.1191C23.36 66.0932 23.7618 66.0025 24.1635 65.9852C24.553 65.9739 24.9417 66.0294 25.3125 66.1494C25.9007 66.3839 26.5076 66.5689 27.1267 66.7023C27.5398 66.773 27.9645 66.7219 28.3491 66.5554C28.4963 66.4786 28.6391 66.3935 28.7767 66.3006Z" fill="#EB996E"/>
<path d="M50.0158 75.0174C49.6394 73.9011 49.6048 72.6979 49.9164 71.5618C49.9812 71.5618 49.9164 72.348 49.9164 73.2896C49.9164 74.2313 50.0806 75.0045 50.0158 75.0174Z" fill="#EB996E"/>
<path d="M66.9096 63.1862L61.4324 69.3588C61.4324 69.3588 58.5038 90.6757 58.2965 92.3517C58.0891 94.0277 57.5319 99.3753 57.5319 100.84C57.5319 102.304 56.3181 112.77 56.3181 112.77C56.3181 112.77 79.5615 117.599 83.4534 112.77L82.2396 103.807L83.2936 81.5745C83.2936 81.5745 85.0214 66.1408 76.9007 62.5685C76.8877 62.5599 71.7561 65.657 66.9096 63.1862Z" fill="#0057E7"/>
<path d="M80.6329 64.7456C80.6329 64.7456 79.0303 63.1646 73.9074 64.4907C68.5123 65.8859 65.6657 70.9355 66.9961 85.2245C68.1019 97.0168 72.7627 98.7101 72.7627 98.7101C72.7627 98.7101 70.2098 80.9266 70.6504 73.4883C71.2033 64.0933 80.6242 66.4302 80.6242 66.4302C81.9719 66.0069 80.6329 64.7456 80.6329 64.7456Z" fill="#263238"/>
<path d="M66.9096 63.1862L62.1754 64.4907L51.5234 71.0132L54.5558 80.6458L60.8104 79.9589L66.9096 63.1862Z" fill="#0057E7"/>
<path d="M60.7456 69.8728C60.8104 69.8728 60.5383 73.3284 60.1452 77.5616C59.7521 81.7947 59.3806 85.2417 59.3202 85.2331C59.2597 85.2245 59.5275 81.7775 59.9206 77.5443C60.3137 73.3112 60.6851 69.8685 60.7456 69.8728Z" fill="#263238"/>
<path d="M82.4297 99.8116C82.4297 99.8116 80.9178 104.671 75.5746 96.6453C70.2313 88.6196 70.9786 92.2092 70.9786 92.2092L69.8857 93.505C69.8857 93.505 75.7646 106.744 82.3606 104.671L82.4297 99.8116Z" fill="#263238"/>
<path opacity="0.3" d="M60.5297 72.1881L56.3181 80.4514L59.7997 80.0713L60.5297 72.1881Z" fill="black"/>
<g opacity="0.3">
<path opacity="0.3" d="M58.5988 94.127C61.6984 97.5004 65.3594 100.311 69.4192 102.433C71.1168 103.323 72.9958 104.105 74.8964 103.859C76.987 103.591 78.7839 102.079 79.7645 100.218C80.745 98.3558 80.6284 97.4574 80.8487 95.3667C81.1079 93.0601 81.1079 89.9802 81.2288 87.8766C81.2288 87.5052 81.2547 87.0732 81.2547 86.6628C81.2547 86.2185 81.398 85.786 81.6633 85.4296C81.9287 85.0731 82.302 84.8119 82.7277 84.6845C82.7277 84.6845 81.4318 84.0841 80.5981 84.205C79.7645 84.326 79.0993 85.0387 78.6544 85.773C76.2829 89.6822 77.3153 95.4142 72.7927 97.8677C71.298 98.6317 69.5932 98.8821 67.9419 98.5804C64.2401 97.9757 61.4064 95.5568 58.6765 93.1724" fill="black"/>
</g>
<path d="M63.7132 86.0365C64.8463 86.0365 65.7649 83.2749 65.7649 79.8682C65.7649 76.4616 64.8463 73.7 63.7132 73.7C62.58 73.7 61.6614 76.4616 61.6614 79.8682C61.6614 83.2749 62.58 86.0365 63.7132 86.0365Z" fill="#FAFAFA"/>
<path d="M64.793 187.148L65.2638 197.303C65.2638 197.303 55.1 201.191 55.0006 203.079L74.7236 202.876L74.6415 187.023L64.793 187.148Z" fill="#0057E7"/>
<g opacity="0.6">
<path opacity="0.6" d="M71.3717 196.388C71.5612 196.444 71.7235 196.568 71.8278 196.736C71.9321 196.904 71.9711 197.104 71.9375 197.299C71.8883 197.491 71.7674 197.658 71.5995 197.764C71.4316 197.87 71.2296 197.907 71.0348 197.869C70.8343 197.807 70.6633 197.674 70.5536 197.496C70.4439 197.317 70.4031 197.104 70.4387 196.897C70.5119 196.703 70.6572 196.543 70.8445 196.452C71.0318 196.362 71.2468 196.346 71.4451 196.409" fill="white"/>
</g>
<path opacity="0.6" d="M74.7279 202.876V201.295L55.7824 202.072C55.7824 202.072 54.9185 202.461 55.0135 203.079L74.7279 202.876Z" fill="white"/>
<path d="M64.9573 197.208C64.9573 197.303 65.4454 197.342 65.9205 197.64C66.3957 197.938 66.6548 198.344 66.7455 198.306C66.8363 198.267 66.6851 197.714 66.0976 197.355C65.5102 196.997 64.9357 197.118 64.9573 197.208Z" fill="#263238"/>
<path d="M62.9009 198.085C62.8794 198.18 63.2983 198.34 63.6266 198.742C63.9549 199.144 64.0586 199.576 64.1536 199.571C64.2486 199.567 64.3048 199.018 63.8858 198.526C63.4668 198.033 62.9009 197.995 62.9009 198.085Z" fill="#263238"/>
<path d="M61.7694 200.573C61.8558 200.573 61.9853 200.111 61.7305 199.584C61.4756 199.057 61.0264 198.854 60.9875 198.936C60.9487 199.018 61.2294 199.295 61.4195 199.731C61.6095 200.167 61.6527 200.565 61.7694 200.573Z" fill="#263238"/>
<path d="M65.1085 194.88C65.1516 194.971 65.5922 194.833 66.1365 194.88C66.6808 194.928 67.1041 195.079 67.1559 194.997C67.2078 194.915 66.7931 194.565 66.1495 194.543C65.5059 194.522 65.0609 194.811 65.1085 194.88Z" fill="#263238"/>
<path opacity="0.3" d="M64.9054 189.161L64.9875 190.971L74.6805 190.781L74.6762 189.148L64.9054 189.161Z" fill="black"/>
<path d="M65.0521 192.833C65.3758 192.922 65.7176 192.922 66.0413 192.833C66.3957 192.764 66.7408 192.654 67.0694 192.504C67.2645 192.415 67.4536 192.312 67.6352 192.198C67.7429 192.133 67.8416 192.055 67.9289 191.965C67.9898 191.894 68.0265 191.807 68.0335 191.714C68.0405 191.621 68.0174 191.529 67.9678 191.451C67.9185 191.382 67.8535 191.327 67.7783 191.29C67.7031 191.252 67.6199 191.233 67.5359 191.235C67.4098 191.233 67.2844 191.252 67.1644 191.291C66.9545 191.342 66.7504 191.414 66.5553 191.507C66.2225 191.658 65.9162 191.863 65.6482 192.111C65.1947 192.543 65.0435 192.902 65.078 192.923C65.1126 192.945 65.3415 192.647 65.8037 192.293C66.0698 192.09 66.36 191.92 66.6676 191.787C66.8519 191.714 67.0409 191.653 67.2335 191.606C67.4408 191.55 67.6223 191.55 67.6654 191.641C67.7086 191.731 67.6655 191.688 67.6439 191.753C67.5813 191.82 67.5084 191.877 67.4279 191.921C67.2609 192.033 67.0879 192.135 66.9095 192.228C66.6049 192.382 66.2868 192.508 65.9592 192.604C65.6519 192.659 65.3488 192.735 65.0521 192.833Z" fill="#263238"/>
<path d="M65.1774 192.967C65.3638 192.685 65.4519 192.349 65.428 192.012C65.442 191.646 65.3924 191.281 65.2811 190.932C65.2173 190.725 65.1318 190.525 65.0262 190.336C64.9718 190.206 64.8848 190.093 64.7735 190.006C64.6623 189.92 64.5306 189.864 64.3913 189.844C64.3028 189.842 64.216 189.868 64.1426 189.917C64.0692 189.967 64.0127 190.038 63.9809 190.12C63.9303 190.236 63.8968 190.358 63.8815 190.483C63.8468 190.703 63.8468 190.928 63.8815 191.148C63.9396 191.518 64.088 191.868 64.3135 192.168C64.7023 192.673 65.1083 192.785 65.1126 192.751C65.1169 192.716 64.8103 192.522 64.5079 192.034C64.3355 191.752 64.2264 191.437 64.1882 191.109C64.1627 190.919 64.1627 190.725 64.1882 190.535C64.2185 190.327 64.2962 190.155 64.374 190.176C64.4517 190.198 64.6418 190.332 64.7239 190.496C64.8232 190.667 64.907 190.846 64.9744 191.031C65.0856 191.348 65.1525 191.678 65.1731 192.012C65.2249 192.591 65.1256 192.954 65.1774 192.967Z" fill="#263238"/>
<path d="M83.9199 180.989L91.8938 187.291C91.8938 187.291 88.166 197.515 89.5267 198.824L102.304 183.801L90.2783 173.464L83.9199 180.989Z" fill="#0057E7"/>
<g opacity="0.6">
<path opacity="0.6" d="M95.1939 182.09C95.3608 181.983 95.5614 181.941 95.7574 181.972C95.9533 182.003 96.131 182.105 96.2565 182.259C96.3692 182.421 96.4154 182.621 96.3857 182.817C96.356 183.013 96.2526 183.19 96.0967 183.312C95.9188 183.423 95.7068 183.465 95.5003 183.431C95.2937 183.397 95.1065 183.289 94.9736 183.127C94.8722 182.944 94.8457 182.73 94.8997 182.528C94.9537 182.327 95.084 182.154 95.263 182.047" fill="white"/>
</g>
<path opacity="0.6" d="M102.304 183.796L101.107 182.764L89.2676 197.58C89.2676 197.58 88.9912 198.496 89.5268 198.82L102.304 183.796Z" fill="white"/>
<path d="M91.6087 187.468C91.6864 187.528 92.0406 187.187 92.5762 187.036C93.1119 186.885 93.5913 186.945 93.6172 186.854C93.6432 186.764 93.1291 186.509 92.4769 186.716C91.8246 186.924 91.5309 187.425 91.6087 187.468Z" fill="#263238"/>
<path d="M90.9219 189.597C90.978 189.675 91.3538 189.464 91.8981 189.476C92.4424 189.489 92.8095 189.701 92.8657 189.623C92.9218 189.546 92.5503 189.148 91.9024 189.144C91.2545 189.14 90.8528 189.537 90.9219 189.597Z" fill="#263238"/>
<path d="M92.0451 192.094C92.1185 192.042 91.8377 191.628 91.2762 191.476C90.7146 191.325 90.2654 191.528 90.3 191.61C90.3345 191.692 90.7319 191.667 91.1898 191.8C91.6477 191.934 91.9759 192.163 92.0451 192.094Z" fill="#263238"/>
<path d="M89.9542 185.826C90.045 185.852 90.2307 185.433 90.6108 185.04C90.9909 184.647 91.397 184.44 91.3667 184.345C91.3365 184.25 90.8095 184.345 90.3689 184.811C89.9283 185.278 89.8463 185.813 89.9542 185.826Z" fill="#263238"/>
<path opacity="0.3" d="M85.5009 182.228L86.922 183.356L93.1335 175.913L91.8981 174.846L85.5009 182.228Z" fill="black"/>
<path d="M88.3689 184.526C88.3948 184.552 88.6885 184.302 89.0039 183.77C89.1875 183.458 89.3326 183.124 89.4358 182.777C89.4949 182.571 89.541 182.362 89.574 182.151C89.5923 182.026 89.5923 181.899 89.574 181.775C89.5611 181.683 89.5189 181.597 89.4535 181.531C89.3881 181.465 89.3031 181.422 89.2112 181.408C89.1305 181.402 89.0496 181.415 88.9747 181.446C88.8999 181.477 88.833 181.524 88.7792 181.585C88.697 181.68 88.6287 181.786 88.5762 181.9C88.481 182.095 88.4016 182.297 88.3387 182.505C88.2376 182.857 88.1924 183.223 88.2047 183.589C88.1826 183.925 88.264 184.26 88.438 184.548C88.4942 184.548 88.4078 184.172 88.438 183.589C88.4713 183.052 88.6186 182.527 88.87 182.051C88.965 181.857 89.0773 181.723 89.181 181.74C89.2846 181.757 89.2328 181.74 89.2544 181.827C89.2666 181.92 89.2666 182.014 89.2544 182.107C89.2269 182.305 89.1894 182.501 89.1421 182.695C89.0591 183.027 88.9449 183.351 88.8008 183.662C88.6338 183.938 88.4894 184.227 88.3689 184.526Z" fill="#263238"/>
<path d="M88.5505 184.522C88.5807 184.522 88.4425 184.133 87.9933 183.706C87.7256 183.455 87.4174 183.252 87.0819 183.105C86.8817 183.018 86.6733 182.952 86.4598 182.906C86.3261 182.863 86.1835 182.855 86.0458 182.883C85.9081 182.911 85.7799 182.974 85.6737 183.066C85.6183 183.134 85.5833 183.217 85.5726 183.304C85.5619 183.391 85.576 183.479 85.6132 183.559C85.6689 183.672 85.7401 183.776 85.8249 183.87C85.9709 184.038 86.1413 184.184 86.3303 184.302C86.6475 184.498 87.0076 184.615 87.3799 184.643C88.0192 184.677 88.3691 184.449 88.3475 184.418C88.0354 184.44 87.7222 184.44 87.4101 184.418C87.084 184.363 86.7733 184.24 86.4987 184.055C86.3376 183.948 86.1922 183.819 86.0668 183.671C85.9285 183.511 85.8508 183.343 85.9156 183.295C85.986 183.254 86.0643 183.228 86.1455 183.219C86.2266 183.21 86.3087 183.218 86.3864 183.243C86.5792 183.281 86.7685 183.334 86.9523 183.403C87.2612 183.528 87.5518 183.693 87.8162 183.896C88.3 184.237 88.5073 184.552 88.5505 184.522Z" fill="#263238"/>
<path d="M61.8083 144.186C61.8083 144.186 62.3353 119.928 61.8083 119.928C61.2813 119.928 57.5406 117.794 57.5406 117.794L52.8669 153.84C52.8669 153.84 52.4349 157.888 57.4542 160.752C62.4735 163.615 84.853 183.511 84.853 183.511L92.4381 174.272C92.4381 174.272 77.7042 158.916 71.7043 153.84C66.9529 149.888 61.8083 144.186 61.8083 144.186Z" fill="#263238"/>
<path d="M75.5315 138.532L76.0455 134.692C76.0455 134.692 79.7344 126.917 80.2614 123.608C80.7884 120.299 80.4428 113.129 80.4428 113.129H57.1389C57.1389 113.129 57.2383 139.439 60.0503 146.821C60.0503 146.821 61.4757 160.946 61.6874 162.129C62.1193 164.643 63.6873 190.362 63.6873 190.362L75.4365 189.93C75.4365 189.93 76.4559 166.285 75.6395 159.572C75.2378 156.246 75.0477 152.704 74.957 149.776C74.8462 146.018 75.0383 142.258 75.5315 138.532Z" fill="#263238"/>
<path d="M57.7738 120.805C57.7782 120.842 57.7782 120.879 57.7738 120.917C57.7738 121.008 57.7738 121.12 57.7954 121.258C57.7954 121.573 57.8299 122.014 57.8559 122.554C57.8991 123.69 57.9854 125.336 58.1021 127.366C58.3353 131.426 58.7716 137.029 59.3979 143.201C60.0243 149.374 60.7283 154.95 61.2251 158.989C61.4713 160.993 61.657 162.622 61.8082 163.771C61.873 164.324 61.9249 164.756 61.9594 165.067C61.9594 165.205 61.9853 165.317 61.994 165.408C62.0026 165.499 61.994 165.525 61.994 165.525C61.9798 165.488 61.9697 165.451 61.9637 165.412L61.9119 165.075L61.7175 163.78C61.562 162.635 61.3374 161.006 61.061 159.006C60.5253 154.972 59.8126 149.396 59.169 143.219C58.5254 137.042 58.1194 131.435 57.925 127.37C57.8256 125.336 57.7695 123.69 57.7522 122.554C57.7522 121.997 57.7522 121.56 57.7306 121.258V120.921C57.7409 120.881 57.7554 120.842 57.7738 120.805Z" fill="#455A64"/>
<path d="M74.9352 151.944C74.9686 152.069 74.9917 152.196 75.0043 152.324C75.0389 152.592 75.0907 152.959 75.1555 153.421C75.2722 154.38 75.419 155.767 75.5529 157.482C75.8294 160.916 76.0367 165.689 76.1145 170.924C76.1922 176.159 76.1145 180.941 75.9071 184.379C75.8207 186.107 75.7084 187.489 75.6177 188.448C75.5659 188.911 75.5227 189.278 75.4925 189.55C75.4834 189.679 75.4646 189.808 75.4363 189.934C75.4248 189.805 75.4248 189.675 75.4363 189.546C75.4579 189.273 75.4838 188.906 75.5184 188.44C75.5832 187.481 75.6696 186.09 75.7387 184.371C75.8812 180.937 75.9417 176.164 75.8769 170.928C75.8121 165.693 75.6177 160.924 75.3801 157.495C75.2678 155.767 75.1469 154.389 75.0562 153.43C75.0087 152.968 74.9698 152.601 74.9439 152.328C74.9304 152.201 74.9275 152.072 74.9352 151.944Z" fill="#455A64"/>
<path d="M79.5183 64.2056C79.5183 64.2056 83.3324 65.2207 84.1445 70.9052C84.9566 76.5897 83.4534 78.2139 83.4534 78.2139C83.4534 78.2139 84.0711 67.631 79.3325 66.1883L79.5183 64.4129" fill="#263238"/>
<path d="M53.5319 82.7709L33.8435 82.3865L34.0724 83.3411L53.4369 83.6262L53.5319 82.7709Z" fill="#263238"/>
<path d="M77.406 65.9896C76.6675 65.8093 75.8902 65.8777 75.1944 66.184C73.6005 66.8535 70.6805 68.7757 70.4732 74.2356L70.1362 83.0345L82.7277 84.6845C82.7277 84.6845 83.7989 67.6915 77.406 65.9896Z" fill="#0057E7"/>
<path d="M54.2317 84.6327L70.214 89.436L70.4516 83.0085L80.015 84.3994L79.4794 94.8527C79.4251 96.3444 78.882 97.777 77.9336 98.9298C76.9853 100.083 75.6844 100.892 74.2311 101.233C72.5599 101.623 70.8028 101.369 69.3112 100.52L52.3484 90.8744L54.2317 84.6327Z" fill="#FFBE9D"/>
<path d="M82.7277 84.6845C82.7277 84.6845 82.7277 84.6284 82.7277 84.5333C82.7277 84.4383 82.7277 84.2828 82.7061 84.1014C82.7061 83.7169 82.6758 83.177 82.6499 82.4859C82.6067 81.082 82.5419 79.0778 82.4642 76.6027C82.4253 75.3673 82.3864 74.011 82.3475 72.5596C82.3475 72.1968 82.3259 71.8253 82.313 71.4495C82.313 71.2681 82.2784 71.0823 82.2568 70.8923C82.2352 70.7022 82.192 70.5208 82.1402 70.335C81.8218 69.1301 81.1265 68.0586 80.1559 67.2768C79.1853 66.495 77.9902 66.044 76.7451 65.9896C75.8508 65.981 74.9732 66.2315 74.2182 66.7109C73.4384 67.2078 72.773 67.8644 72.2657 68.6375C71.5414 69.7491 71.0519 70.9971 70.8273 72.3047C70.6066 73.558 70.4752 74.8254 70.4343 76.0973C70.3651 78.5767 70.3004 80.9093 70.2399 83.0301L70.1578 82.9308L79.2591 84.1748L81.8162 84.5333L82.503 84.6629L82.7406 84.7061L82.503 84.6629L81.8422 84.5895L79.298 84.2785L70.1189 83.1295H70.0369V83.0431C70.0887 80.9179 70.1276 78.5897 70.2096 76.1059C70.2442 74.8226 70.3727 73.5434 70.5941 72.2788C70.8228 70.9413 71.3242 69.665 72.067 68.5295C72.5917 67.7296 73.2809 67.0507 74.0886 66.5382C74.8792 66.0352 75.7995 65.7739 76.7365 65.7866C77.6141 65.8239 78.4729 66.0529 79.2527 66.4573C80.0325 66.8617 80.7143 67.4319 81.2504 68.1278C81.7517 68.7667 82.1163 69.5018 82.3216 70.2875C82.3691 70.4776 82.3994 70.672 82.4383 70.8663C82.4771 71.0607 82.4771 71.2508 82.4944 71.4452C82.4944 71.821 82.4944 72.1968 82.5203 72.5639C82.5506 74.0326 82.5765 75.4018 82.6024 76.6502C82.6456 79.1296 82.6801 81.1382 82.7061 82.542C82.7061 83.2202 82.7061 83.7558 82.7277 84.1316V84.5636C82.7316 84.6038 82.7316 84.6443 82.7277 84.6845Z" fill="#263238"/>
<path d="M54.5556 84.8228L50.7199 81.9849C50.0201 81.4665 48.9316 81.5529 48.0633 81.4968C46.3355 81.3412 43.5149 82.3607 43.4069 82.5594L44.5645 83.4837L37.109 83.2548C37.3648 83.7622 37.7534 84.1908 38.2333 84.495C38.7132 84.7992 39.2666 84.9677 39.8346 84.9826C39.8346 84.9826 40.0722 86.6672 42.2363 86.9869C42.2363 86.9869 42.7978 88.3519 44.003 88.7492C44.003 88.7492 44.2406 90.274 46.1628 90.192L52.6982 90.922L54.5556 84.8228Z" fill="#FFBE9D"/>
<path d="M44.4911 85.2461C43.7046 85.3146 42.9132 85.3059 42.1283 85.2202C41.3401 85.2147 40.5544 85.1308 39.7828 84.9696C40.5681 84.9062 41.3576 84.9149 42.1413 84.9956C42.9306 85.0067 43.7172 85.0906 44.4911 85.2461Z" fill="#EB996E"/>
<path d="M46.3833 87.043C45.701 87.1538 45.0088 87.1915 44.3185 87.1553C43.6282 87.1915 42.9361 87.1538 42.2538 87.043C42.9358 86.9296 43.6282 86.8919 44.3185 86.9307C45.0088 86.8919 45.7013 86.9296 46.3833 87.043Z" fill="#EB996E"/>
<path d="M48.409 88.7363C47.727 88.8497 47.0345 88.8873 46.3442 88.8486C45.6554 88.8875 44.9644 88.8498 44.2838 88.7363C44.9646 88.6253 45.6554 88.5877 46.3442 88.624C47.0345 88.5878 47.7267 88.6254 48.409 88.7363Z" fill="#EB996E"/>
<path d="M71.2723 92.6973C70.957 92.2142 70.7181 91.6853 70.5639 91.1293C70.3323 90.6 70.1865 90.0372 70.132 89.462C70.3953 89.9702 70.6052 90.5044 70.7583 91.0559C70.9874 91.5833 71.1597 92.1335 71.2723 92.6973Z" fill="#EB996E"/>
<path d="M72.4083 92.0753C71.9644 91.664 71.5609 91.2113 71.2031 90.7232C70.7872 90.2857 70.4153 89.8082 70.093 89.2978C70.5889 89.6607 71.0259 90.0978 71.3889 90.5937C71.7992 91.0351 72.1427 91.5342 72.4083 92.0753Z" fill="#EB996E"/>
</svg>
