<svg width="73" height="91" viewBox="0 0 73 91" fill="none" xmlns="http://www.w3.org/2000/svg">
<g clip-path="url(#clip0)">
<path d="M5.64761 82.052C4.10775 81.7354 3.72411 82.7274 2.16711 82.4028L2.5323 84.8006C2.32268 85.2671 1.85598 86.5126 1.85598 86.5126C0.122317 91.5302 0.21724 90.9902 0.389947 91.0835C0.562653 91.1768 1.8652 89.3203 2.01286 89.4937C2.16052 89.6659 1.26666 92.6523 1.53297 92.5734C1.79929 92.4946 2.95945 89.838 3.10975 89.9378C3.26004 90.0377 2.35564 92.9059 2.74719 93.007C3.13875 93.1069 4.02338 89.9313 4.30155 90.1375C4.57973 90.3438 3.59095 93.5746 3.96273 93.6088C4.27519 93.6377 5.46963 90.0508 5.84273 88.9078C5.89019 88.7606 6.08399 88.7265 6.18155 88.8473C7.67526 90.7117 7.90071 90.7682 8.06814 90.558C8.18679 90.4082 7.41818 88.3796 6.80646 86.4403L5.99434 84.0767L5.64761 82.052Z" fill="#FFC0BB"/>
<path d="M28.1495 37.0917C28.309 39.6879 28.4092 42.288 28.4672 44.8881C28.5028 46.1875 28.512 47.4883 28.5292 48.789C28.5344 50.0897 28.5358 51.3904 28.5252 52.6912C28.5199 53.3415 28.512 53.9919 28.4975 54.6423C28.483 55.2926 28.4764 55.943 28.4566 56.5933C28.4105 57.8941 28.3762 59.1935 28.2984 60.4929C28.16 63.0904 27.9623 65.6892 27.5852 68.2644L27.6511 67.2908L27.725 66.3186C27.7645 65.6695 27.7909 65.0205 27.8251 64.3727L27.8515 63.8866L27.87 63.3992L27.9056 62.4256L27.9438 61.452L27.9689 60.4784C28.044 57.8822 28.0822 55.2847 28.102 52.6859C28.131 50.0884 28.1336 47.4896 28.1376 44.8908L28.1495 37.0917Z" fill="#81CAEF"/>
<path d="M19.0211 6.7125C19.0211 6.7125 16.2841 4.92302 13.1701 6.7125C10.0561 8.50067 10.0561 14.5339 11.2822 15.9779C12.5096 17.4218 11.2189 19.3755 13.6724 21.2609C16.1259 23.1463 20.0336 23.8374 22.2642 21.6353C24.4949 19.4333 22.8588 14.5208 22.8588 14.5208L19.0211 6.7125Z" fill="#07085B"/>
<path d="M66.8476 26.7739C66.8779 26.9184 67.0559 26.9736 67.1601 26.8698C67.9722 26.0631 70.5417 23.5405 70.7935 23.6994C71.0941 23.8886 68.8529 26.1997 68.9992 26.494C69.1455 26.7897 71.2747 24.4812 71.5634 24.7348C71.8522 24.9897 69.8403 27.0288 69.9234 27.1786C70.0078 27.3283 72.1448 25.5796 72.4032 25.6282C72.663 25.6768 70.6089 27.8197 70.659 28.0299C70.7091 28.2402 72.6194 27.2311 72.7249 27.3848C72.8304 27.5386 72.9266 27.6226 69.2787 31.1254L67.7837 32.4432L65.9815 32.861L64.7092 31.0387C64.7092 31.0387 65.7455 24.6178 65.9894 24.5075C66.224 24.4011 66.3901 24.5469 66.8476 26.7739Z" fill="#FFC0BB"/>
<path d="M18.1814 99.0823L21.8886 112.785C30.4515 112.775 43.2252 111.983 49.5705 107.759C49.5705 107.759 41.2753 69.2589 35.7685 59.6152L16.8551 58.5786C16.8551 58.5786 3.73995 76.8242 13.3153 112.528C13.3153 112.528 14.9527 112.649 17.5657 112.724L18.1814 99.0823Z" fill="#09083C"/>
<path d="M21.6737 21.6157C21.6737 21.6157 21.8425 22.923 21.9532 24.5049C23.3836 25.6597 25.232 26.251 27.1595 26.0027C27.7936 25.9212 28.3948 25.7517 28.9577 25.5113C28.9129 24.4799 28.9287 23.5234 29.0882 23.0649C29.5286 21.8062 21.6737 21.6157 21.6737 21.6157Z" fill="#F99893"/>
<path d="M35.2805 28.277L53.1985 41.8295L64.671 30.0783C64.671 30.0783 68.1027 32.7218 68.1027 32.6732C68.1027 32.6246 57.3171 49.467 54.6698 50.3486C52.0225 51.2302 34.9391 39.341 34.9391 39.341L35.2805 28.277Z" fill="#8DB596"/>
<path d="M34.2417 20.0916C34.4869 19.6304 34.6913 19.1443 34.8508 18.6371C35.3069 17.2733 35.51 15.8346 35.5891 14.5825C35.6062 14.3145 35.6378 14.0465 35.6761 13.7811C35.8264 12.705 35.7842 11.5712 35.4915 10.4136C34.5528 6.68884 31.2121 3.9744 27.3703 3.82199C22.1944 3.61703 18.0653 7.83321 18.2393 12.8666C17.6803 12.5815 17.0633 12.5329 16.5294 12.793C15.5063 13.2923 15.1833 14.7323 15.8082 16.0107C16.4331 17.2878 17.77 17.9184 18.793 17.4192C18.9354 17.3495 19.062 17.2602 19.1767 17.1577C19.7607 21.4251 23.3889 24.6099 27.5997 24.3958C29.659 24.2907 31.4968 23.3907 32.8548 21.9953C32.9457 21.9139 33.042 21.818 33.1409 21.7076C33.5785 21.2215 33.9398 20.6749 34.2417 20.0916Z" fill="#FFC0BB"/>
<path d="M26.3605 14.0675C26.3842 14.5208 26.0348 14.9071 25.58 14.9307C25.1265 14.9543 24.7389 14.6049 24.7165 14.1516C24.6927 13.6983 25.0421 13.312 25.4969 13.2884C25.9505 13.266 26.3367 13.6142 26.3605 14.0675Z" fill="#333333"/>
<path d="M33.1184 14.0675C33.1421 14.5208 32.7927 14.9071 32.3379 14.9307C31.8844 14.9543 31.4968 14.6049 31.4731 14.1516C31.4493 13.6983 31.8 13.312 32.2535 13.2884C32.7084 13.266 33.0947 13.6142 33.1184 14.0675Z" fill="#333333"/>
<path d="M28.8745 12.5001C28.8692 12.7655 28.8666 13.0295 28.8772 13.2936C28.8838 13.5577 28.8996 13.8205 28.9259 14.0833C28.9536 14.3447 28.9892 14.6049 29.0525 14.8571C29.1145 15.1081 29.2002 15.3577 29.3478 15.5561C29.3676 15.5798 29.3847 15.606 29.4071 15.6257C29.4282 15.6481 29.4467 15.6678 29.4744 15.6941C29.4994 15.719 29.5245 15.7427 29.5469 15.7703C29.5706 15.7965 29.593 15.8241 29.6128 15.853C29.6959 15.9687 29.7565 16.104 29.7763 16.2472C29.8198 16.5362 29.7025 16.8253 29.5179 17.0289C29.3346 17.2378 29.0921 17.3811 28.8389 17.4717C28.5832 17.5611 28.3155 17.6018 28.0505 17.5992C28.1824 17.5834 28.3129 17.5611 28.4408 17.5308C28.5687 17.4993 28.6926 17.4573 28.8126 17.4047C29.0512 17.3009 29.27 17.1524 29.4309 16.9554C29.5891 16.7609 29.684 16.51 29.6392 16.2695C29.6207 16.15 29.5706 16.037 29.4968 15.9384C29.4797 15.9135 29.4599 15.8898 29.4388 15.8662C29.419 15.8425 29.3966 15.8215 29.3742 15.7992L29.3004 15.7256C29.274 15.7006 29.2542 15.6717 29.2318 15.6441C29.1461 15.5298 29.0855 15.405 29.0354 15.2776C28.9853 15.1501 28.947 15.0187 28.918 14.8873C28.86 14.6233 28.8271 14.3565 28.8126 14.0911C28.7796 13.5603 28.8046 13.0269 28.8745 12.5001Z" fill="#F99893"/>
<path d="M37.6602 45.9852C37.7235 45.9182 40.4723 42.9909 39.9383 37.5003C39.6483 34.5205 38.1084 31.7994 36.7426 29.9167C35.535 28.2507 33.6141 27.2508 31.5548 27.2127C27.7948 27.1431 21.7936 27.0617 21.7936 27.0617C21.7936 27.0617 14.0508 26.2129 11.596 29.2308C9.1425 32.2462 0.834132 53.1786 0.362155 63.1732C-0.109822 73.169 2.34498 84.9544 2.34498 84.9544C2.34498 84.9544 5.08324 85.1423 6.31064 84.9544C7.53805 84.7652 6.02719 65.6248 7.34952 62.5136C8.67185 59.4024 14.619 44.5045 14.9974 43.0895L16.4713 50.8899C16.7429 52.3285 16.6177 53.8119 16.1075 55.1836C14.8576 58.5471 12.4437 65.0113 11.4707 67.4078C11.4707 67.4078 30.0585 70.3942 39.2172 65.8679L39.1341 65.5171C37.6101 59.1199 37.1236 52.5283 37.6602 45.9852Z" fill="#8DB596"/>
<path d="M27.0527 12.6971C26.6782 12.4987 26.2893 12.3516 25.8938 12.2531C25.497 12.1585 25.0922 12.123 24.6941 12.1611C24.495 12.1782 24.2973 12.2176 24.1048 12.2728C24.0072 12.2977 23.9136 12.3332 23.8174 12.366C23.7699 12.3831 23.7238 12.4055 23.6776 12.4239C23.6302 12.4422 23.5827 12.4606 23.5379 12.4843C23.1701 12.659 22.8233 12.889 22.4845 13.1452C22.7363 12.8036 23.058 12.5079 23.4285 12.282C23.6143 12.169 23.8121 12.0731 24.0217 12.006C24.23 11.9364 24.4462 11.8878 24.6664 11.8681C25.1054 11.8274 25.551 11.8865 25.9597 12.0336C26.1654 12.1046 26.3605 12.1992 26.5451 12.3082C26.727 12.4199 26.9037 12.5447 27.0527 12.6971Z" fill="#07085B"/>
<path d="M30.3696 12.6972C30.5186 12.5448 30.6953 12.4199 30.8785 12.3096C31.0631 12.2005 31.2582 12.1059 31.4639 12.035C31.8726 11.8878 32.3182 11.8287 32.7572 11.8694C32.9774 11.8878 33.1936 11.9364 33.4019 12.0074C33.6102 12.0757 33.8093 12.1703 33.9951 12.2833C34.3669 12.5093 34.6873 12.8036 34.9391 13.1465C34.6003 12.8903 34.2535 12.6617 33.8857 12.4856C33.8409 12.462 33.7934 12.4436 33.746 12.4252C33.6985 12.4068 33.6537 12.3845 33.6062 12.3674C33.51 12.3345 33.4164 12.2978 33.3188 12.2741C33.1263 12.2202 32.9286 12.1795 32.7295 12.1624C32.3314 12.1243 31.9266 12.1598 31.5298 12.2544C31.133 12.3516 30.744 12.4988 30.3696 12.6972Z" fill="#07085B"/>
<path d="M35.1765 5.91762C33.5562 0.357358 26.1588 0.160278 26.1588 0.160278C14.718 0.952538 16.5202 10.9747 16.8972 12.6328C17.2282 12.5566 17.6843 12.5658 18.238 12.8653C18.4714 12.9915 18.6599 13.1242 18.8128 13.2582C20.1602 12.8483 20.5689 10.6134 21.2663 9.53732C22.2129 8.0763 26.3842 8.83046 27.9663 7.79382C29.5496 6.75718 29.7105 5.15427 29.7105 5.15427C35.8132 6.11996 35.7183 12.5605 35.7183 12.5605C35.982 12.5014 36.3076 12.5303 36.3076 12.5303C36.3076 12.5303 36.624 10.8853 35.1765 5.91762Z" fill="#07085B"/>
<path d="M31.1185 18.5701C30.9102 19.4241 29.9135 20.0798 28.7072 20.0929C27.5009 20.106 26.4897 19.4728 26.2616 18.6227L31.1185 18.5701Z" fill="white"/>
</g>
<defs>
<clipPath id="clip0">
<rect width="72.459" height="156.681" fill="white" transform="translate(0.301514 0.160278)"/>
</clipPath>
</defs>
</svg>
