<svg width="52" height="104" viewBox="0 0 52 104" fill="none" xmlns="http://www.w3.org/2000/svg">
<g clip-path="url(#clip0)">
<path d="M8.60608 10.1665C8.52278 10.2609 8.3683 10.2259 8.33498 10.1041C8.07902 9.16042 7.25662 6.19836 7.0037 6.20901C6.7023 6.22119 7.37324 8.88644 7.14 9.04322C6.90677 9.19999 6.31761 6.58346 5.99804 6.64891C5.67847 6.71436 6.29489 9.08279 6.16918 9.15737C6.04348 9.23196 5.21199 7.02792 4.99996 6.95333C4.78792 6.87875 5.39222 9.34003 5.265 9.4755C5.1393 9.60945 4.16091 8.04927 4.01702 8.11928C3.87466 8.18778 3.76713 8.21061 4.96967 12.3569C4.96967 12.3569 5.63152 13.7618 5.55428 14.2124L6.66293 15.045L8.37133 14.2367C8.37133 14.2367 10.3296 9.03865 10.1979 8.85295C10.0706 8.67334 9.88586 8.71139 8.60608 10.1665Z" fill="#FFC0BB"/>
<path d="M28.2177 9.22737C28.3343 9.27304 28.457 9.17105 28.4313 9.04776C28.2314 8.09187 27.6195 5.07805 27.8497 4.9715C28.1238 4.84517 28.7357 7.52411 29.0144 7.55608C29.293 7.58804 28.6297 4.98977 28.9447 4.90148C29.2597 4.8132 29.7838 7.20294 29.9307 7.21208C30.0761 7.22121 29.8171 4.87865 29.9716 4.71426C30.126 4.5514 30.7061 7.01876 30.8788 7.08117C31.0514 7.14358 31.215 5.30637 31.374 5.3018C31.5331 5.29724 31.6376 5.26832 32.4478 9.50897C32.4478 9.50897 32.4963 11.0631 32.7689 11.4284L32.1601 12.678L30.273 12.7404C30.273 12.7404 26.1716 9.01123 26.2064 8.78443C26.2367 8.56981 26.4184 8.51806 28.2177 9.22737Z" fill="#FFC0BB"/>
<path d="M23.7892 44.1268L23.7605 51.3782L30.7682 50.2914L29.599 42.1389L23.7892 44.1268Z" fill="#FFC0BB"/>
<path d="M44.4916 90.6551C44.4734 89.8469 46.5665 92.229 46.5271 91.5836C45.7062 78.1706 19.6273 89.4176 19.6273 89.4176L13.2617 94.1119L6.0752 156.282C6.0752 156.282 9.97666 157.417 12.5438 156.489L28.4586 103.214L30.4154 102.458C30.4139 102.458 39.118 96.354 44.4916 90.6551Z" fill="#07085B"/>
<path d="M46.5241 88.5364C41.1505 94.2352 30.4139 102.458 30.4139 102.458L28.4571 103.214L30.4139 102.458L36.4645 156.283C36.4645 156.283 40.7764 157.108 43.2406 155.767C43.2421 155.767 46.874 104.532 46.5241 88.5364Z" fill="#07085B"/>
<path d="M37.19 57.8959C36.8887 57.8959 32.3723 47.6063 32.3723 47.6063C28.5087 50.3294 23.2638 48.4389 23.2638 48.4389C23.2638 48.4389 2.16022 87.2501 16.3136 93.3021C30.4655 99.3541 43.8147 91.9916 43.8147 91.9916C43.8147 91.9916 46.8256 84.1237 46.8256 83.8208C46.8256 83.5179 37.4899 57.8959 37.19 57.8959Z" fill="#DAEEF7"/>
<path d="M9.6874 14.3189C9.6874 14.3189 8.77261 32.7321 10.4901 36.1082C16.1863 47.3049 23.2622 48.4404 23.2622 48.4404C23.2622 48.4404 25.6961 87.6048 23.6893 96.9857C23.6893 96.9857 17.0148 99.0543 7.1778 94.4133C7.1778 94.4133 14.7051 64.0499 14.3037 60.2172C14.3037 60.2172 2.25857 49.4237 1.85721 36.714C1.45586 24.0042 4.76816 12.7054 4.76816 12.7054L9.6874 14.3189Z" fill="#55769F"/>
<path d="M42.1577 95.5731C42.1577 95.5731 41.4049 80.9972 38.0926 67.1763C34.7803 53.3569 32.3722 47.6063 32.3722 47.6063C36.8144 42.6883 36.0753 38.2437 35.6845 32.4748C35.2332 25.817 28.7585 12.5015 28.7585 12.5015L33.1249 9.62769C54.0514 34.8965 42.4591 55.0221 42.4591 55.0221C42.4591 55.0221 50.2877 82.8634 51.3419 91.3355C51.3419 91.3355 47.1769 93.7572 42.1577 95.5731Z" fill="#55769F"/>
<path d="M32.7918 33.793C32.5767 34.9194 33.1295 35.9742 34.0262 36.1478C34.9228 36.3213 35.8254 35.5465 36.0405 34.4201C36.2556 33.2938 35.7028 32.2389 34.8061 32.0669C33.908 31.8934 33.0069 32.6667 32.7918 33.793Z" fill="#F99893"/>
<path d="M34.0746 38.3929C34.3048 36.9529 34.2715 35.478 34.1443 34.2131C34.117 33.9422 34.1049 33.6697 34.0988 33.3957C34.0731 32.2937 33.8444 31.1658 33.3643 30.0562C31.821 26.4822 28.0528 24.3147 24.2059 24.7942C19.0231 25.4411 15.6093 30.3408 16.6059 35.3501C16.0031 35.1568 15.3806 35.2086 14.8929 35.5571C13.957 36.2254 13.8721 37.7201 14.7036 38.8967C15.5351 40.0733 16.9679 40.4843 17.9039 39.8161C18.0341 39.7232 18.1462 39.6136 18.2431 39.4918C19.5244 43.667 23.6546 46.2577 27.8074 45.3505C30.9592 44.661 33.5627 42.0323 34.0746 38.3929Z" fill="#FFC0BB"/>
<path d="M24.495 34.414C24.6979 34.9285 24.3284 35.4841 23.768 35.4826C23.4621 35.4811 23.1803 35.2862 23.0668 35.0001C22.8623 34.4841 23.2318 33.927 23.7953 33.93C24.0997 33.9315 24.3814 34.1279 24.495 34.414Z" fill="#333333"/>
<path d="M31.0575 33.4262C31.262 33.9407 30.8909 34.4978 30.329 34.4947C30.0231 34.4932 29.7414 34.2969 29.6278 34.0107C29.4249 33.4962 29.7944 32.9406 30.3563 32.9437C30.6622 32.9452 30.9439 33.14 31.0575 33.4262Z" fill="#333333"/>
<path d="M25.5158 39.8344C25.9233 40.0383 26.3806 40.189 26.7547 40.2621C27.1818 40.3458 27.618 40.3717 28.0451 40.3123C28.4722 40.2545 28.8827 40.1053 29.2583 39.8876C29.6309 39.6654 29.964 39.3747 30.2654 39.0505C29.958 39.4843 29.6808 39.7369 29.3204 39.9896C28.9478 40.2347 28.551 40.393 28.0648 40.4676C27.6165 40.5269 27.1591 40.4934 26.7275 40.3808C26.2973 40.2636 25.8808 40.087 25.5158 39.8344Z" fill="#F99893"/>
<path d="M25.1176 32.8401C24.7162 32.7686 24.3376 32.7229 23.965 32.7168C23.5939 32.7108 23.235 32.7503 22.8927 32.8447C22.5534 32.9421 22.2172 33.07 21.9082 33.2739C21.4872 33.5144 21.1843 33.8097 20.9647 33.9559C21.1055 33.5982 21.3312 33.1735 21.6417 32.9239C21.94 32.6225 22.3384 32.417 22.7518 32.3013C23.1683 32.1871 23.6121 32.1841 24.021 32.28C24.4284 32.3805 24.8162 32.557 25.1176 32.8401Z" fill="#07085B"/>
<path d="M28.1829 32.3333C28.3783 31.968 28.6888 31.6742 29.0432 31.449C29.4006 31.2267 29.8217 31.0867 30.2533 31.0608C30.6819 31.0365 31.1242 31.1034 31.5028 31.2937C31.8754 31.4307 32.2268 31.7625 32.4721 32.0533C32.1965 31.9802 31.8511 31.8067 31.3604 31.7123C31.003 31.6179 30.6425 31.6057 30.2897 31.6225C29.9353 31.6438 29.5824 31.7214 29.234 31.8462C28.8857 31.9711 28.5419 32.137 28.1829 32.3333Z" fill="#07085B"/>
<path d="M26.8471 33.3105C27.2091 33.6514 27.5393 34.0213 27.8528 34.4049C28.1663 34.79 28.4586 35.1934 28.7176 35.6241C28.866 35.8829 29.0523 36.2269 29.0962 36.5207C29.122 36.6835 29.1083 36.8418 28.8387 37.1082C28.6615 37.2969 28.4616 37.4507 28.2572 37.5922C28.0497 37.7307 27.8361 37.8601 27.612 37.9652C27.9861 37.6425 28.3647 37.3213 28.6615 36.9514C28.7085 36.8951 28.7994 36.7612 28.8312 36.6866C28.8478 36.6318 28.8191 36.5115 28.7797 36.4095C28.6994 36.1964 28.5843 35.9833 28.4601 35.7763C28.2163 35.3577 27.9391 34.9529 27.668 34.5434C27.3893 34.1385 27.1122 33.7306 26.8471 33.3105Z" fill="#F99893"/>
<path d="M32.922 24.0179C32.922 24.0179 35.5225 23.5141 32.3192 21.9357C29.116 20.3572 21.2616 19.4378 17.1556 22.9737C17.1556 22.9737 15.7744 21.1929 14.534 21.9752C13.2935 22.7576 15.8259 23.6222 15.8259 23.6222C15.8259 23.6222 14.0917 23.9586 13.7585 24.9251C13.5116 25.6405 14.5718 25.4289 15.1413 25.2691C14.1992 25.6588 11.4276 28.289 15.0262 35.4735C15.6638 35.1736 19.7818 29.2693 19.7818 29.2693C19.7818 29.2693 28.0603 32.003 26.5519 29.735C26.5519 29.735 36.1995 32.1735 33.861 27.7791C33.861 27.7806 37.4172 27.2433 32.922 24.0179Z" fill="#07085B"/>
<path d="M36.425 0.677576L37.7759 0.543629C37.5397 0.414248 37.2549 0.350318 36.9535 0.379239L3.10201 3.72488C1.33151 3.89992 0.0199203 5.32159 0.174404 6.89851L0.351604 8.71289C0.506088 10.2913 2.06758 11.4284 3.83808 11.2533L37.3095 7.93508L36.425 0.677576Z" fill="#E03268"/>
<path d="M3.19155 8.43436L3.01435 6.61999C2.85987 5.04154 4.16994 3.62139 5.94196 3.44635L5.21498 3.51789C3.44448 3.69293 2.13288 5.1146 2.28737 6.69153L2.46457 8.50591C2.61905 10.0844 4.18055 11.2214 5.95105 11.0463L6.66895 10.9748C4.90147 11.1438 3.34603 10.0082 3.19155 8.43436Z" fill="#FEB546"/>
<path d="M11.1201 7.65049L10.9429 5.83611C10.7885 4.25767 12.0985 2.83752 13.8706 2.66248L13.1436 2.73402C11.3731 2.90906 10.0615 4.32921 10.216 5.90765L10.3932 7.72203C10.5476 9.30048 12.1091 10.4375 13.8796 10.2625L14.5975 10.1909C12.8301 10.3614 11.2746 9.22437 11.1201 7.65049Z" fill="#FEB546"/>
<path d="M37.2565 4.1374C37.04 1.92423 38.2183 0.724792 38.2183 0.724792L17.6599 2.75683C16.1044 2.91057 14.9534 4.15871 15.0882 5.54537L15.2427 7.12382C15.379 8.50896 16.7496 9.50899 18.3051 9.35526L38.8635 7.32322C38.8635 7.32322 37.5292 6.9229 37.2565 4.1374Z" fill="#DAEEF7"/>
</g>
<defs>
<clipPath id="clip0">
<rect width="51.1794" height="158.807" fill="white" transform="matrix(-1 0 0 1 51.3419 0.373169)"/>
</clipPath>
</defs>
</svg>
