<svg width="76" height="104" viewBox="0 0 76 104" fill="none" xmlns="http://www.w3.org/2000/svg">
<g clip-path="url(#clip0)">
<path d="M38.4067 9.21292C38.4067 9.21292 38.6761 15.8887 39.5875 19.5072L41.7873 8.68317L38.4067 9.21292Z" fill="#005692"/>
<path d="M50.9817 80.9314L45.9266 116.923L45.994 123.069L43.5248 152.313C43.5248 152.313 40.9254 153.579 38.5729 151.918L36.6874 113.412L36.4674 80.9269H50.9817V80.9314Z" fill="#4772A7"/>
<path d="M49.792 88.0023L46.7527 111.038C46.6315 108.407 45.9311 104.056 45.6887 101.43C44.5708 89.3805 41.3429 87.715 41.5943 88.0023H49.792Z" fill="#D1D3D4"/>
<path d="M59.4532 80.9314L57.7113 114.431L58.8337 122.212L59.9111 151.415C59.9111 151.415 58.0435 152.771 55.3454 151.644L49.9401 114.018L44.7054 80.9269H59.4532V80.9314Z" fill="#4772A7"/>
<path d="M23.1652 62.628C29.2888 58.1161 36.6155 48.5627 36.6155 48.5627C36.6155 48.5627 40.9837 44.6793 38.7166 41.5143C38.7166 41.5143 36.7906 39.9699 32.804 43.5165C26.9094 48.8904 23.2101 53.0521 19.0798 58.5786L19.8251 60.3339L23.1652 62.628Z" fill="#F8B78F"/>
<path d="M21.5669 64.2038C20.3234 63.4271 17.6118 60.1633 16.678 59.0275C12.6016 54.0667 10.1818 50.767 6.91797 47.5211L8.10318 45.9274C14.4422 49.3752 22.4379 57.6582 22.4379 57.6582L26.438 59.876L21.5669 64.2038Z" fill="#F8B78F"/>
<path d="M25.998 48.2484C25.4638 49.5055 27.3403 51.8714 29.0822 53.4247C29.9262 54.179 30.887 54.996 31.924 55.656C38.6716 48.1048 41.4326 44.63 42.2452 43.1709C42.2452 43.1709 44.6785 37.9632 40.1442 35.8352C40.1442 35.8352 36.9656 33.9631 34.7434 36.6343C34.7434 36.6433 29.6838 42.9644 25.998 48.2484Z" fill="#293351"/>
<path d="M51.1792 24.5532H44.5618V33.7431H51.1792V24.5532Z" fill="#F8B78F"/>
<path d="M51.1792 28.8227V24.5488H44.5618V29.1459C46.9277 29.3973 49.1051 29.6218 51.1792 28.8227Z" fill="#F6A47A"/>
<path d="M59.5116 36.7599C57.8909 34.2549 56.8853 33.9316 56.8853 33.9316L50.7841 31.6689H44.9569L38.8558 33.9316C38.8558 33.9316 36.3103 34.6095 34.6896 37.1191L59.5116 36.7599Z" fill="#F8B78F"/>
<path d="M60.7282 44.5716L60.9841 83.5532C60.9841 83.5532 48.4092 86.8485 34.4067 83.2704L35.8658 46.8702L34.3259 37.6714C34.3259 35.4446 37.9399 34.1157 37.9399 34.1157L43.3721 32.2571C43.3721 32.2571 42.9007 34.7128 45.8054 34.9373C45.8054 34.9373 52.2656 35.925 52.2342 32.2032L59.5161 34.5422C59.5116 34.5422 61.5632 39.2427 60.7282 44.5716Z" fill="#262F4A"/>
<path d="M44.5438 28.2032C45.5539 27.9877 47.2824 27.431 47.2824 27.431C51.2241 25.7205 52.5754 25.6936 53.2398 23.5162C53.2578 23.4489 55.1568 12.3286 55.1568 12.3286C55.2107 6.62252 49.1859 5.93115 48.279 5.85932C47.3766 5.72913 41.6033 4.62024 40.3821 10.1961C40.3821 10.1961 38.4382 16.6968 40.3552 24.4276C41.3474 27.3053 42.7391 28.0056 42.7391 28.0056C42.7391 28.0056 43.4664 28.3917 44.5438 28.2032Z" fill="#F8B78F"/>
<path d="M44.1397 19.799C44.1397 19.799 44.3731 19.8798 44.5841 20.0145C44.647 20.037 44.7143 20.0549 44.7682 20.0818C44.8265 20.0998 44.8849 20.1447 44.9433 20.1447C45.0016 20.1582 45.06 20.1582 45.1049 20.1851C45.1588 20.1806 45.2126 20.1806 45.262 20.1896C45.3159 20.1986 45.3743 20.1761 45.4326 20.1761C45.4865 20.1806 45.5538 20.1537 45.6167 20.1402C45.7514 20.1222 45.8636 20.0684 45.9983 20.0459C46.1285 20.01 46.2497 19.9472 46.3395 19.9292C46.4293 19.9068 46.4876 19.8978 46.4876 19.8978C46.4876 19.8978 46.4831 19.9561 46.4607 20.0459C46.4338 20.1357 46.4203 20.2614 46.335 20.3961C46.2452 20.5263 46.1285 20.7059 45.9399 20.8136C45.8456 20.8675 45.7648 20.9483 45.6391 20.9708C45.5179 20.9977 45.4012 21.0381 45.271 21.0381C45.1408 21.0246 45.0106 21.0022 44.8849 20.9797C44.7682 20.9348 44.6649 20.8585 44.5706 20.8002C44.4629 20.7463 44.418 20.6475 44.3552 20.5712C44.2968 20.4949 44.2474 20.4141 44.2115 20.3422C44.1172 20.0145 44.1397 19.799 44.1397 19.799Z" fill="#F6A47A"/>
<path d="M46.4472 15.2961C46.501 15.5789 46.7524 15.7585 47.0128 15.7181C47.9197 15.5789 48.8445 15.5789 49.7514 15.7181C50.0118 15.7585 50.2632 15.5744 50.317 15.2961C50.3709 15.0132 50.1779 14.7349 49.8861 14.6945C48.8894 14.5419 47.8793 14.5419 46.8781 14.6945C46.5908 14.7349 46.3978 15.0177 46.4472 15.2961Z" fill="#005692"/>
<path d="M40.3147 15.2961C40.3686 15.5789 40.62 15.7585 40.8803 15.7181C41.7917 15.5789 42.712 15.5789 43.6189 15.7181C43.8793 15.7585 44.1307 15.5744 44.1846 15.2961C44.2339 15.0132 44.0409 14.7349 43.7491 14.6945C42.7524 14.5419 41.7423 14.5419 40.7457 14.6945C40.4539 14.7349 40.2608 15.0177 40.3147 15.2961Z" fill="#005692"/>
<path d="M41.7289 17.1323C41.7289 16.6654 41.9893 16.2838 42.3125 16.2838C42.6357 16.2838 42.8961 16.6654 42.8961 17.1323" stroke="#27303B" stroke-miterlimit="10" stroke-linecap="round" stroke-linejoin="round"/>
<path d="M47.9601 17.1323C47.9601 16.6654 48.2205 16.2838 48.5482 16.2838C48.8714 16.2838 49.1318 16.6654 49.1318 17.1323" stroke="#27303B" stroke-miterlimit="10" stroke-linecap="round" stroke-linejoin="round"/>
<path d="M43.1879 23.193C43.2821 24.3288 44.198 25.2222 45.3158 25.2222C46.4337 25.2222 47.3496 24.3288 47.4438 23.193H43.1879Z" fill="#F6F6F6"/>
<path d="M3.71254 38.7802L5.80461 41.7612L7.04369 42.7713L7.551 43.346L8.74069 46.3808L7.3804 47.9162C5.18507 47.2473 3.45216 45.6356 3.45216 45.6356L3.57337 43.3056L0.911143 40.8319L0.650757 40.2932L1.26581 40.2393L4.52962 42.4481L3.17381 39.0945L3.09749 38.5244L3.71254 38.7802Z" fill="#F8B78F"/>
<path d="M53.4912 21.5184L53.9447 18.1828C53.1231 18.4342 53.1141 20.1581 53.1141 20.1581L51.9828 20.1492C51.92 15.8887 51.5877 13.3926 51.5877 13.3926C51.5877 13.3926 50.1646 10.8471 49.0422 9.20845L54.5059 8.0816L56.1804 10.0929C56.1849 10.1018 57.0828 14.0929 53.4912 21.5184Z" fill="#005692"/>
<path d="M54.6585 4.93897C54.6585 4.93897 56.9885 7.5563 55.1568 9.2129H49.0467L44.5617 9.74714L38.4067 9.2129L37.8994 6.49231C37.8994 6.49231 37.8096 3.89294 40.3596 2.24532C40.3596 2.24532 40.3821 3.06688 41.3832 3.44399C41.3832 3.44399 40.8355 1.34743 42.8962 0.37323C42.8962 0.37323 42.528 3.06688 46.4383 3.59214C46.4428 3.59214 53.4328 2.39796 54.6585 4.93897Z" fill="#005692"/>
<path d="M53.0288 18.6542C53.0288 18.6542 53.8504 16.387 55.5339 17.5543C55.5339 17.5543 56.2971 18.0571 55.5339 19.588C55.5339 19.588 54.425 21.7968 52.7909 20.7552L53.0288 18.6542Z" fill="#F8B78F"/>
<path d="M67.0762 64.0063L65.7473 50.9645L57.3252 51.4449L61.3298 65.7482L67.0762 64.0063Z" fill="#F8B78F"/>
<path d="M67.0763 64.0063C67.4624 70.5025 66.4073 88.963 66.4073 88.963L64.4769 89.0842L62.1963 74.7405L61.3253 65.7482L62.9236 62.3228L67.0763 64.0063Z" fill="#F8B78F"/>
<path d="M58.2725 57.8334C56.2837 48.0464 55.1568 42.7669 55.1568 42.7669C55.1568 42.7669 51.9379 33.5456 59.5116 34.5423C59.5116 34.5423 63.4353 35.5973 65.1323 42.1832C65.1323 42.1832 66.9416 49.0655 67.413 56.3968C64.6834 57.6179 61.451 58.0848 58.2725 57.8334Z" fill="#262F4A"/>
<path d="M66.4118 88.963L67.1615 93.0529L65.8955 95.2931L63.4353 97.9912V97.2056L64.4993 94.2875L64.194 91.7958L64.4813 89.0842L66.4118 88.963Z" fill="#F8B78F"/>
<path d="M64.3601 90.2335L62.9325 93.1426C62.9325 93.1426 63.8528 94.4176 65.1323 91.688L64.3601 90.2335Z" fill="#F8B78F"/>
</g>
<defs>
<clipPath id="clip0">
<rect width="75.0631" height="159.792" fill="white" transform="translate(0.650757 0.37323)"/>
</clipPath>
</defs>
</svg>
